G04 #@! TF.GenerationSoftware,KiCad,Pcbnew,(5.0.0)*
G04 #@! TF.CreationDate,2020-02-18T19:26:41-05:00*
G04 #@! TF.ProjectId,WS2812B Tiny T,575332383132422054696E7920542E6B,rev?*
G04 #@! TF.SameCoordinates,Original*
G04 #@! TF.FileFunction,Copper,L2,Bot,Signal*
G04 #@! TF.FilePolarity,Positive*
%FSLAX46Y46*%
G04 Gerber Fmt 4.6, Leading zero omitted, Abs format (unit mm)*
G04 Created by KiCad (PCBNEW (5.0.0)) date 02/18/20 19:26:41*
%MOMM*%
%LPD*%
G01*
G04 APERTURE LIST*
G04 #@! TA.AperFunction,ComponentPad*
%ADD10C,2.500000*%
G04 #@! TD*
G04 #@! TA.AperFunction,ComponentPad*
%ADD11O,1.700000X1.700000*%
G04 #@! TD*
G04 #@! TA.AperFunction,ComponentPad*
%ADD12R,1.700000X1.700000*%
G04 #@! TD*
G04 #@! TA.AperFunction,ComponentPad*
%ADD13C,2.000000*%
G04 #@! TD*
G04 #@! TA.AperFunction,ViaPad*
%ADD14C,0.500000*%
G04 #@! TD*
G04 #@! TA.AperFunction,Conductor*
%ADD15C,0.400000*%
G04 #@! TD*
G04 #@! TA.AperFunction,Conductor*
%ADD16C,0.200000*%
G04 #@! TD*
G04 APERTURE END LIST*
D10*
G04 #@! TO.P,J1,1*
G04 #@! TO.N,V-Switch*
X127512000Y-121412000D03*
G04 #@! TO.P,J1,2*
G04 #@! TO.N,+BATT*
X127512000Y-101912000D03*
G04 #@! TD*
D11*
G04 #@! TO.P,J2,4*
G04 #@! TO.N,GND*
X145732000Y-141222500D03*
G04 #@! TO.P,J2,3*
G04 #@! TO.N,V-Switch*
X143192000Y-141222500D03*
G04 #@! TO.P,J2,2*
X140652000Y-141222500D03*
D12*
G04 #@! TO.P,J2,1*
X138112000Y-141222500D03*
G04 #@! TD*
D13*
G04 #@! TO.P,SW1,1*
G04 #@! TO.N,BTN*
X122000000Y-138622500D03*
G04 #@! TO.P,SW1,2*
G04 #@! TO.N,GND*
X122000000Y-143122500D03*
G04 #@! TO.P,SW1,1*
G04 #@! TO.N,BTN*
X115500000Y-138622500D03*
G04 #@! TO.P,SW1,2*
G04 #@! TO.N,GND*
X115500000Y-143122500D03*
G04 #@! TD*
D11*
G04 #@! TO.P,J3,8*
G04 #@! TO.N,PB0*
X146300000Y-67453500D03*
G04 #@! TO.P,J3,7*
G04 #@! TO.N,GND*
X146300000Y-69993500D03*
G04 #@! TO.P,J3,6*
G04 #@! TO.N,DIN*
X143760000Y-67453500D03*
G04 #@! TO.P,J3,5*
G04 #@! TO.N,PB4*
X143760000Y-69993500D03*
G04 #@! TO.P,J3,4*
G04 #@! TO.N,BTN*
X141220000Y-67453500D03*
G04 #@! TO.P,J3,3*
G04 #@! TO.N,PB3*
X141220000Y-69993500D03*
G04 #@! TO.P,J3,2*
G04 #@! TO.N,+5V*
X138680000Y-67453500D03*
D12*
G04 #@! TO.P,J3,1*
G04 #@! TO.N,RST*
X138680000Y-69993500D03*
G04 #@! TD*
D14*
G04 #@! TO.N,GND*
X116225100Y-78067800D03*
X121955500Y-77972000D03*
X134531300Y-138692800D03*
X152047700Y-70009700D03*
X107251500Y-69723000D03*
X92011500Y-72707500D03*
X95707000Y-62242500D03*
X112585500Y-67818000D03*
X104267000Y-67310000D03*
X119253000Y-67564000D03*
G04 #@! TO.N,+5V*
X147889500Y-70724800D03*
X142424800Y-72576000D03*
X130401700Y-89446100D03*
X160326200Y-82232500D03*
X130401700Y-75425300D03*
X98440400Y-70777100D03*
X134874000Y-144770800D03*
X124268700Y-144767300D03*
X122237700Y-144907100D03*
X95270000Y-85077300D03*
X95270000Y-82080100D03*
X160906300Y-84518500D03*
X129786300Y-92087700D03*
X116931700Y-90055700D03*
X85951700Y-74104500D03*
X116027200Y-130712100D03*
X137273400Y-59042500D03*
X107101700Y-146000000D03*
X107101700Y-136000000D03*
G04 #@! TO.N,DIN*
X98179100Y-67549200D03*
G04 #@! TO.N,Net-(U4-Pad2)*
X103067500Y-60337300D03*
X87676300Y-66875700D03*
G04 #@! TO.N,Net-(U8-Pad2)*
X132397900Y-62628200D03*
X145535500Y-65088700D03*
G04 #@! TO.N,Net-(U10-Pad2)*
X166160800Y-59240000D03*
X152047700Y-63300500D03*
G04 #@! TO.N,Net-(U24-Pad2)*
X144618900Y-131522200D03*
X132217200Y-133637400D03*
G04 #@! TO.N,Net-(U30-Pad2)*
X121751400Y-135565400D03*
X110356800Y-134167800D03*
G04 #@! TO.N,BTN*
X130128100Y-127357400D03*
X127509500Y-67577200D03*
X98179100Y-69678300D03*
G04 #@! TO.N,Net-(U39-Pad2)*
X99720400Y-80302100D03*
X104952800Y-80962500D03*
G04 #@! TO.N,PB3*
X122938600Y-70749800D03*
G04 #@! TO.N,PB4*
X107378500Y-70802500D03*
G04 #@! TO.N,PB0*
X97498000Y-66864000D03*
G04 #@! TO.N,RST*
X119227600Y-71970900D03*
X134569200Y-73393300D03*
G04 #@! TO.N,V-Switch*
X111950000Y-142300000D03*
G04 #@! TD*
D15*
G04 #@! TO.N,GND*
X121955500Y-77972000D02*
X116320900Y-77972000D01*
X116320900Y-77972000D02*
X116225100Y-78067800D01*
X145732000Y-141222500D02*
X144471700Y-141222500D01*
X144471700Y-141222500D02*
X144471700Y-140671100D01*
X144471700Y-140671100D02*
X142493400Y-138692800D01*
X142493400Y-138692800D02*
X134531300Y-138692800D01*
X146300000Y-69993500D02*
X147560300Y-69993500D01*
X152047700Y-70009700D02*
X147576500Y-70009700D01*
X147576500Y-70009700D02*
X147560300Y-69993500D01*
X107251500Y-69723000D02*
X106897947Y-69723000D01*
X106897947Y-69723000D02*
X105183846Y-71437101D01*
X94043101Y-71437101D02*
X93281899Y-71437101D01*
X93281899Y-71437101D02*
X92011500Y-72707500D01*
X95707000Y-71386101D02*
X95758000Y-71437101D01*
X95707000Y-62242500D02*
X95707000Y-71386101D01*
X105183846Y-71437101D02*
X95758000Y-71437101D01*
X95758000Y-71437101D02*
X94043101Y-71437101D01*
X111552410Y-66784910D02*
X104792090Y-66784910D01*
X112585500Y-67818000D02*
X111552410Y-66784910D01*
X104792090Y-66784910D02*
X104267000Y-67310000D01*
X112839500Y-67564000D02*
X112585500Y-67818000D01*
X119253000Y-67564000D02*
X112839500Y-67564000D01*
X116914213Y-143122500D02*
X122000000Y-143122500D01*
X115500000Y-143122500D02*
X116914213Y-143122500D01*
G04 #@! TO.N,+5V*
X142424800Y-72576000D02*
X146038300Y-72576000D01*
X146038300Y-72576000D02*
X147889500Y-70724800D01*
X107101700Y-146000000D02*
X107101700Y-136000000D01*
G04 #@! TO.N,DIN*
X143760000Y-67453500D02*
X142499700Y-67453500D01*
X98179100Y-67549200D02*
X99553400Y-66174900D01*
X99553400Y-66174900D02*
X141743400Y-66174900D01*
X141743400Y-66174900D02*
X142499700Y-66931200D01*
X142499700Y-66931200D02*
X142499700Y-67453500D01*
G04 #@! TO.N,Net-(U4-Pad2)*
X87676300Y-66875700D02*
X94214700Y-60337300D01*
X94214700Y-60337300D02*
X103067500Y-60337300D01*
G04 #@! TO.N,Net-(U8-Pad2)*
X145535500Y-65088700D02*
X143075000Y-62628200D01*
X143075000Y-62628200D02*
X132397900Y-62628200D01*
G04 #@! TO.N,Net-(U10-Pad2)*
X152047700Y-63300500D02*
X162100300Y-63300500D01*
X162100300Y-63300500D02*
X166160800Y-59240000D01*
G04 #@! TO.N,Net-(U24-Pad2)*
X132217200Y-133637400D02*
X142503700Y-133637400D01*
X142503700Y-133637400D02*
X144618900Y-131522200D01*
G04 #@! TO.N,Net-(U30-Pad2)*
X110356800Y-134167800D02*
X111754400Y-135565400D01*
X111754400Y-135565400D02*
X121751400Y-135565400D01*
G04 #@! TO.N,BTN*
X119212000Y-138622500D02*
X119628100Y-138622500D01*
X119628100Y-138622500D02*
X130128100Y-128122500D01*
X130128100Y-128122500D02*
X130128100Y-127357400D01*
X127509500Y-68713800D02*
X99143600Y-68713800D01*
X99143600Y-68713800D02*
X98179100Y-69678300D01*
X139959700Y-67453500D02*
X139959700Y-68005000D01*
X139959700Y-68005000D02*
X139250900Y-68713800D01*
X139250900Y-68713800D02*
X127509500Y-68713800D01*
X127509500Y-68713800D02*
X127509500Y-67577200D01*
X141220000Y-67453500D02*
X139959700Y-67453500D01*
X122000000Y-138622500D02*
X115500000Y-138622500D01*
G04 #@! TO.N,Net-(U39-Pad2)*
X99970399Y-80552099D02*
X101341999Y-80552099D01*
X99720400Y-80302100D02*
X99970399Y-80552099D01*
X101341999Y-80552099D02*
X101346000Y-80556100D01*
X101346000Y-80556100D02*
X104546400Y-80556100D01*
X104546400Y-80556100D02*
X104952800Y-80962500D01*
G04 #@! TO.N,PB3*
X141220000Y-69993500D02*
X139959700Y-69993500D01*
X122938600Y-70749800D02*
X123442700Y-71253900D01*
X123442700Y-71253900D02*
X139775100Y-71253900D01*
X139775100Y-71253900D02*
X139959700Y-71069300D01*
X139959700Y-71069300D02*
X139959700Y-69993500D01*
G04 #@! TO.N,PB4*
X143760000Y-69993500D02*
X142499700Y-69993500D01*
X142499700Y-69993500D02*
X142499700Y-70544900D01*
X142499700Y-70544900D02*
X141158500Y-71886100D01*
X141158500Y-71886100D02*
X123124600Y-71886100D01*
X123124600Y-71886100D02*
X122278200Y-71039700D01*
X122278200Y-71039700D02*
X107615700Y-71039700D01*
X107615700Y-71039700D02*
X107378500Y-70802500D01*
G04 #@! TO.N,PB0*
X97498000Y-66864000D02*
X98799900Y-65562100D01*
X98799900Y-65562100D02*
X143699700Y-65562100D01*
X143699700Y-65562100D02*
X145039700Y-66902100D01*
X145039700Y-66902100D02*
X145039700Y-67453500D01*
X146300000Y-67453500D02*
X145039700Y-67453500D01*
G04 #@! TO.N,RST*
X119227600Y-71970900D02*
X120904000Y-71970900D01*
X120904000Y-71970900D02*
X122326400Y-73393300D01*
X122326400Y-73393300D02*
X134569200Y-73393300D01*
G04 #@! TO.N,V-Switch*
X140652000Y-141222500D02*
X143192000Y-141222500D01*
X138112000Y-141222500D02*
X140652000Y-141222500D01*
X111950000Y-142300000D02*
X112700000Y-142300000D01*
X112700000Y-142300000D02*
X114000000Y-141000000D01*
X114000000Y-141000000D02*
X128750000Y-141000000D01*
X128972500Y-141222500D02*
X138112000Y-141222500D01*
X128750000Y-141000000D02*
X128972500Y-141222500D01*
G04 #@! TD*
D16*
G04 #@! TO.N,GND*
G36*
X136508686Y-57898025D02*
X136128925Y-58277786D01*
X135923400Y-58773968D01*
X135923400Y-59311032D01*
X136128925Y-59807214D01*
X136508686Y-60186975D01*
X137004868Y-60392500D01*
X137541932Y-60392500D01*
X138038114Y-60186975D01*
X138417875Y-59807214D01*
X138623400Y-59311032D01*
X138623400Y-58773968D01*
X138417875Y-58277786D01*
X138038114Y-57898025D01*
X137689199Y-57753500D01*
X168558883Y-57753500D01*
X168763810Y-57787609D01*
X168859996Y-57839509D01*
X168934186Y-57919767D01*
X168987935Y-58041345D01*
X169005000Y-58176426D01*
X169005001Y-89501378D01*
X168970891Y-89706310D01*
X168918991Y-89802497D01*
X168838734Y-89876685D01*
X168717155Y-89930435D01*
X168582074Y-89947500D01*
X147987000Y-89947500D01*
X147987000Y-81963968D01*
X158976200Y-81963968D01*
X158976200Y-82501032D01*
X159181725Y-82997214D01*
X159561486Y-83376975D01*
X159969593Y-83546018D01*
X159761825Y-83753786D01*
X159556300Y-84249968D01*
X159556300Y-84787032D01*
X159761825Y-85283214D01*
X160141586Y-85662975D01*
X160637768Y-85868500D01*
X161174832Y-85868500D01*
X161671014Y-85662975D01*
X162050775Y-85283214D01*
X162256300Y-84787032D01*
X162256300Y-84249968D01*
X162050775Y-83753786D01*
X161671014Y-83374025D01*
X161262907Y-83204982D01*
X161470675Y-82997214D01*
X161676200Y-82501032D01*
X161676200Y-81963968D01*
X161470675Y-81467786D01*
X161090914Y-81088025D01*
X160594732Y-80882500D01*
X160057668Y-80882500D01*
X159561486Y-81088025D01*
X159181725Y-81467786D01*
X158976200Y-81963968D01*
X147987000Y-81963968D01*
X147987000Y-79808224D01*
X148010019Y-79692500D01*
X147918825Y-79234038D01*
X147659127Y-78845373D01*
X147270462Y-78585675D01*
X146927724Y-78517500D01*
X146812000Y-78494481D01*
X146696276Y-78517500D01*
X139307724Y-78517500D01*
X139192000Y-78494481D01*
X139076276Y-78517500D01*
X138733538Y-78585675D01*
X138344873Y-78845373D01*
X138085175Y-79234038D01*
X137993981Y-79692500D01*
X138017000Y-79808224D01*
X138017001Y-128598771D01*
X137993981Y-128714500D01*
X138085175Y-129172962D01*
X138344873Y-129561627D01*
X138733538Y-129821325D01*
X139076276Y-129889500D01*
X139192000Y-129912519D01*
X139307724Y-129889500D01*
X147730883Y-129889500D01*
X147935810Y-129923609D01*
X148031996Y-129975509D01*
X148106186Y-130055767D01*
X148159935Y-130177345D01*
X148177000Y-130312426D01*
X148177001Y-150963697D01*
X148154238Y-151092792D01*
X148140890Y-151115912D01*
X148120436Y-151133074D01*
X148046021Y-151160159D01*
X148030697Y-151161500D01*
X107539116Y-151161500D01*
X107334190Y-151127391D01*
X107238003Y-151075491D01*
X107163815Y-150995234D01*
X107110065Y-150873655D01*
X107093000Y-150738574D01*
X107093000Y-147350000D01*
X107370232Y-147350000D01*
X107866414Y-147144475D01*
X108246175Y-146764714D01*
X108451700Y-146268532D01*
X108451700Y-145731468D01*
X108401700Y-145610757D01*
X108401700Y-144694234D01*
X114493951Y-144694234D01*
X114587233Y-145059338D01*
X115397909Y-145261206D01*
X116224128Y-145137475D01*
X116412767Y-145059338D01*
X116506049Y-144694234D01*
X115500000Y-143688185D01*
X114493951Y-144694234D01*
X108401700Y-144694234D01*
X108401700Y-136389243D01*
X108451700Y-136268532D01*
X108451700Y-135731468D01*
X108246175Y-135235286D01*
X107866414Y-134855525D01*
X107370232Y-134650000D01*
X107093000Y-134650000D01*
X107093000Y-133899268D01*
X109006800Y-133899268D01*
X109006800Y-134436332D01*
X109212325Y-134932514D01*
X109592086Y-135312275D01*
X109712800Y-135362276D01*
X110744626Y-136394102D01*
X110817153Y-136502647D01*
X111247165Y-136789973D01*
X111626363Y-136865400D01*
X111626367Y-136865400D01*
X111754400Y-136890867D01*
X111882433Y-136865400D01*
X114287252Y-136865400D01*
X113719706Y-137432946D01*
X113400000Y-138204784D01*
X113400000Y-139040216D01*
X113688415Y-139736510D01*
X113492765Y-139775427D01*
X113062753Y-140062753D01*
X112990226Y-140171298D01*
X112211524Y-140950000D01*
X111681468Y-140950000D01*
X111185286Y-141155525D01*
X110805525Y-141535286D01*
X110600000Y-142031468D01*
X110600000Y-142568532D01*
X110805525Y-143064714D01*
X111185286Y-143444475D01*
X111681468Y-143650000D01*
X112218532Y-143650000D01*
X112339243Y-143600000D01*
X112571967Y-143600000D01*
X112700000Y-143625467D01*
X112828033Y-143600000D01*
X112828037Y-143600000D01*
X113207235Y-143524573D01*
X113415914Y-143385137D01*
X113485025Y-143846628D01*
X113563162Y-144035267D01*
X113928266Y-144128549D01*
X114934315Y-143122500D01*
X114920173Y-143108358D01*
X115485858Y-142542673D01*
X115500000Y-142556815D01*
X115514143Y-142542673D01*
X116079828Y-143108358D01*
X116065685Y-143122500D01*
X117071734Y-144128549D01*
X117436838Y-144035267D01*
X117638706Y-143224591D01*
X117514975Y-142398372D01*
X117474228Y-142300000D01*
X120040684Y-142300000D01*
X119861294Y-143020409D01*
X119985025Y-143846628D01*
X120063162Y-144035267D01*
X120428266Y-144128549D01*
X121434315Y-143122500D01*
X121420173Y-143108358D01*
X121985858Y-142542673D01*
X122000000Y-142556815D01*
X122014143Y-142542673D01*
X122579828Y-143108358D01*
X122565685Y-143122500D01*
X122579828Y-143136643D01*
X122159370Y-143557100D01*
X121969168Y-143557100D01*
X121472986Y-143762625D01*
X121093225Y-144142386D01*
X120887700Y-144638568D01*
X120887700Y-145175632D01*
X121093225Y-145671814D01*
X121472986Y-146051575D01*
X121969168Y-146257100D01*
X122506232Y-146257100D01*
X123002414Y-146051575D01*
X123323100Y-145730889D01*
X123503986Y-145911775D01*
X124000168Y-146117300D01*
X124537232Y-146117300D01*
X125033414Y-145911775D01*
X125413175Y-145532014D01*
X125618700Y-145035832D01*
X125618700Y-144502268D01*
X133524000Y-144502268D01*
X133524000Y-145039332D01*
X133729525Y-145535514D01*
X134109286Y-145915275D01*
X134605468Y-146120800D01*
X135142532Y-146120800D01*
X135638714Y-145915275D01*
X136018475Y-145535514D01*
X136224000Y-145039332D01*
X136224000Y-144502268D01*
X136018475Y-144006086D01*
X135638714Y-143626325D01*
X135142532Y-143420800D01*
X134605468Y-143420800D01*
X134109286Y-143626325D01*
X133729525Y-144006086D01*
X133524000Y-144502268D01*
X125618700Y-144502268D01*
X125618700Y-144498768D01*
X125413175Y-144002586D01*
X125033414Y-143622825D01*
X124537232Y-143417300D01*
X124090719Y-143417300D01*
X124138706Y-143224591D01*
X124014975Y-142398372D01*
X123974228Y-142300000D01*
X128245156Y-142300000D01*
X128465265Y-142447073D01*
X128844463Y-142522500D01*
X128844467Y-142522500D01*
X128972500Y-142547967D01*
X129100533Y-142522500D01*
X136239722Y-142522500D01*
X136468944Y-142865556D01*
X136832801Y-143108677D01*
X137262000Y-143194050D01*
X138962000Y-143194050D01*
X139391199Y-143108677D01*
X139678079Y-142916991D01*
X139891148Y-143059359D01*
X140459946Y-143172500D01*
X140844054Y-143172500D01*
X141412852Y-143059359D01*
X141922000Y-142719157D01*
X142431148Y-143059359D01*
X142999946Y-143172500D01*
X143384054Y-143172500D01*
X143952852Y-143059359D01*
X144500379Y-142693513D01*
X144933785Y-143001669D01*
X145038364Y-143044962D01*
X145332000Y-142849038D01*
X145332000Y-141622500D01*
X146132000Y-141622500D01*
X146132000Y-142849038D01*
X146425636Y-143044962D01*
X146530215Y-143001669D01*
X147150313Y-142560774D01*
X147554486Y-141916139D01*
X147365557Y-141622500D01*
X146132000Y-141622500D01*
X145332000Y-141622500D01*
X145312000Y-141622500D01*
X145312000Y-140822500D01*
X145332000Y-140822500D01*
X145332000Y-139595962D01*
X146132000Y-139595962D01*
X146132000Y-140822500D01*
X147365557Y-140822500D01*
X147554486Y-140528861D01*
X147150313Y-139884226D01*
X146530215Y-139443331D01*
X146425636Y-139400038D01*
X146132000Y-139595962D01*
X145332000Y-139595962D01*
X145038364Y-139400038D01*
X144933785Y-139443331D01*
X144500379Y-139751487D01*
X143952852Y-139385641D01*
X143384054Y-139272500D01*
X142999946Y-139272500D01*
X142431148Y-139385641D01*
X141922000Y-139725843D01*
X141412852Y-139385641D01*
X140844054Y-139272500D01*
X140459946Y-139272500D01*
X139891148Y-139385641D01*
X139678079Y-139528009D01*
X139391199Y-139336323D01*
X138962000Y-139250950D01*
X137262000Y-139250950D01*
X136832801Y-139336323D01*
X136468944Y-139579444D01*
X136239722Y-139922500D01*
X129477344Y-139922500D01*
X129257235Y-139775427D01*
X128878037Y-139700000D01*
X128878033Y-139700000D01*
X128750000Y-139674533D01*
X128621967Y-139700000D01*
X123826708Y-139700000D01*
X124100000Y-139040216D01*
X124100000Y-138204784D01*
X123780294Y-137432946D01*
X123218212Y-136870864D01*
X126720208Y-133368868D01*
X130867200Y-133368868D01*
X130867200Y-133905932D01*
X131072725Y-134402114D01*
X131452486Y-134781875D01*
X131948668Y-134987400D01*
X132485732Y-134987400D01*
X132606443Y-134937400D01*
X142375667Y-134937400D01*
X142503700Y-134962867D01*
X142631733Y-134937400D01*
X142631737Y-134937400D01*
X143010935Y-134861973D01*
X143440947Y-134574647D01*
X143513476Y-134466100D01*
X145262901Y-132716676D01*
X145383614Y-132666675D01*
X145763375Y-132286914D01*
X145968900Y-131790732D01*
X145968900Y-131253668D01*
X145763375Y-130757486D01*
X145383614Y-130377725D01*
X144887432Y-130172200D01*
X144350368Y-130172200D01*
X143854186Y-130377725D01*
X143474425Y-130757486D01*
X143424424Y-130878199D01*
X141965224Y-132337400D01*
X132606443Y-132337400D01*
X132485732Y-132287400D01*
X131948668Y-132287400D01*
X131452486Y-132492925D01*
X131072725Y-132872686D01*
X130867200Y-133368868D01*
X126720208Y-133368868D01*
X130956806Y-129132272D01*
X131065347Y-129059747D01*
X131137872Y-128951206D01*
X131137874Y-128951204D01*
X131267142Y-128757740D01*
X131352673Y-128629735D01*
X131428100Y-128250537D01*
X131428100Y-128250532D01*
X131453567Y-128122501D01*
X131428100Y-127994469D01*
X131428100Y-127746643D01*
X131478100Y-127625932D01*
X131478100Y-127088868D01*
X131272575Y-126592686D01*
X130892814Y-126212925D01*
X130396632Y-126007400D01*
X129859568Y-126007400D01*
X129363386Y-126212925D01*
X128983625Y-126592686D01*
X128778100Y-127088868D01*
X128778100Y-127625932D01*
X128780470Y-127631653D01*
X122144942Y-134267181D01*
X122019932Y-134215400D01*
X121482868Y-134215400D01*
X121362157Y-134265400D01*
X112292877Y-134265400D01*
X111551276Y-133523800D01*
X111501275Y-133403086D01*
X111121514Y-133023325D01*
X110625332Y-132817800D01*
X110088268Y-132817800D01*
X109592086Y-133023325D01*
X109212325Y-133403086D01*
X109006800Y-133899268D01*
X107093000Y-133899268D01*
X107093000Y-130335617D01*
X107127109Y-130130690D01*
X107179009Y-130034504D01*
X107259267Y-129960314D01*
X107380845Y-129906565D01*
X107515926Y-129889500D01*
X114940611Y-129889500D01*
X114882725Y-129947386D01*
X114677200Y-130443568D01*
X114677200Y-130980632D01*
X114882725Y-131476814D01*
X115262486Y-131856575D01*
X115758668Y-132062100D01*
X116295732Y-132062100D01*
X116791914Y-131856575D01*
X117171675Y-131476814D01*
X117377200Y-130980632D01*
X117377200Y-130443568D01*
X117171675Y-129947386D01*
X116791914Y-129567625D01*
X116694171Y-129527139D01*
X116930825Y-129172962D01*
X117022019Y-128714500D01*
X116999000Y-128598776D01*
X116999000Y-120944556D01*
X125162000Y-120944556D01*
X125162000Y-121879444D01*
X125519766Y-122743168D01*
X126180832Y-123404234D01*
X127044556Y-123762000D01*
X127979444Y-123762000D01*
X128843168Y-123404234D01*
X129504234Y-122743168D01*
X129862000Y-121879444D01*
X129862000Y-120944556D01*
X129504234Y-120080832D01*
X128843168Y-119419766D01*
X127979444Y-119062000D01*
X127044556Y-119062000D01*
X126180832Y-119419766D01*
X125519766Y-120080832D01*
X125162000Y-120944556D01*
X116999000Y-120944556D01*
X116999000Y-101444556D01*
X125162000Y-101444556D01*
X125162000Y-102379444D01*
X125519766Y-103243168D01*
X126180832Y-103904234D01*
X127044556Y-104262000D01*
X127979444Y-104262000D01*
X128843168Y-103904234D01*
X129504234Y-103243168D01*
X129862000Y-102379444D01*
X129862000Y-101444556D01*
X129504234Y-100580832D01*
X128843168Y-99919766D01*
X127979444Y-99562000D01*
X127044556Y-99562000D01*
X126180832Y-99919766D01*
X125519766Y-100580832D01*
X125162000Y-101444556D01*
X116999000Y-101444556D01*
X116999000Y-91819168D01*
X128436300Y-91819168D01*
X128436300Y-92356232D01*
X128641825Y-92852414D01*
X129021586Y-93232175D01*
X129517768Y-93437700D01*
X130054832Y-93437700D01*
X130551014Y-93232175D01*
X130930775Y-92852414D01*
X131136300Y-92356232D01*
X131136300Y-91819168D01*
X130930775Y-91322986D01*
X130551014Y-90943225D01*
X130195822Y-90796100D01*
X130670232Y-90796100D01*
X131166414Y-90590575D01*
X131546175Y-90210814D01*
X131751700Y-89714632D01*
X131751700Y-89177568D01*
X131546175Y-88681386D01*
X131166414Y-88301625D01*
X130670232Y-88096100D01*
X130133168Y-88096100D01*
X129636986Y-88301625D01*
X129257225Y-88681386D01*
X129051700Y-89177568D01*
X129051700Y-89714632D01*
X129257225Y-90210814D01*
X129636986Y-90590575D01*
X129992178Y-90737700D01*
X129517768Y-90737700D01*
X129021586Y-90943225D01*
X128641825Y-91322986D01*
X128436300Y-91819168D01*
X116999000Y-91819168D01*
X116999000Y-91405700D01*
X117200232Y-91405700D01*
X117696414Y-91200175D01*
X118076175Y-90820414D01*
X118281700Y-90324232D01*
X118281700Y-89787168D01*
X118076175Y-89290986D01*
X117696414Y-88911225D01*
X117200232Y-88705700D01*
X116999000Y-88705700D01*
X116999000Y-79808224D01*
X117022019Y-79692500D01*
X116930825Y-79234038D01*
X116671127Y-78845373D01*
X116282462Y-78585675D01*
X115939724Y-78517500D01*
X115824000Y-78494481D01*
X115708276Y-78517500D01*
X108319724Y-78517500D01*
X108204000Y-78494481D01*
X108088276Y-78517500D01*
X107745538Y-78585675D01*
X107356873Y-78845373D01*
X107097175Y-79234038D01*
X107005981Y-79692500D01*
X107029000Y-79808224D01*
X107029001Y-89947500D01*
X86457116Y-89947500D01*
X86252190Y-89913391D01*
X86156003Y-89861491D01*
X86081815Y-89781234D01*
X86028065Y-89659655D01*
X86011000Y-89524574D01*
X86011000Y-84808768D01*
X93920000Y-84808768D01*
X93920000Y-85345832D01*
X94125525Y-85842014D01*
X94505286Y-86221775D01*
X95001468Y-86427300D01*
X95538532Y-86427300D01*
X96034714Y-86221775D01*
X96414475Y-85842014D01*
X96620000Y-85345832D01*
X96620000Y-84808768D01*
X96414475Y-84312586D01*
X96034714Y-83932825D01*
X95538532Y-83727300D01*
X95001468Y-83727300D01*
X94505286Y-83932825D01*
X94125525Y-84312586D01*
X93920000Y-84808768D01*
X86011000Y-84808768D01*
X86011000Y-81811568D01*
X93920000Y-81811568D01*
X93920000Y-82348632D01*
X94125525Y-82844814D01*
X94505286Y-83224575D01*
X95001468Y-83430100D01*
X95538532Y-83430100D01*
X96034714Y-83224575D01*
X96414475Y-82844814D01*
X96620000Y-82348632D01*
X96620000Y-81811568D01*
X96414475Y-81315386D01*
X96034714Y-80935625D01*
X95538532Y-80730100D01*
X95001468Y-80730100D01*
X94505286Y-80935625D01*
X94125525Y-81315386D01*
X93920000Y-81811568D01*
X86011000Y-81811568D01*
X86011000Y-80033568D01*
X98370400Y-80033568D01*
X98370400Y-80570632D01*
X98575925Y-81066814D01*
X98955686Y-81446575D01*
X99023282Y-81474574D01*
X99033152Y-81489346D01*
X99463164Y-81776672D01*
X99842362Y-81852099D01*
X99842366Y-81852099D01*
X99970399Y-81877566D01*
X100098432Y-81852099D01*
X101197849Y-81852099D01*
X101217963Y-81856100D01*
X101217968Y-81856100D01*
X101345999Y-81881567D01*
X101474031Y-81856100D01*
X103937211Y-81856100D01*
X104188086Y-82106975D01*
X104684268Y-82312500D01*
X105221332Y-82312500D01*
X105717514Y-82106975D01*
X106097275Y-81727214D01*
X106302800Y-81231032D01*
X106302800Y-80693968D01*
X106097275Y-80197786D01*
X105717514Y-79818025D01*
X105596800Y-79768024D01*
X105556176Y-79727399D01*
X105483647Y-79618853D01*
X105053635Y-79331527D01*
X104674437Y-79256100D01*
X104674433Y-79256100D01*
X104546400Y-79230633D01*
X104418367Y-79256100D01*
X101490150Y-79256100D01*
X101470036Y-79252099D01*
X101470032Y-79252099D01*
X101341999Y-79226632D01*
X101213966Y-79252099D01*
X100579588Y-79252099D01*
X100485114Y-79157625D01*
X99988932Y-78952100D01*
X99451868Y-78952100D01*
X98955686Y-79157625D01*
X98575925Y-79537386D01*
X98370400Y-80033568D01*
X86011000Y-80033568D01*
X86011000Y-75454500D01*
X86220232Y-75454500D01*
X86716414Y-75248975D01*
X87096175Y-74869214D01*
X87301700Y-74373032D01*
X87301700Y-73835968D01*
X87096175Y-73339786D01*
X86716414Y-72960025D01*
X86220232Y-72754500D01*
X86011000Y-72754500D01*
X86011000Y-66607168D01*
X86326300Y-66607168D01*
X86326300Y-67144232D01*
X86531825Y-67640414D01*
X86911586Y-68020175D01*
X87407768Y-68225700D01*
X87944832Y-68225700D01*
X88441014Y-68020175D01*
X88820775Y-67640414D01*
X88870776Y-67519700D01*
X89795008Y-66595468D01*
X96148000Y-66595468D01*
X96148000Y-67132532D01*
X96353525Y-67628714D01*
X96733286Y-68008475D01*
X96944315Y-68095886D01*
X97034625Y-68313914D01*
X97334461Y-68613750D01*
X97034625Y-68913586D01*
X96829100Y-69409768D01*
X96829100Y-69946832D01*
X97034625Y-70443014D01*
X97093264Y-70501653D01*
X97090400Y-70508568D01*
X97090400Y-71045632D01*
X97295925Y-71541814D01*
X97675686Y-71921575D01*
X98171868Y-72127100D01*
X98708932Y-72127100D01*
X99205114Y-71921575D01*
X99584875Y-71541814D01*
X99790400Y-71045632D01*
X99790400Y-70508568D01*
X99613759Y-70082118D01*
X99682077Y-70013800D01*
X106258011Y-70013800D01*
X106234025Y-70037786D01*
X106028500Y-70533968D01*
X106028500Y-71071032D01*
X106234025Y-71567214D01*
X106613786Y-71946975D01*
X106675509Y-71972542D01*
X106678453Y-71976947D01*
X107108465Y-72264273D01*
X107487663Y-72339700D01*
X107487668Y-72339700D01*
X107615699Y-72365167D01*
X107743731Y-72339700D01*
X117919132Y-72339700D01*
X118083125Y-72735614D01*
X118462886Y-73115375D01*
X118959068Y-73320900D01*
X119496132Y-73320900D01*
X119616843Y-73270900D01*
X120365523Y-73270900D01*
X121316627Y-74222005D01*
X121389153Y-74330547D01*
X121497694Y-74403072D01*
X121497696Y-74403074D01*
X121617160Y-74482897D01*
X121819165Y-74617873D01*
X122198363Y-74693300D01*
X122198368Y-74693300D01*
X122326399Y-74718767D01*
X122454431Y-74693300D01*
X129243674Y-74693300D01*
X129051700Y-75156768D01*
X129051700Y-75693832D01*
X129257225Y-76190014D01*
X129636986Y-76569775D01*
X130133168Y-76775300D01*
X130670232Y-76775300D01*
X131166414Y-76569775D01*
X131546175Y-76190014D01*
X131751700Y-75693832D01*
X131751700Y-75156768D01*
X131559726Y-74693300D01*
X134179957Y-74693300D01*
X134300668Y-74743300D01*
X134837732Y-74743300D01*
X135333914Y-74537775D01*
X135713675Y-74158014D01*
X135919200Y-73661832D01*
X135919200Y-73186100D01*
X141030467Y-73186100D01*
X141158500Y-73211567D01*
X141221629Y-73199010D01*
X141280325Y-73340714D01*
X141660086Y-73720475D01*
X142156268Y-73926000D01*
X142693332Y-73926000D01*
X142814043Y-73876000D01*
X145910267Y-73876000D01*
X146038300Y-73901467D01*
X146166333Y-73876000D01*
X146166337Y-73876000D01*
X146545535Y-73800573D01*
X146975547Y-73513247D01*
X147048076Y-73404700D01*
X148533502Y-71919275D01*
X148654214Y-71869275D01*
X149033975Y-71489514D01*
X149239500Y-70993332D01*
X149239500Y-70456268D01*
X149033975Y-69960086D01*
X148654214Y-69580325D01*
X148158032Y-69374800D01*
X148074270Y-69374800D01*
X148122486Y-69299861D01*
X147778323Y-68750939D01*
X148136859Y-68214352D01*
X148288202Y-67453500D01*
X148136859Y-66692648D01*
X147705871Y-66047629D01*
X147060852Y-65616641D01*
X146799576Y-65564670D01*
X146885500Y-65357232D01*
X146885500Y-64820168D01*
X146679975Y-64323986D01*
X146300214Y-63944225D01*
X146179502Y-63894225D01*
X145317245Y-63031968D01*
X150697700Y-63031968D01*
X150697700Y-63569032D01*
X150903225Y-64065214D01*
X151282986Y-64444975D01*
X151779168Y-64650500D01*
X152316232Y-64650500D01*
X152436943Y-64600500D01*
X161972267Y-64600500D01*
X162100300Y-64625967D01*
X162228333Y-64600500D01*
X162228337Y-64600500D01*
X162607535Y-64525073D01*
X163037547Y-64237747D01*
X163110076Y-64129200D01*
X166804803Y-60434475D01*
X166925514Y-60384475D01*
X167305275Y-60004714D01*
X167510800Y-59508532D01*
X167510800Y-58971468D01*
X167305275Y-58475286D01*
X166925514Y-58095525D01*
X166429332Y-57890000D01*
X165892268Y-57890000D01*
X165396086Y-58095525D01*
X165016325Y-58475286D01*
X164966325Y-58595997D01*
X161561824Y-62000500D01*
X152436943Y-62000500D01*
X152316232Y-61950500D01*
X151779168Y-61950500D01*
X151282986Y-62156025D01*
X150903225Y-62535786D01*
X150697700Y-63031968D01*
X145317245Y-63031968D01*
X144084776Y-61799500D01*
X144012247Y-61690953D01*
X143582235Y-61403627D01*
X143203037Y-61328200D01*
X143203033Y-61328200D01*
X143075000Y-61302733D01*
X142946967Y-61328200D01*
X132787143Y-61328200D01*
X132666432Y-61278200D01*
X132129368Y-61278200D01*
X131633186Y-61483725D01*
X131253425Y-61863486D01*
X131047900Y-62359668D01*
X131047900Y-62896732D01*
X131253425Y-63392914D01*
X131633186Y-63772675D01*
X132129368Y-63978200D01*
X132666432Y-63978200D01*
X132787143Y-63928200D01*
X142536524Y-63928200D01*
X142870423Y-64262100D01*
X98927933Y-64262100D01*
X98799900Y-64236633D01*
X98671867Y-64262100D01*
X98671863Y-64262100D01*
X98292665Y-64337527D01*
X97862653Y-64624853D01*
X97790126Y-64733398D01*
X96854000Y-65669524D01*
X96733286Y-65719525D01*
X96353525Y-66099286D01*
X96148000Y-66595468D01*
X89795008Y-66595468D01*
X94753177Y-61637300D01*
X102678257Y-61637300D01*
X102798968Y-61687300D01*
X103336032Y-61687300D01*
X103832214Y-61481775D01*
X104211975Y-61102014D01*
X104417500Y-60605832D01*
X104417500Y-60068768D01*
X104211975Y-59572586D01*
X103832214Y-59192825D01*
X103336032Y-58987300D01*
X102798968Y-58987300D01*
X102678257Y-59037300D01*
X94342733Y-59037300D01*
X94214700Y-59011833D01*
X94086667Y-59037300D01*
X94086663Y-59037300D01*
X93707465Y-59112727D01*
X93277453Y-59400053D01*
X93204926Y-59508597D01*
X87032300Y-65681224D01*
X86911586Y-65731225D01*
X86531825Y-66110986D01*
X86326300Y-66607168D01*
X86011000Y-66607168D01*
X86011000Y-57753500D01*
X136857601Y-57753500D01*
X136508686Y-57898025D01*
X136508686Y-57898025D01*
G37*
X136508686Y-57898025D02*
X136128925Y-58277786D01*
X135923400Y-58773968D01*
X135923400Y-59311032D01*
X136128925Y-59807214D01*
X136508686Y-60186975D01*
X137004868Y-60392500D01*
X137541932Y-60392500D01*
X138038114Y-60186975D01*
X138417875Y-59807214D01*
X138623400Y-59311032D01*
X138623400Y-58773968D01*
X138417875Y-58277786D01*
X138038114Y-57898025D01*
X137689199Y-57753500D01*
X168558883Y-57753500D01*
X168763810Y-57787609D01*
X168859996Y-57839509D01*
X168934186Y-57919767D01*
X168987935Y-58041345D01*
X169005000Y-58176426D01*
X169005001Y-89501378D01*
X168970891Y-89706310D01*
X168918991Y-89802497D01*
X168838734Y-89876685D01*
X168717155Y-89930435D01*
X168582074Y-89947500D01*
X147987000Y-89947500D01*
X147987000Y-81963968D01*
X158976200Y-81963968D01*
X158976200Y-82501032D01*
X159181725Y-82997214D01*
X159561486Y-83376975D01*
X159969593Y-83546018D01*
X159761825Y-83753786D01*
X159556300Y-84249968D01*
X159556300Y-84787032D01*
X159761825Y-85283214D01*
X160141586Y-85662975D01*
X160637768Y-85868500D01*
X161174832Y-85868500D01*
X161671014Y-85662975D01*
X162050775Y-85283214D01*
X162256300Y-84787032D01*
X162256300Y-84249968D01*
X162050775Y-83753786D01*
X161671014Y-83374025D01*
X161262907Y-83204982D01*
X161470675Y-82997214D01*
X161676200Y-82501032D01*
X161676200Y-81963968D01*
X161470675Y-81467786D01*
X161090914Y-81088025D01*
X160594732Y-80882500D01*
X160057668Y-80882500D01*
X159561486Y-81088025D01*
X159181725Y-81467786D01*
X158976200Y-81963968D01*
X147987000Y-81963968D01*
X147987000Y-79808224D01*
X148010019Y-79692500D01*
X147918825Y-79234038D01*
X147659127Y-78845373D01*
X147270462Y-78585675D01*
X146927724Y-78517500D01*
X146812000Y-78494481D01*
X146696276Y-78517500D01*
X139307724Y-78517500D01*
X139192000Y-78494481D01*
X139076276Y-78517500D01*
X138733538Y-78585675D01*
X138344873Y-78845373D01*
X138085175Y-79234038D01*
X137993981Y-79692500D01*
X138017000Y-79808224D01*
X138017001Y-128598771D01*
X137993981Y-128714500D01*
X138085175Y-129172962D01*
X138344873Y-129561627D01*
X138733538Y-129821325D01*
X139076276Y-129889500D01*
X139192000Y-129912519D01*
X139307724Y-129889500D01*
X147730883Y-129889500D01*
X147935810Y-129923609D01*
X148031996Y-129975509D01*
X148106186Y-130055767D01*
X148159935Y-130177345D01*
X148177000Y-130312426D01*
X148177001Y-150963697D01*
X148154238Y-151092792D01*
X148140890Y-151115912D01*
X148120436Y-151133074D01*
X148046021Y-151160159D01*
X148030697Y-151161500D01*
X107539116Y-151161500D01*
X107334190Y-151127391D01*
X107238003Y-151075491D01*
X107163815Y-150995234D01*
X107110065Y-150873655D01*
X107093000Y-150738574D01*
X107093000Y-147350000D01*
X107370232Y-147350000D01*
X107866414Y-147144475D01*
X108246175Y-146764714D01*
X108451700Y-146268532D01*
X108451700Y-145731468D01*
X108401700Y-145610757D01*
X108401700Y-144694234D01*
X114493951Y-144694234D01*
X114587233Y-145059338D01*
X115397909Y-145261206D01*
X116224128Y-145137475D01*
X116412767Y-145059338D01*
X116506049Y-144694234D01*
X115500000Y-143688185D01*
X114493951Y-144694234D01*
X108401700Y-144694234D01*
X108401700Y-136389243D01*
X108451700Y-136268532D01*
X108451700Y-135731468D01*
X108246175Y-135235286D01*
X107866414Y-134855525D01*
X107370232Y-134650000D01*
X107093000Y-134650000D01*
X107093000Y-133899268D01*
X109006800Y-133899268D01*
X109006800Y-134436332D01*
X109212325Y-134932514D01*
X109592086Y-135312275D01*
X109712800Y-135362276D01*
X110744626Y-136394102D01*
X110817153Y-136502647D01*
X111247165Y-136789973D01*
X111626363Y-136865400D01*
X111626367Y-136865400D01*
X111754400Y-136890867D01*
X111882433Y-136865400D01*
X114287252Y-136865400D01*
X113719706Y-137432946D01*
X113400000Y-138204784D01*
X113400000Y-139040216D01*
X113688415Y-139736510D01*
X113492765Y-139775427D01*
X113062753Y-140062753D01*
X112990226Y-140171298D01*
X112211524Y-140950000D01*
X111681468Y-140950000D01*
X111185286Y-141155525D01*
X110805525Y-141535286D01*
X110600000Y-142031468D01*
X110600000Y-142568532D01*
X110805525Y-143064714D01*
X111185286Y-143444475D01*
X111681468Y-143650000D01*
X112218532Y-143650000D01*
X112339243Y-143600000D01*
X112571967Y-143600000D01*
X112700000Y-143625467D01*
X112828033Y-143600000D01*
X112828037Y-143600000D01*
X113207235Y-143524573D01*
X113415914Y-143385137D01*
X113485025Y-143846628D01*
X113563162Y-144035267D01*
X113928266Y-144128549D01*
X114934315Y-143122500D01*
X114920173Y-143108358D01*
X115485858Y-142542673D01*
X115500000Y-142556815D01*
X115514143Y-142542673D01*
X116079828Y-143108358D01*
X116065685Y-143122500D01*
X117071734Y-144128549D01*
X117436838Y-144035267D01*
X117638706Y-143224591D01*
X117514975Y-142398372D01*
X117474228Y-142300000D01*
X120040684Y-142300000D01*
X119861294Y-143020409D01*
X119985025Y-143846628D01*
X120063162Y-144035267D01*
X120428266Y-144128549D01*
X121434315Y-143122500D01*
X121420173Y-143108358D01*
X121985858Y-142542673D01*
X122000000Y-142556815D01*
X122014143Y-142542673D01*
X122579828Y-143108358D01*
X122565685Y-143122500D01*
X122579828Y-143136643D01*
X122159370Y-143557100D01*
X121969168Y-143557100D01*
X121472986Y-143762625D01*
X121093225Y-144142386D01*
X120887700Y-144638568D01*
X120887700Y-145175632D01*
X121093225Y-145671814D01*
X121472986Y-146051575D01*
X121969168Y-146257100D01*
X122506232Y-146257100D01*
X123002414Y-146051575D01*
X123323100Y-145730889D01*
X123503986Y-145911775D01*
X124000168Y-146117300D01*
X124537232Y-146117300D01*
X125033414Y-145911775D01*
X125413175Y-145532014D01*
X125618700Y-145035832D01*
X125618700Y-144502268D01*
X133524000Y-144502268D01*
X133524000Y-145039332D01*
X133729525Y-145535514D01*
X134109286Y-145915275D01*
X134605468Y-146120800D01*
X135142532Y-146120800D01*
X135638714Y-145915275D01*
X136018475Y-145535514D01*
X136224000Y-145039332D01*
X136224000Y-144502268D01*
X136018475Y-144006086D01*
X135638714Y-143626325D01*
X135142532Y-143420800D01*
X134605468Y-143420800D01*
X134109286Y-143626325D01*
X133729525Y-144006086D01*
X133524000Y-144502268D01*
X125618700Y-144502268D01*
X125618700Y-144498768D01*
X125413175Y-144002586D01*
X125033414Y-143622825D01*
X124537232Y-143417300D01*
X124090719Y-143417300D01*
X124138706Y-143224591D01*
X124014975Y-142398372D01*
X123974228Y-142300000D01*
X128245156Y-142300000D01*
X128465265Y-142447073D01*
X128844463Y-142522500D01*
X128844467Y-142522500D01*
X128972500Y-142547967D01*
X129100533Y-142522500D01*
X136239722Y-142522500D01*
X136468944Y-142865556D01*
X136832801Y-143108677D01*
X137262000Y-143194050D01*
X138962000Y-143194050D01*
X139391199Y-143108677D01*
X139678079Y-142916991D01*
X139891148Y-143059359D01*
X140459946Y-143172500D01*
X140844054Y-143172500D01*
X141412852Y-143059359D01*
X141922000Y-142719157D01*
X142431148Y-143059359D01*
X142999946Y-143172500D01*
X143384054Y-143172500D01*
X143952852Y-143059359D01*
X144500379Y-142693513D01*
X144933785Y-143001669D01*
X145038364Y-143044962D01*
X145332000Y-142849038D01*
X145332000Y-141622500D01*
X146132000Y-141622500D01*
X146132000Y-142849038D01*
X146425636Y-143044962D01*
X146530215Y-143001669D01*
X147150313Y-142560774D01*
X147554486Y-141916139D01*
X147365557Y-141622500D01*
X146132000Y-141622500D01*
X145332000Y-141622500D01*
X145312000Y-141622500D01*
X145312000Y-140822500D01*
X145332000Y-140822500D01*
X145332000Y-139595962D01*
X146132000Y-139595962D01*
X146132000Y-140822500D01*
X147365557Y-140822500D01*
X147554486Y-140528861D01*
X147150313Y-139884226D01*
X146530215Y-139443331D01*
X146425636Y-139400038D01*
X146132000Y-139595962D01*
X145332000Y-139595962D01*
X145038364Y-139400038D01*
X144933785Y-139443331D01*
X144500379Y-139751487D01*
X143952852Y-139385641D01*
X143384054Y-139272500D01*
X142999946Y-139272500D01*
X142431148Y-139385641D01*
X141922000Y-139725843D01*
X141412852Y-139385641D01*
X140844054Y-139272500D01*
X140459946Y-139272500D01*
X139891148Y-139385641D01*
X139678079Y-139528009D01*
X139391199Y-139336323D01*
X138962000Y-139250950D01*
X137262000Y-139250950D01*
X136832801Y-139336323D01*
X136468944Y-139579444D01*
X136239722Y-139922500D01*
X129477344Y-139922500D01*
X129257235Y-139775427D01*
X128878037Y-139700000D01*
X128878033Y-139700000D01*
X128750000Y-139674533D01*
X128621967Y-139700000D01*
X123826708Y-139700000D01*
X124100000Y-139040216D01*
X124100000Y-138204784D01*
X123780294Y-137432946D01*
X123218212Y-136870864D01*
X126720208Y-133368868D01*
X130867200Y-133368868D01*
X130867200Y-133905932D01*
X131072725Y-134402114D01*
X131452486Y-134781875D01*
X131948668Y-134987400D01*
X132485732Y-134987400D01*
X132606443Y-134937400D01*
X142375667Y-134937400D01*
X142503700Y-134962867D01*
X142631733Y-134937400D01*
X142631737Y-134937400D01*
X143010935Y-134861973D01*
X143440947Y-134574647D01*
X143513476Y-134466100D01*
X145262901Y-132716676D01*
X145383614Y-132666675D01*
X145763375Y-132286914D01*
X145968900Y-131790732D01*
X145968900Y-131253668D01*
X145763375Y-130757486D01*
X145383614Y-130377725D01*
X144887432Y-130172200D01*
X144350368Y-130172200D01*
X143854186Y-130377725D01*
X143474425Y-130757486D01*
X143424424Y-130878199D01*
X141965224Y-132337400D01*
X132606443Y-132337400D01*
X132485732Y-132287400D01*
X131948668Y-132287400D01*
X131452486Y-132492925D01*
X131072725Y-132872686D01*
X130867200Y-133368868D01*
X126720208Y-133368868D01*
X130956806Y-129132272D01*
X131065347Y-129059747D01*
X131137872Y-128951206D01*
X131137874Y-128951204D01*
X131267142Y-128757740D01*
X131352673Y-128629735D01*
X131428100Y-128250537D01*
X131428100Y-128250532D01*
X131453567Y-128122501D01*
X131428100Y-127994469D01*
X131428100Y-127746643D01*
X131478100Y-127625932D01*
X131478100Y-127088868D01*
X131272575Y-126592686D01*
X130892814Y-126212925D01*
X130396632Y-126007400D01*
X129859568Y-126007400D01*
X129363386Y-126212925D01*
X128983625Y-126592686D01*
X128778100Y-127088868D01*
X128778100Y-127625932D01*
X128780470Y-127631653D01*
X122144942Y-134267181D01*
X122019932Y-134215400D01*
X121482868Y-134215400D01*
X121362157Y-134265400D01*
X112292877Y-134265400D01*
X111551276Y-133523800D01*
X111501275Y-133403086D01*
X111121514Y-133023325D01*
X110625332Y-132817800D01*
X110088268Y-132817800D01*
X109592086Y-133023325D01*
X109212325Y-133403086D01*
X109006800Y-133899268D01*
X107093000Y-133899268D01*
X107093000Y-130335617D01*
X107127109Y-130130690D01*
X107179009Y-130034504D01*
X107259267Y-129960314D01*
X107380845Y-129906565D01*
X107515926Y-129889500D01*
X114940611Y-129889500D01*
X114882725Y-129947386D01*
X114677200Y-130443568D01*
X114677200Y-130980632D01*
X114882725Y-131476814D01*
X115262486Y-131856575D01*
X115758668Y-132062100D01*
X116295732Y-132062100D01*
X116791914Y-131856575D01*
X117171675Y-131476814D01*
X117377200Y-130980632D01*
X117377200Y-130443568D01*
X117171675Y-129947386D01*
X116791914Y-129567625D01*
X116694171Y-129527139D01*
X116930825Y-129172962D01*
X117022019Y-128714500D01*
X116999000Y-128598776D01*
X116999000Y-120944556D01*
X125162000Y-120944556D01*
X125162000Y-121879444D01*
X125519766Y-122743168D01*
X126180832Y-123404234D01*
X127044556Y-123762000D01*
X127979444Y-123762000D01*
X128843168Y-123404234D01*
X129504234Y-122743168D01*
X129862000Y-121879444D01*
X129862000Y-120944556D01*
X129504234Y-120080832D01*
X128843168Y-119419766D01*
X127979444Y-119062000D01*
X127044556Y-119062000D01*
X126180832Y-119419766D01*
X125519766Y-120080832D01*
X125162000Y-120944556D01*
X116999000Y-120944556D01*
X116999000Y-101444556D01*
X125162000Y-101444556D01*
X125162000Y-102379444D01*
X125519766Y-103243168D01*
X126180832Y-103904234D01*
X127044556Y-104262000D01*
X127979444Y-104262000D01*
X128843168Y-103904234D01*
X129504234Y-103243168D01*
X129862000Y-102379444D01*
X129862000Y-101444556D01*
X129504234Y-100580832D01*
X128843168Y-99919766D01*
X127979444Y-99562000D01*
X127044556Y-99562000D01*
X126180832Y-99919766D01*
X125519766Y-100580832D01*
X125162000Y-101444556D01*
X116999000Y-101444556D01*
X116999000Y-91819168D01*
X128436300Y-91819168D01*
X128436300Y-92356232D01*
X128641825Y-92852414D01*
X129021586Y-93232175D01*
X129517768Y-93437700D01*
X130054832Y-93437700D01*
X130551014Y-93232175D01*
X130930775Y-92852414D01*
X131136300Y-92356232D01*
X131136300Y-91819168D01*
X130930775Y-91322986D01*
X130551014Y-90943225D01*
X130195822Y-90796100D01*
X130670232Y-90796100D01*
X131166414Y-90590575D01*
X131546175Y-90210814D01*
X131751700Y-89714632D01*
X131751700Y-89177568D01*
X131546175Y-88681386D01*
X131166414Y-88301625D01*
X130670232Y-88096100D01*
X130133168Y-88096100D01*
X129636986Y-88301625D01*
X129257225Y-88681386D01*
X129051700Y-89177568D01*
X129051700Y-89714632D01*
X129257225Y-90210814D01*
X129636986Y-90590575D01*
X129992178Y-90737700D01*
X129517768Y-90737700D01*
X129021586Y-90943225D01*
X128641825Y-91322986D01*
X128436300Y-91819168D01*
X116999000Y-91819168D01*
X116999000Y-91405700D01*
X117200232Y-91405700D01*
X117696414Y-91200175D01*
X118076175Y-90820414D01*
X118281700Y-90324232D01*
X118281700Y-89787168D01*
X118076175Y-89290986D01*
X117696414Y-88911225D01*
X117200232Y-88705700D01*
X116999000Y-88705700D01*
X116999000Y-79808224D01*
X117022019Y-79692500D01*
X116930825Y-79234038D01*
X116671127Y-78845373D01*
X116282462Y-78585675D01*
X115939724Y-78517500D01*
X115824000Y-78494481D01*
X115708276Y-78517500D01*
X108319724Y-78517500D01*
X108204000Y-78494481D01*
X108088276Y-78517500D01*
X107745538Y-78585675D01*
X107356873Y-78845373D01*
X107097175Y-79234038D01*
X107005981Y-79692500D01*
X107029000Y-79808224D01*
X107029001Y-89947500D01*
X86457116Y-89947500D01*
X86252190Y-89913391D01*
X86156003Y-89861491D01*
X86081815Y-89781234D01*
X86028065Y-89659655D01*
X86011000Y-89524574D01*
X86011000Y-84808768D01*
X93920000Y-84808768D01*
X93920000Y-85345832D01*
X94125525Y-85842014D01*
X94505286Y-86221775D01*
X95001468Y-86427300D01*
X95538532Y-86427300D01*
X96034714Y-86221775D01*
X96414475Y-85842014D01*
X96620000Y-85345832D01*
X96620000Y-84808768D01*
X96414475Y-84312586D01*
X96034714Y-83932825D01*
X95538532Y-83727300D01*
X95001468Y-83727300D01*
X94505286Y-83932825D01*
X94125525Y-84312586D01*
X93920000Y-84808768D01*
X86011000Y-84808768D01*
X86011000Y-81811568D01*
X93920000Y-81811568D01*
X93920000Y-82348632D01*
X94125525Y-82844814D01*
X94505286Y-83224575D01*
X95001468Y-83430100D01*
X95538532Y-83430100D01*
X96034714Y-83224575D01*
X96414475Y-82844814D01*
X96620000Y-82348632D01*
X96620000Y-81811568D01*
X96414475Y-81315386D01*
X96034714Y-80935625D01*
X95538532Y-80730100D01*
X95001468Y-80730100D01*
X94505286Y-80935625D01*
X94125525Y-81315386D01*
X93920000Y-81811568D01*
X86011000Y-81811568D01*
X86011000Y-80033568D01*
X98370400Y-80033568D01*
X98370400Y-80570632D01*
X98575925Y-81066814D01*
X98955686Y-81446575D01*
X99023282Y-81474574D01*
X99033152Y-81489346D01*
X99463164Y-81776672D01*
X99842362Y-81852099D01*
X99842366Y-81852099D01*
X99970399Y-81877566D01*
X100098432Y-81852099D01*
X101197849Y-81852099D01*
X101217963Y-81856100D01*
X101217968Y-81856100D01*
X101345999Y-81881567D01*
X101474031Y-81856100D01*
X103937211Y-81856100D01*
X104188086Y-82106975D01*
X104684268Y-82312500D01*
X105221332Y-82312500D01*
X105717514Y-82106975D01*
X106097275Y-81727214D01*
X106302800Y-81231032D01*
X106302800Y-80693968D01*
X106097275Y-80197786D01*
X105717514Y-79818025D01*
X105596800Y-79768024D01*
X105556176Y-79727399D01*
X105483647Y-79618853D01*
X105053635Y-79331527D01*
X104674437Y-79256100D01*
X104674433Y-79256100D01*
X104546400Y-79230633D01*
X104418367Y-79256100D01*
X101490150Y-79256100D01*
X101470036Y-79252099D01*
X101470032Y-79252099D01*
X101341999Y-79226632D01*
X101213966Y-79252099D01*
X100579588Y-79252099D01*
X100485114Y-79157625D01*
X99988932Y-78952100D01*
X99451868Y-78952100D01*
X98955686Y-79157625D01*
X98575925Y-79537386D01*
X98370400Y-80033568D01*
X86011000Y-80033568D01*
X86011000Y-75454500D01*
X86220232Y-75454500D01*
X86716414Y-75248975D01*
X87096175Y-74869214D01*
X87301700Y-74373032D01*
X87301700Y-73835968D01*
X87096175Y-73339786D01*
X86716414Y-72960025D01*
X86220232Y-72754500D01*
X86011000Y-72754500D01*
X86011000Y-66607168D01*
X86326300Y-66607168D01*
X86326300Y-67144232D01*
X86531825Y-67640414D01*
X86911586Y-68020175D01*
X87407768Y-68225700D01*
X87944832Y-68225700D01*
X88441014Y-68020175D01*
X88820775Y-67640414D01*
X88870776Y-67519700D01*
X89795008Y-66595468D01*
X96148000Y-66595468D01*
X96148000Y-67132532D01*
X96353525Y-67628714D01*
X96733286Y-68008475D01*
X96944315Y-68095886D01*
X97034625Y-68313914D01*
X97334461Y-68613750D01*
X97034625Y-68913586D01*
X96829100Y-69409768D01*
X96829100Y-69946832D01*
X97034625Y-70443014D01*
X97093264Y-70501653D01*
X97090400Y-70508568D01*
X97090400Y-71045632D01*
X97295925Y-71541814D01*
X97675686Y-71921575D01*
X98171868Y-72127100D01*
X98708932Y-72127100D01*
X99205114Y-71921575D01*
X99584875Y-71541814D01*
X99790400Y-71045632D01*
X99790400Y-70508568D01*
X99613759Y-70082118D01*
X99682077Y-70013800D01*
X106258011Y-70013800D01*
X106234025Y-70037786D01*
X106028500Y-70533968D01*
X106028500Y-71071032D01*
X106234025Y-71567214D01*
X106613786Y-71946975D01*
X106675509Y-71972542D01*
X106678453Y-71976947D01*
X107108465Y-72264273D01*
X107487663Y-72339700D01*
X107487668Y-72339700D01*
X107615699Y-72365167D01*
X107743731Y-72339700D01*
X117919132Y-72339700D01*
X118083125Y-72735614D01*
X118462886Y-73115375D01*
X118959068Y-73320900D01*
X119496132Y-73320900D01*
X119616843Y-73270900D01*
X120365523Y-73270900D01*
X121316627Y-74222005D01*
X121389153Y-74330547D01*
X121497694Y-74403072D01*
X121497696Y-74403074D01*
X121617160Y-74482897D01*
X121819165Y-74617873D01*
X122198363Y-74693300D01*
X122198368Y-74693300D01*
X122326399Y-74718767D01*
X122454431Y-74693300D01*
X129243674Y-74693300D01*
X129051700Y-75156768D01*
X129051700Y-75693832D01*
X129257225Y-76190014D01*
X129636986Y-76569775D01*
X130133168Y-76775300D01*
X130670232Y-76775300D01*
X131166414Y-76569775D01*
X131546175Y-76190014D01*
X131751700Y-75693832D01*
X131751700Y-75156768D01*
X131559726Y-74693300D01*
X134179957Y-74693300D01*
X134300668Y-74743300D01*
X134837732Y-74743300D01*
X135333914Y-74537775D01*
X135713675Y-74158014D01*
X135919200Y-73661832D01*
X135919200Y-73186100D01*
X141030467Y-73186100D01*
X141158500Y-73211567D01*
X141221629Y-73199010D01*
X141280325Y-73340714D01*
X141660086Y-73720475D01*
X142156268Y-73926000D01*
X142693332Y-73926000D01*
X142814043Y-73876000D01*
X145910267Y-73876000D01*
X146038300Y-73901467D01*
X146166333Y-73876000D01*
X146166337Y-73876000D01*
X146545535Y-73800573D01*
X146975547Y-73513247D01*
X147048076Y-73404700D01*
X148533502Y-71919275D01*
X148654214Y-71869275D01*
X149033975Y-71489514D01*
X149239500Y-70993332D01*
X149239500Y-70456268D01*
X149033975Y-69960086D01*
X148654214Y-69580325D01*
X148158032Y-69374800D01*
X148074270Y-69374800D01*
X148122486Y-69299861D01*
X147778323Y-68750939D01*
X148136859Y-68214352D01*
X148288202Y-67453500D01*
X148136859Y-66692648D01*
X147705871Y-66047629D01*
X147060852Y-65616641D01*
X146799576Y-65564670D01*
X146885500Y-65357232D01*
X146885500Y-64820168D01*
X146679975Y-64323986D01*
X146300214Y-63944225D01*
X146179502Y-63894225D01*
X145317245Y-63031968D01*
X150697700Y-63031968D01*
X150697700Y-63569032D01*
X150903225Y-64065214D01*
X151282986Y-64444975D01*
X151779168Y-64650500D01*
X152316232Y-64650500D01*
X152436943Y-64600500D01*
X161972267Y-64600500D01*
X162100300Y-64625967D01*
X162228333Y-64600500D01*
X162228337Y-64600500D01*
X162607535Y-64525073D01*
X163037547Y-64237747D01*
X163110076Y-64129200D01*
X166804803Y-60434475D01*
X166925514Y-60384475D01*
X167305275Y-60004714D01*
X167510800Y-59508532D01*
X167510800Y-58971468D01*
X167305275Y-58475286D01*
X166925514Y-58095525D01*
X166429332Y-57890000D01*
X165892268Y-57890000D01*
X165396086Y-58095525D01*
X165016325Y-58475286D01*
X164966325Y-58595997D01*
X161561824Y-62000500D01*
X152436943Y-62000500D01*
X152316232Y-61950500D01*
X151779168Y-61950500D01*
X151282986Y-62156025D01*
X150903225Y-62535786D01*
X150697700Y-63031968D01*
X145317245Y-63031968D01*
X144084776Y-61799500D01*
X144012247Y-61690953D01*
X143582235Y-61403627D01*
X143203037Y-61328200D01*
X143203033Y-61328200D01*
X143075000Y-61302733D01*
X142946967Y-61328200D01*
X132787143Y-61328200D01*
X132666432Y-61278200D01*
X132129368Y-61278200D01*
X131633186Y-61483725D01*
X131253425Y-61863486D01*
X131047900Y-62359668D01*
X131047900Y-62896732D01*
X131253425Y-63392914D01*
X131633186Y-63772675D01*
X132129368Y-63978200D01*
X132666432Y-63978200D01*
X132787143Y-63928200D01*
X142536524Y-63928200D01*
X142870423Y-64262100D01*
X98927933Y-64262100D01*
X98799900Y-64236633D01*
X98671867Y-64262100D01*
X98671863Y-64262100D01*
X98292665Y-64337527D01*
X97862653Y-64624853D01*
X97790126Y-64733398D01*
X96854000Y-65669524D01*
X96733286Y-65719525D01*
X96353525Y-66099286D01*
X96148000Y-66595468D01*
X89795008Y-66595468D01*
X94753177Y-61637300D01*
X102678257Y-61637300D01*
X102798968Y-61687300D01*
X103336032Y-61687300D01*
X103832214Y-61481775D01*
X104211975Y-61102014D01*
X104417500Y-60605832D01*
X104417500Y-60068768D01*
X104211975Y-59572586D01*
X103832214Y-59192825D01*
X103336032Y-58987300D01*
X102798968Y-58987300D01*
X102678257Y-59037300D01*
X94342733Y-59037300D01*
X94214700Y-59011833D01*
X94086667Y-59037300D01*
X94086663Y-59037300D01*
X93707465Y-59112727D01*
X93277453Y-59400053D01*
X93204926Y-59508597D01*
X87032300Y-65681224D01*
X86911586Y-65731225D01*
X86531825Y-66110986D01*
X86326300Y-66607168D01*
X86011000Y-66607168D01*
X86011000Y-57753500D01*
X136857601Y-57753500D01*
X136508686Y-57898025D01*
G36*
X146700000Y-69593500D02*
X146720000Y-69593500D01*
X146720000Y-70020502D01*
X146695025Y-70080798D01*
X146362323Y-70413500D01*
X145900000Y-70413500D01*
X145900000Y-70393500D01*
X145880000Y-70393500D01*
X145880000Y-69593500D01*
X145900000Y-69593500D01*
X145900000Y-69573500D01*
X146700000Y-69573500D01*
X146700000Y-69593500D01*
X146700000Y-69593500D01*
G37*
X146700000Y-69593500D02*
X146720000Y-69593500D01*
X146720000Y-70020502D01*
X146695025Y-70080798D01*
X146362323Y-70413500D01*
X145900000Y-70413500D01*
X145900000Y-70393500D01*
X145880000Y-70393500D01*
X145880000Y-69593500D01*
X145900000Y-69593500D01*
X145900000Y-69573500D01*
X146700000Y-69573500D01*
X146700000Y-69593500D01*
G04 #@! TD*
M02*
