G04 #@! TF.GenerationSoftware,KiCad,Pcbnew,(5.0.0)*
G04 #@! TF.CreationDate,2020-02-18T19:26:41-05:00*
G04 #@! TF.ProjectId,WS2812B Tiny T,575332383132422054696E7920542E6B,rev?*
G04 #@! TF.SameCoordinates,Original*
G04 #@! TF.FileFunction,Paste,Top*
G04 #@! TF.FilePolarity,Positive*
%FSLAX46Y46*%
G04 Gerber Fmt 4.6, Leading zero omitted, Abs format (unit mm)*
G04 Created by KiCad (PCBNEW (5.0.0)) date 02/18/20 19:26:41*
%MOMM*%
%LPD*%
G01*
G04 APERTURE LIST*
%ADD10R,1.600000X1.000000*%
%ADD11R,1.500000X1.250000*%
%ADD12R,1.250000X1.500000*%
%ADD13R,1.300000X0.700000*%
%ADD14R,1.550000X0.600000*%
%ADD15R,1.150000X1.400000*%
%ADD16R,2.100000X1.475000*%
%ADD17R,1.900000X1.175000*%
%ADD18R,1.900000X2.375000*%
%ADD19R,1.380000X0.450000*%
%ADD20R,2.000000X1.500000*%
%ADD21R,2.000000X3.800000*%
G04 APERTURE END LIST*
D10*
G04 #@! TO.C,U1*
X87162000Y-85712500D03*
X87162000Y-88912500D03*
X92162000Y-85712500D03*
X92162000Y-88912500D03*
G04 #@! TD*
G04 #@! TO.C,U2*
X92162000Y-80022500D03*
X92162000Y-76822500D03*
X87162000Y-80022500D03*
X87162000Y-76822500D03*
G04 #@! TD*
G04 #@! TO.C,U3*
X87162000Y-67932500D03*
X87162000Y-71132500D03*
X92162000Y-67932500D03*
X92162000Y-71132500D03*
G04 #@! TD*
G04 #@! TO.C,U4*
X92162000Y-62242500D03*
X92162000Y-59042500D03*
X87162000Y-62242500D03*
X87162000Y-59042500D03*
G04 #@! TD*
G04 #@! TO.C,U5*
X98592000Y-59042500D03*
X98592000Y-62242500D03*
X103592000Y-59042500D03*
X103592000Y-62242500D03*
G04 #@! TD*
G04 #@! TO.C,U6*
X115022000Y-62242500D03*
X115022000Y-59042500D03*
X110022000Y-62242500D03*
X110022000Y-59042500D03*
G04 #@! TD*
G04 #@! TO.C,U7*
X120182000Y-59042500D03*
X120182000Y-62242500D03*
X125182000Y-59042500D03*
X125182000Y-62242500D03*
G04 #@! TD*
G04 #@! TO.C,U8*
X135342000Y-62242500D03*
X135342000Y-59042500D03*
X130342000Y-62242500D03*
X130342000Y-59042500D03*
G04 #@! TD*
G04 #@! TO.C,U9*
X140462000Y-59042500D03*
X140462000Y-62242500D03*
X145462000Y-59042500D03*
X145462000Y-62242500D03*
G04 #@! TD*
G04 #@! TO.C,U10*
X156932000Y-62242500D03*
X156932000Y-59042500D03*
X151932000Y-62242500D03*
X151932000Y-59042500D03*
G04 #@! TD*
G04 #@! TO.C,U11*
X162727000Y-59042500D03*
X162727000Y-62242500D03*
X167727000Y-59042500D03*
X167727000Y-62242500D03*
G04 #@! TD*
G04 #@! TO.C,U12*
X167727000Y-71132500D03*
X167727000Y-67932500D03*
X162727000Y-71132500D03*
X162727000Y-67932500D03*
G04 #@! TD*
G04 #@! TO.C,U13*
X162727000Y-76822500D03*
X162727000Y-80022500D03*
X167727000Y-76822500D03*
X167727000Y-80022500D03*
G04 #@! TD*
G04 #@! TO.C,U15*
X154301000Y-88912500D03*
X154301000Y-85712500D03*
X149301000Y-88912500D03*
X149301000Y-85712500D03*
G04 #@! TD*
G04 #@! TO.C,U16*
X149098000Y-74622500D03*
X149098000Y-77822500D03*
X154098000Y-74622500D03*
X154098000Y-77822500D03*
G04 #@! TD*
G04 #@! TO.C,U17*
X145502000Y-77822500D03*
X145502000Y-74622500D03*
X140502000Y-77822500D03*
X140502000Y-74622500D03*
G04 #@! TD*
G04 #@! TO.C,U18*
X131612000Y-74622500D03*
X131612000Y-77822500D03*
X136612000Y-74622500D03*
X136612000Y-77822500D03*
G04 #@! TD*
G04 #@! TO.C,U19*
X136612000Y-86822500D03*
X136612000Y-83622500D03*
X131612000Y-86822500D03*
X131612000Y-83622500D03*
G04 #@! TD*
G04 #@! TO.C,U20*
X131812000Y-93622500D03*
X131812000Y-96822500D03*
X136812000Y-93622500D03*
X136812000Y-96822500D03*
G04 #@! TD*
G04 #@! TO.C,U21*
X131812000Y-103372500D03*
X131812000Y-106572500D03*
X136812000Y-103372500D03*
X136812000Y-106572500D03*
G04 #@! TD*
G04 #@! TO.C,U22*
X136812000Y-116322500D03*
X136812000Y-113122500D03*
X131812000Y-116322500D03*
X131812000Y-113122500D03*
G04 #@! TD*
G04 #@! TO.C,U23*
X131812000Y-122872500D03*
X131812000Y-126072500D03*
X136812000Y-122872500D03*
X136812000Y-126072500D03*
G04 #@! TD*
G04 #@! TO.C,U24*
X136812000Y-134822500D03*
X136812000Y-131622500D03*
X131812000Y-134822500D03*
X131812000Y-131622500D03*
G04 #@! TD*
G04 #@! TO.C,U25*
X141772000Y-131622500D03*
X141772000Y-134822500D03*
X146772000Y-131622500D03*
X146772000Y-134822500D03*
G04 #@! TD*
G04 #@! TO.C,U26*
X147062000Y-150322500D03*
X147062000Y-147122500D03*
X142062000Y-150322500D03*
X142062000Y-147122500D03*
G04 #@! TD*
G04 #@! TO.C,U27*
X131312000Y-147122500D03*
X131312000Y-150322500D03*
X136312000Y-147122500D03*
X136312000Y-150322500D03*
G04 #@! TD*
G04 #@! TO.C,U28*
X123812000Y-150322500D03*
X123812000Y-147122500D03*
X118812000Y-150322500D03*
X118812000Y-147122500D03*
G04 #@! TD*
G04 #@! TO.C,U29*
X108312000Y-147122500D03*
X108312000Y-150322500D03*
X113312000Y-147122500D03*
X113312000Y-150322500D03*
G04 #@! TD*
G04 #@! TO.C,U30*
X113812000Y-134822500D03*
X113812000Y-131622500D03*
X108812000Y-134822500D03*
X108812000Y-131622500D03*
G04 #@! TD*
G04 #@! TO.C,U31*
X118142000Y-131622500D03*
X118142000Y-134822500D03*
X123142000Y-131622500D03*
X123142000Y-134822500D03*
G04 #@! TD*
G04 #@! TO.C,U32*
X123142000Y-126072500D03*
X123142000Y-122872500D03*
X118142000Y-126072500D03*
X118142000Y-122872500D03*
G04 #@! TD*
G04 #@! TO.C,U33*
X118142000Y-113122500D03*
X118142000Y-116322500D03*
X123142000Y-113122500D03*
X123142000Y-116322500D03*
G04 #@! TD*
G04 #@! TO.C,U34*
X123142000Y-106572500D03*
X123142000Y-103372500D03*
X118142000Y-106572500D03*
X118142000Y-103372500D03*
G04 #@! TD*
G04 #@! TO.C,U35*
X118142000Y-93622500D03*
X118142000Y-96822500D03*
X123142000Y-93622500D03*
X123142000Y-96822500D03*
G04 #@! TD*
G04 #@! TO.C,U36*
X123142000Y-86822500D03*
X123142000Y-83622500D03*
X118142000Y-86822500D03*
X118142000Y-83622500D03*
G04 #@! TD*
G04 #@! TO.C,U37*
X118312000Y-74622500D03*
X118312000Y-77822500D03*
X123312000Y-74622500D03*
X123312000Y-77822500D03*
G04 #@! TD*
G04 #@! TO.C,U38*
X114812000Y-77822500D03*
X114812000Y-74622500D03*
X109812000Y-77822500D03*
X109812000Y-74622500D03*
G04 #@! TD*
G04 #@! TO.C,U39*
X101062000Y-74622500D03*
X101062000Y-77822500D03*
X106062000Y-74622500D03*
X106062000Y-77822500D03*
G04 #@! TD*
G04 #@! TO.C,U14*
X162687000Y-85712500D03*
X162687000Y-88912500D03*
X167687000Y-85712500D03*
X167687000Y-88912500D03*
G04 #@! TD*
D11*
G04 #@! TO.C,C1*
X114554000Y-70231000D03*
X117054000Y-70231000D03*
G04 #@! TD*
G04 #@! TO.C,C2*
X116990500Y-67564000D03*
X114490500Y-67564000D03*
G04 #@! TD*
D12*
G04 #@! TO.C,C3*
X134874000Y-140195500D03*
X134874000Y-142695500D03*
G04 #@! TD*
D11*
G04 #@! TO.C,C4*
X128687000Y-72174100D03*
X126187000Y-72174100D03*
G04 #@! TD*
G04 #@! TO.C,C5*
X97770000Y-83553300D03*
X95270000Y-83553300D03*
G04 #@! TD*
G04 #@! TO.C,C6*
X128626000Y-90614500D03*
X126126000Y-90614500D03*
G04 #@! TD*
G04 #@! TO.C,C7*
X157246000Y-83400900D03*
X159746000Y-83400900D03*
G04 #@! TD*
D12*
G04 #@! TO.C,C8*
X126187000Y-134688500D03*
X126187000Y-132188500D03*
G04 #@! TD*
G04 #@! TO.C,C9*
X128701000Y-132169500D03*
X128701000Y-134669500D03*
G04 #@! TD*
D10*
G04 #@! TO.C,U40*
X101062000Y-85722500D03*
X101062000Y-88922500D03*
X106062000Y-85722500D03*
X106062000Y-88922500D03*
G04 #@! TD*
D13*
G04 #@! TO.C,R1*
X134112000Y-69603700D03*
X134112000Y-67703700D03*
G04 #@! TD*
D14*
G04 #@! TO.C,MCU1*
X102489000Y-70866000D03*
X102489000Y-69596000D03*
X102489000Y-68326000D03*
X102489000Y-67056000D03*
X95489000Y-67056000D03*
X95489000Y-68326000D03*
X95489000Y-69596000D03*
X95489000Y-70861000D03*
G04 #@! TD*
D15*
G04 #@! TO.C,Y1*
X109537500Y-70018000D03*
X109537500Y-67818000D03*
X111137500Y-67818000D03*
X111137500Y-70018000D03*
G04 #@! TD*
D16*
G04 #@! TO.C,USB1*
X109750000Y-143425000D03*
D17*
X107450000Y-141800000D03*
D18*
X107450000Y-138050000D03*
X107450000Y-143875000D03*
D17*
X107450000Y-140125000D03*
D16*
X109750000Y-138500000D03*
D19*
X110110000Y-139662500D03*
X110110000Y-140312500D03*
X110110000Y-140962500D03*
X110110000Y-141612500D03*
X110110000Y-142262500D03*
G04 #@! TD*
D20*
G04 #@! TO.C,U41*
X125700000Y-138911500D03*
X125700000Y-143511500D03*
X125700000Y-141211500D03*
D21*
X132000000Y-141211500D03*
G04 #@! TD*
M02*
