G04 #@! TF.GenerationSoftware,KiCad,Pcbnew,(5.0.0)*
G04 #@! TF.CreationDate,2020-03-15T13:45:47-04:00*
G04 #@! TF.ProjectId,JTAG_TARGET_PWR,4A5441475F5441524745545F5057522E,rev?*
G04 #@! TF.SameCoordinates,Original*
G04 #@! TF.FileFunction,Copper,L2,Bot,Signal*
G04 #@! TF.FilePolarity,Positive*
%FSLAX46Y46*%
G04 Gerber Fmt 4.6, Leading zero omitted, Abs format (unit mm)*
G04 Created by KiCad (PCBNEW (5.0.0)) date 03/15/20 13:45:47*
%MOMM*%
%LPD*%
G01*
G04 APERTURE LIST*
G04 #@! TA.AperFunction,ComponentPad*
%ADD10O,1.000000X1.000000*%
G04 #@! TD*
G04 #@! TA.AperFunction,ComponentPad*
%ADD11R,1.000000X1.000000*%
G04 #@! TD*
G04 #@! TA.AperFunction,ComponentPad*
%ADD12O,2.200000X2.200000*%
G04 #@! TD*
G04 #@! TA.AperFunction,ComponentPad*
%ADD13R,2.200000X2.200000*%
G04 #@! TD*
G04 #@! TA.AperFunction,ComponentPad*
%ADD14C,2.500000*%
G04 #@! TD*
G04 #@! TA.AperFunction,Conductor*
%ADD15C,0.200000*%
G04 #@! TD*
G04 #@! TA.AperFunction,NonConductor*
%ADD16C,0.254000*%
G04 #@! TD*
G04 APERTURE END LIST*
D10*
G04 #@! TO.P,J1,10*
G04 #@! TO.N,GND*
X154940000Y-85800000D03*
G04 #@! TO.P,J1,9*
G04 #@! TO.N,TDI*
X154940000Y-87070000D03*
G04 #@! TO.P,J1,8*
G04 #@! TO.N,N/C*
X153670000Y-85800000D03*
G04 #@! TO.P,J1,7*
G04 #@! TO.N,VCC*
X153670000Y-87070000D03*
G04 #@! TO.P,J1,6*
G04 #@! TO.N,RST*
X152400000Y-85800000D03*
G04 #@! TO.P,J1,5*
G04 #@! TO.N,TMS*
X152400000Y-87070000D03*
G04 #@! TO.P,J1,4*
G04 #@! TO.N,VREF*
X151130000Y-85800000D03*
G04 #@! TO.P,J1,3*
G04 #@! TO.N,TDO*
X151130000Y-87070000D03*
G04 #@! TO.P,J1,2*
G04 #@! TO.N,GND*
X149860000Y-85800000D03*
D11*
G04 #@! TO.P,J1,1*
G04 #@! TO.N,TCK*
X149860000Y-87070000D03*
G04 #@! TD*
G04 #@! TO.P,J2,1*
G04 #@! TO.N,TCK*
X149860000Y-138430000D03*
D10*
G04 #@! TO.P,J2,2*
G04 #@! TO.N,GND*
X149860000Y-137160000D03*
G04 #@! TO.P,J2,3*
G04 #@! TO.N,TDO*
X151130000Y-138430000D03*
G04 #@! TO.P,J2,4*
G04 #@! TO.N,VREF*
X151130000Y-137160000D03*
G04 #@! TO.P,J2,5*
G04 #@! TO.N,TMS*
X152400000Y-138430000D03*
G04 #@! TO.P,J2,6*
G04 #@! TO.N,RST*
X152400000Y-137160000D03*
G04 #@! TO.P,J2,7*
G04 #@! TO.N,VCC*
X153670000Y-138430000D03*
G04 #@! TO.P,J2,8*
G04 #@! TO.N,N/C*
X153670000Y-137160000D03*
G04 #@! TO.P,J2,9*
G04 #@! TO.N,TDI*
X154940000Y-138430000D03*
G04 #@! TO.P,J2,10*
G04 #@! TO.N,GND*
X154940000Y-137160000D03*
G04 #@! TD*
G04 #@! TO.P,J3,10*
G04 #@! TO.N,GND*
X154940000Y-130810000D03*
G04 #@! TO.P,J3,9*
G04 #@! TO.N,TDI*
X154940000Y-129540000D03*
G04 #@! TO.P,J3,8*
G04 #@! TO.N,N/C*
X153670000Y-130810000D03*
G04 #@! TO.P,J3,7*
G04 #@! TO.N,VCC*
X153670000Y-129540000D03*
G04 #@! TO.P,J3,6*
G04 #@! TO.N,RST*
X152400000Y-130810000D03*
G04 #@! TO.P,J3,5*
G04 #@! TO.N,TMS*
X152400000Y-129540000D03*
G04 #@! TO.P,J3,4*
G04 #@! TO.N,VREF*
X151130000Y-130810000D03*
G04 #@! TO.P,J3,3*
G04 #@! TO.N,TDO*
X151130000Y-129540000D03*
G04 #@! TO.P,J3,2*
G04 #@! TO.N,GND*
X149860000Y-130810000D03*
D11*
G04 #@! TO.P,J3,1*
G04 #@! TO.N,TCK*
X149860000Y-129540000D03*
G04 #@! TD*
D12*
G04 #@! TO.P,SW1,2*
G04 #@! TO.N,VCC*
X156210000Y-120650000D03*
D13*
G04 #@! TO.P,SW1,1*
G04 #@! TO.N,Net-(SW1-Pad1)*
X148590000Y-120650000D03*
G04 #@! TD*
D14*
G04 #@! TO.P,U1,1*
G04 #@! TO.N,GND*
X152400000Y-95250000D03*
G04 #@! TO.P,U1,2*
G04 #@! TO.N,Net-(SW1-Pad1)*
X152400000Y-114750000D03*
G04 #@! TD*
D15*
G04 #@! TO.N,GND*
X154535800Y-136055400D02*
X154185600Y-136405600D01*
X154185600Y-136405600D02*
X150614400Y-136405600D01*
X150614400Y-136405600D02*
X149860000Y-137160000D01*
X154940000Y-130810000D02*
X154940000Y-135651200D01*
X154940000Y-135651200D02*
X154535800Y-136055400D01*
X154535800Y-136055400D02*
X154940000Y-136459700D01*
X154940000Y-137160000D02*
X154940000Y-136459700D01*
X149860000Y-85800000D02*
X149785000Y-85800000D01*
X149785000Y-85800000D02*
X149159600Y-86425400D01*
X149159600Y-86425400D02*
X149159600Y-92009600D01*
X149159600Y-92009600D02*
X152400000Y-95250000D01*
X149860000Y-130810000D02*
X149789200Y-130810000D01*
X149789200Y-130810000D02*
X149159600Y-130180400D01*
X149159600Y-130180400D02*
X149159600Y-124040400D01*
X149159600Y-124040400D02*
X153855700Y-119344300D01*
X153855700Y-119344300D02*
X153855700Y-96705700D01*
X153855700Y-96705700D02*
X152400000Y-95250000D01*
G04 #@! TO.N,TDI*
X154940000Y-138430000D02*
X155665100Y-137704900D01*
X155665100Y-137704900D02*
X155665100Y-130265100D01*
X155665100Y-130265100D02*
X154940000Y-129540000D01*
G04 #@! TO.N,VCC*
X153670000Y-129540000D02*
X154378100Y-128831900D01*
X154378100Y-128831900D02*
X155239600Y-128831900D01*
X155239600Y-128831900D02*
X156017300Y-129609600D01*
X156017300Y-129609600D02*
X156017300Y-138356900D01*
X156017300Y-138356900D02*
X155194000Y-139180200D01*
X155194000Y-139180200D02*
X154420200Y-139180200D01*
X154420200Y-139180200D02*
X153670000Y-138430000D01*
G04 #@! TO.N,RST*
X152400000Y-130810000D02*
X151388400Y-131821600D01*
X151388400Y-131821600D02*
X149437500Y-131821600D01*
X149437500Y-131821600D02*
X148011300Y-130395400D01*
X148011300Y-130395400D02*
X148011300Y-125010600D01*
X148011300Y-125010600D02*
X146973000Y-123972300D01*
X146973000Y-123972300D02*
X146973000Y-95921000D01*
X146973000Y-95921000D02*
X147530400Y-95363600D01*
X147530400Y-95363600D02*
X147530400Y-86680100D01*
X147530400Y-86680100D02*
X149479600Y-84730900D01*
X149479600Y-84730900D02*
X151330900Y-84730900D01*
X151330900Y-84730900D02*
X152400000Y-85800000D01*
G04 #@! TO.N,TMS*
X152400000Y-138430000D02*
X153450600Y-139480600D01*
X153450600Y-139480600D02*
X155429100Y-139480600D01*
X155429100Y-139480600D02*
X156318000Y-138591700D01*
X156318000Y-138591700D02*
X156318000Y-129485400D01*
X156318000Y-129485400D02*
X155357100Y-128524500D01*
X155357100Y-128524500D02*
X153415500Y-128524500D01*
X153415500Y-128524500D02*
X152400000Y-129540000D01*
G04 #@! TO.N,VREF*
X151130000Y-130810000D02*
X150429000Y-131511000D01*
X150429000Y-131511000D02*
X149570200Y-131511000D01*
X149570200Y-131511000D02*
X148580000Y-130520800D01*
X148580000Y-130520800D02*
X148580000Y-123740700D01*
X148580000Y-123740700D02*
X147289700Y-122450400D01*
X147289700Y-122450400D02*
X147289700Y-100137200D01*
X147289700Y-100137200D02*
X148839600Y-98587300D01*
X148839600Y-98587300D02*
X148839600Y-85795800D01*
X148839600Y-85795800D02*
X149604100Y-85031300D01*
X149604100Y-85031300D02*
X150361300Y-85031300D01*
X150361300Y-85031300D02*
X151130000Y-85800000D01*
G04 #@! TO.N,TDO*
X151130000Y-129540000D02*
X152467600Y-128202400D01*
X152467600Y-128202400D02*
X155459900Y-128202400D01*
X155459900Y-128202400D02*
X156672000Y-129414500D01*
X156672000Y-129414500D02*
X156672000Y-138662600D01*
X156672000Y-138662600D02*
X155553600Y-139781000D01*
X155553600Y-139781000D02*
X152481000Y-139781000D01*
X152481000Y-139781000D02*
X151130000Y-138430000D01*
G04 #@! TO.N,Net-(SW1-Pad1)*
X152400000Y-114750000D02*
X148590000Y-118560000D01*
X148590000Y-118560000D02*
X148590000Y-120650000D01*
G04 #@! TD*
D16*
G36*
X148866590Y-132290137D02*
X148907595Y-132351505D01*
X149150717Y-132513954D01*
X149365112Y-132556600D01*
X149365115Y-132556600D01*
X149437499Y-132570998D01*
X149509883Y-132556600D01*
X151316016Y-132556600D01*
X151388400Y-132570998D01*
X151460784Y-132556600D01*
X151460788Y-132556600D01*
X151675183Y-132513954D01*
X151918305Y-132351505D01*
X151959311Y-132290135D01*
X152304446Y-131945000D01*
X152511783Y-131945000D01*
X152842855Y-131879146D01*
X153035000Y-131750759D01*
X153227145Y-131879146D01*
X153558217Y-131945000D01*
X153781783Y-131945000D01*
X154112855Y-131879146D01*
X154205000Y-131817577D01*
X154205001Y-135346753D01*
X154067295Y-135484459D01*
X154005961Y-135525430D01*
X153964924Y-135586830D01*
X153881154Y-135670600D01*
X150686788Y-135670600D01*
X150614400Y-135656201D01*
X150542012Y-135670600D01*
X150327617Y-135713246D01*
X150084495Y-135875695D01*
X150043490Y-135937063D01*
X149955553Y-136025000D01*
X149748217Y-136025000D01*
X149417145Y-136090854D01*
X149041711Y-136341711D01*
X148790854Y-136717145D01*
X148702765Y-137160000D01*
X148790854Y-137602855D01*
X148802869Y-137620836D01*
X148761843Y-137682235D01*
X148712560Y-137930000D01*
X148712560Y-138930000D01*
X148761843Y-139177765D01*
X148902191Y-139387809D01*
X149112235Y-139528157D01*
X149360000Y-139577440D01*
X150360000Y-139577440D01*
X150607765Y-139528157D01*
X150669164Y-139487131D01*
X150687145Y-139499146D01*
X151018217Y-139565000D01*
X151225554Y-139565000D01*
X151910090Y-140249537D01*
X151951095Y-140310905D01*
X152194217Y-140473354D01*
X152408612Y-140516000D01*
X152481000Y-140530399D01*
X152553388Y-140516000D01*
X155481216Y-140516000D01*
X155553600Y-140530398D01*
X155625984Y-140516000D01*
X155625988Y-140516000D01*
X155840383Y-140473354D01*
X156083505Y-140310905D01*
X156124511Y-140249535D01*
X156770000Y-139604047D01*
X156770000Y-140675909D01*
X156550909Y-140895000D01*
X148249091Y-140895000D01*
X148030000Y-140675909D01*
X148030000Y-131453546D01*
X148866590Y-132290137D01*
X148866590Y-132290137D01*
G37*
X148866590Y-132290137D02*
X148907595Y-132351505D01*
X149150717Y-132513954D01*
X149365112Y-132556600D01*
X149365115Y-132556600D01*
X149437499Y-132570998D01*
X149509883Y-132556600D01*
X151316016Y-132556600D01*
X151388400Y-132570998D01*
X151460784Y-132556600D01*
X151460788Y-132556600D01*
X151675183Y-132513954D01*
X151918305Y-132351505D01*
X151959311Y-132290135D01*
X152304446Y-131945000D01*
X152511783Y-131945000D01*
X152842855Y-131879146D01*
X153035000Y-131750759D01*
X153227145Y-131879146D01*
X153558217Y-131945000D01*
X153781783Y-131945000D01*
X154112855Y-131879146D01*
X154205000Y-131817577D01*
X154205001Y-135346753D01*
X154067295Y-135484459D01*
X154005961Y-135525430D01*
X153964924Y-135586830D01*
X153881154Y-135670600D01*
X150686788Y-135670600D01*
X150614400Y-135656201D01*
X150542012Y-135670600D01*
X150327617Y-135713246D01*
X150084495Y-135875695D01*
X150043490Y-135937063D01*
X149955553Y-136025000D01*
X149748217Y-136025000D01*
X149417145Y-136090854D01*
X149041711Y-136341711D01*
X148790854Y-136717145D01*
X148702765Y-137160000D01*
X148790854Y-137602855D01*
X148802869Y-137620836D01*
X148761843Y-137682235D01*
X148712560Y-137930000D01*
X148712560Y-138930000D01*
X148761843Y-139177765D01*
X148902191Y-139387809D01*
X149112235Y-139528157D01*
X149360000Y-139577440D01*
X150360000Y-139577440D01*
X150607765Y-139528157D01*
X150669164Y-139487131D01*
X150687145Y-139499146D01*
X151018217Y-139565000D01*
X151225554Y-139565000D01*
X151910090Y-140249537D01*
X151951095Y-140310905D01*
X152194217Y-140473354D01*
X152408612Y-140516000D01*
X152481000Y-140530399D01*
X152553388Y-140516000D01*
X155481216Y-140516000D01*
X155553600Y-140530398D01*
X155625984Y-140516000D01*
X155625988Y-140516000D01*
X155840383Y-140473354D01*
X156083505Y-140310905D01*
X156124511Y-140249535D01*
X156770000Y-139604047D01*
X156770000Y-140675909D01*
X156550909Y-140895000D01*
X148249091Y-140895000D01*
X148030000Y-140675909D01*
X148030000Y-131453546D01*
X148866590Y-132290137D01*
G36*
X156745001Y-91512388D02*
X156770000Y-91638067D01*
X156770001Y-92640071D01*
X156756091Y-92710000D01*
X156806555Y-92963695D01*
X156811196Y-92987028D01*
X156934144Y-93171033D01*
X156961195Y-93307027D01*
X157118119Y-93541880D01*
X157352972Y-93698805D01*
X157380902Y-93704361D01*
X158416286Y-94298893D01*
X159434543Y-95051403D01*
X160359552Y-95915952D01*
X161179070Y-96881102D01*
X161882220Y-97934038D01*
X162459691Y-99060821D01*
X162903821Y-100246495D01*
X163208734Y-101475378D01*
X163370381Y-102731150D01*
X163386622Y-103997192D01*
X163257242Y-105256688D01*
X162983952Y-106492988D01*
X162570381Y-107689671D01*
X162022004Y-108830894D01*
X161346094Y-109901523D01*
X160551601Y-110887378D01*
X159635876Y-111788357D01*
X159588555Y-111829374D01*
X159508120Y-111883119D01*
X159351196Y-112117972D01*
X159310001Y-112325074D01*
X159310000Y-120084925D01*
X159310001Y-120084930D01*
X159310000Y-122895909D01*
X157027402Y-125178508D01*
X156968120Y-125218119D01*
X156928510Y-125277400D01*
X156811196Y-125452972D01*
X156756091Y-125730000D01*
X156770001Y-125799929D01*
X156770001Y-128473054D01*
X156030811Y-127733865D01*
X155989805Y-127672495D01*
X155746683Y-127510046D01*
X155532288Y-127467400D01*
X155532284Y-127467400D01*
X155459900Y-127453002D01*
X155387516Y-127467400D01*
X152539983Y-127467400D01*
X152467599Y-127453002D01*
X152395215Y-127467400D01*
X152395212Y-127467400D01*
X152180817Y-127510046D01*
X151937695Y-127672495D01*
X151896690Y-127733863D01*
X151225554Y-128405000D01*
X151018217Y-128405000D01*
X150687145Y-128470854D01*
X150669164Y-128482869D01*
X150607765Y-128441843D01*
X150360000Y-128392560D01*
X149894600Y-128392560D01*
X149894600Y-124344846D01*
X153589446Y-120650000D01*
X154441010Y-120650000D01*
X154575666Y-121326963D01*
X154959135Y-121900865D01*
X155533037Y-122284334D01*
X156039120Y-122385000D01*
X156380880Y-122385000D01*
X156886963Y-122284334D01*
X157460865Y-121900865D01*
X157844334Y-121326963D01*
X157978990Y-120650000D01*
X157844334Y-119973037D01*
X157460865Y-119399135D01*
X156886963Y-119015666D01*
X156380880Y-118915000D01*
X156039120Y-118915000D01*
X155533037Y-119015666D01*
X154959135Y-119399135D01*
X154575666Y-119973037D01*
X154441010Y-120650000D01*
X153589446Y-120650000D01*
X154324238Y-119915209D01*
X154385605Y-119874205D01*
X154548054Y-119631083D01*
X154590700Y-119416688D01*
X154590700Y-119416685D01*
X154605098Y-119344301D01*
X154590700Y-119271917D01*
X154590700Y-96778088D01*
X154605099Y-96705700D01*
X154554417Y-96450905D01*
X154548054Y-96418917D01*
X154385605Y-96175795D01*
X154324237Y-96134790D01*
X154147164Y-95957717D01*
X154285000Y-95624950D01*
X154285000Y-94875050D01*
X153998026Y-94182233D01*
X153467767Y-93651974D01*
X152774950Y-93365000D01*
X152025050Y-93365000D01*
X151692283Y-93502836D01*
X149894600Y-91705154D01*
X149894600Y-88217440D01*
X150360000Y-88217440D01*
X150607765Y-88168157D01*
X150669164Y-88127131D01*
X150687145Y-88139146D01*
X151018217Y-88205000D01*
X151241783Y-88205000D01*
X151572855Y-88139146D01*
X151765000Y-88010759D01*
X151957145Y-88139146D01*
X152288217Y-88205000D01*
X152511783Y-88205000D01*
X152842855Y-88139146D01*
X153035000Y-88010759D01*
X153227145Y-88139146D01*
X153558217Y-88205000D01*
X153781783Y-88205000D01*
X154112855Y-88139146D01*
X154305000Y-88010759D01*
X154497145Y-88139146D01*
X154828217Y-88205000D01*
X155051783Y-88205000D01*
X155382855Y-88139146D01*
X155758289Y-87888289D01*
X156009146Y-87512855D01*
X156097235Y-87070000D01*
X156009146Y-86627145D01*
X155880759Y-86435000D01*
X156009146Y-86242855D01*
X156097235Y-85800000D01*
X156009146Y-85357145D01*
X155758289Y-84981711D01*
X155382855Y-84730854D01*
X155051783Y-84665000D01*
X154828217Y-84665000D01*
X154497145Y-84730854D01*
X154305000Y-84859241D01*
X154112855Y-84730854D01*
X153781783Y-84665000D01*
X153558217Y-84665000D01*
X153227145Y-84730854D01*
X153035000Y-84859241D01*
X152842855Y-84730854D01*
X152511783Y-84665000D01*
X152304446Y-84665000D01*
X151901811Y-84262365D01*
X151860805Y-84200995D01*
X151617683Y-84038546D01*
X151403288Y-83995900D01*
X151403284Y-83995900D01*
X151330900Y-83981502D01*
X151258516Y-83995900D01*
X149551983Y-83995900D01*
X149479599Y-83981502D01*
X149407215Y-83995900D01*
X149407212Y-83995900D01*
X149192817Y-84038546D01*
X148949695Y-84200995D01*
X148908690Y-84262363D01*
X148055000Y-85116053D01*
X148055000Y-83285000D01*
X156745000Y-83285000D01*
X156745001Y-91512388D01*
X156745001Y-91512388D01*
G37*
X156745001Y-91512388D02*
X156770000Y-91638067D01*
X156770001Y-92640071D01*
X156756091Y-92710000D01*
X156806555Y-92963695D01*
X156811196Y-92987028D01*
X156934144Y-93171033D01*
X156961195Y-93307027D01*
X157118119Y-93541880D01*
X157352972Y-93698805D01*
X157380902Y-93704361D01*
X158416286Y-94298893D01*
X159434543Y-95051403D01*
X160359552Y-95915952D01*
X161179070Y-96881102D01*
X161882220Y-97934038D01*
X162459691Y-99060821D01*
X162903821Y-100246495D01*
X163208734Y-101475378D01*
X163370381Y-102731150D01*
X163386622Y-103997192D01*
X163257242Y-105256688D01*
X162983952Y-106492988D01*
X162570381Y-107689671D01*
X162022004Y-108830894D01*
X161346094Y-109901523D01*
X160551601Y-110887378D01*
X159635876Y-111788357D01*
X159588555Y-111829374D01*
X159508120Y-111883119D01*
X159351196Y-112117972D01*
X159310001Y-112325074D01*
X159310000Y-120084925D01*
X159310001Y-120084930D01*
X159310000Y-122895909D01*
X157027402Y-125178508D01*
X156968120Y-125218119D01*
X156928510Y-125277400D01*
X156811196Y-125452972D01*
X156756091Y-125730000D01*
X156770001Y-125799929D01*
X156770001Y-128473054D01*
X156030811Y-127733865D01*
X155989805Y-127672495D01*
X155746683Y-127510046D01*
X155532288Y-127467400D01*
X155532284Y-127467400D01*
X155459900Y-127453002D01*
X155387516Y-127467400D01*
X152539983Y-127467400D01*
X152467599Y-127453002D01*
X152395215Y-127467400D01*
X152395212Y-127467400D01*
X152180817Y-127510046D01*
X151937695Y-127672495D01*
X151896690Y-127733863D01*
X151225554Y-128405000D01*
X151018217Y-128405000D01*
X150687145Y-128470854D01*
X150669164Y-128482869D01*
X150607765Y-128441843D01*
X150360000Y-128392560D01*
X149894600Y-128392560D01*
X149894600Y-124344846D01*
X153589446Y-120650000D01*
X154441010Y-120650000D01*
X154575666Y-121326963D01*
X154959135Y-121900865D01*
X155533037Y-122284334D01*
X156039120Y-122385000D01*
X156380880Y-122385000D01*
X156886963Y-122284334D01*
X157460865Y-121900865D01*
X157844334Y-121326963D01*
X157978990Y-120650000D01*
X157844334Y-119973037D01*
X157460865Y-119399135D01*
X156886963Y-119015666D01*
X156380880Y-118915000D01*
X156039120Y-118915000D01*
X155533037Y-119015666D01*
X154959135Y-119399135D01*
X154575666Y-119973037D01*
X154441010Y-120650000D01*
X153589446Y-120650000D01*
X154324238Y-119915209D01*
X154385605Y-119874205D01*
X154548054Y-119631083D01*
X154590700Y-119416688D01*
X154590700Y-119416685D01*
X154605098Y-119344301D01*
X154590700Y-119271917D01*
X154590700Y-96778088D01*
X154605099Y-96705700D01*
X154554417Y-96450905D01*
X154548054Y-96418917D01*
X154385605Y-96175795D01*
X154324237Y-96134790D01*
X154147164Y-95957717D01*
X154285000Y-95624950D01*
X154285000Y-94875050D01*
X153998026Y-94182233D01*
X153467767Y-93651974D01*
X152774950Y-93365000D01*
X152025050Y-93365000D01*
X151692283Y-93502836D01*
X149894600Y-91705154D01*
X149894600Y-88217440D01*
X150360000Y-88217440D01*
X150607765Y-88168157D01*
X150669164Y-88127131D01*
X150687145Y-88139146D01*
X151018217Y-88205000D01*
X151241783Y-88205000D01*
X151572855Y-88139146D01*
X151765000Y-88010759D01*
X151957145Y-88139146D01*
X152288217Y-88205000D01*
X152511783Y-88205000D01*
X152842855Y-88139146D01*
X153035000Y-88010759D01*
X153227145Y-88139146D01*
X153558217Y-88205000D01*
X153781783Y-88205000D01*
X154112855Y-88139146D01*
X154305000Y-88010759D01*
X154497145Y-88139146D01*
X154828217Y-88205000D01*
X155051783Y-88205000D01*
X155382855Y-88139146D01*
X155758289Y-87888289D01*
X156009146Y-87512855D01*
X156097235Y-87070000D01*
X156009146Y-86627145D01*
X155880759Y-86435000D01*
X156009146Y-86242855D01*
X156097235Y-85800000D01*
X156009146Y-85357145D01*
X155758289Y-84981711D01*
X155382855Y-84730854D01*
X155051783Y-84665000D01*
X154828217Y-84665000D01*
X154497145Y-84730854D01*
X154305000Y-84859241D01*
X154112855Y-84730854D01*
X153781783Y-84665000D01*
X153558217Y-84665000D01*
X153227145Y-84730854D01*
X153035000Y-84859241D01*
X152842855Y-84730854D01*
X152511783Y-84665000D01*
X152304446Y-84665000D01*
X151901811Y-84262365D01*
X151860805Y-84200995D01*
X151617683Y-84038546D01*
X151403288Y-83995900D01*
X151403284Y-83995900D01*
X151330900Y-83981502D01*
X151258516Y-83995900D01*
X149551983Y-83995900D01*
X149479599Y-83981502D01*
X149407215Y-83995900D01*
X149407212Y-83995900D01*
X149192817Y-84038546D01*
X148949695Y-84200995D01*
X148908690Y-84262363D01*
X148055000Y-85116053D01*
X148055000Y-83285000D01*
X156745000Y-83285000D01*
X156745001Y-91512388D01*
G36*
X146795400Y-95059153D02*
X146504463Y-95350091D01*
X146443096Y-95391095D01*
X146402092Y-95452462D01*
X146402091Y-95452463D01*
X146280646Y-95634218D01*
X146223602Y-95921000D01*
X146238001Y-95993389D01*
X146238000Y-123643910D01*
X145490000Y-122895910D01*
X145490000Y-112325074D01*
X145476246Y-112255926D01*
X145476241Y-112255893D01*
X145476233Y-112255862D01*
X145448805Y-112117972D01*
X145291880Y-111883119D01*
X145226900Y-111839701D01*
X144330535Y-110977070D01*
X143525193Y-110000067D01*
X142837485Y-108936979D01*
X142276522Y-107801894D01*
X141849741Y-106609853D01*
X141562795Y-105376655D01*
X141419493Y-104118657D01*
X141421732Y-102852518D01*
X141569481Y-101595035D01*
X141860783Y-100362867D01*
X142291777Y-99172341D01*
X142856746Y-98039251D01*
X143548214Y-96978592D01*
X144357002Y-96004448D01*
X145272402Y-95129713D01*
X146282267Y-94365993D01*
X146795400Y-94063750D01*
X146795400Y-95059153D01*
X146795400Y-95059153D01*
G37*
X146795400Y-95059153D02*
X146504463Y-95350091D01*
X146443096Y-95391095D01*
X146402092Y-95452462D01*
X146402091Y-95452463D01*
X146280646Y-95634218D01*
X146223602Y-95921000D01*
X146238001Y-95993389D01*
X146238000Y-123643910D01*
X145490000Y-122895910D01*
X145490000Y-112325074D01*
X145476246Y-112255926D01*
X145476241Y-112255893D01*
X145476233Y-112255862D01*
X145448805Y-112117972D01*
X145291880Y-111883119D01*
X145226900Y-111839701D01*
X144330535Y-110977070D01*
X143525193Y-110000067D01*
X142837485Y-108936979D01*
X142276522Y-107801894D01*
X141849741Y-106609853D01*
X141562795Y-105376655D01*
X141419493Y-104118657D01*
X141421732Y-102852518D01*
X141569481Y-101595035D01*
X141860783Y-100362867D01*
X142291777Y-99172341D01*
X142856746Y-98039251D01*
X143548214Y-96978592D01*
X144357002Y-96004448D01*
X145272402Y-95129713D01*
X146282267Y-94365993D01*
X146795400Y-94063750D01*
X146795400Y-95059153D01*
G36*
X149019650Y-123140904D02*
X148276186Y-122397440D01*
X149690000Y-122397440D01*
X149781268Y-122379286D01*
X149019650Y-123140904D01*
X149019650Y-123140904D01*
G37*
X149019650Y-123140904D02*
X148276186Y-122397440D01*
X149690000Y-122397440D01*
X149781268Y-122379286D01*
X149019650Y-123140904D01*
G36*
X153120700Y-119039853D02*
X150319286Y-121841268D01*
X150337440Y-121750000D01*
X150337440Y-119550000D01*
X150288157Y-119302235D01*
X150147809Y-119092191D01*
X149937765Y-118951843D01*
X149690000Y-118902560D01*
X149325000Y-118902560D01*
X149325000Y-118864446D01*
X151692283Y-116497164D01*
X152025050Y-116635000D01*
X152774950Y-116635000D01*
X153120700Y-116491786D01*
X153120700Y-119039853D01*
X153120700Y-119039853D01*
G37*
X153120700Y-119039853D02*
X150319286Y-121841268D01*
X150337440Y-121750000D01*
X150337440Y-119550000D01*
X150288157Y-119302235D01*
X150147809Y-119092191D01*
X149937765Y-118951843D01*
X149690000Y-118902560D01*
X149325000Y-118902560D01*
X149325000Y-118864446D01*
X151692283Y-116497164D01*
X152025050Y-116635000D01*
X152774950Y-116635000D01*
X153120700Y-116491786D01*
X153120700Y-119039853D01*
G36*
X150652836Y-94542283D02*
X150515000Y-94875050D01*
X150515000Y-95624950D01*
X150801974Y-96317767D01*
X151332233Y-96848026D01*
X152025050Y-97135000D01*
X152774950Y-97135000D01*
X153107717Y-96997164D01*
X153120701Y-97010148D01*
X153120700Y-113008214D01*
X152774950Y-112865000D01*
X152025050Y-112865000D01*
X151332233Y-113151974D01*
X150801974Y-113682233D01*
X150515000Y-114375050D01*
X150515000Y-115124950D01*
X150652836Y-115457717D01*
X148121465Y-117989089D01*
X148060095Y-118030095D01*
X148024700Y-118083068D01*
X148024700Y-100441646D01*
X149308138Y-99158209D01*
X149369505Y-99117205D01*
X149531954Y-98874083D01*
X149574600Y-98659688D01*
X149574600Y-98659687D01*
X149588999Y-98587300D01*
X149574600Y-98514912D01*
X149574600Y-93464046D01*
X150652836Y-94542283D01*
X150652836Y-94542283D01*
G37*
X150652836Y-94542283D02*
X150515000Y-94875050D01*
X150515000Y-95624950D01*
X150801974Y-96317767D01*
X151332233Y-96848026D01*
X152025050Y-97135000D01*
X152774950Y-97135000D01*
X153107717Y-96997164D01*
X153120701Y-97010148D01*
X153120700Y-113008214D01*
X152774950Y-112865000D01*
X152025050Y-112865000D01*
X151332233Y-113151974D01*
X150801974Y-113682233D01*
X150515000Y-114375050D01*
X150515000Y-115124950D01*
X150652836Y-115457717D01*
X148121465Y-117989089D01*
X148060095Y-118030095D01*
X148024700Y-118083068D01*
X148024700Y-100441646D01*
X149308138Y-99158209D01*
X149369505Y-99117205D01*
X149531954Y-98874083D01*
X149574600Y-98659688D01*
X149574600Y-98659687D01*
X149588999Y-98587300D01*
X149574600Y-98514912D01*
X149574600Y-93464046D01*
X150652836Y-94542283D01*
G36*
X164976909Y-99620185D02*
X165479552Y-105651901D01*
X164229370Y-110152556D01*
X161830159Y-111563857D01*
X162477430Y-110760682D01*
X162494727Y-110736491D01*
X162512772Y-110712860D01*
X162524965Y-110694201D01*
X162524973Y-110694190D01*
X162524977Y-110694182D01*
X163244592Y-109554325D01*
X163258990Y-109528314D01*
X163274203Y-109502759D01*
X163284168Y-109482828D01*
X163284178Y-109482809D01*
X163284184Y-109482795D01*
X163868015Y-108267789D01*
X163879330Y-108240291D01*
X163891503Y-108213161D01*
X163899107Y-108192225D01*
X163899119Y-108192197D01*
X163899125Y-108192176D01*
X164339435Y-106918123D01*
X164347514Y-106889508D01*
X164356488Y-106861158D01*
X164361644Y-106839457D01*
X164652605Y-105523219D01*
X164657343Y-105493854D01*
X164662997Y-105464671D01*
X164665621Y-105442545D01*
X164665625Y-105442522D01*
X164665626Y-105442505D01*
X164803372Y-104101565D01*
X164804702Y-104071877D01*
X164806967Y-104042211D01*
X164807031Y-104019906D01*
X164789740Y-102672003D01*
X164787647Y-102642336D01*
X164786488Y-102612628D01*
X164783988Y-102590464D01*
X164611887Y-101253481D01*
X164606399Y-101224254D01*
X164601833Y-101194875D01*
X164596802Y-101173145D01*
X164272174Y-99864804D01*
X164263365Y-99836408D01*
X164255450Y-99807740D01*
X164247959Y-99786748D01*
X164247955Y-99786734D01*
X164247951Y-99786725D01*
X163775099Y-98524374D01*
X163763086Y-98497182D01*
X163751928Y-98469612D01*
X163742068Y-98449605D01*
X163444353Y-97868693D01*
X164976909Y-99620185D01*
X164976909Y-99620185D01*
G37*
X164976909Y-99620185D02*
X165479552Y-105651901D01*
X164229370Y-110152556D01*
X161830159Y-111563857D01*
X162477430Y-110760682D01*
X162494727Y-110736491D01*
X162512772Y-110712860D01*
X162524965Y-110694201D01*
X162524973Y-110694190D01*
X162524977Y-110694182D01*
X163244592Y-109554325D01*
X163258990Y-109528314D01*
X163274203Y-109502759D01*
X163284168Y-109482828D01*
X163284178Y-109482809D01*
X163284184Y-109482795D01*
X163868015Y-108267789D01*
X163879330Y-108240291D01*
X163891503Y-108213161D01*
X163899107Y-108192225D01*
X163899119Y-108192197D01*
X163899125Y-108192176D01*
X164339435Y-106918123D01*
X164347514Y-106889508D01*
X164356488Y-106861158D01*
X164361644Y-106839457D01*
X164652605Y-105523219D01*
X164657343Y-105493854D01*
X164662997Y-105464671D01*
X164665621Y-105442545D01*
X164665625Y-105442522D01*
X164665626Y-105442505D01*
X164803372Y-104101565D01*
X164804702Y-104071877D01*
X164806967Y-104042211D01*
X164807031Y-104019906D01*
X164789740Y-102672003D01*
X164787647Y-102642336D01*
X164786488Y-102612628D01*
X164783988Y-102590464D01*
X164611887Y-101253481D01*
X164606399Y-101224254D01*
X164601833Y-101194875D01*
X164596802Y-101173145D01*
X164272174Y-99864804D01*
X164263365Y-99836408D01*
X164255450Y-99807740D01*
X164247959Y-99786748D01*
X164247955Y-99786734D01*
X164247951Y-99786725D01*
X163775099Y-98524374D01*
X163763086Y-98497182D01*
X163751928Y-98469612D01*
X163742068Y-98449605D01*
X163444353Y-97868693D01*
X164976909Y-99620185D01*
G36*
X143346376Y-95006093D02*
X143326100Y-95027835D01*
X143305143Y-95048938D01*
X143290628Y-95065873D01*
X142429537Y-96103014D01*
X142411898Y-96126938D01*
X142393501Y-96150315D01*
X142381028Y-96168806D01*
X141644850Y-97298046D01*
X141630069Y-97323854D01*
X141614491Y-97349174D01*
X141604226Y-97368977D01*
X141002718Y-98575347D01*
X140991005Y-98602674D01*
X140978436Y-98629626D01*
X140970515Y-98650477D01*
X140511650Y-99917988D01*
X140503158Y-99946471D01*
X140493767Y-99974699D01*
X140488296Y-99996322D01*
X140178156Y-101308173D01*
X140172991Y-101337460D01*
X140166910Y-101366563D01*
X140163963Y-101388648D01*
X140163959Y-101388671D01*
X140163958Y-101388688D01*
X140006656Y-102727476D01*
X140004892Y-102757157D01*
X140002196Y-102786772D01*
X140001806Y-102809073D01*
X139999423Y-104157085D01*
X140001082Y-104186777D01*
X140001808Y-104216500D01*
X140003984Y-104238698D01*
X140156553Y-105578050D01*
X140161615Y-105607359D01*
X140165751Y-105636798D01*
X140170464Y-105658599D01*
X140475964Y-106971539D01*
X140484365Y-107000085D01*
X140491854Y-107028840D01*
X140499041Y-107049954D01*
X140953421Y-108319079D01*
X140965035Y-108346443D01*
X140975791Y-108374175D01*
X140985350Y-108394303D01*
X140985358Y-108394323D01*
X140985366Y-108394337D01*
X141582597Y-109602812D01*
X141597289Y-109628676D01*
X141611152Y-109654971D01*
X141622971Y-109673886D01*
X142230061Y-110612351D01*
X141838306Y-110164631D01*
X140329199Y-107146418D01*
X139573000Y-103365423D01*
X139573000Y-99860452D01*
X142583828Y-95344210D01*
X143682202Y-94685186D01*
X143346376Y-95006093D01*
X143346376Y-95006093D01*
G37*
X143346376Y-95006093D02*
X143326100Y-95027835D01*
X143305143Y-95048938D01*
X143290628Y-95065873D01*
X142429537Y-96103014D01*
X142411898Y-96126938D01*
X142393501Y-96150315D01*
X142381028Y-96168806D01*
X141644850Y-97298046D01*
X141630069Y-97323854D01*
X141614491Y-97349174D01*
X141604226Y-97368977D01*
X141002718Y-98575347D01*
X140991005Y-98602674D01*
X140978436Y-98629626D01*
X140970515Y-98650477D01*
X140511650Y-99917988D01*
X140503158Y-99946471D01*
X140493767Y-99974699D01*
X140488296Y-99996322D01*
X140178156Y-101308173D01*
X140172991Y-101337460D01*
X140166910Y-101366563D01*
X140163963Y-101388648D01*
X140163959Y-101388671D01*
X140163958Y-101388688D01*
X140006656Y-102727476D01*
X140004892Y-102757157D01*
X140002196Y-102786772D01*
X140001806Y-102809073D01*
X139999423Y-104157085D01*
X140001082Y-104186777D01*
X140001808Y-104216500D01*
X140003984Y-104238698D01*
X140156553Y-105578050D01*
X140161615Y-105607359D01*
X140165751Y-105636798D01*
X140170464Y-105658599D01*
X140475964Y-106971539D01*
X140484365Y-107000085D01*
X140491854Y-107028840D01*
X140499041Y-107049954D01*
X140953421Y-108319079D01*
X140965035Y-108346443D01*
X140975791Y-108374175D01*
X140985350Y-108394303D01*
X140985358Y-108394323D01*
X140985366Y-108394337D01*
X141582597Y-109602812D01*
X141597289Y-109628676D01*
X141611152Y-109654971D01*
X141622971Y-109673886D01*
X142230061Y-110612351D01*
X141838306Y-110164631D01*
X140329199Y-107146418D01*
X139573000Y-103365423D01*
X139573000Y-99860452D01*
X142583828Y-95344210D01*
X143682202Y-94685186D01*
X143346376Y-95006093D01*
G36*
X148104600Y-98282853D02*
X147708000Y-98679453D01*
X147708000Y-96225446D01*
X147998938Y-95934509D01*
X148060305Y-95893505D01*
X148104600Y-95827213D01*
X148104600Y-98282853D01*
X148104600Y-98282853D01*
G37*
X148104600Y-98282853D02*
X147708000Y-98679453D01*
X147708000Y-96225446D01*
X147998938Y-95934509D01*
X148060305Y-95893505D01*
X148104600Y-95827213D01*
X148104600Y-98282853D01*
M02*
