G04 #@! TF.GenerationSoftware,KiCad,Pcbnew,(5.0.0)*
G04 #@! TF.CreationDate,2020-03-15T13:45:47-04:00*
G04 #@! TF.ProjectId,JTAG_TARGET_PWR,4A5441475F5441524745545F5057522E,rev?*
G04 #@! TF.SameCoordinates,Original*
G04 #@! TF.FileFunction,Legend,Bot*
G04 #@! TF.FilePolarity,Positive*
%FSLAX46Y46*%
G04 Gerber Fmt 4.6, Leading zero omitted, Abs format (unit mm)*
G04 Created by KiCad (PCBNEW (5.0.0)) date 03/15/20 13:45:47*
%MOMM*%
%LPD*%
G01*
G04 APERTURE LIST*
%ADD10C,0.100000*%
%ADD11C,0.200000*%
%ADD12C,0.300000*%
%ADD13C,0.120000*%
%ADD14C,0.010000*%
%ADD15C,0.150000*%
G04 APERTURE END LIST*
D10*
X149686556Y-132605240D02*
X149650841Y-132567144D01*
X149650841Y-132510002D01*
X149686556Y-132452859D01*
X149757984Y-132414763D01*
X149829413Y-132395716D01*
X149972270Y-132376668D01*
X150079413Y-132376668D01*
X150222270Y-132395716D01*
X150293698Y-132414763D01*
X150365127Y-132452859D01*
X150400841Y-132510002D01*
X150400841Y-132548097D01*
X150365127Y-132605240D01*
X150329413Y-132624287D01*
X150079413Y-132624287D01*
X150079413Y-132548097D01*
X150400841Y-132795716D02*
X149650841Y-132795716D01*
X150400841Y-133024287D01*
X149650841Y-133024287D01*
X150400841Y-133214763D02*
X149650841Y-133214763D01*
X149650841Y-133310002D01*
X149686556Y-133367144D01*
X149757984Y-133405240D01*
X149829413Y-133424287D01*
X149972270Y-133443335D01*
X150079413Y-133443335D01*
X150222270Y-133424287D01*
X150293698Y-133405240D01*
X150365127Y-133367144D01*
X150400841Y-133310002D01*
X150400841Y-133214763D01*
X150875841Y-132224287D02*
X151625841Y-132357621D01*
X150875841Y-132490954D01*
X151625841Y-132852859D02*
X151268698Y-132719525D01*
X151625841Y-132624287D02*
X150875841Y-132624287D01*
X150875841Y-132776668D01*
X150911556Y-132814763D01*
X150947270Y-132833811D01*
X151018698Y-132852859D01*
X151125841Y-132852859D01*
X151197270Y-132833811D01*
X151232984Y-132814763D01*
X151268698Y-132776668D01*
X151268698Y-132624287D01*
X151232984Y-133024287D02*
X151232984Y-133157621D01*
X151625841Y-133214763D02*
X151625841Y-133024287D01*
X150875841Y-133024287D01*
X150875841Y-133214763D01*
X151232984Y-133519525D02*
X151232984Y-133386192D01*
X151625841Y-133386192D02*
X150875841Y-133386192D01*
X150875841Y-133576668D01*
X152850841Y-132690954D02*
X152493698Y-132557621D01*
X152850841Y-132462382D02*
X152100841Y-132462382D01*
X152100841Y-132614763D01*
X152136556Y-132652859D01*
X152172270Y-132671906D01*
X152243698Y-132690954D01*
X152350841Y-132690954D01*
X152422270Y-132671906D01*
X152457984Y-132652859D01*
X152493698Y-132614763D01*
X152493698Y-132462382D01*
X152815127Y-132843335D02*
X152850841Y-132900478D01*
X152850841Y-132995716D01*
X152815127Y-133033811D01*
X152779413Y-133052859D01*
X152707984Y-133071906D01*
X152636556Y-133071906D01*
X152565127Y-133052859D01*
X152529413Y-133033811D01*
X152493698Y-132995716D01*
X152457984Y-132919525D01*
X152422270Y-132881430D01*
X152386556Y-132862382D01*
X152315127Y-132843335D01*
X152243698Y-132843335D01*
X152172270Y-132862382D01*
X152136556Y-132881430D01*
X152100841Y-132919525D01*
X152100841Y-133014763D01*
X152136556Y-133071906D01*
X152100841Y-133186192D02*
X152100841Y-133414763D01*
X152850841Y-133300478D02*
X152100841Y-133300478D01*
X153790127Y-132510002D02*
X153790127Y-132814763D01*
X153790127Y-133005240D02*
X153790127Y-133310002D01*
X154586556Y-132605240D02*
X154550841Y-132567144D01*
X154550841Y-132510002D01*
X154586556Y-132452859D01*
X154657984Y-132414763D01*
X154729413Y-132395716D01*
X154872270Y-132376668D01*
X154979413Y-132376668D01*
X155122270Y-132395716D01*
X155193698Y-132414763D01*
X155265127Y-132452859D01*
X155300841Y-132510002D01*
X155300841Y-132548097D01*
X155265127Y-132605240D01*
X155229413Y-132624287D01*
X154979413Y-132624287D01*
X154979413Y-132548097D01*
X155300841Y-132795716D02*
X154550841Y-132795716D01*
X155300841Y-133024287D01*
X154550841Y-133024287D01*
X155300841Y-133214763D02*
X154550841Y-133214763D01*
X154550841Y-133310002D01*
X154586556Y-133367144D01*
X154657984Y-133405240D01*
X154729413Y-133424287D01*
X154872270Y-133443335D01*
X154979413Y-133443335D01*
X155122270Y-133424287D01*
X155193698Y-133405240D01*
X155265127Y-133367144D01*
X155300841Y-133310002D01*
X155300841Y-133214763D01*
D11*
X148447556Y-127830002D02*
X149463556Y-127830002D01*
X148447556Y-130370002D02*
X148447556Y-127830002D01*
D10*
X149650841Y-126807716D02*
X149650841Y-127036287D01*
X150400841Y-126922002D02*
X149650841Y-126922002D01*
X150329413Y-127398192D02*
X150365127Y-127379144D01*
X150400841Y-127322002D01*
X150400841Y-127283906D01*
X150365127Y-127226763D01*
X150293698Y-127188668D01*
X150222270Y-127169621D01*
X150079413Y-127150573D01*
X149972270Y-127150573D01*
X149829413Y-127169621D01*
X149757984Y-127188668D01*
X149686556Y-127226763D01*
X149650841Y-127283906D01*
X149650841Y-127322002D01*
X149686556Y-127379144D01*
X149722270Y-127398192D01*
X150400841Y-127569621D02*
X149650841Y-127569621D01*
X150400841Y-127798192D02*
X149972270Y-127626763D01*
X149650841Y-127798192D02*
X150079413Y-127569621D01*
X150875841Y-126798192D02*
X150875841Y-127026763D01*
X151625841Y-126912478D02*
X150875841Y-126912478D01*
X151625841Y-127160097D02*
X150875841Y-127160097D01*
X150875841Y-127255335D01*
X150911556Y-127312478D01*
X150982984Y-127350573D01*
X151054413Y-127369621D01*
X151197270Y-127388668D01*
X151304413Y-127388668D01*
X151447270Y-127369621D01*
X151518698Y-127350573D01*
X151590127Y-127312478D01*
X151625841Y-127255335D01*
X151625841Y-127160097D01*
X150875841Y-127636287D02*
X150875841Y-127712478D01*
X150911556Y-127750573D01*
X150982984Y-127788668D01*
X151125841Y-127807716D01*
X151375841Y-127807716D01*
X151518698Y-127788668D01*
X151590127Y-127750573D01*
X151625841Y-127712478D01*
X151625841Y-127636287D01*
X151590127Y-127598192D01*
X151518698Y-127560097D01*
X151375841Y-127541049D01*
X151125841Y-127541049D01*
X150982984Y-127560097D01*
X150911556Y-127598192D01*
X150875841Y-127636287D01*
X152100841Y-126788668D02*
X152100841Y-127017240D01*
X152850841Y-126902954D02*
X152100841Y-126902954D01*
X152850841Y-127150573D02*
X152100841Y-127150573D01*
X152636556Y-127283906D01*
X152100841Y-127417240D01*
X152850841Y-127417240D01*
X152815127Y-127588668D02*
X152850841Y-127645811D01*
X152850841Y-127741049D01*
X152815127Y-127779144D01*
X152779413Y-127798192D01*
X152707984Y-127817240D01*
X152636556Y-127817240D01*
X152565127Y-127798192D01*
X152529413Y-127779144D01*
X152493698Y-127741049D01*
X152457984Y-127664859D01*
X152422270Y-127626763D01*
X152386556Y-127607716D01*
X152315127Y-127588668D01*
X152243698Y-127588668D01*
X152172270Y-127607716D01*
X152136556Y-127626763D01*
X152100841Y-127664859D01*
X152100841Y-127760097D01*
X152136556Y-127817240D01*
X153325841Y-126788668D02*
X154075841Y-126922002D01*
X153325841Y-127055335D01*
X154004413Y-127417240D02*
X154040127Y-127398192D01*
X154075841Y-127341049D01*
X154075841Y-127302954D01*
X154040127Y-127245811D01*
X153968698Y-127207716D01*
X153897270Y-127188668D01*
X153754413Y-127169621D01*
X153647270Y-127169621D01*
X153504413Y-127188668D01*
X153432984Y-127207716D01*
X153361556Y-127245811D01*
X153325841Y-127302954D01*
X153325841Y-127341049D01*
X153361556Y-127398192D01*
X153397270Y-127417240D01*
X154004413Y-127817240D02*
X154040127Y-127798192D01*
X154075841Y-127741049D01*
X154075841Y-127702954D01*
X154040127Y-127645811D01*
X153968698Y-127607716D01*
X153897270Y-127588668D01*
X153754413Y-127569621D01*
X153647270Y-127569621D01*
X153504413Y-127588668D01*
X153432984Y-127607716D01*
X153361556Y-127645811D01*
X153325841Y-127702954D01*
X153325841Y-127741049D01*
X153361556Y-127798192D01*
X153397270Y-127817240D01*
X154550841Y-126912478D02*
X154550841Y-127141049D01*
X155300841Y-127026763D02*
X154550841Y-127026763D01*
X155300841Y-127274382D02*
X154550841Y-127274382D01*
X154550841Y-127369621D01*
X154586556Y-127426763D01*
X154657984Y-127464859D01*
X154729413Y-127483906D01*
X154872270Y-127502954D01*
X154979413Y-127502954D01*
X155122270Y-127483906D01*
X155193698Y-127464859D01*
X155265127Y-127426763D01*
X155300841Y-127369621D01*
X155300841Y-127274382D01*
X155300841Y-127674382D02*
X154550841Y-127674382D01*
D12*
X154748571Y-99147857D02*
X155820000Y-99147857D01*
X156034285Y-99076428D01*
X156177142Y-98933571D01*
X156248571Y-98719285D01*
X156248571Y-98576428D01*
X154748571Y-99647857D02*
X154748571Y-100505000D01*
X156248571Y-100076428D02*
X154748571Y-100076428D01*
X155820000Y-100933571D02*
X155820000Y-101647857D01*
X156248571Y-100790714D02*
X154748571Y-101290714D01*
X156248571Y-101790714D01*
X154820000Y-103076428D02*
X154748571Y-102933571D01*
X154748571Y-102719285D01*
X154820000Y-102505000D01*
X154962857Y-102362142D01*
X155105714Y-102290714D01*
X155391428Y-102219285D01*
X155605714Y-102219285D01*
X155891428Y-102290714D01*
X156034285Y-102362142D01*
X156177142Y-102505000D01*
X156248571Y-102719285D01*
X156248571Y-102862142D01*
X156177142Y-103076428D01*
X156105714Y-103147857D01*
X155605714Y-103147857D01*
X155605714Y-102862142D01*
X155820000Y-104862142D02*
X155820000Y-105576428D01*
X156248571Y-104719285D02*
X154748571Y-105219285D01*
X156248571Y-105719285D01*
X154748571Y-106005000D02*
X156248571Y-106505000D01*
X154748571Y-107005000D01*
X156248571Y-108362142D02*
X155534285Y-107862142D01*
X156248571Y-107505000D02*
X154748571Y-107505000D01*
X154748571Y-108076428D01*
X154820000Y-108219285D01*
X154891428Y-108290714D01*
X155034285Y-108362142D01*
X155248571Y-108362142D01*
X155391428Y-108290714D01*
X155462857Y-108219285D01*
X155534285Y-108076428D01*
X155534285Y-107505000D01*
X157298571Y-96755000D02*
X157298571Y-97612142D01*
X158798571Y-97183571D02*
X157298571Y-97183571D01*
X158370000Y-98040714D02*
X158370000Y-98755000D01*
X158798571Y-97897857D02*
X157298571Y-98397857D01*
X158798571Y-98897857D01*
X158798571Y-100255000D02*
X158084285Y-99755000D01*
X158798571Y-99397857D02*
X157298571Y-99397857D01*
X157298571Y-99969285D01*
X157370000Y-100112142D01*
X157441428Y-100183571D01*
X157584285Y-100255000D01*
X157798571Y-100255000D01*
X157941428Y-100183571D01*
X158012857Y-100112142D01*
X158084285Y-99969285D01*
X158084285Y-99397857D01*
X157370000Y-101683571D02*
X157298571Y-101540714D01*
X157298571Y-101326428D01*
X157370000Y-101112142D01*
X157512857Y-100969285D01*
X157655714Y-100897857D01*
X157941428Y-100826428D01*
X158155714Y-100826428D01*
X158441428Y-100897857D01*
X158584285Y-100969285D01*
X158727142Y-101112142D01*
X158798571Y-101326428D01*
X158798571Y-101469285D01*
X158727142Y-101683571D01*
X158655714Y-101755000D01*
X158155714Y-101755000D01*
X158155714Y-101469285D01*
X158012857Y-102397857D02*
X158012857Y-102897857D01*
X158798571Y-103112142D02*
X158798571Y-102397857D01*
X157298571Y-102397857D01*
X157298571Y-103112142D01*
X157298571Y-103540714D02*
X157298571Y-104397857D01*
X158798571Y-103969285D02*
X157298571Y-103969285D01*
X158798571Y-106040714D02*
X157298571Y-106040714D01*
X157298571Y-106612142D01*
X157370000Y-106755000D01*
X157441428Y-106826428D01*
X157584285Y-106897857D01*
X157798571Y-106897857D01*
X157941428Y-106826428D01*
X158012857Y-106755000D01*
X158084285Y-106612142D01*
X158084285Y-106040714D01*
X157298571Y-107397857D02*
X158798571Y-107755000D01*
X157727142Y-108040714D01*
X158798571Y-108326428D01*
X157298571Y-108683571D01*
X158798571Y-110112142D02*
X158084285Y-109612142D01*
X158798571Y-109255000D02*
X157298571Y-109255000D01*
X157298571Y-109826428D01*
X157370000Y-109969285D01*
X157441428Y-110040714D01*
X157584285Y-110112142D01*
X157798571Y-110112142D01*
X157941428Y-110040714D01*
X158012857Y-109969285D01*
X158084285Y-109826428D01*
X158084285Y-109255000D01*
D13*
G04 #@! TO.C,J3*
X149100000Y-128410000D02*
X149100000Y-129540000D01*
X149860000Y-128410000D02*
X149100000Y-128410000D01*
X149165000Y-131117530D02*
X149165000Y-131940000D01*
X149165000Y-130300000D02*
X149165000Y-130502470D01*
X149296529Y-130300000D02*
X149165000Y-130300000D01*
X150566529Y-130300000D02*
X150423471Y-130300000D01*
X150620000Y-130103471D02*
X150620000Y-130246529D01*
X150620000Y-128410000D02*
X150620000Y-128976529D01*
X149165000Y-131940000D02*
X155635000Y-131940000D01*
X150620000Y-128410000D02*
X155635000Y-128410000D01*
X155635000Y-129847530D02*
X155635000Y-130502470D01*
X155635000Y-131117530D02*
X155635000Y-131940000D01*
X155635000Y-128410000D02*
X155635000Y-129232470D01*
D14*
G04 #@! TO.C,G\002A\002A\002A*
G36*
X144617605Y-109000496D02*
X144667097Y-109101306D01*
X144779086Y-109220321D01*
X144914740Y-109295306D01*
X145063036Y-109325597D01*
X145212949Y-109310528D01*
X145353458Y-109249434D01*
X145466998Y-109149581D01*
X145526696Y-109056247D01*
X145572828Y-108943927D01*
X145595329Y-108839085D01*
X145595861Y-108810777D01*
X145586256Y-108752731D01*
X145570549Y-108692000D01*
X145503280Y-108558483D01*
X145395966Y-108446967D01*
X145262863Y-108368113D01*
X145118232Y-108332585D01*
X145088589Y-108331619D01*
X144939264Y-108358844D01*
X144800019Y-108431975D01*
X144688932Y-108541045D01*
X144676503Y-108558846D01*
X144612884Y-108699606D01*
X144593154Y-108852411D01*
X144617605Y-109000496D01*
X144617605Y-109000496D01*
G37*
X144617605Y-109000496D02*
X144667097Y-109101306D01*
X144779086Y-109220321D01*
X144914740Y-109295306D01*
X145063036Y-109325597D01*
X145212949Y-109310528D01*
X145353458Y-109249434D01*
X145466998Y-109149581D01*
X145526696Y-109056247D01*
X145572828Y-108943927D01*
X145595329Y-108839085D01*
X145595861Y-108810777D01*
X145586256Y-108752731D01*
X145570549Y-108692000D01*
X145503280Y-108558483D01*
X145395966Y-108446967D01*
X145262863Y-108368113D01*
X145118232Y-108332585D01*
X145088589Y-108331619D01*
X144939264Y-108358844D01*
X144800019Y-108431975D01*
X144688932Y-108541045D01*
X144676503Y-108558846D01*
X144612884Y-108699606D01*
X144593154Y-108852411D01*
X144617605Y-109000496D01*
G36*
X145719236Y-117176321D02*
X145761004Y-117427000D01*
X145843463Y-117642433D01*
X145963884Y-117819889D01*
X146119540Y-117956639D01*
X146307704Y-118049951D01*
X146525648Y-118097097D01*
X146644432Y-118102508D01*
X146859863Y-118075793D01*
X147049486Y-118000150D01*
X147209260Y-117878073D01*
X147335145Y-117712053D01*
X147363136Y-117659331D01*
X147410967Y-117529897D01*
X147446930Y-117359450D01*
X147471508Y-117144109D01*
X147485183Y-116879996D01*
X147488568Y-116649500D01*
X147489560Y-116508013D01*
X147492781Y-116413572D01*
X147499763Y-116356783D01*
X147512038Y-116328253D01*
X147531138Y-116318587D01*
X147542651Y-116317889D01*
X147620065Y-116343878D01*
X147690311Y-116413471D01*
X147740156Y-116512600D01*
X147750976Y-116575849D01*
X147759765Y-116690135D01*
X147766299Y-116850083D01*
X147770356Y-117050314D01*
X147771713Y-117274600D01*
X147772979Y-117471706D01*
X147776449Y-117654326D01*
X147781769Y-117813149D01*
X147788586Y-117938866D01*
X147796548Y-118022168D01*
X147800907Y-118045216D01*
X147855200Y-118161445D01*
X147942220Y-118232597D01*
X148064202Y-118260112D01*
X148132013Y-118258567D01*
X148241790Y-118240730D01*
X148322527Y-118202003D01*
X148368322Y-118164070D01*
X148420516Y-118111907D01*
X148461323Y-118060114D01*
X148492223Y-118001055D01*
X148514697Y-117927092D01*
X148530225Y-117830588D01*
X148540286Y-117703904D01*
X148546362Y-117539404D01*
X148549931Y-117329450D01*
X148551087Y-117221000D01*
X148551796Y-117019664D01*
X148550219Y-116825072D01*
X148546617Y-116648404D01*
X148541254Y-116500838D01*
X148534392Y-116393553D01*
X148530926Y-116361699D01*
X148473404Y-116112293D01*
X148374816Y-115900497D01*
X148237306Y-115727600D01*
X148063015Y-115594895D01*
X147854085Y-115503671D01*
X147612659Y-115455218D01*
X147340880Y-115450828D01*
X147075538Y-115484962D01*
X146828239Y-115550148D01*
X146812000Y-115557434D01*
X146812000Y-116481679D01*
X146811584Y-116801950D01*
X146807843Y-116967705D01*
X146797586Y-117095765D01*
X146781552Y-117178079D01*
X146775662Y-117192777D01*
X146717468Y-117256103D01*
X146639288Y-117275547D01*
X146557254Y-117250603D01*
X146502045Y-117201378D01*
X146454398Y-117098419D01*
X146448290Y-116974568D01*
X146479649Y-116842187D01*
X146544405Y-116713639D01*
X146638489Y-116601286D01*
X146720278Y-116538486D01*
X146812000Y-116481679D01*
X146812000Y-115557434D01*
X146605099Y-115650273D01*
X146393874Y-115792120D01*
X146188268Y-115976510D01*
X145992337Y-116200062D01*
X145850247Y-116427916D01*
X145759439Y-116666617D01*
X145717353Y-116922711D01*
X145719236Y-117176321D01*
X145719236Y-117176321D01*
G37*
X145719236Y-117176321D02*
X145761004Y-117427000D01*
X145843463Y-117642433D01*
X145963884Y-117819889D01*
X146119540Y-117956639D01*
X146307704Y-118049951D01*
X146525648Y-118097097D01*
X146644432Y-118102508D01*
X146859863Y-118075793D01*
X147049486Y-118000150D01*
X147209260Y-117878073D01*
X147335145Y-117712053D01*
X147363136Y-117659331D01*
X147410967Y-117529897D01*
X147446930Y-117359450D01*
X147471508Y-117144109D01*
X147485183Y-116879996D01*
X147488568Y-116649500D01*
X147489560Y-116508013D01*
X147492781Y-116413572D01*
X147499763Y-116356783D01*
X147512038Y-116328253D01*
X147531138Y-116318587D01*
X147542651Y-116317889D01*
X147620065Y-116343878D01*
X147690311Y-116413471D01*
X147740156Y-116512600D01*
X147750976Y-116575849D01*
X147759765Y-116690135D01*
X147766299Y-116850083D01*
X147770356Y-117050314D01*
X147771713Y-117274600D01*
X147772979Y-117471706D01*
X147776449Y-117654326D01*
X147781769Y-117813149D01*
X147788586Y-117938866D01*
X147796548Y-118022168D01*
X147800907Y-118045216D01*
X147855200Y-118161445D01*
X147942220Y-118232597D01*
X148064202Y-118260112D01*
X148132013Y-118258567D01*
X148241790Y-118240730D01*
X148322527Y-118202003D01*
X148368322Y-118164070D01*
X148420516Y-118111907D01*
X148461323Y-118060114D01*
X148492223Y-118001055D01*
X148514697Y-117927092D01*
X148530225Y-117830588D01*
X148540286Y-117703904D01*
X148546362Y-117539404D01*
X148549931Y-117329450D01*
X148551087Y-117221000D01*
X148551796Y-117019664D01*
X148550219Y-116825072D01*
X148546617Y-116648404D01*
X148541254Y-116500838D01*
X148534392Y-116393553D01*
X148530926Y-116361699D01*
X148473404Y-116112293D01*
X148374816Y-115900497D01*
X148237306Y-115727600D01*
X148063015Y-115594895D01*
X147854085Y-115503671D01*
X147612659Y-115455218D01*
X147340880Y-115450828D01*
X147075538Y-115484962D01*
X146828239Y-115550148D01*
X146812000Y-115557434D01*
X146812000Y-116481679D01*
X146811584Y-116801950D01*
X146807843Y-116967705D01*
X146797586Y-117095765D01*
X146781552Y-117178079D01*
X146775662Y-117192777D01*
X146717468Y-117256103D01*
X146639288Y-117275547D01*
X146557254Y-117250603D01*
X146502045Y-117201378D01*
X146454398Y-117098419D01*
X146448290Y-116974568D01*
X146479649Y-116842187D01*
X146544405Y-116713639D01*
X146638489Y-116601286D01*
X146720278Y-116538486D01*
X146812000Y-116481679D01*
X146812000Y-115557434D01*
X146605099Y-115650273D01*
X146393874Y-115792120D01*
X146188268Y-115976510D01*
X145992337Y-116200062D01*
X145850247Y-116427916D01*
X145759439Y-116666617D01*
X145717353Y-116922711D01*
X145719236Y-117176321D01*
G36*
X145719236Y-114184765D02*
X145761004Y-114435444D01*
X145843463Y-114650877D01*
X145963884Y-114828334D01*
X146119540Y-114965083D01*
X146307704Y-115058396D01*
X146525648Y-115105542D01*
X146644432Y-115110952D01*
X146859863Y-115084237D01*
X147049486Y-115008595D01*
X147209260Y-114886518D01*
X147335145Y-114720497D01*
X147363136Y-114667775D01*
X147410967Y-114538342D01*
X147446930Y-114367894D01*
X147471508Y-114152554D01*
X147485183Y-113888440D01*
X147488568Y-113657944D01*
X147489560Y-113516457D01*
X147492781Y-113422016D01*
X147499763Y-113365227D01*
X147512038Y-113336697D01*
X147531138Y-113327031D01*
X147542651Y-113326333D01*
X147620065Y-113352323D01*
X147690311Y-113421915D01*
X147740156Y-113521044D01*
X147750976Y-113584293D01*
X147759765Y-113698580D01*
X147766299Y-113858527D01*
X147770356Y-114058758D01*
X147771713Y-114283044D01*
X147772979Y-114480151D01*
X147776449Y-114662770D01*
X147781769Y-114821593D01*
X147788586Y-114947310D01*
X147796548Y-115030612D01*
X147800907Y-115053660D01*
X147858911Y-115169580D01*
X147953542Y-115244630D01*
X148077867Y-115273509D01*
X148088596Y-115273666D01*
X148242497Y-115249375D01*
X148366979Y-115177548D01*
X148460451Y-115059755D01*
X148521326Y-114897567D01*
X148534199Y-114833297D01*
X148543747Y-114740922D01*
X148550750Y-114603918D01*
X148555244Y-114434041D01*
X148557263Y-114243047D01*
X148556844Y-114042692D01*
X148554022Y-113844732D01*
X148548831Y-113660924D01*
X148541307Y-113503024D01*
X148531486Y-113382788D01*
X148529809Y-113368666D01*
X148474659Y-113125107D01*
X148376665Y-112916285D01*
X148238861Y-112744058D01*
X148064282Y-112610283D01*
X147855962Y-112516819D01*
X147616935Y-112465522D01*
X147350237Y-112458250D01*
X147094222Y-112489901D01*
X146847340Y-112552556D01*
X146812000Y-112567573D01*
X146812000Y-113490123D01*
X146811584Y-113810395D01*
X146807843Y-113976149D01*
X146797586Y-114104209D01*
X146781552Y-114186524D01*
X146775662Y-114201222D01*
X146717468Y-114264547D01*
X146639288Y-114283992D01*
X146557254Y-114259048D01*
X146502045Y-114209822D01*
X146454398Y-114106864D01*
X146448290Y-113983013D01*
X146479649Y-113850632D01*
X146544405Y-113722083D01*
X146638489Y-113609730D01*
X146720278Y-113546930D01*
X146812000Y-113490123D01*
X146812000Y-112567573D01*
X146628943Y-112645364D01*
X146425083Y-112775949D01*
X146221811Y-112951933D01*
X146188268Y-112984954D01*
X145992337Y-113208507D01*
X145850247Y-113436360D01*
X145759439Y-113675061D01*
X145717353Y-113931156D01*
X145719236Y-114184765D01*
X145719236Y-114184765D01*
G37*
X145719236Y-114184765D02*
X145761004Y-114435444D01*
X145843463Y-114650877D01*
X145963884Y-114828334D01*
X146119540Y-114965083D01*
X146307704Y-115058396D01*
X146525648Y-115105542D01*
X146644432Y-115110952D01*
X146859863Y-115084237D01*
X147049486Y-115008595D01*
X147209260Y-114886518D01*
X147335145Y-114720497D01*
X147363136Y-114667775D01*
X147410967Y-114538342D01*
X147446930Y-114367894D01*
X147471508Y-114152554D01*
X147485183Y-113888440D01*
X147488568Y-113657944D01*
X147489560Y-113516457D01*
X147492781Y-113422016D01*
X147499763Y-113365227D01*
X147512038Y-113336697D01*
X147531138Y-113327031D01*
X147542651Y-113326333D01*
X147620065Y-113352323D01*
X147690311Y-113421915D01*
X147740156Y-113521044D01*
X147750976Y-113584293D01*
X147759765Y-113698580D01*
X147766299Y-113858527D01*
X147770356Y-114058758D01*
X147771713Y-114283044D01*
X147772979Y-114480151D01*
X147776449Y-114662770D01*
X147781769Y-114821593D01*
X147788586Y-114947310D01*
X147796548Y-115030612D01*
X147800907Y-115053660D01*
X147858911Y-115169580D01*
X147953542Y-115244630D01*
X148077867Y-115273509D01*
X148088596Y-115273666D01*
X148242497Y-115249375D01*
X148366979Y-115177548D01*
X148460451Y-115059755D01*
X148521326Y-114897567D01*
X148534199Y-114833297D01*
X148543747Y-114740922D01*
X148550750Y-114603918D01*
X148555244Y-114434041D01*
X148557263Y-114243047D01*
X148556844Y-114042692D01*
X148554022Y-113844732D01*
X148548831Y-113660924D01*
X148541307Y-113503024D01*
X148531486Y-113382788D01*
X148529809Y-113368666D01*
X148474659Y-113125107D01*
X148376665Y-112916285D01*
X148238861Y-112744058D01*
X148064282Y-112610283D01*
X147855962Y-112516819D01*
X147616935Y-112465522D01*
X147350237Y-112458250D01*
X147094222Y-112489901D01*
X146847340Y-112552556D01*
X146812000Y-112567573D01*
X146812000Y-113490123D01*
X146811584Y-113810395D01*
X146807843Y-113976149D01*
X146797586Y-114104209D01*
X146781552Y-114186524D01*
X146775662Y-114201222D01*
X146717468Y-114264547D01*
X146639288Y-114283992D01*
X146557254Y-114259048D01*
X146502045Y-114209822D01*
X146454398Y-114106864D01*
X146448290Y-113983013D01*
X146479649Y-113850632D01*
X146544405Y-113722083D01*
X146638489Y-113609730D01*
X146720278Y-113546930D01*
X146812000Y-113490123D01*
X146812000Y-112567573D01*
X146628943Y-112645364D01*
X146425083Y-112775949D01*
X146221811Y-112951933D01*
X146188268Y-112984954D01*
X145992337Y-113208507D01*
X145850247Y-113436360D01*
X145759439Y-113675061D01*
X145717353Y-113931156D01*
X145719236Y-114184765D01*
G36*
X145283759Y-110397362D02*
X145356366Y-110494916D01*
X145478593Y-110566796D01*
X145546371Y-110590003D01*
X145656520Y-110632238D01*
X145719924Y-110683646D01*
X145731861Y-110702892D01*
X145745499Y-110753484D01*
X145755668Y-110846677D01*
X145762565Y-110986123D01*
X145766388Y-111175470D01*
X145767362Y-111358739D01*
X145768698Y-111584063D01*
X145773211Y-111760305D01*
X145782195Y-111894798D01*
X145796943Y-111994873D01*
X145818748Y-112067863D01*
X145848904Y-112121098D01*
X145888705Y-112161912D01*
X145912187Y-112179645D01*
X146004310Y-112215735D01*
X146121902Y-112224060D01*
X146241592Y-112205147D01*
X146323796Y-112170364D01*
X146425594Y-112076883D01*
X146495970Y-111938880D01*
X146533011Y-111776974D01*
X146551129Y-111685134D01*
X146582806Y-111612761D01*
X146639524Y-111538471D01*
X146690190Y-111484246D01*
X146807432Y-111372632D01*
X146939696Y-111261807D01*
X147072542Y-111162737D01*
X147191534Y-111086386D01*
X147258881Y-111052320D01*
X147355259Y-111024765D01*
X147459302Y-111012188D01*
X147466413Y-111012111D01*
X147569017Y-111020756D01*
X147646652Y-111050871D01*
X147702469Y-111108728D01*
X147739624Y-111200598D01*
X147761269Y-111332751D01*
X147770559Y-111511458D01*
X147771555Y-111618889D01*
X147777292Y-111831913D01*
X147796351Y-111994986D01*
X147831507Y-112113607D01*
X147885535Y-112193274D01*
X147961207Y-112239486D01*
X148061299Y-112257741D01*
X148094298Y-112258592D01*
X148243240Y-112236852D01*
X148361879Y-112169383D01*
X148455476Y-112052811D01*
X148476616Y-112013526D01*
X148502480Y-111958145D01*
X148521249Y-111904811D01*
X148534203Y-111843038D01*
X148542623Y-111762343D01*
X148547792Y-111652240D01*
X148550991Y-111502244D01*
X148552445Y-111393111D01*
X148553011Y-111223420D01*
X148550857Y-111063654D01*
X148546353Y-110926568D01*
X148539868Y-110824919D01*
X148534801Y-110784088D01*
X148472341Y-110583391D01*
X148365843Y-110415383D01*
X148219200Y-110282943D01*
X148036307Y-110188951D01*
X147821057Y-110136288D01*
X147644555Y-110125605D01*
X147483673Y-110135332D01*
X147339214Y-110164950D01*
X147198066Y-110219730D01*
X147047115Y-110304946D01*
X146873247Y-110425868D01*
X146844733Y-110447147D01*
X146740474Y-110524789D01*
X146653626Y-110588147D01*
X146593499Y-110630516D01*
X146569566Y-110645222D01*
X146563688Y-110619466D01*
X146559523Y-110552054D01*
X146558000Y-110460892D01*
X146560782Y-110357131D01*
X146571234Y-110296794D01*
X146592508Y-110267041D01*
X146607389Y-110259887D01*
X146654126Y-110240754D01*
X146737081Y-110203781D01*
X146841593Y-110155562D01*
X146889807Y-110132872D01*
X147053778Y-110043942D01*
X147166574Y-109953984D01*
X147233208Y-109856599D01*
X147258695Y-109745388D01*
X147255907Y-109665572D01*
X147235777Y-109568282D01*
X147192047Y-109493563D01*
X147136139Y-109436381D01*
X147065913Y-109378187D01*
X147008046Y-109352902D01*
X146937330Y-109351313D01*
X146910718Y-109353980D01*
X146847418Y-109368956D01*
X146741892Y-109402600D01*
X146603724Y-109451172D01*
X146442492Y-109510932D01*
X146267780Y-109578140D01*
X146089168Y-109649055D01*
X145916238Y-109719938D01*
X145758570Y-109787049D01*
X145625746Y-109846648D01*
X145534753Y-109891092D01*
X145392958Y-109984877D01*
X145303487Y-110092694D01*
X145263007Y-110219171D01*
X145259778Y-110273035D01*
X145283759Y-110397362D01*
X145283759Y-110397362D01*
G37*
X145283759Y-110397362D02*
X145356366Y-110494916D01*
X145478593Y-110566796D01*
X145546371Y-110590003D01*
X145656520Y-110632238D01*
X145719924Y-110683646D01*
X145731861Y-110702892D01*
X145745499Y-110753484D01*
X145755668Y-110846677D01*
X145762565Y-110986123D01*
X145766388Y-111175470D01*
X145767362Y-111358739D01*
X145768698Y-111584063D01*
X145773211Y-111760305D01*
X145782195Y-111894798D01*
X145796943Y-111994873D01*
X145818748Y-112067863D01*
X145848904Y-112121098D01*
X145888705Y-112161912D01*
X145912187Y-112179645D01*
X146004310Y-112215735D01*
X146121902Y-112224060D01*
X146241592Y-112205147D01*
X146323796Y-112170364D01*
X146425594Y-112076883D01*
X146495970Y-111938880D01*
X146533011Y-111776974D01*
X146551129Y-111685134D01*
X146582806Y-111612761D01*
X146639524Y-111538471D01*
X146690190Y-111484246D01*
X146807432Y-111372632D01*
X146939696Y-111261807D01*
X147072542Y-111162737D01*
X147191534Y-111086386D01*
X147258881Y-111052320D01*
X147355259Y-111024765D01*
X147459302Y-111012188D01*
X147466413Y-111012111D01*
X147569017Y-111020756D01*
X147646652Y-111050871D01*
X147702469Y-111108728D01*
X147739624Y-111200598D01*
X147761269Y-111332751D01*
X147770559Y-111511458D01*
X147771555Y-111618889D01*
X147777292Y-111831913D01*
X147796351Y-111994986D01*
X147831507Y-112113607D01*
X147885535Y-112193274D01*
X147961207Y-112239486D01*
X148061299Y-112257741D01*
X148094298Y-112258592D01*
X148243240Y-112236852D01*
X148361879Y-112169383D01*
X148455476Y-112052811D01*
X148476616Y-112013526D01*
X148502480Y-111958145D01*
X148521249Y-111904811D01*
X148534203Y-111843038D01*
X148542623Y-111762343D01*
X148547792Y-111652240D01*
X148550991Y-111502244D01*
X148552445Y-111393111D01*
X148553011Y-111223420D01*
X148550857Y-111063654D01*
X148546353Y-110926568D01*
X148539868Y-110824919D01*
X148534801Y-110784088D01*
X148472341Y-110583391D01*
X148365843Y-110415383D01*
X148219200Y-110282943D01*
X148036307Y-110188951D01*
X147821057Y-110136288D01*
X147644555Y-110125605D01*
X147483673Y-110135332D01*
X147339214Y-110164950D01*
X147198066Y-110219730D01*
X147047115Y-110304946D01*
X146873247Y-110425868D01*
X146844733Y-110447147D01*
X146740474Y-110524789D01*
X146653626Y-110588147D01*
X146593499Y-110630516D01*
X146569566Y-110645222D01*
X146563688Y-110619466D01*
X146559523Y-110552054D01*
X146558000Y-110460892D01*
X146560782Y-110357131D01*
X146571234Y-110296794D01*
X146592508Y-110267041D01*
X146607389Y-110259887D01*
X146654126Y-110240754D01*
X146737081Y-110203781D01*
X146841593Y-110155562D01*
X146889807Y-110132872D01*
X147053778Y-110043942D01*
X147166574Y-109953984D01*
X147233208Y-109856599D01*
X147258695Y-109745388D01*
X147255907Y-109665572D01*
X147235777Y-109568282D01*
X147192047Y-109493563D01*
X147136139Y-109436381D01*
X147065913Y-109378187D01*
X147008046Y-109352902D01*
X146937330Y-109351313D01*
X146910718Y-109353980D01*
X146847418Y-109368956D01*
X146741892Y-109402600D01*
X146603724Y-109451172D01*
X146442492Y-109510932D01*
X146267780Y-109578140D01*
X146089168Y-109649055D01*
X145916238Y-109719938D01*
X145758570Y-109787049D01*
X145625746Y-109846648D01*
X145534753Y-109891092D01*
X145392958Y-109984877D01*
X145303487Y-110092694D01*
X145263007Y-110219171D01*
X145259778Y-110273035D01*
X145283759Y-110397362D01*
G36*
X145775908Y-108662735D02*
X145812114Y-108782513D01*
X145822817Y-108801921D01*
X145867102Y-108864893D01*
X145916780Y-108910988D01*
X145977280Y-108939493D01*
X146054030Y-108949697D01*
X146152460Y-108940887D01*
X146277998Y-108912352D01*
X146436073Y-108863380D01*
X146632114Y-108793258D01*
X146871550Y-108701276D01*
X147011220Y-108646075D01*
X147200745Y-108570978D01*
X147373050Y-108503223D01*
X147521205Y-108445493D01*
X147638282Y-108400471D01*
X147717351Y-108370841D01*
X147751483Y-108359285D01*
X147752053Y-108359222D01*
X147760264Y-108385443D01*
X147766769Y-108456117D01*
X147770734Y-108559257D01*
X147771555Y-108639607D01*
X147778973Y-108839712D01*
X147803238Y-108990395D01*
X147847370Y-109096956D01*
X147914387Y-109164697D01*
X148007309Y-109198919D01*
X148093975Y-109205783D01*
X148244083Y-109185927D01*
X148360762Y-109123312D01*
X148451821Y-109012990D01*
X148479323Y-108961702D01*
X148505116Y-108903626D01*
X148523536Y-108845392D01*
X148536011Y-108775718D01*
X148543971Y-108683320D01*
X148548842Y-108556917D01*
X148552022Y-108387444D01*
X148552733Y-108224267D01*
X148550415Y-108070374D01*
X148545487Y-107939539D01*
X148538365Y-107845539D01*
X148534804Y-107820261D01*
X148480791Y-107636686D01*
X148394920Y-107495420D01*
X148280419Y-107399180D01*
X148140517Y-107350682D01*
X147979022Y-107352547D01*
X147934127Y-107366033D01*
X147844582Y-107397978D01*
X147717942Y-107445379D01*
X147561759Y-107505231D01*
X147383589Y-107574529D01*
X147190985Y-107650269D01*
X146991501Y-107729447D01*
X146792691Y-107809057D01*
X146602110Y-107886096D01*
X146427311Y-107957558D01*
X146275848Y-108020440D01*
X146155276Y-108071737D01*
X146073148Y-108108444D01*
X146050000Y-108119790D01*
X145952483Y-108190082D01*
X145862526Y-108287065D01*
X145801333Y-108387488D01*
X145797795Y-108396337D01*
X145770605Y-108525418D01*
X145775908Y-108662735D01*
X145775908Y-108662735D01*
G37*
X145775908Y-108662735D02*
X145812114Y-108782513D01*
X145822817Y-108801921D01*
X145867102Y-108864893D01*
X145916780Y-108910988D01*
X145977280Y-108939493D01*
X146054030Y-108949697D01*
X146152460Y-108940887D01*
X146277998Y-108912352D01*
X146436073Y-108863380D01*
X146632114Y-108793258D01*
X146871550Y-108701276D01*
X147011220Y-108646075D01*
X147200745Y-108570978D01*
X147373050Y-108503223D01*
X147521205Y-108445493D01*
X147638282Y-108400471D01*
X147717351Y-108370841D01*
X147751483Y-108359285D01*
X147752053Y-108359222D01*
X147760264Y-108385443D01*
X147766769Y-108456117D01*
X147770734Y-108559257D01*
X147771555Y-108639607D01*
X147778973Y-108839712D01*
X147803238Y-108990395D01*
X147847370Y-109096956D01*
X147914387Y-109164697D01*
X148007309Y-109198919D01*
X148093975Y-109205783D01*
X148244083Y-109185927D01*
X148360762Y-109123312D01*
X148451821Y-109012990D01*
X148479323Y-108961702D01*
X148505116Y-108903626D01*
X148523536Y-108845392D01*
X148536011Y-108775718D01*
X148543971Y-108683320D01*
X148548842Y-108556917D01*
X148552022Y-108387444D01*
X148552733Y-108224267D01*
X148550415Y-108070374D01*
X148545487Y-107939539D01*
X148538365Y-107845539D01*
X148534804Y-107820261D01*
X148480791Y-107636686D01*
X148394920Y-107495420D01*
X148280419Y-107399180D01*
X148140517Y-107350682D01*
X147979022Y-107352547D01*
X147934127Y-107366033D01*
X147844582Y-107397978D01*
X147717942Y-107445379D01*
X147561759Y-107505231D01*
X147383589Y-107574529D01*
X147190985Y-107650269D01*
X146991501Y-107729447D01*
X146792691Y-107809057D01*
X146602110Y-107886096D01*
X146427311Y-107957558D01*
X146275848Y-108020440D01*
X146155276Y-108071737D01*
X146073148Y-108108444D01*
X146050000Y-108119790D01*
X145952483Y-108190082D01*
X145862526Y-108287065D01*
X145801333Y-108387488D01*
X145797795Y-108396337D01*
X145770605Y-108525418D01*
X145775908Y-108662735D01*
G36*
X145737713Y-105018031D02*
X145796904Y-105123336D01*
X145896264Y-105201800D01*
X145923214Y-105214352D01*
X145977455Y-105232024D01*
X146036749Y-105238583D01*
X146108296Y-105232172D01*
X146199298Y-105210936D01*
X146316955Y-105173020D01*
X146468467Y-105116568D01*
X146661034Y-105039725D01*
X146763386Y-104997841D01*
X146995978Y-104902840D01*
X147182528Y-104828294D01*
X147328755Y-104772146D01*
X147440379Y-104732341D01*
X147523120Y-104706825D01*
X147582697Y-104693541D01*
X147619151Y-104690333D01*
X147692027Y-104714052D01*
X147740838Y-104778277D01*
X147765905Y-104872606D01*
X147767546Y-104986640D01*
X147746082Y-105109978D01*
X147701834Y-105232221D01*
X147635120Y-105342968D01*
X147597734Y-105386408D01*
X147554543Y-105422013D01*
X147486055Y-105463788D01*
X147386809Y-105514339D01*
X147251346Y-105576273D01*
X147074205Y-105652196D01*
X146849926Y-105744714D01*
X146831092Y-105752379D01*
X146582537Y-105854695D01*
X146381154Y-105940920D01*
X146221101Y-106014330D01*
X146096531Y-106078201D01*
X146001600Y-106135810D01*
X145930464Y-106190432D01*
X145877278Y-106245343D01*
X145836197Y-106303819D01*
X145830712Y-106313111D01*
X145778536Y-106451213D01*
X145772716Y-106593641D01*
X145811909Y-106725717D01*
X145876691Y-106815995D01*
X145926626Y-106860068D01*
X145979366Y-106890546D01*
X146040917Y-106906323D01*
X146117281Y-106906292D01*
X146214465Y-106889347D01*
X146338470Y-106854383D01*
X146495302Y-106800293D01*
X146690965Y-106725972D01*
X146931462Y-106630312D01*
X146970877Y-106614417D01*
X147160326Y-106537956D01*
X147334080Y-106467892D01*
X147484820Y-106407172D01*
X147605225Y-106358741D01*
X147687976Y-106325547D01*
X147725752Y-106310537D01*
X147725821Y-106310511D01*
X147746421Y-106308527D01*
X147759795Y-106327602D01*
X147767457Y-106376812D01*
X147770925Y-106465236D01*
X147771713Y-106585258D01*
X147777012Y-106788834D01*
X147794968Y-106942424D01*
X147829042Y-107051731D01*
X147882697Y-107122460D01*
X147959393Y-107160314D01*
X148062591Y-107170998D01*
X148125295Y-107167926D01*
X148234695Y-107151296D01*
X148313417Y-107116905D01*
X148368322Y-107072737D01*
X148430341Y-107006983D01*
X148476301Y-106936418D01*
X148508951Y-106850904D01*
X148531041Y-106740303D01*
X148545321Y-106594477D01*
X148554540Y-106403288D01*
X148555210Y-106383666D01*
X148559230Y-106147594D01*
X148553010Y-105960568D01*
X148535416Y-105815930D01*
X148505317Y-105707023D01*
X148461580Y-105627188D01*
X148418873Y-105582155D01*
X148365557Y-105533143D01*
X148337341Y-105499113D01*
X148336000Y-105494833D01*
X148352215Y-105464308D01*
X148393377Y-105406765D01*
X148420164Y-105372515D01*
X148492841Y-105247583D01*
X148533053Y-105116318D01*
X148547671Y-104998136D01*
X148555887Y-104844748D01*
X148557719Y-104675921D01*
X148553181Y-104511426D01*
X148542289Y-104371030D01*
X148532387Y-104304923D01*
X148468267Y-104110633D01*
X148361495Y-103947448D01*
X148217199Y-103821927D01*
X148110451Y-103765603D01*
X148011144Y-103740196D01*
X147874491Y-103734004D01*
X147800007Y-103737076D01*
X147731808Y-103742755D01*
X147664769Y-103752880D01*
X147591294Y-103769963D01*
X147503785Y-103796520D01*
X147394647Y-103835062D01*
X147256282Y-103888105D01*
X147081094Y-103958162D01*
X146862999Y-104047126D01*
X146665936Y-104128738D01*
X146479608Y-104207438D01*
X146312352Y-104279585D01*
X146172505Y-104341540D01*
X146068403Y-104389661D01*
X146008644Y-104420157D01*
X145882267Y-104517695D01*
X145790966Y-104635717D01*
X145735762Y-104764756D01*
X145717671Y-104895349D01*
X145737713Y-105018031D01*
X145737713Y-105018031D01*
G37*
X145737713Y-105018031D02*
X145796904Y-105123336D01*
X145896264Y-105201800D01*
X145923214Y-105214352D01*
X145977455Y-105232024D01*
X146036749Y-105238583D01*
X146108296Y-105232172D01*
X146199298Y-105210936D01*
X146316955Y-105173020D01*
X146468467Y-105116568D01*
X146661034Y-105039725D01*
X146763386Y-104997841D01*
X146995978Y-104902840D01*
X147182528Y-104828294D01*
X147328755Y-104772146D01*
X147440379Y-104732341D01*
X147523120Y-104706825D01*
X147582697Y-104693541D01*
X147619151Y-104690333D01*
X147692027Y-104714052D01*
X147740838Y-104778277D01*
X147765905Y-104872606D01*
X147767546Y-104986640D01*
X147746082Y-105109978D01*
X147701834Y-105232221D01*
X147635120Y-105342968D01*
X147597734Y-105386408D01*
X147554543Y-105422013D01*
X147486055Y-105463788D01*
X147386809Y-105514339D01*
X147251346Y-105576273D01*
X147074205Y-105652196D01*
X146849926Y-105744714D01*
X146831092Y-105752379D01*
X146582537Y-105854695D01*
X146381154Y-105940920D01*
X146221101Y-106014330D01*
X146096531Y-106078201D01*
X146001600Y-106135810D01*
X145930464Y-106190432D01*
X145877278Y-106245343D01*
X145836197Y-106303819D01*
X145830712Y-106313111D01*
X145778536Y-106451213D01*
X145772716Y-106593641D01*
X145811909Y-106725717D01*
X145876691Y-106815995D01*
X145926626Y-106860068D01*
X145979366Y-106890546D01*
X146040917Y-106906323D01*
X146117281Y-106906292D01*
X146214465Y-106889347D01*
X146338470Y-106854383D01*
X146495302Y-106800293D01*
X146690965Y-106725972D01*
X146931462Y-106630312D01*
X146970877Y-106614417D01*
X147160326Y-106537956D01*
X147334080Y-106467892D01*
X147484820Y-106407172D01*
X147605225Y-106358741D01*
X147687976Y-106325547D01*
X147725752Y-106310537D01*
X147725821Y-106310511D01*
X147746421Y-106308527D01*
X147759795Y-106327602D01*
X147767457Y-106376812D01*
X147770925Y-106465236D01*
X147771713Y-106585258D01*
X147777012Y-106788834D01*
X147794968Y-106942424D01*
X147829042Y-107051731D01*
X147882697Y-107122460D01*
X147959393Y-107160314D01*
X148062591Y-107170998D01*
X148125295Y-107167926D01*
X148234695Y-107151296D01*
X148313417Y-107116905D01*
X148368322Y-107072737D01*
X148430341Y-107006983D01*
X148476301Y-106936418D01*
X148508951Y-106850904D01*
X148531041Y-106740303D01*
X148545321Y-106594477D01*
X148554540Y-106403288D01*
X148555210Y-106383666D01*
X148559230Y-106147594D01*
X148553010Y-105960568D01*
X148535416Y-105815930D01*
X148505317Y-105707023D01*
X148461580Y-105627188D01*
X148418873Y-105582155D01*
X148365557Y-105533143D01*
X148337341Y-105499113D01*
X148336000Y-105494833D01*
X148352215Y-105464308D01*
X148393377Y-105406765D01*
X148420164Y-105372515D01*
X148492841Y-105247583D01*
X148533053Y-105116318D01*
X148547671Y-104998136D01*
X148555887Y-104844748D01*
X148557719Y-104675921D01*
X148553181Y-104511426D01*
X148542289Y-104371030D01*
X148532387Y-104304923D01*
X148468267Y-104110633D01*
X148361495Y-103947448D01*
X148217199Y-103821927D01*
X148110451Y-103765603D01*
X148011144Y-103740196D01*
X147874491Y-103734004D01*
X147800007Y-103737076D01*
X147731808Y-103742755D01*
X147664769Y-103752880D01*
X147591294Y-103769963D01*
X147503785Y-103796520D01*
X147394647Y-103835062D01*
X147256282Y-103888105D01*
X147081094Y-103958162D01*
X146862999Y-104047126D01*
X146665936Y-104128738D01*
X146479608Y-104207438D01*
X146312352Y-104279585D01*
X146172505Y-104341540D01*
X146068403Y-104389661D01*
X146008644Y-104420157D01*
X145882267Y-104517695D01*
X145790966Y-104635717D01*
X145735762Y-104764756D01*
X145717671Y-104895349D01*
X145737713Y-105018031D01*
G36*
X145305000Y-99491758D02*
X145367547Y-99582220D01*
X145395141Y-99604277D01*
X145444241Y-99627666D01*
X145513433Y-99642512D01*
X145614635Y-99650370D01*
X145759764Y-99652798D01*
X145766567Y-99652804D01*
X145906159Y-99654859D01*
X146015757Y-99664296D01*
X146109219Y-99686237D01*
X146200404Y-99725809D01*
X146303171Y-99788135D01*
X146431379Y-99878341D01*
X146487444Y-99919373D01*
X146693415Y-100056433D01*
X146905464Y-100171561D01*
X147109986Y-100258311D01*
X147293378Y-100310238D01*
X147323415Y-100315438D01*
X147561113Y-100325489D01*
X147784540Y-100283964D01*
X147988676Y-100194967D01*
X148168501Y-100062604D01*
X148318996Y-99890979D01*
X148435139Y-99684196D01*
X148511911Y-99446361D01*
X148532766Y-99326564D01*
X148543014Y-99216000D01*
X148550522Y-99071579D01*
X148555271Y-98905762D01*
X148557245Y-98731012D01*
X148556427Y-98559790D01*
X148552797Y-98404558D01*
X148546340Y-98277779D01*
X148537038Y-98191914D01*
X148534376Y-98178762D01*
X148484406Y-98046809D01*
X148407817Y-97963381D01*
X148321104Y-97929101D01*
X148160458Y-97923405D01*
X148021695Y-97968960D01*
X147908731Y-98063898D01*
X147849459Y-98154144D01*
X147825835Y-98206868D01*
X147808247Y-98267426D01*
X147795277Y-98346282D01*
X147785510Y-98453898D01*
X147777529Y-98600735D01*
X147772659Y-98721333D01*
X147762049Y-98934211D01*
X147746594Y-99098160D01*
X147724014Y-99220635D01*
X147692030Y-99309093D01*
X147648362Y-99370991D01*
X147590732Y-99413783D01*
X147555932Y-99430361D01*
X147460685Y-99460151D01*
X147365081Y-99465253D01*
X147256721Y-99443606D01*
X147123204Y-99393151D01*
X147007507Y-99339283D01*
X146741444Y-99209345D01*
X146916516Y-99126200D01*
X147081376Y-99026638D01*
X147196536Y-98910211D01*
X147260480Y-98780739D01*
X147271687Y-98642043D01*
X147228642Y-98497944D01*
X147191782Y-98433291D01*
X147105776Y-98350553D01*
X146989777Y-98308352D01*
X146857472Y-98311477D01*
X146848870Y-98313310D01*
X146791893Y-98332758D01*
X146692895Y-98373678D01*
X146560330Y-98432273D01*
X146402649Y-98504748D01*
X146228306Y-98587307D01*
X146098643Y-98650162D01*
X145872594Y-98762290D01*
X145692686Y-98855674D01*
X145553411Y-98934346D01*
X145449264Y-99002338D01*
X145374739Y-99063681D01*
X145324331Y-99122406D01*
X145292533Y-99182547D01*
X145273839Y-99248133D01*
X145272485Y-99255112D01*
X145270905Y-99375869D01*
X145305000Y-99491758D01*
X145305000Y-99491758D01*
G37*
X145305000Y-99491758D02*
X145367547Y-99582220D01*
X145395141Y-99604277D01*
X145444241Y-99627666D01*
X145513433Y-99642512D01*
X145614635Y-99650370D01*
X145759764Y-99652798D01*
X145766567Y-99652804D01*
X145906159Y-99654859D01*
X146015757Y-99664296D01*
X146109219Y-99686237D01*
X146200404Y-99725809D01*
X146303171Y-99788135D01*
X146431379Y-99878341D01*
X146487444Y-99919373D01*
X146693415Y-100056433D01*
X146905464Y-100171561D01*
X147109986Y-100258311D01*
X147293378Y-100310238D01*
X147323415Y-100315438D01*
X147561113Y-100325489D01*
X147784540Y-100283964D01*
X147988676Y-100194967D01*
X148168501Y-100062604D01*
X148318996Y-99890979D01*
X148435139Y-99684196D01*
X148511911Y-99446361D01*
X148532766Y-99326564D01*
X148543014Y-99216000D01*
X148550522Y-99071579D01*
X148555271Y-98905762D01*
X148557245Y-98731012D01*
X148556427Y-98559790D01*
X148552797Y-98404558D01*
X148546340Y-98277779D01*
X148537038Y-98191914D01*
X148534376Y-98178762D01*
X148484406Y-98046809D01*
X148407817Y-97963381D01*
X148321104Y-97929101D01*
X148160458Y-97923405D01*
X148021695Y-97968960D01*
X147908731Y-98063898D01*
X147849459Y-98154144D01*
X147825835Y-98206868D01*
X147808247Y-98267426D01*
X147795277Y-98346282D01*
X147785510Y-98453898D01*
X147777529Y-98600735D01*
X147772659Y-98721333D01*
X147762049Y-98934211D01*
X147746594Y-99098160D01*
X147724014Y-99220635D01*
X147692030Y-99309093D01*
X147648362Y-99370991D01*
X147590732Y-99413783D01*
X147555932Y-99430361D01*
X147460685Y-99460151D01*
X147365081Y-99465253D01*
X147256721Y-99443606D01*
X147123204Y-99393151D01*
X147007507Y-99339283D01*
X146741444Y-99209345D01*
X146916516Y-99126200D01*
X147081376Y-99026638D01*
X147196536Y-98910211D01*
X147260480Y-98780739D01*
X147271687Y-98642043D01*
X147228642Y-98497944D01*
X147191782Y-98433291D01*
X147105776Y-98350553D01*
X146989777Y-98308352D01*
X146857472Y-98311477D01*
X146848870Y-98313310D01*
X146791893Y-98332758D01*
X146692895Y-98373678D01*
X146560330Y-98432273D01*
X146402649Y-98504748D01*
X146228306Y-98587307D01*
X146098643Y-98650162D01*
X145872594Y-98762290D01*
X145692686Y-98855674D01*
X145553411Y-98934346D01*
X145449264Y-99002338D01*
X145374739Y-99063681D01*
X145324331Y-99122406D01*
X145292533Y-99182547D01*
X145273839Y-99248133D01*
X145272485Y-99255112D01*
X145270905Y-99375869D01*
X145305000Y-99491758D01*
G36*
X145720293Y-102429291D02*
X145743851Y-102585058D01*
X145800945Y-102762490D01*
X145895514Y-102940722D01*
X146015082Y-103099507D01*
X146123692Y-103201504D01*
X146265412Y-103295280D01*
X146407944Y-103354656D01*
X146567802Y-103384208D01*
X146761498Y-103388514D01*
X146793883Y-103387292D01*
X147052145Y-103375997D01*
X148674795Y-102723369D01*
X150297444Y-102070742D01*
X150316519Y-102188149D01*
X150327254Y-102281877D01*
X150335077Y-102401454D01*
X150337730Y-102489000D01*
X150353710Y-102661303D01*
X150398147Y-102787244D01*
X150472648Y-102870111D01*
X150540333Y-102903220D01*
X150683284Y-102922931D01*
X150817434Y-102889929D01*
X150935503Y-102807924D01*
X151030209Y-102680628D01*
X151048436Y-102644222D01*
X151067115Y-102596835D01*
X151080814Y-102541370D01*
X151090266Y-102468678D01*
X151096207Y-102369609D01*
X151099370Y-102235016D01*
X151100490Y-102055750D01*
X151100538Y-101995111D01*
X151099870Y-101801458D01*
X151097370Y-101655031D01*
X151092297Y-101546623D01*
X151083908Y-101467024D01*
X151071462Y-101407027D01*
X151054216Y-101357424D01*
X151048002Y-101343208D01*
X150964610Y-101214013D01*
X150852032Y-101132497D01*
X150707345Y-101096847D01*
X150647054Y-101094890D01*
X150599785Y-101097895D01*
X150544790Y-101106966D01*
X150476560Y-101124032D01*
X150389586Y-101151023D01*
X150278360Y-101189866D01*
X150137374Y-101242491D01*
X149961118Y-101310828D01*
X149744084Y-101396804D01*
X149480765Y-101502349D01*
X149462577Y-101509667D01*
X149236352Y-101600422D01*
X149027015Y-101683864D01*
X148840217Y-101757782D01*
X148681612Y-101819961D01*
X148556852Y-101868190D01*
X148471592Y-101900255D01*
X148431483Y-101913943D01*
X148429131Y-101914205D01*
X148435587Y-101886573D01*
X148461008Y-101825043D01*
X148481419Y-101781287D01*
X148535545Y-101607795D01*
X148542940Y-101420786D01*
X148506654Y-101233347D01*
X148429738Y-101058566D01*
X148315241Y-100909529D01*
X148268330Y-100867076D01*
X148138009Y-100770386D01*
X148014269Y-100704696D01*
X147880928Y-100664864D01*
X147721806Y-100645747D01*
X147559889Y-100641923D01*
X147358343Y-100648728D01*
X147315244Y-100654269D01*
X147315244Y-101507660D01*
X147460787Y-101507801D01*
X147583925Y-101544047D01*
X147646095Y-101587335D01*
X147722403Y-101695963D01*
X147756789Y-101832232D01*
X147748331Y-101984984D01*
X147696106Y-102143063D01*
X147692671Y-102150205D01*
X147668590Y-102191824D01*
X147635541Y-102227411D01*
X147584278Y-102262557D01*
X147505555Y-102302856D01*
X147390127Y-102353899D01*
X147278574Y-102400660D01*
X147135999Y-102457688D01*
X147002835Y-102507144D01*
X146892216Y-102544408D01*
X146817274Y-102564859D01*
X146806640Y-102566676D01*
X146736037Y-102570030D01*
X146681160Y-102550659D01*
X146619119Y-102499056D01*
X146601121Y-102481321D01*
X146542073Y-102415967D01*
X146512432Y-102357193D01*
X146502345Y-102279820D01*
X146501555Y-102226900D01*
X146508371Y-102120356D01*
X146535143Y-102034222D01*
X146591356Y-101938360D01*
X146593278Y-101935493D01*
X146704350Y-101803554D01*
X146841849Y-101691571D01*
X146996008Y-101602775D01*
X147157062Y-101540395D01*
X147315244Y-101507660D01*
X147315244Y-100654269D01*
X147184763Y-100671045D01*
X147017969Y-100713605D01*
X146836777Y-100781137D01*
X146731670Y-100826867D01*
X146451553Y-100979336D01*
X146212913Y-101163935D01*
X146017990Y-101376677D01*
X145869026Y-101613571D01*
X145768261Y-101870631D01*
X145717936Y-102143867D01*
X145720293Y-102429291D01*
X145720293Y-102429291D01*
G37*
X145720293Y-102429291D02*
X145743851Y-102585058D01*
X145800945Y-102762490D01*
X145895514Y-102940722D01*
X146015082Y-103099507D01*
X146123692Y-103201504D01*
X146265412Y-103295280D01*
X146407944Y-103354656D01*
X146567802Y-103384208D01*
X146761498Y-103388514D01*
X146793883Y-103387292D01*
X147052145Y-103375997D01*
X148674795Y-102723369D01*
X150297444Y-102070742D01*
X150316519Y-102188149D01*
X150327254Y-102281877D01*
X150335077Y-102401454D01*
X150337730Y-102489000D01*
X150353710Y-102661303D01*
X150398147Y-102787244D01*
X150472648Y-102870111D01*
X150540333Y-102903220D01*
X150683284Y-102922931D01*
X150817434Y-102889929D01*
X150935503Y-102807924D01*
X151030209Y-102680628D01*
X151048436Y-102644222D01*
X151067115Y-102596835D01*
X151080814Y-102541370D01*
X151090266Y-102468678D01*
X151096207Y-102369609D01*
X151099370Y-102235016D01*
X151100490Y-102055750D01*
X151100538Y-101995111D01*
X151099870Y-101801458D01*
X151097370Y-101655031D01*
X151092297Y-101546623D01*
X151083908Y-101467024D01*
X151071462Y-101407027D01*
X151054216Y-101357424D01*
X151048002Y-101343208D01*
X150964610Y-101214013D01*
X150852032Y-101132497D01*
X150707345Y-101096847D01*
X150647054Y-101094890D01*
X150599785Y-101097895D01*
X150544790Y-101106966D01*
X150476560Y-101124032D01*
X150389586Y-101151023D01*
X150278360Y-101189866D01*
X150137374Y-101242491D01*
X149961118Y-101310828D01*
X149744084Y-101396804D01*
X149480765Y-101502349D01*
X149462577Y-101509667D01*
X149236352Y-101600422D01*
X149027015Y-101683864D01*
X148840217Y-101757782D01*
X148681612Y-101819961D01*
X148556852Y-101868190D01*
X148471592Y-101900255D01*
X148431483Y-101913943D01*
X148429131Y-101914205D01*
X148435587Y-101886573D01*
X148461008Y-101825043D01*
X148481419Y-101781287D01*
X148535545Y-101607795D01*
X148542940Y-101420786D01*
X148506654Y-101233347D01*
X148429738Y-101058566D01*
X148315241Y-100909529D01*
X148268330Y-100867076D01*
X148138009Y-100770386D01*
X148014269Y-100704696D01*
X147880928Y-100664864D01*
X147721806Y-100645747D01*
X147559889Y-100641923D01*
X147358343Y-100648728D01*
X147315244Y-100654269D01*
X147315244Y-101507660D01*
X147460787Y-101507801D01*
X147583925Y-101544047D01*
X147646095Y-101587335D01*
X147722403Y-101695963D01*
X147756789Y-101832232D01*
X147748331Y-101984984D01*
X147696106Y-102143063D01*
X147692671Y-102150205D01*
X147668590Y-102191824D01*
X147635541Y-102227411D01*
X147584278Y-102262557D01*
X147505555Y-102302856D01*
X147390127Y-102353899D01*
X147278574Y-102400660D01*
X147135999Y-102457688D01*
X147002835Y-102507144D01*
X146892216Y-102544408D01*
X146817274Y-102564859D01*
X146806640Y-102566676D01*
X146736037Y-102570030D01*
X146681160Y-102550659D01*
X146619119Y-102499056D01*
X146601121Y-102481321D01*
X146542073Y-102415967D01*
X146512432Y-102357193D01*
X146502345Y-102279820D01*
X146501555Y-102226900D01*
X146508371Y-102120356D01*
X146535143Y-102034222D01*
X146591356Y-101938360D01*
X146593278Y-101935493D01*
X146704350Y-101803554D01*
X146841849Y-101691571D01*
X146996008Y-101602775D01*
X147157062Y-101540395D01*
X147315244Y-101507660D01*
X147315244Y-100654269D01*
X147184763Y-100671045D01*
X147017969Y-100713605D01*
X146836777Y-100781137D01*
X146731670Y-100826867D01*
X146451553Y-100979336D01*
X146212913Y-101163935D01*
X146017990Y-101376677D01*
X145869026Y-101613571D01*
X145768261Y-101870631D01*
X145717936Y-102143867D01*
X145720293Y-102429291D01*
G36*
X143570404Y-98412325D02*
X143572553Y-98537572D01*
X143576165Y-98633700D01*
X143581430Y-98706172D01*
X143588538Y-98760453D01*
X143597679Y-98802007D01*
X143609043Y-98836300D01*
X143619617Y-98861622D01*
X143664140Y-98944358D01*
X143717065Y-98991655D01*
X143789815Y-99020279D01*
X143932726Y-99035342D01*
X144074975Y-99000937D01*
X144205173Y-98923014D01*
X144311927Y-98807520D01*
X144360063Y-98722501D01*
X144374544Y-98686204D01*
X144386082Y-98643711D01*
X144395011Y-98588525D01*
X144401667Y-98514150D01*
X144406382Y-98414088D01*
X144409492Y-98281842D01*
X144411330Y-98110917D01*
X144412232Y-97894814D01*
X144412491Y-97703658D01*
X144413111Y-96798871D01*
X145095771Y-96526003D01*
X145279437Y-96453283D01*
X145445430Y-96388884D01*
X145586717Y-96335428D01*
X145696266Y-96295537D01*
X145767042Y-96271831D01*
X145791880Y-96266583D01*
X145798154Y-96298297D01*
X145805670Y-96375335D01*
X145813543Y-96486618D01*
X145820887Y-96621067D01*
X145821830Y-96641274D01*
X145832979Y-96822644D01*
X145849726Y-96956108D01*
X145875553Y-97050163D01*
X145913939Y-97113309D01*
X145968364Y-97154044D01*
X146042309Y-97180865D01*
X146042869Y-97181014D01*
X146199863Y-97195654D01*
X146348434Y-97156789D01*
X146481753Y-97067338D01*
X146579220Y-96951847D01*
X146607671Y-96906699D01*
X146628485Y-96863620D01*
X146643194Y-96812652D01*
X146653331Y-96743838D01*
X146660430Y-96647220D01*
X146666025Y-96512841D01*
X146670889Y-96356526D01*
X146685000Y-95878319D01*
X147672778Y-95476635D01*
X147895106Y-95386741D01*
X148101058Y-95304462D01*
X148284790Y-95232056D01*
X148440458Y-95171783D01*
X148562218Y-95125904D01*
X148644227Y-95096677D01*
X148680639Y-95086363D01*
X148681722Y-95086530D01*
X148685904Y-95116191D01*
X148689817Y-95196848D01*
X148693376Y-95323056D01*
X148696500Y-95489365D01*
X148699105Y-95690330D01*
X148701109Y-95920502D01*
X148702429Y-96174435D01*
X148702983Y-96446681D01*
X148702994Y-96486387D01*
X148703118Y-96803171D01*
X148703556Y-97068448D01*
X148704486Y-97287155D01*
X148706085Y-97464230D01*
X148708532Y-97604610D01*
X148712003Y-97713233D01*
X148716678Y-97795036D01*
X148722732Y-97854956D01*
X148730346Y-97897931D01*
X148739695Y-97928898D01*
X148750958Y-97952795D01*
X148756101Y-97961582D01*
X148840237Y-98051835D01*
X148949184Y-98099695D01*
X149072821Y-98107108D01*
X149201028Y-98076016D01*
X149323683Y-98008365D01*
X149430666Y-97906098D01*
X149487497Y-97821088D01*
X149498139Y-97797204D01*
X149507226Y-97764366D01*
X149514938Y-97717921D01*
X149521457Y-97653218D01*
X149526963Y-97565605D01*
X149531638Y-97450431D01*
X149535661Y-97303043D01*
X149539213Y-97118791D01*
X149542476Y-96893022D01*
X149545630Y-96621085D01*
X149548855Y-96298328D01*
X149549555Y-96224031D01*
X149563667Y-94714506D01*
X150018020Y-94488364D01*
X150177036Y-94407192D01*
X150329391Y-94325753D01*
X150463232Y-94250651D01*
X150566706Y-94188489D01*
X150616406Y-94154966D01*
X150833722Y-93964139D01*
X151030048Y-93735280D01*
X151197812Y-93480533D01*
X151329444Y-93212043D01*
X151417371Y-92941955D01*
X151438595Y-92836275D01*
X151459431Y-92648503D01*
X151465402Y-92448627D01*
X151456879Y-92256784D01*
X151434236Y-92093114D01*
X151424035Y-92049852D01*
X151324798Y-91773372D01*
X151187704Y-91535046D01*
X151015928Y-91337464D01*
X150812646Y-91183220D01*
X150581033Y-91074904D01*
X150324265Y-91015111D01*
X150142222Y-91003485D01*
X150030018Y-91013009D01*
X150030018Y-91995748D01*
X150183027Y-92000973D01*
X150306042Y-92045407D01*
X150414396Y-92134621D01*
X150415514Y-92135818D01*
X150500411Y-92249069D01*
X150548079Y-92374088D01*
X150565072Y-92529311D01*
X150565382Y-92557325D01*
X150559790Y-92677814D01*
X150537990Y-92778361D01*
X150492839Y-92888108D01*
X150475736Y-92923061D01*
X150353533Y-93114083D01*
X150186279Y-93296049D01*
X149985338Y-93457993D01*
X149811841Y-93563722D01*
X149709992Y-93616647D01*
X149627606Y-93657639D01*
X149576880Y-93680713D01*
X149567373Y-93683666D01*
X149560142Y-93657105D01*
X149554853Y-93583990D01*
X149551426Y-93474176D01*
X149549778Y-93337519D01*
X149549828Y-93183872D01*
X149551493Y-93023091D01*
X149554692Y-92865030D01*
X149559342Y-92719544D01*
X149565362Y-92596488D01*
X149572671Y-92505717D01*
X149577442Y-92471879D01*
X149626648Y-92288322D01*
X149697870Y-92153578D01*
X149795758Y-92062755D01*
X149924965Y-92010958D01*
X150030018Y-91995748D01*
X150030018Y-91013009D01*
X149850226Y-91028271D01*
X149585153Y-91102034D01*
X149349446Y-91222894D01*
X149145546Y-91388970D01*
X148975895Y-91598382D01*
X148842935Y-91849248D01*
X148769485Y-92060889D01*
X148755273Y-92121801D01*
X148743481Y-92198032D01*
X148733717Y-92296078D01*
X148725593Y-92422438D01*
X148718719Y-92583610D01*
X148712705Y-92786092D01*
X148707162Y-93036382D01*
X148705375Y-93130310D01*
X148700332Y-93384951D01*
X148695367Y-93588717D01*
X148690123Y-93747176D01*
X148684246Y-93865897D01*
X148677381Y-93950449D01*
X148669174Y-94006398D01*
X148659270Y-94039314D01*
X148647314Y-94054765D01*
X148646444Y-94055305D01*
X148608613Y-94072861D01*
X148526692Y-94107839D01*
X148407829Y-94157359D01*
X148259168Y-94218541D01*
X148087855Y-94288507D01*
X147901038Y-94364376D01*
X147705861Y-94443271D01*
X147509470Y-94522311D01*
X147319013Y-94598617D01*
X147141634Y-94669311D01*
X146984479Y-94731512D01*
X146854694Y-94782343D01*
X146759427Y-94818922D01*
X146705821Y-94838372D01*
X146696990Y-94840777D01*
X146680697Y-94815722D01*
X146671586Y-94753075D01*
X146670889Y-94726982D01*
X146649704Y-94570688D01*
X146588194Y-94450974D01*
X146489427Y-94371209D01*
X146356470Y-94334763D01*
X146312017Y-94332777D01*
X146165626Y-94360162D01*
X146031293Y-94439267D01*
X145923007Y-94556840D01*
X145882395Y-94619361D01*
X145856029Y-94679161D01*
X145839798Y-94752441D01*
X145829592Y-94855403D01*
X145824229Y-94946158D01*
X145810111Y-95216032D01*
X144878778Y-95600459D01*
X144600756Y-95715576D01*
X144370178Y-95812068D01*
X144182107Y-95892344D01*
X144031608Y-95958807D01*
X143913743Y-96013866D01*
X143823577Y-96059926D01*
X143756172Y-96099394D01*
X143706593Y-96134675D01*
X143669902Y-96168176D01*
X143641164Y-96202303D01*
X143639500Y-96204537D01*
X143625302Y-96225344D01*
X143613541Y-96249374D01*
X143603947Y-96281899D01*
X143596251Y-96328190D01*
X143590182Y-96393522D01*
X143585471Y-96483165D01*
X143581847Y-96602392D01*
X143579041Y-96756475D01*
X143576783Y-96950687D01*
X143574803Y-97190299D01*
X143572831Y-97480584D01*
X143572636Y-97510847D01*
X143570834Y-97807218D01*
X143569734Y-98052612D01*
X143569528Y-98252493D01*
X143570404Y-98412325D01*
X143570404Y-98412325D01*
G37*
X143570404Y-98412325D02*
X143572553Y-98537572D01*
X143576165Y-98633700D01*
X143581430Y-98706172D01*
X143588538Y-98760453D01*
X143597679Y-98802007D01*
X143609043Y-98836300D01*
X143619617Y-98861622D01*
X143664140Y-98944358D01*
X143717065Y-98991655D01*
X143789815Y-99020279D01*
X143932726Y-99035342D01*
X144074975Y-99000937D01*
X144205173Y-98923014D01*
X144311927Y-98807520D01*
X144360063Y-98722501D01*
X144374544Y-98686204D01*
X144386082Y-98643711D01*
X144395011Y-98588525D01*
X144401667Y-98514150D01*
X144406382Y-98414088D01*
X144409492Y-98281842D01*
X144411330Y-98110917D01*
X144412232Y-97894814D01*
X144412491Y-97703658D01*
X144413111Y-96798871D01*
X145095771Y-96526003D01*
X145279437Y-96453283D01*
X145445430Y-96388884D01*
X145586717Y-96335428D01*
X145696266Y-96295537D01*
X145767042Y-96271831D01*
X145791880Y-96266583D01*
X145798154Y-96298297D01*
X145805670Y-96375335D01*
X145813543Y-96486618D01*
X145820887Y-96621067D01*
X145821830Y-96641274D01*
X145832979Y-96822644D01*
X145849726Y-96956108D01*
X145875553Y-97050163D01*
X145913939Y-97113309D01*
X145968364Y-97154044D01*
X146042309Y-97180865D01*
X146042869Y-97181014D01*
X146199863Y-97195654D01*
X146348434Y-97156789D01*
X146481753Y-97067338D01*
X146579220Y-96951847D01*
X146607671Y-96906699D01*
X146628485Y-96863620D01*
X146643194Y-96812652D01*
X146653331Y-96743838D01*
X146660430Y-96647220D01*
X146666025Y-96512841D01*
X146670889Y-96356526D01*
X146685000Y-95878319D01*
X147672778Y-95476635D01*
X147895106Y-95386741D01*
X148101058Y-95304462D01*
X148284790Y-95232056D01*
X148440458Y-95171783D01*
X148562218Y-95125904D01*
X148644227Y-95096677D01*
X148680639Y-95086363D01*
X148681722Y-95086530D01*
X148685904Y-95116191D01*
X148689817Y-95196848D01*
X148693376Y-95323056D01*
X148696500Y-95489365D01*
X148699105Y-95690330D01*
X148701109Y-95920502D01*
X148702429Y-96174435D01*
X148702983Y-96446681D01*
X148702994Y-96486387D01*
X148703118Y-96803171D01*
X148703556Y-97068448D01*
X148704486Y-97287155D01*
X148706085Y-97464230D01*
X148708532Y-97604610D01*
X148712003Y-97713233D01*
X148716678Y-97795036D01*
X148722732Y-97854956D01*
X148730346Y-97897931D01*
X148739695Y-97928898D01*
X148750958Y-97952795D01*
X148756101Y-97961582D01*
X148840237Y-98051835D01*
X148949184Y-98099695D01*
X149072821Y-98107108D01*
X149201028Y-98076016D01*
X149323683Y-98008365D01*
X149430666Y-97906098D01*
X149487497Y-97821088D01*
X149498139Y-97797204D01*
X149507226Y-97764366D01*
X149514938Y-97717921D01*
X149521457Y-97653218D01*
X149526963Y-97565605D01*
X149531638Y-97450431D01*
X149535661Y-97303043D01*
X149539213Y-97118791D01*
X149542476Y-96893022D01*
X149545630Y-96621085D01*
X149548855Y-96298328D01*
X149549555Y-96224031D01*
X149563667Y-94714506D01*
X150018020Y-94488364D01*
X150177036Y-94407192D01*
X150329391Y-94325753D01*
X150463232Y-94250651D01*
X150566706Y-94188489D01*
X150616406Y-94154966D01*
X150833722Y-93964139D01*
X151030048Y-93735280D01*
X151197812Y-93480533D01*
X151329444Y-93212043D01*
X151417371Y-92941955D01*
X151438595Y-92836275D01*
X151459431Y-92648503D01*
X151465402Y-92448627D01*
X151456879Y-92256784D01*
X151434236Y-92093114D01*
X151424035Y-92049852D01*
X151324798Y-91773372D01*
X151187704Y-91535046D01*
X151015928Y-91337464D01*
X150812646Y-91183220D01*
X150581033Y-91074904D01*
X150324265Y-91015111D01*
X150142222Y-91003485D01*
X150030018Y-91013009D01*
X150030018Y-91995748D01*
X150183027Y-92000973D01*
X150306042Y-92045407D01*
X150414396Y-92134621D01*
X150415514Y-92135818D01*
X150500411Y-92249069D01*
X150548079Y-92374088D01*
X150565072Y-92529311D01*
X150565382Y-92557325D01*
X150559790Y-92677814D01*
X150537990Y-92778361D01*
X150492839Y-92888108D01*
X150475736Y-92923061D01*
X150353533Y-93114083D01*
X150186279Y-93296049D01*
X149985338Y-93457993D01*
X149811841Y-93563722D01*
X149709992Y-93616647D01*
X149627606Y-93657639D01*
X149576880Y-93680713D01*
X149567373Y-93683666D01*
X149560142Y-93657105D01*
X149554853Y-93583990D01*
X149551426Y-93474176D01*
X149549778Y-93337519D01*
X149549828Y-93183872D01*
X149551493Y-93023091D01*
X149554692Y-92865030D01*
X149559342Y-92719544D01*
X149565362Y-92596488D01*
X149572671Y-92505717D01*
X149577442Y-92471879D01*
X149626648Y-92288322D01*
X149697870Y-92153578D01*
X149795758Y-92062755D01*
X149924965Y-92010958D01*
X150030018Y-91995748D01*
X150030018Y-91013009D01*
X149850226Y-91028271D01*
X149585153Y-91102034D01*
X149349446Y-91222894D01*
X149145546Y-91388970D01*
X148975895Y-91598382D01*
X148842935Y-91849248D01*
X148769485Y-92060889D01*
X148755273Y-92121801D01*
X148743481Y-92198032D01*
X148733717Y-92296078D01*
X148725593Y-92422438D01*
X148718719Y-92583610D01*
X148712705Y-92786092D01*
X148707162Y-93036382D01*
X148705375Y-93130310D01*
X148700332Y-93384951D01*
X148695367Y-93588717D01*
X148690123Y-93747176D01*
X148684246Y-93865897D01*
X148677381Y-93950449D01*
X148669174Y-94006398D01*
X148659270Y-94039314D01*
X148647314Y-94054765D01*
X148646444Y-94055305D01*
X148608613Y-94072861D01*
X148526692Y-94107839D01*
X148407829Y-94157359D01*
X148259168Y-94218541D01*
X148087855Y-94288507D01*
X147901038Y-94364376D01*
X147705861Y-94443271D01*
X147509470Y-94522311D01*
X147319013Y-94598617D01*
X147141634Y-94669311D01*
X146984479Y-94731512D01*
X146854694Y-94782343D01*
X146759427Y-94818922D01*
X146705821Y-94838372D01*
X146696990Y-94840777D01*
X146680697Y-94815722D01*
X146671586Y-94753075D01*
X146670889Y-94726982D01*
X146649704Y-94570688D01*
X146588194Y-94450974D01*
X146489427Y-94371209D01*
X146356470Y-94334763D01*
X146312017Y-94332777D01*
X146165626Y-94360162D01*
X146031293Y-94439267D01*
X145923007Y-94556840D01*
X145882395Y-94619361D01*
X145856029Y-94679161D01*
X145839798Y-94752441D01*
X145829592Y-94855403D01*
X145824229Y-94946158D01*
X145810111Y-95216032D01*
X144878778Y-95600459D01*
X144600756Y-95715576D01*
X144370178Y-95812068D01*
X144182107Y-95892344D01*
X144031608Y-95958807D01*
X143913743Y-96013866D01*
X143823577Y-96059926D01*
X143756172Y-96099394D01*
X143706593Y-96134675D01*
X143669902Y-96168176D01*
X143641164Y-96202303D01*
X143639500Y-96204537D01*
X143625302Y-96225344D01*
X143613541Y-96249374D01*
X143603947Y-96281899D01*
X143596251Y-96328190D01*
X143590182Y-96393522D01*
X143585471Y-96483165D01*
X143581847Y-96602392D01*
X143579041Y-96756475D01*
X143576783Y-96950687D01*
X143574803Y-97190299D01*
X143572831Y-97480584D01*
X143572636Y-97510847D01*
X143570834Y-97807218D01*
X143569734Y-98052612D01*
X143569528Y-98252493D01*
X143570404Y-98412325D01*
G04 #@! TO.C,J3*
D15*
X147925285Y-131068000D02*
X148461000Y-131068000D01*
X148568142Y-131032285D01*
X148639571Y-130960857D01*
X148675285Y-130853714D01*
X148675285Y-130782285D01*
X147925285Y-131353714D02*
X147925285Y-131818000D01*
X148211000Y-131568000D01*
X148211000Y-131675142D01*
X148246714Y-131746571D01*
X148282428Y-131782285D01*
X148353857Y-131818000D01*
X148532428Y-131818000D01*
X148603857Y-131782285D01*
X148639571Y-131746571D01*
X148675285Y-131675142D01*
X148675285Y-131460857D01*
X148639571Y-131389428D01*
X148603857Y-131353714D01*
G04 #@! TD*
M02*
