G04 #@! TF.GenerationSoftware,KiCad,Pcbnew,(5.0.0)*
G04 #@! TF.CreationDate,2020-03-15T13:45:47-04:00*
G04 #@! TF.ProjectId,JTAG_TARGET_PWR,4A5441475F5441524745545F5057522E,rev?*
G04 #@! TF.SameCoordinates,Original*
G04 #@! TF.FileFunction,Profile,NP*
%FSLAX46Y46*%
G04 Gerber Fmt 4.6, Leading zero omitted, Abs format (unit mm)*
G04 Created by KiCad (PCBNEW (5.0.0)) date 03/15/20 13:45:47*
%MOMM*%
%LPD*%
G01*
G04 APERTURE LIST*
%ADD10C,0.150000*%
%ADD11C,0.200000*%
G04 APERTURE END LIST*
D10*
X157630000Y-93030000D02*
X157630000Y-92860000D01*
X157480000Y-92710000D02*
X157630000Y-92860000D01*
X147170000Y-93030000D02*
X147170000Y-92870000D01*
X147320000Y-92720000D02*
X147170000Y-92870000D01*
X147163656Y-93032313D02*
G75*
G03X144780001Y-112394999I5236344J-10472687D01*
G01*
X157636344Y-93032313D02*
G75*
G02X160019999Y-112394999I-5236344J-10472687D01*
G01*
X160020000Y-120015000D02*
X160020000Y-112395000D01*
X160020000Y-123190000D02*
X160020000Y-120015000D01*
X157480000Y-125730000D02*
X160020000Y-123190000D01*
X157480000Y-140970000D02*
X157480000Y-125730000D01*
X156845000Y-141605000D02*
X157480000Y-140970000D01*
X156210000Y-141605000D02*
X156845000Y-141605000D01*
X147955000Y-141605000D02*
X156210000Y-141605000D01*
X147320000Y-140970000D02*
X147955000Y-141605000D01*
X147320000Y-125730000D02*
X147320000Y-140970000D01*
X144780000Y-123190000D02*
X147320000Y-125730000D01*
X144780000Y-112395000D02*
X144780000Y-123190000D01*
X147320000Y-91440000D02*
X147320000Y-92710000D01*
X157480000Y-91440000D02*
X157480000Y-92710000D01*
D11*
X147320000Y-82550000D02*
X147320000Y-91440000D01*
X157480000Y-82550000D02*
X157480000Y-91440000D01*
X147320000Y-82550000D02*
X157480000Y-82550000D01*
M02*
