M48
;DRILL file {KiCad (5.0.0)} date 03/15/20 13:45:54
;FORMAT={-:-/ absolute / metric / decimal}
FMAT,2
METRIC,TZ
T1C0.650
T2C1.000
T3C1.200
%
G90
G05
M71
T1
X149.86Y-85.8
X149.86Y-87.07
X151.13Y-85.8
X151.13Y-87.07
X152.4Y-85.8
X152.4Y-87.07
X153.67Y-85.8
X153.67Y-87.07
X154.94Y-85.8
X154.94Y-87.07
X149.86Y-137.16
X149.86Y-138.43
X151.13Y-137.16
X151.13Y-138.43
X152.4Y-137.16
X152.4Y-138.43
X153.67Y-137.16
X153.67Y-138.43
X154.94Y-137.16
X154.94Y-138.43
X149.86Y-129.54
X149.86Y-130.81
X151.13Y-129.54
X151.13Y-130.81
X152.4Y-129.54
X152.4Y-130.81
X153.67Y-129.54
X153.67Y-130.81
X154.94Y-129.54
X154.94Y-130.81
T2
X148.59Y-120.65
X156.21Y-120.65
T3
X152.4Y-95.25
X152.4Y-114.75
T0
M30
