M48
;DRILL file {KiCad (5.0.0)} date 02/18/20 19:39:18
;FORMAT={-:-/ absolute / metric / decimal}
FMAT,2
METRIC,TZ
T1C0.350
T2C0.880
T3C1.000
T4C1.100
T5C1.200
%
G90
G05
M71
T1
X85.952Y-74.105
X87.676Y-66.876
X92.011Y-72.707
X95.27Y-82.08
X95.27Y-85.077
X95.6Y-74.7
X95.707Y-62.242
X97.498Y-66.864
X98.179Y-67.549
X98.179Y-69.678
X98.44Y-70.777
X99.72Y-80.302
X103.067Y-60.337
X104.267Y-67.31
X104.953Y-80.962
X107.102Y-136.
X107.102Y-146.
X107.251Y-69.723
X107.378Y-70.802
X110.357Y-134.168
X111.95Y-142.3
X112.585Y-67.818
X116.027Y-130.712
X116.225Y-78.068
X116.932Y-90.056
X119.228Y-71.971
X119.253Y-67.564
X121.751Y-135.565
X121.956Y-77.972
X122.238Y-144.907
X122.939Y-70.75
X124.269Y-144.767
X127.509Y-67.577
X127.8Y-110.1
X128.8Y-77.3
X130.128Y-127.357
X130.402Y-75.425
X132.217Y-133.637
X132.398Y-62.628
X134.531Y-138.693
X134.569Y-73.393
X134.874Y-144.771
X137.273Y-59.042
X142.425Y-72.576
X144.619Y-131.522
X145.535Y-65.089
X147.889Y-70.725
X149.Y-62.
X152.048Y-63.3
X152.048Y-70.01
X160.326Y-82.233
X160.906Y-84.519
X166.161Y-59.24
T2
X138.68Y-67.453
X138.68Y-69.993
X141.22Y-67.453
X141.22Y-69.993
X143.76Y-67.453
X143.76Y-69.993
X146.3Y-67.453
X146.3Y-69.993
T3
X138.112Y-141.222
X140.652Y-141.222
X143.192Y-141.222
X145.732Y-141.222
T4
X115.5Y-138.623
X115.5Y-143.123
X122.Y-138.623
X122.Y-143.123
T5
X127.512Y-101.912
X127.512Y-121.412
T0
M30
