G04 #@! TF.GenerationSoftware,KiCad,Pcbnew,(5.0.0)*
G04 #@! TF.CreationDate,2020-02-18T19:39:13-05:00*
G04 #@! TF.ProjectId,WS2812B Tiny T,575332383132422054696E7920542E6B,rev?*
G04 #@! TF.SameCoordinates,Original*
G04 #@! TF.FileFunction,Profile,NP*
%FSLAX46Y46*%
G04 Gerber Fmt 4.6, Leading zero omitted, Abs format (unit mm)*
G04 Created by KiCad (PCBNEW (5.0.0)) date 02/18/20 19:39:13*
%MOMM*%
%LPD*%
G01*
G04 APERTURE LIST*
%ADD10C,0.150000*%
G04 APERTURE END LIST*
D10*
X107442000Y-128714500D02*
X115824000Y-128714500D01*
X105918000Y-150812500D02*
X105918000Y-130238500D01*
X148082000Y-152336500D02*
X107442000Y-152336500D01*
X149352000Y-130238500D02*
X149352000Y-151066500D01*
X139192000Y-128714500D02*
X147828000Y-128714500D01*
X107442000Y-128714500D02*
G75*
G03X105918000Y-130238500I0J-1524000D01*
G01*
X105918000Y-150812500D02*
G75*
G03X107442000Y-152336500I1524000J0D01*
G01*
X148082000Y-152336500D02*
G75*
G03X149352000Y-151066500I0J1270000D01*
G01*
X149352000Y-130238500D02*
G75*
G03X147828000Y-128714500I-1524000J0D01*
G01*
X168656000Y-91122500D02*
X146812000Y-91122500D01*
X170180000Y-58102500D02*
X170180000Y-89598500D01*
X84836000Y-89598500D02*
X84836000Y-57594500D01*
X86360000Y-91122500D02*
X108204000Y-91122500D01*
X168656000Y-91122500D02*
G75*
G03X170180000Y-89598500I0J1524000D01*
G01*
X84836000Y-89598500D02*
G75*
G03X86360000Y-91122500I1524000J0D01*
G01*
X168656000Y-56578500D02*
X85852000Y-56578500D01*
X170180000Y-58102500D02*
G75*
G03X168656000Y-56578500I-1524000J0D01*
G01*
X85852000Y-56578500D02*
G75*
G03X84836000Y-57594500I0J-1016000D01*
G01*
X139192000Y-79692500D02*
X139192000Y-128714500D01*
X146812000Y-79692500D02*
X139192000Y-79692500D01*
X146812000Y-91122500D02*
X146812000Y-79692500D01*
X108204000Y-79692500D02*
X108204000Y-91122500D01*
X115824000Y-79692500D02*
X108204000Y-79692500D01*
X115824000Y-128714500D02*
X115824000Y-79692500D01*
M02*
