G04 #@! TF.GenerationSoftware,KiCad,Pcbnew,(5.0.0)*
G04 #@! TF.CreationDate,2019-03-24T20:36:13-04:00*
G04 #@! TF.ProjectId,WS2812B Tiny T,575332383132422054696E7920542E6B,rev?*
G04 #@! TF.SameCoordinates,Original*
G04 #@! TF.FileFunction,Legend,Top*
G04 #@! TF.FilePolarity,Positive*
%FSLAX46Y46*%
G04 Gerber Fmt 4.6, Leading zero omitted, Abs format (unit mm)*
G04 Created by KiCad (PCBNEW (5.0.0)) date 03/24/19 20:36:13*
%MOMM*%
%LPD*%
G01*
G04 APERTURE LIST*
%ADD10C,0.120000*%
%ADD11C,0.100000*%
%ADD12C,0.150000*%
G04 APERTURE END LIST*
D10*
G04 #@! TO.C,U1*
X93162000Y-89912500D02*
X93162000Y-88912500D01*
X86162000Y-89912500D02*
X93162000Y-89912500D01*
X86162000Y-84712500D02*
X93162000Y-84712500D01*
G04 #@! TO.C,U2*
X86162000Y-75822500D02*
X93162000Y-75822500D01*
X86162000Y-81022500D02*
X93162000Y-81022500D01*
X93162000Y-81022500D02*
X93162000Y-80022500D01*
G04 #@! TO.C,U3*
X93162000Y-72132500D02*
X93162000Y-71132500D01*
X86162000Y-72132500D02*
X93162000Y-72132500D01*
X86162000Y-66932500D02*
X93162000Y-66932500D01*
G04 #@! TO.C,U4*
X86162000Y-58042500D02*
X93162000Y-58042500D01*
X86162000Y-63242500D02*
X93162000Y-63242500D01*
X93162000Y-63242500D02*
X93162000Y-62242500D01*
G04 #@! TO.C,U5*
X104592000Y-63242500D02*
X104592000Y-62242500D01*
X97592000Y-63242500D02*
X104592000Y-63242500D01*
X97592000Y-58042500D02*
X104592000Y-58042500D01*
G04 #@! TO.C,U6*
X109022000Y-58042500D02*
X116022000Y-58042500D01*
X109022000Y-63242500D02*
X116022000Y-63242500D01*
X116022000Y-63242500D02*
X116022000Y-62242500D01*
G04 #@! TO.C,U7*
X126182000Y-63242500D02*
X126182000Y-62242500D01*
X119182000Y-63242500D02*
X126182000Y-63242500D01*
X119182000Y-58042500D02*
X126182000Y-58042500D01*
G04 #@! TO.C,U8*
X129342000Y-58042500D02*
X136342000Y-58042500D01*
X129342000Y-63242500D02*
X136342000Y-63242500D01*
X136342000Y-63242500D02*
X136342000Y-62242500D01*
G04 #@! TO.C,U9*
X146462000Y-63242500D02*
X146462000Y-62242500D01*
X139462000Y-63242500D02*
X146462000Y-63242500D01*
X139462000Y-58042500D02*
X146462000Y-58042500D01*
G04 #@! TO.C,U10*
X150932000Y-58042500D02*
X157932000Y-58042500D01*
X150932000Y-63242500D02*
X157932000Y-63242500D01*
X157932000Y-63242500D02*
X157932000Y-62242500D01*
G04 #@! TO.C,U11*
X168727000Y-63242500D02*
X168727000Y-62242500D01*
X161727000Y-63242500D02*
X168727000Y-63242500D01*
X161727000Y-58042500D02*
X168727000Y-58042500D01*
G04 #@! TO.C,U12*
X161727000Y-66932500D02*
X168727000Y-66932500D01*
X161727000Y-72132500D02*
X168727000Y-72132500D01*
X168727000Y-72132500D02*
X168727000Y-71132500D01*
G04 #@! TO.C,U13*
X168727000Y-81022500D02*
X168727000Y-80022500D01*
X161727000Y-81022500D02*
X168727000Y-81022500D01*
X161727000Y-75822500D02*
X168727000Y-75822500D01*
G04 #@! TO.C,U15*
X148301000Y-84712500D02*
X155301000Y-84712500D01*
X148301000Y-89912500D02*
X155301000Y-89912500D01*
X155301000Y-89912500D02*
X155301000Y-88912500D01*
G04 #@! TO.C,U16*
X155098000Y-78822500D02*
X155098000Y-77822500D01*
X148098000Y-78822500D02*
X155098000Y-78822500D01*
X148098000Y-73622500D02*
X155098000Y-73622500D01*
G04 #@! TO.C,U17*
X139502000Y-73622500D02*
X146502000Y-73622500D01*
X139502000Y-78822500D02*
X146502000Y-78822500D01*
X146502000Y-78822500D02*
X146502000Y-77822500D01*
G04 #@! TO.C,U18*
X137612000Y-78822500D02*
X137612000Y-77822500D01*
X130612000Y-78822500D02*
X137612000Y-78822500D01*
X130612000Y-73622500D02*
X137612000Y-73622500D01*
G04 #@! TO.C,U19*
X130612000Y-82622500D02*
X137612000Y-82622500D01*
X130612000Y-87822500D02*
X137612000Y-87822500D01*
X137612000Y-87822500D02*
X137612000Y-86822500D01*
G04 #@! TO.C,U20*
X137812000Y-97822500D02*
X137812000Y-96822500D01*
X130812000Y-97822500D02*
X137812000Y-97822500D01*
X130812000Y-92622500D02*
X137812000Y-92622500D01*
G04 #@! TO.C,U21*
X137812000Y-107572500D02*
X137812000Y-106572500D01*
X130812000Y-107572500D02*
X137812000Y-107572500D01*
X130812000Y-102372500D02*
X137812000Y-102372500D01*
G04 #@! TO.C,U22*
X130812000Y-112122500D02*
X137812000Y-112122500D01*
X130812000Y-117322500D02*
X137812000Y-117322500D01*
X137812000Y-117322500D02*
X137812000Y-116322500D01*
G04 #@! TO.C,U23*
X137812000Y-127072500D02*
X137812000Y-126072500D01*
X130812000Y-127072500D02*
X137812000Y-127072500D01*
X130812000Y-121872500D02*
X137812000Y-121872500D01*
G04 #@! TO.C,U24*
X130812000Y-130622500D02*
X137812000Y-130622500D01*
X130812000Y-135822500D02*
X137812000Y-135822500D01*
X137812000Y-135822500D02*
X137812000Y-134822500D01*
G04 #@! TO.C,U25*
X147772000Y-135822500D02*
X147772000Y-134822500D01*
X140772000Y-135822500D02*
X147772000Y-135822500D01*
X140772000Y-130622500D02*
X147772000Y-130622500D01*
G04 #@! TO.C,U26*
X141062000Y-146122500D02*
X148062000Y-146122500D01*
X141062000Y-151322500D02*
X148062000Y-151322500D01*
X148062000Y-151322500D02*
X148062000Y-150322500D01*
G04 #@! TO.C,U27*
X137312000Y-151322500D02*
X137312000Y-150322500D01*
X130312000Y-151322500D02*
X137312000Y-151322500D01*
X130312000Y-146122500D02*
X137312000Y-146122500D01*
G04 #@! TO.C,U28*
X117812000Y-146122500D02*
X124812000Y-146122500D01*
X117812000Y-151322500D02*
X124812000Y-151322500D01*
X124812000Y-151322500D02*
X124812000Y-150322500D01*
G04 #@! TO.C,U29*
X114312000Y-151322500D02*
X114312000Y-150322500D01*
X107312000Y-151322500D02*
X114312000Y-151322500D01*
X107312000Y-146122500D02*
X114312000Y-146122500D01*
G04 #@! TO.C,U30*
X107812000Y-130622500D02*
X114812000Y-130622500D01*
X107812000Y-135822500D02*
X114812000Y-135822500D01*
X114812000Y-135822500D02*
X114812000Y-134822500D01*
G04 #@! TO.C,U31*
X124142000Y-135822500D02*
X124142000Y-134822500D01*
X117142000Y-135822500D02*
X124142000Y-135822500D01*
X117142000Y-130622500D02*
X124142000Y-130622500D01*
G04 #@! TO.C,U32*
X117142000Y-121872500D02*
X124142000Y-121872500D01*
X117142000Y-127072500D02*
X124142000Y-127072500D01*
X124142000Y-127072500D02*
X124142000Y-126072500D01*
G04 #@! TO.C,U33*
X124142000Y-117322500D02*
X124142000Y-116322500D01*
X117142000Y-117322500D02*
X124142000Y-117322500D01*
X117142000Y-112122500D02*
X124142000Y-112122500D01*
G04 #@! TO.C,U34*
X117142000Y-102372500D02*
X124142000Y-102372500D01*
X117142000Y-107572500D02*
X124142000Y-107572500D01*
X124142000Y-107572500D02*
X124142000Y-106572500D01*
G04 #@! TO.C,U35*
X124142000Y-97822500D02*
X124142000Y-96822500D01*
X117142000Y-97822500D02*
X124142000Y-97822500D01*
X117142000Y-92622500D02*
X124142000Y-92622500D01*
G04 #@! TO.C,U36*
X117142000Y-82622500D02*
X124142000Y-82622500D01*
X117142000Y-87822500D02*
X124142000Y-87822500D01*
X124142000Y-87822500D02*
X124142000Y-86822500D01*
G04 #@! TO.C,U37*
X124312000Y-78822500D02*
X124312000Y-77822500D01*
X117312000Y-78822500D02*
X124312000Y-78822500D01*
X117312000Y-73622500D02*
X124312000Y-73622500D01*
G04 #@! TO.C,U38*
X108812000Y-73622500D02*
X115812000Y-73622500D01*
X108812000Y-78822500D02*
X115812000Y-78822500D01*
X115812000Y-78822500D02*
X115812000Y-77822500D01*
G04 #@! TO.C,U39*
X107062000Y-78822500D02*
X107062000Y-77822500D01*
X100062000Y-78822500D02*
X107062000Y-78822500D01*
X100062000Y-73622500D02*
X107062000Y-73622500D01*
G04 #@! TO.C,U14*
X168687000Y-89912500D02*
X168687000Y-88912500D01*
X161687000Y-89912500D02*
X168687000Y-89912500D01*
X161687000Y-84712500D02*
X168687000Y-84712500D01*
G04 #@! TO.C,C1*
X116304000Y-69381000D02*
X115304000Y-69381000D01*
X115304000Y-71081000D02*
X116304000Y-71081000D01*
G04 #@! TO.C,C2*
X115240500Y-68414000D02*
X116240500Y-68414000D01*
X116240500Y-66714000D02*
X115240500Y-66714000D01*
G04 #@! TO.C,C3*
X135724000Y-141945500D02*
X135724000Y-140945500D01*
X134024000Y-140945500D02*
X134024000Y-141945500D01*
G04 #@! TO.C,C4*
X126937000Y-73024100D02*
X127937000Y-73024100D01*
X127937000Y-71324100D02*
X126937000Y-71324100D01*
G04 #@! TO.C,C5*
X96020000Y-84403300D02*
X97020000Y-84403300D01*
X97020000Y-82703300D02*
X96020000Y-82703300D01*
G04 #@! TO.C,C6*
X126876000Y-91464500D02*
X127876000Y-91464500D01*
X127876000Y-89764500D02*
X126876000Y-89764500D01*
G04 #@! TO.C,C7*
X158996000Y-82550900D02*
X157996000Y-82550900D01*
X157996000Y-84250900D02*
X158996000Y-84250900D01*
G04 #@! TO.C,C8*
X125337000Y-132938500D02*
X125337000Y-133938500D01*
X127037000Y-133938500D02*
X127037000Y-132938500D01*
G04 #@! TO.C,C9*
X129551000Y-133919500D02*
X129551000Y-132919500D01*
X127851000Y-132919500D02*
X127851000Y-133919500D01*
G04 #@! TO.C,J2*
X136782000Y-142552500D02*
X136782000Y-141222500D01*
X138112000Y-142552500D02*
X136782000Y-142552500D01*
X139382000Y-142552500D02*
X139382000Y-139892500D01*
X139382000Y-139892500D02*
X147062000Y-139892500D01*
X139382000Y-142552500D02*
X147062000Y-142552500D01*
X147062000Y-142552500D02*
X147062000Y-139892500D01*
G04 #@! TO.C,U40*
X107062000Y-89922500D02*
X107062000Y-88922500D01*
X100062000Y-89922500D02*
X107062000Y-89922500D01*
X100062000Y-84722500D02*
X107062000Y-84722500D01*
G04 #@! TO.C,SW1*
X119462000Y-141622500D02*
X119462000Y-140122500D01*
X118212000Y-137622500D02*
X113712000Y-137622500D01*
X112462000Y-140122500D02*
X112462000Y-141622500D01*
X113712000Y-144122500D02*
X118212000Y-144122500D01*
G04 #@! TO.C,U41*
X125478000Y-144391500D02*
X124378000Y-144391500D01*
X125478000Y-144661500D02*
X125478000Y-144391500D01*
X126978000Y-144661500D02*
X125478000Y-144661500D01*
X125478000Y-138031500D02*
X122648000Y-138031500D01*
X125478000Y-137761500D02*
X125478000Y-138031500D01*
X126978000Y-137761500D02*
X125478000Y-137761500D01*
G04 #@! TO.C,J3*
X137350000Y-71323500D02*
X137350000Y-69993500D01*
X138680000Y-71323500D02*
X137350000Y-71323500D01*
X137350000Y-68723500D02*
X137350000Y-66123500D01*
X139950000Y-68723500D02*
X137350000Y-68723500D01*
X139950000Y-71323500D02*
X139950000Y-68723500D01*
X137350000Y-66123500D02*
X147630000Y-66123500D01*
X139950000Y-71323500D02*
X147630000Y-71323500D01*
X147630000Y-71323500D02*
X147630000Y-66123500D01*
G04 #@! TO.C,R1*
X134992000Y-68053700D02*
X134992000Y-69253700D01*
X133232000Y-69253700D02*
X133232000Y-68053700D01*
D11*
G04 #@! TO.C,MCU1*
X102112607Y-71561000D02*
G75*
G03X102112607Y-71561000I-223607J0D01*
G01*
X102030421Y-71561000D02*
G75*
G03X102030421Y-71561000I-141421J0D01*
G01*
X101330421Y-70961000D02*
G75*
G03X101330421Y-70961000I-141421J0D01*
G01*
D12*
X101889000Y-71561000D02*
X101889000Y-71461000D01*
X96189000Y-71561000D02*
X96189000Y-71361000D01*
X96289000Y-66386000D02*
X96289000Y-66531000D01*
X101889000Y-66361000D02*
X101889000Y-66561000D01*
X101889000Y-71561000D02*
X96189000Y-71561000D01*
X101864000Y-66361000D02*
X96289000Y-66361000D01*
D10*
G04 #@! TO.C,Y1*
X111912500Y-70918000D02*
X111912500Y-66918000D01*
X108762500Y-70918000D02*
X111912500Y-70918000D01*
G04 #@! TO.C,U1*
D12*
X88900095Y-83264880D02*
X88900095Y-84074404D01*
X88947714Y-84169642D01*
X88995333Y-84217261D01*
X89090571Y-84264880D01*
X89281047Y-84264880D01*
X89376285Y-84217261D01*
X89423904Y-84169642D01*
X89471523Y-84074404D01*
X89471523Y-83264880D01*
X90471523Y-84264880D02*
X89900095Y-84264880D01*
X90185809Y-84264880D02*
X90185809Y-83264880D01*
X90090571Y-83407738D01*
X89995333Y-83502976D01*
X89900095Y-83550595D01*
G04 #@! TO.C,U2*
X88900095Y-74374880D02*
X88900095Y-75184404D01*
X88947714Y-75279642D01*
X88995333Y-75327261D01*
X89090571Y-75374880D01*
X89281047Y-75374880D01*
X89376285Y-75327261D01*
X89423904Y-75279642D01*
X89471523Y-75184404D01*
X89471523Y-74374880D01*
X89900095Y-74470119D02*
X89947714Y-74422500D01*
X90042952Y-74374880D01*
X90281047Y-74374880D01*
X90376285Y-74422500D01*
X90423904Y-74470119D01*
X90471523Y-74565357D01*
X90471523Y-74660595D01*
X90423904Y-74803452D01*
X89852476Y-75374880D01*
X90471523Y-75374880D01*
G04 #@! TO.C,U3*
X88900095Y-65484880D02*
X88900095Y-66294404D01*
X88947714Y-66389642D01*
X88995333Y-66437261D01*
X89090571Y-66484880D01*
X89281047Y-66484880D01*
X89376285Y-66437261D01*
X89423904Y-66389642D01*
X89471523Y-66294404D01*
X89471523Y-65484880D01*
X89852476Y-65484880D02*
X90471523Y-65484880D01*
X90138190Y-65865833D01*
X90281047Y-65865833D01*
X90376285Y-65913452D01*
X90423904Y-65961071D01*
X90471523Y-66056309D01*
X90471523Y-66294404D01*
X90423904Y-66389642D01*
X90376285Y-66437261D01*
X90281047Y-66484880D01*
X89995333Y-66484880D01*
X89900095Y-66437261D01*
X89852476Y-66389642D01*
G04 #@! TO.C,U4*
X88900095Y-56594880D02*
X88900095Y-57404404D01*
X88947714Y-57499642D01*
X88995333Y-57547261D01*
X89090571Y-57594880D01*
X89281047Y-57594880D01*
X89376285Y-57547261D01*
X89423904Y-57499642D01*
X89471523Y-57404404D01*
X89471523Y-56594880D01*
X90376285Y-56928214D02*
X90376285Y-57594880D01*
X90138190Y-56547261D02*
X89900095Y-57261547D01*
X90519142Y-57261547D01*
G04 #@! TO.C,U5*
X100330095Y-56594880D02*
X100330095Y-57404404D01*
X100377714Y-57499642D01*
X100425333Y-57547261D01*
X100520571Y-57594880D01*
X100711047Y-57594880D01*
X100806285Y-57547261D01*
X100853904Y-57499642D01*
X100901523Y-57404404D01*
X100901523Y-56594880D01*
X101853904Y-56594880D02*
X101377714Y-56594880D01*
X101330095Y-57071071D01*
X101377714Y-57023452D01*
X101472952Y-56975833D01*
X101711047Y-56975833D01*
X101806285Y-57023452D01*
X101853904Y-57071071D01*
X101901523Y-57166309D01*
X101901523Y-57404404D01*
X101853904Y-57499642D01*
X101806285Y-57547261D01*
X101711047Y-57594880D01*
X101472952Y-57594880D01*
X101377714Y-57547261D01*
X101330095Y-57499642D01*
G04 #@! TO.C,U6*
X111760095Y-56594880D02*
X111760095Y-57404404D01*
X111807714Y-57499642D01*
X111855333Y-57547261D01*
X111950571Y-57594880D01*
X112141047Y-57594880D01*
X112236285Y-57547261D01*
X112283904Y-57499642D01*
X112331523Y-57404404D01*
X112331523Y-56594880D01*
X113236285Y-56594880D02*
X113045809Y-56594880D01*
X112950571Y-56642500D01*
X112902952Y-56690119D01*
X112807714Y-56832976D01*
X112760095Y-57023452D01*
X112760095Y-57404404D01*
X112807714Y-57499642D01*
X112855333Y-57547261D01*
X112950571Y-57594880D01*
X113141047Y-57594880D01*
X113236285Y-57547261D01*
X113283904Y-57499642D01*
X113331523Y-57404404D01*
X113331523Y-57166309D01*
X113283904Y-57071071D01*
X113236285Y-57023452D01*
X113141047Y-56975833D01*
X112950571Y-56975833D01*
X112855333Y-57023452D01*
X112807714Y-57071071D01*
X112760095Y-57166309D01*
G04 #@! TO.C,U7*
X121920095Y-56594880D02*
X121920095Y-57404404D01*
X121967714Y-57499642D01*
X122015333Y-57547261D01*
X122110571Y-57594880D01*
X122301047Y-57594880D01*
X122396285Y-57547261D01*
X122443904Y-57499642D01*
X122491523Y-57404404D01*
X122491523Y-56594880D01*
X122872476Y-56594880D02*
X123539142Y-56594880D01*
X123110571Y-57594880D01*
G04 #@! TO.C,U8*
X132080095Y-56594880D02*
X132080095Y-57404404D01*
X132127714Y-57499642D01*
X132175333Y-57547261D01*
X132270571Y-57594880D01*
X132461047Y-57594880D01*
X132556285Y-57547261D01*
X132603904Y-57499642D01*
X132651523Y-57404404D01*
X132651523Y-56594880D01*
X133270571Y-57023452D02*
X133175333Y-56975833D01*
X133127714Y-56928214D01*
X133080095Y-56832976D01*
X133080095Y-56785357D01*
X133127714Y-56690119D01*
X133175333Y-56642500D01*
X133270571Y-56594880D01*
X133461047Y-56594880D01*
X133556285Y-56642500D01*
X133603904Y-56690119D01*
X133651523Y-56785357D01*
X133651523Y-56832976D01*
X133603904Y-56928214D01*
X133556285Y-56975833D01*
X133461047Y-57023452D01*
X133270571Y-57023452D01*
X133175333Y-57071071D01*
X133127714Y-57118690D01*
X133080095Y-57213928D01*
X133080095Y-57404404D01*
X133127714Y-57499642D01*
X133175333Y-57547261D01*
X133270571Y-57594880D01*
X133461047Y-57594880D01*
X133556285Y-57547261D01*
X133603904Y-57499642D01*
X133651523Y-57404404D01*
X133651523Y-57213928D01*
X133603904Y-57118690D01*
X133556285Y-57071071D01*
X133461047Y-57023452D01*
G04 #@! TO.C,U9*
X142200095Y-56594880D02*
X142200095Y-57404404D01*
X142247714Y-57499642D01*
X142295333Y-57547261D01*
X142390571Y-57594880D01*
X142581047Y-57594880D01*
X142676285Y-57547261D01*
X142723904Y-57499642D01*
X142771523Y-57404404D01*
X142771523Y-56594880D01*
X143295333Y-57594880D02*
X143485809Y-57594880D01*
X143581047Y-57547261D01*
X143628666Y-57499642D01*
X143723904Y-57356785D01*
X143771523Y-57166309D01*
X143771523Y-56785357D01*
X143723904Y-56690119D01*
X143676285Y-56642500D01*
X143581047Y-56594880D01*
X143390571Y-56594880D01*
X143295333Y-56642500D01*
X143247714Y-56690119D01*
X143200095Y-56785357D01*
X143200095Y-57023452D01*
X143247714Y-57118690D01*
X143295333Y-57166309D01*
X143390571Y-57213928D01*
X143581047Y-57213928D01*
X143676285Y-57166309D01*
X143723904Y-57118690D01*
X143771523Y-57023452D01*
G04 #@! TO.C,U10*
X153193904Y-56594880D02*
X153193904Y-57404404D01*
X153241523Y-57499642D01*
X153289142Y-57547261D01*
X153384380Y-57594880D01*
X153574857Y-57594880D01*
X153670095Y-57547261D01*
X153717714Y-57499642D01*
X153765333Y-57404404D01*
X153765333Y-56594880D01*
X154765333Y-57594880D02*
X154193904Y-57594880D01*
X154479619Y-57594880D02*
X154479619Y-56594880D01*
X154384380Y-56737738D01*
X154289142Y-56832976D01*
X154193904Y-56880595D01*
X155384380Y-56594880D02*
X155479619Y-56594880D01*
X155574857Y-56642500D01*
X155622476Y-56690119D01*
X155670095Y-56785357D01*
X155717714Y-56975833D01*
X155717714Y-57213928D01*
X155670095Y-57404404D01*
X155622476Y-57499642D01*
X155574857Y-57547261D01*
X155479619Y-57594880D01*
X155384380Y-57594880D01*
X155289142Y-57547261D01*
X155241523Y-57499642D01*
X155193904Y-57404404D01*
X155146285Y-57213928D01*
X155146285Y-56975833D01*
X155193904Y-56785357D01*
X155241523Y-56690119D01*
X155289142Y-56642500D01*
X155384380Y-56594880D01*
G04 #@! TO.C,U11*
X163988904Y-56594880D02*
X163988904Y-57404404D01*
X164036523Y-57499642D01*
X164084142Y-57547261D01*
X164179380Y-57594880D01*
X164369857Y-57594880D01*
X164465095Y-57547261D01*
X164512714Y-57499642D01*
X164560333Y-57404404D01*
X164560333Y-56594880D01*
X165560333Y-57594880D02*
X164988904Y-57594880D01*
X165274619Y-57594880D02*
X165274619Y-56594880D01*
X165179380Y-56737738D01*
X165084142Y-56832976D01*
X164988904Y-56880595D01*
X166512714Y-57594880D02*
X165941285Y-57594880D01*
X166227000Y-57594880D02*
X166227000Y-56594880D01*
X166131761Y-56737738D01*
X166036523Y-56832976D01*
X165941285Y-56880595D01*
G04 #@! TO.C,U12*
X163988904Y-65484880D02*
X163988904Y-66294404D01*
X164036523Y-66389642D01*
X164084142Y-66437261D01*
X164179380Y-66484880D01*
X164369857Y-66484880D01*
X164465095Y-66437261D01*
X164512714Y-66389642D01*
X164560333Y-66294404D01*
X164560333Y-65484880D01*
X165560333Y-66484880D02*
X164988904Y-66484880D01*
X165274619Y-66484880D02*
X165274619Y-65484880D01*
X165179380Y-65627738D01*
X165084142Y-65722976D01*
X164988904Y-65770595D01*
X165941285Y-65580119D02*
X165988904Y-65532500D01*
X166084142Y-65484880D01*
X166322238Y-65484880D01*
X166417476Y-65532500D01*
X166465095Y-65580119D01*
X166512714Y-65675357D01*
X166512714Y-65770595D01*
X166465095Y-65913452D01*
X165893666Y-66484880D01*
X166512714Y-66484880D01*
G04 #@! TO.C,U13*
X163988904Y-74374880D02*
X163988904Y-75184404D01*
X164036523Y-75279642D01*
X164084142Y-75327261D01*
X164179380Y-75374880D01*
X164369857Y-75374880D01*
X164465095Y-75327261D01*
X164512714Y-75279642D01*
X164560333Y-75184404D01*
X164560333Y-74374880D01*
X165560333Y-75374880D02*
X164988904Y-75374880D01*
X165274619Y-75374880D02*
X165274619Y-74374880D01*
X165179380Y-74517738D01*
X165084142Y-74612976D01*
X164988904Y-74660595D01*
X165893666Y-74374880D02*
X166512714Y-74374880D01*
X166179380Y-74755833D01*
X166322238Y-74755833D01*
X166417476Y-74803452D01*
X166465095Y-74851071D01*
X166512714Y-74946309D01*
X166512714Y-75184404D01*
X166465095Y-75279642D01*
X166417476Y-75327261D01*
X166322238Y-75374880D01*
X166036523Y-75374880D01*
X165941285Y-75327261D01*
X165893666Y-75279642D01*
G04 #@! TO.C,U15*
X150562904Y-83264880D02*
X150562904Y-84074404D01*
X150610523Y-84169642D01*
X150658142Y-84217261D01*
X150753380Y-84264880D01*
X150943857Y-84264880D01*
X151039095Y-84217261D01*
X151086714Y-84169642D01*
X151134333Y-84074404D01*
X151134333Y-83264880D01*
X152134333Y-84264880D02*
X151562904Y-84264880D01*
X151848619Y-84264880D02*
X151848619Y-83264880D01*
X151753380Y-83407738D01*
X151658142Y-83502976D01*
X151562904Y-83550595D01*
X153039095Y-83264880D02*
X152562904Y-83264880D01*
X152515285Y-83741071D01*
X152562904Y-83693452D01*
X152658142Y-83645833D01*
X152896238Y-83645833D01*
X152991476Y-83693452D01*
X153039095Y-83741071D01*
X153086714Y-83836309D01*
X153086714Y-84074404D01*
X153039095Y-84169642D01*
X152991476Y-84217261D01*
X152896238Y-84264880D01*
X152658142Y-84264880D01*
X152562904Y-84217261D01*
X152515285Y-84169642D01*
G04 #@! TO.C,U16*
X150359904Y-72174880D02*
X150359904Y-72984404D01*
X150407523Y-73079642D01*
X150455142Y-73127261D01*
X150550380Y-73174880D01*
X150740857Y-73174880D01*
X150836095Y-73127261D01*
X150883714Y-73079642D01*
X150931333Y-72984404D01*
X150931333Y-72174880D01*
X151931333Y-73174880D02*
X151359904Y-73174880D01*
X151645619Y-73174880D02*
X151645619Y-72174880D01*
X151550380Y-72317738D01*
X151455142Y-72412976D01*
X151359904Y-72460595D01*
X152788476Y-72174880D02*
X152598000Y-72174880D01*
X152502761Y-72222500D01*
X152455142Y-72270119D01*
X152359904Y-72412976D01*
X152312285Y-72603452D01*
X152312285Y-72984404D01*
X152359904Y-73079642D01*
X152407523Y-73127261D01*
X152502761Y-73174880D01*
X152693238Y-73174880D01*
X152788476Y-73127261D01*
X152836095Y-73079642D01*
X152883714Y-72984404D01*
X152883714Y-72746309D01*
X152836095Y-72651071D01*
X152788476Y-72603452D01*
X152693238Y-72555833D01*
X152502761Y-72555833D01*
X152407523Y-72603452D01*
X152359904Y-72651071D01*
X152312285Y-72746309D01*
G04 #@! TO.C,U17*
X141763904Y-72174880D02*
X141763904Y-72984404D01*
X141811523Y-73079642D01*
X141859142Y-73127261D01*
X141954380Y-73174880D01*
X142144857Y-73174880D01*
X142240095Y-73127261D01*
X142287714Y-73079642D01*
X142335333Y-72984404D01*
X142335333Y-72174880D01*
X143335333Y-73174880D02*
X142763904Y-73174880D01*
X143049619Y-73174880D02*
X143049619Y-72174880D01*
X142954380Y-72317738D01*
X142859142Y-72412976D01*
X142763904Y-72460595D01*
X143668666Y-72174880D02*
X144335333Y-72174880D01*
X143906761Y-73174880D01*
G04 #@! TO.C,U18*
X132873904Y-72174880D02*
X132873904Y-72984404D01*
X132921523Y-73079642D01*
X132969142Y-73127261D01*
X133064380Y-73174880D01*
X133254857Y-73174880D01*
X133350095Y-73127261D01*
X133397714Y-73079642D01*
X133445333Y-72984404D01*
X133445333Y-72174880D01*
X134445333Y-73174880D02*
X133873904Y-73174880D01*
X134159619Y-73174880D02*
X134159619Y-72174880D01*
X134064380Y-72317738D01*
X133969142Y-72412976D01*
X133873904Y-72460595D01*
X135016761Y-72603452D02*
X134921523Y-72555833D01*
X134873904Y-72508214D01*
X134826285Y-72412976D01*
X134826285Y-72365357D01*
X134873904Y-72270119D01*
X134921523Y-72222500D01*
X135016761Y-72174880D01*
X135207238Y-72174880D01*
X135302476Y-72222500D01*
X135350095Y-72270119D01*
X135397714Y-72365357D01*
X135397714Y-72412976D01*
X135350095Y-72508214D01*
X135302476Y-72555833D01*
X135207238Y-72603452D01*
X135016761Y-72603452D01*
X134921523Y-72651071D01*
X134873904Y-72698690D01*
X134826285Y-72793928D01*
X134826285Y-72984404D01*
X134873904Y-73079642D01*
X134921523Y-73127261D01*
X135016761Y-73174880D01*
X135207238Y-73174880D01*
X135302476Y-73127261D01*
X135350095Y-73079642D01*
X135397714Y-72984404D01*
X135397714Y-72793928D01*
X135350095Y-72698690D01*
X135302476Y-72651071D01*
X135207238Y-72603452D01*
G04 #@! TO.C,U19*
X132873904Y-81174880D02*
X132873904Y-81984404D01*
X132921523Y-82079642D01*
X132969142Y-82127261D01*
X133064380Y-82174880D01*
X133254857Y-82174880D01*
X133350095Y-82127261D01*
X133397714Y-82079642D01*
X133445333Y-81984404D01*
X133445333Y-81174880D01*
X134445333Y-82174880D02*
X133873904Y-82174880D01*
X134159619Y-82174880D02*
X134159619Y-81174880D01*
X134064380Y-81317738D01*
X133969142Y-81412976D01*
X133873904Y-81460595D01*
X134921523Y-82174880D02*
X135112000Y-82174880D01*
X135207238Y-82127261D01*
X135254857Y-82079642D01*
X135350095Y-81936785D01*
X135397714Y-81746309D01*
X135397714Y-81365357D01*
X135350095Y-81270119D01*
X135302476Y-81222500D01*
X135207238Y-81174880D01*
X135016761Y-81174880D01*
X134921523Y-81222500D01*
X134873904Y-81270119D01*
X134826285Y-81365357D01*
X134826285Y-81603452D01*
X134873904Y-81698690D01*
X134921523Y-81746309D01*
X135016761Y-81793928D01*
X135207238Y-81793928D01*
X135302476Y-81746309D01*
X135350095Y-81698690D01*
X135397714Y-81603452D01*
G04 #@! TO.C,U20*
X133073904Y-91174880D02*
X133073904Y-91984404D01*
X133121523Y-92079642D01*
X133169142Y-92127261D01*
X133264380Y-92174880D01*
X133454857Y-92174880D01*
X133550095Y-92127261D01*
X133597714Y-92079642D01*
X133645333Y-91984404D01*
X133645333Y-91174880D01*
X134073904Y-91270119D02*
X134121523Y-91222500D01*
X134216761Y-91174880D01*
X134454857Y-91174880D01*
X134550095Y-91222500D01*
X134597714Y-91270119D01*
X134645333Y-91365357D01*
X134645333Y-91460595D01*
X134597714Y-91603452D01*
X134026285Y-92174880D01*
X134645333Y-92174880D01*
X135264380Y-91174880D02*
X135359619Y-91174880D01*
X135454857Y-91222500D01*
X135502476Y-91270119D01*
X135550095Y-91365357D01*
X135597714Y-91555833D01*
X135597714Y-91793928D01*
X135550095Y-91984404D01*
X135502476Y-92079642D01*
X135454857Y-92127261D01*
X135359619Y-92174880D01*
X135264380Y-92174880D01*
X135169142Y-92127261D01*
X135121523Y-92079642D01*
X135073904Y-91984404D01*
X135026285Y-91793928D01*
X135026285Y-91555833D01*
X135073904Y-91365357D01*
X135121523Y-91270119D01*
X135169142Y-91222500D01*
X135264380Y-91174880D01*
G04 #@! TO.C,U21*
X133073904Y-100924880D02*
X133073904Y-101734404D01*
X133121523Y-101829642D01*
X133169142Y-101877261D01*
X133264380Y-101924880D01*
X133454857Y-101924880D01*
X133550095Y-101877261D01*
X133597714Y-101829642D01*
X133645333Y-101734404D01*
X133645333Y-100924880D01*
X134073904Y-101020119D02*
X134121523Y-100972500D01*
X134216761Y-100924880D01*
X134454857Y-100924880D01*
X134550095Y-100972500D01*
X134597714Y-101020119D01*
X134645333Y-101115357D01*
X134645333Y-101210595D01*
X134597714Y-101353452D01*
X134026285Y-101924880D01*
X134645333Y-101924880D01*
X135597714Y-101924880D02*
X135026285Y-101924880D01*
X135312000Y-101924880D02*
X135312000Y-100924880D01*
X135216761Y-101067738D01*
X135121523Y-101162976D01*
X135026285Y-101210595D01*
G04 #@! TO.C,U22*
X133073904Y-110674880D02*
X133073904Y-111484404D01*
X133121523Y-111579642D01*
X133169142Y-111627261D01*
X133264380Y-111674880D01*
X133454857Y-111674880D01*
X133550095Y-111627261D01*
X133597714Y-111579642D01*
X133645333Y-111484404D01*
X133645333Y-110674880D01*
X134073904Y-110770119D02*
X134121523Y-110722500D01*
X134216761Y-110674880D01*
X134454857Y-110674880D01*
X134550095Y-110722500D01*
X134597714Y-110770119D01*
X134645333Y-110865357D01*
X134645333Y-110960595D01*
X134597714Y-111103452D01*
X134026285Y-111674880D01*
X134645333Y-111674880D01*
X135026285Y-110770119D02*
X135073904Y-110722500D01*
X135169142Y-110674880D01*
X135407238Y-110674880D01*
X135502476Y-110722500D01*
X135550095Y-110770119D01*
X135597714Y-110865357D01*
X135597714Y-110960595D01*
X135550095Y-111103452D01*
X134978666Y-111674880D01*
X135597714Y-111674880D01*
G04 #@! TO.C,U23*
X133073904Y-120424880D02*
X133073904Y-121234404D01*
X133121523Y-121329642D01*
X133169142Y-121377261D01*
X133264380Y-121424880D01*
X133454857Y-121424880D01*
X133550095Y-121377261D01*
X133597714Y-121329642D01*
X133645333Y-121234404D01*
X133645333Y-120424880D01*
X134073904Y-120520119D02*
X134121523Y-120472500D01*
X134216761Y-120424880D01*
X134454857Y-120424880D01*
X134550095Y-120472500D01*
X134597714Y-120520119D01*
X134645333Y-120615357D01*
X134645333Y-120710595D01*
X134597714Y-120853452D01*
X134026285Y-121424880D01*
X134645333Y-121424880D01*
X134978666Y-120424880D02*
X135597714Y-120424880D01*
X135264380Y-120805833D01*
X135407238Y-120805833D01*
X135502476Y-120853452D01*
X135550095Y-120901071D01*
X135597714Y-120996309D01*
X135597714Y-121234404D01*
X135550095Y-121329642D01*
X135502476Y-121377261D01*
X135407238Y-121424880D01*
X135121523Y-121424880D01*
X135026285Y-121377261D01*
X134978666Y-121329642D01*
G04 #@! TO.C,U24*
X133073904Y-129174880D02*
X133073904Y-129984404D01*
X133121523Y-130079642D01*
X133169142Y-130127261D01*
X133264380Y-130174880D01*
X133454857Y-130174880D01*
X133550095Y-130127261D01*
X133597714Y-130079642D01*
X133645333Y-129984404D01*
X133645333Y-129174880D01*
X134073904Y-129270119D02*
X134121523Y-129222500D01*
X134216761Y-129174880D01*
X134454857Y-129174880D01*
X134550095Y-129222500D01*
X134597714Y-129270119D01*
X134645333Y-129365357D01*
X134645333Y-129460595D01*
X134597714Y-129603452D01*
X134026285Y-130174880D01*
X134645333Y-130174880D01*
X135502476Y-129508214D02*
X135502476Y-130174880D01*
X135264380Y-129127261D02*
X135026285Y-129841547D01*
X135645333Y-129841547D01*
G04 #@! TO.C,U25*
X143033904Y-129174880D02*
X143033904Y-129984404D01*
X143081523Y-130079642D01*
X143129142Y-130127261D01*
X143224380Y-130174880D01*
X143414857Y-130174880D01*
X143510095Y-130127261D01*
X143557714Y-130079642D01*
X143605333Y-129984404D01*
X143605333Y-129174880D01*
X144033904Y-129270119D02*
X144081523Y-129222500D01*
X144176761Y-129174880D01*
X144414857Y-129174880D01*
X144510095Y-129222500D01*
X144557714Y-129270119D01*
X144605333Y-129365357D01*
X144605333Y-129460595D01*
X144557714Y-129603452D01*
X143986285Y-130174880D01*
X144605333Y-130174880D01*
X145510095Y-129174880D02*
X145033904Y-129174880D01*
X144986285Y-129651071D01*
X145033904Y-129603452D01*
X145129142Y-129555833D01*
X145367238Y-129555833D01*
X145462476Y-129603452D01*
X145510095Y-129651071D01*
X145557714Y-129746309D01*
X145557714Y-129984404D01*
X145510095Y-130079642D01*
X145462476Y-130127261D01*
X145367238Y-130174880D01*
X145129142Y-130174880D01*
X145033904Y-130127261D01*
X144986285Y-130079642D01*
G04 #@! TO.C,U26*
X143323904Y-144674880D02*
X143323904Y-145484404D01*
X143371523Y-145579642D01*
X143419142Y-145627261D01*
X143514380Y-145674880D01*
X143704857Y-145674880D01*
X143800095Y-145627261D01*
X143847714Y-145579642D01*
X143895333Y-145484404D01*
X143895333Y-144674880D01*
X144323904Y-144770119D02*
X144371523Y-144722500D01*
X144466761Y-144674880D01*
X144704857Y-144674880D01*
X144800095Y-144722500D01*
X144847714Y-144770119D01*
X144895333Y-144865357D01*
X144895333Y-144960595D01*
X144847714Y-145103452D01*
X144276285Y-145674880D01*
X144895333Y-145674880D01*
X145752476Y-144674880D02*
X145562000Y-144674880D01*
X145466761Y-144722500D01*
X145419142Y-144770119D01*
X145323904Y-144912976D01*
X145276285Y-145103452D01*
X145276285Y-145484404D01*
X145323904Y-145579642D01*
X145371523Y-145627261D01*
X145466761Y-145674880D01*
X145657238Y-145674880D01*
X145752476Y-145627261D01*
X145800095Y-145579642D01*
X145847714Y-145484404D01*
X145847714Y-145246309D01*
X145800095Y-145151071D01*
X145752476Y-145103452D01*
X145657238Y-145055833D01*
X145466761Y-145055833D01*
X145371523Y-145103452D01*
X145323904Y-145151071D01*
X145276285Y-145246309D01*
G04 #@! TO.C,U27*
X132573904Y-144674880D02*
X132573904Y-145484404D01*
X132621523Y-145579642D01*
X132669142Y-145627261D01*
X132764380Y-145674880D01*
X132954857Y-145674880D01*
X133050095Y-145627261D01*
X133097714Y-145579642D01*
X133145333Y-145484404D01*
X133145333Y-144674880D01*
X133573904Y-144770119D02*
X133621523Y-144722500D01*
X133716761Y-144674880D01*
X133954857Y-144674880D01*
X134050095Y-144722500D01*
X134097714Y-144770119D01*
X134145333Y-144865357D01*
X134145333Y-144960595D01*
X134097714Y-145103452D01*
X133526285Y-145674880D01*
X134145333Y-145674880D01*
X134478666Y-144674880D02*
X135145333Y-144674880D01*
X134716761Y-145674880D01*
G04 #@! TO.C,U28*
X120073904Y-144674880D02*
X120073904Y-145484404D01*
X120121523Y-145579642D01*
X120169142Y-145627261D01*
X120264380Y-145674880D01*
X120454857Y-145674880D01*
X120550095Y-145627261D01*
X120597714Y-145579642D01*
X120645333Y-145484404D01*
X120645333Y-144674880D01*
X121073904Y-144770119D02*
X121121523Y-144722500D01*
X121216761Y-144674880D01*
X121454857Y-144674880D01*
X121550095Y-144722500D01*
X121597714Y-144770119D01*
X121645333Y-144865357D01*
X121645333Y-144960595D01*
X121597714Y-145103452D01*
X121026285Y-145674880D01*
X121645333Y-145674880D01*
X122216761Y-145103452D02*
X122121523Y-145055833D01*
X122073904Y-145008214D01*
X122026285Y-144912976D01*
X122026285Y-144865357D01*
X122073904Y-144770119D01*
X122121523Y-144722500D01*
X122216761Y-144674880D01*
X122407238Y-144674880D01*
X122502476Y-144722500D01*
X122550095Y-144770119D01*
X122597714Y-144865357D01*
X122597714Y-144912976D01*
X122550095Y-145008214D01*
X122502476Y-145055833D01*
X122407238Y-145103452D01*
X122216761Y-145103452D01*
X122121523Y-145151071D01*
X122073904Y-145198690D01*
X122026285Y-145293928D01*
X122026285Y-145484404D01*
X122073904Y-145579642D01*
X122121523Y-145627261D01*
X122216761Y-145674880D01*
X122407238Y-145674880D01*
X122502476Y-145627261D01*
X122550095Y-145579642D01*
X122597714Y-145484404D01*
X122597714Y-145293928D01*
X122550095Y-145198690D01*
X122502476Y-145151071D01*
X122407238Y-145103452D01*
G04 #@! TO.C,U29*
X109573904Y-144674880D02*
X109573904Y-145484404D01*
X109621523Y-145579642D01*
X109669142Y-145627261D01*
X109764380Y-145674880D01*
X109954857Y-145674880D01*
X110050095Y-145627261D01*
X110097714Y-145579642D01*
X110145333Y-145484404D01*
X110145333Y-144674880D01*
X110573904Y-144770119D02*
X110621523Y-144722500D01*
X110716761Y-144674880D01*
X110954857Y-144674880D01*
X111050095Y-144722500D01*
X111097714Y-144770119D01*
X111145333Y-144865357D01*
X111145333Y-144960595D01*
X111097714Y-145103452D01*
X110526285Y-145674880D01*
X111145333Y-145674880D01*
X111621523Y-145674880D02*
X111812000Y-145674880D01*
X111907238Y-145627261D01*
X111954857Y-145579642D01*
X112050095Y-145436785D01*
X112097714Y-145246309D01*
X112097714Y-144865357D01*
X112050095Y-144770119D01*
X112002476Y-144722500D01*
X111907238Y-144674880D01*
X111716761Y-144674880D01*
X111621523Y-144722500D01*
X111573904Y-144770119D01*
X111526285Y-144865357D01*
X111526285Y-145103452D01*
X111573904Y-145198690D01*
X111621523Y-145246309D01*
X111716761Y-145293928D01*
X111907238Y-145293928D01*
X112002476Y-145246309D01*
X112050095Y-145198690D01*
X112097714Y-145103452D01*
G04 #@! TO.C,U30*
X110073904Y-129174880D02*
X110073904Y-129984404D01*
X110121523Y-130079642D01*
X110169142Y-130127261D01*
X110264380Y-130174880D01*
X110454857Y-130174880D01*
X110550095Y-130127261D01*
X110597714Y-130079642D01*
X110645333Y-129984404D01*
X110645333Y-129174880D01*
X111026285Y-129174880D02*
X111645333Y-129174880D01*
X111312000Y-129555833D01*
X111454857Y-129555833D01*
X111550095Y-129603452D01*
X111597714Y-129651071D01*
X111645333Y-129746309D01*
X111645333Y-129984404D01*
X111597714Y-130079642D01*
X111550095Y-130127261D01*
X111454857Y-130174880D01*
X111169142Y-130174880D01*
X111073904Y-130127261D01*
X111026285Y-130079642D01*
X112264380Y-129174880D02*
X112359619Y-129174880D01*
X112454857Y-129222500D01*
X112502476Y-129270119D01*
X112550095Y-129365357D01*
X112597714Y-129555833D01*
X112597714Y-129793928D01*
X112550095Y-129984404D01*
X112502476Y-130079642D01*
X112454857Y-130127261D01*
X112359619Y-130174880D01*
X112264380Y-130174880D01*
X112169142Y-130127261D01*
X112121523Y-130079642D01*
X112073904Y-129984404D01*
X112026285Y-129793928D01*
X112026285Y-129555833D01*
X112073904Y-129365357D01*
X112121523Y-129270119D01*
X112169142Y-129222500D01*
X112264380Y-129174880D01*
G04 #@! TO.C,U31*
X119403904Y-129174880D02*
X119403904Y-129984404D01*
X119451523Y-130079642D01*
X119499142Y-130127261D01*
X119594380Y-130174880D01*
X119784857Y-130174880D01*
X119880095Y-130127261D01*
X119927714Y-130079642D01*
X119975333Y-129984404D01*
X119975333Y-129174880D01*
X120356285Y-129174880D02*
X120975333Y-129174880D01*
X120642000Y-129555833D01*
X120784857Y-129555833D01*
X120880095Y-129603452D01*
X120927714Y-129651071D01*
X120975333Y-129746309D01*
X120975333Y-129984404D01*
X120927714Y-130079642D01*
X120880095Y-130127261D01*
X120784857Y-130174880D01*
X120499142Y-130174880D01*
X120403904Y-130127261D01*
X120356285Y-130079642D01*
X121927714Y-130174880D02*
X121356285Y-130174880D01*
X121642000Y-130174880D02*
X121642000Y-129174880D01*
X121546761Y-129317738D01*
X121451523Y-129412976D01*
X121356285Y-129460595D01*
G04 #@! TO.C,U32*
X119403904Y-120424880D02*
X119403904Y-121234404D01*
X119451523Y-121329642D01*
X119499142Y-121377261D01*
X119594380Y-121424880D01*
X119784857Y-121424880D01*
X119880095Y-121377261D01*
X119927714Y-121329642D01*
X119975333Y-121234404D01*
X119975333Y-120424880D01*
X120356285Y-120424880D02*
X120975333Y-120424880D01*
X120642000Y-120805833D01*
X120784857Y-120805833D01*
X120880095Y-120853452D01*
X120927714Y-120901071D01*
X120975333Y-120996309D01*
X120975333Y-121234404D01*
X120927714Y-121329642D01*
X120880095Y-121377261D01*
X120784857Y-121424880D01*
X120499142Y-121424880D01*
X120403904Y-121377261D01*
X120356285Y-121329642D01*
X121356285Y-120520119D02*
X121403904Y-120472500D01*
X121499142Y-120424880D01*
X121737238Y-120424880D01*
X121832476Y-120472500D01*
X121880095Y-120520119D01*
X121927714Y-120615357D01*
X121927714Y-120710595D01*
X121880095Y-120853452D01*
X121308666Y-121424880D01*
X121927714Y-121424880D01*
G04 #@! TO.C,U33*
X119403904Y-110674880D02*
X119403904Y-111484404D01*
X119451523Y-111579642D01*
X119499142Y-111627261D01*
X119594380Y-111674880D01*
X119784857Y-111674880D01*
X119880095Y-111627261D01*
X119927714Y-111579642D01*
X119975333Y-111484404D01*
X119975333Y-110674880D01*
X120356285Y-110674880D02*
X120975333Y-110674880D01*
X120642000Y-111055833D01*
X120784857Y-111055833D01*
X120880095Y-111103452D01*
X120927714Y-111151071D01*
X120975333Y-111246309D01*
X120975333Y-111484404D01*
X120927714Y-111579642D01*
X120880095Y-111627261D01*
X120784857Y-111674880D01*
X120499142Y-111674880D01*
X120403904Y-111627261D01*
X120356285Y-111579642D01*
X121308666Y-110674880D02*
X121927714Y-110674880D01*
X121594380Y-111055833D01*
X121737238Y-111055833D01*
X121832476Y-111103452D01*
X121880095Y-111151071D01*
X121927714Y-111246309D01*
X121927714Y-111484404D01*
X121880095Y-111579642D01*
X121832476Y-111627261D01*
X121737238Y-111674880D01*
X121451523Y-111674880D01*
X121356285Y-111627261D01*
X121308666Y-111579642D01*
G04 #@! TO.C,U34*
X119403904Y-100924880D02*
X119403904Y-101734404D01*
X119451523Y-101829642D01*
X119499142Y-101877261D01*
X119594380Y-101924880D01*
X119784857Y-101924880D01*
X119880095Y-101877261D01*
X119927714Y-101829642D01*
X119975333Y-101734404D01*
X119975333Y-100924880D01*
X120356285Y-100924880D02*
X120975333Y-100924880D01*
X120642000Y-101305833D01*
X120784857Y-101305833D01*
X120880095Y-101353452D01*
X120927714Y-101401071D01*
X120975333Y-101496309D01*
X120975333Y-101734404D01*
X120927714Y-101829642D01*
X120880095Y-101877261D01*
X120784857Y-101924880D01*
X120499142Y-101924880D01*
X120403904Y-101877261D01*
X120356285Y-101829642D01*
X121832476Y-101258214D02*
X121832476Y-101924880D01*
X121594380Y-100877261D02*
X121356285Y-101591547D01*
X121975333Y-101591547D01*
G04 #@! TO.C,U35*
X119403904Y-91174880D02*
X119403904Y-91984404D01*
X119451523Y-92079642D01*
X119499142Y-92127261D01*
X119594380Y-92174880D01*
X119784857Y-92174880D01*
X119880095Y-92127261D01*
X119927714Y-92079642D01*
X119975333Y-91984404D01*
X119975333Y-91174880D01*
X120356285Y-91174880D02*
X120975333Y-91174880D01*
X120642000Y-91555833D01*
X120784857Y-91555833D01*
X120880095Y-91603452D01*
X120927714Y-91651071D01*
X120975333Y-91746309D01*
X120975333Y-91984404D01*
X120927714Y-92079642D01*
X120880095Y-92127261D01*
X120784857Y-92174880D01*
X120499142Y-92174880D01*
X120403904Y-92127261D01*
X120356285Y-92079642D01*
X121880095Y-91174880D02*
X121403904Y-91174880D01*
X121356285Y-91651071D01*
X121403904Y-91603452D01*
X121499142Y-91555833D01*
X121737238Y-91555833D01*
X121832476Y-91603452D01*
X121880095Y-91651071D01*
X121927714Y-91746309D01*
X121927714Y-91984404D01*
X121880095Y-92079642D01*
X121832476Y-92127261D01*
X121737238Y-92174880D01*
X121499142Y-92174880D01*
X121403904Y-92127261D01*
X121356285Y-92079642D01*
G04 #@! TO.C,U36*
X119403904Y-81174880D02*
X119403904Y-81984404D01*
X119451523Y-82079642D01*
X119499142Y-82127261D01*
X119594380Y-82174880D01*
X119784857Y-82174880D01*
X119880095Y-82127261D01*
X119927714Y-82079642D01*
X119975333Y-81984404D01*
X119975333Y-81174880D01*
X120356285Y-81174880D02*
X120975333Y-81174880D01*
X120642000Y-81555833D01*
X120784857Y-81555833D01*
X120880095Y-81603452D01*
X120927714Y-81651071D01*
X120975333Y-81746309D01*
X120975333Y-81984404D01*
X120927714Y-82079642D01*
X120880095Y-82127261D01*
X120784857Y-82174880D01*
X120499142Y-82174880D01*
X120403904Y-82127261D01*
X120356285Y-82079642D01*
X121832476Y-81174880D02*
X121642000Y-81174880D01*
X121546761Y-81222500D01*
X121499142Y-81270119D01*
X121403904Y-81412976D01*
X121356285Y-81603452D01*
X121356285Y-81984404D01*
X121403904Y-82079642D01*
X121451523Y-82127261D01*
X121546761Y-82174880D01*
X121737238Y-82174880D01*
X121832476Y-82127261D01*
X121880095Y-82079642D01*
X121927714Y-81984404D01*
X121927714Y-81746309D01*
X121880095Y-81651071D01*
X121832476Y-81603452D01*
X121737238Y-81555833D01*
X121546761Y-81555833D01*
X121451523Y-81603452D01*
X121403904Y-81651071D01*
X121356285Y-81746309D01*
G04 #@! TO.C,U37*
X119573904Y-72174880D02*
X119573904Y-72984404D01*
X119621523Y-73079642D01*
X119669142Y-73127261D01*
X119764380Y-73174880D01*
X119954857Y-73174880D01*
X120050095Y-73127261D01*
X120097714Y-73079642D01*
X120145333Y-72984404D01*
X120145333Y-72174880D01*
X120526285Y-72174880D02*
X121145333Y-72174880D01*
X120812000Y-72555833D01*
X120954857Y-72555833D01*
X121050095Y-72603452D01*
X121097714Y-72651071D01*
X121145333Y-72746309D01*
X121145333Y-72984404D01*
X121097714Y-73079642D01*
X121050095Y-73127261D01*
X120954857Y-73174880D01*
X120669142Y-73174880D01*
X120573904Y-73127261D01*
X120526285Y-73079642D01*
X121478666Y-72174880D02*
X122145333Y-72174880D01*
X121716761Y-73174880D01*
G04 #@! TO.C,U38*
X111073904Y-72174880D02*
X111073904Y-72984404D01*
X111121523Y-73079642D01*
X111169142Y-73127261D01*
X111264380Y-73174880D01*
X111454857Y-73174880D01*
X111550095Y-73127261D01*
X111597714Y-73079642D01*
X111645333Y-72984404D01*
X111645333Y-72174880D01*
X112026285Y-72174880D02*
X112645333Y-72174880D01*
X112312000Y-72555833D01*
X112454857Y-72555833D01*
X112550095Y-72603452D01*
X112597714Y-72651071D01*
X112645333Y-72746309D01*
X112645333Y-72984404D01*
X112597714Y-73079642D01*
X112550095Y-73127261D01*
X112454857Y-73174880D01*
X112169142Y-73174880D01*
X112073904Y-73127261D01*
X112026285Y-73079642D01*
X113216761Y-72603452D02*
X113121523Y-72555833D01*
X113073904Y-72508214D01*
X113026285Y-72412976D01*
X113026285Y-72365357D01*
X113073904Y-72270119D01*
X113121523Y-72222500D01*
X113216761Y-72174880D01*
X113407238Y-72174880D01*
X113502476Y-72222500D01*
X113550095Y-72270119D01*
X113597714Y-72365357D01*
X113597714Y-72412976D01*
X113550095Y-72508214D01*
X113502476Y-72555833D01*
X113407238Y-72603452D01*
X113216761Y-72603452D01*
X113121523Y-72651071D01*
X113073904Y-72698690D01*
X113026285Y-72793928D01*
X113026285Y-72984404D01*
X113073904Y-73079642D01*
X113121523Y-73127261D01*
X113216761Y-73174880D01*
X113407238Y-73174880D01*
X113502476Y-73127261D01*
X113550095Y-73079642D01*
X113597714Y-72984404D01*
X113597714Y-72793928D01*
X113550095Y-72698690D01*
X113502476Y-72651071D01*
X113407238Y-72603452D01*
G04 #@! TO.C,U39*
X102323904Y-72174880D02*
X102323904Y-72984404D01*
X102371523Y-73079642D01*
X102419142Y-73127261D01*
X102514380Y-73174880D01*
X102704857Y-73174880D01*
X102800095Y-73127261D01*
X102847714Y-73079642D01*
X102895333Y-72984404D01*
X102895333Y-72174880D01*
X103276285Y-72174880D02*
X103895333Y-72174880D01*
X103562000Y-72555833D01*
X103704857Y-72555833D01*
X103800095Y-72603452D01*
X103847714Y-72651071D01*
X103895333Y-72746309D01*
X103895333Y-72984404D01*
X103847714Y-73079642D01*
X103800095Y-73127261D01*
X103704857Y-73174880D01*
X103419142Y-73174880D01*
X103323904Y-73127261D01*
X103276285Y-73079642D01*
X104371523Y-73174880D02*
X104562000Y-73174880D01*
X104657238Y-73127261D01*
X104704857Y-73079642D01*
X104800095Y-72936785D01*
X104847714Y-72746309D01*
X104847714Y-72365357D01*
X104800095Y-72270119D01*
X104752476Y-72222500D01*
X104657238Y-72174880D01*
X104466761Y-72174880D01*
X104371523Y-72222500D01*
X104323904Y-72270119D01*
X104276285Y-72365357D01*
X104276285Y-72603452D01*
X104323904Y-72698690D01*
X104371523Y-72746309D01*
X104466761Y-72793928D01*
X104657238Y-72793928D01*
X104752476Y-72746309D01*
X104800095Y-72698690D01*
X104847714Y-72603452D01*
G04 #@! TO.C,U14*
X163948904Y-83264880D02*
X163948904Y-84074404D01*
X163996523Y-84169642D01*
X164044142Y-84217261D01*
X164139380Y-84264880D01*
X164329857Y-84264880D01*
X164425095Y-84217261D01*
X164472714Y-84169642D01*
X164520333Y-84074404D01*
X164520333Y-83264880D01*
X165520333Y-84264880D02*
X164948904Y-84264880D01*
X165234619Y-84264880D02*
X165234619Y-83264880D01*
X165139380Y-83407738D01*
X165044142Y-83502976D01*
X164948904Y-83550595D01*
X166377476Y-83598214D02*
X166377476Y-84264880D01*
X166139380Y-83217261D02*
X165901285Y-83931547D01*
X166520333Y-83931547D01*
G04 #@! TO.C,C1*
X119201733Y-70621742D02*
X119154114Y-70669361D01*
X119011257Y-70716980D01*
X118916019Y-70716980D01*
X118773161Y-70669361D01*
X118677923Y-70574123D01*
X118630304Y-70478885D01*
X118582685Y-70288409D01*
X118582685Y-70145552D01*
X118630304Y-69955076D01*
X118677923Y-69859838D01*
X118773161Y-69764600D01*
X118916019Y-69716980D01*
X119011257Y-69716980D01*
X119154114Y-69764600D01*
X119201733Y-69812219D01*
X120154114Y-70716980D02*
X119582685Y-70716980D01*
X119868400Y-70716980D02*
X119868400Y-69716980D01*
X119773161Y-69859838D01*
X119677923Y-69955076D01*
X119582685Y-70002695D01*
G04 #@! TO.C,C2*
X119138233Y-67914742D02*
X119090614Y-67962361D01*
X118947757Y-68009980D01*
X118852519Y-68009980D01*
X118709661Y-67962361D01*
X118614423Y-67867123D01*
X118566804Y-67771885D01*
X118519185Y-67581409D01*
X118519185Y-67438552D01*
X118566804Y-67248076D01*
X118614423Y-67152838D01*
X118709661Y-67057600D01*
X118852519Y-67009980D01*
X118947757Y-67009980D01*
X119090614Y-67057600D01*
X119138233Y-67105219D01*
X119519185Y-67105219D02*
X119566804Y-67057600D01*
X119662042Y-67009980D01*
X119900138Y-67009980D01*
X119995376Y-67057600D01*
X120042995Y-67105219D01*
X120090614Y-67200457D01*
X120090614Y-67295695D01*
X120042995Y-67438552D01*
X119471566Y-68009980D01*
X120090614Y-68009980D01*
G04 #@! TO.C,C3*
X135231142Y-138279366D02*
X135278761Y-138326985D01*
X135326380Y-138469842D01*
X135326380Y-138565080D01*
X135278761Y-138707938D01*
X135183523Y-138803176D01*
X135088285Y-138850795D01*
X134897809Y-138898414D01*
X134754952Y-138898414D01*
X134564476Y-138850795D01*
X134469238Y-138803176D01*
X134374000Y-138707938D01*
X134326380Y-138565080D01*
X134326380Y-138469842D01*
X134374000Y-138326985D01*
X134421619Y-138279366D01*
X134326380Y-137946033D02*
X134326380Y-137326985D01*
X134707333Y-137660319D01*
X134707333Y-137517461D01*
X134754952Y-137422223D01*
X134802571Y-137374604D01*
X134897809Y-137326985D01*
X135135904Y-137326985D01*
X135231142Y-137374604D01*
X135278761Y-137422223D01*
X135326380Y-137517461D01*
X135326380Y-137803176D01*
X135278761Y-137898414D01*
X135231142Y-137946033D01*
G04 #@! TO.C,C4*
X130795533Y-72531242D02*
X130747914Y-72578861D01*
X130605057Y-72626480D01*
X130509819Y-72626480D01*
X130366961Y-72578861D01*
X130271723Y-72483623D01*
X130224104Y-72388385D01*
X130176485Y-72197909D01*
X130176485Y-72055052D01*
X130224104Y-71864576D01*
X130271723Y-71769338D01*
X130366961Y-71674100D01*
X130509819Y-71626480D01*
X130605057Y-71626480D01*
X130747914Y-71674100D01*
X130795533Y-71721719D01*
X131652676Y-71959814D02*
X131652676Y-72626480D01*
X131414580Y-71578861D02*
X131176485Y-72293147D01*
X131795533Y-72293147D01*
G04 #@! TO.C,C5*
X96353333Y-82160442D02*
X96305714Y-82208061D01*
X96162857Y-82255680D01*
X96067619Y-82255680D01*
X95924761Y-82208061D01*
X95829523Y-82112823D01*
X95781904Y-82017585D01*
X95734285Y-81827109D01*
X95734285Y-81684252D01*
X95781904Y-81493776D01*
X95829523Y-81398538D01*
X95924761Y-81303300D01*
X96067619Y-81255680D01*
X96162857Y-81255680D01*
X96305714Y-81303300D01*
X96353333Y-81350919D01*
X97258095Y-81255680D02*
X96781904Y-81255680D01*
X96734285Y-81731871D01*
X96781904Y-81684252D01*
X96877142Y-81636633D01*
X97115238Y-81636633D01*
X97210476Y-81684252D01*
X97258095Y-81731871D01*
X97305714Y-81827109D01*
X97305714Y-82065204D01*
X97258095Y-82160442D01*
X97210476Y-82208061D01*
X97115238Y-82255680D01*
X96877142Y-82255680D01*
X96781904Y-82208061D01*
X96734285Y-82160442D01*
G04 #@! TO.C,C6*
X127209333Y-92721642D02*
X127161714Y-92769261D01*
X127018857Y-92816880D01*
X126923619Y-92816880D01*
X126780761Y-92769261D01*
X126685523Y-92674023D01*
X126637904Y-92578785D01*
X126590285Y-92388309D01*
X126590285Y-92245452D01*
X126637904Y-92054976D01*
X126685523Y-91959738D01*
X126780761Y-91864500D01*
X126923619Y-91816880D01*
X127018857Y-91816880D01*
X127161714Y-91864500D01*
X127209333Y-91912119D01*
X128066476Y-91816880D02*
X127876000Y-91816880D01*
X127780761Y-91864500D01*
X127733142Y-91912119D01*
X127637904Y-92054976D01*
X127590285Y-92245452D01*
X127590285Y-92626404D01*
X127637904Y-92721642D01*
X127685523Y-92769261D01*
X127780761Y-92816880D01*
X127971238Y-92816880D01*
X128066476Y-92769261D01*
X128114095Y-92721642D01*
X128161714Y-92626404D01*
X128161714Y-92388309D01*
X128114095Y-92293071D01*
X128066476Y-92245452D01*
X127971238Y-92197833D01*
X127780761Y-92197833D01*
X127685523Y-92245452D01*
X127637904Y-92293071D01*
X127590285Y-92388309D01*
G04 #@! TO.C,C7*
X158298533Y-81726042D02*
X158250914Y-81773661D01*
X158108057Y-81821280D01*
X158012819Y-81821280D01*
X157869961Y-81773661D01*
X157774723Y-81678423D01*
X157727104Y-81583185D01*
X157679485Y-81392709D01*
X157679485Y-81249852D01*
X157727104Y-81059376D01*
X157774723Y-80964138D01*
X157869961Y-80868900D01*
X158012819Y-80821280D01*
X158108057Y-80821280D01*
X158250914Y-80868900D01*
X158298533Y-80916519D01*
X158631866Y-80821280D02*
X159298533Y-80821280D01*
X158869961Y-81821280D01*
G04 #@! TO.C,C8*
X126645742Y-130201566D02*
X126693361Y-130249185D01*
X126740980Y-130392042D01*
X126740980Y-130487280D01*
X126693361Y-130630138D01*
X126598123Y-130725376D01*
X126502885Y-130772995D01*
X126312409Y-130820614D01*
X126169552Y-130820614D01*
X125979076Y-130772995D01*
X125883838Y-130725376D01*
X125788600Y-130630138D01*
X125740980Y-130487280D01*
X125740980Y-130392042D01*
X125788600Y-130249185D01*
X125836219Y-130201566D01*
X126169552Y-129630138D02*
X126121933Y-129725376D01*
X126074314Y-129772995D01*
X125979076Y-129820614D01*
X125931457Y-129820614D01*
X125836219Y-129772995D01*
X125788600Y-129725376D01*
X125740980Y-129630138D01*
X125740980Y-129439661D01*
X125788600Y-129344423D01*
X125836219Y-129296804D01*
X125931457Y-129249185D01*
X125979076Y-129249185D01*
X126074314Y-129296804D01*
X126121933Y-129344423D01*
X126169552Y-129439661D01*
X126169552Y-129630138D01*
X126217171Y-129725376D01*
X126264790Y-129772995D01*
X126360028Y-129820614D01*
X126550504Y-129820614D01*
X126645742Y-129772995D01*
X126693361Y-129725376D01*
X126740980Y-129630138D01*
X126740980Y-129439661D01*
X126693361Y-129344423D01*
X126645742Y-129296804D01*
X126550504Y-129249185D01*
X126360028Y-129249185D01*
X126264790Y-129296804D01*
X126217171Y-129344423D01*
X126169552Y-129439661D01*
G04 #@! TO.C,C9*
X128982941Y-130150767D02*
X129030560Y-130198386D01*
X129078179Y-130341243D01*
X129078179Y-130436481D01*
X129030560Y-130579339D01*
X128935322Y-130674577D01*
X128840084Y-130722196D01*
X128649608Y-130769815D01*
X128506751Y-130769815D01*
X128316275Y-130722196D01*
X128221037Y-130674577D01*
X128125799Y-130579339D01*
X128078179Y-130436481D01*
X128078179Y-130341243D01*
X128125799Y-130198386D01*
X128173418Y-130150767D01*
X129078179Y-129674577D02*
X129078179Y-129484101D01*
X129030560Y-129388862D01*
X128982941Y-129341243D01*
X128840084Y-129246005D01*
X128649608Y-129198386D01*
X128268656Y-129198386D01*
X128173418Y-129246005D01*
X128125799Y-129293624D01*
X128078179Y-129388862D01*
X128078179Y-129579339D01*
X128125799Y-129674577D01*
X128173418Y-129722196D01*
X128268656Y-129769815D01*
X128506751Y-129769815D01*
X128601989Y-129722196D01*
X128649608Y-129674577D01*
X128697227Y-129579339D01*
X128697227Y-129388862D01*
X128649608Y-129293624D01*
X128601989Y-129246005D01*
X128506751Y-129198386D01*
G04 #@! TO.C,J2*
X145978666Y-138274880D02*
X145978666Y-138989166D01*
X145931047Y-139132023D01*
X145835809Y-139227261D01*
X145692952Y-139274880D01*
X145597714Y-139274880D01*
X146407238Y-138370119D02*
X146454857Y-138322500D01*
X146550095Y-138274880D01*
X146788190Y-138274880D01*
X146883428Y-138322500D01*
X146931047Y-138370119D01*
X146978666Y-138465357D01*
X146978666Y-138560595D01*
X146931047Y-138703452D01*
X146359619Y-139274880D01*
X146978666Y-139274880D01*
G04 #@! TO.C,U40*
X102323904Y-83274880D02*
X102323904Y-84084404D01*
X102371523Y-84179642D01*
X102419142Y-84227261D01*
X102514380Y-84274880D01*
X102704857Y-84274880D01*
X102800095Y-84227261D01*
X102847714Y-84179642D01*
X102895333Y-84084404D01*
X102895333Y-83274880D01*
X103800095Y-83608214D02*
X103800095Y-84274880D01*
X103562000Y-83227261D02*
X103323904Y-83941547D01*
X103942952Y-83941547D01*
X104514380Y-83274880D02*
X104609619Y-83274880D01*
X104704857Y-83322500D01*
X104752476Y-83370119D01*
X104800095Y-83465357D01*
X104847714Y-83655833D01*
X104847714Y-83893928D01*
X104800095Y-84084404D01*
X104752476Y-84179642D01*
X104704857Y-84227261D01*
X104609619Y-84274880D01*
X104514380Y-84274880D01*
X104419142Y-84227261D01*
X104371523Y-84179642D01*
X104323904Y-84084404D01*
X104276285Y-83893928D01*
X104276285Y-83655833D01*
X104323904Y-83465357D01*
X104371523Y-83370119D01*
X104419142Y-83322500D01*
X104514380Y-83274880D01*
G04 #@! TO.C,SW1*
X110916761Y-142155833D02*
X110964380Y-142012976D01*
X110964380Y-141774880D01*
X110916761Y-141679642D01*
X110869142Y-141632023D01*
X110773904Y-141584404D01*
X110678666Y-141584404D01*
X110583428Y-141632023D01*
X110535809Y-141679642D01*
X110488190Y-141774880D01*
X110440571Y-141965357D01*
X110392952Y-142060595D01*
X110345333Y-142108214D01*
X110250095Y-142155833D01*
X110154857Y-142155833D01*
X110059619Y-142108214D01*
X110012000Y-142060595D01*
X109964380Y-141965357D01*
X109964380Y-141727261D01*
X110012000Y-141584404D01*
X109964380Y-141251071D02*
X110964380Y-141012976D01*
X110250095Y-140822500D01*
X110964380Y-140632023D01*
X109964380Y-140393928D01*
X110964380Y-139489166D02*
X110964380Y-140060595D01*
X110964380Y-139774880D02*
X109964380Y-139774880D01*
X110107238Y-139870119D01*
X110202476Y-139965357D01*
X110250095Y-140060595D01*
G04 #@! TO.C,U41*
X126709904Y-136163880D02*
X126709904Y-136973404D01*
X126757523Y-137068642D01*
X126805142Y-137116261D01*
X126900380Y-137163880D01*
X127090857Y-137163880D01*
X127186095Y-137116261D01*
X127233714Y-137068642D01*
X127281333Y-136973404D01*
X127281333Y-136163880D01*
X128186095Y-136497214D02*
X128186095Y-137163880D01*
X127948000Y-136116261D02*
X127709904Y-136830547D01*
X128328952Y-136830547D01*
X129233714Y-137163880D02*
X128662285Y-137163880D01*
X128948000Y-137163880D02*
X128948000Y-136163880D01*
X128852761Y-136306738D01*
X128757523Y-136401976D01*
X128662285Y-136449595D01*
G04 #@! TO.C,J3*
X148764465Y-66140081D02*
X148764465Y-66854367D01*
X148716846Y-66997224D01*
X148621608Y-67092462D01*
X148478751Y-67140081D01*
X148383513Y-67140081D01*
X149145418Y-66140081D02*
X149764465Y-66140081D01*
X149431132Y-66521034D01*
X149573989Y-66521034D01*
X149669227Y-66568653D01*
X149716846Y-66616272D01*
X149764465Y-66711510D01*
X149764465Y-66949605D01*
X149716846Y-67044843D01*
X149669227Y-67092462D01*
X149573989Y-67140081D01*
X149288275Y-67140081D01*
X149193037Y-67092462D01*
X149145418Y-67044843D01*
G04 #@! TO.C,R1*
X133945333Y-66632080D02*
X133612000Y-66155890D01*
X133373904Y-66632080D02*
X133373904Y-65632080D01*
X133754857Y-65632080D01*
X133850095Y-65679700D01*
X133897714Y-65727319D01*
X133945333Y-65822557D01*
X133945333Y-65965414D01*
X133897714Y-66060652D01*
X133850095Y-66108271D01*
X133754857Y-66155890D01*
X133373904Y-66155890D01*
X134897714Y-66632080D02*
X134326285Y-66632080D01*
X134612000Y-66632080D02*
X134612000Y-65632080D01*
X134516761Y-65774938D01*
X134421523Y-65870176D01*
X134326285Y-65917795D01*
G04 #@! TO.C,MCU1*
X97255666Y-72813380D02*
X97255666Y-71813380D01*
X97589000Y-72527666D01*
X97922333Y-71813380D01*
X97922333Y-72813380D01*
X98969952Y-72718142D02*
X98922333Y-72765761D01*
X98779476Y-72813380D01*
X98684238Y-72813380D01*
X98541380Y-72765761D01*
X98446142Y-72670523D01*
X98398523Y-72575285D01*
X98350904Y-72384809D01*
X98350904Y-72241952D01*
X98398523Y-72051476D01*
X98446142Y-71956238D01*
X98541380Y-71861000D01*
X98684238Y-71813380D01*
X98779476Y-71813380D01*
X98922333Y-71861000D01*
X98969952Y-71908619D01*
X99398523Y-71813380D02*
X99398523Y-72622904D01*
X99446142Y-72718142D01*
X99493761Y-72765761D01*
X99589000Y-72813380D01*
X99779476Y-72813380D01*
X99874714Y-72765761D01*
X99922333Y-72718142D01*
X99969952Y-72622904D01*
X99969952Y-71813380D01*
X100969952Y-72813380D02*
X100398523Y-72813380D01*
X100684238Y-72813380D02*
X100684238Y-71813380D01*
X100589000Y-71956238D01*
X100493761Y-72051476D01*
X100398523Y-72099095D01*
G04 #@! TO.C,Y1*
X107863690Y-69394190D02*
X108339880Y-69394190D01*
X107339880Y-69727523D02*
X107863690Y-69394190D01*
X107339880Y-69060857D01*
X108339880Y-68203714D02*
X108339880Y-68775142D01*
X108339880Y-68489428D02*
X107339880Y-68489428D01*
X107482738Y-68584666D01*
X107577976Y-68679904D01*
X107625595Y-68775142D01*
G04 #@! TD*
M02*
