G04 #@! TF.GenerationSoftware,KiCad,Pcbnew,(5.0.0)*
G04 #@! TF.CreationDate,2019-03-24T20:36:13-04:00*
G04 #@! TF.ProjectId,WS2812B Tiny T,575332383132422054696E7920542E6B,rev?*
G04 #@! TF.SameCoordinates,Original*
G04 #@! TF.FileFunction,Other,Fab,Bot*
%FSLAX46Y46*%
G04 Gerber Fmt 4.6, Leading zero omitted, Abs format (unit mm)*
G04 Created by KiCad (PCBNEW (5.0.0)) date 03/24/19 20:36:13*
%MOMM*%
%LPD*%
G01*
G04 APERTURE LIST*
%ADD10C,0.150000*%
G04 APERTURE END LIST*
G04 #@! TO.C,J1*
D10*
X131250095Y-114269142D02*
X131297714Y-114316761D01*
X131440571Y-114364380D01*
X131535809Y-114364380D01*
X131678666Y-114316761D01*
X131773904Y-114221523D01*
X131821523Y-114126285D01*
X131869142Y-113935809D01*
X131869142Y-113792952D01*
X131821523Y-113602476D01*
X131773904Y-113507238D01*
X131678666Y-113412000D01*
X131535809Y-113364380D01*
X131440571Y-113364380D01*
X131297714Y-113412000D01*
X131250095Y-113459619D01*
X130678666Y-114364380D02*
X130773904Y-114316761D01*
X130821523Y-114269142D01*
X130869142Y-114173904D01*
X130869142Y-113888190D01*
X130821523Y-113792952D01*
X130773904Y-113745333D01*
X130678666Y-113697714D01*
X130535809Y-113697714D01*
X130440571Y-113745333D01*
X130392952Y-113792952D01*
X130345333Y-113888190D01*
X130345333Y-114173904D01*
X130392952Y-114269142D01*
X130440571Y-114316761D01*
X130535809Y-114364380D01*
X130678666Y-114364380D01*
X129916761Y-113697714D02*
X129916761Y-114364380D01*
X129916761Y-113792952D02*
X129869142Y-113745333D01*
X129773904Y-113697714D01*
X129631047Y-113697714D01*
X129535809Y-113745333D01*
X129488190Y-113840571D01*
X129488190Y-114364380D01*
X129012000Y-113697714D02*
X129012000Y-114364380D01*
X129012000Y-113792952D02*
X128964380Y-113745333D01*
X128869142Y-113697714D01*
X128726285Y-113697714D01*
X128631047Y-113745333D01*
X128583428Y-113840571D01*
X128583428Y-114364380D01*
X128345333Y-114459619D02*
X127583428Y-114459619D01*
X127154857Y-113364380D02*
X127059619Y-113364380D01*
X126964380Y-113412000D01*
X126916761Y-113459619D01*
X126869142Y-113554857D01*
X126821523Y-113745333D01*
X126821523Y-113983428D01*
X126869142Y-114173904D01*
X126916761Y-114269142D01*
X126964380Y-114316761D01*
X127059619Y-114364380D01*
X127154857Y-114364380D01*
X127250095Y-114316761D01*
X127297714Y-114269142D01*
X127345333Y-114173904D01*
X127392952Y-113983428D01*
X127392952Y-113745333D01*
X127345333Y-113554857D01*
X127297714Y-113459619D01*
X127250095Y-113412000D01*
X127154857Y-113364380D01*
X125869142Y-114364380D02*
X126440571Y-114364380D01*
X126154857Y-114364380D02*
X126154857Y-113364380D01*
X126250095Y-113507238D01*
X126345333Y-113602476D01*
X126440571Y-113650095D01*
X125535809Y-114364380D02*
X125012000Y-113697714D01*
X125535809Y-113697714D02*
X125012000Y-114364380D01*
X124440571Y-113364380D02*
X124345333Y-113364380D01*
X124250095Y-113412000D01*
X124202476Y-113459619D01*
X124154857Y-113554857D01*
X124107238Y-113745333D01*
X124107238Y-113983428D01*
X124154857Y-114173904D01*
X124202476Y-114269142D01*
X124250095Y-114316761D01*
X124345333Y-114364380D01*
X124440571Y-114364380D01*
X124535809Y-114316761D01*
X124583428Y-114269142D01*
X124631047Y-114173904D01*
X124678666Y-113983428D01*
X124678666Y-113745333D01*
X124631047Y-113554857D01*
X124583428Y-113459619D01*
X124535809Y-113412000D01*
X124440571Y-113364380D01*
X123726285Y-113459619D02*
X123678666Y-113412000D01*
X123583428Y-113364380D01*
X123345333Y-113364380D01*
X123250095Y-113412000D01*
X123202476Y-113459619D01*
X123154857Y-113554857D01*
X123154857Y-113650095D01*
X123202476Y-113792952D01*
X123773904Y-114364380D01*
X123154857Y-114364380D01*
G04 #@! TD*
M02*
