G04 #@! TF.GenerationSoftware,KiCad,Pcbnew,(5.0.0)*
G04 #@! TF.CreationDate,2020-03-01T18:17:59-05:00*
G04 #@! TF.ProjectId,WS2812B Tiny T,575332383132422054696E7920542E6B,rev?*
G04 #@! TF.SameCoordinates,Original*
G04 #@! TF.FileFunction,Other,Fab,Top*
%FSLAX46Y46*%
G04 Gerber Fmt 4.6, Leading zero omitted, Abs format (unit mm)*
G04 Created by KiCad (PCBNEW (5.0.0)) date 03/01/20 18:17:59*
%MOMM*%
%LPD*%
G01*
G04 APERTURE LIST*
%ADD10C,0.100000*%
%ADD11C,0.150000*%
%ADD12C,0.075000*%
G04 APERTURE END LIST*
D10*
G04 #@! TO.C,U1*
X91662000Y-87312500D02*
G75*
G03X91662000Y-87312500I-2000000J0D01*
G01*
X92162000Y-84812500D02*
X87162000Y-84812500D01*
X92162000Y-89812500D02*
X92162000Y-84812500D01*
X87162000Y-89812500D02*
X92162000Y-89812500D01*
X87162000Y-84812500D02*
X87162000Y-89812500D01*
X92162000Y-88812500D02*
X91162000Y-89812500D01*
G04 #@! TO.C,U2*
X92162000Y-79922500D02*
X91162000Y-80922500D01*
X87162000Y-75922500D02*
X87162000Y-80922500D01*
X87162000Y-80922500D02*
X92162000Y-80922500D01*
X92162000Y-80922500D02*
X92162000Y-75922500D01*
X92162000Y-75922500D02*
X87162000Y-75922500D01*
X91662000Y-78422500D02*
G75*
G03X91662000Y-78422500I-2000000J0D01*
G01*
G04 #@! TO.C,U3*
X91662000Y-69532500D02*
G75*
G03X91662000Y-69532500I-2000000J0D01*
G01*
X92162000Y-67032500D02*
X87162000Y-67032500D01*
X92162000Y-72032500D02*
X92162000Y-67032500D01*
X87162000Y-72032500D02*
X92162000Y-72032500D01*
X87162000Y-67032500D02*
X87162000Y-72032500D01*
X92162000Y-71032500D02*
X91162000Y-72032500D01*
G04 #@! TO.C,U4*
X92162000Y-62142500D02*
X91162000Y-63142500D01*
X87162000Y-58142500D02*
X87162000Y-63142500D01*
X87162000Y-63142500D02*
X92162000Y-63142500D01*
X92162000Y-63142500D02*
X92162000Y-58142500D01*
X92162000Y-58142500D02*
X87162000Y-58142500D01*
X91662000Y-60642500D02*
G75*
G03X91662000Y-60642500I-2000000J0D01*
G01*
G04 #@! TO.C,U5*
X103092000Y-60642500D02*
G75*
G03X103092000Y-60642500I-2000000J0D01*
G01*
X103592000Y-58142500D02*
X98592000Y-58142500D01*
X103592000Y-63142500D02*
X103592000Y-58142500D01*
X98592000Y-63142500D02*
X103592000Y-63142500D01*
X98592000Y-58142500D02*
X98592000Y-63142500D01*
X103592000Y-62142500D02*
X102592000Y-63142500D01*
G04 #@! TO.C,U6*
X115022000Y-62142500D02*
X114022000Y-63142500D01*
X110022000Y-58142500D02*
X110022000Y-63142500D01*
X110022000Y-63142500D02*
X115022000Y-63142500D01*
X115022000Y-63142500D02*
X115022000Y-58142500D01*
X115022000Y-58142500D02*
X110022000Y-58142500D01*
X114522000Y-60642500D02*
G75*
G03X114522000Y-60642500I-2000000J0D01*
G01*
G04 #@! TO.C,U7*
X124682000Y-60642500D02*
G75*
G03X124682000Y-60642500I-2000000J0D01*
G01*
X125182000Y-58142500D02*
X120182000Y-58142500D01*
X125182000Y-63142500D02*
X125182000Y-58142500D01*
X120182000Y-63142500D02*
X125182000Y-63142500D01*
X120182000Y-58142500D02*
X120182000Y-63142500D01*
X125182000Y-62142500D02*
X124182000Y-63142500D01*
G04 #@! TO.C,U8*
X135342000Y-62142500D02*
X134342000Y-63142500D01*
X130342000Y-58142500D02*
X130342000Y-63142500D01*
X130342000Y-63142500D02*
X135342000Y-63142500D01*
X135342000Y-63142500D02*
X135342000Y-58142500D01*
X135342000Y-58142500D02*
X130342000Y-58142500D01*
X134842000Y-60642500D02*
G75*
G03X134842000Y-60642500I-2000000J0D01*
G01*
G04 #@! TO.C,U9*
X144962000Y-60642500D02*
G75*
G03X144962000Y-60642500I-2000000J0D01*
G01*
X145462000Y-58142500D02*
X140462000Y-58142500D01*
X145462000Y-63142500D02*
X145462000Y-58142500D01*
X140462000Y-63142500D02*
X145462000Y-63142500D01*
X140462000Y-58142500D02*
X140462000Y-63142500D01*
X145462000Y-62142500D02*
X144462000Y-63142500D01*
G04 #@! TO.C,U10*
X156932000Y-62142500D02*
X155932000Y-63142500D01*
X151932000Y-58142500D02*
X151932000Y-63142500D01*
X151932000Y-63142500D02*
X156932000Y-63142500D01*
X156932000Y-63142500D02*
X156932000Y-58142500D01*
X156932000Y-58142500D02*
X151932000Y-58142500D01*
X156432000Y-60642500D02*
G75*
G03X156432000Y-60642500I-2000000J0D01*
G01*
G04 #@! TO.C,U11*
X167227000Y-60642500D02*
G75*
G03X167227000Y-60642500I-2000000J0D01*
G01*
X167727000Y-58142500D02*
X162727000Y-58142500D01*
X167727000Y-63142500D02*
X167727000Y-58142500D01*
X162727000Y-63142500D02*
X167727000Y-63142500D01*
X162727000Y-58142500D02*
X162727000Y-63142500D01*
X167727000Y-62142500D02*
X166727000Y-63142500D01*
G04 #@! TO.C,U12*
X167727000Y-71032500D02*
X166727000Y-72032500D01*
X162727000Y-67032500D02*
X162727000Y-72032500D01*
X162727000Y-72032500D02*
X167727000Y-72032500D01*
X167727000Y-72032500D02*
X167727000Y-67032500D01*
X167727000Y-67032500D02*
X162727000Y-67032500D01*
X167227000Y-69532500D02*
G75*
G03X167227000Y-69532500I-2000000J0D01*
G01*
G04 #@! TO.C,U13*
X167227000Y-78422500D02*
G75*
G03X167227000Y-78422500I-2000000J0D01*
G01*
X167727000Y-75922500D02*
X162727000Y-75922500D01*
X167727000Y-80922500D02*
X167727000Y-75922500D01*
X162727000Y-80922500D02*
X167727000Y-80922500D01*
X162727000Y-75922500D02*
X162727000Y-80922500D01*
X167727000Y-79922500D02*
X166727000Y-80922500D01*
G04 #@! TO.C,U15*
X154301000Y-88812500D02*
X153301000Y-89812500D01*
X149301000Y-84812500D02*
X149301000Y-89812500D01*
X149301000Y-89812500D02*
X154301000Y-89812500D01*
X154301000Y-89812500D02*
X154301000Y-84812500D01*
X154301000Y-84812500D02*
X149301000Y-84812500D01*
X153801000Y-87312500D02*
G75*
G03X153801000Y-87312500I-2000000J0D01*
G01*
G04 #@! TO.C,U16*
X153598000Y-76222500D02*
G75*
G03X153598000Y-76222500I-2000000J0D01*
G01*
X154098000Y-73722500D02*
X149098000Y-73722500D01*
X154098000Y-78722500D02*
X154098000Y-73722500D01*
X149098000Y-78722500D02*
X154098000Y-78722500D01*
X149098000Y-73722500D02*
X149098000Y-78722500D01*
X154098000Y-77722500D02*
X153098000Y-78722500D01*
G04 #@! TO.C,U17*
X145502000Y-77722500D02*
X144502000Y-78722500D01*
X140502000Y-73722500D02*
X140502000Y-78722500D01*
X140502000Y-78722500D02*
X145502000Y-78722500D01*
X145502000Y-78722500D02*
X145502000Y-73722500D01*
X145502000Y-73722500D02*
X140502000Y-73722500D01*
X145002000Y-76222500D02*
G75*
G03X145002000Y-76222500I-2000000J0D01*
G01*
G04 #@! TO.C,U18*
X136112000Y-76222500D02*
G75*
G03X136112000Y-76222500I-2000000J0D01*
G01*
X136612000Y-73722500D02*
X131612000Y-73722500D01*
X136612000Y-78722500D02*
X136612000Y-73722500D01*
X131612000Y-78722500D02*
X136612000Y-78722500D01*
X131612000Y-73722500D02*
X131612000Y-78722500D01*
X136612000Y-77722500D02*
X135612000Y-78722500D01*
G04 #@! TO.C,U19*
X136612000Y-86722500D02*
X135612000Y-87722500D01*
X131612000Y-82722500D02*
X131612000Y-87722500D01*
X131612000Y-87722500D02*
X136612000Y-87722500D01*
X136612000Y-87722500D02*
X136612000Y-82722500D01*
X136612000Y-82722500D02*
X131612000Y-82722500D01*
X136112000Y-85222500D02*
G75*
G03X136112000Y-85222500I-2000000J0D01*
G01*
G04 #@! TO.C,U20*
X136312000Y-95222500D02*
G75*
G03X136312000Y-95222500I-2000000J0D01*
G01*
X136812000Y-92722500D02*
X131812000Y-92722500D01*
X136812000Y-97722500D02*
X136812000Y-92722500D01*
X131812000Y-97722500D02*
X136812000Y-97722500D01*
X131812000Y-92722500D02*
X131812000Y-97722500D01*
X136812000Y-96722500D02*
X135812000Y-97722500D01*
G04 #@! TO.C,U21*
X136312000Y-104972000D02*
G75*
G03X136312000Y-104972000I-2000000J0D01*
G01*
X136812000Y-102472000D02*
X131812000Y-102472000D01*
X136812000Y-107472000D02*
X136812000Y-102472000D01*
X131812000Y-107472000D02*
X136812000Y-107472000D01*
X131812000Y-102472000D02*
X131812000Y-107472000D01*
X136812000Y-106472000D02*
X135812000Y-107472000D01*
G04 #@! TO.C,U22*
X136812000Y-116222000D02*
X135812000Y-117222000D01*
X131812000Y-112222000D02*
X131812000Y-117222000D01*
X131812000Y-117222000D02*
X136812000Y-117222000D01*
X136812000Y-117222000D02*
X136812000Y-112222000D01*
X136812000Y-112222000D02*
X131812000Y-112222000D01*
X136312000Y-114722000D02*
G75*
G03X136312000Y-114722000I-2000000J0D01*
G01*
G04 #@! TO.C,U23*
X136312000Y-124472000D02*
G75*
G03X136312000Y-124472000I-2000000J0D01*
G01*
X136812000Y-121972000D02*
X131812000Y-121972000D01*
X136812000Y-126972000D02*
X136812000Y-121972000D01*
X131812000Y-126972000D02*
X136812000Y-126972000D01*
X131812000Y-121972000D02*
X131812000Y-126972000D01*
X136812000Y-125972000D02*
X135812000Y-126972000D01*
G04 #@! TO.C,U24*
X136812000Y-134722000D02*
X135812000Y-135722000D01*
X131812000Y-130722000D02*
X131812000Y-135722000D01*
X131812000Y-135722000D02*
X136812000Y-135722000D01*
X136812000Y-135722000D02*
X136812000Y-130722000D01*
X136812000Y-130722000D02*
X131812000Y-130722000D01*
X136312000Y-133222000D02*
G75*
G03X136312000Y-133222000I-2000000J0D01*
G01*
G04 #@! TO.C,U25*
X146272000Y-133222000D02*
G75*
G03X146272000Y-133222000I-2000000J0D01*
G01*
X146772000Y-130722000D02*
X141772000Y-130722000D01*
X146772000Y-135722000D02*
X146772000Y-130722000D01*
X141772000Y-135722000D02*
X146772000Y-135722000D01*
X141772000Y-130722000D02*
X141772000Y-135722000D01*
X146772000Y-134722000D02*
X145772000Y-135722000D01*
G04 #@! TO.C,U26*
X147062000Y-150222000D02*
X146062000Y-151222000D01*
X142062000Y-146222000D02*
X142062000Y-151222000D01*
X142062000Y-151222000D02*
X147062000Y-151222000D01*
X147062000Y-151222000D02*
X147062000Y-146222000D01*
X147062000Y-146222000D02*
X142062000Y-146222000D01*
X146562000Y-148722000D02*
G75*
G03X146562000Y-148722000I-2000000J0D01*
G01*
G04 #@! TO.C,U27*
X135812000Y-148722000D02*
G75*
G03X135812000Y-148722000I-2000000J0D01*
G01*
X136312000Y-146222000D02*
X131312000Y-146222000D01*
X136312000Y-151222000D02*
X136312000Y-146222000D01*
X131312000Y-151222000D02*
X136312000Y-151222000D01*
X131312000Y-146222000D02*
X131312000Y-151222000D01*
X136312000Y-150222000D02*
X135312000Y-151222000D01*
G04 #@! TO.C,U28*
X123812000Y-150222000D02*
X122812000Y-151222000D01*
X118812000Y-146222000D02*
X118812000Y-151222000D01*
X118812000Y-151222000D02*
X123812000Y-151222000D01*
X123812000Y-151222000D02*
X123812000Y-146222000D01*
X123812000Y-146222000D02*
X118812000Y-146222000D01*
X123312000Y-148722000D02*
G75*
G03X123312000Y-148722000I-2000000J0D01*
G01*
G04 #@! TO.C,U29*
X112812000Y-148722000D02*
G75*
G03X112812000Y-148722000I-2000000J0D01*
G01*
X113312000Y-146222000D02*
X108312000Y-146222000D01*
X113312000Y-151222000D02*
X113312000Y-146222000D01*
X108312000Y-151222000D02*
X113312000Y-151222000D01*
X108312000Y-146222000D02*
X108312000Y-151222000D01*
X113312000Y-150222000D02*
X112312000Y-151222000D01*
G04 #@! TO.C,U30*
X113812000Y-134722000D02*
X112812000Y-135722000D01*
X108812000Y-130722000D02*
X108812000Y-135722000D01*
X108812000Y-135722000D02*
X113812000Y-135722000D01*
X113812000Y-135722000D02*
X113812000Y-130722000D01*
X113812000Y-130722000D02*
X108812000Y-130722000D01*
X113312000Y-133222000D02*
G75*
G03X113312000Y-133222000I-2000000J0D01*
G01*
G04 #@! TO.C,U31*
X122642000Y-133222000D02*
G75*
G03X122642000Y-133222000I-2000000J0D01*
G01*
X123142000Y-130722000D02*
X118142000Y-130722000D01*
X123142000Y-135722000D02*
X123142000Y-130722000D01*
X118142000Y-135722000D02*
X123142000Y-135722000D01*
X118142000Y-130722000D02*
X118142000Y-135722000D01*
X123142000Y-134722000D02*
X122142000Y-135722000D01*
G04 #@! TO.C,U32*
X123142000Y-125972000D02*
X122142000Y-126972000D01*
X118142000Y-121972000D02*
X118142000Y-126972000D01*
X118142000Y-126972000D02*
X123142000Y-126972000D01*
X123142000Y-126972000D02*
X123142000Y-121972000D01*
X123142000Y-121972000D02*
X118142000Y-121972000D01*
X122642000Y-124472000D02*
G75*
G03X122642000Y-124472000I-2000000J0D01*
G01*
G04 #@! TO.C,U33*
X122642000Y-114722000D02*
G75*
G03X122642000Y-114722000I-2000000J0D01*
G01*
X123142000Y-112222000D02*
X118142000Y-112222000D01*
X123142000Y-117222000D02*
X123142000Y-112222000D01*
X118142000Y-117222000D02*
X123142000Y-117222000D01*
X118142000Y-112222000D02*
X118142000Y-117222000D01*
X123142000Y-116222000D02*
X122142000Y-117222000D01*
G04 #@! TO.C,U34*
X123142000Y-106472000D02*
X122142000Y-107472000D01*
X118142000Y-102472000D02*
X118142000Y-107472000D01*
X118142000Y-107472000D02*
X123142000Y-107472000D01*
X123142000Y-107472000D02*
X123142000Y-102472000D01*
X123142000Y-102472000D02*
X118142000Y-102472000D01*
X122642000Y-104972000D02*
G75*
G03X122642000Y-104972000I-2000000J0D01*
G01*
G04 #@! TO.C,U35*
X122642000Y-95222500D02*
G75*
G03X122642000Y-95222500I-2000000J0D01*
G01*
X123142000Y-92722500D02*
X118142000Y-92722500D01*
X123142000Y-97722500D02*
X123142000Y-92722500D01*
X118142000Y-97722500D02*
X123142000Y-97722500D01*
X118142000Y-92722500D02*
X118142000Y-97722500D01*
X123142000Y-96722500D02*
X122142000Y-97722500D01*
G04 #@! TO.C,U36*
X123142000Y-86722500D02*
X122142000Y-87722500D01*
X118142000Y-82722500D02*
X118142000Y-87722500D01*
X118142000Y-87722500D02*
X123142000Y-87722500D01*
X123142000Y-87722500D02*
X123142000Y-82722500D01*
X123142000Y-82722500D02*
X118142000Y-82722500D01*
X122642000Y-85222500D02*
G75*
G03X122642000Y-85222500I-2000000J0D01*
G01*
G04 #@! TO.C,U37*
X122812000Y-76222500D02*
G75*
G03X122812000Y-76222500I-2000000J0D01*
G01*
X123312000Y-73722500D02*
X118312000Y-73722500D01*
X123312000Y-78722500D02*
X123312000Y-73722500D01*
X118312000Y-78722500D02*
X123312000Y-78722500D01*
X118312000Y-73722500D02*
X118312000Y-78722500D01*
X123312000Y-77722500D02*
X122312000Y-78722500D01*
G04 #@! TO.C,U38*
X114812000Y-77722500D02*
X113812000Y-78722500D01*
X109812000Y-73722500D02*
X109812000Y-78722500D01*
X109812000Y-78722500D02*
X114812000Y-78722500D01*
X114812000Y-78722500D02*
X114812000Y-73722500D01*
X114812000Y-73722500D02*
X109812000Y-73722500D01*
X114312000Y-76222500D02*
G75*
G03X114312000Y-76222500I-2000000J0D01*
G01*
G04 #@! TO.C,U39*
X105562000Y-76222500D02*
G75*
G03X105562000Y-76222500I-2000000J0D01*
G01*
X106062000Y-73722500D02*
X101062000Y-73722500D01*
X106062000Y-78722500D02*
X106062000Y-73722500D01*
X101062000Y-78722500D02*
X106062000Y-78722500D01*
X101062000Y-73722500D02*
X101062000Y-78722500D01*
X106062000Y-77722500D02*
X105062000Y-78722500D01*
G04 #@! TO.C,U14*
X167187000Y-87312500D02*
G75*
G03X167187000Y-87312500I-2000000J0D01*
G01*
X167687000Y-84812500D02*
X162687000Y-84812500D01*
X167687000Y-89812500D02*
X167687000Y-84812500D01*
X162687000Y-89812500D02*
X167687000Y-89812500D01*
X162687000Y-84812500D02*
X162687000Y-89812500D01*
X167687000Y-88812500D02*
X166687000Y-89812500D01*
G04 #@! TO.C,C3*
X129000000Y-141820000D02*
X127000000Y-141820000D01*
X127000000Y-141820000D02*
X127000000Y-140580000D01*
X127000000Y-140580000D02*
X129000000Y-140580000D01*
X129000000Y-140580000D02*
X129000000Y-141820000D01*
G04 #@! TO.C,C4*
X128250000Y-68130000D02*
X128250000Y-69370000D01*
X126250000Y-68130000D02*
X128250000Y-68130000D01*
X126250000Y-69370000D02*
X126250000Y-68130000D01*
X128250000Y-69370000D02*
X126250000Y-69370000D01*
G04 #@! TO.C,C5*
X95520000Y-82933300D02*
X97520000Y-82933300D01*
X97520000Y-82933300D02*
X97520000Y-84173300D01*
X97520000Y-84173300D02*
X95520000Y-84173300D01*
X95520000Y-84173300D02*
X95520000Y-82933300D01*
G04 #@! TO.C,C6*
X126880000Y-83500000D02*
X128120000Y-83500000D01*
X126880000Y-85500000D02*
X126880000Y-83500000D01*
X128120000Y-85500000D02*
X126880000Y-85500000D01*
X128120000Y-83500000D02*
X128120000Y-85500000D01*
G04 #@! TO.C,C7*
X159496000Y-84020900D02*
X157496000Y-84020900D01*
X157496000Y-84020900D02*
X157496000Y-82780900D01*
X157496000Y-82780900D02*
X159496000Y-82780900D01*
X159496000Y-82780900D02*
X159496000Y-84020900D01*
G04 #@! TO.C,C8*
X128220000Y-134750000D02*
X126980000Y-134750000D01*
X128220000Y-132750000D02*
X128220000Y-134750000D01*
X126980000Y-132750000D02*
X128220000Y-132750000D01*
X126980000Y-134750000D02*
X126980000Y-132750000D01*
G04 #@! TO.C,U40*
X105562000Y-87322500D02*
G75*
G03X105562000Y-87322500I-2000000J0D01*
G01*
X106062000Y-84822500D02*
X101062000Y-84822500D01*
X106062000Y-89822500D02*
X106062000Y-84822500D01*
X101062000Y-89822500D02*
X106062000Y-89822500D01*
X101062000Y-84822500D02*
X101062000Y-89822500D01*
X106062000Y-88822500D02*
X105062000Y-89822500D01*
G04 #@! TO.C,SW1*
X120765564Y-140872000D02*
G75*
G03X120765564Y-140872000I-2015564J0D01*
G01*
X115750000Y-137872000D02*
X118750000Y-137872000D01*
X115750000Y-143872000D02*
X115750000Y-137872000D01*
X121750000Y-143872000D02*
X115750000Y-143872000D01*
X121750000Y-137872000D02*
X121750000Y-143872000D01*
X118750000Y-137872000D02*
X121750000Y-137872000D01*
G04 #@! TO.C,R1*
X95380000Y-68550000D02*
X95380000Y-66550000D01*
X95380000Y-66550000D02*
X96620000Y-66550000D01*
X96620000Y-66550000D02*
X96620000Y-68550000D01*
X96620000Y-68550000D02*
X95380000Y-68550000D01*
G04 #@! TO.C,MCU1*
X102050000Y-66150000D02*
X104950000Y-66150000D01*
X104950000Y-66150000D02*
X104950000Y-71050000D01*
X104950000Y-71050000D02*
X101050000Y-71050000D01*
X101050000Y-71050000D02*
X101050000Y-67150000D01*
X101050000Y-67150000D02*
X102050000Y-66150000D01*
G04 #@! TO.C,USB1*
X105870000Y-137062000D02*
X105870000Y-144862000D01*
X110870000Y-144862000D02*
X105870000Y-144862000D01*
X110870000Y-137062000D02*
X105870000Y-137062000D01*
X110870000Y-137062000D02*
X110870000Y-144862000D01*
G04 #@! TO.C,D1*
X127501020Y-112549440D02*
X126700920Y-111398820D01*
X127501020Y-112549440D02*
X128250320Y-111398820D01*
X128250320Y-111398820D02*
X126700920Y-111398820D01*
X126700920Y-112549440D02*
X128301120Y-112549440D01*
X127501020Y-111398820D02*
X127501020Y-110400600D01*
X127501020Y-112549440D02*
X127501020Y-113451140D01*
X126000000Y-109600000D02*
X126000000Y-114200000D01*
X126000000Y-109600000D02*
X129000000Y-109600000D01*
X129000000Y-114200000D02*
X126000000Y-114200000D01*
X129000000Y-109600000D02*
X129000000Y-114200000D01*
G04 #@! TO.C,J2*
X116240000Y-65500000D02*
X116240000Y-66545000D01*
X115840000Y-65500000D02*
X116240000Y-65500000D01*
X115840000Y-66545000D02*
X115840000Y-65500000D01*
X116240000Y-71000000D02*
X116240000Y-69955000D01*
X115840000Y-71000000D02*
X116240000Y-71000000D01*
X115840000Y-69955000D02*
X115840000Y-71000000D01*
X114970000Y-65500000D02*
X114970000Y-66545000D01*
X114570000Y-65500000D02*
X114970000Y-65500000D01*
X114570000Y-66545000D02*
X114570000Y-65500000D01*
X114970000Y-71000000D02*
X114970000Y-69955000D01*
X114570000Y-71000000D02*
X114970000Y-71000000D01*
X114570000Y-69955000D02*
X114570000Y-71000000D01*
X113700000Y-65500000D02*
X113700000Y-66545000D01*
X113300000Y-65500000D02*
X113700000Y-65500000D01*
X113300000Y-66545000D02*
X113300000Y-65500000D01*
X113700000Y-71000000D02*
X113700000Y-69955000D01*
X113300000Y-71000000D02*
X113700000Y-71000000D01*
X113300000Y-69955000D02*
X113300000Y-71000000D01*
X112430000Y-65500000D02*
X112430000Y-66545000D01*
X112030000Y-65500000D02*
X112430000Y-65500000D01*
X112030000Y-66545000D02*
X112030000Y-65500000D01*
X112430000Y-71000000D02*
X112430000Y-69955000D01*
X112030000Y-71000000D02*
X112430000Y-71000000D01*
X112030000Y-69955000D02*
X112030000Y-71000000D01*
X111160000Y-65500000D02*
X111160000Y-66545000D01*
X110760000Y-65500000D02*
X111160000Y-65500000D01*
X110760000Y-66545000D02*
X110760000Y-65500000D01*
X111160000Y-71000000D02*
X111160000Y-69955000D01*
X110760000Y-71000000D02*
X111160000Y-71000000D01*
X110760000Y-69955000D02*
X110760000Y-71000000D01*
X110325000Y-66545000D02*
X116675000Y-66545000D01*
X110760000Y-69955000D02*
X110325000Y-69520000D01*
X116675000Y-69955000D02*
X110760000Y-69955000D01*
X110325000Y-69520000D02*
X110325000Y-66545000D01*
X116675000Y-66545000D02*
X116675000Y-69955000D01*
G04 #@! TO.C,SW2*
X135115000Y-142520000D02*
X134480000Y-141885000D01*
X144640000Y-142520000D02*
X135115000Y-142520000D01*
X144640000Y-139980000D02*
X144640000Y-142520000D01*
X134480000Y-139980000D02*
X144640000Y-139980000D01*
X134480000Y-141885000D02*
X134480000Y-139980000D01*
G04 #@! TD*
G04 #@! TO.C,U1*
D11*
X86352476Y-90764880D02*
X86590571Y-91764880D01*
X86781047Y-91050595D01*
X86971523Y-91764880D01*
X87209619Y-90764880D01*
X87542952Y-91717261D02*
X87685809Y-91764880D01*
X87923904Y-91764880D01*
X88019142Y-91717261D01*
X88066761Y-91669642D01*
X88114380Y-91574404D01*
X88114380Y-91479166D01*
X88066761Y-91383928D01*
X88019142Y-91336309D01*
X87923904Y-91288690D01*
X87733428Y-91241071D01*
X87638190Y-91193452D01*
X87590571Y-91145833D01*
X87542952Y-91050595D01*
X87542952Y-90955357D01*
X87590571Y-90860119D01*
X87638190Y-90812500D01*
X87733428Y-90764880D01*
X87971523Y-90764880D01*
X88114380Y-90812500D01*
X88495333Y-90860119D02*
X88542952Y-90812500D01*
X88638190Y-90764880D01*
X88876285Y-90764880D01*
X88971523Y-90812500D01*
X89019142Y-90860119D01*
X89066761Y-90955357D01*
X89066761Y-91050595D01*
X89019142Y-91193452D01*
X88447714Y-91764880D01*
X89066761Y-91764880D01*
X89638190Y-91193452D02*
X89542952Y-91145833D01*
X89495333Y-91098214D01*
X89447714Y-91002976D01*
X89447714Y-90955357D01*
X89495333Y-90860119D01*
X89542952Y-90812500D01*
X89638190Y-90764880D01*
X89828666Y-90764880D01*
X89923904Y-90812500D01*
X89971523Y-90860119D01*
X90019142Y-90955357D01*
X90019142Y-91002976D01*
X89971523Y-91098214D01*
X89923904Y-91145833D01*
X89828666Y-91193452D01*
X89638190Y-91193452D01*
X89542952Y-91241071D01*
X89495333Y-91288690D01*
X89447714Y-91383928D01*
X89447714Y-91574404D01*
X89495333Y-91669642D01*
X89542952Y-91717261D01*
X89638190Y-91764880D01*
X89828666Y-91764880D01*
X89923904Y-91717261D01*
X89971523Y-91669642D01*
X90019142Y-91574404D01*
X90019142Y-91383928D01*
X89971523Y-91288690D01*
X89923904Y-91241071D01*
X89828666Y-91193452D01*
X90971523Y-91764880D02*
X90400095Y-91764880D01*
X90685809Y-91764880D02*
X90685809Y-90764880D01*
X90590571Y-90907738D01*
X90495333Y-91002976D01*
X90400095Y-91050595D01*
X91352476Y-90860119D02*
X91400095Y-90812500D01*
X91495333Y-90764880D01*
X91733428Y-90764880D01*
X91828666Y-90812500D01*
X91876285Y-90860119D01*
X91923904Y-90955357D01*
X91923904Y-91050595D01*
X91876285Y-91193452D01*
X91304857Y-91764880D01*
X91923904Y-91764880D01*
X92685809Y-91241071D02*
X92828666Y-91288690D01*
X92876285Y-91336309D01*
X92923904Y-91431547D01*
X92923904Y-91574404D01*
X92876285Y-91669642D01*
X92828666Y-91717261D01*
X92733428Y-91764880D01*
X92352476Y-91764880D01*
X92352476Y-90764880D01*
X92685809Y-90764880D01*
X92781047Y-90812500D01*
X92828666Y-90860119D01*
X92876285Y-90955357D01*
X92876285Y-91050595D01*
X92828666Y-91145833D01*
X92781047Y-91193452D01*
X92685809Y-91241071D01*
X92352476Y-91241071D01*
G04 #@! TO.C,U2*
X86352476Y-81874880D02*
X86590571Y-82874880D01*
X86781047Y-82160595D01*
X86971523Y-82874880D01*
X87209619Y-81874880D01*
X87542952Y-82827261D02*
X87685809Y-82874880D01*
X87923904Y-82874880D01*
X88019142Y-82827261D01*
X88066761Y-82779642D01*
X88114380Y-82684404D01*
X88114380Y-82589166D01*
X88066761Y-82493928D01*
X88019142Y-82446309D01*
X87923904Y-82398690D01*
X87733428Y-82351071D01*
X87638190Y-82303452D01*
X87590571Y-82255833D01*
X87542952Y-82160595D01*
X87542952Y-82065357D01*
X87590571Y-81970119D01*
X87638190Y-81922500D01*
X87733428Y-81874880D01*
X87971523Y-81874880D01*
X88114380Y-81922500D01*
X88495333Y-81970119D02*
X88542952Y-81922500D01*
X88638190Y-81874880D01*
X88876285Y-81874880D01*
X88971523Y-81922500D01*
X89019142Y-81970119D01*
X89066761Y-82065357D01*
X89066761Y-82160595D01*
X89019142Y-82303452D01*
X88447714Y-82874880D01*
X89066761Y-82874880D01*
X89638190Y-82303452D02*
X89542952Y-82255833D01*
X89495333Y-82208214D01*
X89447714Y-82112976D01*
X89447714Y-82065357D01*
X89495333Y-81970119D01*
X89542952Y-81922500D01*
X89638190Y-81874880D01*
X89828666Y-81874880D01*
X89923904Y-81922500D01*
X89971523Y-81970119D01*
X90019142Y-82065357D01*
X90019142Y-82112976D01*
X89971523Y-82208214D01*
X89923904Y-82255833D01*
X89828666Y-82303452D01*
X89638190Y-82303452D01*
X89542952Y-82351071D01*
X89495333Y-82398690D01*
X89447714Y-82493928D01*
X89447714Y-82684404D01*
X89495333Y-82779642D01*
X89542952Y-82827261D01*
X89638190Y-82874880D01*
X89828666Y-82874880D01*
X89923904Y-82827261D01*
X89971523Y-82779642D01*
X90019142Y-82684404D01*
X90019142Y-82493928D01*
X89971523Y-82398690D01*
X89923904Y-82351071D01*
X89828666Y-82303452D01*
X90971523Y-82874880D02*
X90400095Y-82874880D01*
X90685809Y-82874880D02*
X90685809Y-81874880D01*
X90590571Y-82017738D01*
X90495333Y-82112976D01*
X90400095Y-82160595D01*
X91352476Y-81970119D02*
X91400095Y-81922500D01*
X91495333Y-81874880D01*
X91733428Y-81874880D01*
X91828666Y-81922500D01*
X91876285Y-81970119D01*
X91923904Y-82065357D01*
X91923904Y-82160595D01*
X91876285Y-82303452D01*
X91304857Y-82874880D01*
X91923904Y-82874880D01*
X92685809Y-82351071D02*
X92828666Y-82398690D01*
X92876285Y-82446309D01*
X92923904Y-82541547D01*
X92923904Y-82684404D01*
X92876285Y-82779642D01*
X92828666Y-82827261D01*
X92733428Y-82874880D01*
X92352476Y-82874880D01*
X92352476Y-81874880D01*
X92685809Y-81874880D01*
X92781047Y-81922500D01*
X92828666Y-81970119D01*
X92876285Y-82065357D01*
X92876285Y-82160595D01*
X92828666Y-82255833D01*
X92781047Y-82303452D01*
X92685809Y-82351071D01*
X92352476Y-82351071D01*
G04 #@! TO.C,U3*
X86352476Y-72984880D02*
X86590571Y-73984880D01*
X86781047Y-73270595D01*
X86971523Y-73984880D01*
X87209619Y-72984880D01*
X87542952Y-73937261D02*
X87685809Y-73984880D01*
X87923904Y-73984880D01*
X88019142Y-73937261D01*
X88066761Y-73889642D01*
X88114380Y-73794404D01*
X88114380Y-73699166D01*
X88066761Y-73603928D01*
X88019142Y-73556309D01*
X87923904Y-73508690D01*
X87733428Y-73461071D01*
X87638190Y-73413452D01*
X87590571Y-73365833D01*
X87542952Y-73270595D01*
X87542952Y-73175357D01*
X87590571Y-73080119D01*
X87638190Y-73032500D01*
X87733428Y-72984880D01*
X87971523Y-72984880D01*
X88114380Y-73032500D01*
X88495333Y-73080119D02*
X88542952Y-73032500D01*
X88638190Y-72984880D01*
X88876285Y-72984880D01*
X88971523Y-73032500D01*
X89019142Y-73080119D01*
X89066761Y-73175357D01*
X89066761Y-73270595D01*
X89019142Y-73413452D01*
X88447714Y-73984880D01*
X89066761Y-73984880D01*
X89638190Y-73413452D02*
X89542952Y-73365833D01*
X89495333Y-73318214D01*
X89447714Y-73222976D01*
X89447714Y-73175357D01*
X89495333Y-73080119D01*
X89542952Y-73032500D01*
X89638190Y-72984880D01*
X89828666Y-72984880D01*
X89923904Y-73032500D01*
X89971523Y-73080119D01*
X90019142Y-73175357D01*
X90019142Y-73222976D01*
X89971523Y-73318214D01*
X89923904Y-73365833D01*
X89828666Y-73413452D01*
X89638190Y-73413452D01*
X89542952Y-73461071D01*
X89495333Y-73508690D01*
X89447714Y-73603928D01*
X89447714Y-73794404D01*
X89495333Y-73889642D01*
X89542952Y-73937261D01*
X89638190Y-73984880D01*
X89828666Y-73984880D01*
X89923904Y-73937261D01*
X89971523Y-73889642D01*
X90019142Y-73794404D01*
X90019142Y-73603928D01*
X89971523Y-73508690D01*
X89923904Y-73461071D01*
X89828666Y-73413452D01*
X90971523Y-73984880D02*
X90400095Y-73984880D01*
X90685809Y-73984880D02*
X90685809Y-72984880D01*
X90590571Y-73127738D01*
X90495333Y-73222976D01*
X90400095Y-73270595D01*
X91352476Y-73080119D02*
X91400095Y-73032500D01*
X91495333Y-72984880D01*
X91733428Y-72984880D01*
X91828666Y-73032500D01*
X91876285Y-73080119D01*
X91923904Y-73175357D01*
X91923904Y-73270595D01*
X91876285Y-73413452D01*
X91304857Y-73984880D01*
X91923904Y-73984880D01*
X92685809Y-73461071D02*
X92828666Y-73508690D01*
X92876285Y-73556309D01*
X92923904Y-73651547D01*
X92923904Y-73794404D01*
X92876285Y-73889642D01*
X92828666Y-73937261D01*
X92733428Y-73984880D01*
X92352476Y-73984880D01*
X92352476Y-72984880D01*
X92685809Y-72984880D01*
X92781047Y-73032500D01*
X92828666Y-73080119D01*
X92876285Y-73175357D01*
X92876285Y-73270595D01*
X92828666Y-73365833D01*
X92781047Y-73413452D01*
X92685809Y-73461071D01*
X92352476Y-73461071D01*
G04 #@! TO.C,U4*
X86352476Y-64094880D02*
X86590571Y-65094880D01*
X86781047Y-64380595D01*
X86971523Y-65094880D01*
X87209619Y-64094880D01*
X87542952Y-65047261D02*
X87685809Y-65094880D01*
X87923904Y-65094880D01*
X88019142Y-65047261D01*
X88066761Y-64999642D01*
X88114380Y-64904404D01*
X88114380Y-64809166D01*
X88066761Y-64713928D01*
X88019142Y-64666309D01*
X87923904Y-64618690D01*
X87733428Y-64571071D01*
X87638190Y-64523452D01*
X87590571Y-64475833D01*
X87542952Y-64380595D01*
X87542952Y-64285357D01*
X87590571Y-64190119D01*
X87638190Y-64142500D01*
X87733428Y-64094880D01*
X87971523Y-64094880D01*
X88114380Y-64142500D01*
X88495333Y-64190119D02*
X88542952Y-64142500D01*
X88638190Y-64094880D01*
X88876285Y-64094880D01*
X88971523Y-64142500D01*
X89019142Y-64190119D01*
X89066761Y-64285357D01*
X89066761Y-64380595D01*
X89019142Y-64523452D01*
X88447714Y-65094880D01*
X89066761Y-65094880D01*
X89638190Y-64523452D02*
X89542952Y-64475833D01*
X89495333Y-64428214D01*
X89447714Y-64332976D01*
X89447714Y-64285357D01*
X89495333Y-64190119D01*
X89542952Y-64142500D01*
X89638190Y-64094880D01*
X89828666Y-64094880D01*
X89923904Y-64142500D01*
X89971523Y-64190119D01*
X90019142Y-64285357D01*
X90019142Y-64332976D01*
X89971523Y-64428214D01*
X89923904Y-64475833D01*
X89828666Y-64523452D01*
X89638190Y-64523452D01*
X89542952Y-64571071D01*
X89495333Y-64618690D01*
X89447714Y-64713928D01*
X89447714Y-64904404D01*
X89495333Y-64999642D01*
X89542952Y-65047261D01*
X89638190Y-65094880D01*
X89828666Y-65094880D01*
X89923904Y-65047261D01*
X89971523Y-64999642D01*
X90019142Y-64904404D01*
X90019142Y-64713928D01*
X89971523Y-64618690D01*
X89923904Y-64571071D01*
X89828666Y-64523452D01*
X90971523Y-65094880D02*
X90400095Y-65094880D01*
X90685809Y-65094880D02*
X90685809Y-64094880D01*
X90590571Y-64237738D01*
X90495333Y-64332976D01*
X90400095Y-64380595D01*
X91352476Y-64190119D02*
X91400095Y-64142500D01*
X91495333Y-64094880D01*
X91733428Y-64094880D01*
X91828666Y-64142500D01*
X91876285Y-64190119D01*
X91923904Y-64285357D01*
X91923904Y-64380595D01*
X91876285Y-64523452D01*
X91304857Y-65094880D01*
X91923904Y-65094880D01*
X92685809Y-64571071D02*
X92828666Y-64618690D01*
X92876285Y-64666309D01*
X92923904Y-64761547D01*
X92923904Y-64904404D01*
X92876285Y-64999642D01*
X92828666Y-65047261D01*
X92733428Y-65094880D01*
X92352476Y-65094880D01*
X92352476Y-64094880D01*
X92685809Y-64094880D01*
X92781047Y-64142500D01*
X92828666Y-64190119D01*
X92876285Y-64285357D01*
X92876285Y-64380595D01*
X92828666Y-64475833D01*
X92781047Y-64523452D01*
X92685809Y-64571071D01*
X92352476Y-64571071D01*
G04 #@! TO.C,U5*
X97782476Y-64094880D02*
X98020571Y-65094880D01*
X98211047Y-64380595D01*
X98401523Y-65094880D01*
X98639619Y-64094880D01*
X98972952Y-65047261D02*
X99115809Y-65094880D01*
X99353904Y-65094880D01*
X99449142Y-65047261D01*
X99496761Y-64999642D01*
X99544380Y-64904404D01*
X99544380Y-64809166D01*
X99496761Y-64713928D01*
X99449142Y-64666309D01*
X99353904Y-64618690D01*
X99163428Y-64571071D01*
X99068190Y-64523452D01*
X99020571Y-64475833D01*
X98972952Y-64380595D01*
X98972952Y-64285357D01*
X99020571Y-64190119D01*
X99068190Y-64142500D01*
X99163428Y-64094880D01*
X99401523Y-64094880D01*
X99544380Y-64142500D01*
X99925333Y-64190119D02*
X99972952Y-64142500D01*
X100068190Y-64094880D01*
X100306285Y-64094880D01*
X100401523Y-64142500D01*
X100449142Y-64190119D01*
X100496761Y-64285357D01*
X100496761Y-64380595D01*
X100449142Y-64523452D01*
X99877714Y-65094880D01*
X100496761Y-65094880D01*
X101068190Y-64523452D02*
X100972952Y-64475833D01*
X100925333Y-64428214D01*
X100877714Y-64332976D01*
X100877714Y-64285357D01*
X100925333Y-64190119D01*
X100972952Y-64142500D01*
X101068190Y-64094880D01*
X101258666Y-64094880D01*
X101353904Y-64142500D01*
X101401523Y-64190119D01*
X101449142Y-64285357D01*
X101449142Y-64332976D01*
X101401523Y-64428214D01*
X101353904Y-64475833D01*
X101258666Y-64523452D01*
X101068190Y-64523452D01*
X100972952Y-64571071D01*
X100925333Y-64618690D01*
X100877714Y-64713928D01*
X100877714Y-64904404D01*
X100925333Y-64999642D01*
X100972952Y-65047261D01*
X101068190Y-65094880D01*
X101258666Y-65094880D01*
X101353904Y-65047261D01*
X101401523Y-64999642D01*
X101449142Y-64904404D01*
X101449142Y-64713928D01*
X101401523Y-64618690D01*
X101353904Y-64571071D01*
X101258666Y-64523452D01*
X102401523Y-65094880D02*
X101830095Y-65094880D01*
X102115809Y-65094880D02*
X102115809Y-64094880D01*
X102020571Y-64237738D01*
X101925333Y-64332976D01*
X101830095Y-64380595D01*
X102782476Y-64190119D02*
X102830095Y-64142500D01*
X102925333Y-64094880D01*
X103163428Y-64094880D01*
X103258666Y-64142500D01*
X103306285Y-64190119D01*
X103353904Y-64285357D01*
X103353904Y-64380595D01*
X103306285Y-64523452D01*
X102734857Y-65094880D01*
X103353904Y-65094880D01*
X104115809Y-64571071D02*
X104258666Y-64618690D01*
X104306285Y-64666309D01*
X104353904Y-64761547D01*
X104353904Y-64904404D01*
X104306285Y-64999642D01*
X104258666Y-65047261D01*
X104163428Y-65094880D01*
X103782476Y-65094880D01*
X103782476Y-64094880D01*
X104115809Y-64094880D01*
X104211047Y-64142500D01*
X104258666Y-64190119D01*
X104306285Y-64285357D01*
X104306285Y-64380595D01*
X104258666Y-64475833D01*
X104211047Y-64523452D01*
X104115809Y-64571071D01*
X103782476Y-64571071D01*
G04 #@! TO.C,U6*
X109212476Y-64094880D02*
X109450571Y-65094880D01*
X109641047Y-64380595D01*
X109831523Y-65094880D01*
X110069619Y-64094880D01*
X110402952Y-65047261D02*
X110545809Y-65094880D01*
X110783904Y-65094880D01*
X110879142Y-65047261D01*
X110926761Y-64999642D01*
X110974380Y-64904404D01*
X110974380Y-64809166D01*
X110926761Y-64713928D01*
X110879142Y-64666309D01*
X110783904Y-64618690D01*
X110593428Y-64571071D01*
X110498190Y-64523452D01*
X110450571Y-64475833D01*
X110402952Y-64380595D01*
X110402952Y-64285357D01*
X110450571Y-64190119D01*
X110498190Y-64142500D01*
X110593428Y-64094880D01*
X110831523Y-64094880D01*
X110974380Y-64142500D01*
X111355333Y-64190119D02*
X111402952Y-64142500D01*
X111498190Y-64094880D01*
X111736285Y-64094880D01*
X111831523Y-64142500D01*
X111879142Y-64190119D01*
X111926761Y-64285357D01*
X111926761Y-64380595D01*
X111879142Y-64523452D01*
X111307714Y-65094880D01*
X111926761Y-65094880D01*
X112498190Y-64523452D02*
X112402952Y-64475833D01*
X112355333Y-64428214D01*
X112307714Y-64332976D01*
X112307714Y-64285357D01*
X112355333Y-64190119D01*
X112402952Y-64142500D01*
X112498190Y-64094880D01*
X112688666Y-64094880D01*
X112783904Y-64142500D01*
X112831523Y-64190119D01*
X112879142Y-64285357D01*
X112879142Y-64332976D01*
X112831523Y-64428214D01*
X112783904Y-64475833D01*
X112688666Y-64523452D01*
X112498190Y-64523452D01*
X112402952Y-64571071D01*
X112355333Y-64618690D01*
X112307714Y-64713928D01*
X112307714Y-64904404D01*
X112355333Y-64999642D01*
X112402952Y-65047261D01*
X112498190Y-65094880D01*
X112688666Y-65094880D01*
X112783904Y-65047261D01*
X112831523Y-64999642D01*
X112879142Y-64904404D01*
X112879142Y-64713928D01*
X112831523Y-64618690D01*
X112783904Y-64571071D01*
X112688666Y-64523452D01*
X113831523Y-65094880D02*
X113260095Y-65094880D01*
X113545809Y-65094880D02*
X113545809Y-64094880D01*
X113450571Y-64237738D01*
X113355333Y-64332976D01*
X113260095Y-64380595D01*
X114212476Y-64190119D02*
X114260095Y-64142500D01*
X114355333Y-64094880D01*
X114593428Y-64094880D01*
X114688666Y-64142500D01*
X114736285Y-64190119D01*
X114783904Y-64285357D01*
X114783904Y-64380595D01*
X114736285Y-64523452D01*
X114164857Y-65094880D01*
X114783904Y-65094880D01*
X115545809Y-64571071D02*
X115688666Y-64618690D01*
X115736285Y-64666309D01*
X115783904Y-64761547D01*
X115783904Y-64904404D01*
X115736285Y-64999642D01*
X115688666Y-65047261D01*
X115593428Y-65094880D01*
X115212476Y-65094880D01*
X115212476Y-64094880D01*
X115545809Y-64094880D01*
X115641047Y-64142500D01*
X115688666Y-64190119D01*
X115736285Y-64285357D01*
X115736285Y-64380595D01*
X115688666Y-64475833D01*
X115641047Y-64523452D01*
X115545809Y-64571071D01*
X115212476Y-64571071D01*
G04 #@! TO.C,U7*
X119372476Y-64094880D02*
X119610571Y-65094880D01*
X119801047Y-64380595D01*
X119991523Y-65094880D01*
X120229619Y-64094880D01*
X120562952Y-65047261D02*
X120705809Y-65094880D01*
X120943904Y-65094880D01*
X121039142Y-65047261D01*
X121086761Y-64999642D01*
X121134380Y-64904404D01*
X121134380Y-64809166D01*
X121086761Y-64713928D01*
X121039142Y-64666309D01*
X120943904Y-64618690D01*
X120753428Y-64571071D01*
X120658190Y-64523452D01*
X120610571Y-64475833D01*
X120562952Y-64380595D01*
X120562952Y-64285357D01*
X120610571Y-64190119D01*
X120658190Y-64142500D01*
X120753428Y-64094880D01*
X120991523Y-64094880D01*
X121134380Y-64142500D01*
X121515333Y-64190119D02*
X121562952Y-64142500D01*
X121658190Y-64094880D01*
X121896285Y-64094880D01*
X121991523Y-64142500D01*
X122039142Y-64190119D01*
X122086761Y-64285357D01*
X122086761Y-64380595D01*
X122039142Y-64523452D01*
X121467714Y-65094880D01*
X122086761Y-65094880D01*
X122658190Y-64523452D02*
X122562952Y-64475833D01*
X122515333Y-64428214D01*
X122467714Y-64332976D01*
X122467714Y-64285357D01*
X122515333Y-64190119D01*
X122562952Y-64142500D01*
X122658190Y-64094880D01*
X122848666Y-64094880D01*
X122943904Y-64142500D01*
X122991523Y-64190119D01*
X123039142Y-64285357D01*
X123039142Y-64332976D01*
X122991523Y-64428214D01*
X122943904Y-64475833D01*
X122848666Y-64523452D01*
X122658190Y-64523452D01*
X122562952Y-64571071D01*
X122515333Y-64618690D01*
X122467714Y-64713928D01*
X122467714Y-64904404D01*
X122515333Y-64999642D01*
X122562952Y-65047261D01*
X122658190Y-65094880D01*
X122848666Y-65094880D01*
X122943904Y-65047261D01*
X122991523Y-64999642D01*
X123039142Y-64904404D01*
X123039142Y-64713928D01*
X122991523Y-64618690D01*
X122943904Y-64571071D01*
X122848666Y-64523452D01*
X123991523Y-65094880D02*
X123420095Y-65094880D01*
X123705809Y-65094880D02*
X123705809Y-64094880D01*
X123610571Y-64237738D01*
X123515333Y-64332976D01*
X123420095Y-64380595D01*
X124372476Y-64190119D02*
X124420095Y-64142500D01*
X124515333Y-64094880D01*
X124753428Y-64094880D01*
X124848666Y-64142500D01*
X124896285Y-64190119D01*
X124943904Y-64285357D01*
X124943904Y-64380595D01*
X124896285Y-64523452D01*
X124324857Y-65094880D01*
X124943904Y-65094880D01*
X125705809Y-64571071D02*
X125848666Y-64618690D01*
X125896285Y-64666309D01*
X125943904Y-64761547D01*
X125943904Y-64904404D01*
X125896285Y-64999642D01*
X125848666Y-65047261D01*
X125753428Y-65094880D01*
X125372476Y-65094880D01*
X125372476Y-64094880D01*
X125705809Y-64094880D01*
X125801047Y-64142500D01*
X125848666Y-64190119D01*
X125896285Y-64285357D01*
X125896285Y-64380595D01*
X125848666Y-64475833D01*
X125801047Y-64523452D01*
X125705809Y-64571071D01*
X125372476Y-64571071D01*
G04 #@! TO.C,U8*
X129532476Y-64094880D02*
X129770571Y-65094880D01*
X129961047Y-64380595D01*
X130151523Y-65094880D01*
X130389619Y-64094880D01*
X130722952Y-65047261D02*
X130865809Y-65094880D01*
X131103904Y-65094880D01*
X131199142Y-65047261D01*
X131246761Y-64999642D01*
X131294380Y-64904404D01*
X131294380Y-64809166D01*
X131246761Y-64713928D01*
X131199142Y-64666309D01*
X131103904Y-64618690D01*
X130913428Y-64571071D01*
X130818190Y-64523452D01*
X130770571Y-64475833D01*
X130722952Y-64380595D01*
X130722952Y-64285357D01*
X130770571Y-64190119D01*
X130818190Y-64142500D01*
X130913428Y-64094880D01*
X131151523Y-64094880D01*
X131294380Y-64142500D01*
X131675333Y-64190119D02*
X131722952Y-64142500D01*
X131818190Y-64094880D01*
X132056285Y-64094880D01*
X132151523Y-64142500D01*
X132199142Y-64190119D01*
X132246761Y-64285357D01*
X132246761Y-64380595D01*
X132199142Y-64523452D01*
X131627714Y-65094880D01*
X132246761Y-65094880D01*
X132818190Y-64523452D02*
X132722952Y-64475833D01*
X132675333Y-64428214D01*
X132627714Y-64332976D01*
X132627714Y-64285357D01*
X132675333Y-64190119D01*
X132722952Y-64142500D01*
X132818190Y-64094880D01*
X133008666Y-64094880D01*
X133103904Y-64142500D01*
X133151523Y-64190119D01*
X133199142Y-64285357D01*
X133199142Y-64332976D01*
X133151523Y-64428214D01*
X133103904Y-64475833D01*
X133008666Y-64523452D01*
X132818190Y-64523452D01*
X132722952Y-64571071D01*
X132675333Y-64618690D01*
X132627714Y-64713928D01*
X132627714Y-64904404D01*
X132675333Y-64999642D01*
X132722952Y-65047261D01*
X132818190Y-65094880D01*
X133008666Y-65094880D01*
X133103904Y-65047261D01*
X133151523Y-64999642D01*
X133199142Y-64904404D01*
X133199142Y-64713928D01*
X133151523Y-64618690D01*
X133103904Y-64571071D01*
X133008666Y-64523452D01*
X134151523Y-65094880D02*
X133580095Y-65094880D01*
X133865809Y-65094880D02*
X133865809Y-64094880D01*
X133770571Y-64237738D01*
X133675333Y-64332976D01*
X133580095Y-64380595D01*
X134532476Y-64190119D02*
X134580095Y-64142500D01*
X134675333Y-64094880D01*
X134913428Y-64094880D01*
X135008666Y-64142500D01*
X135056285Y-64190119D01*
X135103904Y-64285357D01*
X135103904Y-64380595D01*
X135056285Y-64523452D01*
X134484857Y-65094880D01*
X135103904Y-65094880D01*
X135865809Y-64571071D02*
X136008666Y-64618690D01*
X136056285Y-64666309D01*
X136103904Y-64761547D01*
X136103904Y-64904404D01*
X136056285Y-64999642D01*
X136008666Y-65047261D01*
X135913428Y-65094880D01*
X135532476Y-65094880D01*
X135532476Y-64094880D01*
X135865809Y-64094880D01*
X135961047Y-64142500D01*
X136008666Y-64190119D01*
X136056285Y-64285357D01*
X136056285Y-64380595D01*
X136008666Y-64475833D01*
X135961047Y-64523452D01*
X135865809Y-64571071D01*
X135532476Y-64571071D01*
G04 #@! TO.C,U9*
X139652476Y-64094880D02*
X139890571Y-65094880D01*
X140081047Y-64380595D01*
X140271523Y-65094880D01*
X140509619Y-64094880D01*
X140842952Y-65047261D02*
X140985809Y-65094880D01*
X141223904Y-65094880D01*
X141319142Y-65047261D01*
X141366761Y-64999642D01*
X141414380Y-64904404D01*
X141414380Y-64809166D01*
X141366761Y-64713928D01*
X141319142Y-64666309D01*
X141223904Y-64618690D01*
X141033428Y-64571071D01*
X140938190Y-64523452D01*
X140890571Y-64475833D01*
X140842952Y-64380595D01*
X140842952Y-64285357D01*
X140890571Y-64190119D01*
X140938190Y-64142500D01*
X141033428Y-64094880D01*
X141271523Y-64094880D01*
X141414380Y-64142500D01*
X141795333Y-64190119D02*
X141842952Y-64142500D01*
X141938190Y-64094880D01*
X142176285Y-64094880D01*
X142271523Y-64142500D01*
X142319142Y-64190119D01*
X142366761Y-64285357D01*
X142366761Y-64380595D01*
X142319142Y-64523452D01*
X141747714Y-65094880D01*
X142366761Y-65094880D01*
X142938190Y-64523452D02*
X142842952Y-64475833D01*
X142795333Y-64428214D01*
X142747714Y-64332976D01*
X142747714Y-64285357D01*
X142795333Y-64190119D01*
X142842952Y-64142500D01*
X142938190Y-64094880D01*
X143128666Y-64094880D01*
X143223904Y-64142500D01*
X143271523Y-64190119D01*
X143319142Y-64285357D01*
X143319142Y-64332976D01*
X143271523Y-64428214D01*
X143223904Y-64475833D01*
X143128666Y-64523452D01*
X142938190Y-64523452D01*
X142842952Y-64571071D01*
X142795333Y-64618690D01*
X142747714Y-64713928D01*
X142747714Y-64904404D01*
X142795333Y-64999642D01*
X142842952Y-65047261D01*
X142938190Y-65094880D01*
X143128666Y-65094880D01*
X143223904Y-65047261D01*
X143271523Y-64999642D01*
X143319142Y-64904404D01*
X143319142Y-64713928D01*
X143271523Y-64618690D01*
X143223904Y-64571071D01*
X143128666Y-64523452D01*
X144271523Y-65094880D02*
X143700095Y-65094880D01*
X143985809Y-65094880D02*
X143985809Y-64094880D01*
X143890571Y-64237738D01*
X143795333Y-64332976D01*
X143700095Y-64380595D01*
X144652476Y-64190119D02*
X144700095Y-64142500D01*
X144795333Y-64094880D01*
X145033428Y-64094880D01*
X145128666Y-64142500D01*
X145176285Y-64190119D01*
X145223904Y-64285357D01*
X145223904Y-64380595D01*
X145176285Y-64523452D01*
X144604857Y-65094880D01*
X145223904Y-65094880D01*
X145985809Y-64571071D02*
X146128666Y-64618690D01*
X146176285Y-64666309D01*
X146223904Y-64761547D01*
X146223904Y-64904404D01*
X146176285Y-64999642D01*
X146128666Y-65047261D01*
X146033428Y-65094880D01*
X145652476Y-65094880D01*
X145652476Y-64094880D01*
X145985809Y-64094880D01*
X146081047Y-64142500D01*
X146128666Y-64190119D01*
X146176285Y-64285357D01*
X146176285Y-64380595D01*
X146128666Y-64475833D01*
X146081047Y-64523452D01*
X145985809Y-64571071D01*
X145652476Y-64571071D01*
G04 #@! TO.C,U10*
X151122476Y-64094880D02*
X151360571Y-65094880D01*
X151551047Y-64380595D01*
X151741523Y-65094880D01*
X151979619Y-64094880D01*
X152312952Y-65047261D02*
X152455809Y-65094880D01*
X152693904Y-65094880D01*
X152789142Y-65047261D01*
X152836761Y-64999642D01*
X152884380Y-64904404D01*
X152884380Y-64809166D01*
X152836761Y-64713928D01*
X152789142Y-64666309D01*
X152693904Y-64618690D01*
X152503428Y-64571071D01*
X152408190Y-64523452D01*
X152360571Y-64475833D01*
X152312952Y-64380595D01*
X152312952Y-64285357D01*
X152360571Y-64190119D01*
X152408190Y-64142500D01*
X152503428Y-64094880D01*
X152741523Y-64094880D01*
X152884380Y-64142500D01*
X153265333Y-64190119D02*
X153312952Y-64142500D01*
X153408190Y-64094880D01*
X153646285Y-64094880D01*
X153741523Y-64142500D01*
X153789142Y-64190119D01*
X153836761Y-64285357D01*
X153836761Y-64380595D01*
X153789142Y-64523452D01*
X153217714Y-65094880D01*
X153836761Y-65094880D01*
X154408190Y-64523452D02*
X154312952Y-64475833D01*
X154265333Y-64428214D01*
X154217714Y-64332976D01*
X154217714Y-64285357D01*
X154265333Y-64190119D01*
X154312952Y-64142500D01*
X154408190Y-64094880D01*
X154598666Y-64094880D01*
X154693904Y-64142500D01*
X154741523Y-64190119D01*
X154789142Y-64285357D01*
X154789142Y-64332976D01*
X154741523Y-64428214D01*
X154693904Y-64475833D01*
X154598666Y-64523452D01*
X154408190Y-64523452D01*
X154312952Y-64571071D01*
X154265333Y-64618690D01*
X154217714Y-64713928D01*
X154217714Y-64904404D01*
X154265333Y-64999642D01*
X154312952Y-65047261D01*
X154408190Y-65094880D01*
X154598666Y-65094880D01*
X154693904Y-65047261D01*
X154741523Y-64999642D01*
X154789142Y-64904404D01*
X154789142Y-64713928D01*
X154741523Y-64618690D01*
X154693904Y-64571071D01*
X154598666Y-64523452D01*
X155741523Y-65094880D02*
X155170095Y-65094880D01*
X155455809Y-65094880D02*
X155455809Y-64094880D01*
X155360571Y-64237738D01*
X155265333Y-64332976D01*
X155170095Y-64380595D01*
X156122476Y-64190119D02*
X156170095Y-64142500D01*
X156265333Y-64094880D01*
X156503428Y-64094880D01*
X156598666Y-64142500D01*
X156646285Y-64190119D01*
X156693904Y-64285357D01*
X156693904Y-64380595D01*
X156646285Y-64523452D01*
X156074857Y-65094880D01*
X156693904Y-65094880D01*
X157455809Y-64571071D02*
X157598666Y-64618690D01*
X157646285Y-64666309D01*
X157693904Y-64761547D01*
X157693904Y-64904404D01*
X157646285Y-64999642D01*
X157598666Y-65047261D01*
X157503428Y-65094880D01*
X157122476Y-65094880D01*
X157122476Y-64094880D01*
X157455809Y-64094880D01*
X157551047Y-64142500D01*
X157598666Y-64190119D01*
X157646285Y-64285357D01*
X157646285Y-64380595D01*
X157598666Y-64475833D01*
X157551047Y-64523452D01*
X157455809Y-64571071D01*
X157122476Y-64571071D01*
G04 #@! TO.C,U11*
X161917476Y-64094880D02*
X162155571Y-65094880D01*
X162346047Y-64380595D01*
X162536523Y-65094880D01*
X162774619Y-64094880D01*
X163107952Y-65047261D02*
X163250809Y-65094880D01*
X163488904Y-65094880D01*
X163584142Y-65047261D01*
X163631761Y-64999642D01*
X163679380Y-64904404D01*
X163679380Y-64809166D01*
X163631761Y-64713928D01*
X163584142Y-64666309D01*
X163488904Y-64618690D01*
X163298428Y-64571071D01*
X163203190Y-64523452D01*
X163155571Y-64475833D01*
X163107952Y-64380595D01*
X163107952Y-64285357D01*
X163155571Y-64190119D01*
X163203190Y-64142500D01*
X163298428Y-64094880D01*
X163536523Y-64094880D01*
X163679380Y-64142500D01*
X164060333Y-64190119D02*
X164107952Y-64142500D01*
X164203190Y-64094880D01*
X164441285Y-64094880D01*
X164536523Y-64142500D01*
X164584142Y-64190119D01*
X164631761Y-64285357D01*
X164631761Y-64380595D01*
X164584142Y-64523452D01*
X164012714Y-65094880D01*
X164631761Y-65094880D01*
X165203190Y-64523452D02*
X165107952Y-64475833D01*
X165060333Y-64428214D01*
X165012714Y-64332976D01*
X165012714Y-64285357D01*
X165060333Y-64190119D01*
X165107952Y-64142500D01*
X165203190Y-64094880D01*
X165393666Y-64094880D01*
X165488904Y-64142500D01*
X165536523Y-64190119D01*
X165584142Y-64285357D01*
X165584142Y-64332976D01*
X165536523Y-64428214D01*
X165488904Y-64475833D01*
X165393666Y-64523452D01*
X165203190Y-64523452D01*
X165107952Y-64571071D01*
X165060333Y-64618690D01*
X165012714Y-64713928D01*
X165012714Y-64904404D01*
X165060333Y-64999642D01*
X165107952Y-65047261D01*
X165203190Y-65094880D01*
X165393666Y-65094880D01*
X165488904Y-65047261D01*
X165536523Y-64999642D01*
X165584142Y-64904404D01*
X165584142Y-64713928D01*
X165536523Y-64618690D01*
X165488904Y-64571071D01*
X165393666Y-64523452D01*
X166536523Y-65094880D02*
X165965095Y-65094880D01*
X166250809Y-65094880D02*
X166250809Y-64094880D01*
X166155571Y-64237738D01*
X166060333Y-64332976D01*
X165965095Y-64380595D01*
X166917476Y-64190119D02*
X166965095Y-64142500D01*
X167060333Y-64094880D01*
X167298428Y-64094880D01*
X167393666Y-64142500D01*
X167441285Y-64190119D01*
X167488904Y-64285357D01*
X167488904Y-64380595D01*
X167441285Y-64523452D01*
X166869857Y-65094880D01*
X167488904Y-65094880D01*
X168250809Y-64571071D02*
X168393666Y-64618690D01*
X168441285Y-64666309D01*
X168488904Y-64761547D01*
X168488904Y-64904404D01*
X168441285Y-64999642D01*
X168393666Y-65047261D01*
X168298428Y-65094880D01*
X167917476Y-65094880D01*
X167917476Y-64094880D01*
X168250809Y-64094880D01*
X168346047Y-64142500D01*
X168393666Y-64190119D01*
X168441285Y-64285357D01*
X168441285Y-64380595D01*
X168393666Y-64475833D01*
X168346047Y-64523452D01*
X168250809Y-64571071D01*
X167917476Y-64571071D01*
G04 #@! TO.C,U12*
X161917476Y-72984880D02*
X162155571Y-73984880D01*
X162346047Y-73270595D01*
X162536523Y-73984880D01*
X162774619Y-72984880D01*
X163107952Y-73937261D02*
X163250809Y-73984880D01*
X163488904Y-73984880D01*
X163584142Y-73937261D01*
X163631761Y-73889642D01*
X163679380Y-73794404D01*
X163679380Y-73699166D01*
X163631761Y-73603928D01*
X163584142Y-73556309D01*
X163488904Y-73508690D01*
X163298428Y-73461071D01*
X163203190Y-73413452D01*
X163155571Y-73365833D01*
X163107952Y-73270595D01*
X163107952Y-73175357D01*
X163155571Y-73080119D01*
X163203190Y-73032500D01*
X163298428Y-72984880D01*
X163536523Y-72984880D01*
X163679380Y-73032500D01*
X164060333Y-73080119D02*
X164107952Y-73032500D01*
X164203190Y-72984880D01*
X164441285Y-72984880D01*
X164536523Y-73032500D01*
X164584142Y-73080119D01*
X164631761Y-73175357D01*
X164631761Y-73270595D01*
X164584142Y-73413452D01*
X164012714Y-73984880D01*
X164631761Y-73984880D01*
X165203190Y-73413452D02*
X165107952Y-73365833D01*
X165060333Y-73318214D01*
X165012714Y-73222976D01*
X165012714Y-73175357D01*
X165060333Y-73080119D01*
X165107952Y-73032500D01*
X165203190Y-72984880D01*
X165393666Y-72984880D01*
X165488904Y-73032500D01*
X165536523Y-73080119D01*
X165584142Y-73175357D01*
X165584142Y-73222976D01*
X165536523Y-73318214D01*
X165488904Y-73365833D01*
X165393666Y-73413452D01*
X165203190Y-73413452D01*
X165107952Y-73461071D01*
X165060333Y-73508690D01*
X165012714Y-73603928D01*
X165012714Y-73794404D01*
X165060333Y-73889642D01*
X165107952Y-73937261D01*
X165203190Y-73984880D01*
X165393666Y-73984880D01*
X165488904Y-73937261D01*
X165536523Y-73889642D01*
X165584142Y-73794404D01*
X165584142Y-73603928D01*
X165536523Y-73508690D01*
X165488904Y-73461071D01*
X165393666Y-73413452D01*
X166536523Y-73984880D02*
X165965095Y-73984880D01*
X166250809Y-73984880D02*
X166250809Y-72984880D01*
X166155571Y-73127738D01*
X166060333Y-73222976D01*
X165965095Y-73270595D01*
X166917476Y-73080119D02*
X166965095Y-73032500D01*
X167060333Y-72984880D01*
X167298428Y-72984880D01*
X167393666Y-73032500D01*
X167441285Y-73080119D01*
X167488904Y-73175357D01*
X167488904Y-73270595D01*
X167441285Y-73413452D01*
X166869857Y-73984880D01*
X167488904Y-73984880D01*
X168250809Y-73461071D02*
X168393666Y-73508690D01*
X168441285Y-73556309D01*
X168488904Y-73651547D01*
X168488904Y-73794404D01*
X168441285Y-73889642D01*
X168393666Y-73937261D01*
X168298428Y-73984880D01*
X167917476Y-73984880D01*
X167917476Y-72984880D01*
X168250809Y-72984880D01*
X168346047Y-73032500D01*
X168393666Y-73080119D01*
X168441285Y-73175357D01*
X168441285Y-73270595D01*
X168393666Y-73365833D01*
X168346047Y-73413452D01*
X168250809Y-73461071D01*
X167917476Y-73461071D01*
G04 #@! TO.C,U13*
X161917476Y-81874880D02*
X162155571Y-82874880D01*
X162346047Y-82160595D01*
X162536523Y-82874880D01*
X162774619Y-81874880D01*
X163107952Y-82827261D02*
X163250809Y-82874880D01*
X163488904Y-82874880D01*
X163584142Y-82827261D01*
X163631761Y-82779642D01*
X163679380Y-82684404D01*
X163679380Y-82589166D01*
X163631761Y-82493928D01*
X163584142Y-82446309D01*
X163488904Y-82398690D01*
X163298428Y-82351071D01*
X163203190Y-82303452D01*
X163155571Y-82255833D01*
X163107952Y-82160595D01*
X163107952Y-82065357D01*
X163155571Y-81970119D01*
X163203190Y-81922500D01*
X163298428Y-81874880D01*
X163536523Y-81874880D01*
X163679380Y-81922500D01*
X164060333Y-81970119D02*
X164107952Y-81922500D01*
X164203190Y-81874880D01*
X164441285Y-81874880D01*
X164536523Y-81922500D01*
X164584142Y-81970119D01*
X164631761Y-82065357D01*
X164631761Y-82160595D01*
X164584142Y-82303452D01*
X164012714Y-82874880D01*
X164631761Y-82874880D01*
X165203190Y-82303452D02*
X165107952Y-82255833D01*
X165060333Y-82208214D01*
X165012714Y-82112976D01*
X165012714Y-82065357D01*
X165060333Y-81970119D01*
X165107952Y-81922500D01*
X165203190Y-81874880D01*
X165393666Y-81874880D01*
X165488904Y-81922500D01*
X165536523Y-81970119D01*
X165584142Y-82065357D01*
X165584142Y-82112976D01*
X165536523Y-82208214D01*
X165488904Y-82255833D01*
X165393666Y-82303452D01*
X165203190Y-82303452D01*
X165107952Y-82351071D01*
X165060333Y-82398690D01*
X165012714Y-82493928D01*
X165012714Y-82684404D01*
X165060333Y-82779642D01*
X165107952Y-82827261D01*
X165203190Y-82874880D01*
X165393666Y-82874880D01*
X165488904Y-82827261D01*
X165536523Y-82779642D01*
X165584142Y-82684404D01*
X165584142Y-82493928D01*
X165536523Y-82398690D01*
X165488904Y-82351071D01*
X165393666Y-82303452D01*
X166536523Y-82874880D02*
X165965095Y-82874880D01*
X166250809Y-82874880D02*
X166250809Y-81874880D01*
X166155571Y-82017738D01*
X166060333Y-82112976D01*
X165965095Y-82160595D01*
X166917476Y-81970119D02*
X166965095Y-81922500D01*
X167060333Y-81874880D01*
X167298428Y-81874880D01*
X167393666Y-81922500D01*
X167441285Y-81970119D01*
X167488904Y-82065357D01*
X167488904Y-82160595D01*
X167441285Y-82303452D01*
X166869857Y-82874880D01*
X167488904Y-82874880D01*
X168250809Y-82351071D02*
X168393666Y-82398690D01*
X168441285Y-82446309D01*
X168488904Y-82541547D01*
X168488904Y-82684404D01*
X168441285Y-82779642D01*
X168393666Y-82827261D01*
X168298428Y-82874880D01*
X167917476Y-82874880D01*
X167917476Y-81874880D01*
X168250809Y-81874880D01*
X168346047Y-81922500D01*
X168393666Y-81970119D01*
X168441285Y-82065357D01*
X168441285Y-82160595D01*
X168393666Y-82255833D01*
X168346047Y-82303452D01*
X168250809Y-82351071D01*
X167917476Y-82351071D01*
G04 #@! TO.C,U15*
X148491476Y-90764880D02*
X148729571Y-91764880D01*
X148920047Y-91050595D01*
X149110523Y-91764880D01*
X149348619Y-90764880D01*
X149681952Y-91717261D02*
X149824809Y-91764880D01*
X150062904Y-91764880D01*
X150158142Y-91717261D01*
X150205761Y-91669642D01*
X150253380Y-91574404D01*
X150253380Y-91479166D01*
X150205761Y-91383928D01*
X150158142Y-91336309D01*
X150062904Y-91288690D01*
X149872428Y-91241071D01*
X149777190Y-91193452D01*
X149729571Y-91145833D01*
X149681952Y-91050595D01*
X149681952Y-90955357D01*
X149729571Y-90860119D01*
X149777190Y-90812500D01*
X149872428Y-90764880D01*
X150110523Y-90764880D01*
X150253380Y-90812500D01*
X150634333Y-90860119D02*
X150681952Y-90812500D01*
X150777190Y-90764880D01*
X151015285Y-90764880D01*
X151110523Y-90812500D01*
X151158142Y-90860119D01*
X151205761Y-90955357D01*
X151205761Y-91050595D01*
X151158142Y-91193452D01*
X150586714Y-91764880D01*
X151205761Y-91764880D01*
X151777190Y-91193452D02*
X151681952Y-91145833D01*
X151634333Y-91098214D01*
X151586714Y-91002976D01*
X151586714Y-90955357D01*
X151634333Y-90860119D01*
X151681952Y-90812500D01*
X151777190Y-90764880D01*
X151967666Y-90764880D01*
X152062904Y-90812500D01*
X152110523Y-90860119D01*
X152158142Y-90955357D01*
X152158142Y-91002976D01*
X152110523Y-91098214D01*
X152062904Y-91145833D01*
X151967666Y-91193452D01*
X151777190Y-91193452D01*
X151681952Y-91241071D01*
X151634333Y-91288690D01*
X151586714Y-91383928D01*
X151586714Y-91574404D01*
X151634333Y-91669642D01*
X151681952Y-91717261D01*
X151777190Y-91764880D01*
X151967666Y-91764880D01*
X152062904Y-91717261D01*
X152110523Y-91669642D01*
X152158142Y-91574404D01*
X152158142Y-91383928D01*
X152110523Y-91288690D01*
X152062904Y-91241071D01*
X151967666Y-91193452D01*
X153110523Y-91764880D02*
X152539095Y-91764880D01*
X152824809Y-91764880D02*
X152824809Y-90764880D01*
X152729571Y-90907738D01*
X152634333Y-91002976D01*
X152539095Y-91050595D01*
X153491476Y-90860119D02*
X153539095Y-90812500D01*
X153634333Y-90764880D01*
X153872428Y-90764880D01*
X153967666Y-90812500D01*
X154015285Y-90860119D01*
X154062904Y-90955357D01*
X154062904Y-91050595D01*
X154015285Y-91193452D01*
X153443857Y-91764880D01*
X154062904Y-91764880D01*
X154824809Y-91241071D02*
X154967666Y-91288690D01*
X155015285Y-91336309D01*
X155062904Y-91431547D01*
X155062904Y-91574404D01*
X155015285Y-91669642D01*
X154967666Y-91717261D01*
X154872428Y-91764880D01*
X154491476Y-91764880D01*
X154491476Y-90764880D01*
X154824809Y-90764880D01*
X154920047Y-90812500D01*
X154967666Y-90860119D01*
X155015285Y-90955357D01*
X155015285Y-91050595D01*
X154967666Y-91145833D01*
X154920047Y-91193452D01*
X154824809Y-91241071D01*
X154491476Y-91241071D01*
G04 #@! TO.C,U16*
X148288476Y-79674880D02*
X148526571Y-80674880D01*
X148717047Y-79960595D01*
X148907523Y-80674880D01*
X149145619Y-79674880D01*
X149478952Y-80627261D02*
X149621809Y-80674880D01*
X149859904Y-80674880D01*
X149955142Y-80627261D01*
X150002761Y-80579642D01*
X150050380Y-80484404D01*
X150050380Y-80389166D01*
X150002761Y-80293928D01*
X149955142Y-80246309D01*
X149859904Y-80198690D01*
X149669428Y-80151071D01*
X149574190Y-80103452D01*
X149526571Y-80055833D01*
X149478952Y-79960595D01*
X149478952Y-79865357D01*
X149526571Y-79770119D01*
X149574190Y-79722500D01*
X149669428Y-79674880D01*
X149907523Y-79674880D01*
X150050380Y-79722500D01*
X150431333Y-79770119D02*
X150478952Y-79722500D01*
X150574190Y-79674880D01*
X150812285Y-79674880D01*
X150907523Y-79722500D01*
X150955142Y-79770119D01*
X151002761Y-79865357D01*
X151002761Y-79960595D01*
X150955142Y-80103452D01*
X150383714Y-80674880D01*
X151002761Y-80674880D01*
X151574190Y-80103452D02*
X151478952Y-80055833D01*
X151431333Y-80008214D01*
X151383714Y-79912976D01*
X151383714Y-79865357D01*
X151431333Y-79770119D01*
X151478952Y-79722500D01*
X151574190Y-79674880D01*
X151764666Y-79674880D01*
X151859904Y-79722500D01*
X151907523Y-79770119D01*
X151955142Y-79865357D01*
X151955142Y-79912976D01*
X151907523Y-80008214D01*
X151859904Y-80055833D01*
X151764666Y-80103452D01*
X151574190Y-80103452D01*
X151478952Y-80151071D01*
X151431333Y-80198690D01*
X151383714Y-80293928D01*
X151383714Y-80484404D01*
X151431333Y-80579642D01*
X151478952Y-80627261D01*
X151574190Y-80674880D01*
X151764666Y-80674880D01*
X151859904Y-80627261D01*
X151907523Y-80579642D01*
X151955142Y-80484404D01*
X151955142Y-80293928D01*
X151907523Y-80198690D01*
X151859904Y-80151071D01*
X151764666Y-80103452D01*
X152907523Y-80674880D02*
X152336095Y-80674880D01*
X152621809Y-80674880D02*
X152621809Y-79674880D01*
X152526571Y-79817738D01*
X152431333Y-79912976D01*
X152336095Y-79960595D01*
X153288476Y-79770119D02*
X153336095Y-79722500D01*
X153431333Y-79674880D01*
X153669428Y-79674880D01*
X153764666Y-79722500D01*
X153812285Y-79770119D01*
X153859904Y-79865357D01*
X153859904Y-79960595D01*
X153812285Y-80103452D01*
X153240857Y-80674880D01*
X153859904Y-80674880D01*
X154621809Y-80151071D02*
X154764666Y-80198690D01*
X154812285Y-80246309D01*
X154859904Y-80341547D01*
X154859904Y-80484404D01*
X154812285Y-80579642D01*
X154764666Y-80627261D01*
X154669428Y-80674880D01*
X154288476Y-80674880D01*
X154288476Y-79674880D01*
X154621809Y-79674880D01*
X154717047Y-79722500D01*
X154764666Y-79770119D01*
X154812285Y-79865357D01*
X154812285Y-79960595D01*
X154764666Y-80055833D01*
X154717047Y-80103452D01*
X154621809Y-80151071D01*
X154288476Y-80151071D01*
G04 #@! TO.C,U17*
X139692476Y-79674880D02*
X139930571Y-80674880D01*
X140121047Y-79960595D01*
X140311523Y-80674880D01*
X140549619Y-79674880D01*
X140882952Y-80627261D02*
X141025809Y-80674880D01*
X141263904Y-80674880D01*
X141359142Y-80627261D01*
X141406761Y-80579642D01*
X141454380Y-80484404D01*
X141454380Y-80389166D01*
X141406761Y-80293928D01*
X141359142Y-80246309D01*
X141263904Y-80198690D01*
X141073428Y-80151071D01*
X140978190Y-80103452D01*
X140930571Y-80055833D01*
X140882952Y-79960595D01*
X140882952Y-79865357D01*
X140930571Y-79770119D01*
X140978190Y-79722500D01*
X141073428Y-79674880D01*
X141311523Y-79674880D01*
X141454380Y-79722500D01*
X141835333Y-79770119D02*
X141882952Y-79722500D01*
X141978190Y-79674880D01*
X142216285Y-79674880D01*
X142311523Y-79722500D01*
X142359142Y-79770119D01*
X142406761Y-79865357D01*
X142406761Y-79960595D01*
X142359142Y-80103452D01*
X141787714Y-80674880D01*
X142406761Y-80674880D01*
X142978190Y-80103452D02*
X142882952Y-80055833D01*
X142835333Y-80008214D01*
X142787714Y-79912976D01*
X142787714Y-79865357D01*
X142835333Y-79770119D01*
X142882952Y-79722500D01*
X142978190Y-79674880D01*
X143168666Y-79674880D01*
X143263904Y-79722500D01*
X143311523Y-79770119D01*
X143359142Y-79865357D01*
X143359142Y-79912976D01*
X143311523Y-80008214D01*
X143263904Y-80055833D01*
X143168666Y-80103452D01*
X142978190Y-80103452D01*
X142882952Y-80151071D01*
X142835333Y-80198690D01*
X142787714Y-80293928D01*
X142787714Y-80484404D01*
X142835333Y-80579642D01*
X142882952Y-80627261D01*
X142978190Y-80674880D01*
X143168666Y-80674880D01*
X143263904Y-80627261D01*
X143311523Y-80579642D01*
X143359142Y-80484404D01*
X143359142Y-80293928D01*
X143311523Y-80198690D01*
X143263904Y-80151071D01*
X143168666Y-80103452D01*
X144311523Y-80674880D02*
X143740095Y-80674880D01*
X144025809Y-80674880D02*
X144025809Y-79674880D01*
X143930571Y-79817738D01*
X143835333Y-79912976D01*
X143740095Y-79960595D01*
X144692476Y-79770119D02*
X144740095Y-79722500D01*
X144835333Y-79674880D01*
X145073428Y-79674880D01*
X145168666Y-79722500D01*
X145216285Y-79770119D01*
X145263904Y-79865357D01*
X145263904Y-79960595D01*
X145216285Y-80103452D01*
X144644857Y-80674880D01*
X145263904Y-80674880D01*
X146025809Y-80151071D02*
X146168666Y-80198690D01*
X146216285Y-80246309D01*
X146263904Y-80341547D01*
X146263904Y-80484404D01*
X146216285Y-80579642D01*
X146168666Y-80627261D01*
X146073428Y-80674880D01*
X145692476Y-80674880D01*
X145692476Y-79674880D01*
X146025809Y-79674880D01*
X146121047Y-79722500D01*
X146168666Y-79770119D01*
X146216285Y-79865357D01*
X146216285Y-79960595D01*
X146168666Y-80055833D01*
X146121047Y-80103452D01*
X146025809Y-80151071D01*
X145692476Y-80151071D01*
G04 #@! TO.C,U18*
X130802476Y-79674880D02*
X131040571Y-80674880D01*
X131231047Y-79960595D01*
X131421523Y-80674880D01*
X131659619Y-79674880D01*
X131992952Y-80627261D02*
X132135809Y-80674880D01*
X132373904Y-80674880D01*
X132469142Y-80627261D01*
X132516761Y-80579642D01*
X132564380Y-80484404D01*
X132564380Y-80389166D01*
X132516761Y-80293928D01*
X132469142Y-80246309D01*
X132373904Y-80198690D01*
X132183428Y-80151071D01*
X132088190Y-80103452D01*
X132040571Y-80055833D01*
X131992952Y-79960595D01*
X131992952Y-79865357D01*
X132040571Y-79770119D01*
X132088190Y-79722500D01*
X132183428Y-79674880D01*
X132421523Y-79674880D01*
X132564380Y-79722500D01*
X132945333Y-79770119D02*
X132992952Y-79722500D01*
X133088190Y-79674880D01*
X133326285Y-79674880D01*
X133421523Y-79722500D01*
X133469142Y-79770119D01*
X133516761Y-79865357D01*
X133516761Y-79960595D01*
X133469142Y-80103452D01*
X132897714Y-80674880D01*
X133516761Y-80674880D01*
X134088190Y-80103452D02*
X133992952Y-80055833D01*
X133945333Y-80008214D01*
X133897714Y-79912976D01*
X133897714Y-79865357D01*
X133945333Y-79770119D01*
X133992952Y-79722500D01*
X134088190Y-79674880D01*
X134278666Y-79674880D01*
X134373904Y-79722500D01*
X134421523Y-79770119D01*
X134469142Y-79865357D01*
X134469142Y-79912976D01*
X134421523Y-80008214D01*
X134373904Y-80055833D01*
X134278666Y-80103452D01*
X134088190Y-80103452D01*
X133992952Y-80151071D01*
X133945333Y-80198690D01*
X133897714Y-80293928D01*
X133897714Y-80484404D01*
X133945333Y-80579642D01*
X133992952Y-80627261D01*
X134088190Y-80674880D01*
X134278666Y-80674880D01*
X134373904Y-80627261D01*
X134421523Y-80579642D01*
X134469142Y-80484404D01*
X134469142Y-80293928D01*
X134421523Y-80198690D01*
X134373904Y-80151071D01*
X134278666Y-80103452D01*
X135421523Y-80674880D02*
X134850095Y-80674880D01*
X135135809Y-80674880D02*
X135135809Y-79674880D01*
X135040571Y-79817738D01*
X134945333Y-79912976D01*
X134850095Y-79960595D01*
X135802476Y-79770119D02*
X135850095Y-79722500D01*
X135945333Y-79674880D01*
X136183428Y-79674880D01*
X136278666Y-79722500D01*
X136326285Y-79770119D01*
X136373904Y-79865357D01*
X136373904Y-79960595D01*
X136326285Y-80103452D01*
X135754857Y-80674880D01*
X136373904Y-80674880D01*
X137135809Y-80151071D02*
X137278666Y-80198690D01*
X137326285Y-80246309D01*
X137373904Y-80341547D01*
X137373904Y-80484404D01*
X137326285Y-80579642D01*
X137278666Y-80627261D01*
X137183428Y-80674880D01*
X136802476Y-80674880D01*
X136802476Y-79674880D01*
X137135809Y-79674880D01*
X137231047Y-79722500D01*
X137278666Y-79770119D01*
X137326285Y-79865357D01*
X137326285Y-79960595D01*
X137278666Y-80055833D01*
X137231047Y-80103452D01*
X137135809Y-80151071D01*
X136802476Y-80151071D01*
G04 #@! TO.C,U19*
X130802476Y-88674880D02*
X131040571Y-89674880D01*
X131231047Y-88960595D01*
X131421523Y-89674880D01*
X131659619Y-88674880D01*
X131992952Y-89627261D02*
X132135809Y-89674880D01*
X132373904Y-89674880D01*
X132469142Y-89627261D01*
X132516761Y-89579642D01*
X132564380Y-89484404D01*
X132564380Y-89389166D01*
X132516761Y-89293928D01*
X132469142Y-89246309D01*
X132373904Y-89198690D01*
X132183428Y-89151071D01*
X132088190Y-89103452D01*
X132040571Y-89055833D01*
X131992952Y-88960595D01*
X131992952Y-88865357D01*
X132040571Y-88770119D01*
X132088190Y-88722500D01*
X132183428Y-88674880D01*
X132421523Y-88674880D01*
X132564380Y-88722500D01*
X132945333Y-88770119D02*
X132992952Y-88722500D01*
X133088190Y-88674880D01*
X133326285Y-88674880D01*
X133421523Y-88722500D01*
X133469142Y-88770119D01*
X133516761Y-88865357D01*
X133516761Y-88960595D01*
X133469142Y-89103452D01*
X132897714Y-89674880D01*
X133516761Y-89674880D01*
X134088190Y-89103452D02*
X133992952Y-89055833D01*
X133945333Y-89008214D01*
X133897714Y-88912976D01*
X133897714Y-88865357D01*
X133945333Y-88770119D01*
X133992952Y-88722500D01*
X134088190Y-88674880D01*
X134278666Y-88674880D01*
X134373904Y-88722500D01*
X134421523Y-88770119D01*
X134469142Y-88865357D01*
X134469142Y-88912976D01*
X134421523Y-89008214D01*
X134373904Y-89055833D01*
X134278666Y-89103452D01*
X134088190Y-89103452D01*
X133992952Y-89151071D01*
X133945333Y-89198690D01*
X133897714Y-89293928D01*
X133897714Y-89484404D01*
X133945333Y-89579642D01*
X133992952Y-89627261D01*
X134088190Y-89674880D01*
X134278666Y-89674880D01*
X134373904Y-89627261D01*
X134421523Y-89579642D01*
X134469142Y-89484404D01*
X134469142Y-89293928D01*
X134421523Y-89198690D01*
X134373904Y-89151071D01*
X134278666Y-89103452D01*
X135421523Y-89674880D02*
X134850095Y-89674880D01*
X135135809Y-89674880D02*
X135135809Y-88674880D01*
X135040571Y-88817738D01*
X134945333Y-88912976D01*
X134850095Y-88960595D01*
X135802476Y-88770119D02*
X135850095Y-88722500D01*
X135945333Y-88674880D01*
X136183428Y-88674880D01*
X136278666Y-88722500D01*
X136326285Y-88770119D01*
X136373904Y-88865357D01*
X136373904Y-88960595D01*
X136326285Y-89103452D01*
X135754857Y-89674880D01*
X136373904Y-89674880D01*
X137135809Y-89151071D02*
X137278666Y-89198690D01*
X137326285Y-89246309D01*
X137373904Y-89341547D01*
X137373904Y-89484404D01*
X137326285Y-89579642D01*
X137278666Y-89627261D01*
X137183428Y-89674880D01*
X136802476Y-89674880D01*
X136802476Y-88674880D01*
X137135809Y-88674880D01*
X137231047Y-88722500D01*
X137278666Y-88770119D01*
X137326285Y-88865357D01*
X137326285Y-88960595D01*
X137278666Y-89055833D01*
X137231047Y-89103452D01*
X137135809Y-89151071D01*
X136802476Y-89151071D01*
G04 #@! TO.C,U20*
X131002476Y-98674880D02*
X131240571Y-99674880D01*
X131431047Y-98960595D01*
X131621523Y-99674880D01*
X131859619Y-98674880D01*
X132192952Y-99627261D02*
X132335809Y-99674880D01*
X132573904Y-99674880D01*
X132669142Y-99627261D01*
X132716761Y-99579642D01*
X132764380Y-99484404D01*
X132764380Y-99389166D01*
X132716761Y-99293928D01*
X132669142Y-99246309D01*
X132573904Y-99198690D01*
X132383428Y-99151071D01*
X132288190Y-99103452D01*
X132240571Y-99055833D01*
X132192952Y-98960595D01*
X132192952Y-98865357D01*
X132240571Y-98770119D01*
X132288190Y-98722500D01*
X132383428Y-98674880D01*
X132621523Y-98674880D01*
X132764380Y-98722500D01*
X133145333Y-98770119D02*
X133192952Y-98722500D01*
X133288190Y-98674880D01*
X133526285Y-98674880D01*
X133621523Y-98722500D01*
X133669142Y-98770119D01*
X133716761Y-98865357D01*
X133716761Y-98960595D01*
X133669142Y-99103452D01*
X133097714Y-99674880D01*
X133716761Y-99674880D01*
X134288190Y-99103452D02*
X134192952Y-99055833D01*
X134145333Y-99008214D01*
X134097714Y-98912976D01*
X134097714Y-98865357D01*
X134145333Y-98770119D01*
X134192952Y-98722500D01*
X134288190Y-98674880D01*
X134478666Y-98674880D01*
X134573904Y-98722500D01*
X134621523Y-98770119D01*
X134669142Y-98865357D01*
X134669142Y-98912976D01*
X134621523Y-99008214D01*
X134573904Y-99055833D01*
X134478666Y-99103452D01*
X134288190Y-99103452D01*
X134192952Y-99151071D01*
X134145333Y-99198690D01*
X134097714Y-99293928D01*
X134097714Y-99484404D01*
X134145333Y-99579642D01*
X134192952Y-99627261D01*
X134288190Y-99674880D01*
X134478666Y-99674880D01*
X134573904Y-99627261D01*
X134621523Y-99579642D01*
X134669142Y-99484404D01*
X134669142Y-99293928D01*
X134621523Y-99198690D01*
X134573904Y-99151071D01*
X134478666Y-99103452D01*
X135621523Y-99674880D02*
X135050095Y-99674880D01*
X135335809Y-99674880D02*
X135335809Y-98674880D01*
X135240571Y-98817738D01*
X135145333Y-98912976D01*
X135050095Y-98960595D01*
X136002476Y-98770119D02*
X136050095Y-98722500D01*
X136145333Y-98674880D01*
X136383428Y-98674880D01*
X136478666Y-98722500D01*
X136526285Y-98770119D01*
X136573904Y-98865357D01*
X136573904Y-98960595D01*
X136526285Y-99103452D01*
X135954857Y-99674880D01*
X136573904Y-99674880D01*
X137335809Y-99151071D02*
X137478666Y-99198690D01*
X137526285Y-99246309D01*
X137573904Y-99341547D01*
X137573904Y-99484404D01*
X137526285Y-99579642D01*
X137478666Y-99627261D01*
X137383428Y-99674880D01*
X137002476Y-99674880D01*
X137002476Y-98674880D01*
X137335809Y-98674880D01*
X137431047Y-98722500D01*
X137478666Y-98770119D01*
X137526285Y-98865357D01*
X137526285Y-98960595D01*
X137478666Y-99055833D01*
X137431047Y-99103452D01*
X137335809Y-99151071D01*
X137002476Y-99151071D01*
G04 #@! TO.C,U21*
X131002476Y-108424380D02*
X131240571Y-109424380D01*
X131431047Y-108710095D01*
X131621523Y-109424380D01*
X131859619Y-108424380D01*
X132192952Y-109376761D02*
X132335809Y-109424380D01*
X132573904Y-109424380D01*
X132669142Y-109376761D01*
X132716761Y-109329142D01*
X132764380Y-109233904D01*
X132764380Y-109138666D01*
X132716761Y-109043428D01*
X132669142Y-108995809D01*
X132573904Y-108948190D01*
X132383428Y-108900571D01*
X132288190Y-108852952D01*
X132240571Y-108805333D01*
X132192952Y-108710095D01*
X132192952Y-108614857D01*
X132240571Y-108519619D01*
X132288190Y-108472000D01*
X132383428Y-108424380D01*
X132621523Y-108424380D01*
X132764380Y-108472000D01*
X133145333Y-108519619D02*
X133192952Y-108472000D01*
X133288190Y-108424380D01*
X133526285Y-108424380D01*
X133621523Y-108472000D01*
X133669142Y-108519619D01*
X133716761Y-108614857D01*
X133716761Y-108710095D01*
X133669142Y-108852952D01*
X133097714Y-109424380D01*
X133716761Y-109424380D01*
X134288190Y-108852952D02*
X134192952Y-108805333D01*
X134145333Y-108757714D01*
X134097714Y-108662476D01*
X134097714Y-108614857D01*
X134145333Y-108519619D01*
X134192952Y-108472000D01*
X134288190Y-108424380D01*
X134478666Y-108424380D01*
X134573904Y-108472000D01*
X134621523Y-108519619D01*
X134669142Y-108614857D01*
X134669142Y-108662476D01*
X134621523Y-108757714D01*
X134573904Y-108805333D01*
X134478666Y-108852952D01*
X134288190Y-108852952D01*
X134192952Y-108900571D01*
X134145333Y-108948190D01*
X134097714Y-109043428D01*
X134097714Y-109233904D01*
X134145333Y-109329142D01*
X134192952Y-109376761D01*
X134288190Y-109424380D01*
X134478666Y-109424380D01*
X134573904Y-109376761D01*
X134621523Y-109329142D01*
X134669142Y-109233904D01*
X134669142Y-109043428D01*
X134621523Y-108948190D01*
X134573904Y-108900571D01*
X134478666Y-108852952D01*
X135621523Y-109424380D02*
X135050095Y-109424380D01*
X135335809Y-109424380D02*
X135335809Y-108424380D01*
X135240571Y-108567238D01*
X135145333Y-108662476D01*
X135050095Y-108710095D01*
X136002476Y-108519619D02*
X136050095Y-108472000D01*
X136145333Y-108424380D01*
X136383428Y-108424380D01*
X136478666Y-108472000D01*
X136526285Y-108519619D01*
X136573904Y-108614857D01*
X136573904Y-108710095D01*
X136526285Y-108852952D01*
X135954857Y-109424380D01*
X136573904Y-109424380D01*
X137335809Y-108900571D02*
X137478666Y-108948190D01*
X137526285Y-108995809D01*
X137573904Y-109091047D01*
X137573904Y-109233904D01*
X137526285Y-109329142D01*
X137478666Y-109376761D01*
X137383428Y-109424380D01*
X137002476Y-109424380D01*
X137002476Y-108424380D01*
X137335809Y-108424380D01*
X137431047Y-108472000D01*
X137478666Y-108519619D01*
X137526285Y-108614857D01*
X137526285Y-108710095D01*
X137478666Y-108805333D01*
X137431047Y-108852952D01*
X137335809Y-108900571D01*
X137002476Y-108900571D01*
G04 #@! TO.C,U22*
X131002476Y-118174380D02*
X131240571Y-119174380D01*
X131431047Y-118460095D01*
X131621523Y-119174380D01*
X131859619Y-118174380D01*
X132192952Y-119126761D02*
X132335809Y-119174380D01*
X132573904Y-119174380D01*
X132669142Y-119126761D01*
X132716761Y-119079142D01*
X132764380Y-118983904D01*
X132764380Y-118888666D01*
X132716761Y-118793428D01*
X132669142Y-118745809D01*
X132573904Y-118698190D01*
X132383428Y-118650571D01*
X132288190Y-118602952D01*
X132240571Y-118555333D01*
X132192952Y-118460095D01*
X132192952Y-118364857D01*
X132240571Y-118269619D01*
X132288190Y-118222000D01*
X132383428Y-118174380D01*
X132621523Y-118174380D01*
X132764380Y-118222000D01*
X133145333Y-118269619D02*
X133192952Y-118222000D01*
X133288190Y-118174380D01*
X133526285Y-118174380D01*
X133621523Y-118222000D01*
X133669142Y-118269619D01*
X133716761Y-118364857D01*
X133716761Y-118460095D01*
X133669142Y-118602952D01*
X133097714Y-119174380D01*
X133716761Y-119174380D01*
X134288190Y-118602952D02*
X134192952Y-118555333D01*
X134145333Y-118507714D01*
X134097714Y-118412476D01*
X134097714Y-118364857D01*
X134145333Y-118269619D01*
X134192952Y-118222000D01*
X134288190Y-118174380D01*
X134478666Y-118174380D01*
X134573904Y-118222000D01*
X134621523Y-118269619D01*
X134669142Y-118364857D01*
X134669142Y-118412476D01*
X134621523Y-118507714D01*
X134573904Y-118555333D01*
X134478666Y-118602952D01*
X134288190Y-118602952D01*
X134192952Y-118650571D01*
X134145333Y-118698190D01*
X134097714Y-118793428D01*
X134097714Y-118983904D01*
X134145333Y-119079142D01*
X134192952Y-119126761D01*
X134288190Y-119174380D01*
X134478666Y-119174380D01*
X134573904Y-119126761D01*
X134621523Y-119079142D01*
X134669142Y-118983904D01*
X134669142Y-118793428D01*
X134621523Y-118698190D01*
X134573904Y-118650571D01*
X134478666Y-118602952D01*
X135621523Y-119174380D02*
X135050095Y-119174380D01*
X135335809Y-119174380D02*
X135335809Y-118174380D01*
X135240571Y-118317238D01*
X135145333Y-118412476D01*
X135050095Y-118460095D01*
X136002476Y-118269619D02*
X136050095Y-118222000D01*
X136145333Y-118174380D01*
X136383428Y-118174380D01*
X136478666Y-118222000D01*
X136526285Y-118269619D01*
X136573904Y-118364857D01*
X136573904Y-118460095D01*
X136526285Y-118602952D01*
X135954857Y-119174380D01*
X136573904Y-119174380D01*
X137335809Y-118650571D02*
X137478666Y-118698190D01*
X137526285Y-118745809D01*
X137573904Y-118841047D01*
X137573904Y-118983904D01*
X137526285Y-119079142D01*
X137478666Y-119126761D01*
X137383428Y-119174380D01*
X137002476Y-119174380D01*
X137002476Y-118174380D01*
X137335809Y-118174380D01*
X137431047Y-118222000D01*
X137478666Y-118269619D01*
X137526285Y-118364857D01*
X137526285Y-118460095D01*
X137478666Y-118555333D01*
X137431047Y-118602952D01*
X137335809Y-118650571D01*
X137002476Y-118650571D01*
G04 #@! TO.C,U23*
X131002476Y-127924380D02*
X131240571Y-128924380D01*
X131431047Y-128210095D01*
X131621523Y-128924380D01*
X131859619Y-127924380D01*
X132192952Y-128876761D02*
X132335809Y-128924380D01*
X132573904Y-128924380D01*
X132669142Y-128876761D01*
X132716761Y-128829142D01*
X132764380Y-128733904D01*
X132764380Y-128638666D01*
X132716761Y-128543428D01*
X132669142Y-128495809D01*
X132573904Y-128448190D01*
X132383428Y-128400571D01*
X132288190Y-128352952D01*
X132240571Y-128305333D01*
X132192952Y-128210095D01*
X132192952Y-128114857D01*
X132240571Y-128019619D01*
X132288190Y-127972000D01*
X132383428Y-127924380D01*
X132621523Y-127924380D01*
X132764380Y-127972000D01*
X133145333Y-128019619D02*
X133192952Y-127972000D01*
X133288190Y-127924380D01*
X133526285Y-127924380D01*
X133621523Y-127972000D01*
X133669142Y-128019619D01*
X133716761Y-128114857D01*
X133716761Y-128210095D01*
X133669142Y-128352952D01*
X133097714Y-128924380D01*
X133716761Y-128924380D01*
X134288190Y-128352952D02*
X134192952Y-128305333D01*
X134145333Y-128257714D01*
X134097714Y-128162476D01*
X134097714Y-128114857D01*
X134145333Y-128019619D01*
X134192952Y-127972000D01*
X134288190Y-127924380D01*
X134478666Y-127924380D01*
X134573904Y-127972000D01*
X134621523Y-128019619D01*
X134669142Y-128114857D01*
X134669142Y-128162476D01*
X134621523Y-128257714D01*
X134573904Y-128305333D01*
X134478666Y-128352952D01*
X134288190Y-128352952D01*
X134192952Y-128400571D01*
X134145333Y-128448190D01*
X134097714Y-128543428D01*
X134097714Y-128733904D01*
X134145333Y-128829142D01*
X134192952Y-128876761D01*
X134288190Y-128924380D01*
X134478666Y-128924380D01*
X134573904Y-128876761D01*
X134621523Y-128829142D01*
X134669142Y-128733904D01*
X134669142Y-128543428D01*
X134621523Y-128448190D01*
X134573904Y-128400571D01*
X134478666Y-128352952D01*
X135621523Y-128924380D02*
X135050095Y-128924380D01*
X135335809Y-128924380D02*
X135335809Y-127924380D01*
X135240571Y-128067238D01*
X135145333Y-128162476D01*
X135050095Y-128210095D01*
X136002476Y-128019619D02*
X136050095Y-127972000D01*
X136145333Y-127924380D01*
X136383428Y-127924380D01*
X136478666Y-127972000D01*
X136526285Y-128019619D01*
X136573904Y-128114857D01*
X136573904Y-128210095D01*
X136526285Y-128352952D01*
X135954857Y-128924380D01*
X136573904Y-128924380D01*
X137335809Y-128400571D02*
X137478666Y-128448190D01*
X137526285Y-128495809D01*
X137573904Y-128591047D01*
X137573904Y-128733904D01*
X137526285Y-128829142D01*
X137478666Y-128876761D01*
X137383428Y-128924380D01*
X137002476Y-128924380D01*
X137002476Y-127924380D01*
X137335809Y-127924380D01*
X137431047Y-127972000D01*
X137478666Y-128019619D01*
X137526285Y-128114857D01*
X137526285Y-128210095D01*
X137478666Y-128305333D01*
X137431047Y-128352952D01*
X137335809Y-128400571D01*
X137002476Y-128400571D01*
G04 #@! TO.C,U24*
X131002476Y-136674380D02*
X131240571Y-137674380D01*
X131431047Y-136960095D01*
X131621523Y-137674380D01*
X131859619Y-136674380D01*
X132192952Y-137626761D02*
X132335809Y-137674380D01*
X132573904Y-137674380D01*
X132669142Y-137626761D01*
X132716761Y-137579142D01*
X132764380Y-137483904D01*
X132764380Y-137388666D01*
X132716761Y-137293428D01*
X132669142Y-137245809D01*
X132573904Y-137198190D01*
X132383428Y-137150571D01*
X132288190Y-137102952D01*
X132240571Y-137055333D01*
X132192952Y-136960095D01*
X132192952Y-136864857D01*
X132240571Y-136769619D01*
X132288190Y-136722000D01*
X132383428Y-136674380D01*
X132621523Y-136674380D01*
X132764380Y-136722000D01*
X133145333Y-136769619D02*
X133192952Y-136722000D01*
X133288190Y-136674380D01*
X133526285Y-136674380D01*
X133621523Y-136722000D01*
X133669142Y-136769619D01*
X133716761Y-136864857D01*
X133716761Y-136960095D01*
X133669142Y-137102952D01*
X133097714Y-137674380D01*
X133716761Y-137674380D01*
X134288190Y-137102952D02*
X134192952Y-137055333D01*
X134145333Y-137007714D01*
X134097714Y-136912476D01*
X134097714Y-136864857D01*
X134145333Y-136769619D01*
X134192952Y-136722000D01*
X134288190Y-136674380D01*
X134478666Y-136674380D01*
X134573904Y-136722000D01*
X134621523Y-136769619D01*
X134669142Y-136864857D01*
X134669142Y-136912476D01*
X134621523Y-137007714D01*
X134573904Y-137055333D01*
X134478666Y-137102952D01*
X134288190Y-137102952D01*
X134192952Y-137150571D01*
X134145333Y-137198190D01*
X134097714Y-137293428D01*
X134097714Y-137483904D01*
X134145333Y-137579142D01*
X134192952Y-137626761D01*
X134288190Y-137674380D01*
X134478666Y-137674380D01*
X134573904Y-137626761D01*
X134621523Y-137579142D01*
X134669142Y-137483904D01*
X134669142Y-137293428D01*
X134621523Y-137198190D01*
X134573904Y-137150571D01*
X134478666Y-137102952D01*
X135621523Y-137674380D02*
X135050095Y-137674380D01*
X135335809Y-137674380D02*
X135335809Y-136674380D01*
X135240571Y-136817238D01*
X135145333Y-136912476D01*
X135050095Y-136960095D01*
X136002476Y-136769619D02*
X136050095Y-136722000D01*
X136145333Y-136674380D01*
X136383428Y-136674380D01*
X136478666Y-136722000D01*
X136526285Y-136769619D01*
X136573904Y-136864857D01*
X136573904Y-136960095D01*
X136526285Y-137102952D01*
X135954857Y-137674380D01*
X136573904Y-137674380D01*
X137335809Y-137150571D02*
X137478666Y-137198190D01*
X137526285Y-137245809D01*
X137573904Y-137341047D01*
X137573904Y-137483904D01*
X137526285Y-137579142D01*
X137478666Y-137626761D01*
X137383428Y-137674380D01*
X137002476Y-137674380D01*
X137002476Y-136674380D01*
X137335809Y-136674380D01*
X137431047Y-136722000D01*
X137478666Y-136769619D01*
X137526285Y-136864857D01*
X137526285Y-136960095D01*
X137478666Y-137055333D01*
X137431047Y-137102952D01*
X137335809Y-137150571D01*
X137002476Y-137150571D01*
G04 #@! TO.C,U25*
X140962476Y-136674380D02*
X141200571Y-137674380D01*
X141391047Y-136960095D01*
X141581523Y-137674380D01*
X141819619Y-136674380D01*
X142152952Y-137626761D02*
X142295809Y-137674380D01*
X142533904Y-137674380D01*
X142629142Y-137626761D01*
X142676761Y-137579142D01*
X142724380Y-137483904D01*
X142724380Y-137388666D01*
X142676761Y-137293428D01*
X142629142Y-137245809D01*
X142533904Y-137198190D01*
X142343428Y-137150571D01*
X142248190Y-137102952D01*
X142200571Y-137055333D01*
X142152952Y-136960095D01*
X142152952Y-136864857D01*
X142200571Y-136769619D01*
X142248190Y-136722000D01*
X142343428Y-136674380D01*
X142581523Y-136674380D01*
X142724380Y-136722000D01*
X143105333Y-136769619D02*
X143152952Y-136722000D01*
X143248190Y-136674380D01*
X143486285Y-136674380D01*
X143581523Y-136722000D01*
X143629142Y-136769619D01*
X143676761Y-136864857D01*
X143676761Y-136960095D01*
X143629142Y-137102952D01*
X143057714Y-137674380D01*
X143676761Y-137674380D01*
X144248190Y-137102952D02*
X144152952Y-137055333D01*
X144105333Y-137007714D01*
X144057714Y-136912476D01*
X144057714Y-136864857D01*
X144105333Y-136769619D01*
X144152952Y-136722000D01*
X144248190Y-136674380D01*
X144438666Y-136674380D01*
X144533904Y-136722000D01*
X144581523Y-136769619D01*
X144629142Y-136864857D01*
X144629142Y-136912476D01*
X144581523Y-137007714D01*
X144533904Y-137055333D01*
X144438666Y-137102952D01*
X144248190Y-137102952D01*
X144152952Y-137150571D01*
X144105333Y-137198190D01*
X144057714Y-137293428D01*
X144057714Y-137483904D01*
X144105333Y-137579142D01*
X144152952Y-137626761D01*
X144248190Y-137674380D01*
X144438666Y-137674380D01*
X144533904Y-137626761D01*
X144581523Y-137579142D01*
X144629142Y-137483904D01*
X144629142Y-137293428D01*
X144581523Y-137198190D01*
X144533904Y-137150571D01*
X144438666Y-137102952D01*
X145581523Y-137674380D02*
X145010095Y-137674380D01*
X145295809Y-137674380D02*
X145295809Y-136674380D01*
X145200571Y-136817238D01*
X145105333Y-136912476D01*
X145010095Y-136960095D01*
X145962476Y-136769619D02*
X146010095Y-136722000D01*
X146105333Y-136674380D01*
X146343428Y-136674380D01*
X146438666Y-136722000D01*
X146486285Y-136769619D01*
X146533904Y-136864857D01*
X146533904Y-136960095D01*
X146486285Y-137102952D01*
X145914857Y-137674380D01*
X146533904Y-137674380D01*
X147295809Y-137150571D02*
X147438666Y-137198190D01*
X147486285Y-137245809D01*
X147533904Y-137341047D01*
X147533904Y-137483904D01*
X147486285Y-137579142D01*
X147438666Y-137626761D01*
X147343428Y-137674380D01*
X146962476Y-137674380D01*
X146962476Y-136674380D01*
X147295809Y-136674380D01*
X147391047Y-136722000D01*
X147438666Y-136769619D01*
X147486285Y-136864857D01*
X147486285Y-136960095D01*
X147438666Y-137055333D01*
X147391047Y-137102952D01*
X147295809Y-137150571D01*
X146962476Y-137150571D01*
G04 #@! TO.C,U26*
X141252476Y-152174380D02*
X141490571Y-153174380D01*
X141681047Y-152460095D01*
X141871523Y-153174380D01*
X142109619Y-152174380D01*
X142442952Y-153126761D02*
X142585809Y-153174380D01*
X142823904Y-153174380D01*
X142919142Y-153126761D01*
X142966761Y-153079142D01*
X143014380Y-152983904D01*
X143014380Y-152888666D01*
X142966761Y-152793428D01*
X142919142Y-152745809D01*
X142823904Y-152698190D01*
X142633428Y-152650571D01*
X142538190Y-152602952D01*
X142490571Y-152555333D01*
X142442952Y-152460095D01*
X142442952Y-152364857D01*
X142490571Y-152269619D01*
X142538190Y-152222000D01*
X142633428Y-152174380D01*
X142871523Y-152174380D01*
X143014380Y-152222000D01*
X143395333Y-152269619D02*
X143442952Y-152222000D01*
X143538190Y-152174380D01*
X143776285Y-152174380D01*
X143871523Y-152222000D01*
X143919142Y-152269619D01*
X143966761Y-152364857D01*
X143966761Y-152460095D01*
X143919142Y-152602952D01*
X143347714Y-153174380D01*
X143966761Y-153174380D01*
X144538190Y-152602952D02*
X144442952Y-152555333D01*
X144395333Y-152507714D01*
X144347714Y-152412476D01*
X144347714Y-152364857D01*
X144395333Y-152269619D01*
X144442952Y-152222000D01*
X144538190Y-152174380D01*
X144728666Y-152174380D01*
X144823904Y-152222000D01*
X144871523Y-152269619D01*
X144919142Y-152364857D01*
X144919142Y-152412476D01*
X144871523Y-152507714D01*
X144823904Y-152555333D01*
X144728666Y-152602952D01*
X144538190Y-152602952D01*
X144442952Y-152650571D01*
X144395333Y-152698190D01*
X144347714Y-152793428D01*
X144347714Y-152983904D01*
X144395333Y-153079142D01*
X144442952Y-153126761D01*
X144538190Y-153174380D01*
X144728666Y-153174380D01*
X144823904Y-153126761D01*
X144871523Y-153079142D01*
X144919142Y-152983904D01*
X144919142Y-152793428D01*
X144871523Y-152698190D01*
X144823904Y-152650571D01*
X144728666Y-152602952D01*
X145871523Y-153174380D02*
X145300095Y-153174380D01*
X145585809Y-153174380D02*
X145585809Y-152174380D01*
X145490571Y-152317238D01*
X145395333Y-152412476D01*
X145300095Y-152460095D01*
X146252476Y-152269619D02*
X146300095Y-152222000D01*
X146395333Y-152174380D01*
X146633428Y-152174380D01*
X146728666Y-152222000D01*
X146776285Y-152269619D01*
X146823904Y-152364857D01*
X146823904Y-152460095D01*
X146776285Y-152602952D01*
X146204857Y-153174380D01*
X146823904Y-153174380D01*
X147585809Y-152650571D02*
X147728666Y-152698190D01*
X147776285Y-152745809D01*
X147823904Y-152841047D01*
X147823904Y-152983904D01*
X147776285Y-153079142D01*
X147728666Y-153126761D01*
X147633428Y-153174380D01*
X147252476Y-153174380D01*
X147252476Y-152174380D01*
X147585809Y-152174380D01*
X147681047Y-152222000D01*
X147728666Y-152269619D01*
X147776285Y-152364857D01*
X147776285Y-152460095D01*
X147728666Y-152555333D01*
X147681047Y-152602952D01*
X147585809Y-152650571D01*
X147252476Y-152650571D01*
G04 #@! TO.C,U27*
X130502476Y-152174380D02*
X130740571Y-153174380D01*
X130931047Y-152460095D01*
X131121523Y-153174380D01*
X131359619Y-152174380D01*
X131692952Y-153126761D02*
X131835809Y-153174380D01*
X132073904Y-153174380D01*
X132169142Y-153126761D01*
X132216761Y-153079142D01*
X132264380Y-152983904D01*
X132264380Y-152888666D01*
X132216761Y-152793428D01*
X132169142Y-152745809D01*
X132073904Y-152698190D01*
X131883428Y-152650571D01*
X131788190Y-152602952D01*
X131740571Y-152555333D01*
X131692952Y-152460095D01*
X131692952Y-152364857D01*
X131740571Y-152269619D01*
X131788190Y-152222000D01*
X131883428Y-152174380D01*
X132121523Y-152174380D01*
X132264380Y-152222000D01*
X132645333Y-152269619D02*
X132692952Y-152222000D01*
X132788190Y-152174380D01*
X133026285Y-152174380D01*
X133121523Y-152222000D01*
X133169142Y-152269619D01*
X133216761Y-152364857D01*
X133216761Y-152460095D01*
X133169142Y-152602952D01*
X132597714Y-153174380D01*
X133216761Y-153174380D01*
X133788190Y-152602952D02*
X133692952Y-152555333D01*
X133645333Y-152507714D01*
X133597714Y-152412476D01*
X133597714Y-152364857D01*
X133645333Y-152269619D01*
X133692952Y-152222000D01*
X133788190Y-152174380D01*
X133978666Y-152174380D01*
X134073904Y-152222000D01*
X134121523Y-152269619D01*
X134169142Y-152364857D01*
X134169142Y-152412476D01*
X134121523Y-152507714D01*
X134073904Y-152555333D01*
X133978666Y-152602952D01*
X133788190Y-152602952D01*
X133692952Y-152650571D01*
X133645333Y-152698190D01*
X133597714Y-152793428D01*
X133597714Y-152983904D01*
X133645333Y-153079142D01*
X133692952Y-153126761D01*
X133788190Y-153174380D01*
X133978666Y-153174380D01*
X134073904Y-153126761D01*
X134121523Y-153079142D01*
X134169142Y-152983904D01*
X134169142Y-152793428D01*
X134121523Y-152698190D01*
X134073904Y-152650571D01*
X133978666Y-152602952D01*
X135121523Y-153174380D02*
X134550095Y-153174380D01*
X134835809Y-153174380D02*
X134835809Y-152174380D01*
X134740571Y-152317238D01*
X134645333Y-152412476D01*
X134550095Y-152460095D01*
X135502476Y-152269619D02*
X135550095Y-152222000D01*
X135645333Y-152174380D01*
X135883428Y-152174380D01*
X135978666Y-152222000D01*
X136026285Y-152269619D01*
X136073904Y-152364857D01*
X136073904Y-152460095D01*
X136026285Y-152602952D01*
X135454857Y-153174380D01*
X136073904Y-153174380D01*
X136835809Y-152650571D02*
X136978666Y-152698190D01*
X137026285Y-152745809D01*
X137073904Y-152841047D01*
X137073904Y-152983904D01*
X137026285Y-153079142D01*
X136978666Y-153126761D01*
X136883428Y-153174380D01*
X136502476Y-153174380D01*
X136502476Y-152174380D01*
X136835809Y-152174380D01*
X136931047Y-152222000D01*
X136978666Y-152269619D01*
X137026285Y-152364857D01*
X137026285Y-152460095D01*
X136978666Y-152555333D01*
X136931047Y-152602952D01*
X136835809Y-152650571D01*
X136502476Y-152650571D01*
G04 #@! TO.C,U28*
X118002476Y-152174380D02*
X118240571Y-153174380D01*
X118431047Y-152460095D01*
X118621523Y-153174380D01*
X118859619Y-152174380D01*
X119192952Y-153126761D02*
X119335809Y-153174380D01*
X119573904Y-153174380D01*
X119669142Y-153126761D01*
X119716761Y-153079142D01*
X119764380Y-152983904D01*
X119764380Y-152888666D01*
X119716761Y-152793428D01*
X119669142Y-152745809D01*
X119573904Y-152698190D01*
X119383428Y-152650571D01*
X119288190Y-152602952D01*
X119240571Y-152555333D01*
X119192952Y-152460095D01*
X119192952Y-152364857D01*
X119240571Y-152269619D01*
X119288190Y-152222000D01*
X119383428Y-152174380D01*
X119621523Y-152174380D01*
X119764380Y-152222000D01*
X120145333Y-152269619D02*
X120192952Y-152222000D01*
X120288190Y-152174380D01*
X120526285Y-152174380D01*
X120621523Y-152222000D01*
X120669142Y-152269619D01*
X120716761Y-152364857D01*
X120716761Y-152460095D01*
X120669142Y-152602952D01*
X120097714Y-153174380D01*
X120716761Y-153174380D01*
X121288190Y-152602952D02*
X121192952Y-152555333D01*
X121145333Y-152507714D01*
X121097714Y-152412476D01*
X121097714Y-152364857D01*
X121145333Y-152269619D01*
X121192952Y-152222000D01*
X121288190Y-152174380D01*
X121478666Y-152174380D01*
X121573904Y-152222000D01*
X121621523Y-152269619D01*
X121669142Y-152364857D01*
X121669142Y-152412476D01*
X121621523Y-152507714D01*
X121573904Y-152555333D01*
X121478666Y-152602952D01*
X121288190Y-152602952D01*
X121192952Y-152650571D01*
X121145333Y-152698190D01*
X121097714Y-152793428D01*
X121097714Y-152983904D01*
X121145333Y-153079142D01*
X121192952Y-153126761D01*
X121288190Y-153174380D01*
X121478666Y-153174380D01*
X121573904Y-153126761D01*
X121621523Y-153079142D01*
X121669142Y-152983904D01*
X121669142Y-152793428D01*
X121621523Y-152698190D01*
X121573904Y-152650571D01*
X121478666Y-152602952D01*
X122621523Y-153174380D02*
X122050095Y-153174380D01*
X122335809Y-153174380D02*
X122335809Y-152174380D01*
X122240571Y-152317238D01*
X122145333Y-152412476D01*
X122050095Y-152460095D01*
X123002476Y-152269619D02*
X123050095Y-152222000D01*
X123145333Y-152174380D01*
X123383428Y-152174380D01*
X123478666Y-152222000D01*
X123526285Y-152269619D01*
X123573904Y-152364857D01*
X123573904Y-152460095D01*
X123526285Y-152602952D01*
X122954857Y-153174380D01*
X123573904Y-153174380D01*
X124335809Y-152650571D02*
X124478666Y-152698190D01*
X124526285Y-152745809D01*
X124573904Y-152841047D01*
X124573904Y-152983904D01*
X124526285Y-153079142D01*
X124478666Y-153126761D01*
X124383428Y-153174380D01*
X124002476Y-153174380D01*
X124002476Y-152174380D01*
X124335809Y-152174380D01*
X124431047Y-152222000D01*
X124478666Y-152269619D01*
X124526285Y-152364857D01*
X124526285Y-152460095D01*
X124478666Y-152555333D01*
X124431047Y-152602952D01*
X124335809Y-152650571D01*
X124002476Y-152650571D01*
G04 #@! TO.C,U29*
X107502476Y-152174380D02*
X107740571Y-153174380D01*
X107931047Y-152460095D01*
X108121523Y-153174380D01*
X108359619Y-152174380D01*
X108692952Y-153126761D02*
X108835809Y-153174380D01*
X109073904Y-153174380D01*
X109169142Y-153126761D01*
X109216761Y-153079142D01*
X109264380Y-152983904D01*
X109264380Y-152888666D01*
X109216761Y-152793428D01*
X109169142Y-152745809D01*
X109073904Y-152698190D01*
X108883428Y-152650571D01*
X108788190Y-152602952D01*
X108740571Y-152555333D01*
X108692952Y-152460095D01*
X108692952Y-152364857D01*
X108740571Y-152269619D01*
X108788190Y-152222000D01*
X108883428Y-152174380D01*
X109121523Y-152174380D01*
X109264380Y-152222000D01*
X109645333Y-152269619D02*
X109692952Y-152222000D01*
X109788190Y-152174380D01*
X110026285Y-152174380D01*
X110121523Y-152222000D01*
X110169142Y-152269619D01*
X110216761Y-152364857D01*
X110216761Y-152460095D01*
X110169142Y-152602952D01*
X109597714Y-153174380D01*
X110216761Y-153174380D01*
X110788190Y-152602952D02*
X110692952Y-152555333D01*
X110645333Y-152507714D01*
X110597714Y-152412476D01*
X110597714Y-152364857D01*
X110645333Y-152269619D01*
X110692952Y-152222000D01*
X110788190Y-152174380D01*
X110978666Y-152174380D01*
X111073904Y-152222000D01*
X111121523Y-152269619D01*
X111169142Y-152364857D01*
X111169142Y-152412476D01*
X111121523Y-152507714D01*
X111073904Y-152555333D01*
X110978666Y-152602952D01*
X110788190Y-152602952D01*
X110692952Y-152650571D01*
X110645333Y-152698190D01*
X110597714Y-152793428D01*
X110597714Y-152983904D01*
X110645333Y-153079142D01*
X110692952Y-153126761D01*
X110788190Y-153174380D01*
X110978666Y-153174380D01*
X111073904Y-153126761D01*
X111121523Y-153079142D01*
X111169142Y-152983904D01*
X111169142Y-152793428D01*
X111121523Y-152698190D01*
X111073904Y-152650571D01*
X110978666Y-152602952D01*
X112121523Y-153174380D02*
X111550095Y-153174380D01*
X111835809Y-153174380D02*
X111835809Y-152174380D01*
X111740571Y-152317238D01*
X111645333Y-152412476D01*
X111550095Y-152460095D01*
X112502476Y-152269619D02*
X112550095Y-152222000D01*
X112645333Y-152174380D01*
X112883428Y-152174380D01*
X112978666Y-152222000D01*
X113026285Y-152269619D01*
X113073904Y-152364857D01*
X113073904Y-152460095D01*
X113026285Y-152602952D01*
X112454857Y-153174380D01*
X113073904Y-153174380D01*
X113835809Y-152650571D02*
X113978666Y-152698190D01*
X114026285Y-152745809D01*
X114073904Y-152841047D01*
X114073904Y-152983904D01*
X114026285Y-153079142D01*
X113978666Y-153126761D01*
X113883428Y-153174380D01*
X113502476Y-153174380D01*
X113502476Y-152174380D01*
X113835809Y-152174380D01*
X113931047Y-152222000D01*
X113978666Y-152269619D01*
X114026285Y-152364857D01*
X114026285Y-152460095D01*
X113978666Y-152555333D01*
X113931047Y-152602952D01*
X113835809Y-152650571D01*
X113502476Y-152650571D01*
G04 #@! TO.C,U30*
X108002476Y-136674380D02*
X108240571Y-137674380D01*
X108431047Y-136960095D01*
X108621523Y-137674380D01*
X108859619Y-136674380D01*
X109192952Y-137626761D02*
X109335809Y-137674380D01*
X109573904Y-137674380D01*
X109669142Y-137626761D01*
X109716761Y-137579142D01*
X109764380Y-137483904D01*
X109764380Y-137388666D01*
X109716761Y-137293428D01*
X109669142Y-137245809D01*
X109573904Y-137198190D01*
X109383428Y-137150571D01*
X109288190Y-137102952D01*
X109240571Y-137055333D01*
X109192952Y-136960095D01*
X109192952Y-136864857D01*
X109240571Y-136769619D01*
X109288190Y-136722000D01*
X109383428Y-136674380D01*
X109621523Y-136674380D01*
X109764380Y-136722000D01*
X110145333Y-136769619D02*
X110192952Y-136722000D01*
X110288190Y-136674380D01*
X110526285Y-136674380D01*
X110621523Y-136722000D01*
X110669142Y-136769619D01*
X110716761Y-136864857D01*
X110716761Y-136960095D01*
X110669142Y-137102952D01*
X110097714Y-137674380D01*
X110716761Y-137674380D01*
X111288190Y-137102952D02*
X111192952Y-137055333D01*
X111145333Y-137007714D01*
X111097714Y-136912476D01*
X111097714Y-136864857D01*
X111145333Y-136769619D01*
X111192952Y-136722000D01*
X111288190Y-136674380D01*
X111478666Y-136674380D01*
X111573904Y-136722000D01*
X111621523Y-136769619D01*
X111669142Y-136864857D01*
X111669142Y-136912476D01*
X111621523Y-137007714D01*
X111573904Y-137055333D01*
X111478666Y-137102952D01*
X111288190Y-137102952D01*
X111192952Y-137150571D01*
X111145333Y-137198190D01*
X111097714Y-137293428D01*
X111097714Y-137483904D01*
X111145333Y-137579142D01*
X111192952Y-137626761D01*
X111288190Y-137674380D01*
X111478666Y-137674380D01*
X111573904Y-137626761D01*
X111621523Y-137579142D01*
X111669142Y-137483904D01*
X111669142Y-137293428D01*
X111621523Y-137198190D01*
X111573904Y-137150571D01*
X111478666Y-137102952D01*
X112621523Y-137674380D02*
X112050095Y-137674380D01*
X112335809Y-137674380D02*
X112335809Y-136674380D01*
X112240571Y-136817238D01*
X112145333Y-136912476D01*
X112050095Y-136960095D01*
X113002476Y-136769619D02*
X113050095Y-136722000D01*
X113145333Y-136674380D01*
X113383428Y-136674380D01*
X113478666Y-136722000D01*
X113526285Y-136769619D01*
X113573904Y-136864857D01*
X113573904Y-136960095D01*
X113526285Y-137102952D01*
X112954857Y-137674380D01*
X113573904Y-137674380D01*
X114335809Y-137150571D02*
X114478666Y-137198190D01*
X114526285Y-137245809D01*
X114573904Y-137341047D01*
X114573904Y-137483904D01*
X114526285Y-137579142D01*
X114478666Y-137626761D01*
X114383428Y-137674380D01*
X114002476Y-137674380D01*
X114002476Y-136674380D01*
X114335809Y-136674380D01*
X114431047Y-136722000D01*
X114478666Y-136769619D01*
X114526285Y-136864857D01*
X114526285Y-136960095D01*
X114478666Y-137055333D01*
X114431047Y-137102952D01*
X114335809Y-137150571D01*
X114002476Y-137150571D01*
G04 #@! TO.C,U31*
X117332476Y-136674380D02*
X117570571Y-137674380D01*
X117761047Y-136960095D01*
X117951523Y-137674380D01*
X118189619Y-136674380D01*
X118522952Y-137626761D02*
X118665809Y-137674380D01*
X118903904Y-137674380D01*
X118999142Y-137626761D01*
X119046761Y-137579142D01*
X119094380Y-137483904D01*
X119094380Y-137388666D01*
X119046761Y-137293428D01*
X118999142Y-137245809D01*
X118903904Y-137198190D01*
X118713428Y-137150571D01*
X118618190Y-137102952D01*
X118570571Y-137055333D01*
X118522952Y-136960095D01*
X118522952Y-136864857D01*
X118570571Y-136769619D01*
X118618190Y-136722000D01*
X118713428Y-136674380D01*
X118951523Y-136674380D01*
X119094380Y-136722000D01*
X119475333Y-136769619D02*
X119522952Y-136722000D01*
X119618190Y-136674380D01*
X119856285Y-136674380D01*
X119951523Y-136722000D01*
X119999142Y-136769619D01*
X120046761Y-136864857D01*
X120046761Y-136960095D01*
X119999142Y-137102952D01*
X119427714Y-137674380D01*
X120046761Y-137674380D01*
X120618190Y-137102952D02*
X120522952Y-137055333D01*
X120475333Y-137007714D01*
X120427714Y-136912476D01*
X120427714Y-136864857D01*
X120475333Y-136769619D01*
X120522952Y-136722000D01*
X120618190Y-136674380D01*
X120808666Y-136674380D01*
X120903904Y-136722000D01*
X120951523Y-136769619D01*
X120999142Y-136864857D01*
X120999142Y-136912476D01*
X120951523Y-137007714D01*
X120903904Y-137055333D01*
X120808666Y-137102952D01*
X120618190Y-137102952D01*
X120522952Y-137150571D01*
X120475333Y-137198190D01*
X120427714Y-137293428D01*
X120427714Y-137483904D01*
X120475333Y-137579142D01*
X120522952Y-137626761D01*
X120618190Y-137674380D01*
X120808666Y-137674380D01*
X120903904Y-137626761D01*
X120951523Y-137579142D01*
X120999142Y-137483904D01*
X120999142Y-137293428D01*
X120951523Y-137198190D01*
X120903904Y-137150571D01*
X120808666Y-137102952D01*
X121951523Y-137674380D02*
X121380095Y-137674380D01*
X121665809Y-137674380D02*
X121665809Y-136674380D01*
X121570571Y-136817238D01*
X121475333Y-136912476D01*
X121380095Y-136960095D01*
X122332476Y-136769619D02*
X122380095Y-136722000D01*
X122475333Y-136674380D01*
X122713428Y-136674380D01*
X122808666Y-136722000D01*
X122856285Y-136769619D01*
X122903904Y-136864857D01*
X122903904Y-136960095D01*
X122856285Y-137102952D01*
X122284857Y-137674380D01*
X122903904Y-137674380D01*
X123665809Y-137150571D02*
X123808666Y-137198190D01*
X123856285Y-137245809D01*
X123903904Y-137341047D01*
X123903904Y-137483904D01*
X123856285Y-137579142D01*
X123808666Y-137626761D01*
X123713428Y-137674380D01*
X123332476Y-137674380D01*
X123332476Y-136674380D01*
X123665809Y-136674380D01*
X123761047Y-136722000D01*
X123808666Y-136769619D01*
X123856285Y-136864857D01*
X123856285Y-136960095D01*
X123808666Y-137055333D01*
X123761047Y-137102952D01*
X123665809Y-137150571D01*
X123332476Y-137150571D01*
G04 #@! TO.C,U32*
X117332476Y-127924380D02*
X117570571Y-128924380D01*
X117761047Y-128210095D01*
X117951523Y-128924380D01*
X118189619Y-127924380D01*
X118522952Y-128876761D02*
X118665809Y-128924380D01*
X118903904Y-128924380D01*
X118999142Y-128876761D01*
X119046761Y-128829142D01*
X119094380Y-128733904D01*
X119094380Y-128638666D01*
X119046761Y-128543428D01*
X118999142Y-128495809D01*
X118903904Y-128448190D01*
X118713428Y-128400571D01*
X118618190Y-128352952D01*
X118570571Y-128305333D01*
X118522952Y-128210095D01*
X118522952Y-128114857D01*
X118570571Y-128019619D01*
X118618190Y-127972000D01*
X118713428Y-127924380D01*
X118951523Y-127924380D01*
X119094380Y-127972000D01*
X119475333Y-128019619D02*
X119522952Y-127972000D01*
X119618190Y-127924380D01*
X119856285Y-127924380D01*
X119951523Y-127972000D01*
X119999142Y-128019619D01*
X120046761Y-128114857D01*
X120046761Y-128210095D01*
X119999142Y-128352952D01*
X119427714Y-128924380D01*
X120046761Y-128924380D01*
X120618190Y-128352952D02*
X120522952Y-128305333D01*
X120475333Y-128257714D01*
X120427714Y-128162476D01*
X120427714Y-128114857D01*
X120475333Y-128019619D01*
X120522952Y-127972000D01*
X120618190Y-127924380D01*
X120808666Y-127924380D01*
X120903904Y-127972000D01*
X120951523Y-128019619D01*
X120999142Y-128114857D01*
X120999142Y-128162476D01*
X120951523Y-128257714D01*
X120903904Y-128305333D01*
X120808666Y-128352952D01*
X120618190Y-128352952D01*
X120522952Y-128400571D01*
X120475333Y-128448190D01*
X120427714Y-128543428D01*
X120427714Y-128733904D01*
X120475333Y-128829142D01*
X120522952Y-128876761D01*
X120618190Y-128924380D01*
X120808666Y-128924380D01*
X120903904Y-128876761D01*
X120951523Y-128829142D01*
X120999142Y-128733904D01*
X120999142Y-128543428D01*
X120951523Y-128448190D01*
X120903904Y-128400571D01*
X120808666Y-128352952D01*
X121951523Y-128924380D02*
X121380095Y-128924380D01*
X121665809Y-128924380D02*
X121665809Y-127924380D01*
X121570571Y-128067238D01*
X121475333Y-128162476D01*
X121380095Y-128210095D01*
X122332476Y-128019619D02*
X122380095Y-127972000D01*
X122475333Y-127924380D01*
X122713428Y-127924380D01*
X122808666Y-127972000D01*
X122856285Y-128019619D01*
X122903904Y-128114857D01*
X122903904Y-128210095D01*
X122856285Y-128352952D01*
X122284857Y-128924380D01*
X122903904Y-128924380D01*
X123665809Y-128400571D02*
X123808666Y-128448190D01*
X123856285Y-128495809D01*
X123903904Y-128591047D01*
X123903904Y-128733904D01*
X123856285Y-128829142D01*
X123808666Y-128876761D01*
X123713428Y-128924380D01*
X123332476Y-128924380D01*
X123332476Y-127924380D01*
X123665809Y-127924380D01*
X123761047Y-127972000D01*
X123808666Y-128019619D01*
X123856285Y-128114857D01*
X123856285Y-128210095D01*
X123808666Y-128305333D01*
X123761047Y-128352952D01*
X123665809Y-128400571D01*
X123332476Y-128400571D01*
G04 #@! TO.C,U33*
X117332476Y-118174380D02*
X117570571Y-119174380D01*
X117761047Y-118460095D01*
X117951523Y-119174380D01*
X118189619Y-118174380D01*
X118522952Y-119126761D02*
X118665809Y-119174380D01*
X118903904Y-119174380D01*
X118999142Y-119126761D01*
X119046761Y-119079142D01*
X119094380Y-118983904D01*
X119094380Y-118888666D01*
X119046761Y-118793428D01*
X118999142Y-118745809D01*
X118903904Y-118698190D01*
X118713428Y-118650571D01*
X118618190Y-118602952D01*
X118570571Y-118555333D01*
X118522952Y-118460095D01*
X118522952Y-118364857D01*
X118570571Y-118269619D01*
X118618190Y-118222000D01*
X118713428Y-118174380D01*
X118951523Y-118174380D01*
X119094380Y-118222000D01*
X119475333Y-118269619D02*
X119522952Y-118222000D01*
X119618190Y-118174380D01*
X119856285Y-118174380D01*
X119951523Y-118222000D01*
X119999142Y-118269619D01*
X120046761Y-118364857D01*
X120046761Y-118460095D01*
X119999142Y-118602952D01*
X119427714Y-119174380D01*
X120046761Y-119174380D01*
X120618190Y-118602952D02*
X120522952Y-118555333D01*
X120475333Y-118507714D01*
X120427714Y-118412476D01*
X120427714Y-118364857D01*
X120475333Y-118269619D01*
X120522952Y-118222000D01*
X120618190Y-118174380D01*
X120808666Y-118174380D01*
X120903904Y-118222000D01*
X120951523Y-118269619D01*
X120999142Y-118364857D01*
X120999142Y-118412476D01*
X120951523Y-118507714D01*
X120903904Y-118555333D01*
X120808666Y-118602952D01*
X120618190Y-118602952D01*
X120522952Y-118650571D01*
X120475333Y-118698190D01*
X120427714Y-118793428D01*
X120427714Y-118983904D01*
X120475333Y-119079142D01*
X120522952Y-119126761D01*
X120618190Y-119174380D01*
X120808666Y-119174380D01*
X120903904Y-119126761D01*
X120951523Y-119079142D01*
X120999142Y-118983904D01*
X120999142Y-118793428D01*
X120951523Y-118698190D01*
X120903904Y-118650571D01*
X120808666Y-118602952D01*
X121951523Y-119174380D02*
X121380095Y-119174380D01*
X121665809Y-119174380D02*
X121665809Y-118174380D01*
X121570571Y-118317238D01*
X121475333Y-118412476D01*
X121380095Y-118460095D01*
X122332476Y-118269619D02*
X122380095Y-118222000D01*
X122475333Y-118174380D01*
X122713428Y-118174380D01*
X122808666Y-118222000D01*
X122856285Y-118269619D01*
X122903904Y-118364857D01*
X122903904Y-118460095D01*
X122856285Y-118602952D01*
X122284857Y-119174380D01*
X122903904Y-119174380D01*
X123665809Y-118650571D02*
X123808666Y-118698190D01*
X123856285Y-118745809D01*
X123903904Y-118841047D01*
X123903904Y-118983904D01*
X123856285Y-119079142D01*
X123808666Y-119126761D01*
X123713428Y-119174380D01*
X123332476Y-119174380D01*
X123332476Y-118174380D01*
X123665809Y-118174380D01*
X123761047Y-118222000D01*
X123808666Y-118269619D01*
X123856285Y-118364857D01*
X123856285Y-118460095D01*
X123808666Y-118555333D01*
X123761047Y-118602952D01*
X123665809Y-118650571D01*
X123332476Y-118650571D01*
G04 #@! TO.C,U34*
X117332476Y-108424380D02*
X117570571Y-109424380D01*
X117761047Y-108710095D01*
X117951523Y-109424380D01*
X118189619Y-108424380D01*
X118522952Y-109376761D02*
X118665809Y-109424380D01*
X118903904Y-109424380D01*
X118999142Y-109376761D01*
X119046761Y-109329142D01*
X119094380Y-109233904D01*
X119094380Y-109138666D01*
X119046761Y-109043428D01*
X118999142Y-108995809D01*
X118903904Y-108948190D01*
X118713428Y-108900571D01*
X118618190Y-108852952D01*
X118570571Y-108805333D01*
X118522952Y-108710095D01*
X118522952Y-108614857D01*
X118570571Y-108519619D01*
X118618190Y-108472000D01*
X118713428Y-108424380D01*
X118951523Y-108424380D01*
X119094380Y-108472000D01*
X119475333Y-108519619D02*
X119522952Y-108472000D01*
X119618190Y-108424380D01*
X119856285Y-108424380D01*
X119951523Y-108472000D01*
X119999142Y-108519619D01*
X120046761Y-108614857D01*
X120046761Y-108710095D01*
X119999142Y-108852952D01*
X119427714Y-109424380D01*
X120046761Y-109424380D01*
X120618190Y-108852952D02*
X120522952Y-108805333D01*
X120475333Y-108757714D01*
X120427714Y-108662476D01*
X120427714Y-108614857D01*
X120475333Y-108519619D01*
X120522952Y-108472000D01*
X120618190Y-108424380D01*
X120808666Y-108424380D01*
X120903904Y-108472000D01*
X120951523Y-108519619D01*
X120999142Y-108614857D01*
X120999142Y-108662476D01*
X120951523Y-108757714D01*
X120903904Y-108805333D01*
X120808666Y-108852952D01*
X120618190Y-108852952D01*
X120522952Y-108900571D01*
X120475333Y-108948190D01*
X120427714Y-109043428D01*
X120427714Y-109233904D01*
X120475333Y-109329142D01*
X120522952Y-109376761D01*
X120618190Y-109424380D01*
X120808666Y-109424380D01*
X120903904Y-109376761D01*
X120951523Y-109329142D01*
X120999142Y-109233904D01*
X120999142Y-109043428D01*
X120951523Y-108948190D01*
X120903904Y-108900571D01*
X120808666Y-108852952D01*
X121951523Y-109424380D02*
X121380095Y-109424380D01*
X121665809Y-109424380D02*
X121665809Y-108424380D01*
X121570571Y-108567238D01*
X121475333Y-108662476D01*
X121380095Y-108710095D01*
X122332476Y-108519619D02*
X122380095Y-108472000D01*
X122475333Y-108424380D01*
X122713428Y-108424380D01*
X122808666Y-108472000D01*
X122856285Y-108519619D01*
X122903904Y-108614857D01*
X122903904Y-108710095D01*
X122856285Y-108852952D01*
X122284857Y-109424380D01*
X122903904Y-109424380D01*
X123665809Y-108900571D02*
X123808666Y-108948190D01*
X123856285Y-108995809D01*
X123903904Y-109091047D01*
X123903904Y-109233904D01*
X123856285Y-109329142D01*
X123808666Y-109376761D01*
X123713428Y-109424380D01*
X123332476Y-109424380D01*
X123332476Y-108424380D01*
X123665809Y-108424380D01*
X123761047Y-108472000D01*
X123808666Y-108519619D01*
X123856285Y-108614857D01*
X123856285Y-108710095D01*
X123808666Y-108805333D01*
X123761047Y-108852952D01*
X123665809Y-108900571D01*
X123332476Y-108900571D01*
G04 #@! TO.C,U35*
X117332476Y-98674880D02*
X117570571Y-99674880D01*
X117761047Y-98960595D01*
X117951523Y-99674880D01*
X118189619Y-98674880D01*
X118522952Y-99627261D02*
X118665809Y-99674880D01*
X118903904Y-99674880D01*
X118999142Y-99627261D01*
X119046761Y-99579642D01*
X119094380Y-99484404D01*
X119094380Y-99389166D01*
X119046761Y-99293928D01*
X118999142Y-99246309D01*
X118903904Y-99198690D01*
X118713428Y-99151071D01*
X118618190Y-99103452D01*
X118570571Y-99055833D01*
X118522952Y-98960595D01*
X118522952Y-98865357D01*
X118570571Y-98770119D01*
X118618190Y-98722500D01*
X118713428Y-98674880D01*
X118951523Y-98674880D01*
X119094380Y-98722500D01*
X119475333Y-98770119D02*
X119522952Y-98722500D01*
X119618190Y-98674880D01*
X119856285Y-98674880D01*
X119951523Y-98722500D01*
X119999142Y-98770119D01*
X120046761Y-98865357D01*
X120046761Y-98960595D01*
X119999142Y-99103452D01*
X119427714Y-99674880D01*
X120046761Y-99674880D01*
X120618190Y-99103452D02*
X120522952Y-99055833D01*
X120475333Y-99008214D01*
X120427714Y-98912976D01*
X120427714Y-98865357D01*
X120475333Y-98770119D01*
X120522952Y-98722500D01*
X120618190Y-98674880D01*
X120808666Y-98674880D01*
X120903904Y-98722500D01*
X120951523Y-98770119D01*
X120999142Y-98865357D01*
X120999142Y-98912976D01*
X120951523Y-99008214D01*
X120903904Y-99055833D01*
X120808666Y-99103452D01*
X120618190Y-99103452D01*
X120522952Y-99151071D01*
X120475333Y-99198690D01*
X120427714Y-99293928D01*
X120427714Y-99484404D01*
X120475333Y-99579642D01*
X120522952Y-99627261D01*
X120618190Y-99674880D01*
X120808666Y-99674880D01*
X120903904Y-99627261D01*
X120951523Y-99579642D01*
X120999142Y-99484404D01*
X120999142Y-99293928D01*
X120951523Y-99198690D01*
X120903904Y-99151071D01*
X120808666Y-99103452D01*
X121951523Y-99674880D02*
X121380095Y-99674880D01*
X121665809Y-99674880D02*
X121665809Y-98674880D01*
X121570571Y-98817738D01*
X121475333Y-98912976D01*
X121380095Y-98960595D01*
X122332476Y-98770119D02*
X122380095Y-98722500D01*
X122475333Y-98674880D01*
X122713428Y-98674880D01*
X122808666Y-98722500D01*
X122856285Y-98770119D01*
X122903904Y-98865357D01*
X122903904Y-98960595D01*
X122856285Y-99103452D01*
X122284857Y-99674880D01*
X122903904Y-99674880D01*
X123665809Y-99151071D02*
X123808666Y-99198690D01*
X123856285Y-99246309D01*
X123903904Y-99341547D01*
X123903904Y-99484404D01*
X123856285Y-99579642D01*
X123808666Y-99627261D01*
X123713428Y-99674880D01*
X123332476Y-99674880D01*
X123332476Y-98674880D01*
X123665809Y-98674880D01*
X123761047Y-98722500D01*
X123808666Y-98770119D01*
X123856285Y-98865357D01*
X123856285Y-98960595D01*
X123808666Y-99055833D01*
X123761047Y-99103452D01*
X123665809Y-99151071D01*
X123332476Y-99151071D01*
G04 #@! TO.C,U36*
X117332476Y-88674880D02*
X117570571Y-89674880D01*
X117761047Y-88960595D01*
X117951523Y-89674880D01*
X118189619Y-88674880D01*
X118522952Y-89627261D02*
X118665809Y-89674880D01*
X118903904Y-89674880D01*
X118999142Y-89627261D01*
X119046761Y-89579642D01*
X119094380Y-89484404D01*
X119094380Y-89389166D01*
X119046761Y-89293928D01*
X118999142Y-89246309D01*
X118903904Y-89198690D01*
X118713428Y-89151071D01*
X118618190Y-89103452D01*
X118570571Y-89055833D01*
X118522952Y-88960595D01*
X118522952Y-88865357D01*
X118570571Y-88770119D01*
X118618190Y-88722500D01*
X118713428Y-88674880D01*
X118951523Y-88674880D01*
X119094380Y-88722500D01*
X119475333Y-88770119D02*
X119522952Y-88722500D01*
X119618190Y-88674880D01*
X119856285Y-88674880D01*
X119951523Y-88722500D01*
X119999142Y-88770119D01*
X120046761Y-88865357D01*
X120046761Y-88960595D01*
X119999142Y-89103452D01*
X119427714Y-89674880D01*
X120046761Y-89674880D01*
X120618190Y-89103452D02*
X120522952Y-89055833D01*
X120475333Y-89008214D01*
X120427714Y-88912976D01*
X120427714Y-88865357D01*
X120475333Y-88770119D01*
X120522952Y-88722500D01*
X120618190Y-88674880D01*
X120808666Y-88674880D01*
X120903904Y-88722500D01*
X120951523Y-88770119D01*
X120999142Y-88865357D01*
X120999142Y-88912976D01*
X120951523Y-89008214D01*
X120903904Y-89055833D01*
X120808666Y-89103452D01*
X120618190Y-89103452D01*
X120522952Y-89151071D01*
X120475333Y-89198690D01*
X120427714Y-89293928D01*
X120427714Y-89484404D01*
X120475333Y-89579642D01*
X120522952Y-89627261D01*
X120618190Y-89674880D01*
X120808666Y-89674880D01*
X120903904Y-89627261D01*
X120951523Y-89579642D01*
X120999142Y-89484404D01*
X120999142Y-89293928D01*
X120951523Y-89198690D01*
X120903904Y-89151071D01*
X120808666Y-89103452D01*
X121951523Y-89674880D02*
X121380095Y-89674880D01*
X121665809Y-89674880D02*
X121665809Y-88674880D01*
X121570571Y-88817738D01*
X121475333Y-88912976D01*
X121380095Y-88960595D01*
X122332476Y-88770119D02*
X122380095Y-88722500D01*
X122475333Y-88674880D01*
X122713428Y-88674880D01*
X122808666Y-88722500D01*
X122856285Y-88770119D01*
X122903904Y-88865357D01*
X122903904Y-88960595D01*
X122856285Y-89103452D01*
X122284857Y-89674880D01*
X122903904Y-89674880D01*
X123665809Y-89151071D02*
X123808666Y-89198690D01*
X123856285Y-89246309D01*
X123903904Y-89341547D01*
X123903904Y-89484404D01*
X123856285Y-89579642D01*
X123808666Y-89627261D01*
X123713428Y-89674880D01*
X123332476Y-89674880D01*
X123332476Y-88674880D01*
X123665809Y-88674880D01*
X123761047Y-88722500D01*
X123808666Y-88770119D01*
X123856285Y-88865357D01*
X123856285Y-88960595D01*
X123808666Y-89055833D01*
X123761047Y-89103452D01*
X123665809Y-89151071D01*
X123332476Y-89151071D01*
G04 #@! TO.C,U37*
X117502476Y-79674880D02*
X117740571Y-80674880D01*
X117931047Y-79960595D01*
X118121523Y-80674880D01*
X118359619Y-79674880D01*
X118692952Y-80627261D02*
X118835809Y-80674880D01*
X119073904Y-80674880D01*
X119169142Y-80627261D01*
X119216761Y-80579642D01*
X119264380Y-80484404D01*
X119264380Y-80389166D01*
X119216761Y-80293928D01*
X119169142Y-80246309D01*
X119073904Y-80198690D01*
X118883428Y-80151071D01*
X118788190Y-80103452D01*
X118740571Y-80055833D01*
X118692952Y-79960595D01*
X118692952Y-79865357D01*
X118740571Y-79770119D01*
X118788190Y-79722500D01*
X118883428Y-79674880D01*
X119121523Y-79674880D01*
X119264380Y-79722500D01*
X119645333Y-79770119D02*
X119692952Y-79722500D01*
X119788190Y-79674880D01*
X120026285Y-79674880D01*
X120121523Y-79722500D01*
X120169142Y-79770119D01*
X120216761Y-79865357D01*
X120216761Y-79960595D01*
X120169142Y-80103452D01*
X119597714Y-80674880D01*
X120216761Y-80674880D01*
X120788190Y-80103452D02*
X120692952Y-80055833D01*
X120645333Y-80008214D01*
X120597714Y-79912976D01*
X120597714Y-79865357D01*
X120645333Y-79770119D01*
X120692952Y-79722500D01*
X120788190Y-79674880D01*
X120978666Y-79674880D01*
X121073904Y-79722500D01*
X121121523Y-79770119D01*
X121169142Y-79865357D01*
X121169142Y-79912976D01*
X121121523Y-80008214D01*
X121073904Y-80055833D01*
X120978666Y-80103452D01*
X120788190Y-80103452D01*
X120692952Y-80151071D01*
X120645333Y-80198690D01*
X120597714Y-80293928D01*
X120597714Y-80484404D01*
X120645333Y-80579642D01*
X120692952Y-80627261D01*
X120788190Y-80674880D01*
X120978666Y-80674880D01*
X121073904Y-80627261D01*
X121121523Y-80579642D01*
X121169142Y-80484404D01*
X121169142Y-80293928D01*
X121121523Y-80198690D01*
X121073904Y-80151071D01*
X120978666Y-80103452D01*
X122121523Y-80674880D02*
X121550095Y-80674880D01*
X121835809Y-80674880D02*
X121835809Y-79674880D01*
X121740571Y-79817738D01*
X121645333Y-79912976D01*
X121550095Y-79960595D01*
X122502476Y-79770119D02*
X122550095Y-79722500D01*
X122645333Y-79674880D01*
X122883428Y-79674880D01*
X122978666Y-79722500D01*
X123026285Y-79770119D01*
X123073904Y-79865357D01*
X123073904Y-79960595D01*
X123026285Y-80103452D01*
X122454857Y-80674880D01*
X123073904Y-80674880D01*
X123835809Y-80151071D02*
X123978666Y-80198690D01*
X124026285Y-80246309D01*
X124073904Y-80341547D01*
X124073904Y-80484404D01*
X124026285Y-80579642D01*
X123978666Y-80627261D01*
X123883428Y-80674880D01*
X123502476Y-80674880D01*
X123502476Y-79674880D01*
X123835809Y-79674880D01*
X123931047Y-79722500D01*
X123978666Y-79770119D01*
X124026285Y-79865357D01*
X124026285Y-79960595D01*
X123978666Y-80055833D01*
X123931047Y-80103452D01*
X123835809Y-80151071D01*
X123502476Y-80151071D01*
G04 #@! TO.C,U38*
X109002476Y-79674880D02*
X109240571Y-80674880D01*
X109431047Y-79960595D01*
X109621523Y-80674880D01*
X109859619Y-79674880D01*
X110192952Y-80627261D02*
X110335809Y-80674880D01*
X110573904Y-80674880D01*
X110669142Y-80627261D01*
X110716761Y-80579642D01*
X110764380Y-80484404D01*
X110764380Y-80389166D01*
X110716761Y-80293928D01*
X110669142Y-80246309D01*
X110573904Y-80198690D01*
X110383428Y-80151071D01*
X110288190Y-80103452D01*
X110240571Y-80055833D01*
X110192952Y-79960595D01*
X110192952Y-79865357D01*
X110240571Y-79770119D01*
X110288190Y-79722500D01*
X110383428Y-79674880D01*
X110621523Y-79674880D01*
X110764380Y-79722500D01*
X111145333Y-79770119D02*
X111192952Y-79722500D01*
X111288190Y-79674880D01*
X111526285Y-79674880D01*
X111621523Y-79722500D01*
X111669142Y-79770119D01*
X111716761Y-79865357D01*
X111716761Y-79960595D01*
X111669142Y-80103452D01*
X111097714Y-80674880D01*
X111716761Y-80674880D01*
X112288190Y-80103452D02*
X112192952Y-80055833D01*
X112145333Y-80008214D01*
X112097714Y-79912976D01*
X112097714Y-79865357D01*
X112145333Y-79770119D01*
X112192952Y-79722500D01*
X112288190Y-79674880D01*
X112478666Y-79674880D01*
X112573904Y-79722500D01*
X112621523Y-79770119D01*
X112669142Y-79865357D01*
X112669142Y-79912976D01*
X112621523Y-80008214D01*
X112573904Y-80055833D01*
X112478666Y-80103452D01*
X112288190Y-80103452D01*
X112192952Y-80151071D01*
X112145333Y-80198690D01*
X112097714Y-80293928D01*
X112097714Y-80484404D01*
X112145333Y-80579642D01*
X112192952Y-80627261D01*
X112288190Y-80674880D01*
X112478666Y-80674880D01*
X112573904Y-80627261D01*
X112621523Y-80579642D01*
X112669142Y-80484404D01*
X112669142Y-80293928D01*
X112621523Y-80198690D01*
X112573904Y-80151071D01*
X112478666Y-80103452D01*
X113621523Y-80674880D02*
X113050095Y-80674880D01*
X113335809Y-80674880D02*
X113335809Y-79674880D01*
X113240571Y-79817738D01*
X113145333Y-79912976D01*
X113050095Y-79960595D01*
X114002476Y-79770119D02*
X114050095Y-79722500D01*
X114145333Y-79674880D01*
X114383428Y-79674880D01*
X114478666Y-79722500D01*
X114526285Y-79770119D01*
X114573904Y-79865357D01*
X114573904Y-79960595D01*
X114526285Y-80103452D01*
X113954857Y-80674880D01*
X114573904Y-80674880D01*
X115335809Y-80151071D02*
X115478666Y-80198690D01*
X115526285Y-80246309D01*
X115573904Y-80341547D01*
X115573904Y-80484404D01*
X115526285Y-80579642D01*
X115478666Y-80627261D01*
X115383428Y-80674880D01*
X115002476Y-80674880D01*
X115002476Y-79674880D01*
X115335809Y-79674880D01*
X115431047Y-79722500D01*
X115478666Y-79770119D01*
X115526285Y-79865357D01*
X115526285Y-79960595D01*
X115478666Y-80055833D01*
X115431047Y-80103452D01*
X115335809Y-80151071D01*
X115002476Y-80151071D01*
G04 #@! TO.C,U39*
X100252476Y-79674880D02*
X100490571Y-80674880D01*
X100681047Y-79960595D01*
X100871523Y-80674880D01*
X101109619Y-79674880D01*
X101442952Y-80627261D02*
X101585809Y-80674880D01*
X101823904Y-80674880D01*
X101919142Y-80627261D01*
X101966761Y-80579642D01*
X102014380Y-80484404D01*
X102014380Y-80389166D01*
X101966761Y-80293928D01*
X101919142Y-80246309D01*
X101823904Y-80198690D01*
X101633428Y-80151071D01*
X101538190Y-80103452D01*
X101490571Y-80055833D01*
X101442952Y-79960595D01*
X101442952Y-79865357D01*
X101490571Y-79770119D01*
X101538190Y-79722500D01*
X101633428Y-79674880D01*
X101871523Y-79674880D01*
X102014380Y-79722500D01*
X102395333Y-79770119D02*
X102442952Y-79722500D01*
X102538190Y-79674880D01*
X102776285Y-79674880D01*
X102871523Y-79722500D01*
X102919142Y-79770119D01*
X102966761Y-79865357D01*
X102966761Y-79960595D01*
X102919142Y-80103452D01*
X102347714Y-80674880D01*
X102966761Y-80674880D01*
X103538190Y-80103452D02*
X103442952Y-80055833D01*
X103395333Y-80008214D01*
X103347714Y-79912976D01*
X103347714Y-79865357D01*
X103395333Y-79770119D01*
X103442952Y-79722500D01*
X103538190Y-79674880D01*
X103728666Y-79674880D01*
X103823904Y-79722500D01*
X103871523Y-79770119D01*
X103919142Y-79865357D01*
X103919142Y-79912976D01*
X103871523Y-80008214D01*
X103823904Y-80055833D01*
X103728666Y-80103452D01*
X103538190Y-80103452D01*
X103442952Y-80151071D01*
X103395333Y-80198690D01*
X103347714Y-80293928D01*
X103347714Y-80484404D01*
X103395333Y-80579642D01*
X103442952Y-80627261D01*
X103538190Y-80674880D01*
X103728666Y-80674880D01*
X103823904Y-80627261D01*
X103871523Y-80579642D01*
X103919142Y-80484404D01*
X103919142Y-80293928D01*
X103871523Y-80198690D01*
X103823904Y-80151071D01*
X103728666Y-80103452D01*
X104871523Y-80674880D02*
X104300095Y-80674880D01*
X104585809Y-80674880D02*
X104585809Y-79674880D01*
X104490571Y-79817738D01*
X104395333Y-79912976D01*
X104300095Y-79960595D01*
X105252476Y-79770119D02*
X105300095Y-79722500D01*
X105395333Y-79674880D01*
X105633428Y-79674880D01*
X105728666Y-79722500D01*
X105776285Y-79770119D01*
X105823904Y-79865357D01*
X105823904Y-79960595D01*
X105776285Y-80103452D01*
X105204857Y-80674880D01*
X105823904Y-80674880D01*
X106585809Y-80151071D02*
X106728666Y-80198690D01*
X106776285Y-80246309D01*
X106823904Y-80341547D01*
X106823904Y-80484404D01*
X106776285Y-80579642D01*
X106728666Y-80627261D01*
X106633428Y-80674880D01*
X106252476Y-80674880D01*
X106252476Y-79674880D01*
X106585809Y-79674880D01*
X106681047Y-79722500D01*
X106728666Y-79770119D01*
X106776285Y-79865357D01*
X106776285Y-79960595D01*
X106728666Y-80055833D01*
X106681047Y-80103452D01*
X106585809Y-80151071D01*
X106252476Y-80151071D01*
G04 #@! TO.C,U14*
X161877476Y-90764880D02*
X162115571Y-91764880D01*
X162306047Y-91050595D01*
X162496523Y-91764880D01*
X162734619Y-90764880D01*
X163067952Y-91717261D02*
X163210809Y-91764880D01*
X163448904Y-91764880D01*
X163544142Y-91717261D01*
X163591761Y-91669642D01*
X163639380Y-91574404D01*
X163639380Y-91479166D01*
X163591761Y-91383928D01*
X163544142Y-91336309D01*
X163448904Y-91288690D01*
X163258428Y-91241071D01*
X163163190Y-91193452D01*
X163115571Y-91145833D01*
X163067952Y-91050595D01*
X163067952Y-90955357D01*
X163115571Y-90860119D01*
X163163190Y-90812500D01*
X163258428Y-90764880D01*
X163496523Y-90764880D01*
X163639380Y-90812500D01*
X164020333Y-90860119D02*
X164067952Y-90812500D01*
X164163190Y-90764880D01*
X164401285Y-90764880D01*
X164496523Y-90812500D01*
X164544142Y-90860119D01*
X164591761Y-90955357D01*
X164591761Y-91050595D01*
X164544142Y-91193452D01*
X163972714Y-91764880D01*
X164591761Y-91764880D01*
X165163190Y-91193452D02*
X165067952Y-91145833D01*
X165020333Y-91098214D01*
X164972714Y-91002976D01*
X164972714Y-90955357D01*
X165020333Y-90860119D01*
X165067952Y-90812500D01*
X165163190Y-90764880D01*
X165353666Y-90764880D01*
X165448904Y-90812500D01*
X165496523Y-90860119D01*
X165544142Y-90955357D01*
X165544142Y-91002976D01*
X165496523Y-91098214D01*
X165448904Y-91145833D01*
X165353666Y-91193452D01*
X165163190Y-91193452D01*
X165067952Y-91241071D01*
X165020333Y-91288690D01*
X164972714Y-91383928D01*
X164972714Y-91574404D01*
X165020333Y-91669642D01*
X165067952Y-91717261D01*
X165163190Y-91764880D01*
X165353666Y-91764880D01*
X165448904Y-91717261D01*
X165496523Y-91669642D01*
X165544142Y-91574404D01*
X165544142Y-91383928D01*
X165496523Y-91288690D01*
X165448904Y-91241071D01*
X165353666Y-91193452D01*
X166496523Y-91764880D02*
X165925095Y-91764880D01*
X166210809Y-91764880D02*
X166210809Y-90764880D01*
X166115571Y-90907738D01*
X166020333Y-91002976D01*
X165925095Y-91050595D01*
X166877476Y-90860119D02*
X166925095Y-90812500D01*
X167020333Y-90764880D01*
X167258428Y-90764880D01*
X167353666Y-90812500D01*
X167401285Y-90860119D01*
X167448904Y-90955357D01*
X167448904Y-91050595D01*
X167401285Y-91193452D01*
X166829857Y-91764880D01*
X167448904Y-91764880D01*
X168210809Y-91241071D02*
X168353666Y-91288690D01*
X168401285Y-91336309D01*
X168448904Y-91431547D01*
X168448904Y-91574404D01*
X168401285Y-91669642D01*
X168353666Y-91717261D01*
X168258428Y-91764880D01*
X167877476Y-91764880D01*
X167877476Y-90764880D01*
X168210809Y-90764880D01*
X168306047Y-90812500D01*
X168353666Y-90860119D01*
X168401285Y-90955357D01*
X168401285Y-91050595D01*
X168353666Y-91145833D01*
X168306047Y-91193452D01*
X168210809Y-91241071D01*
X167877476Y-91241071D01*
G04 #@! TO.C,C3*
X126357142Y-138902380D02*
X126452380Y-138902380D01*
X126547619Y-138950000D01*
X126595238Y-138997619D01*
X126642857Y-139092857D01*
X126690476Y-139283333D01*
X126690476Y-139521428D01*
X126642857Y-139711904D01*
X126595238Y-139807142D01*
X126547619Y-139854761D01*
X126452380Y-139902380D01*
X126357142Y-139902380D01*
X126261904Y-139854761D01*
X126214285Y-139807142D01*
X126166666Y-139711904D01*
X126119047Y-139521428D01*
X126119047Y-139283333D01*
X126166666Y-139092857D01*
X126214285Y-138997619D01*
X126261904Y-138950000D01*
X126357142Y-138902380D01*
X127119047Y-139807142D02*
X127166666Y-139854761D01*
X127119047Y-139902380D01*
X127071428Y-139854761D01*
X127119047Y-139807142D01*
X127119047Y-139902380D01*
X128119047Y-139902380D02*
X127547619Y-139902380D01*
X127833333Y-139902380D02*
X127833333Y-138902380D01*
X127738095Y-139045238D01*
X127642857Y-139140476D01*
X127547619Y-139188095D01*
X128976190Y-139235714D02*
X128976190Y-139902380D01*
X128547619Y-139235714D02*
X128547619Y-139759523D01*
X128595238Y-139854761D01*
X128690476Y-139902380D01*
X128833333Y-139902380D01*
X128928571Y-139854761D01*
X128976190Y-139807142D01*
X129785714Y-139378571D02*
X129452380Y-139378571D01*
X129452380Y-139902380D02*
X129452380Y-138902380D01*
X129928571Y-138902380D01*
X127833333Y-143307142D02*
X127785714Y-143354761D01*
X127642857Y-143402380D01*
X127547619Y-143402380D01*
X127404761Y-143354761D01*
X127309523Y-143259523D01*
X127261904Y-143164285D01*
X127214285Y-142973809D01*
X127214285Y-142830952D01*
X127261904Y-142640476D01*
X127309523Y-142545238D01*
X127404761Y-142450000D01*
X127547619Y-142402380D01*
X127642857Y-142402380D01*
X127785714Y-142450000D01*
X127833333Y-142497619D01*
X128166666Y-142402380D02*
X128785714Y-142402380D01*
X128452380Y-142783333D01*
X128595238Y-142783333D01*
X128690476Y-142830952D01*
X128738095Y-142878571D01*
X128785714Y-142973809D01*
X128785714Y-143211904D01*
X128738095Y-143307142D01*
X128690476Y-143354761D01*
X128595238Y-143402380D01*
X128309523Y-143402380D01*
X128214285Y-143354761D01*
X128166666Y-143307142D01*
G04 #@! TO.C,C4*
X125607142Y-66452380D02*
X125702380Y-66452380D01*
X125797619Y-66500000D01*
X125845238Y-66547619D01*
X125892857Y-66642857D01*
X125940476Y-66833333D01*
X125940476Y-67071428D01*
X125892857Y-67261904D01*
X125845238Y-67357142D01*
X125797619Y-67404761D01*
X125702380Y-67452380D01*
X125607142Y-67452380D01*
X125511904Y-67404761D01*
X125464285Y-67357142D01*
X125416666Y-67261904D01*
X125369047Y-67071428D01*
X125369047Y-66833333D01*
X125416666Y-66642857D01*
X125464285Y-66547619D01*
X125511904Y-66500000D01*
X125607142Y-66452380D01*
X126369047Y-67357142D02*
X126416666Y-67404761D01*
X126369047Y-67452380D01*
X126321428Y-67404761D01*
X126369047Y-67357142D01*
X126369047Y-67452380D01*
X127369047Y-67452380D02*
X126797619Y-67452380D01*
X127083333Y-67452380D02*
X127083333Y-66452380D01*
X126988095Y-66595238D01*
X126892857Y-66690476D01*
X126797619Y-66738095D01*
X128226190Y-66785714D02*
X128226190Y-67452380D01*
X127797619Y-66785714D02*
X127797619Y-67309523D01*
X127845238Y-67404761D01*
X127940476Y-67452380D01*
X128083333Y-67452380D01*
X128178571Y-67404761D01*
X128226190Y-67357142D01*
X129035714Y-66928571D02*
X128702380Y-66928571D01*
X128702380Y-67452380D02*
X128702380Y-66452380D01*
X129178571Y-66452380D01*
X127083333Y-70857142D02*
X127035714Y-70904761D01*
X126892857Y-70952380D01*
X126797619Y-70952380D01*
X126654761Y-70904761D01*
X126559523Y-70809523D01*
X126511904Y-70714285D01*
X126464285Y-70523809D01*
X126464285Y-70380952D01*
X126511904Y-70190476D01*
X126559523Y-70095238D01*
X126654761Y-70000000D01*
X126797619Y-69952380D01*
X126892857Y-69952380D01*
X127035714Y-70000000D01*
X127083333Y-70047619D01*
X127940476Y-70285714D02*
X127940476Y-70952380D01*
X127702380Y-69904761D02*
X127464285Y-70619047D01*
X128083333Y-70619047D01*
G04 #@! TO.C,C5*
X94877142Y-84755680D02*
X94972380Y-84755680D01*
X95067619Y-84803300D01*
X95115238Y-84850919D01*
X95162857Y-84946157D01*
X95210476Y-85136633D01*
X95210476Y-85374728D01*
X95162857Y-85565204D01*
X95115238Y-85660442D01*
X95067619Y-85708061D01*
X94972380Y-85755680D01*
X94877142Y-85755680D01*
X94781904Y-85708061D01*
X94734285Y-85660442D01*
X94686666Y-85565204D01*
X94639047Y-85374728D01*
X94639047Y-85136633D01*
X94686666Y-84946157D01*
X94734285Y-84850919D01*
X94781904Y-84803300D01*
X94877142Y-84755680D01*
X95639047Y-85660442D02*
X95686666Y-85708061D01*
X95639047Y-85755680D01*
X95591428Y-85708061D01*
X95639047Y-85660442D01*
X95639047Y-85755680D01*
X96639047Y-85755680D02*
X96067619Y-85755680D01*
X96353333Y-85755680D02*
X96353333Y-84755680D01*
X96258095Y-84898538D01*
X96162857Y-84993776D01*
X96067619Y-85041395D01*
X97496190Y-85089014D02*
X97496190Y-85755680D01*
X97067619Y-85089014D02*
X97067619Y-85612823D01*
X97115238Y-85708061D01*
X97210476Y-85755680D01*
X97353333Y-85755680D01*
X97448571Y-85708061D01*
X97496190Y-85660442D01*
X98305714Y-85231871D02*
X97972380Y-85231871D01*
X97972380Y-85755680D02*
X97972380Y-84755680D01*
X98448571Y-84755680D01*
X96353333Y-82160442D02*
X96305714Y-82208061D01*
X96162857Y-82255680D01*
X96067619Y-82255680D01*
X95924761Y-82208061D01*
X95829523Y-82112823D01*
X95781904Y-82017585D01*
X95734285Y-81827109D01*
X95734285Y-81684252D01*
X95781904Y-81493776D01*
X95829523Y-81398538D01*
X95924761Y-81303300D01*
X96067619Y-81255680D01*
X96162857Y-81255680D01*
X96305714Y-81303300D01*
X96353333Y-81350919D01*
X97258095Y-81255680D02*
X96781904Y-81255680D01*
X96734285Y-81731871D01*
X96781904Y-81684252D01*
X96877142Y-81636633D01*
X97115238Y-81636633D01*
X97210476Y-81684252D01*
X97258095Y-81731871D01*
X97305714Y-81827109D01*
X97305714Y-82065204D01*
X97258095Y-82160442D01*
X97210476Y-82208061D01*
X97115238Y-82255680D01*
X96877142Y-82255680D01*
X96781904Y-82208061D01*
X96734285Y-82160442D01*
G04 #@! TO.C,C6*
X125202380Y-86142857D02*
X125202380Y-86047619D01*
X125250000Y-85952380D01*
X125297619Y-85904761D01*
X125392857Y-85857142D01*
X125583333Y-85809523D01*
X125821428Y-85809523D01*
X126011904Y-85857142D01*
X126107142Y-85904761D01*
X126154761Y-85952380D01*
X126202380Y-86047619D01*
X126202380Y-86142857D01*
X126154761Y-86238095D01*
X126107142Y-86285714D01*
X126011904Y-86333333D01*
X125821428Y-86380952D01*
X125583333Y-86380952D01*
X125392857Y-86333333D01*
X125297619Y-86285714D01*
X125250000Y-86238095D01*
X125202380Y-86142857D01*
X126107142Y-85380952D02*
X126154761Y-85333333D01*
X126202380Y-85380952D01*
X126154761Y-85428571D01*
X126107142Y-85380952D01*
X126202380Y-85380952D01*
X126202380Y-84380952D02*
X126202380Y-84952380D01*
X126202380Y-84666666D02*
X125202380Y-84666666D01*
X125345238Y-84761904D01*
X125440476Y-84857142D01*
X125488095Y-84952380D01*
X125535714Y-83523809D02*
X126202380Y-83523809D01*
X125535714Y-83952380D02*
X126059523Y-83952380D01*
X126154761Y-83904761D01*
X126202380Y-83809523D01*
X126202380Y-83666666D01*
X126154761Y-83571428D01*
X126107142Y-83523809D01*
X125678571Y-82714285D02*
X125678571Y-83047619D01*
X126202380Y-83047619D02*
X125202380Y-83047619D01*
X125202380Y-82571428D01*
X129607142Y-84666666D02*
X129654761Y-84714285D01*
X129702380Y-84857142D01*
X129702380Y-84952380D01*
X129654761Y-85095238D01*
X129559523Y-85190476D01*
X129464285Y-85238095D01*
X129273809Y-85285714D01*
X129130952Y-85285714D01*
X128940476Y-85238095D01*
X128845238Y-85190476D01*
X128750000Y-85095238D01*
X128702380Y-84952380D01*
X128702380Y-84857142D01*
X128750000Y-84714285D01*
X128797619Y-84666666D01*
X128702380Y-83809523D02*
X128702380Y-84000000D01*
X128750000Y-84095238D01*
X128797619Y-84142857D01*
X128940476Y-84238095D01*
X129130952Y-84285714D01*
X129511904Y-84285714D01*
X129607142Y-84238095D01*
X129654761Y-84190476D01*
X129702380Y-84095238D01*
X129702380Y-83904761D01*
X129654761Y-83809523D01*
X129607142Y-83761904D01*
X129511904Y-83714285D01*
X129273809Y-83714285D01*
X129178571Y-83761904D01*
X129130952Y-83809523D01*
X129083333Y-83904761D01*
X129083333Y-84095238D01*
X129130952Y-84190476D01*
X129178571Y-84238095D01*
X129273809Y-84285714D01*
G04 #@! TO.C,C7*
X156853142Y-81103280D02*
X156948380Y-81103280D01*
X157043619Y-81150900D01*
X157091238Y-81198519D01*
X157138857Y-81293757D01*
X157186476Y-81484233D01*
X157186476Y-81722328D01*
X157138857Y-81912804D01*
X157091238Y-82008042D01*
X157043619Y-82055661D01*
X156948380Y-82103280D01*
X156853142Y-82103280D01*
X156757904Y-82055661D01*
X156710285Y-82008042D01*
X156662666Y-81912804D01*
X156615047Y-81722328D01*
X156615047Y-81484233D01*
X156662666Y-81293757D01*
X156710285Y-81198519D01*
X156757904Y-81150900D01*
X156853142Y-81103280D01*
X157615047Y-82008042D02*
X157662666Y-82055661D01*
X157615047Y-82103280D01*
X157567428Y-82055661D01*
X157615047Y-82008042D01*
X157615047Y-82103280D01*
X158615047Y-82103280D02*
X158043619Y-82103280D01*
X158329333Y-82103280D02*
X158329333Y-81103280D01*
X158234095Y-81246138D01*
X158138857Y-81341376D01*
X158043619Y-81388995D01*
X159472190Y-81436614D02*
X159472190Y-82103280D01*
X159043619Y-81436614D02*
X159043619Y-81960423D01*
X159091238Y-82055661D01*
X159186476Y-82103280D01*
X159329333Y-82103280D01*
X159424571Y-82055661D01*
X159472190Y-82008042D01*
X160281714Y-81579471D02*
X159948380Y-81579471D01*
X159948380Y-82103280D02*
X159948380Y-81103280D01*
X160424571Y-81103280D01*
X158329333Y-85508042D02*
X158281714Y-85555661D01*
X158138857Y-85603280D01*
X158043619Y-85603280D01*
X157900761Y-85555661D01*
X157805523Y-85460423D01*
X157757904Y-85365185D01*
X157710285Y-85174709D01*
X157710285Y-85031852D01*
X157757904Y-84841376D01*
X157805523Y-84746138D01*
X157900761Y-84650900D01*
X158043619Y-84603280D01*
X158138857Y-84603280D01*
X158281714Y-84650900D01*
X158329333Y-84698519D01*
X158662666Y-84603280D02*
X159329333Y-84603280D01*
X158900761Y-85603280D01*
G04 #@! TO.C,C8*
X128802380Y-135392857D02*
X128802380Y-135297619D01*
X128850000Y-135202380D01*
X128897619Y-135154761D01*
X128992857Y-135107142D01*
X129183333Y-135059523D01*
X129421428Y-135059523D01*
X129611904Y-135107142D01*
X129707142Y-135154761D01*
X129754761Y-135202380D01*
X129802380Y-135297619D01*
X129802380Y-135392857D01*
X129754761Y-135488095D01*
X129707142Y-135535714D01*
X129611904Y-135583333D01*
X129421428Y-135630952D01*
X129183333Y-135630952D01*
X128992857Y-135583333D01*
X128897619Y-135535714D01*
X128850000Y-135488095D01*
X128802380Y-135392857D01*
X129707142Y-134630952D02*
X129754761Y-134583333D01*
X129802380Y-134630952D01*
X129754761Y-134678571D01*
X129707142Y-134630952D01*
X129802380Y-134630952D01*
X129802380Y-133630952D02*
X129802380Y-134202380D01*
X129802380Y-133916666D02*
X128802380Y-133916666D01*
X128945238Y-134011904D01*
X129040476Y-134107142D01*
X129088095Y-134202380D01*
X129135714Y-132773809D02*
X129802380Y-132773809D01*
X129135714Y-133202380D02*
X129659523Y-133202380D01*
X129754761Y-133154761D01*
X129802380Y-133059523D01*
X129802380Y-132916666D01*
X129754761Y-132821428D01*
X129707142Y-132773809D01*
X129278571Y-131964285D02*
X129278571Y-132297619D01*
X129802380Y-132297619D02*
X128802380Y-132297619D01*
X128802380Y-131821428D01*
X126207142Y-133916666D02*
X126254761Y-133964285D01*
X126302380Y-134107142D01*
X126302380Y-134202380D01*
X126254761Y-134345238D01*
X126159523Y-134440476D01*
X126064285Y-134488095D01*
X125873809Y-134535714D01*
X125730952Y-134535714D01*
X125540476Y-134488095D01*
X125445238Y-134440476D01*
X125350000Y-134345238D01*
X125302380Y-134202380D01*
X125302380Y-134107142D01*
X125350000Y-133964285D01*
X125397619Y-133916666D01*
X125730952Y-133345238D02*
X125683333Y-133440476D01*
X125635714Y-133488095D01*
X125540476Y-133535714D01*
X125492857Y-133535714D01*
X125397619Y-133488095D01*
X125350000Y-133440476D01*
X125302380Y-133345238D01*
X125302380Y-133154761D01*
X125350000Y-133059523D01*
X125397619Y-133011904D01*
X125492857Y-132964285D01*
X125540476Y-132964285D01*
X125635714Y-133011904D01*
X125683333Y-133059523D01*
X125730952Y-133154761D01*
X125730952Y-133345238D01*
X125778571Y-133440476D01*
X125826190Y-133488095D01*
X125921428Y-133535714D01*
X126111904Y-133535714D01*
X126207142Y-133488095D01*
X126254761Y-133440476D01*
X126302380Y-133345238D01*
X126302380Y-133154761D01*
X126254761Y-133059523D01*
X126207142Y-133011904D01*
X126111904Y-132964285D01*
X125921428Y-132964285D01*
X125826190Y-133011904D01*
X125778571Y-133059523D01*
X125730952Y-133154761D01*
G04 #@! TO.C,U40*
X100252476Y-90774880D02*
X100490571Y-91774880D01*
X100681047Y-91060595D01*
X100871523Y-91774880D01*
X101109619Y-90774880D01*
X101442952Y-91727261D02*
X101585809Y-91774880D01*
X101823904Y-91774880D01*
X101919142Y-91727261D01*
X101966761Y-91679642D01*
X102014380Y-91584404D01*
X102014380Y-91489166D01*
X101966761Y-91393928D01*
X101919142Y-91346309D01*
X101823904Y-91298690D01*
X101633428Y-91251071D01*
X101538190Y-91203452D01*
X101490571Y-91155833D01*
X101442952Y-91060595D01*
X101442952Y-90965357D01*
X101490571Y-90870119D01*
X101538190Y-90822500D01*
X101633428Y-90774880D01*
X101871523Y-90774880D01*
X102014380Y-90822500D01*
X102395333Y-90870119D02*
X102442952Y-90822500D01*
X102538190Y-90774880D01*
X102776285Y-90774880D01*
X102871523Y-90822500D01*
X102919142Y-90870119D01*
X102966761Y-90965357D01*
X102966761Y-91060595D01*
X102919142Y-91203452D01*
X102347714Y-91774880D01*
X102966761Y-91774880D01*
X103538190Y-91203452D02*
X103442952Y-91155833D01*
X103395333Y-91108214D01*
X103347714Y-91012976D01*
X103347714Y-90965357D01*
X103395333Y-90870119D01*
X103442952Y-90822500D01*
X103538190Y-90774880D01*
X103728666Y-90774880D01*
X103823904Y-90822500D01*
X103871523Y-90870119D01*
X103919142Y-90965357D01*
X103919142Y-91012976D01*
X103871523Y-91108214D01*
X103823904Y-91155833D01*
X103728666Y-91203452D01*
X103538190Y-91203452D01*
X103442952Y-91251071D01*
X103395333Y-91298690D01*
X103347714Y-91393928D01*
X103347714Y-91584404D01*
X103395333Y-91679642D01*
X103442952Y-91727261D01*
X103538190Y-91774880D01*
X103728666Y-91774880D01*
X103823904Y-91727261D01*
X103871523Y-91679642D01*
X103919142Y-91584404D01*
X103919142Y-91393928D01*
X103871523Y-91298690D01*
X103823904Y-91251071D01*
X103728666Y-91203452D01*
X104871523Y-91774880D02*
X104300095Y-91774880D01*
X104585809Y-91774880D02*
X104585809Y-90774880D01*
X104490571Y-90917738D01*
X104395333Y-91012976D01*
X104300095Y-91060595D01*
X105252476Y-90870119D02*
X105300095Y-90822500D01*
X105395333Y-90774880D01*
X105633428Y-90774880D01*
X105728666Y-90822500D01*
X105776285Y-90870119D01*
X105823904Y-90965357D01*
X105823904Y-91060595D01*
X105776285Y-91203452D01*
X105204857Y-91774880D01*
X105823904Y-91774880D01*
X106585809Y-91251071D02*
X106728666Y-91298690D01*
X106776285Y-91346309D01*
X106823904Y-91441547D01*
X106823904Y-91584404D01*
X106776285Y-91679642D01*
X106728666Y-91727261D01*
X106633428Y-91774880D01*
X106252476Y-91774880D01*
X106252476Y-90774880D01*
X106585809Y-90774880D01*
X106681047Y-90822500D01*
X106728666Y-90870119D01*
X106776285Y-90965357D01*
X106776285Y-91060595D01*
X106728666Y-91155833D01*
X106681047Y-91203452D01*
X106585809Y-91251071D01*
X106252476Y-91251071D01*
G04 #@! TO.C,SW1*
X116202380Y-145726761D02*
X116345238Y-145774380D01*
X116583333Y-145774380D01*
X116678571Y-145726761D01*
X116726190Y-145679142D01*
X116773809Y-145583904D01*
X116773809Y-145488666D01*
X116726190Y-145393428D01*
X116678571Y-145345809D01*
X116583333Y-145298190D01*
X116392857Y-145250571D01*
X116297619Y-145202952D01*
X116250000Y-145155333D01*
X116202380Y-145060095D01*
X116202380Y-144964857D01*
X116250000Y-144869619D01*
X116297619Y-144822000D01*
X116392857Y-144774380D01*
X116630952Y-144774380D01*
X116773809Y-144822000D01*
X117107142Y-144774380D02*
X117345238Y-145774380D01*
X117535714Y-145060095D01*
X117726190Y-145774380D01*
X117964285Y-144774380D01*
X118107142Y-145869619D02*
X118869047Y-145869619D01*
X119107142Y-145774380D02*
X119107142Y-144774380D01*
X119488095Y-144774380D01*
X119583333Y-144822000D01*
X119630952Y-144869619D01*
X119678571Y-144964857D01*
X119678571Y-145107714D01*
X119630952Y-145202952D01*
X119583333Y-145250571D01*
X119488095Y-145298190D01*
X119107142Y-145298190D01*
X120535714Y-145107714D02*
X120535714Y-145774380D01*
X120107142Y-145107714D02*
X120107142Y-145631523D01*
X120154761Y-145726761D01*
X120250000Y-145774380D01*
X120392857Y-145774380D01*
X120488095Y-145726761D01*
X120535714Y-145679142D01*
X120964285Y-145726761D02*
X121059523Y-145774380D01*
X121250000Y-145774380D01*
X121345238Y-145726761D01*
X121392857Y-145631523D01*
X121392857Y-145583904D01*
X121345238Y-145488666D01*
X121250000Y-145441047D01*
X121107142Y-145441047D01*
X121011904Y-145393428D01*
X120964285Y-145298190D01*
X120964285Y-145250571D01*
X121011904Y-145155333D01*
X121107142Y-145107714D01*
X121250000Y-145107714D01*
X121345238Y-145155333D01*
X121821428Y-145774380D02*
X121821428Y-144774380D01*
X122250000Y-145774380D02*
X122250000Y-145250571D01*
X122202380Y-145155333D01*
X122107142Y-145107714D01*
X121964285Y-145107714D01*
X121869047Y-145155333D01*
X121821428Y-145202952D01*
X117416666Y-141276761D02*
X117559523Y-141324380D01*
X117797619Y-141324380D01*
X117892857Y-141276761D01*
X117940476Y-141229142D01*
X117988095Y-141133904D01*
X117988095Y-141038666D01*
X117940476Y-140943428D01*
X117892857Y-140895809D01*
X117797619Y-140848190D01*
X117607142Y-140800571D01*
X117511904Y-140752952D01*
X117464285Y-140705333D01*
X117416666Y-140610095D01*
X117416666Y-140514857D01*
X117464285Y-140419619D01*
X117511904Y-140372000D01*
X117607142Y-140324380D01*
X117845238Y-140324380D01*
X117988095Y-140372000D01*
X118321428Y-140324380D02*
X118559523Y-141324380D01*
X118750000Y-140610095D01*
X118940476Y-141324380D01*
X119178571Y-140324380D01*
X120083333Y-141324380D02*
X119511904Y-141324380D01*
X119797619Y-141324380D02*
X119797619Y-140324380D01*
X119702380Y-140467238D01*
X119607142Y-140562476D01*
X119511904Y-140610095D01*
G04 #@! TO.C,R1*
X98202380Y-68145238D02*
X98202380Y-68716666D01*
X98202380Y-68430952D02*
X97202380Y-68430952D01*
X97345238Y-68526190D01*
X97440476Y-68621428D01*
X97488095Y-68716666D01*
X97202380Y-67526190D02*
X97202380Y-67430952D01*
X97250000Y-67335714D01*
X97297619Y-67288095D01*
X97392857Y-67240476D01*
X97583333Y-67192857D01*
X97821428Y-67192857D01*
X98011904Y-67240476D01*
X98107142Y-67288095D01*
X98154761Y-67335714D01*
X98202380Y-67430952D01*
X98202380Y-67526190D01*
X98154761Y-67621428D01*
X98107142Y-67669047D01*
X98011904Y-67716666D01*
X97821428Y-67764285D01*
X97583333Y-67764285D01*
X97392857Y-67716666D01*
X97297619Y-67669047D01*
X97250000Y-67621428D01*
X97202380Y-67526190D01*
X98202380Y-66764285D02*
X97202380Y-66764285D01*
X97821428Y-66669047D02*
X98202380Y-66383333D01*
X97535714Y-66383333D02*
X97916666Y-66764285D01*
D12*
X96226190Y-67633333D02*
X95988095Y-67800000D01*
X96226190Y-67919047D02*
X95726190Y-67919047D01*
X95726190Y-67728571D01*
X95750000Y-67680952D01*
X95773809Y-67657142D01*
X95821428Y-67633333D01*
X95892857Y-67633333D01*
X95940476Y-67657142D01*
X95964285Y-67680952D01*
X95988095Y-67728571D01*
X95988095Y-67919047D01*
X96226190Y-67157142D02*
X96226190Y-67442857D01*
X96226190Y-67300000D02*
X95726190Y-67300000D01*
X95797619Y-67347619D01*
X95845238Y-67395238D01*
X95869047Y-67442857D01*
G04 #@! TO.C,MCU1*
D11*
X97500000Y-72166666D02*
X97976190Y-72166666D01*
X97404761Y-72452380D02*
X97738095Y-71452380D01*
X98071428Y-72452380D01*
X98261904Y-71452380D02*
X98833333Y-71452380D01*
X98547619Y-72452380D02*
X98547619Y-71452380D01*
X99023809Y-71785714D02*
X99404761Y-71785714D01*
X99166666Y-71452380D02*
X99166666Y-72309523D01*
X99214285Y-72404761D01*
X99309523Y-72452380D01*
X99404761Y-72452380D01*
X99738095Y-72452380D02*
X99738095Y-71785714D01*
X99738095Y-71452380D02*
X99690476Y-71500000D01*
X99738095Y-71547619D01*
X99785714Y-71500000D01*
X99738095Y-71452380D01*
X99738095Y-71547619D01*
X100214285Y-71785714D02*
X100214285Y-72452380D01*
X100214285Y-71880952D02*
X100261904Y-71833333D01*
X100357142Y-71785714D01*
X100500000Y-71785714D01*
X100595238Y-71833333D01*
X100642857Y-71928571D01*
X100642857Y-72452380D01*
X101023809Y-71785714D02*
X101261904Y-72452380D01*
X101500000Y-71785714D02*
X101261904Y-72452380D01*
X101166666Y-72690476D01*
X101119047Y-72738095D01*
X101023809Y-72785714D01*
X102023809Y-71880952D02*
X101928571Y-71833333D01*
X101880952Y-71785714D01*
X101833333Y-71690476D01*
X101833333Y-71642857D01*
X101880952Y-71547619D01*
X101928571Y-71500000D01*
X102023809Y-71452380D01*
X102214285Y-71452380D01*
X102309523Y-71500000D01*
X102357142Y-71547619D01*
X102404761Y-71642857D01*
X102404761Y-71690476D01*
X102357142Y-71785714D01*
X102309523Y-71833333D01*
X102214285Y-71880952D01*
X102023809Y-71880952D01*
X101928571Y-71928571D01*
X101880952Y-71976190D01*
X101833333Y-72071428D01*
X101833333Y-72261904D01*
X101880952Y-72357142D01*
X101928571Y-72404761D01*
X102023809Y-72452380D01*
X102214285Y-72452380D01*
X102309523Y-72404761D01*
X102357142Y-72357142D01*
X102404761Y-72261904D01*
X102404761Y-72071428D01*
X102357142Y-71976190D01*
X102309523Y-71928571D01*
X102214285Y-71880952D01*
X103309523Y-71452380D02*
X102833333Y-71452380D01*
X102785714Y-71928571D01*
X102833333Y-71880952D01*
X102928571Y-71833333D01*
X103166666Y-71833333D01*
X103261904Y-71880952D01*
X103309523Y-71928571D01*
X103357142Y-72023809D01*
X103357142Y-72261904D01*
X103309523Y-72357142D01*
X103261904Y-72404761D01*
X103166666Y-72452380D01*
X102928571Y-72452380D01*
X102833333Y-72404761D01*
X102785714Y-72357142D01*
X103785714Y-72071428D02*
X104547619Y-72071428D01*
X104976190Y-71547619D02*
X105023809Y-71500000D01*
X105119047Y-71452380D01*
X105357142Y-71452380D01*
X105452380Y-71500000D01*
X105500000Y-71547619D01*
X105547619Y-71642857D01*
X105547619Y-71738095D01*
X105500000Y-71880952D01*
X104928571Y-72452380D01*
X105547619Y-72452380D01*
X106166666Y-71452380D02*
X106261904Y-71452380D01*
X106357142Y-71500000D01*
X106404761Y-71547619D01*
X106452380Y-71642857D01*
X106500000Y-71833333D01*
X106500000Y-72071428D01*
X106452380Y-72261904D01*
X106404761Y-72357142D01*
X106357142Y-72404761D01*
X106261904Y-72452380D01*
X106166666Y-72452380D01*
X106071428Y-72404761D01*
X106023809Y-72357142D01*
X105976190Y-72261904D01*
X105928571Y-72071428D01*
X105928571Y-71833333D01*
X105976190Y-71642857D01*
X106023809Y-71547619D01*
X106071428Y-71500000D01*
X106166666Y-71452380D01*
X106880952Y-72404761D02*
X107023809Y-72452380D01*
X107261904Y-72452380D01*
X107357142Y-72404761D01*
X107404761Y-72357142D01*
X107452380Y-72261904D01*
X107452380Y-72166666D01*
X107404761Y-72071428D01*
X107357142Y-72023809D01*
X107261904Y-71976190D01*
X107071428Y-71928571D01*
X106976190Y-71880952D01*
X106928571Y-71833333D01*
X106880952Y-71738095D01*
X106880952Y-71642857D01*
X106928571Y-71547619D01*
X106976190Y-71500000D01*
X107071428Y-71452380D01*
X107309523Y-71452380D01*
X107452380Y-71500000D01*
X107880952Y-71452380D02*
X107880952Y-72261904D01*
X107928571Y-72357142D01*
X107976190Y-72404761D01*
X108071428Y-72452380D01*
X108261904Y-72452380D01*
X108357142Y-72404761D01*
X108404761Y-72357142D01*
X108452380Y-72261904D01*
X108452380Y-71452380D01*
X101566666Y-68852380D02*
X101566666Y-67852380D01*
X101900000Y-68566666D01*
X102233333Y-67852380D01*
X102233333Y-68852380D01*
X103280952Y-68757142D02*
X103233333Y-68804761D01*
X103090476Y-68852380D01*
X102995238Y-68852380D01*
X102852380Y-68804761D01*
X102757142Y-68709523D01*
X102709523Y-68614285D01*
X102661904Y-68423809D01*
X102661904Y-68280952D01*
X102709523Y-68090476D01*
X102757142Y-67995238D01*
X102852380Y-67900000D01*
X102995238Y-67852380D01*
X103090476Y-67852380D01*
X103233333Y-67900000D01*
X103280952Y-67947619D01*
X103709523Y-67852380D02*
X103709523Y-68661904D01*
X103757142Y-68757142D01*
X103804761Y-68804761D01*
X103900000Y-68852380D01*
X104090476Y-68852380D01*
X104185714Y-68804761D01*
X104233333Y-68757142D01*
X104280952Y-68661904D01*
X104280952Y-67852380D01*
X105280952Y-68852380D02*
X104709523Y-68852380D01*
X104995238Y-68852380D02*
X104995238Y-67852380D01*
X104900000Y-67995238D01*
X104804761Y-68090476D01*
X104709523Y-68138095D01*
G04 #@! TO.C,USB1*
X111752380Y-145485809D02*
X112561904Y-145485809D01*
X112657142Y-145438190D01*
X112704761Y-145390571D01*
X112752380Y-145295333D01*
X112752380Y-145104857D01*
X112704761Y-145009619D01*
X112657142Y-144962000D01*
X112561904Y-144914380D01*
X111752380Y-144914380D01*
X112704761Y-144485809D02*
X112752380Y-144342952D01*
X112752380Y-144104857D01*
X112704761Y-144009619D01*
X112657142Y-143962000D01*
X112561904Y-143914380D01*
X112466666Y-143914380D01*
X112371428Y-143962000D01*
X112323809Y-144009619D01*
X112276190Y-144104857D01*
X112228571Y-144295333D01*
X112180952Y-144390571D01*
X112133333Y-144438190D01*
X112038095Y-144485809D01*
X111942857Y-144485809D01*
X111847619Y-144438190D01*
X111800000Y-144390571D01*
X111752380Y-144295333D01*
X111752380Y-144057238D01*
X111800000Y-143914380D01*
X112228571Y-143152476D02*
X112276190Y-143009619D01*
X112323809Y-142962000D01*
X112419047Y-142914380D01*
X112561904Y-142914380D01*
X112657142Y-142962000D01*
X112704761Y-143009619D01*
X112752380Y-143104857D01*
X112752380Y-143485809D01*
X111752380Y-143485809D01*
X111752380Y-143152476D01*
X111800000Y-143057238D01*
X111847619Y-143009619D01*
X111942857Y-142962000D01*
X112038095Y-142962000D01*
X112133333Y-143009619D01*
X112180952Y-143057238D01*
X112228571Y-143152476D01*
X112228571Y-143485809D01*
X112847619Y-142723904D02*
X112847619Y-141962000D01*
X112228571Y-141390571D02*
X112276190Y-141247714D01*
X112323809Y-141200095D01*
X112419047Y-141152476D01*
X112561904Y-141152476D01*
X112657142Y-141200095D01*
X112704761Y-141247714D01*
X112752380Y-141342952D01*
X112752380Y-141723904D01*
X111752380Y-141723904D01*
X111752380Y-141390571D01*
X111800000Y-141295333D01*
X111847619Y-141247714D01*
X111942857Y-141200095D01*
X112038095Y-141200095D01*
X112133333Y-141247714D01*
X112180952Y-141295333D01*
X112228571Y-141390571D01*
X112228571Y-141723904D01*
X112847619Y-140962000D02*
X112847619Y-140200095D01*
X112752380Y-139962000D02*
X111752380Y-139962000D01*
X112466666Y-139628666D01*
X111752380Y-139295333D01*
X112752380Y-139295333D01*
X112752380Y-138819142D02*
X112085714Y-138819142D01*
X111752380Y-138819142D02*
X111800000Y-138866761D01*
X111847619Y-138819142D01*
X111800000Y-138771523D01*
X111752380Y-138819142D01*
X111847619Y-138819142D01*
X112704761Y-137914380D02*
X112752380Y-138009619D01*
X112752380Y-138200095D01*
X112704761Y-138295333D01*
X112657142Y-138342952D01*
X112561904Y-138390571D01*
X112276190Y-138390571D01*
X112180952Y-138342952D01*
X112133333Y-138295333D01*
X112085714Y-138200095D01*
X112085714Y-138009619D01*
X112133333Y-137914380D01*
X112752380Y-137485809D02*
X112085714Y-137485809D01*
X112276190Y-137485809D02*
X112180952Y-137438190D01*
X112133333Y-137390571D01*
X112085714Y-137295333D01*
X112085714Y-137200095D01*
X112752380Y-136723904D02*
X112704761Y-136819142D01*
X112657142Y-136866761D01*
X112561904Y-136914380D01*
X112276190Y-136914380D01*
X112180952Y-136866761D01*
X112133333Y-136819142D01*
X112085714Y-136723904D01*
X112085714Y-136581047D01*
X112133333Y-136485809D01*
X112180952Y-136438190D01*
X112276190Y-136390571D01*
X112561904Y-136390571D01*
X112657142Y-136438190D01*
X112704761Y-136485809D01*
X112752380Y-136581047D01*
X112752380Y-136723904D01*
G04 #@! TO.C,D1*
X130552380Y-115709523D02*
X129552380Y-115709523D01*
X129552380Y-115471428D01*
X129600000Y-115328571D01*
X129695238Y-115233333D01*
X129790476Y-115185714D01*
X129980952Y-115138095D01*
X130123809Y-115138095D01*
X130314285Y-115185714D01*
X130409523Y-115233333D01*
X130504761Y-115328571D01*
X130552380Y-115471428D01*
X130552380Y-115709523D01*
X130647619Y-114947619D02*
X130647619Y-114185714D01*
X130504761Y-113995238D02*
X130552380Y-113852380D01*
X130552380Y-113614285D01*
X130504761Y-113519047D01*
X130457142Y-113471428D01*
X130361904Y-113423809D01*
X130266666Y-113423809D01*
X130171428Y-113471428D01*
X130123809Y-113519047D01*
X130076190Y-113614285D01*
X130028571Y-113804761D01*
X129980952Y-113900000D01*
X129933333Y-113947619D01*
X129838095Y-113995238D01*
X129742857Y-113995238D01*
X129647619Y-113947619D01*
X129600000Y-113900000D01*
X129552380Y-113804761D01*
X129552380Y-113566666D01*
X129600000Y-113423809D01*
X130504761Y-112566666D02*
X130552380Y-112661904D01*
X130552380Y-112852380D01*
X130504761Y-112947619D01*
X130457142Y-112995238D01*
X130361904Y-113042857D01*
X130076190Y-113042857D01*
X129980952Y-112995238D01*
X129933333Y-112947619D01*
X129885714Y-112852380D01*
X129885714Y-112661904D01*
X129933333Y-112566666D01*
X130552380Y-112138095D02*
X129552380Y-112138095D01*
X130552380Y-111709523D02*
X130028571Y-111709523D01*
X129933333Y-111757142D01*
X129885714Y-111852380D01*
X129885714Y-111995238D01*
X129933333Y-112090476D01*
X129980952Y-112138095D01*
X130552380Y-111090476D02*
X130504761Y-111185714D01*
X130457142Y-111233333D01*
X130361904Y-111280952D01*
X130076190Y-111280952D01*
X129980952Y-111233333D01*
X129933333Y-111185714D01*
X129885714Y-111090476D01*
X129885714Y-110947619D01*
X129933333Y-110852380D01*
X129980952Y-110804761D01*
X130076190Y-110757142D01*
X130361904Y-110757142D01*
X130457142Y-110804761D01*
X130504761Y-110852380D01*
X130552380Y-110947619D01*
X130552380Y-111090476D01*
X129885714Y-110471428D02*
X129885714Y-110090476D01*
X129552380Y-110328571D02*
X130409523Y-110328571D01*
X130504761Y-110280952D01*
X130552380Y-110185714D01*
X130552380Y-110090476D01*
X129885714Y-109900000D02*
X129885714Y-109519047D01*
X129552380Y-109757142D02*
X130409523Y-109757142D01*
X130504761Y-109709523D01*
X130552380Y-109614285D01*
X130552380Y-109519047D01*
X130552380Y-109185714D02*
X129552380Y-109185714D01*
X130171428Y-109090476D02*
X130552380Y-108804761D01*
X129885714Y-108804761D02*
X130266666Y-109185714D01*
X129885714Y-108471428D02*
X130552380Y-108233333D01*
X129885714Y-107995238D02*
X130552380Y-108233333D01*
X130790476Y-108328571D01*
X130838095Y-108376190D01*
X130885714Y-108471428D01*
X125452380Y-112638095D02*
X124452380Y-112638095D01*
X124452380Y-112400000D01*
X124500000Y-112257142D01*
X124595238Y-112161904D01*
X124690476Y-112114285D01*
X124880952Y-112066666D01*
X125023809Y-112066666D01*
X125214285Y-112114285D01*
X125309523Y-112161904D01*
X125404761Y-112257142D01*
X125452380Y-112400000D01*
X125452380Y-112638095D01*
X125452380Y-111114285D02*
X125452380Y-111685714D01*
X125452380Y-111400000D02*
X124452380Y-111400000D01*
X124595238Y-111495238D01*
X124690476Y-111590476D01*
X124738095Y-111685714D01*
G04 #@! TO.C,J2*
X117901666Y-73297619D02*
X117901666Y-72821428D01*
X118187380Y-73392857D02*
X117187380Y-73059523D01*
X118187380Y-72726190D01*
X117187380Y-72535714D02*
X118187380Y-72202380D01*
X117187380Y-71869047D01*
X118187380Y-70964285D02*
X117711190Y-71297619D01*
X118187380Y-71535714D02*
X117187380Y-71535714D01*
X117187380Y-71154761D01*
X117235000Y-71059523D01*
X117282619Y-71011904D01*
X117377857Y-70964285D01*
X117520714Y-70964285D01*
X117615952Y-71011904D01*
X117663571Y-71059523D01*
X117711190Y-71154761D01*
X117711190Y-71535714D01*
X117806428Y-70535714D02*
X117806428Y-69773809D01*
X117187380Y-69011904D02*
X117901666Y-69011904D01*
X118044523Y-69059523D01*
X118139761Y-69154761D01*
X118187380Y-69297619D01*
X118187380Y-69392857D01*
X117187380Y-68678571D02*
X117187380Y-68107142D01*
X118187380Y-68392857D02*
X117187380Y-68392857D01*
X117901666Y-67821428D02*
X117901666Y-67345238D01*
X118187380Y-67916666D02*
X117187380Y-67583333D01*
X118187380Y-67250000D01*
X117235000Y-66392857D02*
X117187380Y-66488095D01*
X117187380Y-66630952D01*
X117235000Y-66773809D01*
X117330238Y-66869047D01*
X117425476Y-66916666D01*
X117615952Y-66964285D01*
X117758809Y-66964285D01*
X117949285Y-66916666D01*
X118044523Y-66869047D01*
X118139761Y-66773809D01*
X118187380Y-66630952D01*
X118187380Y-66535714D01*
X118139761Y-66392857D01*
X118092142Y-66345238D01*
X117758809Y-66345238D01*
X117758809Y-66535714D01*
X117806428Y-65916666D02*
X117806428Y-65154761D01*
X118187380Y-64154761D02*
X118187380Y-64726190D01*
X118187380Y-64440476D02*
X117187380Y-64440476D01*
X117330238Y-64535714D01*
X117425476Y-64630952D01*
X117473095Y-64726190D01*
X117187380Y-63535714D02*
X117187380Y-63440476D01*
X117235000Y-63345238D01*
X117282619Y-63297619D01*
X117377857Y-63250000D01*
X117568333Y-63202380D01*
X117806428Y-63202380D01*
X117996904Y-63250000D01*
X118092142Y-63297619D01*
X118139761Y-63345238D01*
X118187380Y-63440476D01*
X118187380Y-63535714D01*
X118139761Y-63630952D01*
X118092142Y-63678571D01*
X117996904Y-63726190D01*
X117806428Y-63773809D01*
X117568333Y-63773809D01*
X117377857Y-63726190D01*
X117282619Y-63678571D01*
X117235000Y-63630952D01*
X117187380Y-63535714D01*
X113166666Y-67702380D02*
X113166666Y-68416666D01*
X113119047Y-68559523D01*
X113023809Y-68654761D01*
X112880952Y-68702380D01*
X112785714Y-68702380D01*
X113595238Y-67797619D02*
X113642857Y-67750000D01*
X113738095Y-67702380D01*
X113976190Y-67702380D01*
X114071428Y-67750000D01*
X114119047Y-67797619D01*
X114166666Y-67892857D01*
X114166666Y-67988095D01*
X114119047Y-68130952D01*
X113547619Y-68702380D01*
X114166666Y-68702380D01*
G04 #@! TO.C,SW2*
X146152380Y-144607142D02*
X145152380Y-144607142D01*
X145152380Y-144369047D01*
X145200000Y-144226190D01*
X145295238Y-144130952D01*
X145390476Y-144083333D01*
X145580952Y-144035714D01*
X145723809Y-144035714D01*
X145914285Y-144083333D01*
X146009523Y-144130952D01*
X146104761Y-144226190D01*
X146152380Y-144369047D01*
X146152380Y-144607142D01*
X146152380Y-143607142D02*
X145485714Y-143607142D01*
X145152380Y-143607142D02*
X145200000Y-143654761D01*
X145247619Y-143607142D01*
X145200000Y-143559523D01*
X145152380Y-143607142D01*
X145247619Y-143607142D01*
X145485714Y-143130952D02*
X146485714Y-143130952D01*
X145533333Y-143130952D02*
X145485714Y-143035714D01*
X145485714Y-142845238D01*
X145533333Y-142750000D01*
X145580952Y-142702380D01*
X145676190Y-142654761D01*
X145961904Y-142654761D01*
X146057142Y-142702380D01*
X146104761Y-142750000D01*
X146152380Y-142845238D01*
X146152380Y-143035714D01*
X146104761Y-143130952D01*
X146104761Y-142273809D02*
X146152380Y-142130952D01*
X146152380Y-141892857D01*
X146104761Y-141797619D01*
X146057142Y-141750000D01*
X145961904Y-141702380D01*
X145866666Y-141702380D01*
X145771428Y-141750000D01*
X145723809Y-141797619D01*
X145676190Y-141892857D01*
X145628571Y-142083333D01*
X145580952Y-142178571D01*
X145533333Y-142226190D01*
X145438095Y-142273809D01*
X145342857Y-142273809D01*
X145247619Y-142226190D01*
X145200000Y-142178571D01*
X145152380Y-142083333D01*
X145152380Y-141845238D01*
X145200000Y-141702380D01*
X145485714Y-141369047D02*
X146152380Y-141178571D01*
X145676190Y-140988095D01*
X146152380Y-140797619D01*
X145485714Y-140607142D01*
X146152380Y-140226190D02*
X145485714Y-140226190D01*
X145152380Y-140226190D02*
X145200000Y-140273809D01*
X145247619Y-140226190D01*
X145200000Y-140178571D01*
X145152380Y-140226190D01*
X145247619Y-140226190D01*
X145485714Y-139892857D02*
X145485714Y-139511904D01*
X145152380Y-139750000D02*
X146009523Y-139750000D01*
X146104761Y-139702380D01*
X146152380Y-139607142D01*
X146152380Y-139511904D01*
X146104761Y-138750000D02*
X146152380Y-138845238D01*
X146152380Y-139035714D01*
X146104761Y-139130952D01*
X146057142Y-139178571D01*
X145961904Y-139226190D01*
X145676190Y-139226190D01*
X145580952Y-139178571D01*
X145533333Y-139130952D01*
X145485714Y-139035714D01*
X145485714Y-138845238D01*
X145533333Y-138750000D01*
X146152380Y-138321428D02*
X145152380Y-138321428D01*
X146152380Y-137892857D02*
X145628571Y-137892857D01*
X145533333Y-137940476D01*
X145485714Y-138035714D01*
X145485714Y-138178571D01*
X145533333Y-138273809D01*
X145580952Y-138321428D01*
X138226666Y-141654761D02*
X138369523Y-141702380D01*
X138607619Y-141702380D01*
X138702857Y-141654761D01*
X138750476Y-141607142D01*
X138798095Y-141511904D01*
X138798095Y-141416666D01*
X138750476Y-141321428D01*
X138702857Y-141273809D01*
X138607619Y-141226190D01*
X138417142Y-141178571D01*
X138321904Y-141130952D01*
X138274285Y-141083333D01*
X138226666Y-140988095D01*
X138226666Y-140892857D01*
X138274285Y-140797619D01*
X138321904Y-140750000D01*
X138417142Y-140702380D01*
X138655238Y-140702380D01*
X138798095Y-140750000D01*
X139131428Y-140702380D02*
X139369523Y-141702380D01*
X139560000Y-140988095D01*
X139750476Y-141702380D01*
X139988571Y-140702380D01*
X140321904Y-140797619D02*
X140369523Y-140750000D01*
X140464761Y-140702380D01*
X140702857Y-140702380D01*
X140798095Y-140750000D01*
X140845714Y-140797619D01*
X140893333Y-140892857D01*
X140893333Y-140988095D01*
X140845714Y-141130952D01*
X140274285Y-141702380D01*
X140893333Y-141702380D01*
G04 #@! TD*
M02*
