G04 #@! TF.GenerationSoftware,KiCad,Pcbnew,(5.0.0)*
G04 #@! TF.CreationDate,2020-03-01T18:17:59-05:00*
G04 #@! TF.ProjectId,WS2812B Tiny T,575332383132422054696E7920542E6B,rev?*
G04 #@! TF.SameCoordinates,Original*
G04 #@! TF.FileFunction,Legend,Top*
G04 #@! TF.FilePolarity,Positive*
%FSLAX46Y46*%
G04 Gerber Fmt 4.6, Leading zero omitted, Abs format (unit mm)*
G04 Created by KiCad (PCBNEW (5.0.0)) date 03/01/20 18:17:59*
%MOMM*%
%LPD*%
G01*
G04 APERTURE LIST*
%ADD10C,0.200000*%
%ADD11C,0.120000*%
%ADD12C,0.100000*%
%ADD13C,0.150000*%
G04 APERTURE END LIST*
D10*
X119378392Y-68342857D02*
X119271250Y-69200000D01*
X119192678Y-69371428D01*
X119064107Y-69485714D01*
X118885535Y-69542857D01*
X118771250Y-69542857D01*
X119778392Y-68342857D02*
X120464107Y-68342857D01*
X119971250Y-69542857D02*
X120121250Y-68342857D01*
X120699821Y-69200000D02*
X121271250Y-69200000D01*
X120542678Y-69542857D02*
X121092678Y-68342857D01*
X121342678Y-69542857D01*
X122514107Y-68400000D02*
X122406964Y-68342857D01*
X122235535Y-68342857D01*
X122056964Y-68400000D01*
X121928392Y-68514285D01*
X121856964Y-68628571D01*
X121771250Y-68857142D01*
X121749821Y-69028571D01*
X121778392Y-69257142D01*
X121821250Y-69371428D01*
X121921250Y-69485714D01*
X122085535Y-69542857D01*
X122199821Y-69542857D01*
X122378392Y-69485714D01*
X122442678Y-69428571D01*
X122492678Y-69028571D01*
X122264107Y-69028571D01*
X117635535Y-67450000D02*
X118206964Y-67450000D01*
X117478392Y-67792857D02*
X118028392Y-66592857D01*
X118278392Y-67792857D01*
X118656964Y-66592857D02*
X118906964Y-67792857D01*
X119456964Y-66592857D01*
X120392678Y-67792857D02*
X120064107Y-67221428D01*
X119706964Y-67792857D02*
X119856964Y-66592857D01*
X120314107Y-66592857D01*
X120421250Y-66650000D01*
X120471250Y-66707142D01*
X120514107Y-66821428D01*
X120492678Y-66992857D01*
X120421250Y-67107142D01*
X120356964Y-67164285D01*
X120235535Y-67221428D01*
X119778392Y-67221428D01*
X121821250Y-67792857D02*
X121971250Y-66592857D01*
X123092678Y-67678571D02*
X123028392Y-67735714D01*
X122849821Y-67792857D01*
X122735535Y-67792857D01*
X122571250Y-67735714D01*
X122471250Y-67621428D01*
X122428392Y-67507142D01*
X122399821Y-67278571D01*
X122421250Y-67107142D01*
X122506964Y-66878571D01*
X122578392Y-66764285D01*
X122706964Y-66650000D01*
X122885535Y-66592857D01*
X122999821Y-66592857D01*
X123164107Y-66650000D01*
X123214107Y-66707142D01*
X123671250Y-67164285D02*
X124071250Y-67164285D01*
X124164107Y-67792857D02*
X123592678Y-67792857D01*
X123742678Y-66592857D01*
X124314107Y-66592857D01*
X110000000Y-71250000D02*
G75*
G03X110000000Y-71250000I-250000J0D01*
G01*
D11*
G04 #@! TO.C,U1*
X93162000Y-89912500D02*
X93162000Y-88912500D01*
X86162000Y-89912500D02*
X93162000Y-89912500D01*
X86162000Y-84712500D02*
X93162000Y-84712500D01*
G04 #@! TO.C,U2*
X86162000Y-75822500D02*
X93162000Y-75822500D01*
X86162000Y-81022500D02*
X93162000Y-81022500D01*
X93162000Y-81022500D02*
X93162000Y-80022500D01*
G04 #@! TO.C,U3*
X93162000Y-72132500D02*
X93162000Y-71132500D01*
X86162000Y-72132500D02*
X93162000Y-72132500D01*
X86162000Y-66932500D02*
X93162000Y-66932500D01*
G04 #@! TO.C,U4*
X86162000Y-58042500D02*
X93162000Y-58042500D01*
X86162000Y-63242500D02*
X93162000Y-63242500D01*
X93162000Y-63242500D02*
X93162000Y-62242500D01*
G04 #@! TO.C,U5*
X104592000Y-63242500D02*
X104592000Y-62242500D01*
X97592000Y-63242500D02*
X104592000Y-63242500D01*
X97592000Y-58042500D02*
X104592000Y-58042500D01*
G04 #@! TO.C,U6*
X109022000Y-58042500D02*
X116022000Y-58042500D01*
X109022000Y-63242500D02*
X116022000Y-63242500D01*
X116022000Y-63242500D02*
X116022000Y-62242500D01*
G04 #@! TO.C,U7*
X126182000Y-63242500D02*
X126182000Y-62242500D01*
X119182000Y-63242500D02*
X126182000Y-63242500D01*
X119182000Y-58042500D02*
X126182000Y-58042500D01*
G04 #@! TO.C,U8*
X129342000Y-58042500D02*
X136342000Y-58042500D01*
X129342000Y-63242500D02*
X136342000Y-63242500D01*
X136342000Y-63242500D02*
X136342000Y-62242500D01*
G04 #@! TO.C,U9*
X146462000Y-63242500D02*
X146462000Y-62242500D01*
X139462000Y-63242500D02*
X146462000Y-63242500D01*
X139462000Y-58042500D02*
X146462000Y-58042500D01*
G04 #@! TO.C,U10*
X150932000Y-58042500D02*
X157932000Y-58042500D01*
X150932000Y-63242500D02*
X157932000Y-63242500D01*
X157932000Y-63242500D02*
X157932000Y-62242500D01*
G04 #@! TO.C,U11*
X168727000Y-63242500D02*
X168727000Y-62242500D01*
X161727000Y-63242500D02*
X168727000Y-63242500D01*
X161727000Y-58042500D02*
X168727000Y-58042500D01*
G04 #@! TO.C,U12*
X161727000Y-66932500D02*
X168727000Y-66932500D01*
X161727000Y-72132500D02*
X168727000Y-72132500D01*
X168727000Y-72132500D02*
X168727000Y-71132500D01*
G04 #@! TO.C,U13*
X168727000Y-81022500D02*
X168727000Y-80022500D01*
X161727000Y-81022500D02*
X168727000Y-81022500D01*
X161727000Y-75822500D02*
X168727000Y-75822500D01*
G04 #@! TO.C,U15*
X148301000Y-84712500D02*
X155301000Y-84712500D01*
X148301000Y-89912500D02*
X155301000Y-89912500D01*
X155301000Y-89912500D02*
X155301000Y-88912500D01*
G04 #@! TO.C,U16*
X155098000Y-78822500D02*
X155098000Y-77822500D01*
X148098000Y-78822500D02*
X155098000Y-78822500D01*
X148098000Y-73622500D02*
X155098000Y-73622500D01*
G04 #@! TO.C,U17*
X139502000Y-73622500D02*
X146502000Y-73622500D01*
X139502000Y-78822500D02*
X146502000Y-78822500D01*
X146502000Y-78822500D02*
X146502000Y-77822500D01*
G04 #@! TO.C,U18*
X137612000Y-78822500D02*
X137612000Y-77822500D01*
X130612000Y-78822500D02*
X137612000Y-78822500D01*
X130612000Y-73622500D02*
X137612000Y-73622500D01*
G04 #@! TO.C,U19*
X130612000Y-82622500D02*
X137612000Y-82622500D01*
X130612000Y-87822500D02*
X137612000Y-87822500D01*
X137612000Y-87822500D02*
X137612000Y-86822500D01*
G04 #@! TO.C,U20*
X137812000Y-97822500D02*
X137812000Y-96822500D01*
X130812000Y-97822500D02*
X137812000Y-97822500D01*
X130812000Y-92622500D02*
X137812000Y-92622500D01*
G04 #@! TO.C,U21*
X137812000Y-107572000D02*
X137812000Y-106572000D01*
X130812000Y-107572000D02*
X137812000Y-107572000D01*
X130812000Y-102372000D02*
X137812000Y-102372000D01*
G04 #@! TO.C,U22*
X130812000Y-112122000D02*
X137812000Y-112122000D01*
X130812000Y-117322000D02*
X137812000Y-117322000D01*
X137812000Y-117322000D02*
X137812000Y-116322000D01*
G04 #@! TO.C,U23*
X137812000Y-127072000D02*
X137812000Y-126072000D01*
X130812000Y-127072000D02*
X137812000Y-127072000D01*
X130812000Y-121872000D02*
X137812000Y-121872000D01*
G04 #@! TO.C,U24*
X130812000Y-130622000D02*
X137812000Y-130622000D01*
X130812000Y-135822000D02*
X137812000Y-135822000D01*
X137812000Y-135822000D02*
X137812000Y-134822000D01*
G04 #@! TO.C,U25*
X147772000Y-135822000D02*
X147772000Y-134822000D01*
X140772000Y-135822000D02*
X147772000Y-135822000D01*
X140772000Y-130622000D02*
X147772000Y-130622000D01*
G04 #@! TO.C,U26*
X141062000Y-146122000D02*
X148062000Y-146122000D01*
X141062000Y-151322000D02*
X148062000Y-151322000D01*
X148062000Y-151322000D02*
X148062000Y-150322000D01*
G04 #@! TO.C,U27*
X137312000Y-151322000D02*
X137312000Y-150322000D01*
X130312000Y-151322000D02*
X137312000Y-151322000D01*
X130312000Y-146122000D02*
X137312000Y-146122000D01*
G04 #@! TO.C,U28*
X117812000Y-146122000D02*
X124812000Y-146122000D01*
X117812000Y-151322000D02*
X124812000Y-151322000D01*
X124812000Y-151322000D02*
X124812000Y-150322000D01*
G04 #@! TO.C,U29*
X114312000Y-151322000D02*
X114312000Y-150322000D01*
X107312000Y-151322000D02*
X114312000Y-151322000D01*
X107312000Y-146122000D02*
X114312000Y-146122000D01*
G04 #@! TO.C,U30*
X107812000Y-130622000D02*
X114812000Y-130622000D01*
X107812000Y-135822000D02*
X114812000Y-135822000D01*
X114812000Y-135822000D02*
X114812000Y-134822000D01*
G04 #@! TO.C,U31*
X124142000Y-135822000D02*
X124142000Y-134822000D01*
X117142000Y-135822000D02*
X124142000Y-135822000D01*
X117142000Y-130622000D02*
X124142000Y-130622000D01*
G04 #@! TO.C,U32*
X117142000Y-121872000D02*
X124142000Y-121872000D01*
X117142000Y-127072000D02*
X124142000Y-127072000D01*
X124142000Y-127072000D02*
X124142000Y-126072000D01*
G04 #@! TO.C,U33*
X124142000Y-117322000D02*
X124142000Y-116322000D01*
X117142000Y-117322000D02*
X124142000Y-117322000D01*
X117142000Y-112122000D02*
X124142000Y-112122000D01*
G04 #@! TO.C,U34*
X117142000Y-102372000D02*
X124142000Y-102372000D01*
X117142000Y-107572000D02*
X124142000Y-107572000D01*
X124142000Y-107572000D02*
X124142000Y-106572000D01*
G04 #@! TO.C,U35*
X124142000Y-97822500D02*
X124142000Y-96822500D01*
X117142000Y-97822500D02*
X124142000Y-97822500D01*
X117142000Y-92622500D02*
X124142000Y-92622500D01*
G04 #@! TO.C,U36*
X117142000Y-82622500D02*
X124142000Y-82622500D01*
X117142000Y-87822500D02*
X124142000Y-87822500D01*
X124142000Y-87822500D02*
X124142000Y-86822500D01*
G04 #@! TO.C,U37*
X124312000Y-78822500D02*
X124312000Y-77822500D01*
X117312000Y-78822500D02*
X124312000Y-78822500D01*
X117312000Y-73622500D02*
X124312000Y-73622500D01*
G04 #@! TO.C,U38*
X108812000Y-73622500D02*
X115812000Y-73622500D01*
X108812000Y-78822500D02*
X115812000Y-78822500D01*
X115812000Y-78822500D02*
X115812000Y-77822500D01*
G04 #@! TO.C,U39*
X107062000Y-78822500D02*
X107062000Y-77822500D01*
X100062000Y-78822500D02*
X107062000Y-78822500D01*
X100062000Y-73622500D02*
X107062000Y-73622500D01*
G04 #@! TO.C,U14*
X168687000Y-89912500D02*
X168687000Y-88912500D01*
X161687000Y-89912500D02*
X168687000Y-89912500D01*
X161687000Y-84712500D02*
X168687000Y-84712500D01*
G04 #@! TO.C,C3*
X128500000Y-140350000D02*
X127500000Y-140350000D01*
X127500000Y-142050000D02*
X128500000Y-142050000D01*
G04 #@! TO.C,C4*
X126750000Y-69600000D02*
X127750000Y-69600000D01*
X127750000Y-67900000D02*
X126750000Y-67900000D01*
G04 #@! TO.C,C5*
X96020000Y-84403300D02*
X97020000Y-84403300D01*
X97020000Y-82703300D02*
X96020000Y-82703300D01*
G04 #@! TO.C,C6*
X128350000Y-85000000D02*
X128350000Y-84000000D01*
X126650000Y-84000000D02*
X126650000Y-85000000D01*
G04 #@! TO.C,C7*
X158996000Y-82550900D02*
X157996000Y-82550900D01*
X157996000Y-84250900D02*
X158996000Y-84250900D01*
G04 #@! TO.C,C8*
X126750000Y-133250000D02*
X126750000Y-134250000D01*
X128450000Y-134250000D02*
X128450000Y-133250000D01*
G04 #@! TO.C,U40*
X107062000Y-89922500D02*
X107062000Y-88922500D01*
X100062000Y-89922500D02*
X107062000Y-89922500D01*
X100062000Y-84722500D02*
X107062000Y-84722500D01*
G04 #@! TO.C,SW1*
X122250000Y-141622000D02*
X122250000Y-140122000D01*
X121000000Y-137622000D02*
X116500000Y-137622000D01*
X115250000Y-140122000D02*
X115250000Y-141622000D01*
X116500000Y-144122000D02*
X121000000Y-144122000D01*
G04 #@! TO.C,R1*
X95120000Y-68150000D02*
X95120000Y-66950000D01*
X96880000Y-66950000D02*
X96880000Y-68150000D01*
D12*
G04 #@! TO.C,MCU1*
X100423607Y-65900000D02*
G75*
G03X100423607Y-65900000I-223607J0D01*
G01*
X100341421Y-65900000D02*
G75*
G03X100341421Y-65900000I-141421J0D01*
G01*
X101041421Y-66500000D02*
G75*
G03X101041421Y-66500000I-141421J0D01*
G01*
D13*
X100200000Y-65900000D02*
X100200000Y-66000000D01*
X105900000Y-65900000D02*
X105900000Y-66100000D01*
X105800000Y-71075000D02*
X105800000Y-70930000D01*
X100200000Y-71100000D02*
X100200000Y-70900000D01*
X100200000Y-65900000D02*
X105900000Y-65900000D01*
X100225000Y-71100000D02*
X105800000Y-71100000D01*
D12*
G04 #@! TO.C,USB1*
X105750000Y-144962000D02*
X105750000Y-144462000D01*
X105750000Y-144962000D02*
X106250000Y-144962000D01*
X111000000Y-144962000D02*
X111000000Y-144462000D01*
X111000000Y-144962000D02*
X110500000Y-144962000D01*
X110750000Y-139362000D02*
X109450000Y-139362000D01*
X105750000Y-136962000D02*
X105750000Y-137462000D01*
X105750000Y-136962000D02*
X106300000Y-136962000D01*
X111000000Y-136962000D02*
X111000000Y-137462000D01*
X111000000Y-136962000D02*
X110500000Y-136962000D01*
D11*
G04 #@! TO.C,D1*
X125850000Y-115300000D02*
X125850000Y-109900000D01*
X129150000Y-115300000D02*
X129150000Y-109900000D01*
X125850000Y-115300000D02*
X129150000Y-115300000D01*
G04 #@! TO.C,J2*
X116670000Y-66485000D02*
X116735000Y-66485000D01*
X116670000Y-70015000D02*
X116735000Y-70015000D01*
X110265000Y-66485000D02*
X110330000Y-66485000D01*
X110265000Y-70015000D02*
X110330000Y-70015000D01*
X110330000Y-71340000D02*
X110330000Y-70015000D01*
X116735000Y-70015000D02*
X116735000Y-66485000D01*
X110265000Y-70015000D02*
X110265000Y-66485000D01*
G04 #@! TO.C,SW2*
X134420000Y-142580000D02*
X134420000Y-141250000D01*
X135750000Y-142580000D02*
X134420000Y-142580000D01*
X137020000Y-142580000D02*
X137020000Y-139920000D01*
X137020000Y-139920000D02*
X144700000Y-139920000D01*
X137020000Y-142580000D02*
X144700000Y-142580000D01*
X144700000Y-142580000D02*
X144700000Y-139920000D01*
G04 #@! TO.C,U1*
D13*
X88900095Y-83264880D02*
X88900095Y-84074404D01*
X88947714Y-84169642D01*
X88995333Y-84217261D01*
X89090571Y-84264880D01*
X89281047Y-84264880D01*
X89376285Y-84217261D01*
X89423904Y-84169642D01*
X89471523Y-84074404D01*
X89471523Y-83264880D01*
X90471523Y-84264880D02*
X89900095Y-84264880D01*
X90185809Y-84264880D02*
X90185809Y-83264880D01*
X90090571Y-83407738D01*
X89995333Y-83502976D01*
X89900095Y-83550595D01*
G04 #@! TO.C,U2*
X88900095Y-74374880D02*
X88900095Y-75184404D01*
X88947714Y-75279642D01*
X88995333Y-75327261D01*
X89090571Y-75374880D01*
X89281047Y-75374880D01*
X89376285Y-75327261D01*
X89423904Y-75279642D01*
X89471523Y-75184404D01*
X89471523Y-74374880D01*
X89900095Y-74470119D02*
X89947714Y-74422500D01*
X90042952Y-74374880D01*
X90281047Y-74374880D01*
X90376285Y-74422500D01*
X90423904Y-74470119D01*
X90471523Y-74565357D01*
X90471523Y-74660595D01*
X90423904Y-74803452D01*
X89852476Y-75374880D01*
X90471523Y-75374880D01*
G04 #@! TO.C,U3*
X88900095Y-65484880D02*
X88900095Y-66294404D01*
X88947714Y-66389642D01*
X88995333Y-66437261D01*
X89090571Y-66484880D01*
X89281047Y-66484880D01*
X89376285Y-66437261D01*
X89423904Y-66389642D01*
X89471523Y-66294404D01*
X89471523Y-65484880D01*
X89852476Y-65484880D02*
X90471523Y-65484880D01*
X90138190Y-65865833D01*
X90281047Y-65865833D01*
X90376285Y-65913452D01*
X90423904Y-65961071D01*
X90471523Y-66056309D01*
X90471523Y-66294404D01*
X90423904Y-66389642D01*
X90376285Y-66437261D01*
X90281047Y-66484880D01*
X89995333Y-66484880D01*
X89900095Y-66437261D01*
X89852476Y-66389642D01*
G04 #@! TO.C,U4*
X88900095Y-56594880D02*
X88900095Y-57404404D01*
X88947714Y-57499642D01*
X88995333Y-57547261D01*
X89090571Y-57594880D01*
X89281047Y-57594880D01*
X89376285Y-57547261D01*
X89423904Y-57499642D01*
X89471523Y-57404404D01*
X89471523Y-56594880D01*
X90376285Y-56928214D02*
X90376285Y-57594880D01*
X90138190Y-56547261D02*
X89900095Y-57261547D01*
X90519142Y-57261547D01*
G04 #@! TO.C,U5*
X100330095Y-56594880D02*
X100330095Y-57404404D01*
X100377714Y-57499642D01*
X100425333Y-57547261D01*
X100520571Y-57594880D01*
X100711047Y-57594880D01*
X100806285Y-57547261D01*
X100853904Y-57499642D01*
X100901523Y-57404404D01*
X100901523Y-56594880D01*
X101853904Y-56594880D02*
X101377714Y-56594880D01*
X101330095Y-57071071D01*
X101377714Y-57023452D01*
X101472952Y-56975833D01*
X101711047Y-56975833D01*
X101806285Y-57023452D01*
X101853904Y-57071071D01*
X101901523Y-57166309D01*
X101901523Y-57404404D01*
X101853904Y-57499642D01*
X101806285Y-57547261D01*
X101711047Y-57594880D01*
X101472952Y-57594880D01*
X101377714Y-57547261D01*
X101330095Y-57499642D01*
G04 #@! TO.C,U6*
X111760095Y-56594880D02*
X111760095Y-57404404D01*
X111807714Y-57499642D01*
X111855333Y-57547261D01*
X111950571Y-57594880D01*
X112141047Y-57594880D01*
X112236285Y-57547261D01*
X112283904Y-57499642D01*
X112331523Y-57404404D01*
X112331523Y-56594880D01*
X113236285Y-56594880D02*
X113045809Y-56594880D01*
X112950571Y-56642500D01*
X112902952Y-56690119D01*
X112807714Y-56832976D01*
X112760095Y-57023452D01*
X112760095Y-57404404D01*
X112807714Y-57499642D01*
X112855333Y-57547261D01*
X112950571Y-57594880D01*
X113141047Y-57594880D01*
X113236285Y-57547261D01*
X113283904Y-57499642D01*
X113331523Y-57404404D01*
X113331523Y-57166309D01*
X113283904Y-57071071D01*
X113236285Y-57023452D01*
X113141047Y-56975833D01*
X112950571Y-56975833D01*
X112855333Y-57023452D01*
X112807714Y-57071071D01*
X112760095Y-57166309D01*
G04 #@! TO.C,U7*
X121920095Y-56594880D02*
X121920095Y-57404404D01*
X121967714Y-57499642D01*
X122015333Y-57547261D01*
X122110571Y-57594880D01*
X122301047Y-57594880D01*
X122396285Y-57547261D01*
X122443904Y-57499642D01*
X122491523Y-57404404D01*
X122491523Y-56594880D01*
X122872476Y-56594880D02*
X123539142Y-56594880D01*
X123110571Y-57594880D01*
G04 #@! TO.C,U8*
X132080095Y-56594880D02*
X132080095Y-57404404D01*
X132127714Y-57499642D01*
X132175333Y-57547261D01*
X132270571Y-57594880D01*
X132461047Y-57594880D01*
X132556285Y-57547261D01*
X132603904Y-57499642D01*
X132651523Y-57404404D01*
X132651523Y-56594880D01*
X133270571Y-57023452D02*
X133175333Y-56975833D01*
X133127714Y-56928214D01*
X133080095Y-56832976D01*
X133080095Y-56785357D01*
X133127714Y-56690119D01*
X133175333Y-56642500D01*
X133270571Y-56594880D01*
X133461047Y-56594880D01*
X133556285Y-56642500D01*
X133603904Y-56690119D01*
X133651523Y-56785357D01*
X133651523Y-56832976D01*
X133603904Y-56928214D01*
X133556285Y-56975833D01*
X133461047Y-57023452D01*
X133270571Y-57023452D01*
X133175333Y-57071071D01*
X133127714Y-57118690D01*
X133080095Y-57213928D01*
X133080095Y-57404404D01*
X133127714Y-57499642D01*
X133175333Y-57547261D01*
X133270571Y-57594880D01*
X133461047Y-57594880D01*
X133556285Y-57547261D01*
X133603904Y-57499642D01*
X133651523Y-57404404D01*
X133651523Y-57213928D01*
X133603904Y-57118690D01*
X133556285Y-57071071D01*
X133461047Y-57023452D01*
G04 #@! TO.C,U9*
X142200095Y-56594880D02*
X142200095Y-57404404D01*
X142247714Y-57499642D01*
X142295333Y-57547261D01*
X142390571Y-57594880D01*
X142581047Y-57594880D01*
X142676285Y-57547261D01*
X142723904Y-57499642D01*
X142771523Y-57404404D01*
X142771523Y-56594880D01*
X143295333Y-57594880D02*
X143485809Y-57594880D01*
X143581047Y-57547261D01*
X143628666Y-57499642D01*
X143723904Y-57356785D01*
X143771523Y-57166309D01*
X143771523Y-56785357D01*
X143723904Y-56690119D01*
X143676285Y-56642500D01*
X143581047Y-56594880D01*
X143390571Y-56594880D01*
X143295333Y-56642500D01*
X143247714Y-56690119D01*
X143200095Y-56785357D01*
X143200095Y-57023452D01*
X143247714Y-57118690D01*
X143295333Y-57166309D01*
X143390571Y-57213928D01*
X143581047Y-57213928D01*
X143676285Y-57166309D01*
X143723904Y-57118690D01*
X143771523Y-57023452D01*
G04 #@! TO.C,U10*
X153193904Y-56594880D02*
X153193904Y-57404404D01*
X153241523Y-57499642D01*
X153289142Y-57547261D01*
X153384380Y-57594880D01*
X153574857Y-57594880D01*
X153670095Y-57547261D01*
X153717714Y-57499642D01*
X153765333Y-57404404D01*
X153765333Y-56594880D01*
X154765333Y-57594880D02*
X154193904Y-57594880D01*
X154479619Y-57594880D02*
X154479619Y-56594880D01*
X154384380Y-56737738D01*
X154289142Y-56832976D01*
X154193904Y-56880595D01*
X155384380Y-56594880D02*
X155479619Y-56594880D01*
X155574857Y-56642500D01*
X155622476Y-56690119D01*
X155670095Y-56785357D01*
X155717714Y-56975833D01*
X155717714Y-57213928D01*
X155670095Y-57404404D01*
X155622476Y-57499642D01*
X155574857Y-57547261D01*
X155479619Y-57594880D01*
X155384380Y-57594880D01*
X155289142Y-57547261D01*
X155241523Y-57499642D01*
X155193904Y-57404404D01*
X155146285Y-57213928D01*
X155146285Y-56975833D01*
X155193904Y-56785357D01*
X155241523Y-56690119D01*
X155289142Y-56642500D01*
X155384380Y-56594880D01*
G04 #@! TO.C,U11*
X163988904Y-56594880D02*
X163988904Y-57404404D01*
X164036523Y-57499642D01*
X164084142Y-57547261D01*
X164179380Y-57594880D01*
X164369857Y-57594880D01*
X164465095Y-57547261D01*
X164512714Y-57499642D01*
X164560333Y-57404404D01*
X164560333Y-56594880D01*
X165560333Y-57594880D02*
X164988904Y-57594880D01*
X165274619Y-57594880D02*
X165274619Y-56594880D01*
X165179380Y-56737738D01*
X165084142Y-56832976D01*
X164988904Y-56880595D01*
X166512714Y-57594880D02*
X165941285Y-57594880D01*
X166227000Y-57594880D02*
X166227000Y-56594880D01*
X166131761Y-56737738D01*
X166036523Y-56832976D01*
X165941285Y-56880595D01*
G04 #@! TO.C,U12*
X163988904Y-65484880D02*
X163988904Y-66294404D01*
X164036523Y-66389642D01*
X164084142Y-66437261D01*
X164179380Y-66484880D01*
X164369857Y-66484880D01*
X164465095Y-66437261D01*
X164512714Y-66389642D01*
X164560333Y-66294404D01*
X164560333Y-65484880D01*
X165560333Y-66484880D02*
X164988904Y-66484880D01*
X165274619Y-66484880D02*
X165274619Y-65484880D01*
X165179380Y-65627738D01*
X165084142Y-65722976D01*
X164988904Y-65770595D01*
X165941285Y-65580119D02*
X165988904Y-65532500D01*
X166084142Y-65484880D01*
X166322238Y-65484880D01*
X166417476Y-65532500D01*
X166465095Y-65580119D01*
X166512714Y-65675357D01*
X166512714Y-65770595D01*
X166465095Y-65913452D01*
X165893666Y-66484880D01*
X166512714Y-66484880D01*
G04 #@! TO.C,U13*
X163988904Y-74374880D02*
X163988904Y-75184404D01*
X164036523Y-75279642D01*
X164084142Y-75327261D01*
X164179380Y-75374880D01*
X164369857Y-75374880D01*
X164465095Y-75327261D01*
X164512714Y-75279642D01*
X164560333Y-75184404D01*
X164560333Y-74374880D01*
X165560333Y-75374880D02*
X164988904Y-75374880D01*
X165274619Y-75374880D02*
X165274619Y-74374880D01*
X165179380Y-74517738D01*
X165084142Y-74612976D01*
X164988904Y-74660595D01*
X165893666Y-74374880D02*
X166512714Y-74374880D01*
X166179380Y-74755833D01*
X166322238Y-74755833D01*
X166417476Y-74803452D01*
X166465095Y-74851071D01*
X166512714Y-74946309D01*
X166512714Y-75184404D01*
X166465095Y-75279642D01*
X166417476Y-75327261D01*
X166322238Y-75374880D01*
X166036523Y-75374880D01*
X165941285Y-75327261D01*
X165893666Y-75279642D01*
G04 #@! TO.C,U15*
X150562904Y-83264880D02*
X150562904Y-84074404D01*
X150610523Y-84169642D01*
X150658142Y-84217261D01*
X150753380Y-84264880D01*
X150943857Y-84264880D01*
X151039095Y-84217261D01*
X151086714Y-84169642D01*
X151134333Y-84074404D01*
X151134333Y-83264880D01*
X152134333Y-84264880D02*
X151562904Y-84264880D01*
X151848619Y-84264880D02*
X151848619Y-83264880D01*
X151753380Y-83407738D01*
X151658142Y-83502976D01*
X151562904Y-83550595D01*
X153039095Y-83264880D02*
X152562904Y-83264880D01*
X152515285Y-83741071D01*
X152562904Y-83693452D01*
X152658142Y-83645833D01*
X152896238Y-83645833D01*
X152991476Y-83693452D01*
X153039095Y-83741071D01*
X153086714Y-83836309D01*
X153086714Y-84074404D01*
X153039095Y-84169642D01*
X152991476Y-84217261D01*
X152896238Y-84264880D01*
X152658142Y-84264880D01*
X152562904Y-84217261D01*
X152515285Y-84169642D01*
G04 #@! TO.C,U16*
X150359904Y-72174880D02*
X150359904Y-72984404D01*
X150407523Y-73079642D01*
X150455142Y-73127261D01*
X150550380Y-73174880D01*
X150740857Y-73174880D01*
X150836095Y-73127261D01*
X150883714Y-73079642D01*
X150931333Y-72984404D01*
X150931333Y-72174880D01*
X151931333Y-73174880D02*
X151359904Y-73174880D01*
X151645619Y-73174880D02*
X151645619Y-72174880D01*
X151550380Y-72317738D01*
X151455142Y-72412976D01*
X151359904Y-72460595D01*
X152788476Y-72174880D02*
X152598000Y-72174880D01*
X152502761Y-72222500D01*
X152455142Y-72270119D01*
X152359904Y-72412976D01*
X152312285Y-72603452D01*
X152312285Y-72984404D01*
X152359904Y-73079642D01*
X152407523Y-73127261D01*
X152502761Y-73174880D01*
X152693238Y-73174880D01*
X152788476Y-73127261D01*
X152836095Y-73079642D01*
X152883714Y-72984404D01*
X152883714Y-72746309D01*
X152836095Y-72651071D01*
X152788476Y-72603452D01*
X152693238Y-72555833D01*
X152502761Y-72555833D01*
X152407523Y-72603452D01*
X152359904Y-72651071D01*
X152312285Y-72746309D01*
G04 #@! TO.C,U17*
X141763904Y-72174880D02*
X141763904Y-72984404D01*
X141811523Y-73079642D01*
X141859142Y-73127261D01*
X141954380Y-73174880D01*
X142144857Y-73174880D01*
X142240095Y-73127261D01*
X142287714Y-73079642D01*
X142335333Y-72984404D01*
X142335333Y-72174880D01*
X143335333Y-73174880D02*
X142763904Y-73174880D01*
X143049619Y-73174880D02*
X143049619Y-72174880D01*
X142954380Y-72317738D01*
X142859142Y-72412976D01*
X142763904Y-72460595D01*
X143668666Y-72174880D02*
X144335333Y-72174880D01*
X143906761Y-73174880D01*
G04 #@! TO.C,U18*
X132873904Y-72174880D02*
X132873904Y-72984404D01*
X132921523Y-73079642D01*
X132969142Y-73127261D01*
X133064380Y-73174880D01*
X133254857Y-73174880D01*
X133350095Y-73127261D01*
X133397714Y-73079642D01*
X133445333Y-72984404D01*
X133445333Y-72174880D01*
X134445333Y-73174880D02*
X133873904Y-73174880D01*
X134159619Y-73174880D02*
X134159619Y-72174880D01*
X134064380Y-72317738D01*
X133969142Y-72412976D01*
X133873904Y-72460595D01*
X135016761Y-72603452D02*
X134921523Y-72555833D01*
X134873904Y-72508214D01*
X134826285Y-72412976D01*
X134826285Y-72365357D01*
X134873904Y-72270119D01*
X134921523Y-72222500D01*
X135016761Y-72174880D01*
X135207238Y-72174880D01*
X135302476Y-72222500D01*
X135350095Y-72270119D01*
X135397714Y-72365357D01*
X135397714Y-72412976D01*
X135350095Y-72508214D01*
X135302476Y-72555833D01*
X135207238Y-72603452D01*
X135016761Y-72603452D01*
X134921523Y-72651071D01*
X134873904Y-72698690D01*
X134826285Y-72793928D01*
X134826285Y-72984404D01*
X134873904Y-73079642D01*
X134921523Y-73127261D01*
X135016761Y-73174880D01*
X135207238Y-73174880D01*
X135302476Y-73127261D01*
X135350095Y-73079642D01*
X135397714Y-72984404D01*
X135397714Y-72793928D01*
X135350095Y-72698690D01*
X135302476Y-72651071D01*
X135207238Y-72603452D01*
G04 #@! TO.C,U19*
X132873904Y-81174880D02*
X132873904Y-81984404D01*
X132921523Y-82079642D01*
X132969142Y-82127261D01*
X133064380Y-82174880D01*
X133254857Y-82174880D01*
X133350095Y-82127261D01*
X133397714Y-82079642D01*
X133445333Y-81984404D01*
X133445333Y-81174880D01*
X134445333Y-82174880D02*
X133873904Y-82174880D01*
X134159619Y-82174880D02*
X134159619Y-81174880D01*
X134064380Y-81317738D01*
X133969142Y-81412976D01*
X133873904Y-81460595D01*
X134921523Y-82174880D02*
X135112000Y-82174880D01*
X135207238Y-82127261D01*
X135254857Y-82079642D01*
X135350095Y-81936785D01*
X135397714Y-81746309D01*
X135397714Y-81365357D01*
X135350095Y-81270119D01*
X135302476Y-81222500D01*
X135207238Y-81174880D01*
X135016761Y-81174880D01*
X134921523Y-81222500D01*
X134873904Y-81270119D01*
X134826285Y-81365357D01*
X134826285Y-81603452D01*
X134873904Y-81698690D01*
X134921523Y-81746309D01*
X135016761Y-81793928D01*
X135207238Y-81793928D01*
X135302476Y-81746309D01*
X135350095Y-81698690D01*
X135397714Y-81603452D01*
G04 #@! TO.C,U20*
X133073904Y-91174880D02*
X133073904Y-91984404D01*
X133121523Y-92079642D01*
X133169142Y-92127261D01*
X133264380Y-92174880D01*
X133454857Y-92174880D01*
X133550095Y-92127261D01*
X133597714Y-92079642D01*
X133645333Y-91984404D01*
X133645333Y-91174880D01*
X134073904Y-91270119D02*
X134121523Y-91222500D01*
X134216761Y-91174880D01*
X134454857Y-91174880D01*
X134550095Y-91222500D01*
X134597714Y-91270119D01*
X134645333Y-91365357D01*
X134645333Y-91460595D01*
X134597714Y-91603452D01*
X134026285Y-92174880D01*
X134645333Y-92174880D01*
X135264380Y-91174880D02*
X135359619Y-91174880D01*
X135454857Y-91222500D01*
X135502476Y-91270119D01*
X135550095Y-91365357D01*
X135597714Y-91555833D01*
X135597714Y-91793928D01*
X135550095Y-91984404D01*
X135502476Y-92079642D01*
X135454857Y-92127261D01*
X135359619Y-92174880D01*
X135264380Y-92174880D01*
X135169142Y-92127261D01*
X135121523Y-92079642D01*
X135073904Y-91984404D01*
X135026285Y-91793928D01*
X135026285Y-91555833D01*
X135073904Y-91365357D01*
X135121523Y-91270119D01*
X135169142Y-91222500D01*
X135264380Y-91174880D01*
G04 #@! TO.C,U21*
X133073904Y-100924380D02*
X133073904Y-101733904D01*
X133121523Y-101829142D01*
X133169142Y-101876761D01*
X133264380Y-101924380D01*
X133454857Y-101924380D01*
X133550095Y-101876761D01*
X133597714Y-101829142D01*
X133645333Y-101733904D01*
X133645333Y-100924380D01*
X134073904Y-101019619D02*
X134121523Y-100972000D01*
X134216761Y-100924380D01*
X134454857Y-100924380D01*
X134550095Y-100972000D01*
X134597714Y-101019619D01*
X134645333Y-101114857D01*
X134645333Y-101210095D01*
X134597714Y-101352952D01*
X134026285Y-101924380D01*
X134645333Y-101924380D01*
X135597714Y-101924380D02*
X135026285Y-101924380D01*
X135312000Y-101924380D02*
X135312000Y-100924380D01*
X135216761Y-101067238D01*
X135121523Y-101162476D01*
X135026285Y-101210095D01*
G04 #@! TO.C,U22*
X133073904Y-110674380D02*
X133073904Y-111483904D01*
X133121523Y-111579142D01*
X133169142Y-111626761D01*
X133264380Y-111674380D01*
X133454857Y-111674380D01*
X133550095Y-111626761D01*
X133597714Y-111579142D01*
X133645333Y-111483904D01*
X133645333Y-110674380D01*
X134073904Y-110769619D02*
X134121523Y-110722000D01*
X134216761Y-110674380D01*
X134454857Y-110674380D01*
X134550095Y-110722000D01*
X134597714Y-110769619D01*
X134645333Y-110864857D01*
X134645333Y-110960095D01*
X134597714Y-111102952D01*
X134026285Y-111674380D01*
X134645333Y-111674380D01*
X135026285Y-110769619D02*
X135073904Y-110722000D01*
X135169142Y-110674380D01*
X135407238Y-110674380D01*
X135502476Y-110722000D01*
X135550095Y-110769619D01*
X135597714Y-110864857D01*
X135597714Y-110960095D01*
X135550095Y-111102952D01*
X134978666Y-111674380D01*
X135597714Y-111674380D01*
G04 #@! TO.C,U23*
X133073904Y-120424380D02*
X133073904Y-121233904D01*
X133121523Y-121329142D01*
X133169142Y-121376761D01*
X133264380Y-121424380D01*
X133454857Y-121424380D01*
X133550095Y-121376761D01*
X133597714Y-121329142D01*
X133645333Y-121233904D01*
X133645333Y-120424380D01*
X134073904Y-120519619D02*
X134121523Y-120472000D01*
X134216761Y-120424380D01*
X134454857Y-120424380D01*
X134550095Y-120472000D01*
X134597714Y-120519619D01*
X134645333Y-120614857D01*
X134645333Y-120710095D01*
X134597714Y-120852952D01*
X134026285Y-121424380D01*
X134645333Y-121424380D01*
X134978666Y-120424380D02*
X135597714Y-120424380D01*
X135264380Y-120805333D01*
X135407238Y-120805333D01*
X135502476Y-120852952D01*
X135550095Y-120900571D01*
X135597714Y-120995809D01*
X135597714Y-121233904D01*
X135550095Y-121329142D01*
X135502476Y-121376761D01*
X135407238Y-121424380D01*
X135121523Y-121424380D01*
X135026285Y-121376761D01*
X134978666Y-121329142D01*
G04 #@! TO.C,U24*
X133073904Y-129174380D02*
X133073904Y-129983904D01*
X133121523Y-130079142D01*
X133169142Y-130126761D01*
X133264380Y-130174380D01*
X133454857Y-130174380D01*
X133550095Y-130126761D01*
X133597714Y-130079142D01*
X133645333Y-129983904D01*
X133645333Y-129174380D01*
X134073904Y-129269619D02*
X134121523Y-129222000D01*
X134216761Y-129174380D01*
X134454857Y-129174380D01*
X134550095Y-129222000D01*
X134597714Y-129269619D01*
X134645333Y-129364857D01*
X134645333Y-129460095D01*
X134597714Y-129602952D01*
X134026285Y-130174380D01*
X134645333Y-130174380D01*
X135502476Y-129507714D02*
X135502476Y-130174380D01*
X135264380Y-129126761D02*
X135026285Y-129841047D01*
X135645333Y-129841047D01*
G04 #@! TO.C,U25*
X143033904Y-129174380D02*
X143033904Y-129983904D01*
X143081523Y-130079142D01*
X143129142Y-130126761D01*
X143224380Y-130174380D01*
X143414857Y-130174380D01*
X143510095Y-130126761D01*
X143557714Y-130079142D01*
X143605333Y-129983904D01*
X143605333Y-129174380D01*
X144033904Y-129269619D02*
X144081523Y-129222000D01*
X144176761Y-129174380D01*
X144414857Y-129174380D01*
X144510095Y-129222000D01*
X144557714Y-129269619D01*
X144605333Y-129364857D01*
X144605333Y-129460095D01*
X144557714Y-129602952D01*
X143986285Y-130174380D01*
X144605333Y-130174380D01*
X145510095Y-129174380D02*
X145033904Y-129174380D01*
X144986285Y-129650571D01*
X145033904Y-129602952D01*
X145129142Y-129555333D01*
X145367238Y-129555333D01*
X145462476Y-129602952D01*
X145510095Y-129650571D01*
X145557714Y-129745809D01*
X145557714Y-129983904D01*
X145510095Y-130079142D01*
X145462476Y-130126761D01*
X145367238Y-130174380D01*
X145129142Y-130174380D01*
X145033904Y-130126761D01*
X144986285Y-130079142D01*
G04 #@! TO.C,U26*
X143323904Y-144674380D02*
X143323904Y-145483904D01*
X143371523Y-145579142D01*
X143419142Y-145626761D01*
X143514380Y-145674380D01*
X143704857Y-145674380D01*
X143800095Y-145626761D01*
X143847714Y-145579142D01*
X143895333Y-145483904D01*
X143895333Y-144674380D01*
X144323904Y-144769619D02*
X144371523Y-144722000D01*
X144466761Y-144674380D01*
X144704857Y-144674380D01*
X144800095Y-144722000D01*
X144847714Y-144769619D01*
X144895333Y-144864857D01*
X144895333Y-144960095D01*
X144847714Y-145102952D01*
X144276285Y-145674380D01*
X144895333Y-145674380D01*
X145752476Y-144674380D02*
X145562000Y-144674380D01*
X145466761Y-144722000D01*
X145419142Y-144769619D01*
X145323904Y-144912476D01*
X145276285Y-145102952D01*
X145276285Y-145483904D01*
X145323904Y-145579142D01*
X145371523Y-145626761D01*
X145466761Y-145674380D01*
X145657238Y-145674380D01*
X145752476Y-145626761D01*
X145800095Y-145579142D01*
X145847714Y-145483904D01*
X145847714Y-145245809D01*
X145800095Y-145150571D01*
X145752476Y-145102952D01*
X145657238Y-145055333D01*
X145466761Y-145055333D01*
X145371523Y-145102952D01*
X145323904Y-145150571D01*
X145276285Y-145245809D01*
G04 #@! TO.C,U27*
X132573904Y-144674380D02*
X132573904Y-145483904D01*
X132621523Y-145579142D01*
X132669142Y-145626761D01*
X132764380Y-145674380D01*
X132954857Y-145674380D01*
X133050095Y-145626761D01*
X133097714Y-145579142D01*
X133145333Y-145483904D01*
X133145333Y-144674380D01*
X133573904Y-144769619D02*
X133621523Y-144722000D01*
X133716761Y-144674380D01*
X133954857Y-144674380D01*
X134050095Y-144722000D01*
X134097714Y-144769619D01*
X134145333Y-144864857D01*
X134145333Y-144960095D01*
X134097714Y-145102952D01*
X133526285Y-145674380D01*
X134145333Y-145674380D01*
X134478666Y-144674380D02*
X135145333Y-144674380D01*
X134716761Y-145674380D01*
G04 #@! TO.C,U28*
X120073904Y-144674380D02*
X120073904Y-145483904D01*
X120121523Y-145579142D01*
X120169142Y-145626761D01*
X120264380Y-145674380D01*
X120454857Y-145674380D01*
X120550095Y-145626761D01*
X120597714Y-145579142D01*
X120645333Y-145483904D01*
X120645333Y-144674380D01*
X121073904Y-144769619D02*
X121121523Y-144722000D01*
X121216761Y-144674380D01*
X121454857Y-144674380D01*
X121550095Y-144722000D01*
X121597714Y-144769619D01*
X121645333Y-144864857D01*
X121645333Y-144960095D01*
X121597714Y-145102952D01*
X121026285Y-145674380D01*
X121645333Y-145674380D01*
X122216761Y-145102952D02*
X122121523Y-145055333D01*
X122073904Y-145007714D01*
X122026285Y-144912476D01*
X122026285Y-144864857D01*
X122073904Y-144769619D01*
X122121523Y-144722000D01*
X122216761Y-144674380D01*
X122407238Y-144674380D01*
X122502476Y-144722000D01*
X122550095Y-144769619D01*
X122597714Y-144864857D01*
X122597714Y-144912476D01*
X122550095Y-145007714D01*
X122502476Y-145055333D01*
X122407238Y-145102952D01*
X122216761Y-145102952D01*
X122121523Y-145150571D01*
X122073904Y-145198190D01*
X122026285Y-145293428D01*
X122026285Y-145483904D01*
X122073904Y-145579142D01*
X122121523Y-145626761D01*
X122216761Y-145674380D01*
X122407238Y-145674380D01*
X122502476Y-145626761D01*
X122550095Y-145579142D01*
X122597714Y-145483904D01*
X122597714Y-145293428D01*
X122550095Y-145198190D01*
X122502476Y-145150571D01*
X122407238Y-145102952D01*
G04 #@! TO.C,U29*
X109573904Y-144674380D02*
X109573904Y-145483904D01*
X109621523Y-145579142D01*
X109669142Y-145626761D01*
X109764380Y-145674380D01*
X109954857Y-145674380D01*
X110050095Y-145626761D01*
X110097714Y-145579142D01*
X110145333Y-145483904D01*
X110145333Y-144674380D01*
X110573904Y-144769619D02*
X110621523Y-144722000D01*
X110716761Y-144674380D01*
X110954857Y-144674380D01*
X111050095Y-144722000D01*
X111097714Y-144769619D01*
X111145333Y-144864857D01*
X111145333Y-144960095D01*
X111097714Y-145102952D01*
X110526285Y-145674380D01*
X111145333Y-145674380D01*
X111621523Y-145674380D02*
X111812000Y-145674380D01*
X111907238Y-145626761D01*
X111954857Y-145579142D01*
X112050095Y-145436285D01*
X112097714Y-145245809D01*
X112097714Y-144864857D01*
X112050095Y-144769619D01*
X112002476Y-144722000D01*
X111907238Y-144674380D01*
X111716761Y-144674380D01*
X111621523Y-144722000D01*
X111573904Y-144769619D01*
X111526285Y-144864857D01*
X111526285Y-145102952D01*
X111573904Y-145198190D01*
X111621523Y-145245809D01*
X111716761Y-145293428D01*
X111907238Y-145293428D01*
X112002476Y-145245809D01*
X112050095Y-145198190D01*
X112097714Y-145102952D01*
G04 #@! TO.C,U30*
X110073904Y-129174380D02*
X110073904Y-129983904D01*
X110121523Y-130079142D01*
X110169142Y-130126761D01*
X110264380Y-130174380D01*
X110454857Y-130174380D01*
X110550095Y-130126761D01*
X110597714Y-130079142D01*
X110645333Y-129983904D01*
X110645333Y-129174380D01*
X111026285Y-129174380D02*
X111645333Y-129174380D01*
X111312000Y-129555333D01*
X111454857Y-129555333D01*
X111550095Y-129602952D01*
X111597714Y-129650571D01*
X111645333Y-129745809D01*
X111645333Y-129983904D01*
X111597714Y-130079142D01*
X111550095Y-130126761D01*
X111454857Y-130174380D01*
X111169142Y-130174380D01*
X111073904Y-130126761D01*
X111026285Y-130079142D01*
X112264380Y-129174380D02*
X112359619Y-129174380D01*
X112454857Y-129222000D01*
X112502476Y-129269619D01*
X112550095Y-129364857D01*
X112597714Y-129555333D01*
X112597714Y-129793428D01*
X112550095Y-129983904D01*
X112502476Y-130079142D01*
X112454857Y-130126761D01*
X112359619Y-130174380D01*
X112264380Y-130174380D01*
X112169142Y-130126761D01*
X112121523Y-130079142D01*
X112073904Y-129983904D01*
X112026285Y-129793428D01*
X112026285Y-129555333D01*
X112073904Y-129364857D01*
X112121523Y-129269619D01*
X112169142Y-129222000D01*
X112264380Y-129174380D01*
G04 #@! TO.C,U31*
X119403904Y-129174380D02*
X119403904Y-129983904D01*
X119451523Y-130079142D01*
X119499142Y-130126761D01*
X119594380Y-130174380D01*
X119784857Y-130174380D01*
X119880095Y-130126761D01*
X119927714Y-130079142D01*
X119975333Y-129983904D01*
X119975333Y-129174380D01*
X120356285Y-129174380D02*
X120975333Y-129174380D01*
X120642000Y-129555333D01*
X120784857Y-129555333D01*
X120880095Y-129602952D01*
X120927714Y-129650571D01*
X120975333Y-129745809D01*
X120975333Y-129983904D01*
X120927714Y-130079142D01*
X120880095Y-130126761D01*
X120784857Y-130174380D01*
X120499142Y-130174380D01*
X120403904Y-130126761D01*
X120356285Y-130079142D01*
X121927714Y-130174380D02*
X121356285Y-130174380D01*
X121642000Y-130174380D02*
X121642000Y-129174380D01*
X121546761Y-129317238D01*
X121451523Y-129412476D01*
X121356285Y-129460095D01*
G04 #@! TO.C,U32*
X119403904Y-120424380D02*
X119403904Y-121233904D01*
X119451523Y-121329142D01*
X119499142Y-121376761D01*
X119594380Y-121424380D01*
X119784857Y-121424380D01*
X119880095Y-121376761D01*
X119927714Y-121329142D01*
X119975333Y-121233904D01*
X119975333Y-120424380D01*
X120356285Y-120424380D02*
X120975333Y-120424380D01*
X120642000Y-120805333D01*
X120784857Y-120805333D01*
X120880095Y-120852952D01*
X120927714Y-120900571D01*
X120975333Y-120995809D01*
X120975333Y-121233904D01*
X120927714Y-121329142D01*
X120880095Y-121376761D01*
X120784857Y-121424380D01*
X120499142Y-121424380D01*
X120403904Y-121376761D01*
X120356285Y-121329142D01*
X121356285Y-120519619D02*
X121403904Y-120472000D01*
X121499142Y-120424380D01*
X121737238Y-120424380D01*
X121832476Y-120472000D01*
X121880095Y-120519619D01*
X121927714Y-120614857D01*
X121927714Y-120710095D01*
X121880095Y-120852952D01*
X121308666Y-121424380D01*
X121927714Y-121424380D01*
G04 #@! TO.C,U33*
X119403904Y-110674380D02*
X119403904Y-111483904D01*
X119451523Y-111579142D01*
X119499142Y-111626761D01*
X119594380Y-111674380D01*
X119784857Y-111674380D01*
X119880095Y-111626761D01*
X119927714Y-111579142D01*
X119975333Y-111483904D01*
X119975333Y-110674380D01*
X120356285Y-110674380D02*
X120975333Y-110674380D01*
X120642000Y-111055333D01*
X120784857Y-111055333D01*
X120880095Y-111102952D01*
X120927714Y-111150571D01*
X120975333Y-111245809D01*
X120975333Y-111483904D01*
X120927714Y-111579142D01*
X120880095Y-111626761D01*
X120784857Y-111674380D01*
X120499142Y-111674380D01*
X120403904Y-111626761D01*
X120356285Y-111579142D01*
X121308666Y-110674380D02*
X121927714Y-110674380D01*
X121594380Y-111055333D01*
X121737238Y-111055333D01*
X121832476Y-111102952D01*
X121880095Y-111150571D01*
X121927714Y-111245809D01*
X121927714Y-111483904D01*
X121880095Y-111579142D01*
X121832476Y-111626761D01*
X121737238Y-111674380D01*
X121451523Y-111674380D01*
X121356285Y-111626761D01*
X121308666Y-111579142D01*
G04 #@! TO.C,U34*
X119403904Y-100924380D02*
X119403904Y-101733904D01*
X119451523Y-101829142D01*
X119499142Y-101876761D01*
X119594380Y-101924380D01*
X119784857Y-101924380D01*
X119880095Y-101876761D01*
X119927714Y-101829142D01*
X119975333Y-101733904D01*
X119975333Y-100924380D01*
X120356285Y-100924380D02*
X120975333Y-100924380D01*
X120642000Y-101305333D01*
X120784857Y-101305333D01*
X120880095Y-101352952D01*
X120927714Y-101400571D01*
X120975333Y-101495809D01*
X120975333Y-101733904D01*
X120927714Y-101829142D01*
X120880095Y-101876761D01*
X120784857Y-101924380D01*
X120499142Y-101924380D01*
X120403904Y-101876761D01*
X120356285Y-101829142D01*
X121832476Y-101257714D02*
X121832476Y-101924380D01*
X121594380Y-100876761D02*
X121356285Y-101591047D01*
X121975333Y-101591047D01*
G04 #@! TO.C,U35*
X119403904Y-91174880D02*
X119403904Y-91984404D01*
X119451523Y-92079642D01*
X119499142Y-92127261D01*
X119594380Y-92174880D01*
X119784857Y-92174880D01*
X119880095Y-92127261D01*
X119927714Y-92079642D01*
X119975333Y-91984404D01*
X119975333Y-91174880D01*
X120356285Y-91174880D02*
X120975333Y-91174880D01*
X120642000Y-91555833D01*
X120784857Y-91555833D01*
X120880095Y-91603452D01*
X120927714Y-91651071D01*
X120975333Y-91746309D01*
X120975333Y-91984404D01*
X120927714Y-92079642D01*
X120880095Y-92127261D01*
X120784857Y-92174880D01*
X120499142Y-92174880D01*
X120403904Y-92127261D01*
X120356285Y-92079642D01*
X121880095Y-91174880D02*
X121403904Y-91174880D01*
X121356285Y-91651071D01*
X121403904Y-91603452D01*
X121499142Y-91555833D01*
X121737238Y-91555833D01*
X121832476Y-91603452D01*
X121880095Y-91651071D01*
X121927714Y-91746309D01*
X121927714Y-91984404D01*
X121880095Y-92079642D01*
X121832476Y-92127261D01*
X121737238Y-92174880D01*
X121499142Y-92174880D01*
X121403904Y-92127261D01*
X121356285Y-92079642D01*
G04 #@! TO.C,U36*
X119403904Y-81174880D02*
X119403904Y-81984404D01*
X119451523Y-82079642D01*
X119499142Y-82127261D01*
X119594380Y-82174880D01*
X119784857Y-82174880D01*
X119880095Y-82127261D01*
X119927714Y-82079642D01*
X119975333Y-81984404D01*
X119975333Y-81174880D01*
X120356285Y-81174880D02*
X120975333Y-81174880D01*
X120642000Y-81555833D01*
X120784857Y-81555833D01*
X120880095Y-81603452D01*
X120927714Y-81651071D01*
X120975333Y-81746309D01*
X120975333Y-81984404D01*
X120927714Y-82079642D01*
X120880095Y-82127261D01*
X120784857Y-82174880D01*
X120499142Y-82174880D01*
X120403904Y-82127261D01*
X120356285Y-82079642D01*
X121832476Y-81174880D02*
X121642000Y-81174880D01*
X121546761Y-81222500D01*
X121499142Y-81270119D01*
X121403904Y-81412976D01*
X121356285Y-81603452D01*
X121356285Y-81984404D01*
X121403904Y-82079642D01*
X121451523Y-82127261D01*
X121546761Y-82174880D01*
X121737238Y-82174880D01*
X121832476Y-82127261D01*
X121880095Y-82079642D01*
X121927714Y-81984404D01*
X121927714Y-81746309D01*
X121880095Y-81651071D01*
X121832476Y-81603452D01*
X121737238Y-81555833D01*
X121546761Y-81555833D01*
X121451523Y-81603452D01*
X121403904Y-81651071D01*
X121356285Y-81746309D01*
G04 #@! TO.C,U37*
X119573904Y-72174880D02*
X119573904Y-72984404D01*
X119621523Y-73079642D01*
X119669142Y-73127261D01*
X119764380Y-73174880D01*
X119954857Y-73174880D01*
X120050095Y-73127261D01*
X120097714Y-73079642D01*
X120145333Y-72984404D01*
X120145333Y-72174880D01*
X120526285Y-72174880D02*
X121145333Y-72174880D01*
X120812000Y-72555833D01*
X120954857Y-72555833D01*
X121050095Y-72603452D01*
X121097714Y-72651071D01*
X121145333Y-72746309D01*
X121145333Y-72984404D01*
X121097714Y-73079642D01*
X121050095Y-73127261D01*
X120954857Y-73174880D01*
X120669142Y-73174880D01*
X120573904Y-73127261D01*
X120526285Y-73079642D01*
X121478666Y-72174880D02*
X122145333Y-72174880D01*
X121716761Y-73174880D01*
G04 #@! TO.C,U38*
X111073904Y-72174880D02*
X111073904Y-72984404D01*
X111121523Y-73079642D01*
X111169142Y-73127261D01*
X111264380Y-73174880D01*
X111454857Y-73174880D01*
X111550095Y-73127261D01*
X111597714Y-73079642D01*
X111645333Y-72984404D01*
X111645333Y-72174880D01*
X112026285Y-72174880D02*
X112645333Y-72174880D01*
X112312000Y-72555833D01*
X112454857Y-72555833D01*
X112550095Y-72603452D01*
X112597714Y-72651071D01*
X112645333Y-72746309D01*
X112645333Y-72984404D01*
X112597714Y-73079642D01*
X112550095Y-73127261D01*
X112454857Y-73174880D01*
X112169142Y-73174880D01*
X112073904Y-73127261D01*
X112026285Y-73079642D01*
X113216761Y-72603452D02*
X113121523Y-72555833D01*
X113073904Y-72508214D01*
X113026285Y-72412976D01*
X113026285Y-72365357D01*
X113073904Y-72270119D01*
X113121523Y-72222500D01*
X113216761Y-72174880D01*
X113407238Y-72174880D01*
X113502476Y-72222500D01*
X113550095Y-72270119D01*
X113597714Y-72365357D01*
X113597714Y-72412976D01*
X113550095Y-72508214D01*
X113502476Y-72555833D01*
X113407238Y-72603452D01*
X113216761Y-72603452D01*
X113121523Y-72651071D01*
X113073904Y-72698690D01*
X113026285Y-72793928D01*
X113026285Y-72984404D01*
X113073904Y-73079642D01*
X113121523Y-73127261D01*
X113216761Y-73174880D01*
X113407238Y-73174880D01*
X113502476Y-73127261D01*
X113550095Y-73079642D01*
X113597714Y-72984404D01*
X113597714Y-72793928D01*
X113550095Y-72698690D01*
X113502476Y-72651071D01*
X113407238Y-72603452D01*
G04 #@! TO.C,U39*
X102323904Y-72174880D02*
X102323904Y-72984404D01*
X102371523Y-73079642D01*
X102419142Y-73127261D01*
X102514380Y-73174880D01*
X102704857Y-73174880D01*
X102800095Y-73127261D01*
X102847714Y-73079642D01*
X102895333Y-72984404D01*
X102895333Y-72174880D01*
X103276285Y-72174880D02*
X103895333Y-72174880D01*
X103562000Y-72555833D01*
X103704857Y-72555833D01*
X103800095Y-72603452D01*
X103847714Y-72651071D01*
X103895333Y-72746309D01*
X103895333Y-72984404D01*
X103847714Y-73079642D01*
X103800095Y-73127261D01*
X103704857Y-73174880D01*
X103419142Y-73174880D01*
X103323904Y-73127261D01*
X103276285Y-73079642D01*
X104371523Y-73174880D02*
X104562000Y-73174880D01*
X104657238Y-73127261D01*
X104704857Y-73079642D01*
X104800095Y-72936785D01*
X104847714Y-72746309D01*
X104847714Y-72365357D01*
X104800095Y-72270119D01*
X104752476Y-72222500D01*
X104657238Y-72174880D01*
X104466761Y-72174880D01*
X104371523Y-72222500D01*
X104323904Y-72270119D01*
X104276285Y-72365357D01*
X104276285Y-72603452D01*
X104323904Y-72698690D01*
X104371523Y-72746309D01*
X104466761Y-72793928D01*
X104657238Y-72793928D01*
X104752476Y-72746309D01*
X104800095Y-72698690D01*
X104847714Y-72603452D01*
G04 #@! TO.C,U14*
X163948904Y-83264880D02*
X163948904Y-84074404D01*
X163996523Y-84169642D01*
X164044142Y-84217261D01*
X164139380Y-84264880D01*
X164329857Y-84264880D01*
X164425095Y-84217261D01*
X164472714Y-84169642D01*
X164520333Y-84074404D01*
X164520333Y-83264880D01*
X165520333Y-84264880D02*
X164948904Y-84264880D01*
X165234619Y-84264880D02*
X165234619Y-83264880D01*
X165139380Y-83407738D01*
X165044142Y-83502976D01*
X164948904Y-83550595D01*
X166377476Y-83598214D02*
X166377476Y-84264880D01*
X166139380Y-83217261D02*
X165901285Y-83931547D01*
X166520333Y-83931547D01*
G04 #@! TO.C,C3*
X127833333Y-139857142D02*
X127785714Y-139904761D01*
X127642857Y-139952380D01*
X127547619Y-139952380D01*
X127404761Y-139904761D01*
X127309523Y-139809523D01*
X127261904Y-139714285D01*
X127214285Y-139523809D01*
X127214285Y-139380952D01*
X127261904Y-139190476D01*
X127309523Y-139095238D01*
X127404761Y-139000000D01*
X127547619Y-138952380D01*
X127642857Y-138952380D01*
X127785714Y-139000000D01*
X127833333Y-139047619D01*
X128166666Y-138952380D02*
X128785714Y-138952380D01*
X128452380Y-139333333D01*
X128595238Y-139333333D01*
X128690476Y-139380952D01*
X128738095Y-139428571D01*
X128785714Y-139523809D01*
X128785714Y-139761904D01*
X128738095Y-139857142D01*
X128690476Y-139904761D01*
X128595238Y-139952380D01*
X128309523Y-139952380D01*
X128214285Y-139904761D01*
X128166666Y-139857142D01*
G04 #@! TO.C,C4*
X127083333Y-67357142D02*
X127035714Y-67404761D01*
X126892857Y-67452380D01*
X126797619Y-67452380D01*
X126654761Y-67404761D01*
X126559523Y-67309523D01*
X126511904Y-67214285D01*
X126464285Y-67023809D01*
X126464285Y-66880952D01*
X126511904Y-66690476D01*
X126559523Y-66595238D01*
X126654761Y-66500000D01*
X126797619Y-66452380D01*
X126892857Y-66452380D01*
X127035714Y-66500000D01*
X127083333Y-66547619D01*
X127940476Y-66785714D02*
X127940476Y-67452380D01*
X127702380Y-66404761D02*
X127464285Y-67119047D01*
X128083333Y-67119047D01*
G04 #@! TO.C,C5*
X96353333Y-82160442D02*
X96305714Y-82208061D01*
X96162857Y-82255680D01*
X96067619Y-82255680D01*
X95924761Y-82208061D01*
X95829523Y-82112823D01*
X95781904Y-82017585D01*
X95734285Y-81827109D01*
X95734285Y-81684252D01*
X95781904Y-81493776D01*
X95829523Y-81398538D01*
X95924761Y-81303300D01*
X96067619Y-81255680D01*
X96162857Y-81255680D01*
X96305714Y-81303300D01*
X96353333Y-81350919D01*
X97258095Y-81255680D02*
X96781904Y-81255680D01*
X96734285Y-81731871D01*
X96781904Y-81684252D01*
X96877142Y-81636633D01*
X97115238Y-81636633D01*
X97210476Y-81684252D01*
X97258095Y-81731871D01*
X97305714Y-81827109D01*
X97305714Y-82065204D01*
X97258095Y-82160442D01*
X97210476Y-82208061D01*
X97115238Y-82255680D01*
X96877142Y-82255680D01*
X96781904Y-82208061D01*
X96734285Y-82160442D01*
G04 #@! TO.C,C6*
X129607142Y-84666666D02*
X129654761Y-84714285D01*
X129702380Y-84857142D01*
X129702380Y-84952380D01*
X129654761Y-85095238D01*
X129559523Y-85190476D01*
X129464285Y-85238095D01*
X129273809Y-85285714D01*
X129130952Y-85285714D01*
X128940476Y-85238095D01*
X128845238Y-85190476D01*
X128750000Y-85095238D01*
X128702380Y-84952380D01*
X128702380Y-84857142D01*
X128750000Y-84714285D01*
X128797619Y-84666666D01*
X128702380Y-83809523D02*
X128702380Y-84000000D01*
X128750000Y-84095238D01*
X128797619Y-84142857D01*
X128940476Y-84238095D01*
X129130952Y-84285714D01*
X129511904Y-84285714D01*
X129607142Y-84238095D01*
X129654761Y-84190476D01*
X129702380Y-84095238D01*
X129702380Y-83904761D01*
X129654761Y-83809523D01*
X129607142Y-83761904D01*
X129511904Y-83714285D01*
X129273809Y-83714285D01*
X129178571Y-83761904D01*
X129130952Y-83809523D01*
X129083333Y-83904761D01*
X129083333Y-84095238D01*
X129130952Y-84190476D01*
X129178571Y-84238095D01*
X129273809Y-84285714D01*
G04 #@! TO.C,C7*
X158298533Y-81726042D02*
X158250914Y-81773661D01*
X158108057Y-81821280D01*
X158012819Y-81821280D01*
X157869961Y-81773661D01*
X157774723Y-81678423D01*
X157727104Y-81583185D01*
X157679485Y-81392709D01*
X157679485Y-81249852D01*
X157727104Y-81059376D01*
X157774723Y-80964138D01*
X157869961Y-80868900D01*
X158012819Y-80821280D01*
X158108057Y-80821280D01*
X158250914Y-80868900D01*
X158298533Y-80916519D01*
X158631866Y-80821280D02*
X159298533Y-80821280D01*
X158869961Y-81821280D01*
G04 #@! TO.C,C8*
X128058742Y-130513066D02*
X128106361Y-130560685D01*
X128153980Y-130703542D01*
X128153980Y-130798780D01*
X128106361Y-130941638D01*
X128011123Y-131036876D01*
X127915885Y-131084495D01*
X127725409Y-131132114D01*
X127582552Y-131132114D01*
X127392076Y-131084495D01*
X127296838Y-131036876D01*
X127201600Y-130941638D01*
X127153980Y-130798780D01*
X127153980Y-130703542D01*
X127201600Y-130560685D01*
X127249219Y-130513066D01*
X127582552Y-129941638D02*
X127534933Y-130036876D01*
X127487314Y-130084495D01*
X127392076Y-130132114D01*
X127344457Y-130132114D01*
X127249219Y-130084495D01*
X127201600Y-130036876D01*
X127153980Y-129941638D01*
X127153980Y-129751161D01*
X127201600Y-129655923D01*
X127249219Y-129608304D01*
X127344457Y-129560685D01*
X127392076Y-129560685D01*
X127487314Y-129608304D01*
X127534933Y-129655923D01*
X127582552Y-129751161D01*
X127582552Y-129941638D01*
X127630171Y-130036876D01*
X127677790Y-130084495D01*
X127773028Y-130132114D01*
X127963504Y-130132114D01*
X128058742Y-130084495D01*
X128106361Y-130036876D01*
X128153980Y-129941638D01*
X128153980Y-129751161D01*
X128106361Y-129655923D01*
X128058742Y-129608304D01*
X127963504Y-129560685D01*
X127773028Y-129560685D01*
X127677790Y-129608304D01*
X127630171Y-129655923D01*
X127582552Y-129751161D01*
G04 #@! TO.C,U40*
X102323904Y-83274880D02*
X102323904Y-84084404D01*
X102371523Y-84179642D01*
X102419142Y-84227261D01*
X102514380Y-84274880D01*
X102704857Y-84274880D01*
X102800095Y-84227261D01*
X102847714Y-84179642D01*
X102895333Y-84084404D01*
X102895333Y-83274880D01*
X103800095Y-83608214D02*
X103800095Y-84274880D01*
X103562000Y-83227261D02*
X103323904Y-83941547D01*
X103942952Y-83941547D01*
X104514380Y-83274880D02*
X104609619Y-83274880D01*
X104704857Y-83322500D01*
X104752476Y-83370119D01*
X104800095Y-83465357D01*
X104847714Y-83655833D01*
X104847714Y-83893928D01*
X104800095Y-84084404D01*
X104752476Y-84179642D01*
X104704857Y-84227261D01*
X104609619Y-84274880D01*
X104514380Y-84274880D01*
X104419142Y-84227261D01*
X104371523Y-84179642D01*
X104323904Y-84084404D01*
X104276285Y-83893928D01*
X104276285Y-83655833D01*
X104323904Y-83465357D01*
X104371523Y-83370119D01*
X104419142Y-83322500D01*
X104514380Y-83274880D01*
G04 #@! TO.C,SW1*
X117416666Y-141226761D02*
X117559523Y-141274380D01*
X117797619Y-141274380D01*
X117892857Y-141226761D01*
X117940476Y-141179142D01*
X117988095Y-141083904D01*
X117988095Y-140988666D01*
X117940476Y-140893428D01*
X117892857Y-140845809D01*
X117797619Y-140798190D01*
X117607142Y-140750571D01*
X117511904Y-140702952D01*
X117464285Y-140655333D01*
X117416666Y-140560095D01*
X117416666Y-140464857D01*
X117464285Y-140369619D01*
X117511904Y-140322000D01*
X117607142Y-140274380D01*
X117845238Y-140274380D01*
X117988095Y-140322000D01*
X118321428Y-140274380D02*
X118559523Y-141274380D01*
X118750000Y-140560095D01*
X118940476Y-141274380D01*
X119178571Y-140274380D01*
X120083333Y-141274380D02*
X119511904Y-141274380D01*
X119797619Y-141274380D02*
X119797619Y-140274380D01*
X119702380Y-140417238D01*
X119607142Y-140512476D01*
X119511904Y-140560095D01*
G04 #@! TO.C,R1*
X95833333Y-70476380D02*
X95500000Y-70000190D01*
X95261904Y-70476380D02*
X95261904Y-69476380D01*
X95642857Y-69476380D01*
X95738095Y-69524000D01*
X95785714Y-69571619D01*
X95833333Y-69666857D01*
X95833333Y-69809714D01*
X95785714Y-69904952D01*
X95738095Y-69952571D01*
X95642857Y-70000190D01*
X95261904Y-70000190D01*
X96785714Y-70476380D02*
X96214285Y-70476380D01*
X96500000Y-70476380D02*
X96500000Y-69476380D01*
X96404761Y-69619238D01*
X96309523Y-69714476D01*
X96214285Y-69762095D01*
G04 #@! TO.C,MCU1*
X101166666Y-65552380D02*
X101166666Y-64552380D01*
X101500000Y-65266666D01*
X101833333Y-64552380D01*
X101833333Y-65552380D01*
X102880952Y-65457142D02*
X102833333Y-65504761D01*
X102690476Y-65552380D01*
X102595238Y-65552380D01*
X102452380Y-65504761D01*
X102357142Y-65409523D01*
X102309523Y-65314285D01*
X102261904Y-65123809D01*
X102261904Y-64980952D01*
X102309523Y-64790476D01*
X102357142Y-64695238D01*
X102452380Y-64600000D01*
X102595238Y-64552380D01*
X102690476Y-64552380D01*
X102833333Y-64600000D01*
X102880952Y-64647619D01*
X103309523Y-64552380D02*
X103309523Y-65361904D01*
X103357142Y-65457142D01*
X103404761Y-65504761D01*
X103500000Y-65552380D01*
X103690476Y-65552380D01*
X103785714Y-65504761D01*
X103833333Y-65457142D01*
X103880952Y-65361904D01*
X103880952Y-64552380D01*
X104880952Y-65552380D02*
X104309523Y-65552380D01*
X104595238Y-65552380D02*
X104595238Y-64552380D01*
X104500000Y-64695238D01*
X104404761Y-64790476D01*
X104309523Y-64838095D01*
G04 #@! TO.C,USB1*
X111452380Y-142487595D02*
X112261904Y-142487595D01*
X112357142Y-142439976D01*
X112404761Y-142392357D01*
X112452380Y-142297119D01*
X112452380Y-142106642D01*
X112404761Y-142011404D01*
X112357142Y-141963785D01*
X112261904Y-141916166D01*
X111452380Y-141916166D01*
X112404761Y-141487595D02*
X112452380Y-141344738D01*
X112452380Y-141106642D01*
X112404761Y-141011404D01*
X112357142Y-140963785D01*
X112261904Y-140916166D01*
X112166666Y-140916166D01*
X112071428Y-140963785D01*
X112023809Y-141011404D01*
X111976190Y-141106642D01*
X111928571Y-141297119D01*
X111880952Y-141392357D01*
X111833333Y-141439976D01*
X111738095Y-141487595D01*
X111642857Y-141487595D01*
X111547619Y-141439976D01*
X111500000Y-141392357D01*
X111452380Y-141297119D01*
X111452380Y-141059023D01*
X111500000Y-140916166D01*
X111928571Y-140154261D02*
X111976190Y-140011404D01*
X112023809Y-139963785D01*
X112119047Y-139916166D01*
X112261904Y-139916166D01*
X112357142Y-139963785D01*
X112404761Y-140011404D01*
X112452380Y-140106642D01*
X112452380Y-140487595D01*
X111452380Y-140487595D01*
X111452380Y-140154261D01*
X111500000Y-140059023D01*
X111547619Y-140011404D01*
X111642857Y-139963785D01*
X111738095Y-139963785D01*
X111833333Y-140011404D01*
X111880952Y-140059023D01*
X111928571Y-140154261D01*
X111928571Y-140487595D01*
X112452380Y-138963785D02*
X112452380Y-139535214D01*
X112452380Y-139249500D02*
X111452380Y-139249500D01*
X111595238Y-139344738D01*
X111690476Y-139439976D01*
X111738095Y-139535214D01*
G04 #@! TO.C,D1*
X126761904Y-116952380D02*
X126761904Y-115952380D01*
X127000000Y-115952380D01*
X127142857Y-116000000D01*
X127238095Y-116095238D01*
X127285714Y-116190476D01*
X127333333Y-116380952D01*
X127333333Y-116523809D01*
X127285714Y-116714285D01*
X127238095Y-116809523D01*
X127142857Y-116904761D01*
X127000000Y-116952380D01*
X126761904Y-116952380D01*
X128285714Y-116952380D02*
X127714285Y-116952380D01*
X128000000Y-116952380D02*
X128000000Y-115952380D01*
X127904761Y-116095238D01*
X127809523Y-116190476D01*
X127714285Y-116238095D01*
G04 #@! TO.C,J2*
X108717380Y-68583333D02*
X109431666Y-68583333D01*
X109574523Y-68630952D01*
X109669761Y-68726190D01*
X109717380Y-68869047D01*
X109717380Y-68964285D01*
X108812619Y-68154761D02*
X108765000Y-68107142D01*
X108717380Y-68011904D01*
X108717380Y-67773809D01*
X108765000Y-67678571D01*
X108812619Y-67630952D01*
X108907857Y-67583333D01*
X109003095Y-67583333D01*
X109145952Y-67630952D01*
X109717380Y-68202380D01*
X109717380Y-67583333D01*
G04 #@! TO.C,SW2*
X133404761Y-142583333D02*
X133452380Y-142440476D01*
X133452380Y-142202380D01*
X133404761Y-142107142D01*
X133357142Y-142059523D01*
X133261904Y-142011904D01*
X133166666Y-142011904D01*
X133071428Y-142059523D01*
X133023809Y-142107142D01*
X132976190Y-142202380D01*
X132928571Y-142392857D01*
X132880952Y-142488095D01*
X132833333Y-142535714D01*
X132738095Y-142583333D01*
X132642857Y-142583333D01*
X132547619Y-142535714D01*
X132500000Y-142488095D01*
X132452380Y-142392857D01*
X132452380Y-142154761D01*
X132500000Y-142011904D01*
X132452380Y-141678571D02*
X133452380Y-141440476D01*
X132738095Y-141250000D01*
X133452380Y-141059523D01*
X132452380Y-140821428D01*
X132547619Y-140488095D02*
X132500000Y-140440476D01*
X132452380Y-140345238D01*
X132452380Y-140107142D01*
X132500000Y-140011904D01*
X132547619Y-139964285D01*
X132642857Y-139916666D01*
X132738095Y-139916666D01*
X132880952Y-139964285D01*
X133452380Y-140535714D01*
X133452380Y-139916666D01*
G04 #@! TD*
M02*
