G04 #@! TF.GenerationSoftware,KiCad,Pcbnew,(5.0.0)*
G04 #@! TF.CreationDate,2020-03-01T18:17:59-05:00*
G04 #@! TF.ProjectId,WS2812B Tiny T,575332383132422054696E7920542E6B,rev?*
G04 #@! TF.SameCoordinates,Original*
G04 #@! TF.FileFunction,Soldermask,Top*
G04 #@! TF.FilePolarity,Negative*
%FSLAX46Y46*%
G04 Gerber Fmt 4.6, Leading zero omitted, Abs format (unit mm)*
G04 Created by KiCad (PCBNEW (5.0.0)) date 03/01/20 18:17:59*
%MOMM*%
%LPD*%
G01*
G04 APERTURE LIST*
%ADD10C,3.400000*%
%ADD11R,2.000000X1.400000*%
%ADD12R,1.900000X1.650000*%
%ADD13R,1.650000X1.900000*%
%ADD14C,2.400000*%
%ADD15R,1.700000X1.100000*%
%ADD16R,1.950000X1.000000*%
%ADD17R,2.500000X1.875000*%
%ADD18R,2.300000X1.575000*%
%ADD19R,2.300000X2.775000*%
%ADD20R,1.780000X0.850000*%
%ADD21R,2.200000X2.900000*%
%ADD22R,1.140000X2.800000*%
%ADD23O,2.100000X2.100000*%
%ADD24R,2.400000X2.400000*%
G04 APERTURE END LIST*
D10*
G04 #@! TO.C,J1*
X127512000Y-121412000D03*
X127512000Y-101912000D03*
G04 #@! TD*
D11*
G04 #@! TO.C,U1*
X87162000Y-85712500D03*
X87162000Y-88912500D03*
X92162000Y-85712500D03*
X92162000Y-88912500D03*
G04 #@! TD*
G04 #@! TO.C,U2*
X92162000Y-80022500D03*
X92162000Y-76822500D03*
X87162000Y-80022500D03*
X87162000Y-76822500D03*
G04 #@! TD*
G04 #@! TO.C,U3*
X87162000Y-67932500D03*
X87162000Y-71132500D03*
X92162000Y-67932500D03*
X92162000Y-71132500D03*
G04 #@! TD*
G04 #@! TO.C,U4*
X92162000Y-62242500D03*
X92162000Y-59042500D03*
X87162000Y-62242500D03*
X87162000Y-59042500D03*
G04 #@! TD*
G04 #@! TO.C,U5*
X98592000Y-59042500D03*
X98592000Y-62242500D03*
X103592000Y-59042500D03*
X103592000Y-62242500D03*
G04 #@! TD*
G04 #@! TO.C,U6*
X115022000Y-62242500D03*
X115022000Y-59042500D03*
X110022000Y-62242500D03*
X110022000Y-59042500D03*
G04 #@! TD*
G04 #@! TO.C,U7*
X120182000Y-59042500D03*
X120182000Y-62242500D03*
X125182000Y-59042500D03*
X125182000Y-62242500D03*
G04 #@! TD*
G04 #@! TO.C,U8*
X135342000Y-62242500D03*
X135342000Y-59042500D03*
X130342000Y-62242500D03*
X130342000Y-59042500D03*
G04 #@! TD*
G04 #@! TO.C,U9*
X140462000Y-59042500D03*
X140462000Y-62242500D03*
X145462000Y-59042500D03*
X145462000Y-62242500D03*
G04 #@! TD*
G04 #@! TO.C,U10*
X156932000Y-62242500D03*
X156932000Y-59042500D03*
X151932000Y-62242500D03*
X151932000Y-59042500D03*
G04 #@! TD*
G04 #@! TO.C,U11*
X162727000Y-59042500D03*
X162727000Y-62242500D03*
X167727000Y-59042500D03*
X167727000Y-62242500D03*
G04 #@! TD*
G04 #@! TO.C,U12*
X167727000Y-71132500D03*
X167727000Y-67932500D03*
X162727000Y-71132500D03*
X162727000Y-67932500D03*
G04 #@! TD*
G04 #@! TO.C,U13*
X162727000Y-76822500D03*
X162727000Y-80022500D03*
X167727000Y-76822500D03*
X167727000Y-80022500D03*
G04 #@! TD*
G04 #@! TO.C,U15*
X154301000Y-88912500D03*
X154301000Y-85712500D03*
X149301000Y-88912500D03*
X149301000Y-85712500D03*
G04 #@! TD*
G04 #@! TO.C,U16*
X149098000Y-74622500D03*
X149098000Y-77822500D03*
X154098000Y-74622500D03*
X154098000Y-77822500D03*
G04 #@! TD*
G04 #@! TO.C,U17*
X145502000Y-77822500D03*
X145502000Y-74622500D03*
X140502000Y-77822500D03*
X140502000Y-74622500D03*
G04 #@! TD*
G04 #@! TO.C,U18*
X131612000Y-74622500D03*
X131612000Y-77822500D03*
X136612000Y-74622500D03*
X136612000Y-77822500D03*
G04 #@! TD*
G04 #@! TO.C,U19*
X136612000Y-86822500D03*
X136612000Y-83622500D03*
X131612000Y-86822500D03*
X131612000Y-83622500D03*
G04 #@! TD*
G04 #@! TO.C,U20*
X131812000Y-93622500D03*
X131812000Y-96822500D03*
X136812000Y-93622500D03*
X136812000Y-96822500D03*
G04 #@! TD*
G04 #@! TO.C,U21*
X131812000Y-103372000D03*
X131812000Y-106572000D03*
X136812000Y-103372000D03*
X136812000Y-106572000D03*
G04 #@! TD*
G04 #@! TO.C,U22*
X136812000Y-116322000D03*
X136812000Y-113122000D03*
X131812000Y-116322000D03*
X131812000Y-113122000D03*
G04 #@! TD*
G04 #@! TO.C,U23*
X131812000Y-122872000D03*
X131812000Y-126072000D03*
X136812000Y-122872000D03*
X136812000Y-126072000D03*
G04 #@! TD*
G04 #@! TO.C,U24*
X136812000Y-134822000D03*
X136812000Y-131622000D03*
X131812000Y-134822000D03*
X131812000Y-131622000D03*
G04 #@! TD*
G04 #@! TO.C,U25*
X141772000Y-131622000D03*
X141772000Y-134822000D03*
X146772000Y-131622000D03*
X146772000Y-134822000D03*
G04 #@! TD*
G04 #@! TO.C,U26*
X147062000Y-150322000D03*
X147062000Y-147122000D03*
X142062000Y-150322000D03*
X142062000Y-147122000D03*
G04 #@! TD*
G04 #@! TO.C,U27*
X131312000Y-147122000D03*
X131312000Y-150322000D03*
X136312000Y-147122000D03*
X136312000Y-150322000D03*
G04 #@! TD*
G04 #@! TO.C,U28*
X123812000Y-150322000D03*
X123812000Y-147122000D03*
X118812000Y-150322000D03*
X118812000Y-147122000D03*
G04 #@! TD*
G04 #@! TO.C,U29*
X108312000Y-147122000D03*
X108312000Y-150322000D03*
X113312000Y-147122000D03*
X113312000Y-150322000D03*
G04 #@! TD*
G04 #@! TO.C,U30*
X113812000Y-134822000D03*
X113812000Y-131622000D03*
X108812000Y-134822000D03*
X108812000Y-131622000D03*
G04 #@! TD*
G04 #@! TO.C,U31*
X118142000Y-131622000D03*
X118142000Y-134822000D03*
X123142000Y-131622000D03*
X123142000Y-134822000D03*
G04 #@! TD*
G04 #@! TO.C,U32*
X123142000Y-126072000D03*
X123142000Y-122872000D03*
X118142000Y-126072000D03*
X118142000Y-122872000D03*
G04 #@! TD*
G04 #@! TO.C,U33*
X118142000Y-113122000D03*
X118142000Y-116322000D03*
X123142000Y-113122000D03*
X123142000Y-116322000D03*
G04 #@! TD*
G04 #@! TO.C,U34*
X123142000Y-106572000D03*
X123142000Y-103372000D03*
X118142000Y-106572000D03*
X118142000Y-103372000D03*
G04 #@! TD*
G04 #@! TO.C,U35*
X118142000Y-93622500D03*
X118142000Y-96822500D03*
X123142000Y-93622500D03*
X123142000Y-96822500D03*
G04 #@! TD*
G04 #@! TO.C,U36*
X123142000Y-86822500D03*
X123142000Y-83622500D03*
X118142000Y-86822500D03*
X118142000Y-83622500D03*
G04 #@! TD*
G04 #@! TO.C,U37*
X118312000Y-74622500D03*
X118312000Y-77822500D03*
X123312000Y-74622500D03*
X123312000Y-77822500D03*
G04 #@! TD*
G04 #@! TO.C,U38*
X114812000Y-77822500D03*
X114812000Y-74622500D03*
X109812000Y-77822500D03*
X109812000Y-74622500D03*
G04 #@! TD*
G04 #@! TO.C,U39*
X101062000Y-74622500D03*
X101062000Y-77822500D03*
X106062000Y-74622500D03*
X106062000Y-77822500D03*
G04 #@! TD*
G04 #@! TO.C,U14*
X162687000Y-85712500D03*
X162687000Y-88912500D03*
X167687000Y-85712500D03*
X167687000Y-88912500D03*
G04 #@! TD*
D12*
G04 #@! TO.C,C3*
X126750000Y-141200000D03*
X129250000Y-141200000D03*
G04 #@! TD*
G04 #@! TO.C,C4*
X128500000Y-68750000D03*
X126000000Y-68750000D03*
G04 #@! TD*
G04 #@! TO.C,C5*
X97770000Y-83553300D03*
X95270000Y-83553300D03*
G04 #@! TD*
D13*
G04 #@! TO.C,C6*
X127500000Y-83250000D03*
X127500000Y-85750000D03*
G04 #@! TD*
D12*
G04 #@! TO.C,C7*
X157246000Y-83400900D03*
X159746000Y-83400900D03*
G04 #@! TD*
D13*
G04 #@! TO.C,C8*
X127600000Y-135000000D03*
X127600000Y-132500000D03*
G04 #@! TD*
D11*
G04 #@! TO.C,U40*
X101062000Y-85722500D03*
X101062000Y-88922500D03*
X106062000Y-85722500D03*
X106062000Y-88922500D03*
G04 #@! TD*
D14*
G04 #@! TO.C,SW1*
X122000000Y-138622000D03*
X122000000Y-143122000D03*
X115500000Y-138622000D03*
X115500000Y-143122000D03*
G04 #@! TD*
D15*
G04 #@! TO.C,R1*
X96000000Y-66600000D03*
X96000000Y-68500000D03*
G04 #@! TD*
D16*
G04 #@! TO.C,MCU1*
X99600000Y-66595000D03*
X99600000Y-67865000D03*
X99600000Y-69135000D03*
X99600000Y-70405000D03*
X106600000Y-70405000D03*
X106600000Y-69135000D03*
X106600000Y-67865000D03*
X106600000Y-66600000D03*
G04 #@! TD*
D17*
G04 #@! TO.C,USB1*
X109750000Y-143424500D03*
D18*
X107450000Y-141799500D03*
D19*
X107450000Y-138049500D03*
X107450000Y-143874500D03*
D18*
X107450000Y-140124500D03*
D17*
X109750000Y-138499500D03*
D20*
X110110000Y-139662000D03*
X110110000Y-140312000D03*
X110110000Y-140962000D03*
X110110000Y-141612000D03*
X110110000Y-142262000D03*
G04 #@! TD*
D21*
G04 #@! TO.C,D1*
X127500000Y-109900000D03*
X127500000Y-113900000D03*
G04 #@! TD*
D22*
G04 #@! TO.C,J2*
X116040000Y-66300000D03*
X116040000Y-70200000D03*
X114770000Y-66300000D03*
X114770000Y-70200000D03*
X113500000Y-66300000D03*
X113500000Y-70200000D03*
X112230000Y-66300000D03*
X112230000Y-70200000D03*
X110960000Y-66300000D03*
X110960000Y-70200000D03*
G04 #@! TD*
D14*
G04 #@! TO.C,SW2*
X143370000Y-141250000D03*
D23*
X140830000Y-141250000D03*
X138290000Y-141250000D03*
D24*
X135750000Y-141250000D03*
G04 #@! TD*
M02*
