G04 #@! TF.GenerationSoftware,KiCad,Pcbnew,(5.0.0)*
G04 #@! TF.CreationDate,2020-03-01T19:28:45-05:00*
G04 #@! TF.ProjectId,WS2812B Tiny T,575332383132422054696E7920542E6B,rev?*
G04 #@! TF.SameCoordinates,Original*
G04 #@! TF.FileFunction,Other,Fab,Bot*
%FSLAX46Y46*%
G04 Gerber Fmt 4.6, Leading zero omitted, Abs format (unit mm)*
G04 Created by KiCad (PCBNEW (5.0.0)) date 03/01/20 19:28:45*
%MOMM*%
%LPD*%
G01*
G04 APERTURE LIST*
%ADD10C,0.150000*%
G04 APERTURE END LIST*
G04 #@! TO.C,J1*
D10*
X128178666Y-113840571D02*
X128035809Y-113888190D01*
X127988190Y-113935809D01*
X127940571Y-114031047D01*
X127940571Y-114173904D01*
X127988190Y-114269142D01*
X128035809Y-114316761D01*
X128131047Y-114364380D01*
X128512000Y-114364380D01*
X128512000Y-113364380D01*
X128178666Y-113364380D01*
X128083428Y-113412000D01*
X128035809Y-113459619D01*
X127988190Y-113554857D01*
X127988190Y-113650095D01*
X128035809Y-113745333D01*
X128083428Y-113792952D01*
X128178666Y-113840571D01*
X128512000Y-113840571D01*
X127083428Y-114364380D02*
X127083428Y-113840571D01*
X127131047Y-113745333D01*
X127226285Y-113697714D01*
X127416761Y-113697714D01*
X127512000Y-113745333D01*
X127083428Y-114316761D02*
X127178666Y-114364380D01*
X127416761Y-114364380D01*
X127512000Y-114316761D01*
X127559619Y-114221523D01*
X127559619Y-114126285D01*
X127512000Y-114031047D01*
X127416761Y-113983428D01*
X127178666Y-113983428D01*
X127083428Y-113935809D01*
X126750095Y-113697714D02*
X126369142Y-113697714D01*
X126607238Y-113364380D02*
X126607238Y-114221523D01*
X126559619Y-114316761D01*
X126464380Y-114364380D01*
X126369142Y-114364380D01*
G04 #@! TD*
M02*
