M48
;DRILL file {KiCad (5.0.0)} date 03/01/20 19:28:48
;FORMAT={-:-/ absolute / metric / decimal}
FMAT,2
METRIC,TZ
T1C0.350
T2C0.650
T3C0.700
T4C1.000
T5C1.100
T6C1.200
%
G90
G05
M71
T1
X87.821Y-69.706
X90.75Y-62.25
X90.75Y-71.25
X90.75Y-80.
X90.846Y-60.47
X93.493Y-82.514
X93.5Y-89.
X97.5Y-70.5
X99.Y-83.75
X102.25Y-62.25
X104.725Y-67.
X104.75Y-77.75
X104.75Y-89.
X105.057Y-69.107
X108.25Y-67.865
X109.145Y-148.668
X111.082Y-133.908
X111.75Y-142.75
X111.75Y-151.
X112.5Y-134.75
X113.Y-139.75
X113.25Y-71.
X113.5Y-62.25
X113.5Y-77.75
X113.5Y-137.5
X118.Y-133.25
X120.177Y-60.47
X121.75Y-87.
X121.75Y-97.
X121.75Y-106.5
X121.75Y-116.25
X121.75Y-126.25
X121.75Y-134.75
X122.Y-77.75
X122.25Y-151.
X123.75Y-62.25
X125.25Y-141.25
X128.75Y-131.25
X133.373Y-59.89
X133.475Y-131.266
X133.75Y-62.25
X134.75Y-151.
X135.Y-77.75
X135.25Y-86.75
X135.25Y-135.
X135.5Y-96.75
X135.5Y-106.5
X135.5Y-116.25
X135.5Y-126.25
X144.Y-62.25
X144.25Y-77.75
X145.5Y-134.75
X145.5Y-151.
X152.75Y-78.
X153.Y-89.
X155.5Y-62.25
X155.75Y-83.
X166.25Y-62.25
X166.25Y-80.
X166.25Y-89.
X166.5Y-71.
T2
X110.98Y-67.48
X110.98Y-68.75
X112.25Y-67.48
X112.25Y-68.75
X113.52Y-67.48
X113.52Y-68.75
X114.79Y-67.48
X114.79Y-68.75
X116.06Y-67.48
X116.06Y-68.75
T4
X135.75Y-141.25
X138.29Y-141.25
X140.83Y-141.25
X143.37Y-141.25
T5
X115.5Y-138.622
X115.5Y-143.122
X122.Y-138.622
X122.Y-143.122
T6
X127.512Y-101.912
X127.512Y-121.412
T3
X107.5Y-138.275G85X107.Y-138.275
G05
X107.5Y-143.725G85X107.Y-143.725
G05
X110.455Y-138.1G85X110.105Y-138.1
G05
X110.455Y-143.9G85X110.105Y-143.9
G05
T0
M30
