G04 #@! TF.GenerationSoftware,KiCad,Pcbnew,(5.0.0)*
G04 #@! TF.CreationDate,2020-03-01T19:28:45-05:00*
G04 #@! TF.ProjectId,WS2812B Tiny T,575332383132422054696E7920542E6B,rev?*
G04 #@! TF.SameCoordinates,Original*
G04 #@! TF.FileFunction,Soldermask,Bot*
G04 #@! TF.FilePolarity,Negative*
%FSLAX46Y46*%
G04 Gerber Fmt 4.6, Leading zero omitted, Abs format (unit mm)*
G04 Created by KiCad (PCBNEW (5.0.0)) date 03/01/20 19:28:45*
%MOMM*%
%LPD*%
G01*
G04 APERTURE LIST*
%ADD10C,0.010000*%
%ADD11C,3.400000*%
%ADD12C,2.400000*%
%ADD13O,2.100000X2.100000*%
%ADD14R,2.400000X2.400000*%
%ADD15O,1.400000X1.400000*%
%ADD16R,1.400000X1.400000*%
%ADD17O,3.550000X1.700000*%
%ADD18R,1.800000X2.400000*%
G04 APERTURE END LIST*
D10*
G04 #@! TO.C,G\002A\002A\002A*
G36*
X122097800Y-82969100D02*
X122097800Y-87439500D01*
X122567049Y-87454097D01*
X123036297Y-87468695D01*
X123049649Y-85676097D01*
X123063000Y-83883500D01*
X132257800Y-83883500D01*
X132284484Y-87515700D01*
X133248400Y-87515700D01*
X133248400Y-82943252D01*
X122097800Y-82969100D01*
X122097800Y-82969100D01*
G37*
X122097800Y-82969100D02*
X122097800Y-87439500D01*
X122567049Y-87454097D01*
X123036297Y-87468695D01*
X123049649Y-85676097D01*
X123063000Y-83883500D01*
X132257800Y-83883500D01*
X132284484Y-87515700D01*
X133248400Y-87515700D01*
X133248400Y-82943252D01*
X122097800Y-82969100D01*
G36*
X124116213Y-86232999D02*
X124129800Y-87490300D01*
X125044200Y-87490300D01*
X125058224Y-86715600D01*
X125072247Y-85940900D01*
X126136400Y-85940900D01*
X126136400Y-93050320D01*
X124536200Y-93078300D01*
X124506988Y-94018100D01*
X127101600Y-94018100D01*
X127101600Y-84975700D01*
X125602113Y-84975699D01*
X124102626Y-84975699D01*
X124116213Y-86232999D01*
X124116213Y-86232999D01*
G37*
X124116213Y-86232999D02*
X124129800Y-87490300D01*
X125044200Y-87490300D01*
X125058224Y-86715600D01*
X125072247Y-85940900D01*
X126136400Y-85940900D01*
X126136400Y-93050320D01*
X124536200Y-93078300D01*
X124506988Y-94018100D01*
X127101600Y-94018100D01*
X127101600Y-84975700D01*
X125602113Y-84975699D01*
X124102626Y-84975699D01*
X124116213Y-86232999D01*
G36*
X128218050Y-85001100D02*
X128218084Y-94021682D01*
X129493495Y-94032591D01*
X129842096Y-94034601D01*
X130155188Y-94034545D01*
X130419051Y-94032578D01*
X130619967Y-94028855D01*
X130744217Y-94023530D01*
X130779262Y-94018100D01*
X130783076Y-93959211D01*
X130784476Y-93823361D01*
X130783320Y-93635161D01*
X130781985Y-93543310D01*
X130774353Y-93093920D01*
X129979377Y-93101045D01*
X129184400Y-93108170D01*
X129184400Y-85940900D01*
X130251200Y-85940900D01*
X130251200Y-87515700D01*
X131216400Y-87515700D01*
X131216400Y-84974188D01*
X128218050Y-85001100D01*
X128218050Y-85001100D01*
G37*
X128218050Y-85001100D02*
X128218084Y-94021682D01*
X129493495Y-94032591D01*
X129842096Y-94034601D01*
X130155188Y-94034545D01*
X130419051Y-94032578D01*
X130619967Y-94028855D01*
X130744217Y-94023530D01*
X130779262Y-94018100D01*
X130783076Y-93959211D01*
X130784476Y-93823361D01*
X130783320Y-93635161D01*
X130781985Y-93543310D01*
X130774353Y-93093920D01*
X129979377Y-93101045D01*
X129184400Y-93108170D01*
X129184400Y-85940900D01*
X130251200Y-85940900D01*
X130251200Y-87515700D01*
X131216400Y-87515700D01*
X131216400Y-84974188D01*
X128218050Y-85001100D01*
G36*
X124510800Y-95999300D02*
X130823294Y-95999300D01*
X130791806Y-95808800D01*
X130772761Y-95640305D01*
X130761249Y-95436158D01*
X130759760Y-95351600D01*
X130759200Y-95084900D01*
X124510800Y-95084900D01*
X124510800Y-95999300D01*
X124510800Y-95999300D01*
G37*
X124510800Y-95999300D02*
X130823294Y-95999300D01*
X130791806Y-95808800D01*
X130772761Y-95640305D01*
X130761249Y-95436158D01*
X130759760Y-95351600D01*
X130759200Y-95084900D01*
X124510800Y-95084900D01*
X124510800Y-95999300D01*
G04 #@! TD*
D11*
G04 #@! TO.C,J1*
X127512000Y-121412000D03*
X127512000Y-101912000D03*
G04 #@! TD*
D12*
G04 #@! TO.C,SW1*
X122000000Y-138622000D03*
X122000000Y-143122000D03*
X115500000Y-138622000D03*
X115500000Y-143122000D03*
G04 #@! TD*
G04 #@! TO.C,SW2*
X143370000Y-141250000D03*
D13*
X140830000Y-141250000D03*
X138290000Y-141250000D03*
D14*
X135750000Y-141250000D03*
G04 #@! TD*
D15*
G04 #@! TO.C,J2*
X116060000Y-67480000D03*
X116060000Y-68750000D03*
X114790000Y-67480000D03*
X114790000Y-68750000D03*
X113520000Y-67480000D03*
X113520000Y-68750000D03*
X112250000Y-67480000D03*
X112250000Y-68750000D03*
X110980000Y-67480000D03*
D16*
X110980000Y-68750000D03*
G04 #@! TD*
D17*
G04 #@! TO.C,USB1*
X107730000Y-138275000D03*
D18*
X110280000Y-137575000D03*
X110280000Y-144425000D03*
D17*
X107730000Y-143725000D03*
G04 #@! TD*
M02*
