G04 #@! TF.GenerationSoftware,KiCad,Pcbnew,(5.0.0)*
G04 #@! TF.CreationDate,2020-03-01T19:28:45-05:00*
G04 #@! TF.ProjectId,WS2812B Tiny T,575332383132422054696E7920542E6B,rev?*
G04 #@! TF.SameCoordinates,Original*
G04 #@! TF.FileFunction,Copper,L2,Bot,Signal*
G04 #@! TF.FilePolarity,Positive*
%FSLAX46Y46*%
G04 Gerber Fmt 4.6, Leading zero omitted, Abs format (unit mm)*
G04 Created by KiCad (PCBNEW (5.0.0)) date 03/01/20 19:28:45*
%MOMM*%
%LPD*%
G01*
G04 APERTURE LIST*
G04 #@! TA.AperFunction,ComponentPad*
%ADD10C,3.000000*%
G04 #@! TD*
G04 #@! TA.AperFunction,ComponentPad*
%ADD11C,2.000000*%
G04 #@! TD*
G04 #@! TA.AperFunction,ComponentPad*
%ADD12O,1.700000X1.700000*%
G04 #@! TD*
G04 #@! TA.AperFunction,ComponentPad*
%ADD13R,2.000000X2.000000*%
G04 #@! TD*
G04 #@! TA.AperFunction,ComponentPad*
%ADD14O,1.000000X1.000000*%
G04 #@! TD*
G04 #@! TA.AperFunction,ComponentPad*
%ADD15R,1.000000X1.000000*%
G04 #@! TD*
G04 #@! TA.AperFunction,ComponentPad*
%ADD16O,3.150000X1.300000*%
G04 #@! TD*
G04 #@! TA.AperFunction,ComponentPad*
%ADD17R,1.400000X2.000000*%
G04 #@! TD*
G04 #@! TA.AperFunction,ViaPad*
%ADD18C,0.500000*%
G04 #@! TD*
G04 #@! TA.AperFunction,Conductor*
%ADD19C,0.400000*%
G04 #@! TD*
G04 #@! TA.AperFunction,Conductor*
%ADD20C,0.200000*%
G04 #@! TD*
G04 APERTURE END LIST*
D10*
G04 #@! TO.P,J1,1*
G04 #@! TO.N,GND*
X127512000Y-121412000D03*
G04 #@! TO.P,J1,2*
G04 #@! TO.N,Net-(D1-Pad2)*
X127512000Y-101912000D03*
G04 #@! TD*
D11*
G04 #@! TO.P,SW1,1*
G04 #@! TO.N,BTN*
X122000000Y-138622000D03*
G04 #@! TO.P,SW1,2*
G04 #@! TO.N,GND*
X122000000Y-143122000D03*
G04 #@! TO.P,SW1,1*
G04 #@! TO.N,BTN*
X115500000Y-138622000D03*
G04 #@! TO.P,SW1,2*
G04 #@! TO.N,GND*
X115500000Y-143122000D03*
G04 #@! TD*
G04 #@! TO.P,SW2,4*
G04 #@! TO.N,+5V*
X143370000Y-141250000D03*
D12*
G04 #@! TO.P,SW2,3*
G04 #@! TO.N,VIN_Switch*
X140830000Y-141250000D03*
G04 #@! TO.P,SW2,2*
X138290000Y-141250000D03*
D13*
G04 #@! TO.P,SW2,1*
X135750000Y-141250000D03*
G04 #@! TD*
D14*
G04 #@! TO.P,J2,10*
G04 #@! TO.N,GND*
X116060000Y-67480000D03*
G04 #@! TO.P,J2,9*
G04 #@! TO.N,PB0*
X116060000Y-68750000D03*
G04 #@! TO.P,J2,8*
G04 #@! TO.N,N/C*
X114790000Y-67480000D03*
G04 #@! TO.P,J2,7*
G04 #@! TO.N,+5V*
X114790000Y-68750000D03*
G04 #@! TO.P,J2,6*
G04 #@! TO.N,RST*
X113520000Y-67480000D03*
G04 #@! TO.P,J2,5*
G04 #@! TO.N,N/C*
X113520000Y-68750000D03*
G04 #@! TO.P,J2,4*
G04 #@! TO.N,+5V*
X112250000Y-67480000D03*
G04 #@! TO.P,J2,3*
G04 #@! TO.N,DIN*
X112250000Y-68750000D03*
G04 #@! TO.P,J2,2*
G04 #@! TO.N,GND*
X110980000Y-67480000D03*
D15*
G04 #@! TO.P,J2,1*
G04 #@! TO.N,BTN*
X110980000Y-68750000D03*
G04 #@! TD*
D16*
G04 #@! TO.P,USB1,SH*
G04 #@! TO.N,N/C*
X107730000Y-138275000D03*
D17*
X110280000Y-137575000D03*
X110280000Y-144425000D03*
D16*
X107730000Y-143725000D03*
G04 #@! TD*
D18*
G04 #@! TO.N,GND*
X128750000Y-131250000D03*
X125250000Y-141250000D03*
X111750000Y-151000000D03*
X122250000Y-151000000D03*
X134750000Y-151000000D03*
X145500000Y-151000000D03*
X145500000Y-134750000D03*
X135250000Y-135000000D03*
X121750000Y-134750000D03*
X111750000Y-142750000D03*
X112500000Y-134750000D03*
X121750000Y-116250000D03*
X121750000Y-106500000D03*
X135500000Y-106500000D03*
X135500000Y-116250000D03*
X135500000Y-126250000D03*
X121750000Y-126250000D03*
X155750000Y-83000000D03*
X152750000Y-78000000D03*
X144250000Y-77750000D03*
X135000000Y-77750000D03*
X135250000Y-86750000D03*
X135500000Y-96750000D03*
X121750000Y-97000000D03*
X121750000Y-87000000D03*
X122000000Y-77750000D03*
X113500000Y-77750000D03*
X97500000Y-70500000D03*
X104750000Y-77750000D03*
X104750000Y-89000000D03*
X93500000Y-89000000D03*
X99000000Y-83750000D03*
X90750000Y-80000000D03*
X90750000Y-71250000D03*
X90750000Y-62250000D03*
X102250000Y-62250000D03*
X113500000Y-62250000D03*
X123750000Y-62250000D03*
X133750000Y-62250000D03*
X144000000Y-62250000D03*
X155500000Y-62250000D03*
X166250000Y-62250000D03*
X166500000Y-71000000D03*
X166250000Y-80000000D03*
X166250000Y-89000000D03*
X153000000Y-89000000D03*
G04 #@! TO.N,+5V*
X133475100Y-131265800D03*
G04 #@! TO.N,DIN*
X105057300Y-69107000D03*
X93493100Y-82514200D03*
G04 #@! TO.N,Net-(U3-Pad2)*
X87821300Y-69705700D03*
X90846500Y-60470000D03*
G04 #@! TO.N,Net-(U7-Pad2)*
X120176900Y-60470000D03*
X133372700Y-59889600D03*
G04 #@! TO.N,Net-(U29-Pad2)*
X109145000Y-148668500D03*
X111082500Y-133908400D03*
G04 #@! TO.N,VIN_Switch*
X113000000Y-139750000D03*
G04 #@! TO.N,GND*
X118000000Y-133250000D03*
X113500000Y-137500000D03*
G04 #@! TO.N,+5V*
X104724700Y-67000000D03*
G04 #@! TO.N,BTN*
X108250000Y-67865000D03*
G04 #@! TO.N,PB0*
X113250000Y-71000000D03*
G04 #@! TD*
D19*
G04 #@! TO.N,+5V*
X143370000Y-141250000D02*
X143370000Y-139699700D01*
X133475100Y-131265800D02*
X141909000Y-139699700D01*
X141909000Y-139699700D02*
X143370000Y-139699700D01*
G04 #@! TO.N,DIN*
X105057300Y-69107000D02*
X93493100Y-80671200D01*
X93493100Y-80671200D02*
X93493100Y-82514200D01*
G04 #@! TO.N,Net-(U3-Pad2)*
X90846500Y-60470000D02*
X87821300Y-63495200D01*
X87821300Y-63495200D02*
X87821300Y-69705700D01*
G04 #@! TO.N,Net-(U7-Pad2)*
X133372700Y-59889600D02*
X120757300Y-59889600D01*
X120757300Y-59889600D02*
X120176900Y-60470000D01*
G04 #@! TO.N,BTN*
X116603800Y-137518200D02*
X115500000Y-138622000D01*
X122000000Y-138622000D02*
X120896200Y-137518200D01*
X120896200Y-137518200D02*
X116603800Y-137518200D01*
G04 #@! TO.N,VIN_Switch*
X138290000Y-141250000D02*
X140830000Y-141250000D01*
X135750000Y-141250000D02*
X138290000Y-141250000D01*
G04 #@! TO.N,+5V*
X105194701Y-66529999D02*
X108720001Y-66529999D01*
X104724700Y-67000000D02*
X105194701Y-66529999D01*
X108720001Y-66529999D02*
X109500000Y-65750000D01*
X109500000Y-65750000D02*
X111250000Y-65750000D01*
X112250000Y-66750000D02*
X112250000Y-67480000D01*
X111250000Y-65750000D02*
X112250000Y-66750000D01*
G04 #@! TO.N,Net-(U29-Pad2)*
X109145000Y-148668500D02*
X113000000Y-144813500D01*
X113000000Y-144813500D02*
X113000000Y-141500000D01*
X113000000Y-141500000D02*
X111799999Y-140299999D01*
X111799999Y-140299999D02*
X111799999Y-136049999D01*
X111082500Y-135000000D02*
X111082500Y-133908400D01*
X111799999Y-136049999D02*
X111082500Y-135332500D01*
X111082500Y-135332500D02*
X111082500Y-135000000D01*
G04 #@! TO.N,BTN*
X116603800Y-79459100D02*
X116603800Y-137518200D01*
X112629300Y-75484600D02*
X116603800Y-79459100D01*
X109779600Y-75484600D02*
X112629300Y-75484600D01*
X109250000Y-68750000D02*
X108339500Y-67839500D01*
X110980000Y-68750000D02*
X109250000Y-68750000D01*
X108339500Y-67839500D02*
X108276500Y-67839500D01*
X108276500Y-67839500D02*
X106999000Y-69117000D01*
X106999000Y-69117000D02*
X106999000Y-72704000D01*
X106999000Y-72704000D02*
X109779600Y-75484600D01*
G04 #@! TO.N,PB0*
X113250000Y-71000000D02*
X115250000Y-71000000D01*
X116060000Y-70190000D02*
X116060000Y-68750000D01*
X115250000Y-71000000D02*
X116060000Y-70190000D01*
G04 #@! TD*
D20*
G04 #@! TO.N,GND*
G36*
X168763810Y-57787609D02*
X168859996Y-57839509D01*
X168934186Y-57919767D01*
X168987935Y-58041345D01*
X169005000Y-58176426D01*
X169005001Y-89501378D01*
X168970891Y-89706310D01*
X168918991Y-89802497D01*
X168838734Y-89876685D01*
X168717155Y-89930435D01*
X168582074Y-89947500D01*
X147987000Y-89947500D01*
X147987000Y-79808224D01*
X148010019Y-79692500D01*
X147918825Y-79234038D01*
X147659127Y-78845373D01*
X147270462Y-78585675D01*
X146927724Y-78517500D01*
X146812000Y-78494481D01*
X146696276Y-78517500D01*
X139307724Y-78517500D01*
X139192000Y-78494481D01*
X139076276Y-78517500D01*
X138733538Y-78585675D01*
X138344873Y-78845373D01*
X138085175Y-79234038D01*
X137993981Y-79692500D01*
X138017000Y-79808224D01*
X138017001Y-128598771D01*
X137993981Y-128714500D01*
X138085175Y-129172962D01*
X138344873Y-129561627D01*
X138733538Y-129821325D01*
X139076276Y-129889500D01*
X139192000Y-129912519D01*
X139307724Y-129889500D01*
X147730883Y-129889500D01*
X147935810Y-129923609D01*
X148031996Y-129975509D01*
X148106186Y-130055767D01*
X148159935Y-130177345D01*
X148177000Y-130312426D01*
X148177001Y-150963697D01*
X148154238Y-151092792D01*
X148140890Y-151115912D01*
X148120436Y-151133074D01*
X148046021Y-151160159D01*
X148030697Y-151161500D01*
X107539116Y-151161500D01*
X107334190Y-151127391D01*
X107238003Y-151075491D01*
X107163815Y-150995234D01*
X107110065Y-150873655D01*
X107093000Y-150738574D01*
X107093000Y-145475000D01*
X108468396Y-145475000D01*
X108543823Y-145854199D01*
X108786944Y-146218056D01*
X109150801Y-146461177D01*
X109453613Y-146521410D01*
X108501000Y-147474024D01*
X108380286Y-147524025D01*
X108000525Y-147903786D01*
X107795000Y-148399968D01*
X107795000Y-148937032D01*
X108000525Y-149433214D01*
X108380286Y-149812975D01*
X108876468Y-150018500D01*
X109413532Y-150018500D01*
X109909714Y-149812975D01*
X110289475Y-149433214D01*
X110339476Y-149312500D01*
X113828706Y-145823272D01*
X113937247Y-145750747D01*
X114009772Y-145642206D01*
X114009774Y-145642204D01*
X114154905Y-145425000D01*
X114224573Y-145320735D01*
X114300000Y-144941537D01*
X114300000Y-144941532D01*
X114313370Y-144874318D01*
X114493952Y-144693736D01*
X114587233Y-145058838D01*
X115397909Y-145260706D01*
X116224128Y-145136975D01*
X116412767Y-145058838D01*
X116506049Y-144693734D01*
X120993951Y-144693734D01*
X121087233Y-145058838D01*
X121897909Y-145260706D01*
X122724128Y-145136975D01*
X122912767Y-145058838D01*
X123006049Y-144693734D01*
X122000000Y-143687685D01*
X120993951Y-144693734D01*
X116506049Y-144693734D01*
X115500000Y-143687685D01*
X115485858Y-143701828D01*
X114920173Y-143136143D01*
X114934315Y-143122000D01*
X116065685Y-143122000D01*
X117071734Y-144128049D01*
X117436838Y-144034767D01*
X117638706Y-143224091D01*
X117608129Y-143019909D01*
X119861294Y-143019909D01*
X119985025Y-143846128D01*
X120063162Y-144034767D01*
X120428266Y-144128049D01*
X121434315Y-143122000D01*
X122565685Y-143122000D01*
X123571734Y-144128049D01*
X123936838Y-144034767D01*
X124138706Y-143224091D01*
X124014975Y-142397872D01*
X123936838Y-142209233D01*
X123571734Y-142115951D01*
X122565685Y-143122000D01*
X121434315Y-143122000D01*
X120428266Y-142115951D01*
X120063162Y-142209233D01*
X119861294Y-143019909D01*
X117608129Y-143019909D01*
X117514975Y-142397872D01*
X117436838Y-142209233D01*
X117071734Y-142115951D01*
X116065685Y-143122000D01*
X114934315Y-143122000D01*
X114920173Y-143107858D01*
X115485858Y-142542173D01*
X115500000Y-142556315D01*
X116506049Y-141550266D01*
X120993951Y-141550266D01*
X122000000Y-142556315D01*
X123006049Y-141550266D01*
X122912767Y-141185162D01*
X122102091Y-140983294D01*
X121275872Y-141107025D01*
X121087233Y-141185162D01*
X120993951Y-141550266D01*
X116506049Y-141550266D01*
X116412767Y-141185162D01*
X115602091Y-140983294D01*
X114775872Y-141107025D01*
X114587233Y-141185162D01*
X114493952Y-141550264D01*
X114296114Y-141352426D01*
X114224573Y-140992765D01*
X114001009Y-140658180D01*
X114144475Y-140514714D01*
X114226014Y-140317862D01*
X114310446Y-140402294D01*
X115082284Y-140722000D01*
X115917716Y-140722000D01*
X116689554Y-140402294D01*
X117280294Y-139811554D01*
X117600000Y-139039716D01*
X117600000Y-138818200D01*
X119900000Y-138818200D01*
X119900000Y-139039716D01*
X120219706Y-139811554D01*
X120810446Y-140402294D01*
X121582284Y-140722000D01*
X122417716Y-140722000D01*
X123189554Y-140402294D01*
X123780294Y-139811554D01*
X124100000Y-139039716D01*
X124100000Y-138204284D01*
X123780294Y-137432446D01*
X123189554Y-136841706D01*
X122417716Y-136522000D01*
X121745218Y-136522000D01*
X121403435Y-136293627D01*
X121024237Y-136218200D01*
X121024233Y-136218200D01*
X120896200Y-136192733D01*
X120768167Y-136218200D01*
X117903800Y-136218200D01*
X117903800Y-130997268D01*
X132125100Y-130997268D01*
X132125100Y-131534332D01*
X132330625Y-132030514D01*
X132710386Y-132410275D01*
X132831100Y-132460276D01*
X139898193Y-139527370D01*
X139560000Y-139753343D01*
X139050852Y-139413141D01*
X138482054Y-139300000D01*
X138097946Y-139300000D01*
X137529148Y-139413141D01*
X137503324Y-139430396D01*
X137179199Y-139213823D01*
X136750000Y-139128450D01*
X134750000Y-139128450D01*
X134320801Y-139213823D01*
X133956944Y-139456944D01*
X133713823Y-139820801D01*
X133628450Y-140250000D01*
X133628450Y-142250000D01*
X133713823Y-142679199D01*
X133956944Y-143043056D01*
X134320801Y-143286177D01*
X134750000Y-143371550D01*
X136750000Y-143371550D01*
X137179199Y-143286177D01*
X137503324Y-143069604D01*
X137529148Y-143086859D01*
X138097946Y-143200000D01*
X138482054Y-143200000D01*
X139050852Y-143086859D01*
X139560000Y-142746657D01*
X140069148Y-143086859D01*
X140637946Y-143200000D01*
X141022054Y-143200000D01*
X141590852Y-143086859D01*
X141978196Y-142828044D01*
X142180446Y-143030294D01*
X142952284Y-143350000D01*
X143787716Y-143350000D01*
X144559554Y-143030294D01*
X145150294Y-142439554D01*
X145470000Y-141667716D01*
X145470000Y-140832284D01*
X145150294Y-140060446D01*
X144672108Y-139582260D01*
X144649720Y-139469706D01*
X144594573Y-139192465D01*
X144307247Y-138762453D01*
X143877235Y-138475127D01*
X143370000Y-138374232D01*
X143241964Y-138399700D01*
X142447477Y-138399700D01*
X134669576Y-130621800D01*
X134619575Y-130501086D01*
X134239814Y-130121325D01*
X133743632Y-129915800D01*
X133206568Y-129915800D01*
X132710386Y-130121325D01*
X132330625Y-130501086D01*
X132125100Y-130997268D01*
X117903800Y-130997268D01*
X117903800Y-123350904D01*
X126138782Y-123350904D01*
X126295266Y-123767211D01*
X127289185Y-124053556D01*
X128317026Y-123937747D01*
X128728734Y-123767211D01*
X128885218Y-123350904D01*
X127512000Y-121977685D01*
X126138782Y-123350904D01*
X117903800Y-123350904D01*
X117903800Y-121189185D01*
X124870444Y-121189185D01*
X124986253Y-122217026D01*
X125156789Y-122628734D01*
X125573096Y-122785218D01*
X126946315Y-121412000D01*
X128077685Y-121412000D01*
X129450904Y-122785218D01*
X129867211Y-122628734D01*
X130153556Y-121634815D01*
X130037747Y-120606974D01*
X129867211Y-120195266D01*
X129450904Y-120038782D01*
X128077685Y-121412000D01*
X126946315Y-121412000D01*
X125573096Y-120038782D01*
X125156789Y-120195266D01*
X124870444Y-121189185D01*
X117903800Y-121189185D01*
X117903800Y-119473096D01*
X126138782Y-119473096D01*
X127512000Y-120846315D01*
X128885218Y-119473096D01*
X128728734Y-119056789D01*
X127734815Y-118770444D01*
X126706974Y-118886253D01*
X126295266Y-119056789D01*
X126138782Y-119473096D01*
X117903800Y-119473096D01*
X117903800Y-101394828D01*
X124912000Y-101394828D01*
X124912000Y-102429172D01*
X125307826Y-103384782D01*
X126039218Y-104116174D01*
X126994828Y-104512000D01*
X128029172Y-104512000D01*
X128984782Y-104116174D01*
X129716174Y-103384782D01*
X130112000Y-102429172D01*
X130112000Y-101394828D01*
X129716174Y-100439218D01*
X128984782Y-99707826D01*
X128029172Y-99312000D01*
X126994828Y-99312000D01*
X126039218Y-99707826D01*
X125307826Y-100439218D01*
X124912000Y-101394828D01*
X117903800Y-101394828D01*
X117903800Y-79587133D01*
X117929267Y-79459100D01*
X117903800Y-79331067D01*
X117903800Y-79331063D01*
X117828373Y-78951865D01*
X117541047Y-78521853D01*
X117432503Y-78449326D01*
X113639076Y-74655900D01*
X113566547Y-74547353D01*
X113136535Y-74260027D01*
X112757337Y-74184600D01*
X112757333Y-74184600D01*
X112629300Y-74159133D01*
X112501267Y-74184600D01*
X110318078Y-74184600D01*
X108299000Y-72165524D01*
X108299000Y-69666664D01*
X108312753Y-69687247D01*
X108421294Y-69759772D01*
X108421296Y-69759774D01*
X108531990Y-69833737D01*
X108742765Y-69974573D01*
X109121963Y-70050000D01*
X109121968Y-70050000D01*
X109249999Y-70075467D01*
X109378031Y-70050000D01*
X109697336Y-70050000D01*
X110050801Y-70286177D01*
X110480000Y-70371550D01*
X111480000Y-70371550D01*
X111840379Y-70299866D01*
X112060628Y-70343677D01*
X111900000Y-70731468D01*
X111900000Y-71268532D01*
X112105525Y-71764714D01*
X112485286Y-72144475D01*
X112981468Y-72350000D01*
X113518532Y-72350000D01*
X113639243Y-72300000D01*
X115121967Y-72300000D01*
X115250000Y-72325467D01*
X115378033Y-72300000D01*
X115378037Y-72300000D01*
X115757235Y-72224573D01*
X116187247Y-71937247D01*
X116259776Y-71828700D01*
X116888700Y-71199776D01*
X116997247Y-71127247D01*
X117284573Y-70697235D01*
X117360000Y-70318037D01*
X117360000Y-70318033D01*
X117385467Y-70190000D01*
X117360000Y-70061967D01*
X117360000Y-69684335D01*
X117567166Y-69374289D01*
X117691345Y-68750000D01*
X117567166Y-68125711D01*
X117528963Y-68068536D01*
X117581800Y-67974146D01*
X117365366Y-67730000D01*
X117302760Y-67730000D01*
X117213535Y-67596465D01*
X116684289Y-67242834D01*
X116619768Y-67230000D01*
X117365366Y-67230000D01*
X117581800Y-66985854D01*
X117276858Y-66441101D01*
X116786661Y-66054511D01*
X116554143Y-65958217D01*
X116310000Y-66178799D01*
X116310000Y-66920232D01*
X116297166Y-66855711D01*
X115943535Y-66326465D01*
X115810000Y-66237240D01*
X115810000Y-66178799D01*
X115565857Y-65958217D01*
X115458780Y-66002562D01*
X115414289Y-65972834D01*
X114947582Y-65880000D01*
X114632418Y-65880000D01*
X114165711Y-65972834D01*
X114155000Y-65979991D01*
X114144289Y-65972834D01*
X113677582Y-65880000D01*
X113362418Y-65880000D01*
X113247459Y-65902867D01*
X113187247Y-65812753D01*
X113078703Y-65740226D01*
X112259776Y-64921300D01*
X112187247Y-64812753D01*
X111757235Y-64525427D01*
X111378037Y-64450000D01*
X111378033Y-64450000D01*
X111250000Y-64424533D01*
X111121967Y-64450000D01*
X109628032Y-64450000D01*
X109499999Y-64424533D01*
X109371966Y-64450000D01*
X109371963Y-64450000D01*
X108992765Y-64525427D01*
X108562753Y-64812753D01*
X108490225Y-64921298D01*
X108181525Y-65229999D01*
X105322734Y-65229999D01*
X105194701Y-65204532D01*
X105066668Y-65229999D01*
X105066664Y-65229999D01*
X104687466Y-65305426D01*
X104257454Y-65592752D01*
X104184925Y-65701299D01*
X104080701Y-65805523D01*
X103959986Y-65855525D01*
X103580225Y-66235286D01*
X103374700Y-66731468D01*
X103374700Y-67268532D01*
X103580225Y-67764714D01*
X103959986Y-68144475D01*
X104066512Y-68188599D01*
X103912825Y-68342286D01*
X103862825Y-68462997D01*
X92664400Y-79661424D01*
X92555853Y-79733953D01*
X92268527Y-80163966D01*
X92193100Y-80543164D01*
X92193100Y-80543167D01*
X92167633Y-80671200D01*
X92193100Y-80799233D01*
X92193101Y-82124955D01*
X92143100Y-82245668D01*
X92143100Y-82782732D01*
X92348625Y-83278914D01*
X92728386Y-83658675D01*
X93224568Y-83864200D01*
X93761632Y-83864200D01*
X94257814Y-83658675D01*
X94637575Y-83278914D01*
X94843100Y-82782732D01*
X94843100Y-82245668D01*
X94793100Y-82124957D01*
X94793100Y-81209676D01*
X105699000Y-70303778D01*
X105699001Y-72575963D01*
X105673533Y-72704000D01*
X105774427Y-73211234D01*
X105774428Y-73211235D01*
X106061754Y-73641247D01*
X106170298Y-73713774D01*
X108769828Y-76313305D01*
X108842353Y-76421847D01*
X108950894Y-76494372D01*
X108950896Y-76494374D01*
X109272365Y-76709173D01*
X109651563Y-76784600D01*
X109651566Y-76784600D01*
X109779599Y-76810067D01*
X109907632Y-76784600D01*
X112090824Y-76784600D01*
X113823723Y-78517500D01*
X108319724Y-78517500D01*
X108204000Y-78494481D01*
X108088276Y-78517500D01*
X107745538Y-78585675D01*
X107356873Y-78845373D01*
X107097175Y-79234038D01*
X107005981Y-79692500D01*
X107029000Y-79808224D01*
X107029001Y-89947500D01*
X86457116Y-89947500D01*
X86252190Y-89913391D01*
X86156003Y-89861491D01*
X86081815Y-89781234D01*
X86028065Y-89659655D01*
X86011000Y-89524574D01*
X86011000Y-69437168D01*
X86471300Y-69437168D01*
X86471300Y-69974232D01*
X86676825Y-70470414D01*
X87056586Y-70850175D01*
X87552768Y-71055700D01*
X88089832Y-71055700D01*
X88586014Y-70850175D01*
X88965775Y-70470414D01*
X89171300Y-69974232D01*
X89171300Y-69437168D01*
X89121300Y-69316457D01*
X89121300Y-64033676D01*
X91490501Y-61664476D01*
X91611214Y-61614475D01*
X91990975Y-61234714D01*
X92196500Y-60738532D01*
X92196500Y-60201468D01*
X118826900Y-60201468D01*
X118826900Y-60738532D01*
X119032425Y-61234714D01*
X119412186Y-61614475D01*
X119908368Y-61820000D01*
X120445432Y-61820000D01*
X120941614Y-61614475D01*
X121321375Y-61234714D01*
X121340062Y-61189600D01*
X132983457Y-61189600D01*
X133104168Y-61239600D01*
X133641232Y-61239600D01*
X134137414Y-61034075D01*
X134517175Y-60654314D01*
X134722700Y-60158132D01*
X134722700Y-59621068D01*
X134517175Y-59124886D01*
X134137414Y-58745125D01*
X133641232Y-58539600D01*
X133104168Y-58539600D01*
X132983457Y-58589600D01*
X120885333Y-58589600D01*
X120757300Y-58564133D01*
X120629267Y-58589600D01*
X120629263Y-58589600D01*
X120250065Y-58665027D01*
X119820053Y-58952353D01*
X119747524Y-59060900D01*
X119532901Y-59275523D01*
X119412186Y-59325525D01*
X119032425Y-59705286D01*
X118826900Y-60201468D01*
X92196500Y-60201468D01*
X91990975Y-59705286D01*
X91611214Y-59325525D01*
X91115032Y-59120000D01*
X90577968Y-59120000D01*
X90081786Y-59325525D01*
X89702025Y-59705286D01*
X89652024Y-59825999D01*
X86992600Y-62485424D01*
X86884053Y-62557953D01*
X86596727Y-62987966D01*
X86521300Y-63367164D01*
X86521300Y-63367167D01*
X86495833Y-63495200D01*
X86521300Y-63623233D01*
X86521301Y-69316455D01*
X86471300Y-69437168D01*
X86011000Y-69437168D01*
X86011000Y-57753500D01*
X168558883Y-57753500D01*
X168763810Y-57787609D01*
X168763810Y-57787609D01*
G37*
X168763810Y-57787609D02*
X168859996Y-57839509D01*
X168934186Y-57919767D01*
X168987935Y-58041345D01*
X169005000Y-58176426D01*
X169005001Y-89501378D01*
X168970891Y-89706310D01*
X168918991Y-89802497D01*
X168838734Y-89876685D01*
X168717155Y-89930435D01*
X168582074Y-89947500D01*
X147987000Y-89947500D01*
X147987000Y-79808224D01*
X148010019Y-79692500D01*
X147918825Y-79234038D01*
X147659127Y-78845373D01*
X147270462Y-78585675D01*
X146927724Y-78517500D01*
X146812000Y-78494481D01*
X146696276Y-78517500D01*
X139307724Y-78517500D01*
X139192000Y-78494481D01*
X139076276Y-78517500D01*
X138733538Y-78585675D01*
X138344873Y-78845373D01*
X138085175Y-79234038D01*
X137993981Y-79692500D01*
X138017000Y-79808224D01*
X138017001Y-128598771D01*
X137993981Y-128714500D01*
X138085175Y-129172962D01*
X138344873Y-129561627D01*
X138733538Y-129821325D01*
X139076276Y-129889500D01*
X139192000Y-129912519D01*
X139307724Y-129889500D01*
X147730883Y-129889500D01*
X147935810Y-129923609D01*
X148031996Y-129975509D01*
X148106186Y-130055767D01*
X148159935Y-130177345D01*
X148177000Y-130312426D01*
X148177001Y-150963697D01*
X148154238Y-151092792D01*
X148140890Y-151115912D01*
X148120436Y-151133074D01*
X148046021Y-151160159D01*
X148030697Y-151161500D01*
X107539116Y-151161500D01*
X107334190Y-151127391D01*
X107238003Y-151075491D01*
X107163815Y-150995234D01*
X107110065Y-150873655D01*
X107093000Y-150738574D01*
X107093000Y-145475000D01*
X108468396Y-145475000D01*
X108543823Y-145854199D01*
X108786944Y-146218056D01*
X109150801Y-146461177D01*
X109453613Y-146521410D01*
X108501000Y-147474024D01*
X108380286Y-147524025D01*
X108000525Y-147903786D01*
X107795000Y-148399968D01*
X107795000Y-148937032D01*
X108000525Y-149433214D01*
X108380286Y-149812975D01*
X108876468Y-150018500D01*
X109413532Y-150018500D01*
X109909714Y-149812975D01*
X110289475Y-149433214D01*
X110339476Y-149312500D01*
X113828706Y-145823272D01*
X113937247Y-145750747D01*
X114009772Y-145642206D01*
X114009774Y-145642204D01*
X114154905Y-145425000D01*
X114224573Y-145320735D01*
X114300000Y-144941537D01*
X114300000Y-144941532D01*
X114313370Y-144874318D01*
X114493952Y-144693736D01*
X114587233Y-145058838D01*
X115397909Y-145260706D01*
X116224128Y-145136975D01*
X116412767Y-145058838D01*
X116506049Y-144693734D01*
X120993951Y-144693734D01*
X121087233Y-145058838D01*
X121897909Y-145260706D01*
X122724128Y-145136975D01*
X122912767Y-145058838D01*
X123006049Y-144693734D01*
X122000000Y-143687685D01*
X120993951Y-144693734D01*
X116506049Y-144693734D01*
X115500000Y-143687685D01*
X115485858Y-143701828D01*
X114920173Y-143136143D01*
X114934315Y-143122000D01*
X116065685Y-143122000D01*
X117071734Y-144128049D01*
X117436838Y-144034767D01*
X117638706Y-143224091D01*
X117608129Y-143019909D01*
X119861294Y-143019909D01*
X119985025Y-143846128D01*
X120063162Y-144034767D01*
X120428266Y-144128049D01*
X121434315Y-143122000D01*
X122565685Y-143122000D01*
X123571734Y-144128049D01*
X123936838Y-144034767D01*
X124138706Y-143224091D01*
X124014975Y-142397872D01*
X123936838Y-142209233D01*
X123571734Y-142115951D01*
X122565685Y-143122000D01*
X121434315Y-143122000D01*
X120428266Y-142115951D01*
X120063162Y-142209233D01*
X119861294Y-143019909D01*
X117608129Y-143019909D01*
X117514975Y-142397872D01*
X117436838Y-142209233D01*
X117071734Y-142115951D01*
X116065685Y-143122000D01*
X114934315Y-143122000D01*
X114920173Y-143107858D01*
X115485858Y-142542173D01*
X115500000Y-142556315D01*
X116506049Y-141550266D01*
X120993951Y-141550266D01*
X122000000Y-142556315D01*
X123006049Y-141550266D01*
X122912767Y-141185162D01*
X122102091Y-140983294D01*
X121275872Y-141107025D01*
X121087233Y-141185162D01*
X120993951Y-141550266D01*
X116506049Y-141550266D01*
X116412767Y-141185162D01*
X115602091Y-140983294D01*
X114775872Y-141107025D01*
X114587233Y-141185162D01*
X114493952Y-141550264D01*
X114296114Y-141352426D01*
X114224573Y-140992765D01*
X114001009Y-140658180D01*
X114144475Y-140514714D01*
X114226014Y-140317862D01*
X114310446Y-140402294D01*
X115082284Y-140722000D01*
X115917716Y-140722000D01*
X116689554Y-140402294D01*
X117280294Y-139811554D01*
X117600000Y-139039716D01*
X117600000Y-138818200D01*
X119900000Y-138818200D01*
X119900000Y-139039716D01*
X120219706Y-139811554D01*
X120810446Y-140402294D01*
X121582284Y-140722000D01*
X122417716Y-140722000D01*
X123189554Y-140402294D01*
X123780294Y-139811554D01*
X124100000Y-139039716D01*
X124100000Y-138204284D01*
X123780294Y-137432446D01*
X123189554Y-136841706D01*
X122417716Y-136522000D01*
X121745218Y-136522000D01*
X121403435Y-136293627D01*
X121024237Y-136218200D01*
X121024233Y-136218200D01*
X120896200Y-136192733D01*
X120768167Y-136218200D01*
X117903800Y-136218200D01*
X117903800Y-130997268D01*
X132125100Y-130997268D01*
X132125100Y-131534332D01*
X132330625Y-132030514D01*
X132710386Y-132410275D01*
X132831100Y-132460276D01*
X139898193Y-139527370D01*
X139560000Y-139753343D01*
X139050852Y-139413141D01*
X138482054Y-139300000D01*
X138097946Y-139300000D01*
X137529148Y-139413141D01*
X137503324Y-139430396D01*
X137179199Y-139213823D01*
X136750000Y-139128450D01*
X134750000Y-139128450D01*
X134320801Y-139213823D01*
X133956944Y-139456944D01*
X133713823Y-139820801D01*
X133628450Y-140250000D01*
X133628450Y-142250000D01*
X133713823Y-142679199D01*
X133956944Y-143043056D01*
X134320801Y-143286177D01*
X134750000Y-143371550D01*
X136750000Y-143371550D01*
X137179199Y-143286177D01*
X137503324Y-143069604D01*
X137529148Y-143086859D01*
X138097946Y-143200000D01*
X138482054Y-143200000D01*
X139050852Y-143086859D01*
X139560000Y-142746657D01*
X140069148Y-143086859D01*
X140637946Y-143200000D01*
X141022054Y-143200000D01*
X141590852Y-143086859D01*
X141978196Y-142828044D01*
X142180446Y-143030294D01*
X142952284Y-143350000D01*
X143787716Y-143350000D01*
X144559554Y-143030294D01*
X145150294Y-142439554D01*
X145470000Y-141667716D01*
X145470000Y-140832284D01*
X145150294Y-140060446D01*
X144672108Y-139582260D01*
X144649720Y-139469706D01*
X144594573Y-139192465D01*
X144307247Y-138762453D01*
X143877235Y-138475127D01*
X143370000Y-138374232D01*
X143241964Y-138399700D01*
X142447477Y-138399700D01*
X134669576Y-130621800D01*
X134619575Y-130501086D01*
X134239814Y-130121325D01*
X133743632Y-129915800D01*
X133206568Y-129915800D01*
X132710386Y-130121325D01*
X132330625Y-130501086D01*
X132125100Y-130997268D01*
X117903800Y-130997268D01*
X117903800Y-123350904D01*
X126138782Y-123350904D01*
X126295266Y-123767211D01*
X127289185Y-124053556D01*
X128317026Y-123937747D01*
X128728734Y-123767211D01*
X128885218Y-123350904D01*
X127512000Y-121977685D01*
X126138782Y-123350904D01*
X117903800Y-123350904D01*
X117903800Y-121189185D01*
X124870444Y-121189185D01*
X124986253Y-122217026D01*
X125156789Y-122628734D01*
X125573096Y-122785218D01*
X126946315Y-121412000D01*
X128077685Y-121412000D01*
X129450904Y-122785218D01*
X129867211Y-122628734D01*
X130153556Y-121634815D01*
X130037747Y-120606974D01*
X129867211Y-120195266D01*
X129450904Y-120038782D01*
X128077685Y-121412000D01*
X126946315Y-121412000D01*
X125573096Y-120038782D01*
X125156789Y-120195266D01*
X124870444Y-121189185D01*
X117903800Y-121189185D01*
X117903800Y-119473096D01*
X126138782Y-119473096D01*
X127512000Y-120846315D01*
X128885218Y-119473096D01*
X128728734Y-119056789D01*
X127734815Y-118770444D01*
X126706974Y-118886253D01*
X126295266Y-119056789D01*
X126138782Y-119473096D01*
X117903800Y-119473096D01*
X117903800Y-101394828D01*
X124912000Y-101394828D01*
X124912000Y-102429172D01*
X125307826Y-103384782D01*
X126039218Y-104116174D01*
X126994828Y-104512000D01*
X128029172Y-104512000D01*
X128984782Y-104116174D01*
X129716174Y-103384782D01*
X130112000Y-102429172D01*
X130112000Y-101394828D01*
X129716174Y-100439218D01*
X128984782Y-99707826D01*
X128029172Y-99312000D01*
X126994828Y-99312000D01*
X126039218Y-99707826D01*
X125307826Y-100439218D01*
X124912000Y-101394828D01*
X117903800Y-101394828D01*
X117903800Y-79587133D01*
X117929267Y-79459100D01*
X117903800Y-79331067D01*
X117903800Y-79331063D01*
X117828373Y-78951865D01*
X117541047Y-78521853D01*
X117432503Y-78449326D01*
X113639076Y-74655900D01*
X113566547Y-74547353D01*
X113136535Y-74260027D01*
X112757337Y-74184600D01*
X112757333Y-74184600D01*
X112629300Y-74159133D01*
X112501267Y-74184600D01*
X110318078Y-74184600D01*
X108299000Y-72165524D01*
X108299000Y-69666664D01*
X108312753Y-69687247D01*
X108421294Y-69759772D01*
X108421296Y-69759774D01*
X108531990Y-69833737D01*
X108742765Y-69974573D01*
X109121963Y-70050000D01*
X109121968Y-70050000D01*
X109249999Y-70075467D01*
X109378031Y-70050000D01*
X109697336Y-70050000D01*
X110050801Y-70286177D01*
X110480000Y-70371550D01*
X111480000Y-70371550D01*
X111840379Y-70299866D01*
X112060628Y-70343677D01*
X111900000Y-70731468D01*
X111900000Y-71268532D01*
X112105525Y-71764714D01*
X112485286Y-72144475D01*
X112981468Y-72350000D01*
X113518532Y-72350000D01*
X113639243Y-72300000D01*
X115121967Y-72300000D01*
X115250000Y-72325467D01*
X115378033Y-72300000D01*
X115378037Y-72300000D01*
X115757235Y-72224573D01*
X116187247Y-71937247D01*
X116259776Y-71828700D01*
X116888700Y-71199776D01*
X116997247Y-71127247D01*
X117284573Y-70697235D01*
X117360000Y-70318037D01*
X117360000Y-70318033D01*
X117385467Y-70190000D01*
X117360000Y-70061967D01*
X117360000Y-69684335D01*
X117567166Y-69374289D01*
X117691345Y-68750000D01*
X117567166Y-68125711D01*
X117528963Y-68068536D01*
X117581800Y-67974146D01*
X117365366Y-67730000D01*
X117302760Y-67730000D01*
X117213535Y-67596465D01*
X116684289Y-67242834D01*
X116619768Y-67230000D01*
X117365366Y-67230000D01*
X117581800Y-66985854D01*
X117276858Y-66441101D01*
X116786661Y-66054511D01*
X116554143Y-65958217D01*
X116310000Y-66178799D01*
X116310000Y-66920232D01*
X116297166Y-66855711D01*
X115943535Y-66326465D01*
X115810000Y-66237240D01*
X115810000Y-66178799D01*
X115565857Y-65958217D01*
X115458780Y-66002562D01*
X115414289Y-65972834D01*
X114947582Y-65880000D01*
X114632418Y-65880000D01*
X114165711Y-65972834D01*
X114155000Y-65979991D01*
X114144289Y-65972834D01*
X113677582Y-65880000D01*
X113362418Y-65880000D01*
X113247459Y-65902867D01*
X113187247Y-65812753D01*
X113078703Y-65740226D01*
X112259776Y-64921300D01*
X112187247Y-64812753D01*
X111757235Y-64525427D01*
X111378037Y-64450000D01*
X111378033Y-64450000D01*
X111250000Y-64424533D01*
X111121967Y-64450000D01*
X109628032Y-64450000D01*
X109499999Y-64424533D01*
X109371966Y-64450000D01*
X109371963Y-64450000D01*
X108992765Y-64525427D01*
X108562753Y-64812753D01*
X108490225Y-64921298D01*
X108181525Y-65229999D01*
X105322734Y-65229999D01*
X105194701Y-65204532D01*
X105066668Y-65229999D01*
X105066664Y-65229999D01*
X104687466Y-65305426D01*
X104257454Y-65592752D01*
X104184925Y-65701299D01*
X104080701Y-65805523D01*
X103959986Y-65855525D01*
X103580225Y-66235286D01*
X103374700Y-66731468D01*
X103374700Y-67268532D01*
X103580225Y-67764714D01*
X103959986Y-68144475D01*
X104066512Y-68188599D01*
X103912825Y-68342286D01*
X103862825Y-68462997D01*
X92664400Y-79661424D01*
X92555853Y-79733953D01*
X92268527Y-80163966D01*
X92193100Y-80543164D01*
X92193100Y-80543167D01*
X92167633Y-80671200D01*
X92193100Y-80799233D01*
X92193101Y-82124955D01*
X92143100Y-82245668D01*
X92143100Y-82782732D01*
X92348625Y-83278914D01*
X92728386Y-83658675D01*
X93224568Y-83864200D01*
X93761632Y-83864200D01*
X94257814Y-83658675D01*
X94637575Y-83278914D01*
X94843100Y-82782732D01*
X94843100Y-82245668D01*
X94793100Y-82124957D01*
X94793100Y-81209676D01*
X105699000Y-70303778D01*
X105699001Y-72575963D01*
X105673533Y-72704000D01*
X105774427Y-73211234D01*
X105774428Y-73211235D01*
X106061754Y-73641247D01*
X106170298Y-73713774D01*
X108769828Y-76313305D01*
X108842353Y-76421847D01*
X108950894Y-76494372D01*
X108950896Y-76494374D01*
X109272365Y-76709173D01*
X109651563Y-76784600D01*
X109651566Y-76784600D01*
X109779599Y-76810067D01*
X109907632Y-76784600D01*
X112090824Y-76784600D01*
X113823723Y-78517500D01*
X108319724Y-78517500D01*
X108204000Y-78494481D01*
X108088276Y-78517500D01*
X107745538Y-78585675D01*
X107356873Y-78845373D01*
X107097175Y-79234038D01*
X107005981Y-79692500D01*
X107029000Y-79808224D01*
X107029001Y-89947500D01*
X86457116Y-89947500D01*
X86252190Y-89913391D01*
X86156003Y-89861491D01*
X86081815Y-89781234D01*
X86028065Y-89659655D01*
X86011000Y-89524574D01*
X86011000Y-69437168D01*
X86471300Y-69437168D01*
X86471300Y-69974232D01*
X86676825Y-70470414D01*
X87056586Y-70850175D01*
X87552768Y-71055700D01*
X88089832Y-71055700D01*
X88586014Y-70850175D01*
X88965775Y-70470414D01*
X89171300Y-69974232D01*
X89171300Y-69437168D01*
X89121300Y-69316457D01*
X89121300Y-64033676D01*
X91490501Y-61664476D01*
X91611214Y-61614475D01*
X91990975Y-61234714D01*
X92196500Y-60738532D01*
X92196500Y-60201468D01*
X118826900Y-60201468D01*
X118826900Y-60738532D01*
X119032425Y-61234714D01*
X119412186Y-61614475D01*
X119908368Y-61820000D01*
X120445432Y-61820000D01*
X120941614Y-61614475D01*
X121321375Y-61234714D01*
X121340062Y-61189600D01*
X132983457Y-61189600D01*
X133104168Y-61239600D01*
X133641232Y-61239600D01*
X134137414Y-61034075D01*
X134517175Y-60654314D01*
X134722700Y-60158132D01*
X134722700Y-59621068D01*
X134517175Y-59124886D01*
X134137414Y-58745125D01*
X133641232Y-58539600D01*
X133104168Y-58539600D01*
X132983457Y-58589600D01*
X120885333Y-58589600D01*
X120757300Y-58564133D01*
X120629267Y-58589600D01*
X120629263Y-58589600D01*
X120250065Y-58665027D01*
X119820053Y-58952353D01*
X119747524Y-59060900D01*
X119532901Y-59275523D01*
X119412186Y-59325525D01*
X119032425Y-59705286D01*
X118826900Y-60201468D01*
X92196500Y-60201468D01*
X91990975Y-59705286D01*
X91611214Y-59325525D01*
X91115032Y-59120000D01*
X90577968Y-59120000D01*
X90081786Y-59325525D01*
X89702025Y-59705286D01*
X89652024Y-59825999D01*
X86992600Y-62485424D01*
X86884053Y-62557953D01*
X86596727Y-62987966D01*
X86521300Y-63367164D01*
X86521300Y-63367167D01*
X86495833Y-63495200D01*
X86521300Y-63623233D01*
X86521301Y-69316455D01*
X86471300Y-69437168D01*
X86011000Y-69437168D01*
X86011000Y-57753500D01*
X168558883Y-57753500D01*
X168763810Y-57787609D01*
G36*
X110499999Y-140171966D02*
X110474532Y-140299999D01*
X110499999Y-140428032D01*
X110499999Y-140428035D01*
X110575426Y-140807233D01*
X110862752Y-141237246D01*
X110971299Y-141309775D01*
X111700001Y-142038477D01*
X111700001Y-142583130D01*
X111409199Y-142388823D01*
X110980000Y-142303450D01*
X109677415Y-142303450D01*
X109337816Y-142076537D01*
X108827357Y-141975000D01*
X107093000Y-141975000D01*
X107093000Y-140025000D01*
X108827357Y-140025000D01*
X109337816Y-139923463D01*
X109677415Y-139696550D01*
X110499999Y-139696550D01*
X110499999Y-140171966D01*
X110499999Y-140171966D01*
G37*
X110499999Y-140171966D02*
X110474532Y-140299999D01*
X110499999Y-140428032D01*
X110499999Y-140428035D01*
X110575426Y-140807233D01*
X110862752Y-141237246D01*
X110971299Y-141309775D01*
X111700001Y-142038477D01*
X111700001Y-142583130D01*
X111409199Y-142388823D01*
X110980000Y-142303450D01*
X109677415Y-142303450D01*
X109337816Y-142076537D01*
X108827357Y-141975000D01*
X107093000Y-141975000D01*
X107093000Y-140025000D01*
X108827357Y-140025000D01*
X109337816Y-139923463D01*
X109677415Y-139696550D01*
X110499999Y-139696550D01*
X110499999Y-140171966D01*
G36*
X115303801Y-136522000D02*
X115082284Y-136522000D01*
X114310446Y-136841706D01*
X113719706Y-137432446D01*
X113400000Y-138204284D01*
X113400000Y-138454456D01*
X113268532Y-138400000D01*
X113099999Y-138400000D01*
X113099999Y-136178032D01*
X113125466Y-136049999D01*
X113099999Y-135921966D01*
X113099999Y-135921962D01*
X113024572Y-135542764D01*
X112737246Y-135112752D01*
X112628699Y-135040223D01*
X112382500Y-134794024D01*
X112382500Y-134297643D01*
X112432500Y-134176932D01*
X112432500Y-133639868D01*
X112226975Y-133143686D01*
X111847214Y-132763925D01*
X111351032Y-132558400D01*
X110813968Y-132558400D01*
X110317786Y-132763925D01*
X109938025Y-133143686D01*
X109732500Y-133639868D01*
X109732500Y-134176932D01*
X109782500Y-134297643D01*
X109782500Y-135204467D01*
X109757033Y-135332500D01*
X109781091Y-135453450D01*
X109580000Y-135453450D01*
X109150801Y-135538823D01*
X108786944Y-135781944D01*
X108543823Y-136145801D01*
X108468396Y-136525000D01*
X107093000Y-136525000D01*
X107093000Y-130335617D01*
X107127109Y-130130690D01*
X107179009Y-130034504D01*
X107259267Y-129960314D01*
X107380845Y-129906565D01*
X107515926Y-129889500D01*
X115303801Y-129889500D01*
X115303801Y-136522000D01*
X115303801Y-136522000D01*
G37*
X115303801Y-136522000D02*
X115082284Y-136522000D01*
X114310446Y-136841706D01*
X113719706Y-137432446D01*
X113400000Y-138204284D01*
X113400000Y-138454456D01*
X113268532Y-138400000D01*
X113099999Y-138400000D01*
X113099999Y-136178032D01*
X113125466Y-136049999D01*
X113099999Y-135921966D01*
X113099999Y-135921962D01*
X113024572Y-135542764D01*
X112737246Y-135112752D01*
X112628699Y-135040223D01*
X112382500Y-134794024D01*
X112382500Y-134297643D01*
X112432500Y-134176932D01*
X112432500Y-133639868D01*
X112226975Y-133143686D01*
X111847214Y-132763925D01*
X111351032Y-132558400D01*
X110813968Y-132558400D01*
X110317786Y-132763925D01*
X109938025Y-133143686D01*
X109732500Y-133639868D01*
X109732500Y-134176932D01*
X109782500Y-134297643D01*
X109782500Y-135204467D01*
X109757033Y-135332500D01*
X109781091Y-135453450D01*
X109580000Y-135453450D01*
X109150801Y-135538823D01*
X108786944Y-135781944D01*
X108543823Y-136145801D01*
X108468396Y-136525000D01*
X107093000Y-136525000D01*
X107093000Y-130335617D01*
X107127109Y-130130690D01*
X107179009Y-130034504D01*
X107259267Y-129960314D01*
X107380845Y-129906565D01*
X107515926Y-129889500D01*
X115303801Y-129889500D01*
X115303801Y-136522000D01*
G04 #@! TD*
M02*
