M48
;DRILL file {KiCad (5.0.0)} date 02/18/19 20:12:58
;FORMAT={-:-/ absolute / metric / decimal}
FMAT,2
METRIC,TZ
T1C0.350
T2C1.000
T3C1.100
T4C1.200
%
G90
G05
M71
T1
X129.64Y-71.882
X131.364Y-64.653
X138.958Y-79.858
X138.958Y-82.855
X141.186Y-64.641
X141.867Y-65.327
X141.867Y-67.456
X142.128Y-68.555
X143.408Y-78.08
X146.755Y-58.115
X148.641Y-78.74
X154.045Y-131.945
X159.715Y-128.49
X159.913Y-75.845
X160.62Y-87.833
X162.916Y-69.748
X165.439Y-133.343
X165.643Y-75.749
X165.926Y-142.685
X166.627Y-68.527
X166.768Y-67.484
X167.957Y-142.545
X171.197Y-65.355
X173.474Y-89.865
X173.816Y-125.135
X174.09Y-73.203
X174.09Y-87.224
X175.905Y-131.415
X176.086Y-60.406
X178.219Y-136.47
X178.257Y-71.171
X178.562Y-142.548
X180.961Y-56.82
X186.113Y-70.353
X188.307Y-129.3
X189.224Y-62.866
X191.577Y-68.502
X195.736Y-61.078
X195.736Y-67.787
X204.014Y-80.01
X204.594Y-82.296
X209.849Y-57.017
T2
X182.368Y-65.231
X182.368Y-67.771
X184.908Y-65.231
X184.908Y-67.771
X187.448Y-65.231
X187.448Y-67.771
X189.988Y-65.231
X189.988Y-67.771
X181.8Y-139.
X184.34Y-139.
X186.88Y-139.
X189.42Y-139.
T3
X156.4Y-136.4
X156.4Y-140.9
X162.9Y-136.4
X162.9Y-140.9
T4
X171.2Y-99.8
X171.2Y-119.3
T0
M30
