G04 #@! TF.GenerationSoftware,KiCad,Pcbnew,(5.0.0)*
G04 #@! TF.CreationDate,2019-02-18T20:12:55-05:00*
G04 #@! TF.ProjectId,WS2812B Tiny T,575332383132422054696E7920542E6B,rev?*
G04 #@! TF.SameCoordinates,Original*
G04 #@! TF.FileFunction,Copper,L2,Bot,Signal*
G04 #@! TF.FilePolarity,Positive*
%FSLAX46Y46*%
G04 Gerber Fmt 4.6, Leading zero omitted, Abs format (unit mm)*
G04 Created by KiCad (PCBNEW (5.0.0)) date 02/18/19 20:12:55*
%MOMM*%
%LPD*%
G01*
G04 APERTURE LIST*
G04 #@! TA.AperFunction,ComponentPad*
%ADD10C,2.500000*%
G04 #@! TD*
G04 #@! TA.AperFunction,ComponentPad*
%ADD11O,1.700000X1.700000*%
G04 #@! TD*
G04 #@! TA.AperFunction,ComponentPad*
%ADD12R,1.700000X1.700000*%
G04 #@! TD*
G04 #@! TA.AperFunction,ComponentPad*
%ADD13C,2.000000*%
G04 #@! TD*
G04 #@! TA.AperFunction,ViaPad*
%ADD14C,0.500000*%
G04 #@! TD*
G04 #@! TA.AperFunction,Conductor*
%ADD15C,0.400000*%
G04 #@! TD*
G04 #@! TA.AperFunction,Conductor*
%ADD16C,0.200000*%
G04 #@! TD*
G04 APERTURE END LIST*
D10*
G04 #@! TO.P,J1,1*
G04 #@! TO.N,+BATT*
X171200000Y-99800000D03*
G04 #@! TO.P,J1,2*
G04 #@! TO.N,Net-(J1-Pad2)*
X171200000Y-119300000D03*
G04 #@! TD*
D11*
G04 #@! TO.P,J2,4*
G04 #@! TO.N,GND*
X189420000Y-139000000D03*
G04 #@! TO.P,J2,3*
G04 #@! TO.N,Net-(J1-Pad2)*
X186880000Y-139000000D03*
G04 #@! TO.P,J2,2*
X184340000Y-139000000D03*
D12*
G04 #@! TO.P,J2,1*
X181800000Y-139000000D03*
G04 #@! TD*
D13*
G04 #@! TO.P,SW1,1*
G04 #@! TO.N,BTN*
X162900000Y-136400000D03*
G04 #@! TO.P,SW1,2*
G04 #@! TO.N,GND*
X162900000Y-140900000D03*
G04 #@! TO.P,SW1,1*
G04 #@! TO.N,BTN*
X156400000Y-136400000D03*
G04 #@! TO.P,SW1,2*
G04 #@! TO.N,GND*
X156400000Y-140900000D03*
G04 #@! TD*
D11*
G04 #@! TO.P,J3,8*
G04 #@! TO.N,PB0*
X189988000Y-65231000D03*
G04 #@! TO.P,J3,7*
G04 #@! TO.N,GND*
X189988000Y-67771000D03*
G04 #@! TO.P,J3,6*
G04 #@! TO.N,DIN*
X187448000Y-65231000D03*
G04 #@! TO.P,J3,5*
G04 #@! TO.N,PB4*
X187448000Y-67771000D03*
G04 #@! TO.P,J3,4*
G04 #@! TO.N,BTN*
X184908000Y-65231000D03*
G04 #@! TO.P,J3,3*
G04 #@! TO.N,PB3*
X184908000Y-67771000D03*
G04 #@! TO.P,J3,2*
G04 #@! TO.N,+5V*
X182368000Y-65231000D03*
D12*
G04 #@! TO.P,J3,1*
G04 #@! TO.N,RST*
X182368000Y-67771000D03*
G04 #@! TD*
D14*
G04 #@! TO.N,GND*
X159913100Y-75845300D03*
X165643500Y-75749500D03*
X178219300Y-136470300D03*
X195735700Y-67787200D03*
G04 #@! TO.N,+5V*
X191577500Y-68502300D03*
X186112800Y-70353500D03*
X174089700Y-87223600D03*
X204014200Y-80010000D03*
X174089700Y-73202800D03*
X142128400Y-68554600D03*
X178562000Y-142548300D03*
X167956700Y-142544800D03*
X165925700Y-142684600D03*
X138958000Y-82854800D03*
X138958000Y-79857600D03*
X204594300Y-82296000D03*
X173474300Y-89865200D03*
X160619700Y-87833200D03*
X129639700Y-71882000D03*
X159715200Y-128489600D03*
X180961400Y-56820000D03*
G04 #@! TO.N,DIN*
X141867100Y-65326700D03*
G04 #@! TO.N,Net-(U4-Pad2)*
X146755500Y-58114800D03*
X131364300Y-64653200D03*
G04 #@! TO.N,Net-(U8-Pad2)*
X176085900Y-60405700D03*
X189223500Y-62866200D03*
G04 #@! TO.N,Net-(U10-Pad2)*
X209848800Y-57017500D03*
X195735700Y-61078000D03*
G04 #@! TO.N,Net-(U24-Pad2)*
X188306900Y-129299700D03*
X175905200Y-131414900D03*
G04 #@! TO.N,Net-(U30-Pad2)*
X165439400Y-133342900D03*
X154044800Y-131945300D03*
G04 #@! TO.N,BTN*
X173816100Y-125134900D03*
X171197500Y-65354700D03*
X141867100Y-67455800D03*
G04 #@! TO.N,Net-(U39-Pad2)*
X143408400Y-78079600D03*
X148640800Y-78740000D03*
G04 #@! TO.N,PB3*
X166626600Y-68527300D03*
G04 #@! TO.N,PB4*
X166768000Y-67484300D03*
G04 #@! TO.N,PB0*
X141186000Y-64641500D03*
G04 #@! TO.N,RST*
X162915600Y-69748400D03*
X178257200Y-71170800D03*
G04 #@! TD*
D15*
G04 #@! TO.N,GND*
X165643500Y-75749500D02*
X160008900Y-75749500D01*
X160008900Y-75749500D02*
X159913100Y-75845300D01*
X189420000Y-139000000D02*
X188159700Y-139000000D01*
X188159700Y-139000000D02*
X188159700Y-138448600D01*
X188159700Y-138448600D02*
X186181400Y-136470300D01*
X186181400Y-136470300D02*
X178219300Y-136470300D01*
X189988000Y-67771000D02*
X191248300Y-67771000D01*
X195735700Y-67787200D02*
X191264500Y-67787200D01*
X191264500Y-67787200D02*
X191248300Y-67771000D01*
X156400000Y-140900000D02*
X162900000Y-140900000D01*
G04 #@! TO.N,+5V*
X186112800Y-70353500D02*
X189726300Y-70353500D01*
X189726300Y-70353500D02*
X191577500Y-68502300D01*
G04 #@! TO.N,DIN*
X187448000Y-65231000D02*
X186187700Y-65231000D01*
X141867100Y-65326700D02*
X143241400Y-63952400D01*
X143241400Y-63952400D02*
X185431400Y-63952400D01*
X185431400Y-63952400D02*
X186187700Y-64708700D01*
X186187700Y-64708700D02*
X186187700Y-65231000D01*
G04 #@! TO.N,Net-(U4-Pad2)*
X131364300Y-64653200D02*
X137902700Y-58114800D01*
X137902700Y-58114800D02*
X146755500Y-58114800D01*
G04 #@! TO.N,Net-(U8-Pad2)*
X189223500Y-62866200D02*
X186763000Y-60405700D01*
X186763000Y-60405700D02*
X176085900Y-60405700D01*
G04 #@! TO.N,Net-(U10-Pad2)*
X195735700Y-61078000D02*
X205788300Y-61078000D01*
X205788300Y-61078000D02*
X209848800Y-57017500D01*
G04 #@! TO.N,Net-(U24-Pad2)*
X175905200Y-131414900D02*
X186191700Y-131414900D01*
X186191700Y-131414900D02*
X188306900Y-129299700D01*
G04 #@! TO.N,Net-(U30-Pad2)*
X154044800Y-131945300D02*
X155442400Y-133342900D01*
X155442400Y-133342900D02*
X165439400Y-133342900D01*
G04 #@! TO.N,Net-(J1-Pad2)*
X184340000Y-139000000D02*
X186880000Y-139000000D01*
X181800000Y-139000000D02*
X184340000Y-139000000D01*
G04 #@! TO.N,BTN*
X162900000Y-136400000D02*
X163316100Y-136400000D01*
X163316100Y-136400000D02*
X173816100Y-125900000D01*
X173816100Y-125900000D02*
X173816100Y-125134900D01*
X171197500Y-66491300D02*
X142831600Y-66491300D01*
X142831600Y-66491300D02*
X141867100Y-67455800D01*
X183647700Y-65231000D02*
X183647700Y-65782500D01*
X183647700Y-65782500D02*
X182938900Y-66491300D01*
X182938900Y-66491300D02*
X171197500Y-66491300D01*
X171197500Y-66491300D02*
X171197500Y-65354700D01*
X156400000Y-136400000D02*
X162900000Y-136400000D01*
X184908000Y-65231000D02*
X183647700Y-65231000D01*
G04 #@! TO.N,Net-(U39-Pad2)*
X143658399Y-78329599D02*
X145029999Y-78329599D01*
X143408400Y-78079600D02*
X143658399Y-78329599D01*
X145029999Y-78329599D02*
X145034000Y-78333600D01*
X145034000Y-78333600D02*
X148234400Y-78333600D01*
X148234400Y-78333600D02*
X148640800Y-78740000D01*
G04 #@! TO.N,PB3*
X184908000Y-67771000D02*
X183647700Y-67771000D01*
X166626600Y-68527300D02*
X167130700Y-69031400D01*
X167130700Y-69031400D02*
X183463100Y-69031400D01*
X183463100Y-69031400D02*
X183647700Y-68846800D01*
X183647700Y-68846800D02*
X183647700Y-67771000D01*
G04 #@! TO.N,PB4*
X187448000Y-67771000D02*
X186187700Y-67771000D01*
X186187700Y-67771000D02*
X186187700Y-68322400D01*
X186187700Y-68322400D02*
X184846500Y-69663600D01*
X184846500Y-69663600D02*
X166812600Y-69663600D01*
X166812600Y-69663600D02*
X165966200Y-68817200D01*
X165966200Y-68817200D02*
X165966200Y-68248500D01*
X165966200Y-68248500D02*
X166730400Y-67484300D01*
X166730400Y-67484300D02*
X166768000Y-67484300D01*
G04 #@! TO.N,PB0*
X141186000Y-64641500D02*
X142487900Y-63339600D01*
X142487900Y-63339600D02*
X187387700Y-63339600D01*
X187387700Y-63339600D02*
X188727700Y-64679600D01*
X188727700Y-64679600D02*
X188727700Y-65231000D01*
X189988000Y-65231000D02*
X188727700Y-65231000D01*
G04 #@! TO.N,RST*
X162915600Y-69748400D02*
X164592000Y-69748400D01*
X164592000Y-69748400D02*
X166014400Y-71170800D01*
X166014400Y-71170800D02*
X178257200Y-71170800D01*
G04 #@! TD*
D16*
G04 #@! TO.N,+5V*
G36*
X212451810Y-55565109D02*
X212547996Y-55617009D01*
X212622186Y-55697267D01*
X212675935Y-55818845D01*
X212693000Y-55953926D01*
X212693001Y-87278878D01*
X212658891Y-87483810D01*
X212606991Y-87579997D01*
X212526734Y-87654185D01*
X212405155Y-87707935D01*
X212270074Y-87725000D01*
X191675000Y-87725000D01*
X191675000Y-77585724D01*
X191698019Y-77470000D01*
X191606825Y-77011538D01*
X191347127Y-76622873D01*
X190958462Y-76363175D01*
X190615724Y-76295000D01*
X190500000Y-76271981D01*
X190384276Y-76295000D01*
X182995724Y-76295000D01*
X182880000Y-76271981D01*
X182764276Y-76295000D01*
X182421538Y-76363175D01*
X182032873Y-76622873D01*
X181773175Y-77011538D01*
X181681981Y-77470000D01*
X181705000Y-77585724D01*
X181705001Y-126376271D01*
X181681981Y-126492000D01*
X181773175Y-126950462D01*
X182032873Y-127339127D01*
X182421538Y-127598825D01*
X182764276Y-127667000D01*
X182880000Y-127690019D01*
X182995724Y-127667000D01*
X191418883Y-127667000D01*
X191623810Y-127701109D01*
X191719996Y-127753009D01*
X191794186Y-127833267D01*
X191847935Y-127954845D01*
X191865000Y-128089926D01*
X191865001Y-148741197D01*
X191842238Y-148870292D01*
X191828890Y-148893412D01*
X191808436Y-148910574D01*
X191734021Y-148937659D01*
X191718697Y-148939000D01*
X151227116Y-148939000D01*
X151022190Y-148904891D01*
X150926003Y-148852991D01*
X150851815Y-148772734D01*
X150798065Y-148651155D01*
X150781000Y-148516074D01*
X150781000Y-140482284D01*
X154300000Y-140482284D01*
X154300000Y-141317716D01*
X154619706Y-142089554D01*
X155210446Y-142680294D01*
X155982284Y-143000000D01*
X156817716Y-143000000D01*
X157589554Y-142680294D01*
X158069848Y-142200000D01*
X161230152Y-142200000D01*
X161710446Y-142680294D01*
X162482284Y-143000000D01*
X163317716Y-143000000D01*
X164089554Y-142680294D01*
X164680294Y-142089554D01*
X165000000Y-141317716D01*
X165000000Y-140482284D01*
X164680294Y-139710446D01*
X164089554Y-139119706D01*
X163317716Y-138800000D01*
X162482284Y-138800000D01*
X161710446Y-139119706D01*
X161230152Y-139600000D01*
X158069848Y-139600000D01*
X157589554Y-139119706D01*
X156817716Y-138800000D01*
X155982284Y-138800000D01*
X155210446Y-139119706D01*
X154619706Y-139710446D01*
X154300000Y-140482284D01*
X150781000Y-140482284D01*
X150781000Y-131676768D01*
X152694800Y-131676768D01*
X152694800Y-132213832D01*
X152900325Y-132710014D01*
X153280086Y-133089775D01*
X153400800Y-133139776D01*
X154432626Y-134171602D01*
X154505153Y-134280147D01*
X154935165Y-134567473D01*
X155208341Y-134621811D01*
X154619706Y-135210446D01*
X154300000Y-135982284D01*
X154300000Y-136817716D01*
X154619706Y-137589554D01*
X155210446Y-138180294D01*
X155982284Y-138500000D01*
X156817716Y-138500000D01*
X157589554Y-138180294D01*
X158069848Y-137700000D01*
X161230152Y-137700000D01*
X161710446Y-138180294D01*
X162482284Y-138500000D01*
X163317716Y-138500000D01*
X164089554Y-138180294D01*
X164680294Y-137589554D01*
X165000000Y-136817716D01*
X165000000Y-136554576D01*
X165352808Y-136201768D01*
X176869300Y-136201768D01*
X176869300Y-136738832D01*
X177074825Y-137235014D01*
X177454586Y-137614775D01*
X177950768Y-137820300D01*
X178487832Y-137820300D01*
X178608543Y-137770300D01*
X179903977Y-137770300D01*
X179828450Y-138150000D01*
X179828450Y-139850000D01*
X179913823Y-140279199D01*
X180156944Y-140643056D01*
X180520801Y-140886177D01*
X180950000Y-140971550D01*
X182650000Y-140971550D01*
X183079199Y-140886177D01*
X183366079Y-140694491D01*
X183579148Y-140836859D01*
X184147946Y-140950000D01*
X184532054Y-140950000D01*
X185100852Y-140836859D01*
X185610000Y-140496657D01*
X186119148Y-140836859D01*
X186687946Y-140950000D01*
X187072054Y-140950000D01*
X187640852Y-140836859D01*
X188150000Y-140496657D01*
X188659148Y-140836859D01*
X189227946Y-140950000D01*
X189612054Y-140950000D01*
X190180852Y-140836859D01*
X190825871Y-140405871D01*
X191256859Y-139760852D01*
X191408202Y-139000000D01*
X191256859Y-138239148D01*
X190825871Y-137594129D01*
X190180852Y-137163141D01*
X189612054Y-137050000D01*
X189227946Y-137050000D01*
X188703830Y-137154253D01*
X187191176Y-135641600D01*
X187118647Y-135533053D01*
X186688635Y-135245727D01*
X186309437Y-135170300D01*
X186309433Y-135170300D01*
X186181400Y-135144833D01*
X186053367Y-135170300D01*
X178608543Y-135170300D01*
X178487832Y-135120300D01*
X177950768Y-135120300D01*
X177454586Y-135325825D01*
X177074825Y-135705586D01*
X176869300Y-136201768D01*
X165352808Y-136201768D01*
X170408209Y-131146368D01*
X174555200Y-131146368D01*
X174555200Y-131683432D01*
X174760725Y-132179614D01*
X175140486Y-132559375D01*
X175636668Y-132764900D01*
X176173732Y-132764900D01*
X176294443Y-132714900D01*
X186063667Y-132714900D01*
X186191700Y-132740367D01*
X186319733Y-132714900D01*
X186319737Y-132714900D01*
X186698935Y-132639473D01*
X187128947Y-132352147D01*
X187201476Y-132243600D01*
X188950901Y-130494176D01*
X189071614Y-130444175D01*
X189451375Y-130064414D01*
X189656900Y-129568232D01*
X189656900Y-129031168D01*
X189451375Y-128534986D01*
X189071614Y-128155225D01*
X188575432Y-127949700D01*
X188038368Y-127949700D01*
X187542186Y-128155225D01*
X187162425Y-128534986D01*
X187112424Y-128655699D01*
X185653224Y-130114900D01*
X176294443Y-130114900D01*
X176173732Y-130064900D01*
X175636668Y-130064900D01*
X175140486Y-130270425D01*
X174760725Y-130650186D01*
X174555200Y-131146368D01*
X170408209Y-131146368D01*
X174644806Y-126909772D01*
X174753347Y-126837247D01*
X174825872Y-126728706D01*
X174825874Y-126728704D01*
X174955142Y-126535240D01*
X175040673Y-126407235D01*
X175116100Y-126028037D01*
X175116100Y-126028032D01*
X175141567Y-125900001D01*
X175116100Y-125771969D01*
X175116100Y-125524143D01*
X175166100Y-125403432D01*
X175166100Y-124866368D01*
X174960575Y-124370186D01*
X174580814Y-123990425D01*
X174084632Y-123784900D01*
X173547568Y-123784900D01*
X173051386Y-123990425D01*
X172671625Y-124370186D01*
X172466100Y-124866368D01*
X172466100Y-125403432D01*
X172468470Y-125409153D01*
X165832942Y-132044681D01*
X165707932Y-131992900D01*
X165170868Y-131992900D01*
X165050157Y-132042900D01*
X155980877Y-132042900D01*
X155239276Y-131301300D01*
X155189275Y-131180586D01*
X154809514Y-130800825D01*
X154313332Y-130595300D01*
X153776268Y-130595300D01*
X153280086Y-130800825D01*
X152900325Y-131180586D01*
X152694800Y-131676768D01*
X150781000Y-131676768D01*
X150781000Y-128113117D01*
X150815109Y-127908190D01*
X150867009Y-127812004D01*
X150947267Y-127737814D01*
X151068845Y-127684065D01*
X151203926Y-127667000D01*
X159396276Y-127667000D01*
X159512000Y-127690019D01*
X159627724Y-127667000D01*
X159970462Y-127598825D01*
X160359127Y-127339127D01*
X160618825Y-126950462D01*
X160710019Y-126492000D01*
X160687000Y-126376276D01*
X160687000Y-118832556D01*
X168850000Y-118832556D01*
X168850000Y-119767444D01*
X169207766Y-120631168D01*
X169868832Y-121292234D01*
X170732556Y-121650000D01*
X171667444Y-121650000D01*
X172531168Y-121292234D01*
X173192234Y-120631168D01*
X173550000Y-119767444D01*
X173550000Y-118832556D01*
X173192234Y-117968832D01*
X172531168Y-117307766D01*
X171667444Y-116950000D01*
X170732556Y-116950000D01*
X169868832Y-117307766D01*
X169207766Y-117968832D01*
X168850000Y-118832556D01*
X160687000Y-118832556D01*
X160687000Y-99332556D01*
X168850000Y-99332556D01*
X168850000Y-100267444D01*
X169207766Y-101131168D01*
X169868832Y-101792234D01*
X170732556Y-102150000D01*
X171667444Y-102150000D01*
X172531168Y-101792234D01*
X173192234Y-101131168D01*
X173550000Y-100267444D01*
X173550000Y-99332556D01*
X173192234Y-98468832D01*
X172531168Y-97807766D01*
X171667444Y-97450000D01*
X170732556Y-97450000D01*
X169868832Y-97807766D01*
X169207766Y-98468832D01*
X168850000Y-99332556D01*
X160687000Y-99332556D01*
X160687000Y-77585724D01*
X160710019Y-77470000D01*
X160626376Y-77049500D01*
X165254257Y-77049500D01*
X165374968Y-77099500D01*
X165912032Y-77099500D01*
X166408214Y-76893975D01*
X166787975Y-76514214D01*
X166993500Y-76018032D01*
X166993500Y-75480968D01*
X166787975Y-74984786D01*
X166408214Y-74605025D01*
X165912032Y-74399500D01*
X165374968Y-74399500D01*
X165254257Y-74449500D01*
X160136933Y-74449500D01*
X160008900Y-74424033D01*
X159880867Y-74449500D01*
X159880863Y-74449500D01*
X159650610Y-74495300D01*
X159644568Y-74495300D01*
X159638986Y-74497612D01*
X159501665Y-74524927D01*
X159385252Y-74602712D01*
X159148386Y-74700825D01*
X158768625Y-75080586D01*
X158563100Y-75576768D01*
X158563100Y-76113832D01*
X158638142Y-76295000D01*
X152007724Y-76295000D01*
X151892000Y-76271981D01*
X151776276Y-76295000D01*
X151433538Y-76363175D01*
X151044873Y-76622873D01*
X150785175Y-77011538D01*
X150693981Y-77470000D01*
X150717000Y-77585724D01*
X150717001Y-87725000D01*
X130145116Y-87725000D01*
X129940190Y-87690891D01*
X129844003Y-87638991D01*
X129769815Y-87558734D01*
X129716065Y-87437155D01*
X129699000Y-87302074D01*
X129699000Y-77811068D01*
X142058400Y-77811068D01*
X142058400Y-78348132D01*
X142263925Y-78844314D01*
X142643686Y-79224075D01*
X142711282Y-79252074D01*
X142721152Y-79266846D01*
X143151164Y-79554172D01*
X143530362Y-79629599D01*
X143530366Y-79629599D01*
X143658399Y-79655066D01*
X143786432Y-79629599D01*
X144885849Y-79629599D01*
X144905963Y-79633600D01*
X144905968Y-79633600D01*
X145033999Y-79659067D01*
X145162031Y-79633600D01*
X147625211Y-79633600D01*
X147876086Y-79884475D01*
X148372268Y-80090000D01*
X148909332Y-80090000D01*
X149405514Y-79884475D01*
X149785275Y-79504714D01*
X149990800Y-79008532D01*
X149990800Y-78471468D01*
X149785275Y-77975286D01*
X149405514Y-77595525D01*
X149284800Y-77545524D01*
X149244176Y-77504899D01*
X149171647Y-77396353D01*
X148741635Y-77109027D01*
X148362437Y-77033600D01*
X148362433Y-77033600D01*
X148234400Y-77008133D01*
X148106367Y-77033600D01*
X145178150Y-77033600D01*
X145158036Y-77029599D01*
X145158032Y-77029599D01*
X145029999Y-77004132D01*
X144901966Y-77029599D01*
X144267588Y-77029599D01*
X144173114Y-76935125D01*
X143676932Y-76729600D01*
X143139868Y-76729600D01*
X142643686Y-76935125D01*
X142263925Y-77314886D01*
X142058400Y-77811068D01*
X129699000Y-77811068D01*
X129699000Y-64384668D01*
X130014300Y-64384668D01*
X130014300Y-64921732D01*
X130219825Y-65417914D01*
X130599586Y-65797675D01*
X131095768Y-66003200D01*
X131632832Y-66003200D01*
X132129014Y-65797675D01*
X132508775Y-65417914D01*
X132558776Y-65297200D01*
X133483008Y-64372968D01*
X139836000Y-64372968D01*
X139836000Y-64910032D01*
X140041525Y-65406214D01*
X140421286Y-65785975D01*
X140632315Y-65873386D01*
X140722625Y-66091414D01*
X141022461Y-66391250D01*
X140722625Y-66691086D01*
X140517100Y-67187268D01*
X140517100Y-67724332D01*
X140722625Y-68220514D01*
X141102386Y-68600275D01*
X141598568Y-68805800D01*
X142135632Y-68805800D01*
X142631814Y-68600275D01*
X143011575Y-68220514D01*
X143061576Y-68099800D01*
X143370077Y-67791300D01*
X164731674Y-67791300D01*
X164666200Y-68120463D01*
X164666200Y-68120467D01*
X164640733Y-68248500D01*
X164666200Y-68376533D01*
X164666200Y-68437692D01*
X164592000Y-68422933D01*
X164463967Y-68448400D01*
X163304843Y-68448400D01*
X163184132Y-68398400D01*
X162647068Y-68398400D01*
X162150886Y-68603925D01*
X161771125Y-68983686D01*
X161565600Y-69479868D01*
X161565600Y-70016932D01*
X161771125Y-70513114D01*
X162150886Y-70892875D01*
X162647068Y-71098400D01*
X163184132Y-71098400D01*
X163304843Y-71048400D01*
X164053523Y-71048400D01*
X165004627Y-71999505D01*
X165077153Y-72108047D01*
X165185694Y-72180572D01*
X165185696Y-72180574D01*
X165305160Y-72260397D01*
X165507165Y-72395373D01*
X165886363Y-72470800D01*
X165886368Y-72470800D01*
X166014399Y-72496267D01*
X166142431Y-72470800D01*
X177867957Y-72470800D01*
X177988668Y-72520800D01*
X178525732Y-72520800D01*
X179021914Y-72315275D01*
X179401675Y-71935514D01*
X179607200Y-71439332D01*
X179607200Y-70963600D01*
X184718467Y-70963600D01*
X184846500Y-70989067D01*
X184974533Y-70963600D01*
X184974537Y-70963600D01*
X185353735Y-70888173D01*
X185783747Y-70600847D01*
X185856276Y-70492300D01*
X186731830Y-69616747D01*
X187255946Y-69721000D01*
X187640054Y-69721000D01*
X188208852Y-69607859D01*
X188718000Y-69267657D01*
X189227148Y-69607859D01*
X189795946Y-69721000D01*
X190180054Y-69721000D01*
X190748852Y-69607859D01*
X191393871Y-69176871D01*
X191453787Y-69087200D01*
X195346457Y-69087200D01*
X195467168Y-69137200D01*
X196004232Y-69137200D01*
X196500414Y-68931675D01*
X196880175Y-68551914D01*
X197085700Y-68055732D01*
X197085700Y-67518668D01*
X196880175Y-67022486D01*
X196500414Y-66642725D01*
X196004232Y-66437200D01*
X195467168Y-66437200D01*
X195346457Y-66487200D01*
X191493878Y-66487200D01*
X191824859Y-65991852D01*
X191976202Y-65231000D01*
X191824859Y-64470148D01*
X191393871Y-63825129D01*
X190748852Y-63394141D01*
X190487576Y-63342170D01*
X190573500Y-63134732D01*
X190573500Y-62597668D01*
X190367975Y-62101486D01*
X189988214Y-61721725D01*
X189867502Y-61671725D01*
X189005245Y-60809468D01*
X194385700Y-60809468D01*
X194385700Y-61346532D01*
X194591225Y-61842714D01*
X194970986Y-62222475D01*
X195467168Y-62428000D01*
X196004232Y-62428000D01*
X196124943Y-62378000D01*
X205660267Y-62378000D01*
X205788300Y-62403467D01*
X205916333Y-62378000D01*
X205916337Y-62378000D01*
X206295535Y-62302573D01*
X206725547Y-62015247D01*
X206798076Y-61906700D01*
X210492803Y-58211975D01*
X210613514Y-58161975D01*
X210993275Y-57782214D01*
X211198800Y-57286032D01*
X211198800Y-56748968D01*
X210993275Y-56252786D01*
X210613514Y-55873025D01*
X210117332Y-55667500D01*
X209580268Y-55667500D01*
X209084086Y-55873025D01*
X208704325Y-56252786D01*
X208654325Y-56373497D01*
X205249824Y-59778000D01*
X196124943Y-59778000D01*
X196004232Y-59728000D01*
X195467168Y-59728000D01*
X194970986Y-59933525D01*
X194591225Y-60313286D01*
X194385700Y-60809468D01*
X189005245Y-60809468D01*
X187772776Y-59577000D01*
X187700247Y-59468453D01*
X187270235Y-59181127D01*
X186891037Y-59105700D01*
X186891033Y-59105700D01*
X186763000Y-59080233D01*
X186634967Y-59105700D01*
X176475143Y-59105700D01*
X176354432Y-59055700D01*
X175817368Y-59055700D01*
X175321186Y-59261225D01*
X174941425Y-59640986D01*
X174735900Y-60137168D01*
X174735900Y-60674232D01*
X174941425Y-61170414D01*
X175321186Y-61550175D01*
X175817368Y-61755700D01*
X176354432Y-61755700D01*
X176475143Y-61705700D01*
X186224524Y-61705700D01*
X186558423Y-62039600D01*
X142615933Y-62039600D01*
X142487900Y-62014133D01*
X142359867Y-62039600D01*
X142359863Y-62039600D01*
X141980665Y-62115027D01*
X141550653Y-62402353D01*
X141478126Y-62510898D01*
X140542000Y-63447024D01*
X140421286Y-63497025D01*
X140041525Y-63876786D01*
X139836000Y-64372968D01*
X133483008Y-64372968D01*
X138441177Y-59414800D01*
X146366257Y-59414800D01*
X146486968Y-59464800D01*
X147024032Y-59464800D01*
X147520214Y-59259275D01*
X147899975Y-58879514D01*
X148105500Y-58383332D01*
X148105500Y-57846268D01*
X147899975Y-57350086D01*
X147520214Y-56970325D01*
X147024032Y-56764800D01*
X146486968Y-56764800D01*
X146366257Y-56814800D01*
X138030733Y-56814800D01*
X137902700Y-56789333D01*
X137774667Y-56814800D01*
X137774663Y-56814800D01*
X137395465Y-56890227D01*
X136965453Y-57177553D01*
X136892926Y-57286097D01*
X130720300Y-63458724D01*
X130599586Y-63508725D01*
X130219825Y-63888486D01*
X130014300Y-64384668D01*
X129699000Y-64384668D01*
X129699000Y-55531000D01*
X212246883Y-55531000D01*
X212451810Y-55565109D01*
X212451810Y-55565109D01*
G37*
X212451810Y-55565109D02*
X212547996Y-55617009D01*
X212622186Y-55697267D01*
X212675935Y-55818845D01*
X212693000Y-55953926D01*
X212693001Y-87278878D01*
X212658891Y-87483810D01*
X212606991Y-87579997D01*
X212526734Y-87654185D01*
X212405155Y-87707935D01*
X212270074Y-87725000D01*
X191675000Y-87725000D01*
X191675000Y-77585724D01*
X191698019Y-77470000D01*
X191606825Y-77011538D01*
X191347127Y-76622873D01*
X190958462Y-76363175D01*
X190615724Y-76295000D01*
X190500000Y-76271981D01*
X190384276Y-76295000D01*
X182995724Y-76295000D01*
X182880000Y-76271981D01*
X182764276Y-76295000D01*
X182421538Y-76363175D01*
X182032873Y-76622873D01*
X181773175Y-77011538D01*
X181681981Y-77470000D01*
X181705000Y-77585724D01*
X181705001Y-126376271D01*
X181681981Y-126492000D01*
X181773175Y-126950462D01*
X182032873Y-127339127D01*
X182421538Y-127598825D01*
X182764276Y-127667000D01*
X182880000Y-127690019D01*
X182995724Y-127667000D01*
X191418883Y-127667000D01*
X191623810Y-127701109D01*
X191719996Y-127753009D01*
X191794186Y-127833267D01*
X191847935Y-127954845D01*
X191865000Y-128089926D01*
X191865001Y-148741197D01*
X191842238Y-148870292D01*
X191828890Y-148893412D01*
X191808436Y-148910574D01*
X191734021Y-148937659D01*
X191718697Y-148939000D01*
X151227116Y-148939000D01*
X151022190Y-148904891D01*
X150926003Y-148852991D01*
X150851815Y-148772734D01*
X150798065Y-148651155D01*
X150781000Y-148516074D01*
X150781000Y-140482284D01*
X154300000Y-140482284D01*
X154300000Y-141317716D01*
X154619706Y-142089554D01*
X155210446Y-142680294D01*
X155982284Y-143000000D01*
X156817716Y-143000000D01*
X157589554Y-142680294D01*
X158069848Y-142200000D01*
X161230152Y-142200000D01*
X161710446Y-142680294D01*
X162482284Y-143000000D01*
X163317716Y-143000000D01*
X164089554Y-142680294D01*
X164680294Y-142089554D01*
X165000000Y-141317716D01*
X165000000Y-140482284D01*
X164680294Y-139710446D01*
X164089554Y-139119706D01*
X163317716Y-138800000D01*
X162482284Y-138800000D01*
X161710446Y-139119706D01*
X161230152Y-139600000D01*
X158069848Y-139600000D01*
X157589554Y-139119706D01*
X156817716Y-138800000D01*
X155982284Y-138800000D01*
X155210446Y-139119706D01*
X154619706Y-139710446D01*
X154300000Y-140482284D01*
X150781000Y-140482284D01*
X150781000Y-131676768D01*
X152694800Y-131676768D01*
X152694800Y-132213832D01*
X152900325Y-132710014D01*
X153280086Y-133089775D01*
X153400800Y-133139776D01*
X154432626Y-134171602D01*
X154505153Y-134280147D01*
X154935165Y-134567473D01*
X155208341Y-134621811D01*
X154619706Y-135210446D01*
X154300000Y-135982284D01*
X154300000Y-136817716D01*
X154619706Y-137589554D01*
X155210446Y-138180294D01*
X155982284Y-138500000D01*
X156817716Y-138500000D01*
X157589554Y-138180294D01*
X158069848Y-137700000D01*
X161230152Y-137700000D01*
X161710446Y-138180294D01*
X162482284Y-138500000D01*
X163317716Y-138500000D01*
X164089554Y-138180294D01*
X164680294Y-137589554D01*
X165000000Y-136817716D01*
X165000000Y-136554576D01*
X165352808Y-136201768D01*
X176869300Y-136201768D01*
X176869300Y-136738832D01*
X177074825Y-137235014D01*
X177454586Y-137614775D01*
X177950768Y-137820300D01*
X178487832Y-137820300D01*
X178608543Y-137770300D01*
X179903977Y-137770300D01*
X179828450Y-138150000D01*
X179828450Y-139850000D01*
X179913823Y-140279199D01*
X180156944Y-140643056D01*
X180520801Y-140886177D01*
X180950000Y-140971550D01*
X182650000Y-140971550D01*
X183079199Y-140886177D01*
X183366079Y-140694491D01*
X183579148Y-140836859D01*
X184147946Y-140950000D01*
X184532054Y-140950000D01*
X185100852Y-140836859D01*
X185610000Y-140496657D01*
X186119148Y-140836859D01*
X186687946Y-140950000D01*
X187072054Y-140950000D01*
X187640852Y-140836859D01*
X188150000Y-140496657D01*
X188659148Y-140836859D01*
X189227946Y-140950000D01*
X189612054Y-140950000D01*
X190180852Y-140836859D01*
X190825871Y-140405871D01*
X191256859Y-139760852D01*
X191408202Y-139000000D01*
X191256859Y-138239148D01*
X190825871Y-137594129D01*
X190180852Y-137163141D01*
X189612054Y-137050000D01*
X189227946Y-137050000D01*
X188703830Y-137154253D01*
X187191176Y-135641600D01*
X187118647Y-135533053D01*
X186688635Y-135245727D01*
X186309437Y-135170300D01*
X186309433Y-135170300D01*
X186181400Y-135144833D01*
X186053367Y-135170300D01*
X178608543Y-135170300D01*
X178487832Y-135120300D01*
X177950768Y-135120300D01*
X177454586Y-135325825D01*
X177074825Y-135705586D01*
X176869300Y-136201768D01*
X165352808Y-136201768D01*
X170408209Y-131146368D01*
X174555200Y-131146368D01*
X174555200Y-131683432D01*
X174760725Y-132179614D01*
X175140486Y-132559375D01*
X175636668Y-132764900D01*
X176173732Y-132764900D01*
X176294443Y-132714900D01*
X186063667Y-132714900D01*
X186191700Y-132740367D01*
X186319733Y-132714900D01*
X186319737Y-132714900D01*
X186698935Y-132639473D01*
X187128947Y-132352147D01*
X187201476Y-132243600D01*
X188950901Y-130494176D01*
X189071614Y-130444175D01*
X189451375Y-130064414D01*
X189656900Y-129568232D01*
X189656900Y-129031168D01*
X189451375Y-128534986D01*
X189071614Y-128155225D01*
X188575432Y-127949700D01*
X188038368Y-127949700D01*
X187542186Y-128155225D01*
X187162425Y-128534986D01*
X187112424Y-128655699D01*
X185653224Y-130114900D01*
X176294443Y-130114900D01*
X176173732Y-130064900D01*
X175636668Y-130064900D01*
X175140486Y-130270425D01*
X174760725Y-130650186D01*
X174555200Y-131146368D01*
X170408209Y-131146368D01*
X174644806Y-126909772D01*
X174753347Y-126837247D01*
X174825872Y-126728706D01*
X174825874Y-126728704D01*
X174955142Y-126535240D01*
X175040673Y-126407235D01*
X175116100Y-126028037D01*
X175116100Y-126028032D01*
X175141567Y-125900001D01*
X175116100Y-125771969D01*
X175116100Y-125524143D01*
X175166100Y-125403432D01*
X175166100Y-124866368D01*
X174960575Y-124370186D01*
X174580814Y-123990425D01*
X174084632Y-123784900D01*
X173547568Y-123784900D01*
X173051386Y-123990425D01*
X172671625Y-124370186D01*
X172466100Y-124866368D01*
X172466100Y-125403432D01*
X172468470Y-125409153D01*
X165832942Y-132044681D01*
X165707932Y-131992900D01*
X165170868Y-131992900D01*
X165050157Y-132042900D01*
X155980877Y-132042900D01*
X155239276Y-131301300D01*
X155189275Y-131180586D01*
X154809514Y-130800825D01*
X154313332Y-130595300D01*
X153776268Y-130595300D01*
X153280086Y-130800825D01*
X152900325Y-131180586D01*
X152694800Y-131676768D01*
X150781000Y-131676768D01*
X150781000Y-128113117D01*
X150815109Y-127908190D01*
X150867009Y-127812004D01*
X150947267Y-127737814D01*
X151068845Y-127684065D01*
X151203926Y-127667000D01*
X159396276Y-127667000D01*
X159512000Y-127690019D01*
X159627724Y-127667000D01*
X159970462Y-127598825D01*
X160359127Y-127339127D01*
X160618825Y-126950462D01*
X160710019Y-126492000D01*
X160687000Y-126376276D01*
X160687000Y-118832556D01*
X168850000Y-118832556D01*
X168850000Y-119767444D01*
X169207766Y-120631168D01*
X169868832Y-121292234D01*
X170732556Y-121650000D01*
X171667444Y-121650000D01*
X172531168Y-121292234D01*
X173192234Y-120631168D01*
X173550000Y-119767444D01*
X173550000Y-118832556D01*
X173192234Y-117968832D01*
X172531168Y-117307766D01*
X171667444Y-116950000D01*
X170732556Y-116950000D01*
X169868832Y-117307766D01*
X169207766Y-117968832D01*
X168850000Y-118832556D01*
X160687000Y-118832556D01*
X160687000Y-99332556D01*
X168850000Y-99332556D01*
X168850000Y-100267444D01*
X169207766Y-101131168D01*
X169868832Y-101792234D01*
X170732556Y-102150000D01*
X171667444Y-102150000D01*
X172531168Y-101792234D01*
X173192234Y-101131168D01*
X173550000Y-100267444D01*
X173550000Y-99332556D01*
X173192234Y-98468832D01*
X172531168Y-97807766D01*
X171667444Y-97450000D01*
X170732556Y-97450000D01*
X169868832Y-97807766D01*
X169207766Y-98468832D01*
X168850000Y-99332556D01*
X160687000Y-99332556D01*
X160687000Y-77585724D01*
X160710019Y-77470000D01*
X160626376Y-77049500D01*
X165254257Y-77049500D01*
X165374968Y-77099500D01*
X165912032Y-77099500D01*
X166408214Y-76893975D01*
X166787975Y-76514214D01*
X166993500Y-76018032D01*
X166993500Y-75480968D01*
X166787975Y-74984786D01*
X166408214Y-74605025D01*
X165912032Y-74399500D01*
X165374968Y-74399500D01*
X165254257Y-74449500D01*
X160136933Y-74449500D01*
X160008900Y-74424033D01*
X159880867Y-74449500D01*
X159880863Y-74449500D01*
X159650610Y-74495300D01*
X159644568Y-74495300D01*
X159638986Y-74497612D01*
X159501665Y-74524927D01*
X159385252Y-74602712D01*
X159148386Y-74700825D01*
X158768625Y-75080586D01*
X158563100Y-75576768D01*
X158563100Y-76113832D01*
X158638142Y-76295000D01*
X152007724Y-76295000D01*
X151892000Y-76271981D01*
X151776276Y-76295000D01*
X151433538Y-76363175D01*
X151044873Y-76622873D01*
X150785175Y-77011538D01*
X150693981Y-77470000D01*
X150717000Y-77585724D01*
X150717001Y-87725000D01*
X130145116Y-87725000D01*
X129940190Y-87690891D01*
X129844003Y-87638991D01*
X129769815Y-87558734D01*
X129716065Y-87437155D01*
X129699000Y-87302074D01*
X129699000Y-77811068D01*
X142058400Y-77811068D01*
X142058400Y-78348132D01*
X142263925Y-78844314D01*
X142643686Y-79224075D01*
X142711282Y-79252074D01*
X142721152Y-79266846D01*
X143151164Y-79554172D01*
X143530362Y-79629599D01*
X143530366Y-79629599D01*
X143658399Y-79655066D01*
X143786432Y-79629599D01*
X144885849Y-79629599D01*
X144905963Y-79633600D01*
X144905968Y-79633600D01*
X145033999Y-79659067D01*
X145162031Y-79633600D01*
X147625211Y-79633600D01*
X147876086Y-79884475D01*
X148372268Y-80090000D01*
X148909332Y-80090000D01*
X149405514Y-79884475D01*
X149785275Y-79504714D01*
X149990800Y-79008532D01*
X149990800Y-78471468D01*
X149785275Y-77975286D01*
X149405514Y-77595525D01*
X149284800Y-77545524D01*
X149244176Y-77504899D01*
X149171647Y-77396353D01*
X148741635Y-77109027D01*
X148362437Y-77033600D01*
X148362433Y-77033600D01*
X148234400Y-77008133D01*
X148106367Y-77033600D01*
X145178150Y-77033600D01*
X145158036Y-77029599D01*
X145158032Y-77029599D01*
X145029999Y-77004132D01*
X144901966Y-77029599D01*
X144267588Y-77029599D01*
X144173114Y-76935125D01*
X143676932Y-76729600D01*
X143139868Y-76729600D01*
X142643686Y-76935125D01*
X142263925Y-77314886D01*
X142058400Y-77811068D01*
X129699000Y-77811068D01*
X129699000Y-64384668D01*
X130014300Y-64384668D01*
X130014300Y-64921732D01*
X130219825Y-65417914D01*
X130599586Y-65797675D01*
X131095768Y-66003200D01*
X131632832Y-66003200D01*
X132129014Y-65797675D01*
X132508775Y-65417914D01*
X132558776Y-65297200D01*
X133483008Y-64372968D01*
X139836000Y-64372968D01*
X139836000Y-64910032D01*
X140041525Y-65406214D01*
X140421286Y-65785975D01*
X140632315Y-65873386D01*
X140722625Y-66091414D01*
X141022461Y-66391250D01*
X140722625Y-66691086D01*
X140517100Y-67187268D01*
X140517100Y-67724332D01*
X140722625Y-68220514D01*
X141102386Y-68600275D01*
X141598568Y-68805800D01*
X142135632Y-68805800D01*
X142631814Y-68600275D01*
X143011575Y-68220514D01*
X143061576Y-68099800D01*
X143370077Y-67791300D01*
X164731674Y-67791300D01*
X164666200Y-68120463D01*
X164666200Y-68120467D01*
X164640733Y-68248500D01*
X164666200Y-68376533D01*
X164666200Y-68437692D01*
X164592000Y-68422933D01*
X164463967Y-68448400D01*
X163304843Y-68448400D01*
X163184132Y-68398400D01*
X162647068Y-68398400D01*
X162150886Y-68603925D01*
X161771125Y-68983686D01*
X161565600Y-69479868D01*
X161565600Y-70016932D01*
X161771125Y-70513114D01*
X162150886Y-70892875D01*
X162647068Y-71098400D01*
X163184132Y-71098400D01*
X163304843Y-71048400D01*
X164053523Y-71048400D01*
X165004627Y-71999505D01*
X165077153Y-72108047D01*
X165185694Y-72180572D01*
X165185696Y-72180574D01*
X165305160Y-72260397D01*
X165507165Y-72395373D01*
X165886363Y-72470800D01*
X165886368Y-72470800D01*
X166014399Y-72496267D01*
X166142431Y-72470800D01*
X177867957Y-72470800D01*
X177988668Y-72520800D01*
X178525732Y-72520800D01*
X179021914Y-72315275D01*
X179401675Y-71935514D01*
X179607200Y-71439332D01*
X179607200Y-70963600D01*
X184718467Y-70963600D01*
X184846500Y-70989067D01*
X184974533Y-70963600D01*
X184974537Y-70963600D01*
X185353735Y-70888173D01*
X185783747Y-70600847D01*
X185856276Y-70492300D01*
X186731830Y-69616747D01*
X187255946Y-69721000D01*
X187640054Y-69721000D01*
X188208852Y-69607859D01*
X188718000Y-69267657D01*
X189227148Y-69607859D01*
X189795946Y-69721000D01*
X190180054Y-69721000D01*
X190748852Y-69607859D01*
X191393871Y-69176871D01*
X191453787Y-69087200D01*
X195346457Y-69087200D01*
X195467168Y-69137200D01*
X196004232Y-69137200D01*
X196500414Y-68931675D01*
X196880175Y-68551914D01*
X197085700Y-68055732D01*
X197085700Y-67518668D01*
X196880175Y-67022486D01*
X196500414Y-66642725D01*
X196004232Y-66437200D01*
X195467168Y-66437200D01*
X195346457Y-66487200D01*
X191493878Y-66487200D01*
X191824859Y-65991852D01*
X191976202Y-65231000D01*
X191824859Y-64470148D01*
X191393871Y-63825129D01*
X190748852Y-63394141D01*
X190487576Y-63342170D01*
X190573500Y-63134732D01*
X190573500Y-62597668D01*
X190367975Y-62101486D01*
X189988214Y-61721725D01*
X189867502Y-61671725D01*
X189005245Y-60809468D01*
X194385700Y-60809468D01*
X194385700Y-61346532D01*
X194591225Y-61842714D01*
X194970986Y-62222475D01*
X195467168Y-62428000D01*
X196004232Y-62428000D01*
X196124943Y-62378000D01*
X205660267Y-62378000D01*
X205788300Y-62403467D01*
X205916333Y-62378000D01*
X205916337Y-62378000D01*
X206295535Y-62302573D01*
X206725547Y-62015247D01*
X206798076Y-61906700D01*
X210492803Y-58211975D01*
X210613514Y-58161975D01*
X210993275Y-57782214D01*
X211198800Y-57286032D01*
X211198800Y-56748968D01*
X210993275Y-56252786D01*
X210613514Y-55873025D01*
X210117332Y-55667500D01*
X209580268Y-55667500D01*
X209084086Y-55873025D01*
X208704325Y-56252786D01*
X208654325Y-56373497D01*
X205249824Y-59778000D01*
X196124943Y-59778000D01*
X196004232Y-59728000D01*
X195467168Y-59728000D01*
X194970986Y-59933525D01*
X194591225Y-60313286D01*
X194385700Y-60809468D01*
X189005245Y-60809468D01*
X187772776Y-59577000D01*
X187700247Y-59468453D01*
X187270235Y-59181127D01*
X186891037Y-59105700D01*
X186891033Y-59105700D01*
X186763000Y-59080233D01*
X186634967Y-59105700D01*
X176475143Y-59105700D01*
X176354432Y-59055700D01*
X175817368Y-59055700D01*
X175321186Y-59261225D01*
X174941425Y-59640986D01*
X174735900Y-60137168D01*
X174735900Y-60674232D01*
X174941425Y-61170414D01*
X175321186Y-61550175D01*
X175817368Y-61755700D01*
X176354432Y-61755700D01*
X176475143Y-61705700D01*
X186224524Y-61705700D01*
X186558423Y-62039600D01*
X142615933Y-62039600D01*
X142487900Y-62014133D01*
X142359867Y-62039600D01*
X142359863Y-62039600D01*
X141980665Y-62115027D01*
X141550653Y-62402353D01*
X141478126Y-62510898D01*
X140542000Y-63447024D01*
X140421286Y-63497025D01*
X140041525Y-63876786D01*
X139836000Y-64372968D01*
X133483008Y-64372968D01*
X138441177Y-59414800D01*
X146366257Y-59414800D01*
X146486968Y-59464800D01*
X147024032Y-59464800D01*
X147520214Y-59259275D01*
X147899975Y-58879514D01*
X148105500Y-58383332D01*
X148105500Y-57846268D01*
X147899975Y-57350086D01*
X147520214Y-56970325D01*
X147024032Y-56764800D01*
X146486968Y-56764800D01*
X146366257Y-56814800D01*
X138030733Y-56814800D01*
X137902700Y-56789333D01*
X137774667Y-56814800D01*
X137774663Y-56814800D01*
X137395465Y-56890227D01*
X136965453Y-57177553D01*
X136892926Y-57286097D01*
X130720300Y-63458724D01*
X130599586Y-63508725D01*
X130219825Y-63888486D01*
X130014300Y-64384668D01*
X129699000Y-64384668D01*
X129699000Y-55531000D01*
X212246883Y-55531000D01*
X212451810Y-55565109D01*
G04 #@! TD*
M02*
