G04 #@! TF.GenerationSoftware,KiCad,Pcbnew,(5.0.0)*
G04 #@! TF.CreationDate,2019-02-18T20:12:55-05:00*
G04 #@! TF.ProjectId,WS2812B Tiny T,575332383132422054696E7920542E6B,rev?*
G04 #@! TF.SameCoordinates,Original*
G04 #@! TF.FileFunction,Soldermask,Top*
G04 #@! TF.FilePolarity,Negative*
%FSLAX46Y46*%
G04 Gerber Fmt 4.6, Leading zero omitted, Abs format (unit mm)*
G04 Created by KiCad (PCBNEW (5.0.0)) date 02/18/19 20:12:55*
%MOMM*%
%LPD*%
G01*
G04 APERTURE LIST*
%ADD10C,2.900000*%
%ADD11R,2.000000X1.400000*%
%ADD12R,1.900000X1.650000*%
%ADD13R,1.650000X1.900000*%
%ADD14O,2.100000X2.100000*%
%ADD15R,2.100000X2.100000*%
%ADD16R,4.900000X2.400000*%
%ADD17C,2.400000*%
%ADD18R,1.950000X1.000000*%
%ADD19R,6.800000X6.200000*%
%ADD20R,2.600000X1.600000*%
%ADD21R,1.700000X1.100000*%
G04 APERTURE END LIST*
D10*
G04 #@! TO.C,J1*
X171200000Y-99800000D03*
X171200000Y-119300000D03*
G04 #@! TD*
D11*
G04 #@! TO.C,U1*
X130850000Y-83490000D03*
X130850000Y-86690000D03*
X135850000Y-83490000D03*
X135850000Y-86690000D03*
G04 #@! TD*
G04 #@! TO.C,U2*
X135850000Y-77800000D03*
X135850000Y-74600000D03*
X130850000Y-77800000D03*
X130850000Y-74600000D03*
G04 #@! TD*
G04 #@! TO.C,U3*
X130850000Y-65710000D03*
X130850000Y-68910000D03*
X135850000Y-65710000D03*
X135850000Y-68910000D03*
G04 #@! TD*
G04 #@! TO.C,U4*
X135850000Y-60020000D03*
X135850000Y-56820000D03*
X130850000Y-60020000D03*
X130850000Y-56820000D03*
G04 #@! TD*
G04 #@! TO.C,U5*
X142280000Y-56820000D03*
X142280000Y-60020000D03*
X147280000Y-56820000D03*
X147280000Y-60020000D03*
G04 #@! TD*
G04 #@! TO.C,U6*
X158710000Y-60020000D03*
X158710000Y-56820000D03*
X153710000Y-60020000D03*
X153710000Y-56820000D03*
G04 #@! TD*
G04 #@! TO.C,U7*
X163870000Y-56820000D03*
X163870000Y-60020000D03*
X168870000Y-56820000D03*
X168870000Y-60020000D03*
G04 #@! TD*
G04 #@! TO.C,U8*
X179030000Y-60020000D03*
X179030000Y-56820000D03*
X174030000Y-60020000D03*
X174030000Y-56820000D03*
G04 #@! TD*
G04 #@! TO.C,U9*
X184150000Y-56820000D03*
X184150000Y-60020000D03*
X189150000Y-56820000D03*
X189150000Y-60020000D03*
G04 #@! TD*
G04 #@! TO.C,U10*
X200620000Y-60020000D03*
X200620000Y-56820000D03*
X195620000Y-60020000D03*
X195620000Y-56820000D03*
G04 #@! TD*
G04 #@! TO.C,U11*
X206415000Y-56820000D03*
X206415000Y-60020000D03*
X211415000Y-56820000D03*
X211415000Y-60020000D03*
G04 #@! TD*
G04 #@! TO.C,U12*
X211415000Y-68910000D03*
X211415000Y-65710000D03*
X206415000Y-68910000D03*
X206415000Y-65710000D03*
G04 #@! TD*
G04 #@! TO.C,U13*
X206415000Y-74600000D03*
X206415000Y-77800000D03*
X211415000Y-74600000D03*
X211415000Y-77800000D03*
G04 #@! TD*
G04 #@! TO.C,U15*
X197989000Y-86690000D03*
X197989000Y-83490000D03*
X192989000Y-86690000D03*
X192989000Y-83490000D03*
G04 #@! TD*
G04 #@! TO.C,U16*
X192786000Y-72400000D03*
X192786000Y-75600000D03*
X197786000Y-72400000D03*
X197786000Y-75600000D03*
G04 #@! TD*
G04 #@! TO.C,U17*
X189190000Y-75600000D03*
X189190000Y-72400000D03*
X184190000Y-75600000D03*
X184190000Y-72400000D03*
G04 #@! TD*
G04 #@! TO.C,U18*
X175300000Y-72400000D03*
X175300000Y-75600000D03*
X180300000Y-72400000D03*
X180300000Y-75600000D03*
G04 #@! TD*
G04 #@! TO.C,U19*
X180300000Y-84600000D03*
X180300000Y-81400000D03*
X175300000Y-84600000D03*
X175300000Y-81400000D03*
G04 #@! TD*
G04 #@! TO.C,U20*
X175500000Y-91400000D03*
X175500000Y-94600000D03*
X180500000Y-91400000D03*
X180500000Y-94600000D03*
G04 #@! TD*
G04 #@! TO.C,U21*
X175500000Y-101150000D03*
X175500000Y-104350000D03*
X180500000Y-101150000D03*
X180500000Y-104350000D03*
G04 #@! TD*
G04 #@! TO.C,U22*
X180500000Y-114100000D03*
X180500000Y-110900000D03*
X175500000Y-114100000D03*
X175500000Y-110900000D03*
G04 #@! TD*
G04 #@! TO.C,U23*
X175500000Y-120650000D03*
X175500000Y-123850000D03*
X180500000Y-120650000D03*
X180500000Y-123850000D03*
G04 #@! TD*
G04 #@! TO.C,U24*
X180500000Y-132600000D03*
X180500000Y-129400000D03*
X175500000Y-132600000D03*
X175500000Y-129400000D03*
G04 #@! TD*
G04 #@! TO.C,U25*
X185460000Y-129400000D03*
X185460000Y-132600000D03*
X190460000Y-129400000D03*
X190460000Y-132600000D03*
G04 #@! TD*
G04 #@! TO.C,U26*
X190750000Y-148100000D03*
X190750000Y-144900000D03*
X185750000Y-148100000D03*
X185750000Y-144900000D03*
G04 #@! TD*
G04 #@! TO.C,U27*
X175000000Y-144900000D03*
X175000000Y-148100000D03*
X180000000Y-144900000D03*
X180000000Y-148100000D03*
G04 #@! TD*
G04 #@! TO.C,U28*
X167500000Y-148100000D03*
X167500000Y-144900000D03*
X162500000Y-148100000D03*
X162500000Y-144900000D03*
G04 #@! TD*
G04 #@! TO.C,U29*
X152000000Y-144900000D03*
X152000000Y-148100000D03*
X157000000Y-144900000D03*
X157000000Y-148100000D03*
G04 #@! TD*
G04 #@! TO.C,U30*
X157500000Y-132600000D03*
X157500000Y-129400000D03*
X152500000Y-132600000D03*
X152500000Y-129400000D03*
G04 #@! TD*
G04 #@! TO.C,U31*
X161830000Y-129400000D03*
X161830000Y-132600000D03*
X166830000Y-129400000D03*
X166830000Y-132600000D03*
G04 #@! TD*
G04 #@! TO.C,U32*
X166830000Y-123850000D03*
X166830000Y-120650000D03*
X161830000Y-123850000D03*
X161830000Y-120650000D03*
G04 #@! TD*
G04 #@! TO.C,U33*
X161830000Y-110900000D03*
X161830000Y-114100000D03*
X166830000Y-110900000D03*
X166830000Y-114100000D03*
G04 #@! TD*
G04 #@! TO.C,U34*
X166830000Y-104350000D03*
X166830000Y-101150000D03*
X161830000Y-104350000D03*
X161830000Y-101150000D03*
G04 #@! TD*
G04 #@! TO.C,U35*
X161830000Y-91400000D03*
X161830000Y-94600000D03*
X166830000Y-91400000D03*
X166830000Y-94600000D03*
G04 #@! TD*
G04 #@! TO.C,U36*
X166830000Y-84600000D03*
X166830000Y-81400000D03*
X161830000Y-84600000D03*
X161830000Y-81400000D03*
G04 #@! TD*
G04 #@! TO.C,U37*
X162000000Y-72400000D03*
X162000000Y-75600000D03*
X167000000Y-72400000D03*
X167000000Y-75600000D03*
G04 #@! TD*
G04 #@! TO.C,U38*
X158500000Y-75600000D03*
X158500000Y-72400000D03*
X153500000Y-75600000D03*
X153500000Y-72400000D03*
G04 #@! TD*
G04 #@! TO.C,U39*
X144750000Y-72400000D03*
X144750000Y-75600000D03*
X149750000Y-72400000D03*
X149750000Y-75600000D03*
G04 #@! TD*
G04 #@! TO.C,U14*
X206375000Y-83490000D03*
X206375000Y-86690000D03*
X211375000Y-83490000D03*
X211375000Y-86690000D03*
G04 #@! TD*
D12*
G04 #@! TO.C,C1*
X165518000Y-67479600D03*
X168018000Y-67479600D03*
G04 #@! TD*
G04 #@! TO.C,C2*
X168018000Y-64979600D03*
X165518000Y-64979600D03*
G04 #@! TD*
D13*
G04 #@! TO.C,C3*
X178562000Y-137973000D03*
X178562000Y-140473000D03*
G04 #@! TD*
D12*
G04 #@! TO.C,C4*
X172375000Y-69951600D03*
X169875000Y-69951600D03*
G04 #@! TD*
G04 #@! TO.C,C5*
X141458000Y-81330800D03*
X138958000Y-81330800D03*
G04 #@! TD*
G04 #@! TO.C,C6*
X172314000Y-88392000D03*
X169814000Y-88392000D03*
G04 #@! TD*
G04 #@! TO.C,C7*
X200934000Y-81178400D03*
X203434000Y-81178400D03*
G04 #@! TD*
D13*
G04 #@! TO.C,C8*
X169875000Y-132466000D03*
X169875000Y-129966000D03*
G04 #@! TD*
G04 #@! TO.C,C9*
X172389000Y-129947000D03*
X172389000Y-132447000D03*
G04 #@! TD*
D14*
G04 #@! TO.C,J2*
X189420000Y-139000000D03*
X186880000Y-139000000D03*
X184340000Y-139000000D03*
D15*
X181800000Y-139000000D03*
G04 #@! TD*
D11*
G04 #@! TO.C,U40*
X144750000Y-83500000D03*
X144750000Y-86700000D03*
X149750000Y-83500000D03*
X149750000Y-86700000D03*
G04 #@! TD*
D16*
G04 #@! TO.C,Y1*
X159698000Y-66090800D03*
X151198000Y-66090800D03*
G04 #@! TD*
D17*
G04 #@! TO.C,SW1*
X162900000Y-136400000D03*
X162900000Y-140900000D03*
X156400000Y-136400000D03*
X156400000Y-140900000D03*
G04 #@! TD*
D18*
G04 #@! TO.C,MCU1*
X139134000Y-68554600D03*
X139134000Y-67284600D03*
X139134000Y-66014600D03*
X139134000Y-64744600D03*
X144534000Y-64744600D03*
X144534000Y-66014600D03*
X144534000Y-67284600D03*
X144534000Y-68554600D03*
G04 #@! TD*
D19*
G04 #@! TO.C,U41*
X173736000Y-138989000D03*
D20*
X167436000Y-141269000D03*
X167436000Y-136709000D03*
G04 #@! TD*
D14*
G04 #@! TO.C,J3*
X189988000Y-65231000D03*
X189988000Y-67771000D03*
X187448000Y-65231000D03*
X187448000Y-67771000D03*
X184908000Y-65231000D03*
X184908000Y-67771000D03*
X182368000Y-65231000D03*
D15*
X182368000Y-67771000D03*
G04 #@! TD*
D21*
G04 #@! TO.C,R1*
X177800000Y-67381200D03*
X177800000Y-65481200D03*
G04 #@! TD*
M02*
