G04 #@! TF.GenerationSoftware,KiCad,Pcbnew,(5.0.0)*
G04 #@! TF.CreationDate,2019-02-18T20:12:55-05:00*
G04 #@! TF.ProjectId,WS2812B Tiny T,575332383132422054696E7920542E6B,rev?*
G04 #@! TF.SameCoordinates,Original*
G04 #@! TF.FileFunction,Copper,L1,Top,Signal*
G04 #@! TF.FilePolarity,Positive*
%FSLAX46Y46*%
G04 Gerber Fmt 4.6, Leading zero omitted, Abs format (unit mm)*
G04 Created by KiCad (PCBNEW (5.0.0)) date 02/18/19 20:12:55*
%MOMM*%
%LPD*%
G01*
G04 APERTURE LIST*
G04 #@! TA.AperFunction,ComponentPad*
%ADD10C,2.500000*%
G04 #@! TD*
G04 #@! TA.AperFunction,SMDPad,CuDef*
%ADD11R,1.600000X1.000000*%
G04 #@! TD*
G04 #@! TA.AperFunction,SMDPad,CuDef*
%ADD12R,1.500000X1.250000*%
G04 #@! TD*
G04 #@! TA.AperFunction,SMDPad,CuDef*
%ADD13R,1.250000X1.500000*%
G04 #@! TD*
G04 #@! TA.AperFunction,ComponentPad*
%ADD14O,1.700000X1.700000*%
G04 #@! TD*
G04 #@! TA.AperFunction,ComponentPad*
%ADD15R,1.700000X1.700000*%
G04 #@! TD*
G04 #@! TA.AperFunction,SMDPad,CuDef*
%ADD16R,4.500000X2.000000*%
G04 #@! TD*
G04 #@! TA.AperFunction,ComponentPad*
%ADD17C,2.000000*%
G04 #@! TD*
G04 #@! TA.AperFunction,SMDPad,CuDef*
%ADD18R,1.550000X0.600000*%
G04 #@! TD*
G04 #@! TA.AperFunction,SMDPad,CuDef*
%ADD19R,3.050000X2.750000*%
G04 #@! TD*
G04 #@! TA.AperFunction,SMDPad,CuDef*
%ADD20R,6.400000X5.800000*%
G04 #@! TD*
G04 #@! TA.AperFunction,SMDPad,CuDef*
%ADD21R,2.200000X1.200000*%
G04 #@! TD*
G04 #@! TA.AperFunction,SMDPad,CuDef*
%ADD22R,1.300000X0.700000*%
G04 #@! TD*
G04 #@! TA.AperFunction,ViaPad*
%ADD23C,0.500000*%
G04 #@! TD*
G04 #@! TA.AperFunction,Conductor*
%ADD24C,0.400000*%
G04 #@! TD*
G04 #@! TA.AperFunction,Conductor*
%ADD25C,0.200000*%
G04 #@! TD*
G04 APERTURE END LIST*
D10*
G04 #@! TO.P,J1,1*
G04 #@! TO.N,+BATT*
X171200000Y-99800000D03*
G04 #@! TO.P,J1,2*
G04 #@! TO.N,Net-(J1-Pad2)*
X171200000Y-119300000D03*
G04 #@! TD*
D11*
G04 #@! TO.P,U1,1*
G04 #@! TO.N,+5V*
X130850000Y-83490000D03*
G04 #@! TO.P,U1,2*
G04 #@! TO.N,Net-(U1-Pad2)*
X130850000Y-86690000D03*
G04 #@! TO.P,U1,4*
G04 #@! TO.N,DIN*
X135850000Y-83490000D03*
G04 #@! TO.P,U1,3*
G04 #@! TO.N,GND*
X135850000Y-86690000D03*
G04 #@! TD*
G04 #@! TO.P,U2,3*
G04 #@! TO.N,GND*
X135850000Y-77800000D03*
G04 #@! TO.P,U2,4*
G04 #@! TO.N,Net-(U1-Pad2)*
X135850000Y-74600000D03*
G04 #@! TO.P,U2,2*
G04 #@! TO.N,Net-(U2-Pad2)*
X130850000Y-77800000D03*
G04 #@! TO.P,U2,1*
G04 #@! TO.N,+5V*
X130850000Y-74600000D03*
G04 #@! TD*
G04 #@! TO.P,U3,1*
G04 #@! TO.N,+5V*
X130850000Y-65710000D03*
G04 #@! TO.P,U3,2*
G04 #@! TO.N,Net-(U3-Pad2)*
X130850000Y-68910000D03*
G04 #@! TO.P,U3,4*
G04 #@! TO.N,Net-(U2-Pad2)*
X135850000Y-65710000D03*
G04 #@! TO.P,U3,3*
G04 #@! TO.N,GND*
X135850000Y-68910000D03*
G04 #@! TD*
G04 #@! TO.P,U4,3*
G04 #@! TO.N,GND*
X135850000Y-60020000D03*
G04 #@! TO.P,U4,4*
G04 #@! TO.N,Net-(U3-Pad2)*
X135850000Y-56820000D03*
G04 #@! TO.P,U4,2*
G04 #@! TO.N,Net-(U4-Pad2)*
X130850000Y-60020000D03*
G04 #@! TO.P,U4,1*
G04 #@! TO.N,+5V*
X130850000Y-56820000D03*
G04 #@! TD*
G04 #@! TO.P,U5,1*
G04 #@! TO.N,+5V*
X142280000Y-56820000D03*
G04 #@! TO.P,U5,2*
G04 #@! TO.N,Net-(U5-Pad2)*
X142280000Y-60020000D03*
G04 #@! TO.P,U5,4*
G04 #@! TO.N,Net-(U4-Pad2)*
X147280000Y-56820000D03*
G04 #@! TO.P,U5,3*
G04 #@! TO.N,GND*
X147280000Y-60020000D03*
G04 #@! TD*
G04 #@! TO.P,U6,3*
G04 #@! TO.N,GND*
X158710000Y-60020000D03*
G04 #@! TO.P,U6,4*
G04 #@! TO.N,Net-(U5-Pad2)*
X158710000Y-56820000D03*
G04 #@! TO.P,U6,2*
G04 #@! TO.N,Net-(U6-Pad2)*
X153710000Y-60020000D03*
G04 #@! TO.P,U6,1*
G04 #@! TO.N,+5V*
X153710000Y-56820000D03*
G04 #@! TD*
G04 #@! TO.P,U7,1*
G04 #@! TO.N,+5V*
X163870000Y-56820000D03*
G04 #@! TO.P,U7,2*
G04 #@! TO.N,Net-(U7-Pad2)*
X163870000Y-60020000D03*
G04 #@! TO.P,U7,4*
G04 #@! TO.N,Net-(U6-Pad2)*
X168870000Y-56820000D03*
G04 #@! TO.P,U7,3*
G04 #@! TO.N,GND*
X168870000Y-60020000D03*
G04 #@! TD*
G04 #@! TO.P,U8,3*
G04 #@! TO.N,GND*
X179030000Y-60020000D03*
G04 #@! TO.P,U8,4*
G04 #@! TO.N,Net-(U7-Pad2)*
X179030000Y-56820000D03*
G04 #@! TO.P,U8,2*
G04 #@! TO.N,Net-(U8-Pad2)*
X174030000Y-60020000D03*
G04 #@! TO.P,U8,1*
G04 #@! TO.N,+5V*
X174030000Y-56820000D03*
G04 #@! TD*
G04 #@! TO.P,U9,1*
G04 #@! TO.N,+5V*
X184150000Y-56820000D03*
G04 #@! TO.P,U9,2*
G04 #@! TO.N,Net-(U10-Pad4)*
X184150000Y-60020000D03*
G04 #@! TO.P,U9,4*
G04 #@! TO.N,Net-(U8-Pad2)*
X189150000Y-56820000D03*
G04 #@! TO.P,U9,3*
G04 #@! TO.N,GND*
X189150000Y-60020000D03*
G04 #@! TD*
G04 #@! TO.P,U10,3*
G04 #@! TO.N,GND*
X200620000Y-60020000D03*
G04 #@! TO.P,U10,4*
G04 #@! TO.N,Net-(U10-Pad4)*
X200620000Y-56820000D03*
G04 #@! TO.P,U10,2*
G04 #@! TO.N,Net-(U10-Pad2)*
X195620000Y-60020000D03*
G04 #@! TO.P,U10,1*
G04 #@! TO.N,+5V*
X195620000Y-56820000D03*
G04 #@! TD*
G04 #@! TO.P,U11,1*
G04 #@! TO.N,+5V*
X206415000Y-56820000D03*
G04 #@! TO.P,U11,2*
G04 #@! TO.N,Net-(U11-Pad2)*
X206415000Y-60020000D03*
G04 #@! TO.P,U11,4*
G04 #@! TO.N,Net-(U10-Pad2)*
X211415000Y-56820000D03*
G04 #@! TO.P,U11,3*
G04 #@! TO.N,GND*
X211415000Y-60020000D03*
G04 #@! TD*
G04 #@! TO.P,U12,3*
G04 #@! TO.N,GND*
X211415000Y-68910000D03*
G04 #@! TO.P,U12,4*
G04 #@! TO.N,Net-(U11-Pad2)*
X211415000Y-65710000D03*
G04 #@! TO.P,U12,2*
G04 #@! TO.N,Net-(U12-Pad2)*
X206415000Y-68910000D03*
G04 #@! TO.P,U12,1*
G04 #@! TO.N,+5V*
X206415000Y-65710000D03*
G04 #@! TD*
G04 #@! TO.P,U13,1*
G04 #@! TO.N,+5V*
X206415000Y-74600000D03*
G04 #@! TO.P,U13,2*
G04 #@! TO.N,Net-(U13-Pad2)*
X206415000Y-77800000D03*
G04 #@! TO.P,U13,4*
G04 #@! TO.N,Net-(U12-Pad2)*
X211415000Y-74600000D03*
G04 #@! TO.P,U13,3*
G04 #@! TO.N,GND*
X211415000Y-77800000D03*
G04 #@! TD*
G04 #@! TO.P,U15,3*
G04 #@! TO.N,GND*
X197989000Y-86690000D03*
G04 #@! TO.P,U15,4*
G04 #@! TO.N,Net-(U14-Pad2)*
X197989000Y-83490000D03*
G04 #@! TO.P,U15,2*
G04 #@! TO.N,Net-(U15-Pad2)*
X192989000Y-86690000D03*
G04 #@! TO.P,U15,1*
G04 #@! TO.N,+5V*
X192989000Y-83490000D03*
G04 #@! TD*
G04 #@! TO.P,U16,1*
G04 #@! TO.N,+5V*
X192786000Y-72400000D03*
G04 #@! TO.P,U16,2*
G04 #@! TO.N,Net-(U16-Pad2)*
X192786000Y-75600000D03*
G04 #@! TO.P,U16,4*
G04 #@! TO.N,Net-(U15-Pad2)*
X197786000Y-72400000D03*
G04 #@! TO.P,U16,3*
G04 #@! TO.N,GND*
X197786000Y-75600000D03*
G04 #@! TD*
G04 #@! TO.P,U17,3*
G04 #@! TO.N,GND*
X189190000Y-75600000D03*
G04 #@! TO.P,U17,4*
G04 #@! TO.N,Net-(U16-Pad2)*
X189190000Y-72400000D03*
G04 #@! TO.P,U17,2*
G04 #@! TO.N,Net-(U17-Pad2)*
X184190000Y-75600000D03*
G04 #@! TO.P,U17,1*
G04 #@! TO.N,+5V*
X184190000Y-72400000D03*
G04 #@! TD*
G04 #@! TO.P,U18,1*
G04 #@! TO.N,+5V*
X175300000Y-72400000D03*
G04 #@! TO.P,U18,2*
G04 #@! TO.N,Net-(U18-Pad2)*
X175300000Y-75600000D03*
G04 #@! TO.P,U18,4*
G04 #@! TO.N,Net-(U17-Pad2)*
X180300000Y-72400000D03*
G04 #@! TO.P,U18,3*
G04 #@! TO.N,GND*
X180300000Y-75600000D03*
G04 #@! TD*
G04 #@! TO.P,U19,3*
G04 #@! TO.N,GND*
X180300000Y-84600000D03*
G04 #@! TO.P,U19,4*
G04 #@! TO.N,Net-(U18-Pad2)*
X180300000Y-81400000D03*
G04 #@! TO.P,U19,2*
G04 #@! TO.N,Net-(U19-Pad2)*
X175300000Y-84600000D03*
G04 #@! TO.P,U19,1*
G04 #@! TO.N,+5V*
X175300000Y-81400000D03*
G04 #@! TD*
G04 #@! TO.P,U20,1*
G04 #@! TO.N,+5V*
X175500000Y-91400000D03*
G04 #@! TO.P,U20,2*
G04 #@! TO.N,Net-(U20-Pad2)*
X175500000Y-94600000D03*
G04 #@! TO.P,U20,4*
G04 #@! TO.N,Net-(U19-Pad2)*
X180500000Y-91400000D03*
G04 #@! TO.P,U20,3*
G04 #@! TO.N,GND*
X180500000Y-94600000D03*
G04 #@! TD*
G04 #@! TO.P,U21,1*
G04 #@! TO.N,+5V*
X175500000Y-101150000D03*
G04 #@! TO.P,U21,2*
G04 #@! TO.N,Net-(U21-Pad2)*
X175500000Y-104350000D03*
G04 #@! TO.P,U21,4*
G04 #@! TO.N,Net-(U20-Pad2)*
X180500000Y-101150000D03*
G04 #@! TO.P,U21,3*
G04 #@! TO.N,GND*
X180500000Y-104350000D03*
G04 #@! TD*
G04 #@! TO.P,U22,3*
G04 #@! TO.N,GND*
X180500000Y-114100000D03*
G04 #@! TO.P,U22,4*
G04 #@! TO.N,Net-(U21-Pad2)*
X180500000Y-110900000D03*
G04 #@! TO.P,U22,2*
G04 #@! TO.N,Net-(U22-Pad2)*
X175500000Y-114100000D03*
G04 #@! TO.P,U22,1*
G04 #@! TO.N,+5V*
X175500000Y-110900000D03*
G04 #@! TD*
G04 #@! TO.P,U23,1*
G04 #@! TO.N,+5V*
X175500000Y-120650000D03*
G04 #@! TO.P,U23,2*
G04 #@! TO.N,Net-(U23-Pad2)*
X175500000Y-123850000D03*
G04 #@! TO.P,U23,4*
G04 #@! TO.N,Net-(U22-Pad2)*
X180500000Y-120650000D03*
G04 #@! TO.P,U23,3*
G04 #@! TO.N,GND*
X180500000Y-123850000D03*
G04 #@! TD*
G04 #@! TO.P,U24,3*
G04 #@! TO.N,GND*
X180500000Y-132600000D03*
G04 #@! TO.P,U24,4*
G04 #@! TO.N,Net-(U23-Pad2)*
X180500000Y-129400000D03*
G04 #@! TO.P,U24,2*
G04 #@! TO.N,Net-(U24-Pad2)*
X175500000Y-132600000D03*
G04 #@! TO.P,U24,1*
G04 #@! TO.N,+5V*
X175500000Y-129400000D03*
G04 #@! TD*
G04 #@! TO.P,U25,1*
G04 #@! TO.N,+5V*
X185460000Y-129400000D03*
G04 #@! TO.P,U25,2*
G04 #@! TO.N,Net-(U25-Pad2)*
X185460000Y-132600000D03*
G04 #@! TO.P,U25,4*
G04 #@! TO.N,Net-(U24-Pad2)*
X190460000Y-129400000D03*
G04 #@! TO.P,U25,3*
G04 #@! TO.N,GND*
X190460000Y-132600000D03*
G04 #@! TD*
G04 #@! TO.P,U26,3*
G04 #@! TO.N,GND*
X190750000Y-148100000D03*
G04 #@! TO.P,U26,4*
G04 #@! TO.N,Net-(U25-Pad2)*
X190750000Y-144900000D03*
G04 #@! TO.P,U26,2*
G04 #@! TO.N,Net-(U26-Pad2)*
X185750000Y-148100000D03*
G04 #@! TO.P,U26,1*
G04 #@! TO.N,+5V*
X185750000Y-144900000D03*
G04 #@! TD*
G04 #@! TO.P,U27,1*
G04 #@! TO.N,+5V*
X175000000Y-144900000D03*
G04 #@! TO.P,U27,2*
G04 #@! TO.N,Net-(U27-Pad2)*
X175000000Y-148100000D03*
G04 #@! TO.P,U27,4*
G04 #@! TO.N,Net-(U26-Pad2)*
X180000000Y-144900000D03*
G04 #@! TO.P,U27,3*
G04 #@! TO.N,GND*
X180000000Y-148100000D03*
G04 #@! TD*
G04 #@! TO.P,U28,3*
G04 #@! TO.N,GND*
X167500000Y-148100000D03*
G04 #@! TO.P,U28,4*
G04 #@! TO.N,Net-(U27-Pad2)*
X167500000Y-144900000D03*
G04 #@! TO.P,U28,2*
G04 #@! TO.N,Net-(U28-Pad2)*
X162500000Y-148100000D03*
G04 #@! TO.P,U28,1*
G04 #@! TO.N,+5V*
X162500000Y-144900000D03*
G04 #@! TD*
G04 #@! TO.P,U29,1*
G04 #@! TO.N,+5V*
X152000000Y-144900000D03*
G04 #@! TO.P,U29,2*
G04 #@! TO.N,Net-(U29-Pad2)*
X152000000Y-148100000D03*
G04 #@! TO.P,U29,4*
G04 #@! TO.N,Net-(U28-Pad2)*
X157000000Y-144900000D03*
G04 #@! TO.P,U29,3*
G04 #@! TO.N,GND*
X157000000Y-148100000D03*
G04 #@! TD*
G04 #@! TO.P,U30,3*
G04 #@! TO.N,GND*
X157500000Y-132600000D03*
G04 #@! TO.P,U30,4*
G04 #@! TO.N,Net-(U29-Pad2)*
X157500000Y-129400000D03*
G04 #@! TO.P,U30,2*
G04 #@! TO.N,Net-(U30-Pad2)*
X152500000Y-132600000D03*
G04 #@! TO.P,U30,1*
G04 #@! TO.N,+5V*
X152500000Y-129400000D03*
G04 #@! TD*
G04 #@! TO.P,U31,1*
G04 #@! TO.N,+5V*
X161830000Y-129400000D03*
G04 #@! TO.P,U31,2*
G04 #@! TO.N,Net-(U31-Pad2)*
X161830000Y-132600000D03*
G04 #@! TO.P,U31,4*
G04 #@! TO.N,Net-(U30-Pad2)*
X166830000Y-129400000D03*
G04 #@! TO.P,U31,3*
G04 #@! TO.N,GND*
X166830000Y-132600000D03*
G04 #@! TD*
G04 #@! TO.P,U32,3*
G04 #@! TO.N,GND*
X166830000Y-123850000D03*
G04 #@! TO.P,U32,4*
G04 #@! TO.N,Net-(U31-Pad2)*
X166830000Y-120650000D03*
G04 #@! TO.P,U32,2*
G04 #@! TO.N,Net-(U32-Pad2)*
X161830000Y-123850000D03*
G04 #@! TO.P,U32,1*
G04 #@! TO.N,+5V*
X161830000Y-120650000D03*
G04 #@! TD*
G04 #@! TO.P,U33,1*
G04 #@! TO.N,+5V*
X161830000Y-110900000D03*
G04 #@! TO.P,U33,2*
G04 #@! TO.N,Net-(U33-Pad2)*
X161830000Y-114100000D03*
G04 #@! TO.P,U33,4*
G04 #@! TO.N,Net-(U32-Pad2)*
X166830000Y-110900000D03*
G04 #@! TO.P,U33,3*
G04 #@! TO.N,GND*
X166830000Y-114100000D03*
G04 #@! TD*
G04 #@! TO.P,U34,3*
G04 #@! TO.N,GND*
X166830000Y-104350000D03*
G04 #@! TO.P,U34,4*
G04 #@! TO.N,Net-(U33-Pad2)*
X166830000Y-101150000D03*
G04 #@! TO.P,U34,2*
G04 #@! TO.N,Net-(U34-Pad2)*
X161830000Y-104350000D03*
G04 #@! TO.P,U34,1*
G04 #@! TO.N,+5V*
X161830000Y-101150000D03*
G04 #@! TD*
G04 #@! TO.P,U35,1*
G04 #@! TO.N,+5V*
X161830000Y-91400000D03*
G04 #@! TO.P,U35,2*
G04 #@! TO.N,Net-(U35-Pad2)*
X161830000Y-94600000D03*
G04 #@! TO.P,U35,4*
G04 #@! TO.N,Net-(U34-Pad2)*
X166830000Y-91400000D03*
G04 #@! TO.P,U35,3*
G04 #@! TO.N,GND*
X166830000Y-94600000D03*
G04 #@! TD*
G04 #@! TO.P,U36,3*
G04 #@! TO.N,GND*
X166830000Y-84600000D03*
G04 #@! TO.P,U36,4*
G04 #@! TO.N,Net-(U35-Pad2)*
X166830000Y-81400000D03*
G04 #@! TO.P,U36,2*
G04 #@! TO.N,Net-(U36-Pad2)*
X161830000Y-84600000D03*
G04 #@! TO.P,U36,1*
G04 #@! TO.N,+5V*
X161830000Y-81400000D03*
G04 #@! TD*
G04 #@! TO.P,U37,1*
G04 #@! TO.N,+5V*
X162000000Y-72400000D03*
G04 #@! TO.P,U37,2*
G04 #@! TO.N,Net-(U37-Pad2)*
X162000000Y-75600000D03*
G04 #@! TO.P,U37,4*
G04 #@! TO.N,Net-(U36-Pad2)*
X167000000Y-72400000D03*
G04 #@! TO.P,U37,3*
G04 #@! TO.N,GND*
X167000000Y-75600000D03*
G04 #@! TD*
G04 #@! TO.P,U38,3*
G04 #@! TO.N,GND*
X158500000Y-75600000D03*
G04 #@! TO.P,U38,4*
G04 #@! TO.N,Net-(U37-Pad2)*
X158500000Y-72400000D03*
G04 #@! TO.P,U38,2*
G04 #@! TO.N,Net-(U38-Pad2)*
X153500000Y-75600000D03*
G04 #@! TO.P,U38,1*
G04 #@! TO.N,+5V*
X153500000Y-72400000D03*
G04 #@! TD*
G04 #@! TO.P,U39,1*
G04 #@! TO.N,+5V*
X144750000Y-72400000D03*
G04 #@! TO.P,U39,2*
G04 #@! TO.N,Net-(U39-Pad2)*
X144750000Y-75600000D03*
G04 #@! TO.P,U39,4*
G04 #@! TO.N,Net-(U38-Pad2)*
X149750000Y-72400000D03*
G04 #@! TO.P,U39,3*
G04 #@! TO.N,GND*
X149750000Y-75600000D03*
G04 #@! TD*
G04 #@! TO.P,U14,1*
G04 #@! TO.N,+5V*
X206375000Y-83490000D03*
G04 #@! TO.P,U14,2*
G04 #@! TO.N,Net-(U14-Pad2)*
X206375000Y-86690000D03*
G04 #@! TO.P,U14,4*
G04 #@! TO.N,Net-(U13-Pad2)*
X211375000Y-83490000D03*
G04 #@! TO.P,U14,3*
G04 #@! TO.N,GND*
X211375000Y-86690000D03*
G04 #@! TD*
D12*
G04 #@! TO.P,C1,1*
G04 #@! TO.N,PB3*
X165518000Y-67479600D03*
G04 #@! TO.P,C1,2*
G04 #@! TO.N,GND*
X168018000Y-67479600D03*
G04 #@! TD*
G04 #@! TO.P,C2,2*
G04 #@! TO.N,GND*
X168018000Y-64979600D03*
G04 #@! TO.P,C2,1*
G04 #@! TO.N,PB4*
X165518000Y-64979600D03*
G04 #@! TD*
D13*
G04 #@! TO.P,C3,2*
G04 #@! TO.N,GND*
X178562000Y-137973000D03*
G04 #@! TO.P,C3,1*
G04 #@! TO.N,+5V*
X178562000Y-140473000D03*
G04 #@! TD*
D12*
G04 #@! TO.P,C4,1*
G04 #@! TO.N,+5V*
X172375000Y-69951600D03*
G04 #@! TO.P,C4,2*
G04 #@! TO.N,GND*
X169875000Y-69951600D03*
G04 #@! TD*
G04 #@! TO.P,C5,2*
G04 #@! TO.N,GND*
X141458000Y-81330800D03*
G04 #@! TO.P,C5,1*
G04 #@! TO.N,+5V*
X138958000Y-81330800D03*
G04 #@! TD*
G04 #@! TO.P,C6,1*
G04 #@! TO.N,+5V*
X172314000Y-88392000D03*
G04 #@! TO.P,C6,2*
G04 #@! TO.N,GND*
X169814000Y-88392000D03*
G04 #@! TD*
G04 #@! TO.P,C7,2*
G04 #@! TO.N,GND*
X200934000Y-81178400D03*
G04 #@! TO.P,C7,1*
G04 #@! TO.N,+5V*
X203434000Y-81178400D03*
G04 #@! TD*
D13*
G04 #@! TO.P,C8,1*
G04 #@! TO.N,+BATT*
X169875000Y-132466000D03*
G04 #@! TO.P,C8,2*
G04 #@! TO.N,GND*
X169875000Y-129966000D03*
G04 #@! TD*
G04 #@! TO.P,C9,2*
G04 #@! TO.N,GND*
X172389000Y-129947000D03*
G04 #@! TO.P,C9,1*
G04 #@! TO.N,+BATT*
X172389000Y-132447000D03*
G04 #@! TD*
D14*
G04 #@! TO.P,J2,4*
G04 #@! TO.N,GND*
X189420000Y-139000000D03*
G04 #@! TO.P,J2,3*
G04 #@! TO.N,Net-(J1-Pad2)*
X186880000Y-139000000D03*
G04 #@! TO.P,J2,2*
X184340000Y-139000000D03*
D15*
G04 #@! TO.P,J2,1*
X181800000Y-139000000D03*
G04 #@! TD*
D11*
G04 #@! TO.P,U40,1*
G04 #@! TO.N,+5V*
X144750000Y-83500000D03*
G04 #@! TO.P,U40,2*
G04 #@! TO.N,N/C*
X144750000Y-86700000D03*
G04 #@! TO.P,U40,4*
G04 #@! TO.N,Net-(U39-Pad2)*
X149750000Y-83500000D03*
G04 #@! TO.P,U40,3*
G04 #@! TO.N,GND*
X149750000Y-86700000D03*
G04 #@! TD*
D16*
G04 #@! TO.P,Y1,2*
G04 #@! TO.N,PB4*
X159698000Y-66090800D03*
G04 #@! TO.P,Y1,1*
G04 #@! TO.N,PB3*
X151198000Y-66090800D03*
G04 #@! TD*
D17*
G04 #@! TO.P,SW1,1*
G04 #@! TO.N,BTN*
X162900000Y-136400000D03*
G04 #@! TO.P,SW1,2*
G04 #@! TO.N,GND*
X162900000Y-140900000D03*
G04 #@! TO.P,SW1,1*
G04 #@! TO.N,BTN*
X156400000Y-136400000D03*
G04 #@! TO.P,SW1,2*
G04 #@! TO.N,GND*
X156400000Y-140900000D03*
G04 #@! TD*
D18*
G04 #@! TO.P,MCU1,8*
G04 #@! TO.N,+5V*
X139134000Y-68554600D03*
G04 #@! TO.P,MCU1,7*
G04 #@! TO.N,BTN*
X139134000Y-67284600D03*
G04 #@! TO.P,MCU1,6*
G04 #@! TO.N,DIN*
X139134000Y-66014600D03*
G04 #@! TO.P,MCU1,5*
G04 #@! TO.N,PB0*
X139134000Y-64744600D03*
G04 #@! TO.P,MCU1,4*
G04 #@! TO.N,GND*
X144534000Y-64744600D03*
G04 #@! TO.P,MCU1,3*
G04 #@! TO.N,PB4*
X144534000Y-66014600D03*
G04 #@! TO.P,MCU1,2*
G04 #@! TO.N,PB3*
X144534000Y-67284600D03*
G04 #@! TO.P,MCU1,1*
G04 #@! TO.N,RST*
X144534000Y-68554600D03*
G04 #@! TD*
D19*
G04 #@! TO.P,U41,2*
G04 #@! TO.N,GND*
X172061000Y-140514000D03*
X175411000Y-137464000D03*
X172061000Y-137464000D03*
X175411000Y-140514000D03*
D20*
X173736000Y-138989000D03*
D21*
G04 #@! TO.P,U41,3*
G04 #@! TO.N,+5V*
X167436000Y-141269000D03*
G04 #@! TO.P,U41,1*
G04 #@! TO.N,+BATT*
X167436000Y-136709000D03*
G04 #@! TD*
D14*
G04 #@! TO.P,J3,8*
G04 #@! TO.N,PB0*
X189988000Y-65231000D03*
G04 #@! TO.P,J3,7*
G04 #@! TO.N,GND*
X189988000Y-67771000D03*
G04 #@! TO.P,J3,6*
G04 #@! TO.N,DIN*
X187448000Y-65231000D03*
G04 #@! TO.P,J3,5*
G04 #@! TO.N,PB4*
X187448000Y-67771000D03*
G04 #@! TO.P,J3,4*
G04 #@! TO.N,BTN*
X184908000Y-65231000D03*
G04 #@! TO.P,J3,3*
G04 #@! TO.N,PB3*
X184908000Y-67771000D03*
G04 #@! TO.P,J3,2*
G04 #@! TO.N,+5V*
X182368000Y-65231000D03*
D15*
G04 #@! TO.P,J3,1*
G04 #@! TO.N,RST*
X182368000Y-67771000D03*
G04 #@! TD*
D22*
G04 #@! TO.P,R1,2*
G04 #@! TO.N,RST*
X177800000Y-67381200D03*
G04 #@! TO.P,R1,1*
G04 #@! TO.N,+5V*
X177800000Y-65481200D03*
G04 #@! TD*
D23*
G04 #@! TO.N,GND*
X159913100Y-75845300D03*
X165643500Y-75749500D03*
X178219300Y-136470300D03*
X195735700Y-67787200D03*
G04 #@! TO.N,+5V*
X191577500Y-68502300D03*
X186112800Y-70353500D03*
X174089700Y-87223600D03*
X204014200Y-80010000D03*
X174089700Y-73202800D03*
X142128400Y-68554600D03*
X178562000Y-142548300D03*
X167956700Y-142544800D03*
X165925700Y-142684600D03*
X138958000Y-82854800D03*
X138958000Y-79857600D03*
X204594300Y-82296000D03*
X173474300Y-89865200D03*
X160619700Y-87833200D03*
X129639700Y-71882000D03*
X159715200Y-128489600D03*
X180961400Y-56820000D03*
G04 #@! TO.N,DIN*
X141867100Y-65326700D03*
G04 #@! TO.N,Net-(U4-Pad2)*
X146755500Y-58114800D03*
X131364300Y-64653200D03*
G04 #@! TO.N,Net-(U8-Pad2)*
X176085900Y-60405700D03*
X189223500Y-62866200D03*
G04 #@! TO.N,Net-(U10-Pad2)*
X209848800Y-57017500D03*
X195735700Y-61078000D03*
G04 #@! TO.N,Net-(U24-Pad2)*
X188306900Y-129299700D03*
X175905200Y-131414900D03*
G04 #@! TO.N,Net-(U30-Pad2)*
X165439400Y-133342900D03*
X154044800Y-131945300D03*
G04 #@! TO.N,BTN*
X173816100Y-125134900D03*
X171197500Y-65354700D03*
X141867100Y-67455800D03*
G04 #@! TO.N,Net-(U39-Pad2)*
X143408400Y-78079600D03*
X148640800Y-78740000D03*
G04 #@! TO.N,PB3*
X166626600Y-68527300D03*
G04 #@! TO.N,PB4*
X166768000Y-67484300D03*
G04 #@! TO.N,PB0*
X141186000Y-64641500D03*
G04 #@! TO.N,RST*
X162915600Y-69748400D03*
X178257200Y-71170800D03*
G04 #@! TD*
D24*
G04 #@! TO.N,GND*
X166094000Y-75299000D02*
X165789600Y-74994700D01*
X165789600Y-74994700D02*
X165789600Y-71655700D01*
X165789600Y-71655700D02*
X168910600Y-68534700D01*
X168910600Y-68534700D02*
X168986900Y-68534700D01*
X168986900Y-68534700D02*
X169029900Y-68491700D01*
X166394900Y-75600000D02*
X166094000Y-75299000D01*
X166094000Y-75299000D02*
X165643500Y-75749500D01*
X158500000Y-75600000D02*
X159710300Y-75600000D01*
X159913100Y-75845300D02*
X159710300Y-75642500D01*
X159710300Y-75642500D02*
X159710300Y-75600000D01*
X134639700Y-86690000D02*
X133729300Y-87600400D01*
X133729300Y-87600400D02*
X129829000Y-87600400D01*
X129829000Y-87600400D02*
X129639600Y-87411000D01*
X129639600Y-87411000D02*
X129639600Y-85983500D01*
X129639600Y-85983500D02*
X129843500Y-85779600D01*
X129843500Y-85779600D02*
X130449800Y-85779600D01*
X130449800Y-85779600D02*
X133281100Y-82948300D01*
X133281100Y-82948300D02*
X133281100Y-70268600D01*
X133281100Y-70268600D02*
X134639700Y-68910000D01*
X134639700Y-77800000D02*
X134639700Y-86690000D01*
X135850000Y-68910000D02*
X134639700Y-68910000D01*
X145994300Y-84548000D02*
X139202300Y-84548000D01*
X139202300Y-84548000D02*
X137060300Y-86690000D01*
X148539700Y-86700000D02*
X146387700Y-84548000D01*
X146387700Y-84548000D02*
X145994300Y-84548000D01*
X145994300Y-84548000D02*
X145994300Y-82445600D01*
X145994300Y-82445600D02*
X143844200Y-80295500D01*
X135850000Y-86690000D02*
X137060300Y-86690000D01*
X165911500Y-138226500D02*
X165573500Y-138226500D01*
X165573500Y-138226500D02*
X162900000Y-140900000D01*
X167435200Y-132600000D02*
X165911500Y-134123700D01*
X172061000Y-138226500D02*
X172061000Y-138989000D01*
X172061000Y-137464000D02*
X172061000Y-138226500D01*
X144534000Y-64744600D02*
X143348700Y-64744600D01*
X143348700Y-64744600D02*
X138624100Y-60020000D01*
X138624100Y-60020000D02*
X135850000Y-60020000D01*
X145126700Y-64744600D02*
X144534000Y-64744600D01*
X145126700Y-64744600D02*
X145719300Y-64744600D01*
X147280000Y-60020000D02*
X148490300Y-60020000D01*
X158710000Y-60020000D02*
X157499700Y-60020000D01*
X157499700Y-60020000D02*
X156589400Y-60930300D01*
X156589400Y-60930300D02*
X149400600Y-60930300D01*
X149400600Y-60930300D02*
X148490300Y-60020000D01*
X159315200Y-60020000D02*
X158710000Y-60020000D01*
X159315200Y-60020000D02*
X159920300Y-60020000D01*
X187939700Y-60930300D02*
X187939700Y-62516100D01*
X187939700Y-62516100D02*
X188718000Y-63294400D01*
X188718000Y-63294400D02*
X188718000Y-65792100D01*
X188718000Y-65792100D02*
X189436600Y-66510700D01*
X178562000Y-137973000D02*
X178562000Y-136812700D01*
X178219300Y-136470300D02*
X178561700Y-136812700D01*
X178561700Y-136812700D02*
X178562000Y-136812700D01*
X198996300Y-67787200D02*
X195735700Y-67787200D01*
X199409700Y-60020000D02*
X199409700Y-67373800D01*
X199409700Y-67373800D02*
X198996300Y-67787200D01*
X198996300Y-67787200D02*
X198996300Y-75600000D01*
X212585300Y-77800000D02*
X212625300Y-77760000D01*
X212625300Y-77760000D02*
X212625300Y-68910000D01*
X212472700Y-77800000D02*
X212585300Y-77800000D01*
X212585300Y-86690000D02*
X212585300Y-77800000D01*
X211415000Y-77800000D02*
X212472700Y-77800000D01*
X200934000Y-85242500D02*
X208717200Y-85242500D01*
X208717200Y-85242500D02*
X210164700Y-86690000D01*
X199199300Y-86690000D02*
X200646800Y-85242500D01*
X200646800Y-85242500D02*
X200934000Y-85242500D01*
X200934000Y-82213700D02*
X200934000Y-85242500D01*
X211375000Y-86690000D02*
X210164700Y-86690000D01*
X181510300Y-76558700D02*
X181510300Y-75600000D01*
X181510300Y-84600000D02*
X181510300Y-76558700D01*
X181510300Y-76558700D02*
X187021000Y-76558700D01*
X187021000Y-76558700D02*
X187979700Y-75600000D01*
X181710300Y-94600000D02*
X181710300Y-84800000D01*
X181710300Y-84800000D02*
X181510300Y-84600000D01*
X181557700Y-94600000D02*
X181710300Y-94600000D01*
X180500000Y-94600000D02*
X181557700Y-94600000D01*
X181710300Y-104350000D02*
X181710300Y-94600000D01*
X181557700Y-104350000D02*
X181710300Y-104350000D01*
X180500000Y-104350000D02*
X181557700Y-104350000D01*
X181710300Y-114100000D02*
X181710300Y-104350000D01*
X181557700Y-114100000D02*
X181710300Y-114100000D01*
X180500000Y-114100000D02*
X181557700Y-114100000D01*
X181710300Y-128480700D02*
X181710300Y-123850000D01*
X181710300Y-132600000D02*
X181710300Y-128480700D01*
X189854900Y-132600000D02*
X189854900Y-131907100D01*
X189854900Y-131907100D02*
X186428500Y-128480700D01*
X186428500Y-128480700D02*
X181710300Y-128480700D01*
X189854900Y-132600000D02*
X189249700Y-132600000D01*
X190460000Y-132600000D02*
X189854900Y-132600000D01*
X190750000Y-148100000D02*
X189539700Y-148100000D01*
X180000000Y-148100000D02*
X181210300Y-148100000D01*
X181210300Y-148100000D02*
X182120600Y-149010300D01*
X182120600Y-149010300D02*
X188629400Y-149010300D01*
X188629400Y-149010300D02*
X189539700Y-148100000D01*
X168040300Y-84600000D02*
X169875000Y-82765300D01*
X169875000Y-82765300D02*
X169875000Y-69951600D01*
X167887700Y-84600000D02*
X168040300Y-84600000D01*
X166830000Y-84600000D02*
X167887700Y-84600000D01*
X167435200Y-132600000D02*
X168040300Y-132600000D01*
X166830000Y-132600000D02*
X167435200Y-132600000D01*
X168040300Y-123850000D02*
X169875000Y-125684700D01*
X169875000Y-125684700D02*
X169875000Y-129966000D01*
X167887700Y-123850000D02*
X168040300Y-123850000D01*
X166830000Y-123850000D02*
X167887700Y-123850000D01*
X168040300Y-94600000D02*
X168040300Y-104350000D01*
X167887700Y-94600000D02*
X168040300Y-94600000D01*
X166830000Y-94600000D02*
X167887700Y-94600000D01*
X169029900Y-68491700D02*
X168018000Y-67479600D01*
X169875000Y-69951600D02*
X169875000Y-69336800D01*
X169875000Y-69336800D02*
X169029900Y-68491700D01*
X167000000Y-75600000D02*
X166394900Y-75600000D01*
X158500000Y-75600000D02*
X157289700Y-75600000D01*
X149750000Y-75600000D02*
X150960300Y-75600000D01*
X150960300Y-75600000D02*
X151870600Y-76510300D01*
X151870600Y-76510300D02*
X156379400Y-76510300D01*
X156379400Y-76510300D02*
X157289700Y-75600000D01*
X149144900Y-75600000D02*
X149750000Y-75600000D01*
X149144900Y-75600000D02*
X148539700Y-75600000D01*
X211375000Y-86690000D02*
X212585300Y-86690000D01*
X143844200Y-80295500D02*
X148539700Y-75600000D01*
X141458000Y-80295500D02*
X143844200Y-80295500D01*
X149750000Y-86700000D02*
X148539700Y-86700000D01*
X135850000Y-86690000D02*
X134639700Y-86690000D01*
X135850000Y-77800000D02*
X134639700Y-77800000D01*
X167659700Y-60931500D02*
X167659700Y-60020000D01*
X168018000Y-63944300D02*
X167659700Y-63586000D01*
X167659700Y-63586000D02*
X167659700Y-60931500D01*
X159920300Y-60020000D02*
X160831800Y-60931500D01*
X160831800Y-60931500D02*
X167659700Y-60931500D01*
X179030000Y-60020000D02*
X180240300Y-60020000D01*
X187939700Y-60930300D02*
X187939700Y-60020000D01*
X180240300Y-60020000D02*
X181150600Y-60930300D01*
X181150600Y-60930300D02*
X187939700Y-60930300D01*
X200620000Y-60020000D02*
X199409700Y-60020000D01*
X211415000Y-60020000D02*
X212625300Y-60020000D01*
X211415000Y-68910000D02*
X212625300Y-68910000D01*
X212625300Y-68910000D02*
X212625300Y-60020000D01*
X200934000Y-81178400D02*
X200934000Y-82213700D01*
X197989000Y-86690000D02*
X199199300Y-86690000D01*
X189190000Y-75600000D02*
X187979700Y-75600000D01*
X189988000Y-66510700D02*
X189436600Y-66510700D01*
X187979700Y-75600000D02*
X187979700Y-70709400D01*
X187979700Y-70709400D02*
X189436600Y-69252500D01*
X189436600Y-69252500D02*
X189436600Y-66510700D01*
X180300000Y-75600000D02*
X181510300Y-75600000D01*
X180300000Y-84600000D02*
X181510300Y-84600000D01*
X181710300Y-114100000D02*
X181710300Y-123850000D01*
X180500000Y-123850000D02*
X181710300Y-123850000D01*
X180500000Y-132600000D02*
X181710300Y-132600000D01*
X189420000Y-139000000D02*
X189420000Y-140260300D01*
X190750000Y-148100000D02*
X191960300Y-148100000D01*
X191960300Y-148100000D02*
X191960300Y-142800600D01*
X191960300Y-142800600D02*
X189420000Y-140260300D01*
X167500000Y-148100000D02*
X166289700Y-148100000D01*
X166289700Y-148100000D02*
X165379400Y-147189700D01*
X165379400Y-147189700D02*
X162873800Y-147189700D01*
X162873800Y-147189700D02*
X161271400Y-145587300D01*
X161271400Y-145587300D02*
X161271400Y-142528600D01*
X161271400Y-142528600D02*
X162900000Y-140900000D01*
X157500000Y-132600000D02*
X158710300Y-132600000D01*
X158710300Y-132600000D02*
X158710300Y-138589700D01*
X158710300Y-138589700D02*
X156400000Y-140900000D01*
X168040300Y-123850000D02*
X168040300Y-114100000D01*
X166830000Y-114100000D02*
X168040300Y-114100000D01*
X166830000Y-104350000D02*
X168040300Y-104350000D01*
X168040300Y-104350000D02*
X168040300Y-114100000D01*
X169814000Y-88392000D02*
X169814000Y-92826300D01*
X169814000Y-92826300D02*
X168040300Y-94600000D01*
X169814000Y-87874300D02*
X169814000Y-88392000D01*
X169814000Y-87874300D02*
X169814000Y-87356700D01*
X169814000Y-87356700D02*
X169814000Y-86373700D01*
X169814000Y-86373700D02*
X168040300Y-84600000D01*
X170392700Y-129966000D02*
X168040300Y-132318400D01*
X168040300Y-132318400D02*
X168040300Y-132600000D01*
X170392700Y-129966000D02*
X170910300Y-129966000D01*
X169875000Y-129966000D02*
X170392700Y-129966000D01*
X175411000Y-137973000D02*
X175411000Y-137464000D01*
X141458000Y-81330800D02*
X141458000Y-80295500D01*
X197786000Y-75600000D02*
X198996300Y-75600000D01*
X200934000Y-81178400D02*
X200934000Y-77537700D01*
X200934000Y-77537700D02*
X198996300Y-75600000D01*
X172389000Y-129947000D02*
X170929300Y-129947000D01*
X170929300Y-129947000D02*
X170910300Y-129966000D01*
X189420000Y-139000000D02*
X189420000Y-137739700D01*
X189420000Y-137739700D02*
X189249700Y-137569400D01*
X189249700Y-137569400D02*
X189249700Y-132600000D01*
X157000000Y-148100000D02*
X155789700Y-148100000D01*
X156400000Y-140900000D02*
X155789700Y-141510300D01*
X155789700Y-141510300D02*
X155789700Y-148100000D01*
X147280000Y-60020000D02*
X146069700Y-60020000D01*
X145719300Y-64744600D02*
X145719300Y-60370400D01*
X145719300Y-60370400D02*
X146069700Y-60020000D01*
X175411000Y-140514000D02*
X175411000Y-137973000D01*
X175411000Y-137973000D02*
X177526700Y-137973000D01*
X178562000Y-137973000D02*
X177526700Y-137973000D01*
X173736000Y-138989000D02*
X172061000Y-138989000D01*
X175411000Y-140514000D02*
X173886000Y-138989000D01*
X173886000Y-138989000D02*
X173736000Y-138989000D01*
X172061000Y-138989000D02*
X172061000Y-140514000D01*
X189150000Y-60020000D02*
X187939700Y-60020000D01*
X189988000Y-67771000D02*
X189988000Y-66510700D01*
X168018000Y-64979600D02*
X168018000Y-63944300D01*
X168870000Y-60020000D02*
X167659700Y-60020000D01*
X168018000Y-64979600D02*
X168018000Y-67479600D01*
X165911500Y-134123700D02*
X165911500Y-134164100D01*
X165911500Y-134164100D02*
X164998400Y-135077200D01*
X164998400Y-135077200D02*
X164998400Y-137820400D01*
X166167000Y-138989000D02*
X173736000Y-138989000D01*
X164998400Y-137820400D02*
X166167000Y-138989000D01*
G04 #@! TO.N,+5V*
X137125500Y-56820000D02*
X137125500Y-57460200D01*
X137125500Y-57460200D02*
X135793800Y-58791900D01*
X135793800Y-58791900D02*
X135144500Y-58791900D01*
X135144500Y-58791900D02*
X134639600Y-59296800D01*
X134639600Y-59296800D02*
X134639600Y-60726200D01*
X134639600Y-60726200D02*
X137844800Y-63931400D01*
X137844800Y-63931400D02*
X141410700Y-63931400D01*
X141410700Y-63931400D02*
X142876400Y-65397100D01*
X142876400Y-65397100D02*
X142876400Y-68554600D01*
X132060300Y-56820000D02*
X132970600Y-55909700D01*
X132970600Y-55909700D02*
X136898000Y-55909700D01*
X136898000Y-55909700D02*
X137125500Y-56137200D01*
X137125500Y-56137200D02*
X137125500Y-56820000D01*
X137125500Y-56820000D02*
X141069700Y-56820000D01*
X142128400Y-68554600D02*
X142128400Y-68554600D01*
X183070000Y-133537200D02*
X179482300Y-133537200D01*
X179482300Y-133537200D02*
X178679300Y-132734200D01*
X178679300Y-132734200D02*
X178679300Y-129064300D01*
X178679300Y-129064300D02*
X174289700Y-124674700D01*
X174289700Y-124674700D02*
X174289700Y-120650000D01*
X192786000Y-72400000D02*
X191575700Y-72400000D01*
X191577500Y-68502300D02*
X191575700Y-68504100D01*
X191575700Y-68504100D02*
X191575700Y-72400000D01*
X183574700Y-72400000D02*
X185621200Y-70353500D01*
X185621200Y-70353500D02*
X186112800Y-70353500D01*
X183574700Y-72400000D02*
X182979700Y-72400000D01*
X184190000Y-72400000D02*
X183574700Y-72400000D01*
X142280000Y-56820000D02*
X141069700Y-56820000D01*
X130850000Y-56820000D02*
X132060300Y-56820000D01*
X130244900Y-56820000D02*
X130850000Y-56820000D01*
X130244900Y-56820000D02*
X129639700Y-56820000D01*
X130397500Y-83490000D02*
X130850000Y-83490000D01*
X130397500Y-83490000D02*
X129639700Y-83490000D01*
X129639700Y-65710000D02*
X129639700Y-71882000D01*
X129792300Y-65710000D02*
X129639700Y-65710000D01*
X130850000Y-65710000D02*
X129792300Y-65710000D01*
X153710000Y-56820000D02*
X152499700Y-56820000D01*
X142280000Y-56820000D02*
X143490300Y-56820000D01*
X143490300Y-56820000D02*
X144400600Y-55909700D01*
X144400600Y-55909700D02*
X151589400Y-55909700D01*
X151589400Y-55909700D02*
X152499700Y-56820000D01*
X180952600Y-56811200D02*
X180961400Y-56820000D01*
X180961400Y-56820000D02*
X182939700Y-56820000D01*
X175240300Y-56820000D02*
X176150600Y-55909700D01*
X176150600Y-55909700D02*
X180051100Y-55909700D01*
X180051100Y-55909700D02*
X180952600Y-56811200D01*
X180952600Y-56811200D02*
X179343800Y-58420000D01*
X179343800Y-58420000D02*
X178741700Y-58420000D01*
X178741700Y-58420000D02*
X177800000Y-59361700D01*
X177800000Y-59361700D02*
X177800000Y-64720900D01*
X174030000Y-56820000D02*
X175240300Y-56820000D01*
X173424900Y-56820000D02*
X174030000Y-56820000D01*
X173424900Y-56820000D02*
X172819700Y-56820000D01*
X163870000Y-56820000D02*
X165080300Y-56820000D01*
X172819700Y-56820000D02*
X171909400Y-55909700D01*
X171909400Y-55909700D02*
X165990600Y-55909700D01*
X165990600Y-55909700D02*
X165080300Y-56820000D01*
X206415000Y-56820000D02*
X205204700Y-56820000D01*
X204307600Y-59109600D02*
X204307600Y-64812900D01*
X204307600Y-64812900D02*
X205204700Y-65710000D01*
X205204700Y-56820000D02*
X205204700Y-58212500D01*
X205204700Y-58212500D02*
X204307600Y-59109600D01*
X194409700Y-59109600D02*
X204307600Y-59109600D01*
X194409700Y-59109600D02*
X194409700Y-71986600D01*
X194409700Y-71986600D02*
X193996300Y-72400000D01*
X194409700Y-56820000D02*
X194409700Y-59109600D01*
X205204700Y-74600000D02*
X205204700Y-65710000D01*
X205357300Y-74600000D02*
X205204700Y-74600000D01*
X206415000Y-74600000D02*
X205357300Y-74600000D01*
X206415000Y-65710000D02*
X205204700Y-65710000D01*
X184150000Y-56820000D02*
X182939700Y-56820000D01*
X174089700Y-81400000D02*
X174089700Y-73202800D01*
X174242300Y-81400000D02*
X174089700Y-81400000D01*
X175300000Y-81400000D02*
X174242300Y-81400000D01*
X174494900Y-101150000D02*
X174289700Y-100944800D01*
X174289700Y-100944800D02*
X174289700Y-91400000D01*
X174494900Y-101150000D02*
X174289700Y-101150000D01*
X175500000Y-101150000D02*
X174494900Y-101150000D01*
X174289700Y-110900000D02*
X174289700Y-101150000D01*
X174442300Y-110900000D02*
X174289700Y-110900000D01*
X175500000Y-110900000D02*
X174442300Y-110900000D01*
X183070000Y-133537200D02*
X183070000Y-130579700D01*
X183070000Y-130579700D02*
X184249700Y-129400000D01*
X183070000Y-142548300D02*
X183070000Y-133537200D01*
X184539700Y-144900000D02*
X183070000Y-143430300D01*
X183070000Y-143430300D02*
X183070000Y-142548300D01*
X183070000Y-142548300D02*
X178562000Y-142548300D01*
X185460000Y-129400000D02*
X184249700Y-129400000D01*
X152500000Y-129400000D02*
X151289700Y-129400000D01*
X152000000Y-144900000D02*
X150789700Y-144900000D01*
X150789700Y-144900000D02*
X150789700Y-129900000D01*
X150789700Y-129900000D02*
X151289700Y-129400000D01*
X162000000Y-72400000D02*
X163210300Y-72400000D01*
X161224900Y-81400000D02*
X163210300Y-79414600D01*
X163210300Y-79414600D02*
X163210300Y-72400000D01*
X161224900Y-81400000D02*
X160619700Y-81400000D01*
X161830000Y-81400000D02*
X161224900Y-81400000D01*
X160619700Y-110900000D02*
X160619700Y-120650000D01*
X160772300Y-110900000D02*
X160619700Y-110900000D01*
X161830000Y-110900000D02*
X160772300Y-110900000D01*
X160619700Y-101150000D02*
X160619700Y-110900000D01*
X160772300Y-101150000D02*
X160619700Y-101150000D01*
X161830000Y-101150000D02*
X160772300Y-101150000D01*
X138958000Y-82213500D02*
X138958000Y-82854800D01*
X138958000Y-83500000D02*
X143539700Y-83500000D01*
X138958000Y-81848400D02*
X138958000Y-82213500D01*
X153500000Y-72400000D02*
X152289700Y-72400000D01*
X144750000Y-72400000D02*
X145960300Y-72400000D01*
X145960300Y-72400000D02*
X146870600Y-71489700D01*
X146870600Y-71489700D02*
X151379400Y-71489700D01*
X151379400Y-71489700D02*
X152289700Y-72400000D01*
X144144900Y-72400000D02*
X144750000Y-72400000D01*
X144144900Y-72400000D02*
X143539700Y-72400000D01*
X204014200Y-81178400D02*
X204014200Y-80010000D01*
X204014200Y-75790500D02*
X205204700Y-74600000D01*
X204014200Y-81178400D02*
X204594300Y-81178400D01*
X203434000Y-81178400D02*
X204014200Y-81178400D01*
X138958000Y-81330800D02*
X138958000Y-79857600D01*
X138958000Y-76981700D02*
X143539700Y-72400000D01*
X142128400Y-68554600D02*
X142128400Y-70988700D01*
X142128400Y-70988700D02*
X143539700Y-72400000D01*
X138958000Y-81848400D02*
X138958000Y-81330800D01*
X130850000Y-74600000D02*
X129639700Y-74600000D01*
X129639700Y-74600000D02*
X129639700Y-83490000D01*
X129639700Y-56820000D02*
X129639700Y-65710000D01*
X163870000Y-56820000D02*
X162659700Y-56820000D01*
X153710000Y-56820000D02*
X154920300Y-56820000D01*
X154920300Y-56820000D02*
X155830600Y-55909700D01*
X155830600Y-55909700D02*
X161749400Y-55909700D01*
X161749400Y-55909700D02*
X162659700Y-56820000D01*
X177800000Y-65481200D02*
X177800000Y-64720900D01*
X195620000Y-56820000D02*
X194409700Y-56820000D01*
X192786000Y-72400000D02*
X193996300Y-72400000D01*
X192989000Y-83490000D02*
X194199300Y-83490000D01*
X194199300Y-83490000D02*
X194199300Y-72603000D01*
X194199300Y-72603000D02*
X193996300Y-72400000D01*
X175300000Y-72400000D02*
X176510300Y-72400000D01*
X177800000Y-65481200D02*
X177800000Y-66241500D01*
X177800000Y-66241500D02*
X177324800Y-66241500D01*
X177324800Y-66241500D02*
X176510300Y-67056000D01*
X176510300Y-67056000D02*
X176510300Y-72400000D01*
X181107700Y-65231000D02*
X180857500Y-65481200D01*
X180857500Y-65481200D02*
X177800000Y-65481200D01*
X174089700Y-81400000D02*
X174089700Y-87223600D01*
X174089700Y-87776600D02*
X173474300Y-88392000D01*
X175500000Y-120650000D02*
X174289700Y-120650000D01*
X174289700Y-110900000D02*
X174289700Y-120650000D01*
X178562000Y-140473000D02*
X179597300Y-140473000D01*
X175500000Y-129400000D02*
X177346400Y-131246400D01*
X177346400Y-131246400D02*
X177346400Y-134183900D01*
X177346400Y-134183900D02*
X179597300Y-136434800D01*
X179597300Y-136434800D02*
X179597300Y-140473000D01*
X185750000Y-144900000D02*
X184539700Y-144900000D01*
X178562000Y-142548300D02*
X176210300Y-144900000D01*
X178562000Y-141633300D02*
X178562000Y-142548300D01*
X166680900Y-141269000D02*
X167956700Y-142544800D01*
X170311900Y-144900000D02*
X175000000Y-144900000D01*
X166680900Y-141269000D02*
X165925700Y-141269000D01*
X167436000Y-141269000D02*
X166680900Y-141269000D01*
X152500000Y-129400000D02*
X153710300Y-129400000D01*
X160619700Y-128489600D02*
X160619700Y-129400000D01*
X160619700Y-120650000D02*
X160619700Y-128489600D01*
X153710300Y-129400000D02*
X154620700Y-128489600D01*
X154620700Y-128489600D02*
X159715200Y-128489600D01*
X161830000Y-129400000D02*
X160619700Y-129400000D01*
X161830000Y-120650000D02*
X160619700Y-120650000D01*
X160619700Y-101150000D02*
X160619700Y-91400000D01*
X161830000Y-91400000D02*
X160619700Y-91400000D01*
X160619700Y-81400000D02*
X160619700Y-87833200D01*
X162000000Y-72400000D02*
X160789700Y-72400000D01*
X153500000Y-72400000D02*
X154710300Y-72400000D01*
X154710300Y-72400000D02*
X155620600Y-71489700D01*
X155620600Y-71489700D02*
X159879400Y-71489700D01*
X159879400Y-71489700D02*
X160789700Y-72400000D01*
X175300000Y-72400000D02*
X174089700Y-72400000D01*
X172375000Y-69951600D02*
X173535300Y-69951600D01*
X173535300Y-69951600D02*
X173535300Y-71526400D01*
X173535300Y-71845600D02*
X174089700Y-72400000D01*
X175500000Y-91400000D02*
X174289700Y-91400000D01*
X172314000Y-88392000D02*
X173474300Y-88392000D01*
X173474300Y-88392000D02*
X173474300Y-89865200D01*
X173474300Y-90584600D02*
X174289700Y-91400000D01*
X175000000Y-144900000D02*
X176210300Y-144900000D01*
X178562000Y-140473000D02*
X178562000Y-141633300D01*
X144750000Y-83500000D02*
X143539700Y-83500000D01*
X206375000Y-83490000D02*
X205164700Y-83490000D01*
X204594300Y-81178400D02*
X204594300Y-82296000D01*
X204594300Y-82919600D02*
X205164700Y-83490000D01*
X162500000Y-144900000D02*
X163710300Y-144900000D01*
X165925700Y-141269000D02*
X165925700Y-142684600D01*
X165925700Y-142684600D02*
X163710300Y-144900000D01*
X182368000Y-65231000D02*
X182368000Y-66491300D01*
X182368000Y-66491300D02*
X183392000Y-66491300D01*
X183392000Y-66491300D02*
X183628300Y-66727600D01*
X183628300Y-66727600D02*
X183628300Y-70841100D01*
X183628300Y-70841100D02*
X182979700Y-71489700D01*
X182979700Y-71489700D02*
X182979700Y-72400000D01*
X181737900Y-65231000D02*
X182368000Y-65231000D01*
X181737900Y-65231000D02*
X181107700Y-65231000D01*
X139134000Y-68554600D02*
X142128400Y-68554600D01*
X174089700Y-87223600D02*
X174089700Y-87776600D01*
X204014200Y-80010000D02*
X204014200Y-75790500D01*
X174089700Y-73202800D02*
X174089700Y-72400000D01*
X142128400Y-68554600D02*
X142876400Y-68554600D01*
X178562000Y-142548300D02*
X178562000Y-142548300D01*
X167956700Y-142544800D02*
X170311900Y-144900000D01*
X165925700Y-142684600D02*
X165925700Y-142684600D01*
X138958000Y-82854800D02*
X138958000Y-83500000D01*
X138958000Y-79857600D02*
X138958000Y-76981700D01*
X173535300Y-71526400D02*
X173535300Y-71845600D01*
X204594300Y-82296000D02*
X204594300Y-82919600D01*
X173474300Y-89865200D02*
X173474300Y-90584600D01*
X160619700Y-87833200D02*
X160619700Y-91400000D01*
X129639700Y-71882000D02*
X129639700Y-74600000D01*
X159715200Y-128489600D02*
X160619700Y-128489600D01*
X180961400Y-56820000D02*
X180961400Y-56820000D01*
G04 #@! TO.N,Net-(U1-Pad2)*
X130850000Y-86690000D02*
X132060300Y-86690000D01*
X135850000Y-74600000D02*
X134639700Y-74600000D01*
X134639700Y-74600000D02*
X134029300Y-75210400D01*
X134029300Y-75210400D02*
X134029300Y-84721000D01*
X134029300Y-84721000D02*
X132060300Y-86690000D01*
G04 #@! TO.N,DIN*
X139134000Y-66014600D02*
X141179200Y-66014600D01*
X141179200Y-66014600D02*
X141867100Y-65326700D01*
X139134000Y-66014600D02*
X137959000Y-66014600D01*
X137959000Y-66014600D02*
X137516000Y-66457600D01*
X137516000Y-66457600D02*
X137516000Y-80924400D01*
X137516000Y-80924400D02*
X135850000Y-82590000D01*
X135850000Y-82590000D02*
X135850000Y-83490000D01*
G04 #@! TO.N,Net-(U2-Pad2)*
X135850000Y-65710000D02*
X134639700Y-65710000D01*
X130850000Y-77800000D02*
X132060300Y-77800000D01*
X132060300Y-77800000D02*
X132670700Y-77189600D01*
X132670700Y-77189600D02*
X132670700Y-67679000D01*
X132670700Y-67679000D02*
X134639700Y-65710000D01*
G04 #@! TO.N,Net-(U3-Pad2)*
X130850000Y-68910000D02*
X132060300Y-68910000D01*
X135850000Y-56820000D02*
X134639700Y-56820000D01*
X134639700Y-56820000D02*
X132060300Y-59399400D01*
X132060300Y-59399400D02*
X132060300Y-68910000D01*
G04 #@! TO.N,Net-(U4-Pad2)*
X147280000Y-56820000D02*
X146069700Y-56820000D01*
X146755500Y-58114800D02*
X146625600Y-58114800D01*
X146625600Y-58114800D02*
X146069700Y-57558900D01*
X146069700Y-57558900D02*
X146069700Y-56820000D01*
X130850000Y-60020000D02*
X131364300Y-60534300D01*
X131364300Y-60534300D02*
X131364300Y-64653200D01*
G04 #@! TO.N,Net-(U5-Pad2)*
X142280000Y-60020000D02*
X143490300Y-60020000D01*
X158710000Y-56820000D02*
X157499700Y-56820000D01*
X157499700Y-56820000D02*
X155210000Y-59109700D01*
X155210000Y-59109700D02*
X144400600Y-59109700D01*
X144400600Y-59109700D02*
X143490300Y-60020000D01*
G04 #@! TO.N,Net-(U6-Pad2)*
X168870000Y-56820000D02*
X167659700Y-56820000D01*
X167659700Y-56820000D02*
X166749400Y-57730300D01*
X166749400Y-57730300D02*
X158494700Y-57730300D01*
X158494700Y-57730300D02*
X156205000Y-60020000D01*
X156205000Y-60020000D02*
X153710000Y-60020000D01*
G04 #@! TO.N,Net-(U7-Pad2)*
X163870000Y-60020000D02*
X165080300Y-60020000D01*
X165080300Y-60020000D02*
X165990600Y-59109700D01*
X165990600Y-59109700D02*
X174700700Y-59109700D01*
X174700700Y-59109700D02*
X176990400Y-56820000D01*
X176990400Y-56820000D02*
X179030000Y-56820000D01*
G04 #@! TO.N,Net-(U8-Pad2)*
X189150000Y-56820000D02*
X190360300Y-56820000D01*
X174030000Y-60020000D02*
X175240300Y-60020000D01*
X176085900Y-60405700D02*
X175626000Y-60405700D01*
X175626000Y-60405700D02*
X175240300Y-60020000D01*
X190360300Y-56820000D02*
X190360300Y-61729400D01*
X190360300Y-61729400D02*
X189223500Y-62866200D01*
G04 #@! TO.N,Net-(U10-Pad4)*
X184150000Y-60020000D02*
X185360300Y-60020000D01*
X200620000Y-56820000D02*
X199409700Y-56820000D01*
X199409700Y-56820000D02*
X198499400Y-55909700D01*
X198499400Y-55909700D02*
X188166500Y-55909700D01*
X188166500Y-55909700D02*
X185360300Y-58715900D01*
X185360300Y-58715900D02*
X185360300Y-60020000D01*
G04 #@! TO.N,Net-(U10-Pad2)*
X195620000Y-60020000D02*
X196830300Y-60020000D01*
X211415000Y-56820000D02*
X210204700Y-56820000D01*
X209848800Y-57017500D02*
X210007200Y-57017500D01*
X210007200Y-57017500D02*
X210204700Y-56820000D01*
X196830300Y-60020000D02*
X196830300Y-60714300D01*
X196830300Y-60714300D02*
X196466600Y-61078000D01*
X196466600Y-61078000D02*
X195735700Y-61078000D01*
G04 #@! TO.N,Net-(U11-Pad2)*
X206415000Y-60020000D02*
X207625300Y-60020000D01*
X211415000Y-65710000D02*
X210204700Y-65710000D01*
X210204700Y-65710000D02*
X210204700Y-62599400D01*
X210204700Y-62599400D02*
X207625300Y-60020000D01*
G04 #@! TO.N,Net-(U12-Pad2)*
X206415000Y-68910000D02*
X207625300Y-68910000D01*
X211415000Y-74600000D02*
X210204700Y-74600000D01*
X210204700Y-74600000D02*
X210204700Y-71489400D01*
X210204700Y-71489400D02*
X207625300Y-68910000D01*
G04 #@! TO.N,Net-(U13-Pad2)*
X206415000Y-77800000D02*
X207625300Y-77800000D01*
X211375000Y-83490000D02*
X210164700Y-83490000D01*
X210164700Y-83490000D02*
X210164700Y-80339400D01*
X210164700Y-80339400D02*
X207625300Y-77800000D01*
G04 #@! TO.N,Net-(U14-Pad2)*
X206375000Y-86690000D02*
X205164700Y-86690000D01*
X205164700Y-86690000D02*
X204254400Y-87600300D01*
X204254400Y-87600300D02*
X196911900Y-87600300D01*
X196911900Y-87600300D02*
X196778600Y-87467000D01*
X196778600Y-87467000D02*
X196778600Y-85695400D01*
X196778600Y-85695400D02*
X197989000Y-84485000D01*
X197989000Y-84485000D02*
X197989000Y-83490000D01*
G04 #@! TO.N,Net-(U15-Pad2)*
X197786000Y-72400000D02*
X196575700Y-72400000D01*
X192989000Y-86690000D02*
X194199300Y-86690000D01*
X194199300Y-86690000D02*
X196575700Y-84313600D01*
X196575700Y-84313600D02*
X196575700Y-72400000D01*
G04 #@! TO.N,Net-(U16-Pad2)*
X192786000Y-75600000D02*
X191575700Y-75600000D01*
X189190000Y-72400000D02*
X190400300Y-72400000D01*
X190400300Y-72400000D02*
X190400300Y-74424600D01*
X190400300Y-74424600D02*
X191575700Y-75600000D01*
G04 #@! TO.N,Net-(U17-Pad2)*
X180300000Y-72400000D02*
X181510300Y-72400000D01*
X184190000Y-75600000D02*
X182979700Y-75600000D01*
X182979700Y-75600000D02*
X182979700Y-73869400D01*
X182979700Y-73869400D02*
X181510300Y-72400000D01*
G04 #@! TO.N,Net-(U18-Pad2)*
X175300000Y-75600000D02*
X176510300Y-75600000D01*
X180300000Y-81400000D02*
X179089700Y-81400000D01*
X179089700Y-81400000D02*
X179089700Y-78179400D01*
X179089700Y-78179400D02*
X176510300Y-75600000D01*
G04 #@! TO.N,Net-(U19-Pad2)*
X180500000Y-91400000D02*
X179289700Y-91400000D01*
X175300000Y-84600000D02*
X176510300Y-84600000D01*
X176510300Y-84600000D02*
X176510300Y-88620600D01*
X176510300Y-88620600D02*
X179289700Y-91400000D01*
G04 #@! TO.N,Net-(U20-Pad2)*
X175500000Y-94600000D02*
X176710300Y-94600000D01*
X180500000Y-101150000D02*
X179289700Y-101150000D01*
X179289700Y-101150000D02*
X179289700Y-97179400D01*
X179289700Y-97179400D02*
X176710300Y-94600000D01*
G04 #@! TO.N,Net-(U21-Pad2)*
X175500000Y-104350000D02*
X176710300Y-104350000D01*
X180500000Y-110900000D02*
X179289700Y-110900000D01*
X179289700Y-110900000D02*
X179289700Y-106929400D01*
X179289700Y-106929400D02*
X176710300Y-104350000D01*
G04 #@! TO.N,Net-(U22-Pad2)*
X180500000Y-120650000D02*
X179289700Y-120650000D01*
X175500000Y-114100000D02*
X176710300Y-114100000D01*
X176710300Y-114100000D02*
X176710300Y-118070600D01*
X176710300Y-118070600D02*
X179289700Y-120650000D01*
G04 #@! TO.N,Net-(U23-Pad2)*
X175500000Y-123850000D02*
X176710300Y-123850000D01*
X180500000Y-129400000D02*
X179289700Y-129400000D01*
X179289700Y-129400000D02*
X179289700Y-126429400D01*
X179289700Y-126429400D02*
X176710300Y-123850000D01*
G04 #@! TO.N,Net-(U24-Pad2)*
X175500000Y-132600000D02*
X176710300Y-132600000D01*
X190460000Y-129400000D02*
X189249700Y-129400000D01*
X188306900Y-129299700D02*
X189149400Y-129299700D01*
X189149400Y-129299700D02*
X189249700Y-129400000D01*
X176710300Y-132600000D02*
X176710300Y-131890900D01*
X176710300Y-131890900D02*
X176234300Y-131414900D01*
X176234300Y-131414900D02*
X175905200Y-131414900D01*
G04 #@! TO.N,Net-(U25-Pad2)*
X185460000Y-132600000D02*
X186670300Y-132600000D01*
X190750000Y-144900000D02*
X189539700Y-144900000D01*
X189539700Y-144900000D02*
X188153700Y-143514000D01*
X188153700Y-143514000D02*
X188153700Y-134083400D01*
X188153700Y-134083400D02*
X186670300Y-132600000D01*
G04 #@! TO.N,Net-(U26-Pad2)*
X185750000Y-148100000D02*
X184539700Y-148100000D01*
X184539700Y-148100000D02*
X181339700Y-144900000D01*
X181339700Y-144900000D02*
X180000000Y-144900000D01*
G04 #@! TO.N,Net-(U27-Pad2)*
X167500000Y-144900000D02*
X168710300Y-144900000D01*
X168710300Y-144900000D02*
X171910300Y-148100000D01*
X171910300Y-148100000D02*
X175000000Y-148100000D01*
G04 #@! TO.N,Net-(U28-Pad2)*
X162500000Y-148100000D02*
X161289700Y-148100000D01*
X157000000Y-144900000D02*
X158210300Y-144900000D01*
X161289700Y-148100000D02*
X161289700Y-147979400D01*
X161289700Y-147979400D02*
X158210300Y-144900000D01*
G04 #@! TO.N,Net-(U29-Pad2)*
X152000000Y-148100000D02*
X153210300Y-148100000D01*
X157500000Y-129400000D02*
X156289700Y-129400000D01*
X156289700Y-129400000D02*
X154989600Y-130700100D01*
X154989600Y-130700100D02*
X154989600Y-146320700D01*
X154989600Y-146320700D02*
X153210300Y-148100000D01*
G04 #@! TO.N,Net-(U30-Pad2)*
X152500000Y-132600000D02*
X153710300Y-132600000D01*
X165439400Y-133342900D02*
X165439400Y-131861700D01*
X165439400Y-131861700D02*
X166830000Y-130471100D01*
X166830000Y-130471100D02*
X166830000Y-129400000D01*
X153710300Y-132600000D02*
X153710300Y-132279800D01*
X153710300Y-132279800D02*
X154044800Y-131945300D01*
G04 #@! TO.N,Net-(U31-Pad2)*
X161830000Y-132600000D02*
X163040300Y-132600000D01*
X166830000Y-120650000D02*
X165619700Y-120650000D01*
X165619700Y-120650000D02*
X165619700Y-130020600D01*
X165619700Y-130020600D02*
X163040300Y-132600000D01*
G04 #@! TO.N,Net-(U32-Pad2)*
X166830000Y-110900000D02*
X165619700Y-110900000D01*
X161830000Y-123850000D02*
X163040300Y-123850000D01*
X163040300Y-123850000D02*
X164540400Y-122349900D01*
X164540400Y-122349900D02*
X164540400Y-111979300D01*
X164540400Y-111979300D02*
X165619700Y-110900000D01*
G04 #@! TO.N,Net-(U33-Pad2)*
X161830000Y-114100000D02*
X163040300Y-114100000D01*
X163040300Y-114100000D02*
X163040300Y-106010800D01*
X163040300Y-106010800D02*
X166830000Y-102221100D01*
X166830000Y-102221100D02*
X166830000Y-101150000D01*
G04 #@! TO.N,Net-(U34-Pad2)*
X166830000Y-91400000D02*
X165619700Y-91400000D01*
X161830000Y-104350000D02*
X163040300Y-104350000D01*
X163040300Y-104350000D02*
X165619700Y-101770600D01*
X165619700Y-101770600D02*
X165619700Y-91400000D01*
G04 #@! TO.N,Net-(U35-Pad2)*
X161830000Y-94600000D02*
X163040300Y-94600000D01*
X166830000Y-81400000D02*
X164119600Y-84110400D01*
X164119600Y-84110400D02*
X164119600Y-93520700D01*
X164119600Y-93520700D02*
X163040300Y-94600000D01*
G04 #@! TO.N,Net-(U36-Pad2)*
X167000000Y-72400000D02*
X168210300Y-72400000D01*
X161830000Y-84600000D02*
X163040300Y-84600000D01*
X163040300Y-84600000D02*
X163040300Y-83289100D01*
X163040300Y-83289100D02*
X168210300Y-78119100D01*
X168210300Y-78119100D02*
X168210300Y-72400000D01*
G04 #@! TO.N,Net-(U37-Pad2)*
X162000000Y-75600000D02*
X160789700Y-75600000D01*
X158500000Y-72400000D02*
X159710300Y-72400000D01*
X159710300Y-72400000D02*
X159710300Y-74520600D01*
X159710300Y-74520600D02*
X160789700Y-75600000D01*
G04 #@! TO.N,Net-(U38-Pad2)*
X149750000Y-72400000D02*
X150960300Y-72400000D01*
X153500000Y-75600000D02*
X152289700Y-75600000D01*
X152289700Y-75600000D02*
X152289700Y-73729400D01*
X152289700Y-73729400D02*
X150960300Y-72400000D01*
G04 #@! TO.N,+BATT*
X172389000Y-132447000D02*
X173424300Y-132447000D01*
X171200000Y-99800000D02*
X169498900Y-101501100D01*
X169498900Y-101501100D02*
X169498900Y-123421900D01*
X169498900Y-123421900D02*
X173424300Y-127347300D01*
X173424300Y-127347300D02*
X173424300Y-132447000D01*
X167890700Y-136709000D02*
X167436000Y-136709000D01*
X167890700Y-136709000D02*
X168946300Y-136709000D01*
X169875000Y-132466000D02*
X170910300Y-132466000D01*
X172389000Y-132447000D02*
X170929300Y-132447000D01*
X170929300Y-132447000D02*
X170910300Y-132466000D01*
X169875000Y-132466000D02*
X169875000Y-133626300D01*
X168946300Y-136709000D02*
X168946300Y-134555000D01*
X168946300Y-134555000D02*
X169875000Y-133626300D01*
G04 #@! TO.N,Net-(J1-Pad2)*
X171200000Y-119300000D02*
X171200000Y-123452500D01*
X171200000Y-123452500D02*
X173542700Y-125795200D01*
X173542700Y-125795200D02*
X173781600Y-125795200D01*
X173781600Y-125795200D02*
X178000000Y-130013600D01*
X178000000Y-130013600D02*
X178000000Y-133939700D01*
X178000000Y-133939700D02*
X181800000Y-137739700D01*
X181800000Y-139000000D02*
X181800000Y-137739700D01*
G04 #@! TO.N,BTN*
X171197500Y-65354700D02*
X171153600Y-65398600D01*
X171153600Y-65398600D02*
X171153600Y-94129300D01*
X171153600Y-94129300D02*
X173485800Y-96461500D01*
X173485800Y-96461500D02*
X173485800Y-124804600D01*
X173485800Y-124804600D02*
X173816100Y-125134900D01*
X139134000Y-67284600D02*
X140319300Y-67284600D01*
X141867100Y-67455800D02*
X140490500Y-67455800D01*
X140490500Y-67455800D02*
X140319300Y-67284600D01*
G04 #@! TO.N,Net-(U39-Pad2)*
X144750000Y-76500000D02*
X143408400Y-77841600D01*
X144750000Y-75600000D02*
X144750000Y-76500000D01*
X143408400Y-77841600D02*
X143408400Y-78079600D01*
X149750000Y-79849200D02*
X149750000Y-83500000D01*
X148640800Y-78740000D02*
X149750000Y-79849200D01*
G04 #@! TO.N,PB3*
X164943000Y-67479600D02*
X165990700Y-68527300D01*
X165990700Y-68527300D02*
X166626600Y-68527300D01*
X164943000Y-67479600D02*
X164368000Y-67479600D01*
X164368000Y-67479600D02*
X163725000Y-68122800D01*
X163725000Y-68122800D02*
X154480000Y-68122800D01*
X154480000Y-68122800D02*
X152448000Y-66090800D01*
X152448000Y-66090800D02*
X151198000Y-66090800D01*
X165518000Y-67479600D02*
X164943000Y-67479600D01*
X144534000Y-67284600D02*
X147091000Y-67284600D01*
X147091000Y-67284600D02*
X148285000Y-66090800D01*
X148285000Y-66090800D02*
X151198000Y-66090800D01*
G04 #@! TO.N,PB4*
X165518000Y-64979600D02*
X165518000Y-66014900D01*
X166768000Y-67484300D02*
X166768000Y-66747300D01*
X166768000Y-66747300D02*
X166035600Y-66014900D01*
X166035600Y-66014900D02*
X165518000Y-66014900D01*
X159698000Y-66090800D02*
X162348000Y-66090800D01*
X162348000Y-66090800D02*
X163459000Y-64979600D01*
X163459000Y-64979600D02*
X165518000Y-64979600D01*
X159698000Y-66090800D02*
X157048000Y-66090800D01*
X157048000Y-66090800D02*
X155067000Y-64109600D01*
X155067000Y-64109600D02*
X148082000Y-64109600D01*
X148082000Y-64109600D02*
X146177000Y-66014600D01*
X146177000Y-66014600D02*
X144534000Y-66014600D01*
G04 #@! TO.N,PB0*
X139134000Y-64744600D02*
X141082900Y-64744600D01*
X141082900Y-64744600D02*
X141186000Y-64641500D01*
G04 #@! TO.N,RST*
X182368000Y-67771000D02*
X181107700Y-67771000D01*
X177800000Y-67381200D02*
X180717900Y-67381200D01*
X180717900Y-67381200D02*
X181107700Y-67771000D01*
X145709000Y-68554600D02*
X146902800Y-69748400D01*
X144534000Y-68554600D02*
X145709000Y-68554600D01*
X146902800Y-69748400D02*
X162915600Y-69748400D01*
X182368000Y-69021000D02*
X182368000Y-67771000D01*
X180218200Y-71170800D02*
X182368000Y-69021000D01*
X178257200Y-71170800D02*
X180218200Y-71170800D01*
G04 #@! TD*
D25*
G04 #@! TO.N,GND*
G36*
X178078450Y-145400000D02*
X178163823Y-145829199D01*
X178406944Y-146193056D01*
X178770801Y-146436177D01*
X179091661Y-146500000D01*
X178981196Y-146500000D01*
X178576900Y-146667465D01*
X178267465Y-146976900D01*
X178100000Y-147381197D01*
X178100000Y-147575000D01*
X178375000Y-147850000D01*
X179600000Y-147850000D01*
X179600000Y-147680000D01*
X180400000Y-147680000D01*
X180400000Y-147850000D01*
X181625000Y-147850000D01*
X181900000Y-147575000D01*
X181900000Y-147381197D01*
X181841720Y-147240497D01*
X183529928Y-148928705D01*
X183536806Y-148939000D01*
X181850213Y-148939000D01*
X181900000Y-148818803D01*
X181900000Y-148625000D01*
X181625000Y-148350000D01*
X180400000Y-148350000D01*
X180400000Y-148520000D01*
X179600000Y-148520000D01*
X179600000Y-148350000D01*
X178375000Y-148350000D01*
X178100000Y-148625000D01*
X178100000Y-148818803D01*
X178149787Y-148939000D01*
X176854119Y-148939000D01*
X176921550Y-148600000D01*
X176921550Y-147600000D01*
X176836177Y-147170801D01*
X176593056Y-146806944D01*
X176229199Y-146563823D01*
X175908339Y-146500000D01*
X176229199Y-146436177D01*
X176593056Y-146193056D01*
X176626748Y-146142632D01*
X176717535Y-146124573D01*
X177147547Y-145837247D01*
X177220076Y-145728700D01*
X178078450Y-144870327D01*
X178078450Y-145400000D01*
X178078450Y-145400000D01*
G37*
X178078450Y-145400000D02*
X178163823Y-145829199D01*
X178406944Y-146193056D01*
X178770801Y-146436177D01*
X179091661Y-146500000D01*
X178981196Y-146500000D01*
X178576900Y-146667465D01*
X178267465Y-146976900D01*
X178100000Y-147381197D01*
X178100000Y-147575000D01*
X178375000Y-147850000D01*
X179600000Y-147850000D01*
X179600000Y-147680000D01*
X180400000Y-147680000D01*
X180400000Y-147850000D01*
X181625000Y-147850000D01*
X181900000Y-147575000D01*
X181900000Y-147381197D01*
X181841720Y-147240497D01*
X183529928Y-148928705D01*
X183536806Y-148939000D01*
X181850213Y-148939000D01*
X181900000Y-148818803D01*
X181900000Y-148625000D01*
X181625000Y-148350000D01*
X180400000Y-148350000D01*
X180400000Y-148520000D01*
X179600000Y-148520000D01*
X179600000Y-148350000D01*
X178375000Y-148350000D01*
X178100000Y-148625000D01*
X178100000Y-148818803D01*
X178149787Y-148939000D01*
X176854119Y-148939000D01*
X176921550Y-148600000D01*
X176921550Y-147600000D01*
X176836177Y-147170801D01*
X176593056Y-146806944D01*
X176229199Y-146563823D01*
X175908339Y-146500000D01*
X176229199Y-146436177D01*
X176593056Y-146193056D01*
X176626748Y-146142632D01*
X176717535Y-146124573D01*
X177147547Y-145837247D01*
X177220076Y-145728700D01*
X178078450Y-144870327D01*
X178078450Y-145400000D01*
G36*
X188529926Y-145728702D02*
X188602453Y-145837247D01*
X189032465Y-146124573D01*
X189123252Y-146142632D01*
X189156944Y-146193056D01*
X189520801Y-146436177D01*
X189841661Y-146500000D01*
X189731196Y-146500000D01*
X189326900Y-146667465D01*
X189017465Y-146976900D01*
X188850000Y-147381197D01*
X188850000Y-147575000D01*
X189125000Y-147850000D01*
X190350000Y-147850000D01*
X190350000Y-147680000D01*
X191150000Y-147680000D01*
X191150000Y-147850000D01*
X191170000Y-147850000D01*
X191170000Y-148350000D01*
X191150000Y-148350000D01*
X191150000Y-148520000D01*
X190350000Y-148520000D01*
X190350000Y-148350000D01*
X189125000Y-148350000D01*
X188850000Y-148625000D01*
X188850000Y-148818803D01*
X188899787Y-148939000D01*
X187604119Y-148939000D01*
X187671550Y-148600000D01*
X187671550Y-147600000D01*
X187586177Y-147170801D01*
X187343056Y-146806944D01*
X186979199Y-146563823D01*
X186658339Y-146500000D01*
X186979199Y-146436177D01*
X187343056Y-146193056D01*
X187586177Y-145829199D01*
X187671550Y-145400000D01*
X187671550Y-144870326D01*
X188529926Y-145728702D01*
X188529926Y-145728702D01*
G37*
X188529926Y-145728702D02*
X188602453Y-145837247D01*
X189032465Y-146124573D01*
X189123252Y-146142632D01*
X189156944Y-146193056D01*
X189520801Y-146436177D01*
X189841661Y-146500000D01*
X189731196Y-146500000D01*
X189326900Y-146667465D01*
X189017465Y-146976900D01*
X188850000Y-147381197D01*
X188850000Y-147575000D01*
X189125000Y-147850000D01*
X190350000Y-147850000D01*
X190350000Y-147680000D01*
X191150000Y-147680000D01*
X191150000Y-147850000D01*
X191170000Y-147850000D01*
X191170000Y-148350000D01*
X191150000Y-148350000D01*
X191150000Y-148520000D01*
X190350000Y-148520000D01*
X190350000Y-148350000D01*
X189125000Y-148350000D01*
X188850000Y-148625000D01*
X188850000Y-148818803D01*
X188899787Y-148939000D01*
X187604119Y-148939000D01*
X187671550Y-148600000D01*
X187671550Y-147600000D01*
X187586177Y-147170801D01*
X187343056Y-146806944D01*
X186979199Y-146563823D01*
X186658339Y-146500000D01*
X186979199Y-146436177D01*
X187343056Y-146193056D01*
X187586177Y-145829199D01*
X187671550Y-145400000D01*
X187671550Y-144870326D01*
X188529926Y-145728702D01*
G36*
X160061668Y-148589846D02*
X160065127Y-148607235D01*
X160276902Y-148924177D01*
X160286806Y-148939000D01*
X158850213Y-148939000D01*
X158900000Y-148818803D01*
X158900000Y-148625000D01*
X158625000Y-148350000D01*
X157400000Y-148350000D01*
X157400000Y-148520000D01*
X156600000Y-148520000D01*
X156600000Y-148350000D01*
X155375000Y-148350000D01*
X155100000Y-148625000D01*
X155100000Y-148818803D01*
X155149787Y-148939000D01*
X154213194Y-148939000D01*
X154220076Y-148928700D01*
X155336889Y-147811889D01*
X155375000Y-147850000D01*
X156600000Y-147850000D01*
X156600000Y-147680000D01*
X157400000Y-147680000D01*
X157400000Y-147850000D01*
X158625000Y-147850000D01*
X158900000Y-147575000D01*
X158900000Y-147428177D01*
X160061668Y-148589846D01*
X160061668Y-148589846D01*
G37*
X160061668Y-148589846D02*
X160065127Y-148607235D01*
X160276902Y-148924177D01*
X160286806Y-148939000D01*
X158850213Y-148939000D01*
X158900000Y-148818803D01*
X158900000Y-148625000D01*
X158625000Y-148350000D01*
X157400000Y-148350000D01*
X157400000Y-148520000D01*
X156600000Y-148520000D01*
X156600000Y-148350000D01*
X155375000Y-148350000D01*
X155100000Y-148625000D01*
X155100000Y-148818803D01*
X155149787Y-148939000D01*
X154213194Y-148939000D01*
X154220076Y-148928700D01*
X155336889Y-147811889D01*
X155375000Y-147850000D01*
X156600000Y-147850000D01*
X156600000Y-147680000D01*
X157400000Y-147680000D01*
X157400000Y-147850000D01*
X158625000Y-147850000D01*
X158900000Y-147575000D01*
X158900000Y-147428177D01*
X160061668Y-148589846D01*
G36*
X165578450Y-145400000D02*
X165663823Y-145829199D01*
X165906944Y-146193056D01*
X166270801Y-146436177D01*
X166591661Y-146500000D01*
X166481196Y-146500000D01*
X166076900Y-146667465D01*
X165767465Y-146976900D01*
X165600000Y-147381197D01*
X165600000Y-147575000D01*
X165875000Y-147850000D01*
X167100000Y-147850000D01*
X167100000Y-147680000D01*
X167900000Y-147680000D01*
X167900000Y-147850000D01*
X169125000Y-147850000D01*
X169400000Y-147575000D01*
X169400000Y-147428177D01*
X170900528Y-148928705D01*
X170907406Y-148939000D01*
X169350213Y-148939000D01*
X169400000Y-148818803D01*
X169400000Y-148625000D01*
X169125000Y-148350000D01*
X167900000Y-148350000D01*
X167900000Y-148520000D01*
X167100000Y-148520000D01*
X167100000Y-148350000D01*
X165875000Y-148350000D01*
X165600000Y-148625000D01*
X165600000Y-148818803D01*
X165649787Y-148939000D01*
X164354119Y-148939000D01*
X164421550Y-148600000D01*
X164421550Y-147600000D01*
X164336177Y-147170801D01*
X164093056Y-146806944D01*
X163729199Y-146563823D01*
X163408339Y-146500000D01*
X163729199Y-146436177D01*
X164093056Y-146193056D01*
X164126748Y-146142632D01*
X164217535Y-146124573D01*
X164647547Y-145837247D01*
X164720076Y-145728700D01*
X165578450Y-144870326D01*
X165578450Y-145400000D01*
X165578450Y-145400000D01*
G37*
X165578450Y-145400000D02*
X165663823Y-145829199D01*
X165906944Y-146193056D01*
X166270801Y-146436177D01*
X166591661Y-146500000D01*
X166481196Y-146500000D01*
X166076900Y-146667465D01*
X165767465Y-146976900D01*
X165600000Y-147381197D01*
X165600000Y-147575000D01*
X165875000Y-147850000D01*
X167100000Y-147850000D01*
X167100000Y-147680000D01*
X167900000Y-147680000D01*
X167900000Y-147850000D01*
X169125000Y-147850000D01*
X169400000Y-147575000D01*
X169400000Y-147428177D01*
X170900528Y-148928705D01*
X170907406Y-148939000D01*
X169350213Y-148939000D01*
X169400000Y-148818803D01*
X169400000Y-148625000D01*
X169125000Y-148350000D01*
X167900000Y-148350000D01*
X167900000Y-148520000D01*
X167100000Y-148520000D01*
X167100000Y-148350000D01*
X165875000Y-148350000D01*
X165600000Y-148625000D01*
X165600000Y-148818803D01*
X165649787Y-148939000D01*
X164354119Y-148939000D01*
X164421550Y-148600000D01*
X164421550Y-147600000D01*
X164336177Y-147170801D01*
X164093056Y-146806944D01*
X163729199Y-146563823D01*
X163408339Y-146500000D01*
X163729199Y-146436177D01*
X164093056Y-146193056D01*
X164126748Y-146142632D01*
X164217535Y-146124573D01*
X164647547Y-145837247D01*
X164720076Y-145728700D01*
X165578450Y-144870326D01*
X165578450Y-145400000D01*
G36*
X159682453Y-130337247D02*
X160112465Y-130624573D01*
X160203252Y-130642632D01*
X160236944Y-130693056D01*
X160600801Y-130936177D01*
X160921661Y-131000000D01*
X160600801Y-131063823D01*
X160236944Y-131306944D01*
X159993823Y-131670801D01*
X159908450Y-132100000D01*
X159908450Y-133100000D01*
X159993823Y-133529199D01*
X160236944Y-133893056D01*
X160600801Y-134136177D01*
X161030000Y-134221550D01*
X162630000Y-134221550D01*
X163059199Y-134136177D01*
X163423056Y-133893056D01*
X163456748Y-133842632D01*
X163547535Y-133824573D01*
X163977547Y-133537247D01*
X164050076Y-133428700D01*
X164089400Y-133389376D01*
X164089400Y-133611432D01*
X164294925Y-134107614D01*
X164674686Y-134487375D01*
X165170868Y-134692900D01*
X165707932Y-134692900D01*
X166204114Y-134487375D01*
X166583875Y-134107614D01*
X166789400Y-133611432D01*
X166789400Y-133074368D01*
X166739400Y-132953657D01*
X166739400Y-132400177D01*
X166959577Y-132180000D01*
X167230000Y-132180000D01*
X167230000Y-132350000D01*
X167250000Y-132350000D01*
X167250000Y-132850000D01*
X167230000Y-132850000D01*
X167230000Y-133925000D01*
X167505000Y-134200000D01*
X167691446Y-134200000D01*
X167620833Y-134555000D01*
X167646301Y-134683037D01*
X167646301Y-134987450D01*
X166336000Y-134987450D01*
X165906801Y-135072823D01*
X165542944Y-135315944D01*
X165299823Y-135679801D01*
X165214450Y-136109000D01*
X165214450Y-137309000D01*
X165299823Y-137738199D01*
X165542944Y-138102056D01*
X165906801Y-138345177D01*
X166336000Y-138430550D01*
X168536000Y-138430550D01*
X168965199Y-138345177D01*
X169329056Y-138102056D01*
X169436000Y-137942003D01*
X169436000Y-140035997D01*
X169329056Y-139875944D01*
X168965199Y-139632823D01*
X168536000Y-139547450D01*
X166336000Y-139547450D01*
X165906801Y-139632823D01*
X165542944Y-139875944D01*
X165432192Y-140041697D01*
X165418465Y-140044427D01*
X164988453Y-140331753D01*
X164947498Y-140393046D01*
X164914975Y-140175872D01*
X164836838Y-139987233D01*
X164471734Y-139893951D01*
X163465685Y-140900000D01*
X163479828Y-140914143D01*
X162914143Y-141479828D01*
X162900000Y-141465685D01*
X161893951Y-142471734D01*
X161987233Y-142836838D01*
X162797909Y-143038706D01*
X163624128Y-142914975D01*
X163812767Y-142836838D01*
X163906048Y-142471736D01*
X164103068Y-142668756D01*
X163461291Y-143310533D01*
X163300000Y-143278450D01*
X161700000Y-143278450D01*
X161270801Y-143363823D01*
X160906944Y-143606944D01*
X160663823Y-143970801D01*
X160578450Y-144400000D01*
X160578450Y-145400000D01*
X160585818Y-145437041D01*
X159220076Y-144071300D01*
X159147547Y-143962753D01*
X158717535Y-143675427D01*
X158626748Y-143657368D01*
X158593056Y-143606944D01*
X158229199Y-143363823D01*
X157800000Y-143278450D01*
X156289600Y-143278450D01*
X156289600Y-143036637D01*
X156297909Y-143038706D01*
X157124128Y-142914975D01*
X157312767Y-142836838D01*
X157406049Y-142471734D01*
X156400000Y-141465685D01*
X156385858Y-141479828D01*
X156289600Y-141383570D01*
X156289600Y-140900000D01*
X156965685Y-140900000D01*
X157971734Y-141906049D01*
X158336838Y-141812767D01*
X158538706Y-141002091D01*
X158508129Y-140797909D01*
X160761294Y-140797909D01*
X160885025Y-141624128D01*
X160963162Y-141812767D01*
X161328266Y-141906049D01*
X162334315Y-140900000D01*
X161328266Y-139893951D01*
X160963162Y-139987233D01*
X160761294Y-140797909D01*
X158508129Y-140797909D01*
X158414975Y-140175872D01*
X158336838Y-139987233D01*
X157971734Y-139893951D01*
X156965685Y-140900000D01*
X156289600Y-140900000D01*
X156289600Y-140416430D01*
X156385858Y-140320173D01*
X156400000Y-140334315D01*
X157406049Y-139328266D01*
X161893951Y-139328266D01*
X162900000Y-140334315D01*
X163906049Y-139328266D01*
X163812767Y-138963162D01*
X163002091Y-138761294D01*
X162175872Y-138885025D01*
X161987233Y-138963162D01*
X161893951Y-139328266D01*
X157406049Y-139328266D01*
X157312767Y-138963162D01*
X156502091Y-138761294D01*
X156289600Y-138793116D01*
X156289600Y-138500000D01*
X156817716Y-138500000D01*
X157589554Y-138180294D01*
X158180294Y-137589554D01*
X158500000Y-136817716D01*
X158500000Y-135982284D01*
X160800000Y-135982284D01*
X160800000Y-136817716D01*
X161119706Y-137589554D01*
X161710446Y-138180294D01*
X162482284Y-138500000D01*
X163317716Y-138500000D01*
X164089554Y-138180294D01*
X164680294Y-137589554D01*
X165000000Y-136817716D01*
X165000000Y-135982284D01*
X164680294Y-135210446D01*
X164089554Y-134619706D01*
X163317716Y-134300000D01*
X162482284Y-134300000D01*
X161710446Y-134619706D01*
X161119706Y-135210446D01*
X160800000Y-135982284D01*
X158500000Y-135982284D01*
X158180294Y-135210446D01*
X157589554Y-134619706D01*
X156817716Y-134300000D01*
X156289600Y-134300000D01*
X156289600Y-134120638D01*
X156481196Y-134200000D01*
X156825000Y-134200000D01*
X157100000Y-133925000D01*
X157100000Y-132850000D01*
X157900000Y-132850000D01*
X157900000Y-133925000D01*
X158175000Y-134200000D01*
X158518804Y-134200000D01*
X158923100Y-134032535D01*
X159232535Y-133723100D01*
X159400000Y-133318803D01*
X159400000Y-133125000D01*
X159125000Y-132850000D01*
X157900000Y-132850000D01*
X157100000Y-132850000D01*
X157080000Y-132850000D01*
X157080000Y-132350000D01*
X157100000Y-132350000D01*
X157100000Y-132180000D01*
X157900000Y-132180000D01*
X157900000Y-132350000D01*
X159125000Y-132350000D01*
X159400000Y-132075000D01*
X159400000Y-131881197D01*
X159232535Y-131476900D01*
X158923100Y-131167465D01*
X158518804Y-131000000D01*
X158408339Y-131000000D01*
X158729199Y-130936177D01*
X159093056Y-130693056D01*
X159336177Y-130329199D01*
X159414380Y-129936048D01*
X159682453Y-130337247D01*
X159682453Y-130337247D01*
G37*
X159682453Y-130337247D02*
X160112465Y-130624573D01*
X160203252Y-130642632D01*
X160236944Y-130693056D01*
X160600801Y-130936177D01*
X160921661Y-131000000D01*
X160600801Y-131063823D01*
X160236944Y-131306944D01*
X159993823Y-131670801D01*
X159908450Y-132100000D01*
X159908450Y-133100000D01*
X159993823Y-133529199D01*
X160236944Y-133893056D01*
X160600801Y-134136177D01*
X161030000Y-134221550D01*
X162630000Y-134221550D01*
X163059199Y-134136177D01*
X163423056Y-133893056D01*
X163456748Y-133842632D01*
X163547535Y-133824573D01*
X163977547Y-133537247D01*
X164050076Y-133428700D01*
X164089400Y-133389376D01*
X164089400Y-133611432D01*
X164294925Y-134107614D01*
X164674686Y-134487375D01*
X165170868Y-134692900D01*
X165707932Y-134692900D01*
X166204114Y-134487375D01*
X166583875Y-134107614D01*
X166789400Y-133611432D01*
X166789400Y-133074368D01*
X166739400Y-132953657D01*
X166739400Y-132400177D01*
X166959577Y-132180000D01*
X167230000Y-132180000D01*
X167230000Y-132350000D01*
X167250000Y-132350000D01*
X167250000Y-132850000D01*
X167230000Y-132850000D01*
X167230000Y-133925000D01*
X167505000Y-134200000D01*
X167691446Y-134200000D01*
X167620833Y-134555000D01*
X167646301Y-134683037D01*
X167646301Y-134987450D01*
X166336000Y-134987450D01*
X165906801Y-135072823D01*
X165542944Y-135315944D01*
X165299823Y-135679801D01*
X165214450Y-136109000D01*
X165214450Y-137309000D01*
X165299823Y-137738199D01*
X165542944Y-138102056D01*
X165906801Y-138345177D01*
X166336000Y-138430550D01*
X168536000Y-138430550D01*
X168965199Y-138345177D01*
X169329056Y-138102056D01*
X169436000Y-137942003D01*
X169436000Y-140035997D01*
X169329056Y-139875944D01*
X168965199Y-139632823D01*
X168536000Y-139547450D01*
X166336000Y-139547450D01*
X165906801Y-139632823D01*
X165542944Y-139875944D01*
X165432192Y-140041697D01*
X165418465Y-140044427D01*
X164988453Y-140331753D01*
X164947498Y-140393046D01*
X164914975Y-140175872D01*
X164836838Y-139987233D01*
X164471734Y-139893951D01*
X163465685Y-140900000D01*
X163479828Y-140914143D01*
X162914143Y-141479828D01*
X162900000Y-141465685D01*
X161893951Y-142471734D01*
X161987233Y-142836838D01*
X162797909Y-143038706D01*
X163624128Y-142914975D01*
X163812767Y-142836838D01*
X163906048Y-142471736D01*
X164103068Y-142668756D01*
X163461291Y-143310533D01*
X163300000Y-143278450D01*
X161700000Y-143278450D01*
X161270801Y-143363823D01*
X160906944Y-143606944D01*
X160663823Y-143970801D01*
X160578450Y-144400000D01*
X160578450Y-145400000D01*
X160585818Y-145437041D01*
X159220076Y-144071300D01*
X159147547Y-143962753D01*
X158717535Y-143675427D01*
X158626748Y-143657368D01*
X158593056Y-143606944D01*
X158229199Y-143363823D01*
X157800000Y-143278450D01*
X156289600Y-143278450D01*
X156289600Y-143036637D01*
X156297909Y-143038706D01*
X157124128Y-142914975D01*
X157312767Y-142836838D01*
X157406049Y-142471734D01*
X156400000Y-141465685D01*
X156385858Y-141479828D01*
X156289600Y-141383570D01*
X156289600Y-140900000D01*
X156965685Y-140900000D01*
X157971734Y-141906049D01*
X158336838Y-141812767D01*
X158538706Y-141002091D01*
X158508129Y-140797909D01*
X160761294Y-140797909D01*
X160885025Y-141624128D01*
X160963162Y-141812767D01*
X161328266Y-141906049D01*
X162334315Y-140900000D01*
X161328266Y-139893951D01*
X160963162Y-139987233D01*
X160761294Y-140797909D01*
X158508129Y-140797909D01*
X158414975Y-140175872D01*
X158336838Y-139987233D01*
X157971734Y-139893951D01*
X156965685Y-140900000D01*
X156289600Y-140900000D01*
X156289600Y-140416430D01*
X156385858Y-140320173D01*
X156400000Y-140334315D01*
X157406049Y-139328266D01*
X161893951Y-139328266D01*
X162900000Y-140334315D01*
X163906049Y-139328266D01*
X163812767Y-138963162D01*
X163002091Y-138761294D01*
X162175872Y-138885025D01*
X161987233Y-138963162D01*
X161893951Y-139328266D01*
X157406049Y-139328266D01*
X157312767Y-138963162D01*
X156502091Y-138761294D01*
X156289600Y-138793116D01*
X156289600Y-138500000D01*
X156817716Y-138500000D01*
X157589554Y-138180294D01*
X158180294Y-137589554D01*
X158500000Y-136817716D01*
X158500000Y-135982284D01*
X160800000Y-135982284D01*
X160800000Y-136817716D01*
X161119706Y-137589554D01*
X161710446Y-138180294D01*
X162482284Y-138500000D01*
X163317716Y-138500000D01*
X164089554Y-138180294D01*
X164680294Y-137589554D01*
X165000000Y-136817716D01*
X165000000Y-135982284D01*
X164680294Y-135210446D01*
X164089554Y-134619706D01*
X163317716Y-134300000D01*
X162482284Y-134300000D01*
X161710446Y-134619706D01*
X161119706Y-135210446D01*
X160800000Y-135982284D01*
X158500000Y-135982284D01*
X158180294Y-135210446D01*
X157589554Y-134619706D01*
X156817716Y-134300000D01*
X156289600Y-134300000D01*
X156289600Y-134120638D01*
X156481196Y-134200000D01*
X156825000Y-134200000D01*
X157100000Y-133925000D01*
X157100000Y-132850000D01*
X157900000Y-132850000D01*
X157900000Y-133925000D01*
X158175000Y-134200000D01*
X158518804Y-134200000D01*
X158923100Y-134032535D01*
X159232535Y-133723100D01*
X159400000Y-133318803D01*
X159400000Y-133125000D01*
X159125000Y-132850000D01*
X157900000Y-132850000D01*
X157100000Y-132850000D01*
X157080000Y-132850000D01*
X157080000Y-132350000D01*
X157100000Y-132350000D01*
X157100000Y-132180000D01*
X157900000Y-132180000D01*
X157900000Y-132350000D01*
X159125000Y-132350000D01*
X159400000Y-132075000D01*
X159400000Y-131881197D01*
X159232535Y-131476900D01*
X158923100Y-131167465D01*
X158518804Y-131000000D01*
X158408339Y-131000000D01*
X158729199Y-130936177D01*
X159093056Y-130693056D01*
X159336177Y-130329199D01*
X159414380Y-129936048D01*
X159682453Y-130337247D01*
G36*
X187542186Y-130444175D02*
X188038368Y-130649700D01*
X188575432Y-130649700D01*
X188696143Y-130599700D01*
X188705240Y-130599700D01*
X188742465Y-130624573D01*
X188833252Y-130642632D01*
X188866944Y-130693056D01*
X189230801Y-130936177D01*
X189551661Y-131000000D01*
X189441196Y-131000000D01*
X189036900Y-131167465D01*
X188727465Y-131476900D01*
X188560000Y-131881197D01*
X188560000Y-132075000D01*
X188835000Y-132350000D01*
X190060000Y-132350000D01*
X190060000Y-132180000D01*
X190860000Y-132180000D01*
X190860000Y-132350000D01*
X190880000Y-132350000D01*
X190880000Y-132850000D01*
X190860000Y-132850000D01*
X190860000Y-133925000D01*
X191135000Y-134200000D01*
X191478804Y-134200000D01*
X191865000Y-134040032D01*
X191865001Y-143341108D01*
X191550000Y-143278450D01*
X189950000Y-143278450D01*
X189788709Y-143310533D01*
X189453700Y-142975524D01*
X189453700Y-140950000D01*
X189820002Y-140950000D01*
X189820002Y-140626539D01*
X190113636Y-140822462D01*
X190218215Y-140779169D01*
X190838313Y-140338274D01*
X191242486Y-139693639D01*
X191053557Y-139400000D01*
X189820000Y-139400000D01*
X189820000Y-139420000D01*
X189453700Y-139420000D01*
X189453700Y-138580000D01*
X189820000Y-138580000D01*
X189820000Y-138600000D01*
X191053557Y-138600000D01*
X191242486Y-138306361D01*
X190838313Y-137661726D01*
X190218215Y-137220831D01*
X190113636Y-137177538D01*
X189820002Y-137373461D01*
X189820002Y-137050000D01*
X189453700Y-137050000D01*
X189453700Y-134211431D01*
X189455974Y-134200000D01*
X189785000Y-134200000D01*
X190060000Y-133925000D01*
X190060000Y-132850000D01*
X188835000Y-132850000D01*
X188796889Y-132888111D01*
X187680076Y-131771300D01*
X187607547Y-131662753D01*
X187177535Y-131375427D01*
X187086748Y-131357368D01*
X187053056Y-131306944D01*
X186689199Y-131063823D01*
X186368339Y-131000000D01*
X186689199Y-130936177D01*
X187053056Y-130693056D01*
X187296177Y-130329199D01*
X187317917Y-130219906D01*
X187542186Y-130444175D01*
X187542186Y-130444175D01*
G37*
X187542186Y-130444175D02*
X188038368Y-130649700D01*
X188575432Y-130649700D01*
X188696143Y-130599700D01*
X188705240Y-130599700D01*
X188742465Y-130624573D01*
X188833252Y-130642632D01*
X188866944Y-130693056D01*
X189230801Y-130936177D01*
X189551661Y-131000000D01*
X189441196Y-131000000D01*
X189036900Y-131167465D01*
X188727465Y-131476900D01*
X188560000Y-131881197D01*
X188560000Y-132075000D01*
X188835000Y-132350000D01*
X190060000Y-132350000D01*
X190060000Y-132180000D01*
X190860000Y-132180000D01*
X190860000Y-132350000D01*
X190880000Y-132350000D01*
X190880000Y-132850000D01*
X190860000Y-132850000D01*
X190860000Y-133925000D01*
X191135000Y-134200000D01*
X191478804Y-134200000D01*
X191865000Y-134040032D01*
X191865001Y-143341108D01*
X191550000Y-143278450D01*
X189950000Y-143278450D01*
X189788709Y-143310533D01*
X189453700Y-142975524D01*
X189453700Y-140950000D01*
X189820002Y-140950000D01*
X189820002Y-140626539D01*
X190113636Y-140822462D01*
X190218215Y-140779169D01*
X190838313Y-140338274D01*
X191242486Y-139693639D01*
X191053557Y-139400000D01*
X189820000Y-139400000D01*
X189820000Y-139420000D01*
X189453700Y-139420000D01*
X189453700Y-138580000D01*
X189820000Y-138580000D01*
X189820000Y-138600000D01*
X191053557Y-138600000D01*
X191242486Y-138306361D01*
X190838313Y-137661726D01*
X190218215Y-137220831D01*
X190113636Y-137177538D01*
X189820002Y-137373461D01*
X189820002Y-137050000D01*
X189453700Y-137050000D01*
X189453700Y-134211431D01*
X189455974Y-134200000D01*
X189785000Y-134200000D01*
X190060000Y-133925000D01*
X190060000Y-132850000D01*
X188835000Y-132850000D01*
X188796889Y-132888111D01*
X187680076Y-131771300D01*
X187607547Y-131662753D01*
X187177535Y-131375427D01*
X187086748Y-131357368D01*
X187053056Y-131306944D01*
X186689199Y-131063823D01*
X186368339Y-131000000D01*
X186689199Y-130936177D01*
X187053056Y-130693056D01*
X187296177Y-130329199D01*
X187317917Y-130219906D01*
X187542186Y-130444175D01*
G36*
X172124300Y-127885777D02*
X172124300Y-128097000D01*
X171988998Y-128097000D01*
X171988998Y-128284498D01*
X171801500Y-128097000D01*
X171545197Y-128097000D01*
X171140900Y-128264465D01*
X171122251Y-128283114D01*
X170718803Y-128116000D01*
X170462500Y-128116000D01*
X170187500Y-128391000D01*
X170187500Y-129591000D01*
X171325000Y-129591000D01*
X171344000Y-129572000D01*
X172076500Y-129572000D01*
X172076500Y-129527000D01*
X172124301Y-129527000D01*
X172124301Y-130367000D01*
X172076500Y-130367000D01*
X172076500Y-130322000D01*
X170939000Y-130322000D01*
X170920000Y-130341000D01*
X170187500Y-130341000D01*
X170187500Y-130386000D01*
X169562500Y-130386000D01*
X169562500Y-130341000D01*
X169455000Y-130341000D01*
X169455000Y-129591000D01*
X169562500Y-129591000D01*
X169562500Y-128391000D01*
X169287500Y-128116000D01*
X169031197Y-128116000D01*
X168626900Y-128283465D01*
X168575409Y-128334956D01*
X168423056Y-128106944D01*
X168059199Y-127863823D01*
X167630000Y-127778450D01*
X166919700Y-127778450D01*
X166919700Y-125450000D01*
X167230002Y-125450000D01*
X167230002Y-125175002D01*
X167505000Y-125450000D01*
X167848804Y-125450000D01*
X168253100Y-125282535D01*
X168562535Y-124973100D01*
X168730000Y-124568803D01*
X168730000Y-124491476D01*
X172124300Y-127885777D01*
X172124300Y-127885777D01*
G37*
X172124300Y-127885777D02*
X172124300Y-128097000D01*
X171988998Y-128097000D01*
X171988998Y-128284498D01*
X171801500Y-128097000D01*
X171545197Y-128097000D01*
X171140900Y-128264465D01*
X171122251Y-128283114D01*
X170718803Y-128116000D01*
X170462500Y-128116000D01*
X170187500Y-128391000D01*
X170187500Y-129591000D01*
X171325000Y-129591000D01*
X171344000Y-129572000D01*
X172076500Y-129572000D01*
X172076500Y-129527000D01*
X172124301Y-129527000D01*
X172124301Y-130367000D01*
X172076500Y-130367000D01*
X172076500Y-130322000D01*
X170939000Y-130322000D01*
X170920000Y-130341000D01*
X170187500Y-130341000D01*
X170187500Y-130386000D01*
X169562500Y-130386000D01*
X169562500Y-130341000D01*
X169455000Y-130341000D01*
X169455000Y-129591000D01*
X169562500Y-129591000D01*
X169562500Y-128391000D01*
X169287500Y-128116000D01*
X169031197Y-128116000D01*
X168626900Y-128283465D01*
X168575409Y-128334956D01*
X168423056Y-128106944D01*
X168059199Y-127863823D01*
X167630000Y-127778450D01*
X166919700Y-127778450D01*
X166919700Y-125450000D01*
X167230002Y-125450000D01*
X167230002Y-125175002D01*
X167505000Y-125450000D01*
X167848804Y-125450000D01*
X168253100Y-125282535D01*
X168562535Y-124973100D01*
X168730000Y-124568803D01*
X168730000Y-124491476D01*
X172124300Y-127885777D01*
G36*
X178279928Y-121478705D02*
X178352453Y-121587247D01*
X178460994Y-121659772D01*
X178460996Y-121659774D01*
X178580460Y-121739597D01*
X178782465Y-121874573D01*
X178873252Y-121892632D01*
X178906944Y-121943056D01*
X179270801Y-122186177D01*
X179591661Y-122250000D01*
X179481196Y-122250000D01*
X179076900Y-122417465D01*
X178767465Y-122726900D01*
X178600000Y-123131197D01*
X178600000Y-123325000D01*
X178875000Y-123600000D01*
X180100000Y-123600000D01*
X180100000Y-123430000D01*
X180900000Y-123430000D01*
X180900000Y-123600000D01*
X180920000Y-123600000D01*
X180920000Y-124100000D01*
X180900000Y-124100000D01*
X180900000Y-125175000D01*
X181175000Y-125450000D01*
X181518804Y-125450000D01*
X181705001Y-125372875D01*
X181705001Y-126376271D01*
X181681981Y-126492000D01*
X181773175Y-126950462D01*
X182032873Y-127339127D01*
X182421538Y-127598825D01*
X182764276Y-127667000D01*
X182880000Y-127690019D01*
X182995724Y-127667000D01*
X191418883Y-127667000D01*
X191623810Y-127701109D01*
X191719996Y-127753009D01*
X191794186Y-127833267D01*
X191847935Y-127954845D01*
X191850011Y-127971274D01*
X191689199Y-127863823D01*
X191260000Y-127778450D01*
X189660000Y-127778450D01*
X189230801Y-127863823D01*
X189030023Y-127997978D01*
X189021367Y-127999700D01*
X188696143Y-127999700D01*
X188575432Y-127949700D01*
X188038368Y-127949700D01*
X187542186Y-128155225D01*
X187268312Y-128429099D01*
X187053056Y-128106944D01*
X186689199Y-127863823D01*
X186260000Y-127778450D01*
X184660000Y-127778450D01*
X184230801Y-127863823D01*
X183866944Y-128106944D01*
X183833252Y-128157368D01*
X183742465Y-128175427D01*
X183312453Y-128462753D01*
X183239926Y-128571298D01*
X182421550Y-129389674D01*
X182421550Y-128900000D01*
X182336177Y-128470801D01*
X182093056Y-128106944D01*
X181729199Y-127863823D01*
X181300000Y-127778450D01*
X180589700Y-127778450D01*
X180589700Y-126557431D01*
X180615167Y-126429399D01*
X180589700Y-126301368D01*
X180589700Y-126301363D01*
X180514273Y-125922165D01*
X180350491Y-125677049D01*
X180299474Y-125600696D01*
X180299472Y-125600694D01*
X180226947Y-125492153D01*
X180118405Y-125419628D01*
X179986889Y-125288111D01*
X180100000Y-125175000D01*
X180100000Y-124100000D01*
X178875000Y-124100000D01*
X178836888Y-124138112D01*
X177720076Y-123021300D01*
X177647547Y-122912753D01*
X177217535Y-122625427D01*
X177126748Y-122607368D01*
X177093056Y-122556944D01*
X176729199Y-122313823D01*
X176408339Y-122250000D01*
X176729199Y-122186177D01*
X177093056Y-121943056D01*
X177336177Y-121579199D01*
X177421550Y-121150000D01*
X177421550Y-120620327D01*
X178279928Y-121478705D01*
X178279928Y-121478705D01*
G37*
X178279928Y-121478705D02*
X178352453Y-121587247D01*
X178460994Y-121659772D01*
X178460996Y-121659774D01*
X178580460Y-121739597D01*
X178782465Y-121874573D01*
X178873252Y-121892632D01*
X178906944Y-121943056D01*
X179270801Y-122186177D01*
X179591661Y-122250000D01*
X179481196Y-122250000D01*
X179076900Y-122417465D01*
X178767465Y-122726900D01*
X178600000Y-123131197D01*
X178600000Y-123325000D01*
X178875000Y-123600000D01*
X180100000Y-123600000D01*
X180100000Y-123430000D01*
X180900000Y-123430000D01*
X180900000Y-123600000D01*
X180920000Y-123600000D01*
X180920000Y-124100000D01*
X180900000Y-124100000D01*
X180900000Y-125175000D01*
X181175000Y-125450000D01*
X181518804Y-125450000D01*
X181705001Y-125372875D01*
X181705001Y-126376271D01*
X181681981Y-126492000D01*
X181773175Y-126950462D01*
X182032873Y-127339127D01*
X182421538Y-127598825D01*
X182764276Y-127667000D01*
X182880000Y-127690019D01*
X182995724Y-127667000D01*
X191418883Y-127667000D01*
X191623810Y-127701109D01*
X191719996Y-127753009D01*
X191794186Y-127833267D01*
X191847935Y-127954845D01*
X191850011Y-127971274D01*
X191689199Y-127863823D01*
X191260000Y-127778450D01*
X189660000Y-127778450D01*
X189230801Y-127863823D01*
X189030023Y-127997978D01*
X189021367Y-127999700D01*
X188696143Y-127999700D01*
X188575432Y-127949700D01*
X188038368Y-127949700D01*
X187542186Y-128155225D01*
X187268312Y-128429099D01*
X187053056Y-128106944D01*
X186689199Y-127863823D01*
X186260000Y-127778450D01*
X184660000Y-127778450D01*
X184230801Y-127863823D01*
X183866944Y-128106944D01*
X183833252Y-128157368D01*
X183742465Y-128175427D01*
X183312453Y-128462753D01*
X183239926Y-128571298D01*
X182421550Y-129389674D01*
X182421550Y-128900000D01*
X182336177Y-128470801D01*
X182093056Y-128106944D01*
X181729199Y-127863823D01*
X181300000Y-127778450D01*
X180589700Y-127778450D01*
X180589700Y-126557431D01*
X180615167Y-126429399D01*
X180589700Y-126301368D01*
X180589700Y-126301363D01*
X180514273Y-125922165D01*
X180350491Y-125677049D01*
X180299474Y-125600696D01*
X180299472Y-125600694D01*
X180226947Y-125492153D01*
X180118405Y-125419628D01*
X179986889Y-125288111D01*
X180100000Y-125175000D01*
X180100000Y-124100000D01*
X178875000Y-124100000D01*
X178836888Y-124138112D01*
X177720076Y-123021300D01*
X177647547Y-122912753D01*
X177217535Y-122625427D01*
X177126748Y-122607368D01*
X177093056Y-122556944D01*
X176729199Y-122313823D01*
X176408339Y-122250000D01*
X176729199Y-122186177D01*
X177093056Y-121943056D01*
X177336177Y-121579199D01*
X177421550Y-121150000D01*
X177421550Y-120620327D01*
X178279928Y-121478705D01*
G36*
X167230000Y-123600000D02*
X167250000Y-123600000D01*
X167250000Y-124100000D01*
X167230000Y-124100000D01*
X167230000Y-124270000D01*
X166919700Y-124270000D01*
X166919700Y-123430000D01*
X167230000Y-123430000D01*
X167230000Y-123600000D01*
X167230000Y-123600000D01*
G37*
X167230000Y-123600000D02*
X167250000Y-123600000D01*
X167250000Y-124100000D01*
X167230000Y-124100000D01*
X167230000Y-124270000D01*
X166919700Y-124270000D01*
X166919700Y-123430000D01*
X167230000Y-123430000D01*
X167230000Y-123600000D01*
G36*
X167230000Y-113850000D02*
X167250000Y-113850000D01*
X167250000Y-114350000D01*
X167230000Y-114350000D01*
X167230000Y-115425000D01*
X167505000Y-115700000D01*
X167848804Y-115700000D01*
X168198901Y-115554985D01*
X168198901Y-119207169D01*
X168059199Y-119113823D01*
X167630000Y-119028450D01*
X166030000Y-119028450D01*
X165840400Y-119066164D01*
X165840400Y-115700000D01*
X166155000Y-115700000D01*
X166430000Y-115425000D01*
X166430000Y-114350000D01*
X166410000Y-114350000D01*
X166410000Y-113850000D01*
X166430000Y-113850000D01*
X166430000Y-113680000D01*
X167230000Y-113680000D01*
X167230000Y-113850000D01*
X167230000Y-113850000D01*
G37*
X167230000Y-113850000D02*
X167250000Y-113850000D01*
X167250000Y-114350000D01*
X167230000Y-114350000D01*
X167230000Y-115425000D01*
X167505000Y-115700000D01*
X167848804Y-115700000D01*
X168198901Y-115554985D01*
X168198901Y-119207169D01*
X168059199Y-119113823D01*
X167630000Y-119028450D01*
X166030000Y-119028450D01*
X165840400Y-119066164D01*
X165840400Y-115700000D01*
X166155000Y-115700000D01*
X166430000Y-115425000D01*
X166430000Y-114350000D01*
X166410000Y-114350000D01*
X166410000Y-113850000D01*
X166430000Y-113850000D01*
X166430000Y-113680000D01*
X167230000Y-113680000D01*
X167230000Y-113850000D01*
G36*
X177989701Y-107467879D02*
X177989700Y-110771963D01*
X177964232Y-110900000D01*
X178065127Y-111407235D01*
X178108446Y-111472066D01*
X178352453Y-111837247D01*
X178782465Y-112124573D01*
X178873251Y-112142631D01*
X178906944Y-112193056D01*
X179270801Y-112436177D01*
X179591661Y-112500000D01*
X179481196Y-112500000D01*
X179076900Y-112667465D01*
X178767465Y-112976900D01*
X178600000Y-113381197D01*
X178600000Y-113575000D01*
X178875000Y-113850000D01*
X180100000Y-113850000D01*
X180100000Y-113680000D01*
X180900000Y-113680000D01*
X180900000Y-113850000D01*
X180920000Y-113850000D01*
X180920000Y-114350000D01*
X180900000Y-114350000D01*
X180900000Y-115425000D01*
X181175000Y-115700000D01*
X181518804Y-115700000D01*
X181705001Y-115622875D01*
X181705001Y-119109010D01*
X181300000Y-119028450D01*
X179700000Y-119028450D01*
X179538710Y-119060533D01*
X178010300Y-117532124D01*
X178010300Y-114625000D01*
X178600000Y-114625000D01*
X178600000Y-114818803D01*
X178767465Y-115223100D01*
X179076900Y-115532535D01*
X179481196Y-115700000D01*
X179825000Y-115700000D01*
X180100000Y-115425000D01*
X180100000Y-114350000D01*
X178875000Y-114350000D01*
X178600000Y-114625000D01*
X178010300Y-114625000D01*
X178010300Y-114228036D01*
X178035768Y-114100000D01*
X177934873Y-113592765D01*
X177647547Y-113162753D01*
X177217535Y-112875427D01*
X177126748Y-112857368D01*
X177093056Y-112806944D01*
X176729199Y-112563823D01*
X176408339Y-112500000D01*
X176729199Y-112436177D01*
X177093056Y-112193056D01*
X177336177Y-111829199D01*
X177421550Y-111400000D01*
X177421550Y-110400000D01*
X177336177Y-109970801D01*
X177093056Y-109606944D01*
X176729199Y-109363823D01*
X176300000Y-109278450D01*
X175589700Y-109278450D01*
X175589700Y-105971550D01*
X176300000Y-105971550D01*
X176461291Y-105939467D01*
X177989701Y-107467879D01*
X177989701Y-107467879D01*
G37*
X177989701Y-107467879D02*
X177989700Y-110771963D01*
X177964232Y-110900000D01*
X178065127Y-111407235D01*
X178108446Y-111472066D01*
X178352453Y-111837247D01*
X178782465Y-112124573D01*
X178873251Y-112142631D01*
X178906944Y-112193056D01*
X179270801Y-112436177D01*
X179591661Y-112500000D01*
X179481196Y-112500000D01*
X179076900Y-112667465D01*
X178767465Y-112976900D01*
X178600000Y-113381197D01*
X178600000Y-113575000D01*
X178875000Y-113850000D01*
X180100000Y-113850000D01*
X180100000Y-113680000D01*
X180900000Y-113680000D01*
X180900000Y-113850000D01*
X180920000Y-113850000D01*
X180920000Y-114350000D01*
X180900000Y-114350000D01*
X180900000Y-115425000D01*
X181175000Y-115700000D01*
X181518804Y-115700000D01*
X181705001Y-115622875D01*
X181705001Y-119109010D01*
X181300000Y-119028450D01*
X179700000Y-119028450D01*
X179538710Y-119060533D01*
X178010300Y-117532124D01*
X178010300Y-114625000D01*
X178600000Y-114625000D01*
X178600000Y-114818803D01*
X178767465Y-115223100D01*
X179076900Y-115532535D01*
X179481196Y-115700000D01*
X179825000Y-115700000D01*
X180100000Y-115425000D01*
X180100000Y-114350000D01*
X178875000Y-114350000D01*
X178600000Y-114625000D01*
X178010300Y-114625000D01*
X178010300Y-114228036D01*
X178035768Y-114100000D01*
X177934873Y-113592765D01*
X177647547Y-113162753D01*
X177217535Y-112875427D01*
X177126748Y-112857368D01*
X177093056Y-112806944D01*
X176729199Y-112563823D01*
X176408339Y-112500000D01*
X176729199Y-112436177D01*
X177093056Y-112193056D01*
X177336177Y-111829199D01*
X177421550Y-111400000D01*
X177421550Y-110400000D01*
X177336177Y-109970801D01*
X177093056Y-109606944D01*
X176729199Y-109363823D01*
X176300000Y-109278450D01*
X175589700Y-109278450D01*
X175589700Y-105971550D01*
X176300000Y-105971550D01*
X176461291Y-105939467D01*
X177989701Y-107467879D01*
G36*
X167230000Y-104100000D02*
X167250000Y-104100000D01*
X167250000Y-104600000D01*
X167230000Y-104600000D01*
X167230000Y-105675000D01*
X167505000Y-105950000D01*
X167848804Y-105950000D01*
X168198900Y-105804985D01*
X168198900Y-109457168D01*
X168059199Y-109363823D01*
X167630000Y-109278450D01*
X166030000Y-109278450D01*
X165600801Y-109363823D01*
X165236944Y-109606944D01*
X165203252Y-109657368D01*
X165112465Y-109675427D01*
X164682453Y-109962753D01*
X164609925Y-110071298D01*
X164340300Y-110340923D01*
X164340300Y-106549276D01*
X165256971Y-105632606D01*
X165406900Y-105782535D01*
X165811196Y-105950000D01*
X166155000Y-105950000D01*
X166430000Y-105675000D01*
X166430000Y-104600000D01*
X166410000Y-104600000D01*
X166410000Y-104479577D01*
X166959578Y-103930000D01*
X167230000Y-103930000D01*
X167230000Y-104100000D01*
X167230000Y-104100000D01*
G37*
X167230000Y-104100000D02*
X167250000Y-104100000D01*
X167250000Y-104600000D01*
X167230000Y-104600000D01*
X167230000Y-105675000D01*
X167505000Y-105950000D01*
X167848804Y-105950000D01*
X168198900Y-105804985D01*
X168198900Y-109457168D01*
X168059199Y-109363823D01*
X167630000Y-109278450D01*
X166030000Y-109278450D01*
X165600801Y-109363823D01*
X165236944Y-109606944D01*
X165203252Y-109657368D01*
X165112465Y-109675427D01*
X164682453Y-109962753D01*
X164609925Y-110071298D01*
X164340300Y-110340923D01*
X164340300Y-106549276D01*
X165256971Y-105632606D01*
X165406900Y-105782535D01*
X165811196Y-105950000D01*
X166155000Y-105950000D01*
X166430000Y-105675000D01*
X166430000Y-104600000D01*
X166410000Y-104600000D01*
X166410000Y-104479577D01*
X166959578Y-103930000D01*
X167230000Y-103930000D01*
X167230000Y-104100000D01*
G36*
X177989701Y-97717879D02*
X177989700Y-101021963D01*
X177964232Y-101150000D01*
X178065127Y-101657235D01*
X178352453Y-102087247D01*
X178782465Y-102374573D01*
X178873252Y-102392632D01*
X178906944Y-102443056D01*
X179270801Y-102686177D01*
X179591661Y-102750000D01*
X179481196Y-102750000D01*
X179076900Y-102917465D01*
X178767465Y-103226900D01*
X178600000Y-103631197D01*
X178600000Y-103825000D01*
X178875000Y-104100000D01*
X180100000Y-104100000D01*
X180100000Y-103930000D01*
X180900000Y-103930000D01*
X180900000Y-104100000D01*
X180920000Y-104100000D01*
X180920000Y-104600000D01*
X180900000Y-104600000D01*
X180900000Y-105675000D01*
X181175000Y-105950000D01*
X181518804Y-105950000D01*
X181705001Y-105872875D01*
X181705001Y-109359010D01*
X181300000Y-109278450D01*
X180589700Y-109278450D01*
X180589700Y-107057431D01*
X180615167Y-106929399D01*
X180589700Y-106801368D01*
X180589700Y-106801363D01*
X180514273Y-106422165D01*
X180379297Y-106220160D01*
X180299474Y-106100696D01*
X180299472Y-106100694D01*
X180226947Y-105992153D01*
X180118405Y-105919628D01*
X179986889Y-105788111D01*
X180100000Y-105675000D01*
X180100000Y-104600000D01*
X178875000Y-104600000D01*
X178836888Y-104638112D01*
X177720076Y-103521300D01*
X177647547Y-103412753D01*
X177217535Y-103125427D01*
X177126748Y-103107368D01*
X177093056Y-103056944D01*
X176729199Y-102813823D01*
X176408339Y-102750000D01*
X176729199Y-102686177D01*
X177093056Y-102443056D01*
X177336177Y-102079199D01*
X177421550Y-101650000D01*
X177421550Y-100650000D01*
X177336177Y-100220801D01*
X177093056Y-99856944D01*
X176729199Y-99613823D01*
X176300000Y-99528450D01*
X175589700Y-99528450D01*
X175589700Y-96221550D01*
X176300000Y-96221550D01*
X176461291Y-96189467D01*
X177989701Y-97717879D01*
X177989701Y-97717879D01*
G37*
X177989701Y-97717879D02*
X177989700Y-101021963D01*
X177964232Y-101150000D01*
X178065127Y-101657235D01*
X178352453Y-102087247D01*
X178782465Y-102374573D01*
X178873252Y-102392632D01*
X178906944Y-102443056D01*
X179270801Y-102686177D01*
X179591661Y-102750000D01*
X179481196Y-102750000D01*
X179076900Y-102917465D01*
X178767465Y-103226900D01*
X178600000Y-103631197D01*
X178600000Y-103825000D01*
X178875000Y-104100000D01*
X180100000Y-104100000D01*
X180100000Y-103930000D01*
X180900000Y-103930000D01*
X180900000Y-104100000D01*
X180920000Y-104100000D01*
X180920000Y-104600000D01*
X180900000Y-104600000D01*
X180900000Y-105675000D01*
X181175000Y-105950000D01*
X181518804Y-105950000D01*
X181705001Y-105872875D01*
X181705001Y-109359010D01*
X181300000Y-109278450D01*
X180589700Y-109278450D01*
X180589700Y-107057431D01*
X180615167Y-106929399D01*
X180589700Y-106801368D01*
X180589700Y-106801363D01*
X180514273Y-106422165D01*
X180379297Y-106220160D01*
X180299474Y-106100696D01*
X180299472Y-106100694D01*
X180226947Y-105992153D01*
X180118405Y-105919628D01*
X179986889Y-105788111D01*
X180100000Y-105675000D01*
X180100000Y-104600000D01*
X178875000Y-104600000D01*
X178836888Y-104638112D01*
X177720076Y-103521300D01*
X177647547Y-103412753D01*
X177217535Y-103125427D01*
X177126748Y-103107368D01*
X177093056Y-103056944D01*
X176729199Y-102813823D01*
X176408339Y-102750000D01*
X176729199Y-102686177D01*
X177093056Y-102443056D01*
X177336177Y-102079199D01*
X177421550Y-101650000D01*
X177421550Y-100650000D01*
X177336177Y-100220801D01*
X177093056Y-99856944D01*
X176729199Y-99613823D01*
X176300000Y-99528450D01*
X175589700Y-99528450D01*
X175589700Y-96221550D01*
X176300000Y-96221550D01*
X176461291Y-96189467D01*
X177989701Y-97717879D01*
G36*
X169474998Y-71676600D02*
X169853600Y-71676600D01*
X169853601Y-94001262D01*
X169828133Y-94129300D01*
X169929027Y-94636534D01*
X170069101Y-94846168D01*
X170216354Y-95066547D01*
X170324898Y-95139074D01*
X172185800Y-96999977D01*
X172185800Y-97664710D01*
X171667444Y-97450000D01*
X170732556Y-97450000D01*
X169868832Y-97807766D01*
X169207766Y-98468832D01*
X168850000Y-99332556D01*
X168850000Y-100267444D01*
X168862911Y-100298613D01*
X168711727Y-100449797D01*
X168666177Y-100220801D01*
X168423056Y-99856944D01*
X168059199Y-99613823D01*
X167630000Y-99528450D01*
X166919700Y-99528450D01*
X166919700Y-96200000D01*
X167230002Y-96200000D01*
X167230002Y-95925002D01*
X167505000Y-96200000D01*
X167848804Y-96200000D01*
X168253100Y-96032535D01*
X168562535Y-95723100D01*
X168730000Y-95318803D01*
X168730000Y-95125000D01*
X168455000Y-94850000D01*
X167230000Y-94850000D01*
X167230000Y-95020000D01*
X166919700Y-95020000D01*
X166919700Y-94180000D01*
X167230000Y-94180000D01*
X167230000Y-94350000D01*
X168455000Y-94350000D01*
X168730000Y-94075000D01*
X168730000Y-93881197D01*
X168562535Y-93476900D01*
X168253100Y-93167465D01*
X167848804Y-93000000D01*
X167738339Y-93000000D01*
X168059199Y-92936177D01*
X168423056Y-92693056D01*
X168666177Y-92329199D01*
X168751550Y-91900000D01*
X168751550Y-90900000D01*
X168666177Y-90470801D01*
X168423056Y-90106944D01*
X168059199Y-89863823D01*
X167630000Y-89778450D01*
X166030000Y-89778450D01*
X165600801Y-89863823D01*
X165419600Y-89984897D01*
X165419600Y-88979500D01*
X167964000Y-88979500D01*
X167964000Y-89235803D01*
X168131465Y-89640100D01*
X168440900Y-89949535D01*
X168845196Y-90117000D01*
X169164000Y-90117000D01*
X169439000Y-89842000D01*
X169439000Y-88704500D01*
X168239000Y-88704500D01*
X167964000Y-88979500D01*
X165419600Y-88979500D01*
X165419600Y-87548197D01*
X167964000Y-87548197D01*
X167964000Y-87804500D01*
X168239000Y-88079500D01*
X169439000Y-88079500D01*
X169439000Y-86942000D01*
X169164000Y-86667000D01*
X168845196Y-86667000D01*
X168440900Y-86834465D01*
X168131465Y-87143900D01*
X167964000Y-87548197D01*
X165419600Y-87548197D01*
X165419600Y-86037796D01*
X165811196Y-86200000D01*
X166155000Y-86200000D01*
X166430000Y-85925000D01*
X166430000Y-84850000D01*
X167230000Y-84850000D01*
X167230000Y-85925000D01*
X167505000Y-86200000D01*
X167848804Y-86200000D01*
X168253100Y-86032535D01*
X168562535Y-85723100D01*
X168730000Y-85318803D01*
X168730000Y-85125000D01*
X168455000Y-84850000D01*
X167230000Y-84850000D01*
X166430000Y-84850000D01*
X166410000Y-84850000D01*
X166410000Y-84350000D01*
X166430000Y-84350000D01*
X166430000Y-84180000D01*
X167230000Y-84180000D01*
X167230000Y-84350000D01*
X168455000Y-84350000D01*
X168730000Y-84075000D01*
X168730000Y-83881197D01*
X168562535Y-83476900D01*
X168253100Y-83167465D01*
X167848804Y-83000000D01*
X167738339Y-83000000D01*
X168059199Y-82936177D01*
X168423056Y-82693056D01*
X168666177Y-82329199D01*
X168751550Y-81900000D01*
X168751550Y-80900000D01*
X168666177Y-80470801D01*
X168423056Y-80106944D01*
X168205979Y-79961898D01*
X169039006Y-79128872D01*
X169147547Y-79056347D01*
X169220072Y-78947806D01*
X169220074Y-78947804D01*
X169434873Y-78626335D01*
X169465678Y-78471468D01*
X169510300Y-78247137D01*
X169510300Y-78247134D01*
X169535767Y-78119101D01*
X169510300Y-77991068D01*
X169510300Y-72528036D01*
X169535768Y-72400000D01*
X169434873Y-71892765D01*
X169264226Y-71637374D01*
X169474998Y-71426602D01*
X169474998Y-71676600D01*
X169474998Y-71676600D01*
G37*
X169474998Y-71676600D02*
X169853600Y-71676600D01*
X169853601Y-94001262D01*
X169828133Y-94129300D01*
X169929027Y-94636534D01*
X170069101Y-94846168D01*
X170216354Y-95066547D01*
X170324898Y-95139074D01*
X172185800Y-96999977D01*
X172185800Y-97664710D01*
X171667444Y-97450000D01*
X170732556Y-97450000D01*
X169868832Y-97807766D01*
X169207766Y-98468832D01*
X168850000Y-99332556D01*
X168850000Y-100267444D01*
X168862911Y-100298613D01*
X168711727Y-100449797D01*
X168666177Y-100220801D01*
X168423056Y-99856944D01*
X168059199Y-99613823D01*
X167630000Y-99528450D01*
X166919700Y-99528450D01*
X166919700Y-96200000D01*
X167230002Y-96200000D01*
X167230002Y-95925002D01*
X167505000Y-96200000D01*
X167848804Y-96200000D01*
X168253100Y-96032535D01*
X168562535Y-95723100D01*
X168730000Y-95318803D01*
X168730000Y-95125000D01*
X168455000Y-94850000D01*
X167230000Y-94850000D01*
X167230000Y-95020000D01*
X166919700Y-95020000D01*
X166919700Y-94180000D01*
X167230000Y-94180000D01*
X167230000Y-94350000D01*
X168455000Y-94350000D01*
X168730000Y-94075000D01*
X168730000Y-93881197D01*
X168562535Y-93476900D01*
X168253100Y-93167465D01*
X167848804Y-93000000D01*
X167738339Y-93000000D01*
X168059199Y-92936177D01*
X168423056Y-92693056D01*
X168666177Y-92329199D01*
X168751550Y-91900000D01*
X168751550Y-90900000D01*
X168666177Y-90470801D01*
X168423056Y-90106944D01*
X168059199Y-89863823D01*
X167630000Y-89778450D01*
X166030000Y-89778450D01*
X165600801Y-89863823D01*
X165419600Y-89984897D01*
X165419600Y-88979500D01*
X167964000Y-88979500D01*
X167964000Y-89235803D01*
X168131465Y-89640100D01*
X168440900Y-89949535D01*
X168845196Y-90117000D01*
X169164000Y-90117000D01*
X169439000Y-89842000D01*
X169439000Y-88704500D01*
X168239000Y-88704500D01*
X167964000Y-88979500D01*
X165419600Y-88979500D01*
X165419600Y-87548197D01*
X167964000Y-87548197D01*
X167964000Y-87804500D01*
X168239000Y-88079500D01*
X169439000Y-88079500D01*
X169439000Y-86942000D01*
X169164000Y-86667000D01*
X168845196Y-86667000D01*
X168440900Y-86834465D01*
X168131465Y-87143900D01*
X167964000Y-87548197D01*
X165419600Y-87548197D01*
X165419600Y-86037796D01*
X165811196Y-86200000D01*
X166155000Y-86200000D01*
X166430000Y-85925000D01*
X166430000Y-84850000D01*
X167230000Y-84850000D01*
X167230000Y-85925000D01*
X167505000Y-86200000D01*
X167848804Y-86200000D01*
X168253100Y-86032535D01*
X168562535Y-85723100D01*
X168730000Y-85318803D01*
X168730000Y-85125000D01*
X168455000Y-84850000D01*
X167230000Y-84850000D01*
X166430000Y-84850000D01*
X166410000Y-84850000D01*
X166410000Y-84350000D01*
X166430000Y-84350000D01*
X166430000Y-84180000D01*
X167230000Y-84180000D01*
X167230000Y-84350000D01*
X168455000Y-84350000D01*
X168730000Y-84075000D01*
X168730000Y-83881197D01*
X168562535Y-83476900D01*
X168253100Y-83167465D01*
X167848804Y-83000000D01*
X167738339Y-83000000D01*
X168059199Y-82936177D01*
X168423056Y-82693056D01*
X168666177Y-82329199D01*
X168751550Y-81900000D01*
X168751550Y-80900000D01*
X168666177Y-80470801D01*
X168423056Y-80106944D01*
X168205979Y-79961898D01*
X169039006Y-79128872D01*
X169147547Y-79056347D01*
X169220072Y-78947806D01*
X169220074Y-78947804D01*
X169434873Y-78626335D01*
X169465678Y-78471468D01*
X169510300Y-78247137D01*
X169510300Y-78247134D01*
X169535767Y-78119101D01*
X169510300Y-77991068D01*
X169510300Y-72528036D01*
X169535768Y-72400000D01*
X169434873Y-71892765D01*
X169264226Y-71637374D01*
X169474998Y-71426602D01*
X169474998Y-71676600D01*
G36*
X178279928Y-92228705D02*
X178352453Y-92337247D01*
X178460994Y-92409772D01*
X178460996Y-92409774D01*
X178720925Y-92583453D01*
X178782465Y-92624573D01*
X178873252Y-92642632D01*
X178906944Y-92693056D01*
X179270801Y-92936177D01*
X179591661Y-93000000D01*
X179481196Y-93000000D01*
X179076900Y-93167465D01*
X178767465Y-93476900D01*
X178600000Y-93881197D01*
X178600000Y-94075000D01*
X178875000Y-94350000D01*
X180100000Y-94350000D01*
X180100000Y-94180000D01*
X180900000Y-94180000D01*
X180900000Y-94350000D01*
X180920000Y-94350000D01*
X180920000Y-94850000D01*
X180900000Y-94850000D01*
X180900000Y-95925000D01*
X181175000Y-96200000D01*
X181518804Y-96200000D01*
X181705000Y-96122875D01*
X181705000Y-99609010D01*
X181300000Y-99528450D01*
X180589700Y-99528450D01*
X180589700Y-97307431D01*
X180615167Y-97179399D01*
X180589700Y-97051368D01*
X180589700Y-97051363D01*
X180514273Y-96672165D01*
X180373511Y-96461500D01*
X180299474Y-96350696D01*
X180299472Y-96350694D01*
X180226947Y-96242153D01*
X180118405Y-96169628D01*
X179986889Y-96038111D01*
X180100000Y-95925000D01*
X180100000Y-94850000D01*
X178875000Y-94850000D01*
X178836888Y-94888112D01*
X177720076Y-93771300D01*
X177647547Y-93662753D01*
X177217535Y-93375427D01*
X177126748Y-93357368D01*
X177093056Y-93306944D01*
X176729199Y-93063823D01*
X176408339Y-93000000D01*
X176729199Y-92936177D01*
X177093056Y-92693056D01*
X177336177Y-92329199D01*
X177421550Y-91900000D01*
X177421550Y-91370327D01*
X178279928Y-92228705D01*
X178279928Y-92228705D01*
G37*
X178279928Y-92228705D02*
X178352453Y-92337247D01*
X178460994Y-92409772D01*
X178460996Y-92409774D01*
X178720925Y-92583453D01*
X178782465Y-92624573D01*
X178873252Y-92642632D01*
X178906944Y-92693056D01*
X179270801Y-92936177D01*
X179591661Y-93000000D01*
X179481196Y-93000000D01*
X179076900Y-93167465D01*
X178767465Y-93476900D01*
X178600000Y-93881197D01*
X178600000Y-94075000D01*
X178875000Y-94350000D01*
X180100000Y-94350000D01*
X180100000Y-94180000D01*
X180900000Y-94180000D01*
X180900000Y-94350000D01*
X180920000Y-94350000D01*
X180920000Y-94850000D01*
X180900000Y-94850000D01*
X180900000Y-95925000D01*
X181175000Y-96200000D01*
X181518804Y-96200000D01*
X181705000Y-96122875D01*
X181705000Y-99609010D01*
X181300000Y-99528450D01*
X180589700Y-99528450D01*
X180589700Y-97307431D01*
X180615167Y-97179399D01*
X180589700Y-97051368D01*
X180589700Y-97051363D01*
X180514273Y-96672165D01*
X180373511Y-96461500D01*
X180299474Y-96350696D01*
X180299472Y-96350694D01*
X180226947Y-96242153D01*
X180118405Y-96169628D01*
X179986889Y-96038111D01*
X180100000Y-95925000D01*
X180100000Y-94850000D01*
X178875000Y-94850000D01*
X178836888Y-94888112D01*
X177720076Y-93771300D01*
X177647547Y-93662753D01*
X177217535Y-93375427D01*
X177126748Y-93357368D01*
X177093056Y-93306944D01*
X176729199Y-93063823D01*
X176408339Y-93000000D01*
X176729199Y-92936177D01*
X177093056Y-92693056D01*
X177336177Y-92329199D01*
X177421550Y-91900000D01*
X177421550Y-91370327D01*
X178279928Y-92228705D01*
G36*
X177789701Y-78717878D02*
X177789700Y-81271963D01*
X177764232Y-81400000D01*
X177865127Y-81907235D01*
X178152453Y-82337247D01*
X178582465Y-82624573D01*
X178673252Y-82642632D01*
X178706944Y-82693056D01*
X179070801Y-82936177D01*
X179391661Y-83000000D01*
X179281196Y-83000000D01*
X178876900Y-83167465D01*
X178567465Y-83476900D01*
X178400000Y-83881197D01*
X178400000Y-84075000D01*
X178675000Y-84350000D01*
X179900000Y-84350000D01*
X179900000Y-84180000D01*
X180700000Y-84180000D01*
X180700000Y-84350000D01*
X180720000Y-84350000D01*
X180720000Y-84850000D01*
X180700000Y-84850000D01*
X180700000Y-85925000D01*
X180975000Y-86200000D01*
X181318804Y-86200000D01*
X181705000Y-86040032D01*
X181705000Y-89859010D01*
X181300000Y-89778450D01*
X179700000Y-89778450D01*
X179538710Y-89810533D01*
X177810300Y-88082124D01*
X177810300Y-85125000D01*
X178400000Y-85125000D01*
X178400000Y-85318803D01*
X178567465Y-85723100D01*
X178876900Y-86032535D01*
X179281196Y-86200000D01*
X179625000Y-86200000D01*
X179900000Y-85925000D01*
X179900000Y-84850000D01*
X178675000Y-84850000D01*
X178400000Y-85125000D01*
X177810300Y-85125000D01*
X177810300Y-84728036D01*
X177835768Y-84600000D01*
X177734873Y-84092765D01*
X177447547Y-83662753D01*
X177017535Y-83375427D01*
X176926748Y-83357368D01*
X176893056Y-83306944D01*
X176529199Y-83063823D01*
X176208339Y-83000000D01*
X176529199Y-82936177D01*
X176893056Y-82693056D01*
X177136177Y-82329199D01*
X177221550Y-81900000D01*
X177221550Y-80900000D01*
X177136177Y-80470801D01*
X176893056Y-80106944D01*
X176529199Y-79863823D01*
X176100000Y-79778450D01*
X175389700Y-79778450D01*
X175389700Y-77221550D01*
X176100000Y-77221550D01*
X176261291Y-77189467D01*
X177789701Y-78717878D01*
X177789701Y-78717878D01*
G37*
X177789701Y-78717878D02*
X177789700Y-81271963D01*
X177764232Y-81400000D01*
X177865127Y-81907235D01*
X178152453Y-82337247D01*
X178582465Y-82624573D01*
X178673252Y-82642632D01*
X178706944Y-82693056D01*
X179070801Y-82936177D01*
X179391661Y-83000000D01*
X179281196Y-83000000D01*
X178876900Y-83167465D01*
X178567465Y-83476900D01*
X178400000Y-83881197D01*
X178400000Y-84075000D01*
X178675000Y-84350000D01*
X179900000Y-84350000D01*
X179900000Y-84180000D01*
X180700000Y-84180000D01*
X180700000Y-84350000D01*
X180720000Y-84350000D01*
X180720000Y-84850000D01*
X180700000Y-84850000D01*
X180700000Y-85925000D01*
X180975000Y-86200000D01*
X181318804Y-86200000D01*
X181705000Y-86040032D01*
X181705000Y-89859010D01*
X181300000Y-89778450D01*
X179700000Y-89778450D01*
X179538710Y-89810533D01*
X177810300Y-88082124D01*
X177810300Y-85125000D01*
X178400000Y-85125000D01*
X178400000Y-85318803D01*
X178567465Y-85723100D01*
X178876900Y-86032535D01*
X179281196Y-86200000D01*
X179625000Y-86200000D01*
X179900000Y-85925000D01*
X179900000Y-84850000D01*
X178675000Y-84850000D01*
X178400000Y-85125000D01*
X177810300Y-85125000D01*
X177810300Y-84728036D01*
X177835768Y-84600000D01*
X177734873Y-84092765D01*
X177447547Y-83662753D01*
X177017535Y-83375427D01*
X176926748Y-83357368D01*
X176893056Y-83306944D01*
X176529199Y-83063823D01*
X176208339Y-83000000D01*
X176529199Y-82936177D01*
X176893056Y-82693056D01*
X177136177Y-82329199D01*
X177221550Y-81900000D01*
X177221550Y-80900000D01*
X177136177Y-80470801D01*
X176893056Y-80106944D01*
X176529199Y-79863823D01*
X176100000Y-79778450D01*
X175389700Y-79778450D01*
X175389700Y-77221550D01*
X176100000Y-77221550D01*
X176261291Y-77189467D01*
X177789701Y-78717878D01*
G36*
X147828450Y-72900000D02*
X147913823Y-73329199D01*
X148156944Y-73693056D01*
X148520801Y-73936177D01*
X148841661Y-74000000D01*
X148731196Y-74000000D01*
X148326900Y-74167465D01*
X148017465Y-74476900D01*
X147850000Y-74881197D01*
X147850000Y-75075000D01*
X148125000Y-75350000D01*
X149350000Y-75350000D01*
X149350000Y-75180000D01*
X150150000Y-75180000D01*
X150150000Y-75350000D01*
X150170000Y-75350000D01*
X150170000Y-75850000D01*
X150150000Y-75850000D01*
X150150000Y-76925000D01*
X150425000Y-77200000D01*
X150747687Y-77200000D01*
X150693981Y-77470000D01*
X150717000Y-77585724D01*
X150717000Y-78956482D01*
X150687247Y-78911953D01*
X150578703Y-78839426D01*
X149835276Y-78096000D01*
X149785275Y-77975286D01*
X149405514Y-77595525D01*
X148909332Y-77390000D01*
X148372268Y-77390000D01*
X147876086Y-77595525D01*
X147496325Y-77975286D01*
X147290800Y-78471468D01*
X147290800Y-79008532D01*
X147496325Y-79504714D01*
X147876086Y-79884475D01*
X147996800Y-79934476D01*
X148450000Y-80387677D01*
X148450001Y-82011130D01*
X148156944Y-82206944D01*
X147913823Y-82570801D01*
X147828450Y-83000000D01*
X147828450Y-84000000D01*
X147913823Y-84429199D01*
X148156944Y-84793056D01*
X148520801Y-85036177D01*
X148841661Y-85100000D01*
X148731196Y-85100000D01*
X148326900Y-85267465D01*
X148017465Y-85576900D01*
X147850000Y-85981197D01*
X147850000Y-86175000D01*
X148125000Y-86450000D01*
X149350000Y-86450000D01*
X149350000Y-86280000D01*
X150150000Y-86280000D01*
X150150000Y-86450000D01*
X150170000Y-86450000D01*
X150170000Y-86950000D01*
X150150000Y-86950000D01*
X150150000Y-87120000D01*
X149350000Y-87120000D01*
X149350000Y-86950000D01*
X148125000Y-86950000D01*
X147850000Y-87225000D01*
X147850000Y-87418803D01*
X147976831Y-87725000D01*
X146522165Y-87725000D01*
X146586177Y-87629199D01*
X146671550Y-87200000D01*
X146671550Y-86200000D01*
X146586177Y-85770801D01*
X146343056Y-85406944D01*
X145979199Y-85163823D01*
X145658339Y-85100000D01*
X145979199Y-85036177D01*
X146343056Y-84793056D01*
X146586177Y-84429199D01*
X146671550Y-84000000D01*
X146671550Y-83000000D01*
X146586177Y-82570801D01*
X146343056Y-82206944D01*
X145979199Y-81963823D01*
X145550000Y-81878450D01*
X143950000Y-81878450D01*
X143520801Y-81963823D01*
X143308000Y-82106012D01*
X143308000Y-81918300D01*
X143033000Y-81643300D01*
X141833000Y-81643300D01*
X141833000Y-81750800D01*
X141083000Y-81750800D01*
X141083000Y-81643300D01*
X141038000Y-81643300D01*
X141038000Y-81018300D01*
X141083000Y-81018300D01*
X141083000Y-79880800D01*
X141833000Y-79880800D01*
X141833000Y-81018300D01*
X143033000Y-81018300D01*
X143308000Y-80743300D01*
X143308000Y-80486997D01*
X143140535Y-80082700D01*
X142831100Y-79773265D01*
X142426804Y-79605800D01*
X142108000Y-79605800D01*
X141833000Y-79880800D01*
X141083000Y-79880800D01*
X140808000Y-79605800D01*
X140489196Y-79605800D01*
X140308000Y-79680854D01*
X140308000Y-79589068D01*
X140258000Y-79468357D01*
X140258000Y-77520176D01*
X142865763Y-74912414D01*
X142828450Y-75100000D01*
X142828450Y-76100000D01*
X142908597Y-76502927D01*
X142579700Y-76831824D01*
X142471153Y-76904353D01*
X142183827Y-77334366D01*
X142117281Y-77668917D01*
X142058400Y-77811068D01*
X142058400Y-78348132D01*
X142263925Y-78844314D01*
X142643686Y-79224075D01*
X143139868Y-79429600D01*
X143676932Y-79429600D01*
X144173114Y-79224075D01*
X144552875Y-78844314D01*
X144758400Y-78348132D01*
X144758400Y-78330076D01*
X145578702Y-77509774D01*
X145687247Y-77437247D01*
X145874501Y-77157003D01*
X145979199Y-77136177D01*
X146343056Y-76893056D01*
X146586177Y-76529199D01*
X146666577Y-76125000D01*
X147850000Y-76125000D01*
X147850000Y-76318803D01*
X148017465Y-76723100D01*
X148326900Y-77032535D01*
X148731196Y-77200000D01*
X149075000Y-77200000D01*
X149350000Y-76925000D01*
X149350000Y-75850000D01*
X148125000Y-75850000D01*
X147850000Y-76125000D01*
X146666577Y-76125000D01*
X146671550Y-76100000D01*
X146671550Y-75100000D01*
X146586177Y-74670801D01*
X146343056Y-74306944D01*
X145979199Y-74063823D01*
X145658339Y-74000000D01*
X145979199Y-73936177D01*
X146343056Y-73693056D01*
X146376748Y-73642632D01*
X146467535Y-73624573D01*
X146897547Y-73337247D01*
X146970076Y-73228700D01*
X147409077Y-72789700D01*
X147828450Y-72789700D01*
X147828450Y-72900000D01*
X147828450Y-72900000D01*
G37*
X147828450Y-72900000D02*
X147913823Y-73329199D01*
X148156944Y-73693056D01*
X148520801Y-73936177D01*
X148841661Y-74000000D01*
X148731196Y-74000000D01*
X148326900Y-74167465D01*
X148017465Y-74476900D01*
X147850000Y-74881197D01*
X147850000Y-75075000D01*
X148125000Y-75350000D01*
X149350000Y-75350000D01*
X149350000Y-75180000D01*
X150150000Y-75180000D01*
X150150000Y-75350000D01*
X150170000Y-75350000D01*
X150170000Y-75850000D01*
X150150000Y-75850000D01*
X150150000Y-76925000D01*
X150425000Y-77200000D01*
X150747687Y-77200000D01*
X150693981Y-77470000D01*
X150717000Y-77585724D01*
X150717000Y-78956482D01*
X150687247Y-78911953D01*
X150578703Y-78839426D01*
X149835276Y-78096000D01*
X149785275Y-77975286D01*
X149405514Y-77595525D01*
X148909332Y-77390000D01*
X148372268Y-77390000D01*
X147876086Y-77595525D01*
X147496325Y-77975286D01*
X147290800Y-78471468D01*
X147290800Y-79008532D01*
X147496325Y-79504714D01*
X147876086Y-79884475D01*
X147996800Y-79934476D01*
X148450000Y-80387677D01*
X148450001Y-82011130D01*
X148156944Y-82206944D01*
X147913823Y-82570801D01*
X147828450Y-83000000D01*
X147828450Y-84000000D01*
X147913823Y-84429199D01*
X148156944Y-84793056D01*
X148520801Y-85036177D01*
X148841661Y-85100000D01*
X148731196Y-85100000D01*
X148326900Y-85267465D01*
X148017465Y-85576900D01*
X147850000Y-85981197D01*
X147850000Y-86175000D01*
X148125000Y-86450000D01*
X149350000Y-86450000D01*
X149350000Y-86280000D01*
X150150000Y-86280000D01*
X150150000Y-86450000D01*
X150170000Y-86450000D01*
X150170000Y-86950000D01*
X150150000Y-86950000D01*
X150150000Y-87120000D01*
X149350000Y-87120000D01*
X149350000Y-86950000D01*
X148125000Y-86950000D01*
X147850000Y-87225000D01*
X147850000Y-87418803D01*
X147976831Y-87725000D01*
X146522165Y-87725000D01*
X146586177Y-87629199D01*
X146671550Y-87200000D01*
X146671550Y-86200000D01*
X146586177Y-85770801D01*
X146343056Y-85406944D01*
X145979199Y-85163823D01*
X145658339Y-85100000D01*
X145979199Y-85036177D01*
X146343056Y-84793056D01*
X146586177Y-84429199D01*
X146671550Y-84000000D01*
X146671550Y-83000000D01*
X146586177Y-82570801D01*
X146343056Y-82206944D01*
X145979199Y-81963823D01*
X145550000Y-81878450D01*
X143950000Y-81878450D01*
X143520801Y-81963823D01*
X143308000Y-82106012D01*
X143308000Y-81918300D01*
X143033000Y-81643300D01*
X141833000Y-81643300D01*
X141833000Y-81750800D01*
X141083000Y-81750800D01*
X141083000Y-81643300D01*
X141038000Y-81643300D01*
X141038000Y-81018300D01*
X141083000Y-81018300D01*
X141083000Y-79880800D01*
X141833000Y-79880800D01*
X141833000Y-81018300D01*
X143033000Y-81018300D01*
X143308000Y-80743300D01*
X143308000Y-80486997D01*
X143140535Y-80082700D01*
X142831100Y-79773265D01*
X142426804Y-79605800D01*
X142108000Y-79605800D01*
X141833000Y-79880800D01*
X141083000Y-79880800D01*
X140808000Y-79605800D01*
X140489196Y-79605800D01*
X140308000Y-79680854D01*
X140308000Y-79589068D01*
X140258000Y-79468357D01*
X140258000Y-77520176D01*
X142865763Y-74912414D01*
X142828450Y-75100000D01*
X142828450Y-76100000D01*
X142908597Y-76502927D01*
X142579700Y-76831824D01*
X142471153Y-76904353D01*
X142183827Y-77334366D01*
X142117281Y-77668917D01*
X142058400Y-77811068D01*
X142058400Y-78348132D01*
X142263925Y-78844314D01*
X142643686Y-79224075D01*
X143139868Y-79429600D01*
X143676932Y-79429600D01*
X144173114Y-79224075D01*
X144552875Y-78844314D01*
X144758400Y-78348132D01*
X144758400Y-78330076D01*
X145578702Y-77509774D01*
X145687247Y-77437247D01*
X145874501Y-77157003D01*
X145979199Y-77136177D01*
X146343056Y-76893056D01*
X146586177Y-76529199D01*
X146666577Y-76125000D01*
X147850000Y-76125000D01*
X147850000Y-76318803D01*
X148017465Y-76723100D01*
X148326900Y-77032535D01*
X148731196Y-77200000D01*
X149075000Y-77200000D01*
X149350000Y-76925000D01*
X149350000Y-75850000D01*
X148125000Y-75850000D01*
X147850000Y-76125000D01*
X146666577Y-76125000D01*
X146671550Y-76100000D01*
X146671550Y-75100000D01*
X146586177Y-74670801D01*
X146343056Y-74306944D01*
X145979199Y-74063823D01*
X145658339Y-74000000D01*
X145979199Y-73936177D01*
X146343056Y-73693056D01*
X146376748Y-73642632D01*
X146467535Y-73624573D01*
X146897547Y-73337247D01*
X146970076Y-73228700D01*
X147409077Y-72789700D01*
X147828450Y-72789700D01*
X147828450Y-72900000D01*
G36*
X205615000Y-79421550D02*
X207215000Y-79421550D01*
X207376291Y-79389467D01*
X208864701Y-80877878D01*
X208864700Y-83361963D01*
X208839232Y-83490000D01*
X208940127Y-83997235D01*
X209141677Y-84298874D01*
X209227453Y-84427247D01*
X209657465Y-84714573D01*
X209748251Y-84732631D01*
X209781944Y-84783056D01*
X210145801Y-85026177D01*
X210466661Y-85090000D01*
X210356196Y-85090000D01*
X209951900Y-85257465D01*
X209642465Y-85566900D01*
X209475000Y-85971197D01*
X209475000Y-86165000D01*
X209750000Y-86440000D01*
X210975000Y-86440000D01*
X210975000Y-86270000D01*
X211775000Y-86270000D01*
X211775000Y-86440000D01*
X211795000Y-86440000D01*
X211795000Y-86940000D01*
X211775000Y-86940000D01*
X211775000Y-87110000D01*
X210975000Y-87110000D01*
X210975000Y-86940000D01*
X209750000Y-86940000D01*
X209475000Y-87215000D01*
X209475000Y-87408803D01*
X209605973Y-87725000D01*
X208140483Y-87725000D01*
X208211177Y-87619199D01*
X208296550Y-87190000D01*
X208296550Y-86190000D01*
X208211177Y-85760801D01*
X207968056Y-85396944D01*
X207604199Y-85153823D01*
X207283339Y-85090000D01*
X207604199Y-85026177D01*
X207968056Y-84783056D01*
X208211177Y-84419199D01*
X208296550Y-83990000D01*
X208296550Y-82990000D01*
X208211177Y-82560801D01*
X207968056Y-82196944D01*
X207604199Y-81953823D01*
X207175000Y-81868450D01*
X205894300Y-81868450D01*
X205894300Y-81306436D01*
X205919768Y-81178400D01*
X205833222Y-80743300D01*
X205818873Y-80671165D01*
X205531547Y-80241153D01*
X205433181Y-80175427D01*
X205364200Y-80129335D01*
X205364200Y-79741468D01*
X205314200Y-79620757D01*
X205314200Y-79361717D01*
X205615000Y-79421550D01*
X205615000Y-79421550D01*
G37*
X205615000Y-79421550D02*
X207215000Y-79421550D01*
X207376291Y-79389467D01*
X208864701Y-80877878D01*
X208864700Y-83361963D01*
X208839232Y-83490000D01*
X208940127Y-83997235D01*
X209141677Y-84298874D01*
X209227453Y-84427247D01*
X209657465Y-84714573D01*
X209748251Y-84732631D01*
X209781944Y-84783056D01*
X210145801Y-85026177D01*
X210466661Y-85090000D01*
X210356196Y-85090000D01*
X209951900Y-85257465D01*
X209642465Y-85566900D01*
X209475000Y-85971197D01*
X209475000Y-86165000D01*
X209750000Y-86440000D01*
X210975000Y-86440000D01*
X210975000Y-86270000D01*
X211775000Y-86270000D01*
X211775000Y-86440000D01*
X211795000Y-86440000D01*
X211795000Y-86940000D01*
X211775000Y-86940000D01*
X211775000Y-87110000D01*
X210975000Y-87110000D01*
X210975000Y-86940000D01*
X209750000Y-86940000D01*
X209475000Y-87215000D01*
X209475000Y-87408803D01*
X209605973Y-87725000D01*
X208140483Y-87725000D01*
X208211177Y-87619199D01*
X208296550Y-87190000D01*
X208296550Y-86190000D01*
X208211177Y-85760801D01*
X207968056Y-85396944D01*
X207604199Y-85153823D01*
X207283339Y-85090000D01*
X207604199Y-85026177D01*
X207968056Y-84783056D01*
X208211177Y-84419199D01*
X208296550Y-83990000D01*
X208296550Y-82990000D01*
X208211177Y-82560801D01*
X207968056Y-82196944D01*
X207604199Y-81953823D01*
X207175000Y-81868450D01*
X205894300Y-81868450D01*
X205894300Y-81306436D01*
X205919768Y-81178400D01*
X205833222Y-80743300D01*
X205818873Y-80671165D01*
X205531547Y-80241153D01*
X205433181Y-80175427D01*
X205364200Y-80129335D01*
X205364200Y-79741468D01*
X205314200Y-79620757D01*
X205314200Y-79361717D01*
X205615000Y-79421550D01*
G36*
X138020753Y-84437247D02*
X138450765Y-84724573D01*
X138829963Y-84800000D01*
X138829964Y-84800000D01*
X138958000Y-84825468D01*
X139086037Y-84800000D01*
X143167336Y-84800000D01*
X143520801Y-85036177D01*
X143841661Y-85100000D01*
X143520801Y-85163823D01*
X143156944Y-85406944D01*
X142913823Y-85770801D01*
X142828450Y-86200000D01*
X142828450Y-87200000D01*
X142913823Y-87629199D01*
X142977835Y-87725000D01*
X137619027Y-87725000D01*
X137750000Y-87408803D01*
X137750000Y-87215000D01*
X137475000Y-86940000D01*
X136250000Y-86940000D01*
X136250000Y-87110000D01*
X135450000Y-87110000D01*
X135450000Y-86940000D01*
X134225000Y-86940000D01*
X133950000Y-87215000D01*
X133950000Y-87408803D01*
X134080973Y-87725000D01*
X132851250Y-87725000D01*
X132997547Y-87627247D01*
X133070076Y-87518700D01*
X134186888Y-86401888D01*
X134225000Y-86440000D01*
X135450000Y-86440000D01*
X135450000Y-86270000D01*
X136250000Y-86270000D01*
X136250000Y-86440000D01*
X137475000Y-86440000D01*
X137750000Y-86165000D01*
X137750000Y-85971197D01*
X137582535Y-85566900D01*
X137273100Y-85257465D01*
X136868804Y-85090000D01*
X136758339Y-85090000D01*
X137079199Y-85026177D01*
X137443056Y-84783056D01*
X137686177Y-84419199D01*
X137760163Y-84047248D01*
X138020753Y-84437247D01*
X138020753Y-84437247D01*
G37*
X138020753Y-84437247D02*
X138450765Y-84724573D01*
X138829963Y-84800000D01*
X138829964Y-84800000D01*
X138958000Y-84825468D01*
X139086037Y-84800000D01*
X143167336Y-84800000D01*
X143520801Y-85036177D01*
X143841661Y-85100000D01*
X143520801Y-85163823D01*
X143156944Y-85406944D01*
X142913823Y-85770801D01*
X142828450Y-86200000D01*
X142828450Y-87200000D01*
X142913823Y-87629199D01*
X142977835Y-87725000D01*
X137619027Y-87725000D01*
X137750000Y-87408803D01*
X137750000Y-87215000D01*
X137475000Y-86940000D01*
X136250000Y-86940000D01*
X136250000Y-87110000D01*
X135450000Y-87110000D01*
X135450000Y-86940000D01*
X134225000Y-86940000D01*
X133950000Y-87215000D01*
X133950000Y-87408803D01*
X134080973Y-87725000D01*
X132851250Y-87725000D01*
X132997547Y-87627247D01*
X133070076Y-87518700D01*
X134186888Y-86401888D01*
X134225000Y-86440000D01*
X135450000Y-86440000D01*
X135450000Y-86270000D01*
X136250000Y-86270000D01*
X136250000Y-86440000D01*
X137475000Y-86440000D01*
X137750000Y-86165000D01*
X137750000Y-85971197D01*
X137582535Y-85566900D01*
X137273100Y-85257465D01*
X136868804Y-85090000D01*
X136758339Y-85090000D01*
X137079199Y-85026177D01*
X137443056Y-84783056D01*
X137686177Y-84419199D01*
X137760163Y-84047248D01*
X138020753Y-84437247D01*
G36*
X198720000Y-60420002D02*
X198844998Y-60420002D01*
X198720000Y-60545000D01*
X198720000Y-60738803D01*
X198887465Y-61143100D01*
X199196900Y-61452535D01*
X199601196Y-61620000D01*
X199945000Y-61620000D01*
X200220000Y-61345000D01*
X200220000Y-60409600D01*
X201020000Y-60409600D01*
X201020000Y-61345000D01*
X201295000Y-61620000D01*
X201638804Y-61620000D01*
X202043100Y-61452535D01*
X202352535Y-61143100D01*
X202520000Y-60738803D01*
X202520000Y-60545000D01*
X202395002Y-60420002D01*
X202520000Y-60420002D01*
X202520000Y-60409600D01*
X203007600Y-60409600D01*
X203007601Y-64684863D01*
X202982133Y-64812900D01*
X203083027Y-65320134D01*
X203297826Y-65641602D01*
X203370354Y-65750147D01*
X203478898Y-65822674D01*
X203904701Y-66248477D01*
X203904700Y-74061523D01*
X203185497Y-74780726D01*
X203076954Y-74853253D01*
X203004427Y-74961797D01*
X203004426Y-74961798D01*
X202789627Y-75283266D01*
X202688733Y-75790500D01*
X202714201Y-75918537D01*
X202714200Y-79431850D01*
X202684000Y-79431850D01*
X202254801Y-79517223D01*
X202179062Y-79567830D01*
X201902804Y-79453400D01*
X201584000Y-79453400D01*
X201309000Y-79728400D01*
X201309000Y-80865900D01*
X201354000Y-80865900D01*
X201354000Y-81490900D01*
X201309000Y-81490900D01*
X201309000Y-82628400D01*
X201584000Y-82903400D01*
X201902804Y-82903400D01*
X202179062Y-82788970D01*
X202254801Y-82839577D01*
X202684000Y-82924950D01*
X203269897Y-82924950D01*
X203294300Y-83047633D01*
X203294300Y-83047637D01*
X203369727Y-83426835D01*
X203657054Y-83856847D01*
X203765598Y-83929374D01*
X204154925Y-84318702D01*
X204227453Y-84427247D01*
X204657465Y-84714573D01*
X204748252Y-84732632D01*
X204781944Y-84783056D01*
X205145801Y-85026177D01*
X205466661Y-85090000D01*
X205145801Y-85153823D01*
X204781944Y-85396944D01*
X204748252Y-85447368D01*
X204657465Y-85465427D01*
X204227453Y-85752753D01*
X204154925Y-85861298D01*
X203715924Y-86300300D01*
X199889000Y-86300300D01*
X199889000Y-86289998D01*
X199764002Y-86289998D01*
X199889000Y-86165000D01*
X199889000Y-85971197D01*
X199721535Y-85566900D01*
X199412100Y-85257465D01*
X199117804Y-85135563D01*
X199186708Y-85032441D01*
X199218199Y-85026177D01*
X199582056Y-84783056D01*
X199825177Y-84419199D01*
X199910550Y-83990000D01*
X199910550Y-82990000D01*
X199886871Y-82870957D01*
X199965196Y-82903400D01*
X200284000Y-82903400D01*
X200559000Y-82628400D01*
X200559000Y-81490900D01*
X199359000Y-81490900D01*
X199084000Y-81765900D01*
X199084000Y-81927129D01*
X198789000Y-81868450D01*
X197875700Y-81868450D01*
X197875700Y-80334597D01*
X199084000Y-80334597D01*
X199084000Y-80590900D01*
X199359000Y-80865900D01*
X200559000Y-80865900D01*
X200559000Y-79728400D01*
X200284000Y-79453400D01*
X199965196Y-79453400D01*
X199560900Y-79620865D01*
X199251465Y-79930300D01*
X199084000Y-80334597D01*
X197875700Y-80334597D01*
X197875700Y-77200000D01*
X198186002Y-77200000D01*
X198186002Y-76925002D01*
X198461000Y-77200000D01*
X198804804Y-77200000D01*
X199209100Y-77032535D01*
X199518535Y-76723100D01*
X199686000Y-76318803D01*
X199686000Y-76125000D01*
X199411000Y-75850000D01*
X198186000Y-75850000D01*
X198186000Y-76020000D01*
X197875700Y-76020000D01*
X197875700Y-75180000D01*
X198186000Y-75180000D01*
X198186000Y-75350000D01*
X199411000Y-75350000D01*
X199686000Y-75075000D01*
X199686000Y-74881197D01*
X199518535Y-74476900D01*
X199209100Y-74167465D01*
X198804804Y-74000000D01*
X198694339Y-74000000D01*
X199015199Y-73936177D01*
X199379056Y-73693056D01*
X199622177Y-73329199D01*
X199707550Y-72900000D01*
X199707550Y-71900000D01*
X199622177Y-71470801D01*
X199379056Y-71106944D01*
X199015199Y-70863823D01*
X198586000Y-70778450D01*
X196986000Y-70778450D01*
X196556801Y-70863823D01*
X196192944Y-71106944D01*
X196159252Y-71157368D01*
X196068465Y-71175427D01*
X195709700Y-71415147D01*
X195709700Y-62428000D01*
X196004232Y-62428000D01*
X196124943Y-62378000D01*
X196338567Y-62378000D01*
X196466600Y-62403467D01*
X196594633Y-62378000D01*
X196594637Y-62378000D01*
X196973835Y-62302573D01*
X197403847Y-62015247D01*
X197476376Y-61906701D01*
X197659002Y-61724075D01*
X197767547Y-61651547D01*
X198054873Y-61221535D01*
X198130300Y-60842336D01*
X198130300Y-60842332D01*
X198155767Y-60714301D01*
X198130300Y-60586269D01*
X198130300Y-60409600D01*
X198720000Y-60409600D01*
X198720000Y-60420002D01*
X198720000Y-60420002D01*
G37*
X198720000Y-60420002D02*
X198844998Y-60420002D01*
X198720000Y-60545000D01*
X198720000Y-60738803D01*
X198887465Y-61143100D01*
X199196900Y-61452535D01*
X199601196Y-61620000D01*
X199945000Y-61620000D01*
X200220000Y-61345000D01*
X200220000Y-60409600D01*
X201020000Y-60409600D01*
X201020000Y-61345000D01*
X201295000Y-61620000D01*
X201638804Y-61620000D01*
X202043100Y-61452535D01*
X202352535Y-61143100D01*
X202520000Y-60738803D01*
X202520000Y-60545000D01*
X202395002Y-60420002D01*
X202520000Y-60420002D01*
X202520000Y-60409600D01*
X203007600Y-60409600D01*
X203007601Y-64684863D01*
X202982133Y-64812900D01*
X203083027Y-65320134D01*
X203297826Y-65641602D01*
X203370354Y-65750147D01*
X203478898Y-65822674D01*
X203904701Y-66248477D01*
X203904700Y-74061523D01*
X203185497Y-74780726D01*
X203076954Y-74853253D01*
X203004427Y-74961797D01*
X203004426Y-74961798D01*
X202789627Y-75283266D01*
X202688733Y-75790500D01*
X202714201Y-75918537D01*
X202714200Y-79431850D01*
X202684000Y-79431850D01*
X202254801Y-79517223D01*
X202179062Y-79567830D01*
X201902804Y-79453400D01*
X201584000Y-79453400D01*
X201309000Y-79728400D01*
X201309000Y-80865900D01*
X201354000Y-80865900D01*
X201354000Y-81490900D01*
X201309000Y-81490900D01*
X201309000Y-82628400D01*
X201584000Y-82903400D01*
X201902804Y-82903400D01*
X202179062Y-82788970D01*
X202254801Y-82839577D01*
X202684000Y-82924950D01*
X203269897Y-82924950D01*
X203294300Y-83047633D01*
X203294300Y-83047637D01*
X203369727Y-83426835D01*
X203657054Y-83856847D01*
X203765598Y-83929374D01*
X204154925Y-84318702D01*
X204227453Y-84427247D01*
X204657465Y-84714573D01*
X204748252Y-84732632D01*
X204781944Y-84783056D01*
X205145801Y-85026177D01*
X205466661Y-85090000D01*
X205145801Y-85153823D01*
X204781944Y-85396944D01*
X204748252Y-85447368D01*
X204657465Y-85465427D01*
X204227453Y-85752753D01*
X204154925Y-85861298D01*
X203715924Y-86300300D01*
X199889000Y-86300300D01*
X199889000Y-86289998D01*
X199764002Y-86289998D01*
X199889000Y-86165000D01*
X199889000Y-85971197D01*
X199721535Y-85566900D01*
X199412100Y-85257465D01*
X199117804Y-85135563D01*
X199186708Y-85032441D01*
X199218199Y-85026177D01*
X199582056Y-84783056D01*
X199825177Y-84419199D01*
X199910550Y-83990000D01*
X199910550Y-82990000D01*
X199886871Y-82870957D01*
X199965196Y-82903400D01*
X200284000Y-82903400D01*
X200559000Y-82628400D01*
X200559000Y-81490900D01*
X199359000Y-81490900D01*
X199084000Y-81765900D01*
X199084000Y-81927129D01*
X198789000Y-81868450D01*
X197875700Y-81868450D01*
X197875700Y-80334597D01*
X199084000Y-80334597D01*
X199084000Y-80590900D01*
X199359000Y-80865900D01*
X200559000Y-80865900D01*
X200559000Y-79728400D01*
X200284000Y-79453400D01*
X199965196Y-79453400D01*
X199560900Y-79620865D01*
X199251465Y-79930300D01*
X199084000Y-80334597D01*
X197875700Y-80334597D01*
X197875700Y-77200000D01*
X198186002Y-77200000D01*
X198186002Y-76925002D01*
X198461000Y-77200000D01*
X198804804Y-77200000D01*
X199209100Y-77032535D01*
X199518535Y-76723100D01*
X199686000Y-76318803D01*
X199686000Y-76125000D01*
X199411000Y-75850000D01*
X198186000Y-75850000D01*
X198186000Y-76020000D01*
X197875700Y-76020000D01*
X197875700Y-75180000D01*
X198186000Y-75180000D01*
X198186000Y-75350000D01*
X199411000Y-75350000D01*
X199686000Y-75075000D01*
X199686000Y-74881197D01*
X199518535Y-74476900D01*
X199209100Y-74167465D01*
X198804804Y-74000000D01*
X198694339Y-74000000D01*
X199015199Y-73936177D01*
X199379056Y-73693056D01*
X199622177Y-73329199D01*
X199707550Y-72900000D01*
X199707550Y-71900000D01*
X199622177Y-71470801D01*
X199379056Y-71106944D01*
X199015199Y-70863823D01*
X198586000Y-70778450D01*
X196986000Y-70778450D01*
X196556801Y-70863823D01*
X196192944Y-71106944D01*
X196159252Y-71157368D01*
X196068465Y-71175427D01*
X195709700Y-71415147D01*
X195709700Y-62428000D01*
X196004232Y-62428000D01*
X196124943Y-62378000D01*
X196338567Y-62378000D01*
X196466600Y-62403467D01*
X196594633Y-62378000D01*
X196594637Y-62378000D01*
X196973835Y-62302573D01*
X197403847Y-62015247D01*
X197476376Y-61906701D01*
X197659002Y-61724075D01*
X197767547Y-61651547D01*
X198054873Y-61221535D01*
X198130300Y-60842336D01*
X198130300Y-60842332D01*
X198155767Y-60714301D01*
X198130300Y-60586269D01*
X198130300Y-60409600D01*
X198720000Y-60409600D01*
X198720000Y-60420002D01*
G36*
X208904701Y-72027878D02*
X208904700Y-74471963D01*
X208879232Y-74600000D01*
X208980127Y-75107235D01*
X209267453Y-75537247D01*
X209697465Y-75824573D01*
X209788252Y-75842632D01*
X209821944Y-75893056D01*
X210185801Y-76136177D01*
X210506661Y-76200000D01*
X210396196Y-76200000D01*
X209991900Y-76367465D01*
X209682465Y-76676900D01*
X209515000Y-77081197D01*
X209515000Y-77275000D01*
X209790000Y-77550000D01*
X211015000Y-77550000D01*
X211015000Y-77380000D01*
X211815000Y-77380000D01*
X211815000Y-77550000D01*
X211835000Y-77550000D01*
X211835000Y-78050000D01*
X211815000Y-78050000D01*
X211815000Y-79125000D01*
X212090000Y-79400000D01*
X212433804Y-79400000D01*
X212693001Y-79292637D01*
X212693001Y-82013158D01*
X212604199Y-81953823D01*
X212175000Y-81868450D01*
X211464700Y-81868450D01*
X211464700Y-80467433D01*
X211490167Y-80339400D01*
X211464700Y-80211367D01*
X211464700Y-80211363D01*
X211389273Y-79832165D01*
X211101947Y-79402153D01*
X210993403Y-79329626D01*
X210901888Y-79238112D01*
X211015000Y-79125000D01*
X211015000Y-78050000D01*
X209790000Y-78050000D01*
X209751888Y-78088112D01*
X208635076Y-76971300D01*
X208562547Y-76862753D01*
X208132535Y-76575427D01*
X208041748Y-76557368D01*
X208008056Y-76506944D01*
X207644199Y-76263823D01*
X207323339Y-76200000D01*
X207644199Y-76136177D01*
X208008056Y-75893056D01*
X208251177Y-75529199D01*
X208336550Y-75100000D01*
X208336550Y-74100000D01*
X208251177Y-73670801D01*
X208008056Y-73306944D01*
X207644199Y-73063823D01*
X207215000Y-72978450D01*
X206504700Y-72978450D01*
X206504700Y-70531550D01*
X207215000Y-70531550D01*
X207376291Y-70499467D01*
X208904701Y-72027878D01*
X208904701Y-72027878D01*
G37*
X208904701Y-72027878D02*
X208904700Y-74471963D01*
X208879232Y-74600000D01*
X208980127Y-75107235D01*
X209267453Y-75537247D01*
X209697465Y-75824573D01*
X209788252Y-75842632D01*
X209821944Y-75893056D01*
X210185801Y-76136177D01*
X210506661Y-76200000D01*
X210396196Y-76200000D01*
X209991900Y-76367465D01*
X209682465Y-76676900D01*
X209515000Y-77081197D01*
X209515000Y-77275000D01*
X209790000Y-77550000D01*
X211015000Y-77550000D01*
X211015000Y-77380000D01*
X211815000Y-77380000D01*
X211815000Y-77550000D01*
X211835000Y-77550000D01*
X211835000Y-78050000D01*
X211815000Y-78050000D01*
X211815000Y-79125000D01*
X212090000Y-79400000D01*
X212433804Y-79400000D01*
X212693001Y-79292637D01*
X212693001Y-82013158D01*
X212604199Y-81953823D01*
X212175000Y-81868450D01*
X211464700Y-81868450D01*
X211464700Y-80467433D01*
X211490167Y-80339400D01*
X211464700Y-80211367D01*
X211464700Y-80211363D01*
X211389273Y-79832165D01*
X211101947Y-79402153D01*
X210993403Y-79329626D01*
X210901888Y-79238112D01*
X211015000Y-79125000D01*
X211015000Y-78050000D01*
X209790000Y-78050000D01*
X209751888Y-78088112D01*
X208635076Y-76971300D01*
X208562547Y-76862753D01*
X208132535Y-76575427D01*
X208041748Y-76557368D01*
X208008056Y-76506944D01*
X207644199Y-76263823D01*
X207323339Y-76200000D01*
X207644199Y-76136177D01*
X208008056Y-75893056D01*
X208251177Y-75529199D01*
X208336550Y-75100000D01*
X208336550Y-74100000D01*
X208251177Y-73670801D01*
X208008056Y-73306944D01*
X207644199Y-73063823D01*
X207215000Y-72978450D01*
X206504700Y-72978450D01*
X206504700Y-70531550D01*
X207215000Y-70531550D01*
X207376291Y-70499467D01*
X208904701Y-72027878D01*
G36*
X136216001Y-80385830D02*
X135329300Y-81272318D01*
X135329300Y-79245700D01*
X135450000Y-79125000D01*
X135450000Y-78050000D01*
X135430000Y-78050000D01*
X135430000Y-77550000D01*
X135450000Y-77550000D01*
X135450000Y-77380000D01*
X136216001Y-77380000D01*
X136216001Y-80385830D01*
X136216001Y-80385830D01*
G37*
X136216001Y-80385830D02*
X135329300Y-81272318D01*
X135329300Y-79245700D01*
X135450000Y-79125000D01*
X135450000Y-78050000D01*
X135430000Y-78050000D01*
X135430000Y-77550000D01*
X135450000Y-77550000D01*
X135450000Y-77380000D01*
X136216001Y-77380000D01*
X136216001Y-80385830D01*
G36*
X168393000Y-67167100D02*
X168438000Y-67167100D01*
X168438000Y-67792100D01*
X168393000Y-67792100D01*
X168393000Y-68502965D01*
X168192465Y-68703500D01*
X168025000Y-69107797D01*
X168025000Y-69364100D01*
X168300000Y-69639100D01*
X169500000Y-69639100D01*
X169500000Y-69531600D01*
X169853600Y-69531600D01*
X169853600Y-70371600D01*
X169500000Y-70371600D01*
X169500000Y-70264100D01*
X168300000Y-70264100D01*
X168025000Y-70539100D01*
X168025000Y-70795403D01*
X168037550Y-70825702D01*
X167800000Y-70778450D01*
X166200000Y-70778450D01*
X165770801Y-70863823D01*
X165406944Y-71106944D01*
X165163823Y-71470801D01*
X165078450Y-71900000D01*
X165078450Y-72900000D01*
X165163823Y-73329199D01*
X165406944Y-73693056D01*
X165770801Y-73936177D01*
X166091661Y-74000000D01*
X165981196Y-74000000D01*
X165576900Y-74167465D01*
X165267465Y-74476900D01*
X165100000Y-74881197D01*
X165100000Y-75075000D01*
X165375000Y-75350000D01*
X166600000Y-75350000D01*
X166600000Y-75180000D01*
X166910301Y-75180000D01*
X166910300Y-76020000D01*
X166600000Y-76020000D01*
X166600000Y-75850000D01*
X165375000Y-75850000D01*
X165100000Y-76125000D01*
X165100000Y-76318803D01*
X165267465Y-76723100D01*
X165576900Y-77032535D01*
X165981196Y-77200000D01*
X166325000Y-77200000D01*
X166599998Y-76925002D01*
X166599998Y-77200000D01*
X166910300Y-77200000D01*
X166910300Y-77580622D01*
X164164605Y-80326319D01*
X164434873Y-79921835D01*
X164510300Y-79542637D01*
X164510300Y-79542633D01*
X164535767Y-79414600D01*
X164510300Y-79286567D01*
X164510300Y-72528036D01*
X164535768Y-72400000D01*
X164434873Y-71892765D01*
X164147547Y-71462753D01*
X163717535Y-71175427D01*
X163626748Y-71157368D01*
X163593056Y-71106944D01*
X163428674Y-70997108D01*
X163680314Y-70892875D01*
X164060075Y-70513114D01*
X164265600Y-70016932D01*
X164265600Y-69479868D01*
X164212357Y-69351327D01*
X164232235Y-69347373D01*
X164232323Y-69347314D01*
X164232424Y-69347294D01*
X164443157Y-69206439D01*
X164494944Y-69171836D01*
X164768000Y-69226150D01*
X164851073Y-69226150D01*
X164980925Y-69356002D01*
X165053453Y-69464547D01*
X165483465Y-69751873D01*
X165862663Y-69827300D01*
X165862667Y-69827300D01*
X165990700Y-69852767D01*
X166118733Y-69827300D01*
X166237357Y-69827300D01*
X166358068Y-69877300D01*
X166895132Y-69877300D01*
X167391314Y-69671775D01*
X167771075Y-69292014D01*
X167976600Y-68795832D01*
X167976600Y-68258768D01*
X167942517Y-68176485D01*
X168118000Y-67752832D01*
X168118000Y-67215768D01*
X168068000Y-67095057D01*
X168068000Y-66875332D01*
X168093467Y-66747299D01*
X168084974Y-66704600D01*
X168393000Y-66704600D01*
X168393000Y-67167100D01*
X168393000Y-67167100D01*
G37*
X168393000Y-67167100D02*
X168438000Y-67167100D01*
X168438000Y-67792100D01*
X168393000Y-67792100D01*
X168393000Y-68502965D01*
X168192465Y-68703500D01*
X168025000Y-69107797D01*
X168025000Y-69364100D01*
X168300000Y-69639100D01*
X169500000Y-69639100D01*
X169500000Y-69531600D01*
X169853600Y-69531600D01*
X169853600Y-70371600D01*
X169500000Y-70371600D01*
X169500000Y-70264100D01*
X168300000Y-70264100D01*
X168025000Y-70539100D01*
X168025000Y-70795403D01*
X168037550Y-70825702D01*
X167800000Y-70778450D01*
X166200000Y-70778450D01*
X165770801Y-70863823D01*
X165406944Y-71106944D01*
X165163823Y-71470801D01*
X165078450Y-71900000D01*
X165078450Y-72900000D01*
X165163823Y-73329199D01*
X165406944Y-73693056D01*
X165770801Y-73936177D01*
X166091661Y-74000000D01*
X165981196Y-74000000D01*
X165576900Y-74167465D01*
X165267465Y-74476900D01*
X165100000Y-74881197D01*
X165100000Y-75075000D01*
X165375000Y-75350000D01*
X166600000Y-75350000D01*
X166600000Y-75180000D01*
X166910301Y-75180000D01*
X166910300Y-76020000D01*
X166600000Y-76020000D01*
X166600000Y-75850000D01*
X165375000Y-75850000D01*
X165100000Y-76125000D01*
X165100000Y-76318803D01*
X165267465Y-76723100D01*
X165576900Y-77032535D01*
X165981196Y-77200000D01*
X166325000Y-77200000D01*
X166599998Y-76925002D01*
X166599998Y-77200000D01*
X166910300Y-77200000D01*
X166910300Y-77580622D01*
X164164605Y-80326319D01*
X164434873Y-79921835D01*
X164510300Y-79542637D01*
X164510300Y-79542633D01*
X164535767Y-79414600D01*
X164510300Y-79286567D01*
X164510300Y-72528036D01*
X164535768Y-72400000D01*
X164434873Y-71892765D01*
X164147547Y-71462753D01*
X163717535Y-71175427D01*
X163626748Y-71157368D01*
X163593056Y-71106944D01*
X163428674Y-70997108D01*
X163680314Y-70892875D01*
X164060075Y-70513114D01*
X164265600Y-70016932D01*
X164265600Y-69479868D01*
X164212357Y-69351327D01*
X164232235Y-69347373D01*
X164232323Y-69347314D01*
X164232424Y-69347294D01*
X164443157Y-69206439D01*
X164494944Y-69171836D01*
X164768000Y-69226150D01*
X164851073Y-69226150D01*
X164980925Y-69356002D01*
X165053453Y-69464547D01*
X165483465Y-69751873D01*
X165862663Y-69827300D01*
X165862667Y-69827300D01*
X165990700Y-69852767D01*
X166118733Y-69827300D01*
X166237357Y-69827300D01*
X166358068Y-69877300D01*
X166895132Y-69877300D01*
X167391314Y-69671775D01*
X167771075Y-69292014D01*
X167976600Y-68795832D01*
X167976600Y-68258768D01*
X167942517Y-68176485D01*
X168118000Y-67752832D01*
X168118000Y-67215768D01*
X168068000Y-67095057D01*
X168068000Y-66875332D01*
X168093467Y-66747299D01*
X168084974Y-66704600D01*
X168393000Y-66704600D01*
X168393000Y-67167100D01*
G36*
X177988668Y-72520800D02*
X178378450Y-72520800D01*
X178378450Y-72900000D01*
X178463823Y-73329199D01*
X178706944Y-73693056D01*
X179070801Y-73936177D01*
X179391661Y-74000000D01*
X179281196Y-74000000D01*
X178876900Y-74167465D01*
X178567465Y-74476900D01*
X178400000Y-74881197D01*
X178400000Y-75075000D01*
X178675000Y-75350000D01*
X179900000Y-75350000D01*
X179900000Y-75180000D01*
X180700000Y-75180000D01*
X180700000Y-75350000D01*
X180720000Y-75350000D01*
X180720000Y-75850000D01*
X180700000Y-75850000D01*
X180700000Y-76925000D01*
X180975000Y-77200000D01*
X181318804Y-77200000D01*
X181723100Y-77032535D01*
X181831729Y-76923906D01*
X181773175Y-77011538D01*
X181681981Y-77470000D01*
X181705000Y-77585724D01*
X181705000Y-79981289D01*
X181529199Y-79863823D01*
X181100000Y-79778450D01*
X180389700Y-79778450D01*
X180389700Y-78307431D01*
X180415167Y-78179399D01*
X180389700Y-78051368D01*
X180389700Y-78051363D01*
X180314273Y-77672165D01*
X180125736Y-77390000D01*
X180099474Y-77350696D01*
X180099472Y-77350694D01*
X180026947Y-77242153D01*
X179918405Y-77169628D01*
X179786889Y-77038111D01*
X179900000Y-76925000D01*
X179900000Y-75850000D01*
X178675000Y-75850000D01*
X178636888Y-75888112D01*
X177520076Y-74771300D01*
X177447547Y-74662753D01*
X177017535Y-74375427D01*
X176926748Y-74357368D01*
X176893056Y-74306944D01*
X176529199Y-74063823D01*
X176208339Y-74000000D01*
X176529199Y-73936177D01*
X176893056Y-73693056D01*
X176926748Y-73642632D01*
X177017535Y-73624573D01*
X177447547Y-73337247D01*
X177734873Y-72907235D01*
X177825207Y-72453092D01*
X177988668Y-72520800D01*
X177988668Y-72520800D01*
G37*
X177988668Y-72520800D02*
X178378450Y-72520800D01*
X178378450Y-72900000D01*
X178463823Y-73329199D01*
X178706944Y-73693056D01*
X179070801Y-73936177D01*
X179391661Y-74000000D01*
X179281196Y-74000000D01*
X178876900Y-74167465D01*
X178567465Y-74476900D01*
X178400000Y-74881197D01*
X178400000Y-75075000D01*
X178675000Y-75350000D01*
X179900000Y-75350000D01*
X179900000Y-75180000D01*
X180700000Y-75180000D01*
X180700000Y-75350000D01*
X180720000Y-75350000D01*
X180720000Y-75850000D01*
X180700000Y-75850000D01*
X180700000Y-76925000D01*
X180975000Y-77200000D01*
X181318804Y-77200000D01*
X181723100Y-77032535D01*
X181831729Y-76923906D01*
X181773175Y-77011538D01*
X181681981Y-77470000D01*
X181705000Y-77585724D01*
X181705000Y-79981289D01*
X181529199Y-79863823D01*
X181100000Y-79778450D01*
X180389700Y-79778450D01*
X180389700Y-78307431D01*
X180415167Y-78179399D01*
X180389700Y-78051368D01*
X180389700Y-78051363D01*
X180314273Y-77672165D01*
X180125736Y-77390000D01*
X180099474Y-77350696D01*
X180099472Y-77350694D01*
X180026947Y-77242153D01*
X179918405Y-77169628D01*
X179786889Y-77038111D01*
X179900000Y-76925000D01*
X179900000Y-75850000D01*
X178675000Y-75850000D01*
X178636888Y-75888112D01*
X177520076Y-74771300D01*
X177447547Y-74662753D01*
X177017535Y-74375427D01*
X176926748Y-74357368D01*
X176893056Y-74306944D01*
X176529199Y-74063823D01*
X176208339Y-74000000D01*
X176529199Y-73936177D01*
X176893056Y-73693056D01*
X176926748Y-73642632D01*
X177017535Y-73624573D01*
X177447547Y-73337247D01*
X177734873Y-72907235D01*
X177825207Y-72453092D01*
X177988668Y-72520800D01*
G36*
X156578450Y-72900000D02*
X156663823Y-73329199D01*
X156906944Y-73693056D01*
X157270801Y-73936177D01*
X157591661Y-74000000D01*
X157481196Y-74000000D01*
X157076900Y-74167465D01*
X156767465Y-74476900D01*
X156600000Y-74881197D01*
X156600000Y-75075000D01*
X156875000Y-75350000D01*
X158100000Y-75350000D01*
X158100000Y-75180000D01*
X158587402Y-75180000D01*
X158656402Y-75283266D01*
X158773054Y-75457847D01*
X158881597Y-75530374D01*
X158920000Y-75568777D01*
X158920000Y-75850000D01*
X158900000Y-75850000D01*
X158900000Y-76020000D01*
X158100000Y-76020000D01*
X158100000Y-75850000D01*
X156875000Y-75850000D01*
X156600000Y-76125000D01*
X156600000Y-76295000D01*
X155382762Y-76295000D01*
X155421550Y-76100000D01*
X155421550Y-75100000D01*
X155336177Y-74670801D01*
X155093056Y-74306944D01*
X154729199Y-74063823D01*
X154408339Y-74000000D01*
X154729199Y-73936177D01*
X155093056Y-73693056D01*
X155126748Y-73642632D01*
X155217535Y-73624573D01*
X155647547Y-73337247D01*
X155720076Y-73228700D01*
X156159077Y-72789700D01*
X156578450Y-72789700D01*
X156578450Y-72900000D01*
X156578450Y-72900000D01*
G37*
X156578450Y-72900000D02*
X156663823Y-73329199D01*
X156906944Y-73693056D01*
X157270801Y-73936177D01*
X157591661Y-74000000D01*
X157481196Y-74000000D01*
X157076900Y-74167465D01*
X156767465Y-74476900D01*
X156600000Y-74881197D01*
X156600000Y-75075000D01*
X156875000Y-75350000D01*
X158100000Y-75350000D01*
X158100000Y-75180000D01*
X158587402Y-75180000D01*
X158656402Y-75283266D01*
X158773054Y-75457847D01*
X158881597Y-75530374D01*
X158920000Y-75568777D01*
X158920000Y-75850000D01*
X158900000Y-75850000D01*
X158900000Y-76020000D01*
X158100000Y-76020000D01*
X158100000Y-75850000D01*
X156875000Y-75850000D01*
X156600000Y-76125000D01*
X156600000Y-76295000D01*
X155382762Y-76295000D01*
X155421550Y-76100000D01*
X155421550Y-75100000D01*
X155336177Y-74670801D01*
X155093056Y-74306944D01*
X154729199Y-74063823D01*
X154408339Y-74000000D01*
X154729199Y-73936177D01*
X155093056Y-73693056D01*
X155126748Y-73642632D01*
X155217535Y-73624573D01*
X155647547Y-73337247D01*
X155720076Y-73228700D01*
X156159077Y-72789700D01*
X156578450Y-72789700D01*
X156578450Y-72900000D01*
G36*
X190388000Y-67371000D02*
X190408000Y-67371000D01*
X190408000Y-67798002D01*
X190227500Y-68233768D01*
X190227500Y-68770832D01*
X190275700Y-68887198D01*
X190275701Y-70835279D01*
X189990000Y-70778450D01*
X188390000Y-70778450D01*
X187960801Y-70863823D01*
X187596944Y-71106944D01*
X187353823Y-71470801D01*
X187268450Y-71900000D01*
X187268450Y-72900000D01*
X187353823Y-73329199D01*
X187596944Y-73693056D01*
X187960801Y-73936177D01*
X188281661Y-74000000D01*
X188171196Y-74000000D01*
X187766900Y-74167465D01*
X187457465Y-74476900D01*
X187290000Y-74881197D01*
X187290000Y-75075000D01*
X187565000Y-75350000D01*
X188790000Y-75350000D01*
X188790000Y-75180000D01*
X189341547Y-75180000D01*
X189463054Y-75361847D01*
X189571598Y-75434374D01*
X189610000Y-75472776D01*
X189610000Y-75850000D01*
X189590000Y-75850000D01*
X189590000Y-76020000D01*
X188790000Y-76020000D01*
X188790000Y-75850000D01*
X187565000Y-75850000D01*
X187290000Y-76125000D01*
X187290000Y-76295000D01*
X186072762Y-76295000D01*
X186111550Y-76100000D01*
X186111550Y-75100000D01*
X186026177Y-74670801D01*
X185783056Y-74306944D01*
X185419199Y-74063823D01*
X185098339Y-74000000D01*
X185419199Y-73936177D01*
X185783056Y-73693056D01*
X186026177Y-73329199D01*
X186111550Y-72900000D01*
X186111550Y-71900000D01*
X186078638Y-71734540D01*
X186109678Y-71703500D01*
X186381332Y-71703500D01*
X186877514Y-71497975D01*
X187257275Y-71118214D01*
X187462800Y-70622032D01*
X187462800Y-70084968D01*
X187312040Y-69721000D01*
X187640054Y-69721000D01*
X188208852Y-69607859D01*
X188756379Y-69242013D01*
X189189785Y-69550169D01*
X189294364Y-69593462D01*
X189588000Y-69397538D01*
X189588000Y-68171000D01*
X189568000Y-68171000D01*
X189568000Y-67371000D01*
X189588000Y-67371000D01*
X189588000Y-67351000D01*
X190388000Y-67351000D01*
X190388000Y-67371000D01*
X190388000Y-67371000D01*
G37*
X190388000Y-67371000D02*
X190408000Y-67371000D01*
X190408000Y-67798002D01*
X190227500Y-68233768D01*
X190227500Y-68770832D01*
X190275700Y-68887198D01*
X190275701Y-70835279D01*
X189990000Y-70778450D01*
X188390000Y-70778450D01*
X187960801Y-70863823D01*
X187596944Y-71106944D01*
X187353823Y-71470801D01*
X187268450Y-71900000D01*
X187268450Y-72900000D01*
X187353823Y-73329199D01*
X187596944Y-73693056D01*
X187960801Y-73936177D01*
X188281661Y-74000000D01*
X188171196Y-74000000D01*
X187766900Y-74167465D01*
X187457465Y-74476900D01*
X187290000Y-74881197D01*
X187290000Y-75075000D01*
X187565000Y-75350000D01*
X188790000Y-75350000D01*
X188790000Y-75180000D01*
X189341547Y-75180000D01*
X189463054Y-75361847D01*
X189571598Y-75434374D01*
X189610000Y-75472776D01*
X189610000Y-75850000D01*
X189590000Y-75850000D01*
X189590000Y-76020000D01*
X188790000Y-76020000D01*
X188790000Y-75850000D01*
X187565000Y-75850000D01*
X187290000Y-76125000D01*
X187290000Y-76295000D01*
X186072762Y-76295000D01*
X186111550Y-76100000D01*
X186111550Y-75100000D01*
X186026177Y-74670801D01*
X185783056Y-74306944D01*
X185419199Y-74063823D01*
X185098339Y-74000000D01*
X185419199Y-73936177D01*
X185783056Y-73693056D01*
X186026177Y-73329199D01*
X186111550Y-72900000D01*
X186111550Y-71900000D01*
X186078638Y-71734540D01*
X186109678Y-71703500D01*
X186381332Y-71703500D01*
X186877514Y-71497975D01*
X187257275Y-71118214D01*
X187462800Y-70622032D01*
X187462800Y-70084968D01*
X187312040Y-69721000D01*
X187640054Y-69721000D01*
X188208852Y-69607859D01*
X188756379Y-69242013D01*
X189189785Y-69550169D01*
X189294364Y-69593462D01*
X189588000Y-69397538D01*
X189588000Y-68171000D01*
X189568000Y-68171000D01*
X189568000Y-67371000D01*
X189588000Y-67371000D01*
X189588000Y-67351000D01*
X190388000Y-67351000D01*
X190388000Y-67371000D01*
G36*
X136216000Y-72978450D02*
X135050000Y-72978450D01*
X134620801Y-73063823D01*
X134256944Y-73306944D01*
X134223252Y-73357368D01*
X134132465Y-73375427D01*
X133970700Y-73483515D01*
X133970700Y-69678777D01*
X134117465Y-70033100D01*
X134426900Y-70342535D01*
X134831196Y-70510000D01*
X135175000Y-70510000D01*
X135450000Y-70235000D01*
X135450000Y-69160000D01*
X135430000Y-69160000D01*
X135430000Y-68660000D01*
X135450000Y-68660000D01*
X135450000Y-68490000D01*
X136216000Y-68490000D01*
X136216000Y-72978450D01*
X136216000Y-72978450D01*
G37*
X136216000Y-72978450D02*
X135050000Y-72978450D01*
X134620801Y-73063823D01*
X134256944Y-73306944D01*
X134223252Y-73357368D01*
X134132465Y-73375427D01*
X133970700Y-73483515D01*
X133970700Y-69678777D01*
X134117465Y-70033100D01*
X134426900Y-70342535D01*
X134831196Y-70510000D01*
X135175000Y-70510000D01*
X135450000Y-70235000D01*
X135450000Y-69160000D01*
X135430000Y-69160000D01*
X135430000Y-68660000D01*
X135450000Y-68660000D01*
X135450000Y-68490000D01*
X136216000Y-68490000D01*
X136216000Y-72978450D01*
G36*
X208904701Y-63137878D02*
X208904700Y-65581963D01*
X208879232Y-65710000D01*
X208980127Y-66217235D01*
X209267453Y-66647247D01*
X209697465Y-66934573D01*
X209788252Y-66952632D01*
X209821944Y-67003056D01*
X210185801Y-67246177D01*
X210506661Y-67310000D01*
X210396196Y-67310000D01*
X209991900Y-67477465D01*
X209682465Y-67786900D01*
X209515000Y-68191197D01*
X209515000Y-68385000D01*
X209790000Y-68660000D01*
X211015000Y-68660000D01*
X211015000Y-68490000D01*
X211815000Y-68490000D01*
X211815000Y-68660000D01*
X211835000Y-68660000D01*
X211835000Y-69160000D01*
X211815000Y-69160000D01*
X211815000Y-70235000D01*
X212090000Y-70510000D01*
X212433804Y-70510000D01*
X212693000Y-70402637D01*
X212693001Y-73096431D01*
X212644199Y-73063823D01*
X212215000Y-72978450D01*
X211504700Y-72978450D01*
X211504700Y-71617431D01*
X211530167Y-71489399D01*
X211504700Y-71361368D01*
X211504700Y-71361363D01*
X211429273Y-70982165D01*
X211265809Y-70737525D01*
X211214474Y-70660696D01*
X211214472Y-70660694D01*
X211141947Y-70552153D01*
X211033405Y-70479628D01*
X210901889Y-70348111D01*
X211015000Y-70235000D01*
X211015000Y-69160000D01*
X209790000Y-69160000D01*
X209751888Y-69198112D01*
X208635076Y-68081300D01*
X208562547Y-67972753D01*
X208132535Y-67685427D01*
X208041748Y-67667368D01*
X208008056Y-67616944D01*
X207644199Y-67373823D01*
X207323339Y-67310000D01*
X207644199Y-67246177D01*
X208008056Y-67003056D01*
X208251177Y-66639199D01*
X208336550Y-66210000D01*
X208336550Y-65210000D01*
X208251177Y-64780801D01*
X208008056Y-64416944D01*
X207644199Y-64173823D01*
X207215000Y-64088450D01*
X205615000Y-64088450D01*
X205607600Y-64089922D01*
X205607600Y-61640078D01*
X205615000Y-61641550D01*
X207215000Y-61641550D01*
X207376291Y-61609467D01*
X208904701Y-63137878D01*
X208904701Y-63137878D01*
G37*
X208904701Y-63137878D02*
X208904700Y-65581963D01*
X208879232Y-65710000D01*
X208980127Y-66217235D01*
X209267453Y-66647247D01*
X209697465Y-66934573D01*
X209788252Y-66952632D01*
X209821944Y-67003056D01*
X210185801Y-67246177D01*
X210506661Y-67310000D01*
X210396196Y-67310000D01*
X209991900Y-67477465D01*
X209682465Y-67786900D01*
X209515000Y-68191197D01*
X209515000Y-68385000D01*
X209790000Y-68660000D01*
X211015000Y-68660000D01*
X211015000Y-68490000D01*
X211815000Y-68490000D01*
X211815000Y-68660000D01*
X211835000Y-68660000D01*
X211835000Y-69160000D01*
X211815000Y-69160000D01*
X211815000Y-70235000D01*
X212090000Y-70510000D01*
X212433804Y-70510000D01*
X212693000Y-70402637D01*
X212693001Y-73096431D01*
X212644199Y-73063823D01*
X212215000Y-72978450D01*
X211504700Y-72978450D01*
X211504700Y-71617431D01*
X211530167Y-71489399D01*
X211504700Y-71361368D01*
X211504700Y-71361363D01*
X211429273Y-70982165D01*
X211265809Y-70737525D01*
X211214474Y-70660696D01*
X211214472Y-70660694D01*
X211141947Y-70552153D01*
X211033405Y-70479628D01*
X210901889Y-70348111D01*
X211015000Y-70235000D01*
X211015000Y-69160000D01*
X209790000Y-69160000D01*
X209751888Y-69198112D01*
X208635076Y-68081300D01*
X208562547Y-67972753D01*
X208132535Y-67685427D01*
X208041748Y-67667368D01*
X208008056Y-67616944D01*
X207644199Y-67373823D01*
X207323339Y-67310000D01*
X207644199Y-67246177D01*
X208008056Y-67003056D01*
X208251177Y-66639199D01*
X208336550Y-66210000D01*
X208336550Y-65210000D01*
X208251177Y-64780801D01*
X208008056Y-64416944D01*
X207644199Y-64173823D01*
X207215000Y-64088450D01*
X205615000Y-64088450D01*
X205607600Y-64089922D01*
X205607600Y-61640078D01*
X205615000Y-61641550D01*
X207215000Y-61641550D01*
X207376291Y-61609467D01*
X208904701Y-63137878D01*
G36*
X141050801Y-58356177D02*
X141371661Y-58420000D01*
X141050801Y-58483823D01*
X140686944Y-58726944D01*
X140443823Y-59090801D01*
X140358450Y-59520000D01*
X140358450Y-60520000D01*
X140443823Y-60949199D01*
X140686944Y-61313056D01*
X141050801Y-61556177D01*
X141480000Y-61641550D01*
X143080000Y-61641550D01*
X143509199Y-61556177D01*
X143873056Y-61313056D01*
X143906748Y-61262632D01*
X143997535Y-61244573D01*
X144427547Y-60957247D01*
X144500076Y-60848700D01*
X144939077Y-60409700D01*
X145380000Y-60409700D01*
X145380000Y-60420002D01*
X145504998Y-60420002D01*
X145380000Y-60545000D01*
X145380000Y-60738803D01*
X145547465Y-61143100D01*
X145856900Y-61452535D01*
X146261196Y-61620000D01*
X146605000Y-61620000D01*
X146880000Y-61345000D01*
X146880000Y-60409700D01*
X147680000Y-60409700D01*
X147680000Y-61345000D01*
X147955000Y-61620000D01*
X148298804Y-61620000D01*
X148703100Y-61452535D01*
X149012535Y-61143100D01*
X149180000Y-60738803D01*
X149180000Y-60545000D01*
X149055002Y-60420002D01*
X149180000Y-60420002D01*
X149180000Y-60409700D01*
X151788450Y-60409700D01*
X151788450Y-60520000D01*
X151873823Y-60949199D01*
X152116944Y-61313056D01*
X152480801Y-61556177D01*
X152910000Y-61641550D01*
X154510000Y-61641550D01*
X154939199Y-61556177D01*
X155292664Y-61320000D01*
X156076967Y-61320000D01*
X156205000Y-61345467D01*
X156333033Y-61320000D01*
X156333037Y-61320000D01*
X156712235Y-61244573D01*
X156952890Y-61083772D01*
X156977465Y-61143100D01*
X157286900Y-61452535D01*
X157691196Y-61620000D01*
X158035000Y-61620000D01*
X158310000Y-61345000D01*
X158310000Y-60270000D01*
X159110000Y-60270000D01*
X159110000Y-61345000D01*
X159385000Y-61620000D01*
X159728804Y-61620000D01*
X160133100Y-61452535D01*
X160442535Y-61143100D01*
X160610000Y-60738803D01*
X160610000Y-60545000D01*
X160335000Y-60270000D01*
X159110000Y-60270000D01*
X158310000Y-60270000D01*
X158290000Y-60270000D01*
X158290000Y-59773477D01*
X158293477Y-59770000D01*
X158310000Y-59770000D01*
X158310000Y-59753477D01*
X158463477Y-59600000D01*
X159110000Y-59600000D01*
X159110000Y-59770000D01*
X160335000Y-59770000D01*
X160610000Y-59495000D01*
X160610000Y-59301197D01*
X160497791Y-59030300D01*
X162074248Y-59030300D01*
X162033823Y-59090801D01*
X161948450Y-59520000D01*
X161948450Y-60520000D01*
X162033823Y-60949199D01*
X162276944Y-61313056D01*
X162640801Y-61556177D01*
X163070000Y-61641550D01*
X164670000Y-61641550D01*
X165099199Y-61556177D01*
X165463056Y-61313056D01*
X165496748Y-61262632D01*
X165587535Y-61244573D01*
X166017547Y-60957247D01*
X166090076Y-60848700D01*
X166529077Y-60409700D01*
X166970000Y-60409700D01*
X166970000Y-60420002D01*
X167094998Y-60420002D01*
X166970000Y-60545000D01*
X166970000Y-60738803D01*
X167137465Y-61143100D01*
X167446900Y-61452535D01*
X167851196Y-61620000D01*
X168195000Y-61620000D01*
X168470000Y-61345000D01*
X168470000Y-60409700D01*
X169270000Y-60409700D01*
X169270000Y-61345000D01*
X169545000Y-61620000D01*
X169888804Y-61620000D01*
X170293100Y-61452535D01*
X170602535Y-61143100D01*
X170770000Y-60738803D01*
X170770000Y-60545000D01*
X170645002Y-60420002D01*
X170770000Y-60420002D01*
X170770000Y-60409700D01*
X172108450Y-60409700D01*
X172108450Y-60520000D01*
X172193823Y-60949199D01*
X172436944Y-61313056D01*
X172800801Y-61556177D01*
X173230000Y-61641550D01*
X174830000Y-61641550D01*
X175065527Y-61594701D01*
X175118765Y-61630273D01*
X175497963Y-61705700D01*
X175497967Y-61705700D01*
X175625999Y-61731167D01*
X175715271Y-61713410D01*
X175817368Y-61755700D01*
X176354432Y-61755700D01*
X176500000Y-61695404D01*
X176500001Y-64242557D01*
X176356944Y-64338144D01*
X176113823Y-64702001D01*
X176028450Y-65131200D01*
X176028450Y-65699374D01*
X175681600Y-66046224D01*
X175573053Y-66118753D01*
X175285727Y-66548766D01*
X175210300Y-66927964D01*
X175210300Y-66927967D01*
X175184833Y-67056000D01*
X175210300Y-67184033D01*
X175210301Y-70778450D01*
X174835300Y-70778450D01*
X174835300Y-70079637D01*
X174860768Y-69951600D01*
X174819186Y-69742550D01*
X174759873Y-69444365D01*
X174472547Y-69014353D01*
X174426651Y-68983686D01*
X174051210Y-68732824D01*
X173918056Y-68533544D01*
X173554199Y-68290423D01*
X173125000Y-68205050D01*
X172453600Y-68205050D01*
X172453600Y-65849927D01*
X172547500Y-65623232D01*
X172547500Y-65086168D01*
X172341975Y-64589986D01*
X171962214Y-64210225D01*
X171466032Y-64004700D01*
X170928968Y-64004700D01*
X170432786Y-64210225D01*
X170053025Y-64589986D01*
X169847500Y-65086168D01*
X169847500Y-65301234D01*
X169828133Y-65398600D01*
X169847500Y-65495966D01*
X169847500Y-65546600D01*
X169593000Y-65292100D01*
X168393000Y-65292100D01*
X168393000Y-65399600D01*
X167643000Y-65399600D01*
X167643000Y-65292100D01*
X167598000Y-65292100D01*
X167598000Y-64667100D01*
X167643000Y-64667100D01*
X167643000Y-63529600D01*
X168393000Y-63529600D01*
X168393000Y-64667100D01*
X169593000Y-64667100D01*
X169868000Y-64392100D01*
X169868000Y-64135797D01*
X169700535Y-63731500D01*
X169391100Y-63422065D01*
X168986804Y-63254600D01*
X168668000Y-63254600D01*
X168393000Y-63529600D01*
X167643000Y-63529600D01*
X167368000Y-63254600D01*
X167049196Y-63254600D01*
X166772938Y-63369030D01*
X166697199Y-63318423D01*
X166268000Y-63233050D01*
X164768000Y-63233050D01*
X164338801Y-63318423D01*
X163974944Y-63561544D01*
X163896062Y-63679600D01*
X163586974Y-63679600D01*
X163458880Y-63654133D01*
X163212486Y-63703167D01*
X162951765Y-63755027D01*
X162951714Y-63755061D01*
X162951655Y-63755073D01*
X162734845Y-63899969D01*
X162521753Y-64042353D01*
X162471467Y-64117611D01*
X162377199Y-64054623D01*
X161948000Y-63969250D01*
X157448000Y-63969250D01*
X157018801Y-64054623D01*
X156917855Y-64122073D01*
X156076795Y-63280928D01*
X156004247Y-63172353D01*
X155776817Y-63020388D01*
X155574296Y-62885053D01*
X155574265Y-62885047D01*
X155574235Y-62885027D01*
X155302837Y-62831043D01*
X155067066Y-62784133D01*
X154939001Y-62809600D01*
X148210033Y-62809600D01*
X148082000Y-62784133D01*
X147953967Y-62809600D01*
X147953963Y-62809600D01*
X147574765Y-62885027D01*
X147144753Y-63172353D01*
X147072226Y-63280897D01*
X146326500Y-64026624D01*
X146241535Y-63821500D01*
X145932100Y-63512065D01*
X145527804Y-63344600D01*
X145196500Y-63344600D01*
X144921500Y-63619600D01*
X144921500Y-64593050D01*
X144146500Y-64593050D01*
X144146500Y-63619600D01*
X143871500Y-63344600D01*
X143540196Y-63344600D01*
X143135900Y-63512065D01*
X142982871Y-63665094D01*
X142420476Y-63102700D01*
X142347947Y-62994153D01*
X141917935Y-62706827D01*
X141538737Y-62631400D01*
X141538733Y-62631400D01*
X141410700Y-62605933D01*
X141282667Y-62631400D01*
X138383278Y-62631400D01*
X137224530Y-61472653D01*
X137273100Y-61452535D01*
X137582535Y-61143100D01*
X137750000Y-60738803D01*
X137750000Y-60545000D01*
X137475000Y-60270000D01*
X136250000Y-60270000D01*
X136250000Y-60440000D01*
X136191876Y-60440000D01*
X135939600Y-60187724D01*
X135939600Y-60088367D01*
X136301035Y-60016473D01*
X136669906Y-59770000D01*
X137475000Y-59770000D01*
X137750000Y-59495000D01*
X137750000Y-59301197D01*
X137582535Y-58896900D01*
X137554906Y-58869271D01*
X137954205Y-58469973D01*
X138062747Y-58397447D01*
X138135272Y-58288906D01*
X138135274Y-58288904D01*
X138248132Y-58120000D01*
X140697336Y-58120000D01*
X141050801Y-58356177D01*
X141050801Y-58356177D01*
G37*
X141050801Y-58356177D02*
X141371661Y-58420000D01*
X141050801Y-58483823D01*
X140686944Y-58726944D01*
X140443823Y-59090801D01*
X140358450Y-59520000D01*
X140358450Y-60520000D01*
X140443823Y-60949199D01*
X140686944Y-61313056D01*
X141050801Y-61556177D01*
X141480000Y-61641550D01*
X143080000Y-61641550D01*
X143509199Y-61556177D01*
X143873056Y-61313056D01*
X143906748Y-61262632D01*
X143997535Y-61244573D01*
X144427547Y-60957247D01*
X144500076Y-60848700D01*
X144939077Y-60409700D01*
X145380000Y-60409700D01*
X145380000Y-60420002D01*
X145504998Y-60420002D01*
X145380000Y-60545000D01*
X145380000Y-60738803D01*
X145547465Y-61143100D01*
X145856900Y-61452535D01*
X146261196Y-61620000D01*
X146605000Y-61620000D01*
X146880000Y-61345000D01*
X146880000Y-60409700D01*
X147680000Y-60409700D01*
X147680000Y-61345000D01*
X147955000Y-61620000D01*
X148298804Y-61620000D01*
X148703100Y-61452535D01*
X149012535Y-61143100D01*
X149180000Y-60738803D01*
X149180000Y-60545000D01*
X149055002Y-60420002D01*
X149180000Y-60420002D01*
X149180000Y-60409700D01*
X151788450Y-60409700D01*
X151788450Y-60520000D01*
X151873823Y-60949199D01*
X152116944Y-61313056D01*
X152480801Y-61556177D01*
X152910000Y-61641550D01*
X154510000Y-61641550D01*
X154939199Y-61556177D01*
X155292664Y-61320000D01*
X156076967Y-61320000D01*
X156205000Y-61345467D01*
X156333033Y-61320000D01*
X156333037Y-61320000D01*
X156712235Y-61244573D01*
X156952890Y-61083772D01*
X156977465Y-61143100D01*
X157286900Y-61452535D01*
X157691196Y-61620000D01*
X158035000Y-61620000D01*
X158310000Y-61345000D01*
X158310000Y-60270000D01*
X159110000Y-60270000D01*
X159110000Y-61345000D01*
X159385000Y-61620000D01*
X159728804Y-61620000D01*
X160133100Y-61452535D01*
X160442535Y-61143100D01*
X160610000Y-60738803D01*
X160610000Y-60545000D01*
X160335000Y-60270000D01*
X159110000Y-60270000D01*
X158310000Y-60270000D01*
X158290000Y-60270000D01*
X158290000Y-59773477D01*
X158293477Y-59770000D01*
X158310000Y-59770000D01*
X158310000Y-59753477D01*
X158463477Y-59600000D01*
X159110000Y-59600000D01*
X159110000Y-59770000D01*
X160335000Y-59770000D01*
X160610000Y-59495000D01*
X160610000Y-59301197D01*
X160497791Y-59030300D01*
X162074248Y-59030300D01*
X162033823Y-59090801D01*
X161948450Y-59520000D01*
X161948450Y-60520000D01*
X162033823Y-60949199D01*
X162276944Y-61313056D01*
X162640801Y-61556177D01*
X163070000Y-61641550D01*
X164670000Y-61641550D01*
X165099199Y-61556177D01*
X165463056Y-61313056D01*
X165496748Y-61262632D01*
X165587535Y-61244573D01*
X166017547Y-60957247D01*
X166090076Y-60848700D01*
X166529077Y-60409700D01*
X166970000Y-60409700D01*
X166970000Y-60420002D01*
X167094998Y-60420002D01*
X166970000Y-60545000D01*
X166970000Y-60738803D01*
X167137465Y-61143100D01*
X167446900Y-61452535D01*
X167851196Y-61620000D01*
X168195000Y-61620000D01*
X168470000Y-61345000D01*
X168470000Y-60409700D01*
X169270000Y-60409700D01*
X169270000Y-61345000D01*
X169545000Y-61620000D01*
X169888804Y-61620000D01*
X170293100Y-61452535D01*
X170602535Y-61143100D01*
X170770000Y-60738803D01*
X170770000Y-60545000D01*
X170645002Y-60420002D01*
X170770000Y-60420002D01*
X170770000Y-60409700D01*
X172108450Y-60409700D01*
X172108450Y-60520000D01*
X172193823Y-60949199D01*
X172436944Y-61313056D01*
X172800801Y-61556177D01*
X173230000Y-61641550D01*
X174830000Y-61641550D01*
X175065527Y-61594701D01*
X175118765Y-61630273D01*
X175497963Y-61705700D01*
X175497967Y-61705700D01*
X175625999Y-61731167D01*
X175715271Y-61713410D01*
X175817368Y-61755700D01*
X176354432Y-61755700D01*
X176500000Y-61695404D01*
X176500001Y-64242557D01*
X176356944Y-64338144D01*
X176113823Y-64702001D01*
X176028450Y-65131200D01*
X176028450Y-65699374D01*
X175681600Y-66046224D01*
X175573053Y-66118753D01*
X175285727Y-66548766D01*
X175210300Y-66927964D01*
X175210300Y-66927967D01*
X175184833Y-67056000D01*
X175210300Y-67184033D01*
X175210301Y-70778450D01*
X174835300Y-70778450D01*
X174835300Y-70079637D01*
X174860768Y-69951600D01*
X174819186Y-69742550D01*
X174759873Y-69444365D01*
X174472547Y-69014353D01*
X174426651Y-68983686D01*
X174051210Y-68732824D01*
X173918056Y-68533544D01*
X173554199Y-68290423D01*
X173125000Y-68205050D01*
X172453600Y-68205050D01*
X172453600Y-65849927D01*
X172547500Y-65623232D01*
X172547500Y-65086168D01*
X172341975Y-64589986D01*
X171962214Y-64210225D01*
X171466032Y-64004700D01*
X170928968Y-64004700D01*
X170432786Y-64210225D01*
X170053025Y-64589986D01*
X169847500Y-65086168D01*
X169847500Y-65301234D01*
X169828133Y-65398600D01*
X169847500Y-65495966D01*
X169847500Y-65546600D01*
X169593000Y-65292100D01*
X168393000Y-65292100D01*
X168393000Y-65399600D01*
X167643000Y-65399600D01*
X167643000Y-65292100D01*
X167598000Y-65292100D01*
X167598000Y-64667100D01*
X167643000Y-64667100D01*
X167643000Y-63529600D01*
X168393000Y-63529600D01*
X168393000Y-64667100D01*
X169593000Y-64667100D01*
X169868000Y-64392100D01*
X169868000Y-64135797D01*
X169700535Y-63731500D01*
X169391100Y-63422065D01*
X168986804Y-63254600D01*
X168668000Y-63254600D01*
X168393000Y-63529600D01*
X167643000Y-63529600D01*
X167368000Y-63254600D01*
X167049196Y-63254600D01*
X166772938Y-63369030D01*
X166697199Y-63318423D01*
X166268000Y-63233050D01*
X164768000Y-63233050D01*
X164338801Y-63318423D01*
X163974944Y-63561544D01*
X163896062Y-63679600D01*
X163586974Y-63679600D01*
X163458880Y-63654133D01*
X163212486Y-63703167D01*
X162951765Y-63755027D01*
X162951714Y-63755061D01*
X162951655Y-63755073D01*
X162734845Y-63899969D01*
X162521753Y-64042353D01*
X162471467Y-64117611D01*
X162377199Y-64054623D01*
X161948000Y-63969250D01*
X157448000Y-63969250D01*
X157018801Y-64054623D01*
X156917855Y-64122073D01*
X156076795Y-63280928D01*
X156004247Y-63172353D01*
X155776817Y-63020388D01*
X155574296Y-62885053D01*
X155574265Y-62885047D01*
X155574235Y-62885027D01*
X155302837Y-62831043D01*
X155067066Y-62784133D01*
X154939001Y-62809600D01*
X148210033Y-62809600D01*
X148082000Y-62784133D01*
X147953967Y-62809600D01*
X147953963Y-62809600D01*
X147574765Y-62885027D01*
X147144753Y-63172353D01*
X147072226Y-63280897D01*
X146326500Y-64026624D01*
X146241535Y-63821500D01*
X145932100Y-63512065D01*
X145527804Y-63344600D01*
X145196500Y-63344600D01*
X144921500Y-63619600D01*
X144921500Y-64593050D01*
X144146500Y-64593050D01*
X144146500Y-63619600D01*
X143871500Y-63344600D01*
X143540196Y-63344600D01*
X143135900Y-63512065D01*
X142982871Y-63665094D01*
X142420476Y-63102700D01*
X142347947Y-62994153D01*
X141917935Y-62706827D01*
X141538737Y-62631400D01*
X141538733Y-62631400D01*
X141410700Y-62605933D01*
X141282667Y-62631400D01*
X138383278Y-62631400D01*
X137224530Y-61472653D01*
X137273100Y-61452535D01*
X137582535Y-61143100D01*
X137750000Y-60738803D01*
X137750000Y-60545000D01*
X137475000Y-60270000D01*
X136250000Y-60270000D01*
X136250000Y-60440000D01*
X136191876Y-60440000D01*
X135939600Y-60187724D01*
X135939600Y-60088367D01*
X136301035Y-60016473D01*
X136669906Y-59770000D01*
X137475000Y-59770000D01*
X137750000Y-59495000D01*
X137750000Y-59301197D01*
X137582535Y-58896900D01*
X137554906Y-58869271D01*
X137954205Y-58469973D01*
X138062747Y-58397447D01*
X138135272Y-58288906D01*
X138135274Y-58288904D01*
X138248132Y-58120000D01*
X140697336Y-58120000D01*
X141050801Y-58356177D01*
G36*
X209788252Y-55577368D02*
X209697465Y-55595427D01*
X209589601Y-55667500D01*
X209580268Y-55667500D01*
X209084086Y-55873025D01*
X208704325Y-56252786D01*
X208498800Y-56748968D01*
X208498800Y-57286032D01*
X208704325Y-57782214D01*
X209084086Y-58161975D01*
X209580268Y-58367500D01*
X210117332Y-58367500D01*
X210170060Y-58345659D01*
X210185801Y-58356177D01*
X210506661Y-58420000D01*
X210396196Y-58420000D01*
X209991900Y-58587465D01*
X209682465Y-58896900D01*
X209515000Y-59301197D01*
X209515000Y-59495000D01*
X209790000Y-59770000D01*
X211015000Y-59770000D01*
X211015000Y-59600000D01*
X211815000Y-59600000D01*
X211815000Y-59770000D01*
X211835000Y-59770000D01*
X211835000Y-60270000D01*
X211815000Y-60270000D01*
X211815000Y-61345000D01*
X212090000Y-61620000D01*
X212433804Y-61620000D01*
X212693000Y-61512637D01*
X212693000Y-64206431D01*
X212644199Y-64173823D01*
X212215000Y-64088450D01*
X211504700Y-64088450D01*
X211504700Y-62727431D01*
X211530167Y-62599399D01*
X211504700Y-62471368D01*
X211504700Y-62471363D01*
X211429273Y-62092165D01*
X211272432Y-61857437D01*
X211214474Y-61770696D01*
X211214472Y-61770694D01*
X211141947Y-61662153D01*
X211033405Y-61589628D01*
X210901889Y-61458111D01*
X211015000Y-61345000D01*
X211015000Y-60270000D01*
X209790000Y-60270000D01*
X209751888Y-60308112D01*
X208635076Y-59191300D01*
X208562547Y-59082753D01*
X208132535Y-58795427D01*
X208041748Y-58777368D01*
X208008056Y-58726944D01*
X207644199Y-58483823D01*
X207323339Y-58420000D01*
X207644199Y-58356177D01*
X208008056Y-58113056D01*
X208251177Y-57749199D01*
X208336550Y-57320000D01*
X208336550Y-56320000D01*
X208251177Y-55890801D01*
X208010766Y-55531000D01*
X209819234Y-55531000D01*
X209788252Y-55577368D01*
X209788252Y-55577368D01*
G37*
X209788252Y-55577368D02*
X209697465Y-55595427D01*
X209589601Y-55667500D01*
X209580268Y-55667500D01*
X209084086Y-55873025D01*
X208704325Y-56252786D01*
X208498800Y-56748968D01*
X208498800Y-57286032D01*
X208704325Y-57782214D01*
X209084086Y-58161975D01*
X209580268Y-58367500D01*
X210117332Y-58367500D01*
X210170060Y-58345659D01*
X210185801Y-58356177D01*
X210506661Y-58420000D01*
X210396196Y-58420000D01*
X209991900Y-58587465D01*
X209682465Y-58896900D01*
X209515000Y-59301197D01*
X209515000Y-59495000D01*
X209790000Y-59770000D01*
X211015000Y-59770000D01*
X211015000Y-59600000D01*
X211815000Y-59600000D01*
X211815000Y-59770000D01*
X211835000Y-59770000D01*
X211835000Y-60270000D01*
X211815000Y-60270000D01*
X211815000Y-61345000D01*
X212090000Y-61620000D01*
X212433804Y-61620000D01*
X212693000Y-61512637D01*
X212693000Y-64206431D01*
X212644199Y-64173823D01*
X212215000Y-64088450D01*
X211504700Y-64088450D01*
X211504700Y-62727431D01*
X211530167Y-62599399D01*
X211504700Y-62471368D01*
X211504700Y-62471363D01*
X211429273Y-62092165D01*
X211272432Y-61857437D01*
X211214474Y-61770696D01*
X211214472Y-61770694D01*
X211141947Y-61662153D01*
X211033405Y-61589628D01*
X210901889Y-61458111D01*
X211015000Y-61345000D01*
X211015000Y-60270000D01*
X209790000Y-60270000D01*
X209751888Y-60308112D01*
X208635076Y-59191300D01*
X208562547Y-59082753D01*
X208132535Y-58795427D01*
X208041748Y-58777368D01*
X208008056Y-58726944D01*
X207644199Y-58483823D01*
X207323339Y-58420000D01*
X207644199Y-58356177D01*
X208008056Y-58113056D01*
X208251177Y-57749199D01*
X208336550Y-57320000D01*
X208336550Y-56320000D01*
X208251177Y-55890801D01*
X208010766Y-55531000D01*
X209819234Y-55531000D01*
X209788252Y-55577368D01*
G36*
X182920801Y-58356177D02*
X183241661Y-58420000D01*
X182920801Y-58483823D01*
X182556944Y-58726944D01*
X182313823Y-59090801D01*
X182228450Y-59520000D01*
X182228450Y-60520000D01*
X182313823Y-60949199D01*
X182556944Y-61313056D01*
X182920801Y-61556177D01*
X183350000Y-61641550D01*
X184950000Y-61641550D01*
X185379199Y-61556177D01*
X185743056Y-61313056D01*
X185776749Y-61262631D01*
X185867535Y-61244573D01*
X186297547Y-60957247D01*
X186584873Y-60527235D01*
X186660300Y-60148037D01*
X186685768Y-60020000D01*
X186660300Y-59891963D01*
X186660300Y-59254376D01*
X187703617Y-58211060D01*
X187920801Y-58356177D01*
X188241661Y-58420000D01*
X188131196Y-58420000D01*
X187726900Y-58587465D01*
X187417465Y-58896900D01*
X187250000Y-59301197D01*
X187250000Y-59495000D01*
X187525000Y-59770000D01*
X188750000Y-59770000D01*
X188750000Y-59600000D01*
X189060300Y-59600000D01*
X189060301Y-60440000D01*
X188750000Y-60440000D01*
X188750000Y-60270000D01*
X187525000Y-60270000D01*
X187250000Y-60545000D01*
X187250000Y-60738803D01*
X187417465Y-61143100D01*
X187726900Y-61452535D01*
X188131196Y-61620000D01*
X188475000Y-61620000D01*
X188749998Y-61345002D01*
X188749998Y-61501226D01*
X188579500Y-61671724D01*
X188458786Y-61721725D01*
X188079025Y-62101486D01*
X187873500Y-62597668D01*
X187873500Y-63134732D01*
X187960487Y-63344738D01*
X187640054Y-63281000D01*
X187255946Y-63281000D01*
X186687148Y-63394141D01*
X186178000Y-63734343D01*
X185668852Y-63394141D01*
X185100054Y-63281000D01*
X184715946Y-63281000D01*
X184147148Y-63394141D01*
X183638000Y-63734343D01*
X183128852Y-63394141D01*
X182560054Y-63281000D01*
X182175946Y-63281000D01*
X181607148Y-63394141D01*
X180962129Y-63825129D01*
X180877857Y-63951250D01*
X180600465Y-64006427D01*
X180338900Y-64181200D01*
X179100000Y-64181200D01*
X179100000Y-61620000D01*
X179430002Y-61620000D01*
X179430002Y-61345002D01*
X179705000Y-61620000D01*
X180048804Y-61620000D01*
X180453100Y-61452535D01*
X180762535Y-61143100D01*
X180930000Y-60738803D01*
X180930000Y-60545000D01*
X180655000Y-60270000D01*
X179430000Y-60270000D01*
X179430000Y-60440000D01*
X179100000Y-60440000D01*
X179100000Y-59900176D01*
X179269490Y-59730686D01*
X179343800Y-59745467D01*
X179430000Y-59728321D01*
X179430000Y-59770000D01*
X180655000Y-59770000D01*
X180930000Y-59495000D01*
X180930000Y-59301197D01*
X180762535Y-58896900D01*
X180733956Y-58868321D01*
X181482277Y-58120000D01*
X182567336Y-58120000D01*
X182920801Y-58356177D01*
X182920801Y-58356177D01*
G37*
X182920801Y-58356177D02*
X183241661Y-58420000D01*
X182920801Y-58483823D01*
X182556944Y-58726944D01*
X182313823Y-59090801D01*
X182228450Y-59520000D01*
X182228450Y-60520000D01*
X182313823Y-60949199D01*
X182556944Y-61313056D01*
X182920801Y-61556177D01*
X183350000Y-61641550D01*
X184950000Y-61641550D01*
X185379199Y-61556177D01*
X185743056Y-61313056D01*
X185776749Y-61262631D01*
X185867535Y-61244573D01*
X186297547Y-60957247D01*
X186584873Y-60527235D01*
X186660300Y-60148037D01*
X186685768Y-60020000D01*
X186660300Y-59891963D01*
X186660300Y-59254376D01*
X187703617Y-58211060D01*
X187920801Y-58356177D01*
X188241661Y-58420000D01*
X188131196Y-58420000D01*
X187726900Y-58587465D01*
X187417465Y-58896900D01*
X187250000Y-59301197D01*
X187250000Y-59495000D01*
X187525000Y-59770000D01*
X188750000Y-59770000D01*
X188750000Y-59600000D01*
X189060300Y-59600000D01*
X189060301Y-60440000D01*
X188750000Y-60440000D01*
X188750000Y-60270000D01*
X187525000Y-60270000D01*
X187250000Y-60545000D01*
X187250000Y-60738803D01*
X187417465Y-61143100D01*
X187726900Y-61452535D01*
X188131196Y-61620000D01*
X188475000Y-61620000D01*
X188749998Y-61345002D01*
X188749998Y-61501226D01*
X188579500Y-61671724D01*
X188458786Y-61721725D01*
X188079025Y-62101486D01*
X187873500Y-62597668D01*
X187873500Y-63134732D01*
X187960487Y-63344738D01*
X187640054Y-63281000D01*
X187255946Y-63281000D01*
X186687148Y-63394141D01*
X186178000Y-63734343D01*
X185668852Y-63394141D01*
X185100054Y-63281000D01*
X184715946Y-63281000D01*
X184147148Y-63394141D01*
X183638000Y-63734343D01*
X183128852Y-63394141D01*
X182560054Y-63281000D01*
X182175946Y-63281000D01*
X181607148Y-63394141D01*
X180962129Y-63825129D01*
X180877857Y-63951250D01*
X180600465Y-64006427D01*
X180338900Y-64181200D01*
X179100000Y-64181200D01*
X179100000Y-61620000D01*
X179430002Y-61620000D01*
X179430002Y-61345002D01*
X179705000Y-61620000D01*
X180048804Y-61620000D01*
X180453100Y-61452535D01*
X180762535Y-61143100D01*
X180930000Y-60738803D01*
X180930000Y-60545000D01*
X180655000Y-60270000D01*
X179430000Y-60270000D01*
X179430000Y-60440000D01*
X179100000Y-60440000D01*
X179100000Y-59900176D01*
X179269490Y-59730686D01*
X179343800Y-59745467D01*
X179430000Y-59728321D01*
X179430000Y-59770000D01*
X180655000Y-59770000D01*
X180930000Y-59495000D01*
X180930000Y-59301197D01*
X180762535Y-58896900D01*
X180733956Y-58868321D01*
X181482277Y-58120000D01*
X182567336Y-58120000D01*
X182920801Y-58356177D01*
G04 #@! TD*
M02*
