G04 #@! TF.GenerationSoftware,KiCad,Pcbnew,(5.0.0)*
G04 #@! TF.CreationDate,2019-02-18T20:12:55-05:00*
G04 #@! TF.ProjectId,WS2812B Tiny T,575332383132422054696E7920542E6B,rev?*
G04 #@! TF.SameCoordinates,Original*
G04 #@! TF.FileFunction,Legend,Bot*
G04 #@! TF.FilePolarity,Positive*
%FSLAX46Y46*%
G04 Gerber Fmt 4.6, Leading zero omitted, Abs format (unit mm)*
G04 Created by KiCad (PCBNEW (5.0.0)) date 02/18/19 20:12:55*
%MOMM*%
%LPD*%
G01*
G04 APERTURE LIST*
%ADD10C,0.200000*%
%ADD11C,0.300000*%
%ADD12C,0.500000*%
%ADD13C,0.250000*%
%ADD14C,0.150000*%
G04 APERTURE END LIST*
D10*
X189425371Y-148292247D02*
X189425371Y-146592247D01*
X188782514Y-148292247D02*
X188782514Y-147401771D01*
X188853942Y-147239866D01*
X188996800Y-147158914D01*
X189211085Y-147158914D01*
X189353942Y-147239866D01*
X189425371Y-147320819D01*
X188282514Y-147158914D02*
X187711085Y-147158914D01*
X188068228Y-146592247D02*
X188068228Y-148049390D01*
X187996800Y-148211295D01*
X187853942Y-148292247D01*
X187711085Y-148292247D01*
X187425371Y-147158914D02*
X186853942Y-147158914D01*
X187211085Y-146592247D02*
X187211085Y-148049390D01*
X187139657Y-148211295D01*
X186996800Y-148292247D01*
X186853942Y-148292247D01*
X186353942Y-147158914D02*
X186353942Y-148858914D01*
X186353942Y-147239866D02*
X186211085Y-147158914D01*
X185925371Y-147158914D01*
X185782514Y-147239866D01*
X185711085Y-147320819D01*
X185639657Y-147482723D01*
X185639657Y-147968438D01*
X185711085Y-148130342D01*
X185782514Y-148211295D01*
X185925371Y-148292247D01*
X186211085Y-148292247D01*
X186353942Y-148211295D01*
X185068228Y-148211295D02*
X184925371Y-148292247D01*
X184639657Y-148292247D01*
X184496800Y-148211295D01*
X184425371Y-148049390D01*
X184425371Y-147968438D01*
X184496800Y-147806533D01*
X184639657Y-147725580D01*
X184853942Y-147725580D01*
X184996800Y-147644628D01*
X185068228Y-147482723D01*
X185068228Y-147401771D01*
X184996800Y-147239866D01*
X184853942Y-147158914D01*
X184639657Y-147158914D01*
X184496800Y-147239866D01*
X183782514Y-148130342D02*
X183711085Y-148211295D01*
X183782514Y-148292247D01*
X183853942Y-148211295D01*
X183782514Y-148130342D01*
X183782514Y-148292247D01*
X183782514Y-147239866D02*
X183711085Y-147320819D01*
X183782514Y-147401771D01*
X183853942Y-147320819D01*
X183782514Y-147239866D01*
X183782514Y-147401771D01*
X181996800Y-146511295D02*
X183282514Y-148697009D01*
X180425371Y-146511295D02*
X181711085Y-148697009D01*
X179353942Y-148211295D02*
X179496800Y-148292247D01*
X179782514Y-148292247D01*
X179925371Y-148211295D01*
X179996800Y-148049390D01*
X179996800Y-147401771D01*
X179925371Y-147239866D01*
X179782514Y-147158914D01*
X179496800Y-147158914D01*
X179353942Y-147239866D01*
X179282514Y-147401771D01*
X179282514Y-147563676D01*
X179996800Y-147725580D01*
X178639657Y-147158914D02*
X178639657Y-148292247D01*
X178639657Y-147320819D02*
X178568228Y-147239866D01*
X178425371Y-147158914D01*
X178211085Y-147158914D01*
X178068228Y-147239866D01*
X177996800Y-147401771D01*
X177996800Y-148292247D01*
X176639657Y-147158914D02*
X176639657Y-148535104D01*
X176711085Y-148697009D01*
X176782514Y-148777961D01*
X176925371Y-148858914D01*
X177139657Y-148858914D01*
X177282514Y-148777961D01*
X176639657Y-148211295D02*
X176782514Y-148292247D01*
X177068228Y-148292247D01*
X177211085Y-148211295D01*
X177282514Y-148130342D01*
X177353942Y-147968438D01*
X177353942Y-147482723D01*
X177282514Y-147320819D01*
X177211085Y-147239866D01*
X177068228Y-147158914D01*
X176782514Y-147158914D01*
X176639657Y-147239866D01*
X175925371Y-148292247D02*
X175925371Y-147158914D01*
X175925371Y-146592247D02*
X175996800Y-146673200D01*
X175925371Y-146754152D01*
X175853942Y-146673200D01*
X175925371Y-146592247D01*
X175925371Y-146754152D01*
X175211085Y-147158914D02*
X175211085Y-148292247D01*
X175211085Y-147320819D02*
X175139657Y-147239866D01*
X174996800Y-147158914D01*
X174782514Y-147158914D01*
X174639657Y-147239866D01*
X174568228Y-147401771D01*
X174568228Y-148292247D01*
X173282514Y-148211295D02*
X173425371Y-148292247D01*
X173711085Y-148292247D01*
X173853942Y-148211295D01*
X173925371Y-148049390D01*
X173925371Y-147401771D01*
X173853942Y-147239866D01*
X173711085Y-147158914D01*
X173425371Y-147158914D01*
X173282514Y-147239866D01*
X173211085Y-147401771D01*
X173211085Y-147563676D01*
X173925371Y-147725580D01*
X171996800Y-148211295D02*
X172139657Y-148292247D01*
X172425371Y-148292247D01*
X172568228Y-148211295D01*
X172639657Y-148049390D01*
X172639657Y-147401771D01*
X172568228Y-147239866D01*
X172425371Y-147158914D01*
X172139657Y-147158914D01*
X171996800Y-147239866D01*
X171925371Y-147401771D01*
X171925371Y-147563676D01*
X172639657Y-147725580D01*
X171282514Y-148292247D02*
X171282514Y-147158914D01*
X171282514Y-147482723D02*
X171211085Y-147320819D01*
X171139657Y-147239866D01*
X170996800Y-147158914D01*
X170853942Y-147158914D01*
X170353942Y-148292247D02*
X170353942Y-147158914D01*
X170353942Y-146592247D02*
X170425371Y-146673200D01*
X170353942Y-146754152D01*
X170282514Y-146673200D01*
X170353942Y-146592247D01*
X170353942Y-146754152D01*
X169639657Y-147158914D02*
X169639657Y-148292247D01*
X169639657Y-147320819D02*
X169568228Y-147239866D01*
X169425371Y-147158914D01*
X169211085Y-147158914D01*
X169068228Y-147239866D01*
X168996800Y-147401771D01*
X168996800Y-148292247D01*
X167639657Y-147158914D02*
X167639657Y-148535104D01*
X167711085Y-148697009D01*
X167782514Y-148777961D01*
X167925371Y-148858914D01*
X168139657Y-148858914D01*
X168282514Y-148777961D01*
X167639657Y-148211295D02*
X167782514Y-148292247D01*
X168068228Y-148292247D01*
X168211085Y-148211295D01*
X168282514Y-148130342D01*
X168353942Y-147968438D01*
X168353942Y-147482723D01*
X168282514Y-147320819D01*
X168211085Y-147239866D01*
X168068228Y-147158914D01*
X167782514Y-147158914D01*
X167639657Y-147239866D01*
X166925371Y-148130342D02*
X166853942Y-148211295D01*
X166925371Y-148292247D01*
X166996800Y-148211295D01*
X166925371Y-148130342D01*
X166925371Y-148292247D01*
X166425371Y-147158914D02*
X165853942Y-147158914D01*
X166211085Y-146592247D02*
X166211085Y-148049390D01*
X166139657Y-148211295D01*
X165996800Y-148292247D01*
X165853942Y-148292247D01*
X164782514Y-148211295D02*
X164925371Y-148292247D01*
X165211085Y-148292247D01*
X165353942Y-148211295D01*
X165425371Y-148049390D01*
X165425371Y-147401771D01*
X165353942Y-147239866D01*
X165211085Y-147158914D01*
X164925371Y-147158914D01*
X164782514Y-147239866D01*
X164711085Y-147401771D01*
X164711085Y-147563676D01*
X165425371Y-147725580D01*
X164068228Y-148292247D02*
X164068228Y-147158914D01*
X164068228Y-147320819D02*
X163996800Y-147239866D01*
X163853942Y-147158914D01*
X163639657Y-147158914D01*
X163496800Y-147239866D01*
X163425371Y-147401771D01*
X163425371Y-148292247D01*
X163425371Y-147401771D02*
X163353942Y-147239866D01*
X163211085Y-147158914D01*
X162996800Y-147158914D01*
X162853942Y-147239866D01*
X162782514Y-147401771D01*
X162782514Y-148292247D01*
X162068228Y-147158914D02*
X162068228Y-148858914D01*
X162068228Y-147239866D02*
X161925371Y-147158914D01*
X161639657Y-147158914D01*
X161496800Y-147239866D01*
X161425371Y-147320819D01*
X161353942Y-147482723D01*
X161353942Y-147968438D01*
X161425371Y-148130342D01*
X161496800Y-148211295D01*
X161639657Y-148292247D01*
X161925371Y-148292247D01*
X162068228Y-148211295D01*
X160496800Y-148292247D02*
X160639657Y-148211295D01*
X160711085Y-148049390D01*
X160711085Y-146592247D01*
X159353942Y-148211295D02*
X159496800Y-148292247D01*
X159782514Y-148292247D01*
X159925371Y-148211295D01*
X159996800Y-148049390D01*
X159996800Y-147401771D01*
X159925371Y-147239866D01*
X159782514Y-147158914D01*
X159496800Y-147158914D01*
X159353942Y-147239866D01*
X159282514Y-147401771D01*
X159282514Y-147563676D01*
X159996800Y-147725580D01*
X158639657Y-148130342D02*
X158568228Y-148211295D01*
X158639657Y-148292247D01*
X158711085Y-148211295D01*
X158639657Y-148130342D01*
X158639657Y-148292247D01*
X157353942Y-148211295D02*
X157496800Y-148292247D01*
X157782514Y-148292247D01*
X157925371Y-148211295D01*
X157996800Y-148049390D01*
X157996800Y-147401771D01*
X157925371Y-147239866D01*
X157782514Y-147158914D01*
X157496800Y-147158914D01*
X157353942Y-147239866D01*
X157282514Y-147401771D01*
X157282514Y-147563676D01*
X157996800Y-147725580D01*
X155996800Y-148292247D02*
X155996800Y-146592247D01*
X155996800Y-148211295D02*
X156139657Y-148292247D01*
X156425371Y-148292247D01*
X156568228Y-148211295D01*
X156639657Y-148130342D01*
X156711085Y-147968438D01*
X156711085Y-147482723D01*
X156639657Y-147320819D01*
X156568228Y-147239866D01*
X156425371Y-147158914D01*
X156139657Y-147158914D01*
X155996800Y-147239866D01*
X154639657Y-147158914D02*
X154639657Y-148292247D01*
X155282514Y-147158914D02*
X155282514Y-148049390D01*
X155211085Y-148211295D01*
X155068228Y-148292247D01*
X154853942Y-148292247D01*
X154711085Y-148211295D01*
X154639657Y-148130342D01*
X152853942Y-146511295D02*
X154139657Y-148697009D01*
D11*
X205854571Y-67226571D02*
X205854571Y-65726571D01*
X205354571Y-66798000D01*
X204854571Y-65726571D01*
X204854571Y-67226571D01*
X203497428Y-67226571D02*
X203497428Y-66440857D01*
X203568857Y-66298000D01*
X203711714Y-66226571D01*
X203997428Y-66226571D01*
X204140285Y-66298000D01*
X203497428Y-67155142D02*
X203640285Y-67226571D01*
X203997428Y-67226571D01*
X204140285Y-67155142D01*
X204211714Y-67012285D01*
X204211714Y-66869428D01*
X204140285Y-66726571D01*
X203997428Y-66655142D01*
X203640285Y-66655142D01*
X203497428Y-66583714D01*
X202140285Y-67226571D02*
X202140285Y-65726571D01*
X202140285Y-67155142D02*
X202283142Y-67226571D01*
X202568857Y-67226571D01*
X202711714Y-67155142D01*
X202783142Y-67083714D01*
X202854571Y-66940857D01*
X202854571Y-66512285D01*
X202783142Y-66369428D01*
X202711714Y-66298000D01*
X202568857Y-66226571D01*
X202283142Y-66226571D01*
X202140285Y-66298000D01*
X200854571Y-67155142D02*
X200997428Y-67226571D01*
X201283142Y-67226571D01*
X201426000Y-67155142D01*
X201497428Y-67012285D01*
X201497428Y-66440857D01*
X201426000Y-66298000D01*
X201283142Y-66226571D01*
X200997428Y-66226571D01*
X200854571Y-66298000D01*
X200783142Y-66440857D01*
X200783142Y-66583714D01*
X201497428Y-66726571D01*
X198354571Y-67226571D02*
X198354571Y-66440857D01*
X198426000Y-66298000D01*
X198568857Y-66226571D01*
X198854571Y-66226571D01*
X198997428Y-66298000D01*
X198354571Y-67155142D02*
X198497428Y-67226571D01*
X198854571Y-67226571D01*
X198997428Y-67155142D01*
X199068857Y-67012285D01*
X199068857Y-66869428D01*
X198997428Y-66726571D01*
X198854571Y-66655142D01*
X198497428Y-66655142D01*
X198354571Y-66583714D01*
X197854571Y-66226571D02*
X197283142Y-66226571D01*
X197640285Y-65726571D02*
X197640285Y-67012285D01*
X197568857Y-67155142D01*
X197426000Y-67226571D01*
X197283142Y-67226571D01*
D12*
X205805600Y-71037485D02*
X204472266Y-71037485D01*
X203900838Y-73132723D02*
X205805600Y-73132723D01*
X205805600Y-69132723D01*
X203900838Y-69132723D01*
X202567504Y-73132723D02*
X200472266Y-70466057D01*
X202567504Y-70466057D02*
X200472266Y-73132723D01*
X198948457Y-70466057D02*
X198948457Y-74466057D01*
X198948457Y-70656533D02*
X198567504Y-70466057D01*
X197805600Y-70466057D01*
X197424647Y-70656533D01*
X197234171Y-70847009D01*
X197043695Y-71227961D01*
X197043695Y-72370819D01*
X197234171Y-72751771D01*
X197424647Y-72942247D01*
X197805600Y-73132723D01*
X198567504Y-73132723D01*
X198948457Y-72942247D01*
X193805600Y-72942247D02*
X194186552Y-73132723D01*
X194948457Y-73132723D01*
X195329409Y-72942247D01*
X195519885Y-72561295D01*
X195519885Y-71037485D01*
X195329409Y-70656533D01*
X194948457Y-70466057D01*
X194186552Y-70466057D01*
X193805600Y-70656533D01*
X193615123Y-71037485D01*
X193615123Y-71418438D01*
X195519885Y-71799390D01*
X191900838Y-73132723D02*
X191900838Y-70466057D01*
X191900838Y-71227961D02*
X191710361Y-70847009D01*
X191519885Y-70656533D01*
X191138933Y-70466057D01*
X190757980Y-70466057D01*
X189424647Y-73132723D02*
X189424647Y-70466057D01*
X189424647Y-69132723D02*
X189615123Y-69323200D01*
X189424647Y-69513676D01*
X189234171Y-69323200D01*
X189424647Y-69132723D01*
X189424647Y-69513676D01*
X185996076Y-72942247D02*
X186377028Y-73132723D01*
X187138933Y-73132723D01*
X187519885Y-72942247D01*
X187710361Y-72561295D01*
X187710361Y-71037485D01*
X187519885Y-70656533D01*
X187138933Y-70466057D01*
X186377028Y-70466057D01*
X185996076Y-70656533D01*
X185805600Y-71037485D01*
X185805600Y-71418438D01*
X187710361Y-71799390D01*
X184091314Y-70466057D02*
X184091314Y-73132723D01*
X184091314Y-70847009D02*
X183900838Y-70656533D01*
X183519885Y-70466057D01*
X182948457Y-70466057D01*
X182567504Y-70656533D01*
X182377028Y-71037485D01*
X182377028Y-73132723D01*
X178757980Y-72942247D02*
X179138933Y-73132723D01*
X179900838Y-73132723D01*
X180281790Y-72942247D01*
X180472266Y-72751771D01*
X180662742Y-72370819D01*
X180662742Y-71227961D01*
X180472266Y-70847009D01*
X180281790Y-70656533D01*
X179900838Y-70466057D01*
X179138933Y-70466057D01*
X178757980Y-70656533D01*
X175519885Y-72942247D02*
X175900838Y-73132723D01*
X176662742Y-73132723D01*
X177043695Y-72942247D01*
X177234171Y-72561295D01*
X177234171Y-71037485D01*
X177043695Y-70656533D01*
X176662742Y-70466057D01*
X175900838Y-70466057D01*
X175519885Y-70656533D01*
X175329409Y-71037485D01*
X175329409Y-71418438D01*
X177234171Y-71799390D01*
X171138933Y-69132723D02*
X168853219Y-69132723D01*
X169996076Y-73132723D02*
X169996076Y-69132723D01*
X165996076Y-72942247D02*
X166377028Y-73132723D01*
X167138933Y-73132723D01*
X167519885Y-72942247D01*
X167710361Y-72561295D01*
X167710361Y-71037485D01*
X167519885Y-70656533D01*
X167138933Y-70466057D01*
X166377028Y-70466057D01*
X165996076Y-70656533D01*
X165805600Y-71037485D01*
X165805600Y-71418438D01*
X167710361Y-71799390D01*
X164091314Y-73132723D02*
X164091314Y-70466057D01*
X164091314Y-70847009D02*
X163900838Y-70656533D01*
X163519885Y-70466057D01*
X162948457Y-70466057D01*
X162567504Y-70656533D01*
X162377028Y-71037485D01*
X162377028Y-73132723D01*
X162377028Y-71037485D02*
X162186552Y-70656533D01*
X161805600Y-70466057D01*
X161234171Y-70466057D01*
X160853219Y-70656533D01*
X160662742Y-71037485D01*
X160662742Y-73132723D01*
X158757980Y-70466057D02*
X158757980Y-74466057D01*
X158757980Y-70656533D02*
X158377028Y-70466057D01*
X157615123Y-70466057D01*
X157234171Y-70656533D01*
X157043695Y-70847009D01*
X156853219Y-71227961D01*
X156853219Y-72370819D01*
X157043695Y-72751771D01*
X157234171Y-72942247D01*
X157615123Y-73132723D01*
X158377028Y-73132723D01*
X158757980Y-72942247D01*
X154567504Y-73132723D02*
X154948457Y-72942247D01*
X155138933Y-72561295D01*
X155138933Y-69132723D01*
X151519885Y-72942247D02*
X151900838Y-73132723D01*
X152662742Y-73132723D01*
X153043695Y-72942247D01*
X153234171Y-72561295D01*
X153234171Y-71037485D01*
X153043695Y-70656533D01*
X152662742Y-70466057D01*
X151900838Y-70466057D01*
X151519885Y-70656533D01*
X151329409Y-71037485D01*
X151329409Y-71418438D01*
X153234171Y-71799390D01*
X146567504Y-73132723D02*
X146567504Y-69132723D01*
X145615123Y-69132723D01*
X145043695Y-69323200D01*
X144662742Y-69704152D01*
X144472266Y-70085104D01*
X144281790Y-70847009D01*
X144281790Y-71418438D01*
X144472266Y-72180342D01*
X144662742Y-72561295D01*
X145043695Y-72942247D01*
X145615123Y-73132723D01*
X146567504Y-73132723D01*
X140853219Y-73132723D02*
X140853219Y-71037485D01*
X141043695Y-70656533D01*
X141424647Y-70466057D01*
X142186552Y-70466057D01*
X142567504Y-70656533D01*
X140853219Y-72942247D02*
X141234171Y-73132723D01*
X142186552Y-73132723D01*
X142567504Y-72942247D01*
X142757980Y-72561295D01*
X142757980Y-72180342D01*
X142567504Y-71799390D01*
X142186552Y-71608914D01*
X141234171Y-71608914D01*
X140853219Y-71418438D01*
X139329409Y-70466057D02*
X138377028Y-73132723D01*
X137424647Y-70466057D02*
X138377028Y-73132723D01*
X138757980Y-74085104D01*
X138948457Y-74275580D01*
X139329409Y-74466057D01*
D10*
X182120953Y-107696000D02*
G75*
G03X182120953Y-107696000I-10924953J0D01*
G01*
D13*
G04 #@! TO.C,J1*
X171200000Y-120300000D02*
X174700000Y-120300000D01*
X174700000Y-120300000D02*
X174700000Y-118300000D01*
X171200000Y-120300000D02*
X168200000Y-120300000D01*
X168200000Y-120300000D02*
X167700000Y-120300000D01*
X167700000Y-120300000D02*
X167700000Y-118300000D01*
X182200000Y-107800000D02*
G75*
G03X182200000Y-107800000I-11000000J0D01*
G01*
D14*
X171533333Y-107752380D02*
X171533333Y-108466666D01*
X171580952Y-108609523D01*
X171676190Y-108704761D01*
X171819047Y-108752380D01*
X171914285Y-108752380D01*
X170533333Y-108752380D02*
X171104761Y-108752380D01*
X170819047Y-108752380D02*
X170819047Y-107752380D01*
X170914285Y-107895238D01*
X171009523Y-107990476D01*
X171104761Y-108038095D01*
D11*
X175390476Y-111181285D02*
X175485714Y-111276523D01*
X175771428Y-111371761D01*
X175961904Y-111371761D01*
X176247619Y-111276523D01*
X176438095Y-111086047D01*
X176533333Y-110895571D01*
X176628571Y-110514619D01*
X176628571Y-110228904D01*
X176533333Y-109847952D01*
X176438095Y-109657476D01*
X176247619Y-109467000D01*
X175961904Y-109371761D01*
X175771428Y-109371761D01*
X175485714Y-109467000D01*
X175390476Y-109562238D01*
X173390476Y-111371761D02*
X174057142Y-110419380D01*
X174533333Y-111371761D02*
X174533333Y-109371761D01*
X173771428Y-109371761D01*
X173580952Y-109467000D01*
X173485714Y-109562238D01*
X173390476Y-109752714D01*
X173390476Y-110038428D01*
X173485714Y-110228904D01*
X173580952Y-110324142D01*
X173771428Y-110419380D01*
X174533333Y-110419380D01*
X172628571Y-109562238D02*
X172533333Y-109467000D01*
X172342857Y-109371761D01*
X171866666Y-109371761D01*
X171676190Y-109467000D01*
X171580952Y-109562238D01*
X171485714Y-109752714D01*
X171485714Y-109943190D01*
X171580952Y-110228904D01*
X172723809Y-111371761D01*
X171485714Y-111371761D01*
X170247619Y-109371761D02*
X170057142Y-109371761D01*
X169866666Y-109467000D01*
X169771428Y-109562238D01*
X169676190Y-109752714D01*
X169580952Y-110133666D01*
X169580952Y-110609857D01*
X169676190Y-110990809D01*
X169771428Y-111181285D01*
X169866666Y-111276523D01*
X170057142Y-111371761D01*
X170247619Y-111371761D01*
X170438095Y-111276523D01*
X170533333Y-111181285D01*
X170628571Y-110990809D01*
X170723809Y-110609857D01*
X170723809Y-110133666D01*
X170628571Y-109752714D01*
X170533333Y-109562238D01*
X170438095Y-109467000D01*
X170247619Y-109371761D01*
X168914285Y-109371761D02*
X167676190Y-109371761D01*
X168342857Y-110133666D01*
X168057142Y-110133666D01*
X167866666Y-110228904D01*
X167771428Y-110324142D01*
X167676190Y-110514619D01*
X167676190Y-110990809D01*
X167771428Y-111181285D01*
X167866666Y-111276523D01*
X168057142Y-111371761D01*
X168628571Y-111371761D01*
X168819047Y-111276523D01*
X168914285Y-111181285D01*
X166914285Y-109562238D02*
X166819047Y-109467000D01*
X166628571Y-109371761D01*
X166152380Y-109371761D01*
X165961904Y-109467000D01*
X165866666Y-109562238D01*
X165771428Y-109752714D01*
X165771428Y-109943190D01*
X165866666Y-110228904D01*
X167009523Y-111371761D01*
X165771428Y-111371761D01*
X172008704Y-102442857D02*
X170484895Y-102442857D01*
X171961904Y-116942857D02*
X170438095Y-116942857D01*
X171200000Y-117704761D02*
X171200000Y-116180952D01*
G04 #@! TD*
M02*
